<svg xmlns="http://www.w3.org/2000/svg" xml:space="preserve" width="40" height="40" baseProfile="tiny" overflow="visible" version="1.2" viewBox="0 0 40 40"><path fill="red" fill-rule="evenodd" d="M1 13.9h38V.9H1z"/><path fill="#FFFFFE" fill-rule="evenodd" d="M1 26.3h38V13.9H1z"/><path fill="#171796" fill-rule="evenodd" d="M1 38.9h38v-13H1z"/><path fill="red" d="M20 30c4.1 0 7.4-3.4 7.4-7.4v-8.8H12.6v8.8c0 4.1 3.3 7.4 7.4 7.4"/><path fill="#FFF" d="M20 29.9c4 0 7.3-3.3 7.3-7.3v-8.7H12.7v8.7c0 4 3.3 7.3 7.3 7.3"/><path fill="red" d="M15.8 14.2H13v3.1h2.8zM15.8 20.3h2.8v-3.1h-2.8zM13 22.6v.8h2.8v-3.1H13zM21.4 20.3h-2.8v3.1h2.8zM21.4 26.5h2.8v-3.1h-2.8zM24.2 28.2c.6-.5 1.2-1 1.6-1.7h-1.6z"/><path fill="red" d="M15.8 26.5h2.8v-3.1h-2.8zM14.2 26.5c.4.6 1 1.2 1.6 1.7v-1.7zM20.5 29.6c.3 0 .6-.1.9-.1v-3h-2.8v3c.3.1.6.1.9.1zM27 23.4v-3.0999999999999996h-2.8v3.1zM21.4 20.3h2.8v-3.1h-2.8zM21.4 14.2h-2.8v3.1h2.8zM27 17.3v-3.1h-2.8v3.1z"/><path fill="#FFF" d="m27.2 13.7 1.7-4-1.3-2.1-2.2.8-1.5-1.8-2 1.2L20 6.3l-1.8 1.5-2-1.2-1.5 1.8-2.2-.8-1.3 2.1 1.7 4q3.3-1.5 7.2-1.5c2.5-.1 4.9.5 7.1 1.5"/><path fill="#0093DD" d="m14.7 8.6-2.2-.8-1.2 2 .5 1.1 1.2 2.7c.9-.4 1.8-.7 2.8-1z"/><path fill="#FFF" stroke="#000" stroke-miterlimit="10" stroke-width=".022" d="M14.5 10.5c.1.1.1.3.1.5 0 .6-.5 1.1-1.1 1.1-.5 0-1-.4-1-.9.2.3.5.5.9.5.6 0 1.1-.5 1.1-1.1v-.1z"/><path fill="#F7DB17" d="m13.1 9.6.3.2.3-.1z"/><path fill="#F7DB17" d="m13.1 9.6.6.1-.3-.2zM12.4 9.4l.6.1-.3-.2zM13.1 9.6l-.6-.1.3.2zM13.1 9.5l.4-.5-.3.1z"/><path fill="#F7DB17" d="m12.7 10 .4-.5-.3.1zM13.1 9.6l-.4.5.3-.2zM13.5 9.1l-.4.5.3-.1zM13.1 9.5l-.2-.6-.1.4zM13.3 10.2l-.2-.6-.1.3z"/><path fill="#F7DB17" d="m13.1 9.6.2.6.1-.4zM12.9 8.9l.2.6.1-.4z"/><path fill="#171796" d="m18.2 8-2-1.2-1.5 1.7 1 4c.9-.2 1.9-.4 2.9-.5z"/><path fill="red" d="M15.4 11.5c1-.3 2-.4 3-.5l-.1-1c-1.1.1-2.2.3-3.2.5zM14.9 9.5c1.1-.2 2.2-.4 3.4-.5l-.1-1c-1.2.1-2.4.3-3.5.6z"/><path fill="#0093DD" d="M21.8 8 20 6.5 18.2 8l.3 4.1c.5 0 1-.1 1.5-.1s1 0 1.5.1z"/><path d="M20 9.8c0 .1-.1.1-.1.1v.1s-.1 0-.1.1c0-.1-.1-.1-.2-.1 0 0 0-.1-.1-.1h-.1c.1.1.1.2.2.2v.1h-.2c0 .1 0 .2.1.3h-.1c0 .1.1.1.2.1l-.1.1v.1h.2v.2h.1v.2h.2v.1l.1-.1v.1l.1-.1s.1 0 .1.1v-.1h.2V11h.1v-.2h.2v-.1s0-.1-.1-.1c.1 0 .1-.1.2-.1h-.1c.1-.1.1-.2.1-.3h-.2v-.1c.1-.1.1-.2.1-.2h-.1s-.1 0-.1.1c-.1 0-.1 0-.2.1 0 0 0-.1-.1-.1v-.1c-.2 0-.3-.1-.3-.1"/><path fill="#F7DB17" d="M20.5 10.1c0-.1 0 0 0 0q-.15 0 0 0M19.5 10.1c0-.1.1 0 0 0q.15 0 0 0M20.4 10.2h-.8.8"/><path fill="#F7DB17" d="M19.6 10.2h.8v-.1l.1-.1h-.1c-.1 0-.1 0-.1.1-.1 0-.1 0-.1.1 0 0 0-.1 0 0l-.1-.1-.1.1c0-.1-.1-.1-.1-.1s0-.1-.1-.1h-.1zl-.1-.2s.1 0 .1.2q0-.15 0 0 0-.15 0 0M20.4 10.3q0 .15 0 0-.15.15 0 0-.15.15 0 0c-.1.1 0 .1 0 0 0 0-.1 0 0 0h-.9999999999999999v.1-.1.1l.1.1h-.1v-.1c0 .1 0 .2.1.2v.1h-.2.1-.1c0 .1.1.1.2.1h.1-.1s-.1 0-.1.1h.2-.2v.1h.2v.1-.1l.1-.1h-.1v.1l.1-.1h.1-.1l-.1.1h.1v.1-.1h.2v.2-.2.30000000000000004-.2.2s.1 0 .1-.1v-.1.2-.2h.2v.1-.2h.1s0-.1-.1-.1h-.1.1l.1.1v-.1h-.1l.1.1v.1-.1h.2v-.1h-.2.2c0-.1 0-.1-.1-.1.1 0 .1-.1.2-.1h-.1.1-.2v-.1c.1-.1.1-.1.1-.2v.1h-.1c.1-.1.1-.1 0-.2q.15.15 0 0 .15 0 0 0h.1c0 .1 0 .1-.1 0l.1.1v-.1zc.1 0 0 0 0 0M20.4 10.3h-.8.8"/><path fill="#F7DB17" fill-rule="evenodd" d="M19.6 10.3h.8-.4c-.1-.1-.3-.1-.4 0q0-.15 0 0 0-.15 0 0c0-.1 0 0 0 0m.2-.1"/><path d="M20 10.1q0-.15 0 0 0-.15 0 0-.15-.15 0 0 0-.15 0 0V10zc0-.1.1-.1 0 0q.15-.15 0 0c.1-.1 0-.1 0 0q0-.15 0 0M20.2 11h-.1zm0-.1-.1.1zm-.4 0 .1.1zm0 .1h.1zm.1.1h.1V11h-.1v-.1.1h.2-.1.1-.1c0 .1 0 .1-.1.1m0 0q.15 0 0 0 .15 0 0 0M20.1 10.5l.1-.1c0 .1 0 .1-.1.1m-.2 0c-.1-.1-.1-.1-.2-.1.1 0 .1 0 .2.1q.15 0 0 0c.1 0 0 0 0 0m0 .2s.1 0 0 0q.15-.15 0 0 .15 0 0 0 .15 0 0 0m.1-.3q0 .15 0 0v.2h.2c-.2-.1-.2-.1-.2-.2q0 .15 0 0m-.1.2c-.1 0-.1-.1-.1-.1 0 .1 0 .1.1.1-.1 0 0 0 0 0m.2-.2q-.15 0 0 0-.15.15 0 0v.1h.2v-.1c-.3.1-.3.1-.2 0q-.15.15 0 0-.15 0 0 0-.15 0 0 0m.1.1c-.1 0-.1 0-.1.1v.1c0-.1 0-.1.1-.2q0 .15 0 0 0 .15 0 0 0 .15 0 0c0 .1 0 0 0 0"/><path fill-rule="evenodd" d="M20.2 10.6q-.15 0 0 0-.15 0 0 0m0 0s-.1 0 0 0c-.1 0 0 0 0 0m-.4 0q.15 0 0 0 .15 0 0 0m0 0q.15 0 0 0 .15 0 0 0m0 0q.15 0 0 0 .15 0 0 0"/><path d="M19.2 8c0 .1-.1.1-.1.1v.1s-.1 0-.1.1c0-.1-.1-.1-.2-.1 0 0 0-.1-.1-.1h-.1c.1.1.1.2.2.2v.1h-.2c0 .1 0 .2.1.3h-.1c0 .1.1.1.2.1l-.1.1V9h.2v.2h.1v.2h.2v.1l.1-.1v.1l.1-.1s.1 0 .1.1v-.1h.2v-.2h.1V9h.2v-.1s0-.1-.1-.1c.1 0 .1-.1.1-.2h-.1c.1-.1.1-.2.1-.3h-.2v-.1c0-.1.1-.2.1-.3h-.1s-.1 0-.1.1c-.1 0-.1 0-.2.1 0 0 0-.1-.1-.1v-.1c-.1.1-.2.1-.2.1M20.8 8s-.1 0-.1.1v.1s-.1 0-.1.1c0-.1-.1-.1-.2-.1 0 0 0-.1-.1-.1h-.1c0 .1.1.2.1.3v.1h-.2c0 .1 0 .2.1.3h-.1c0 .1.1.1.1.2l-.1.1v.1h.2v.2h.1v.2h.2v.1l.1-.1v.1l.1-.1s.1 0 .1.1v-.1h.2v-.2h.1v-.2h.2v-.1s0-.1-.1-.1c.1 0 .1-.1.2-.1h-.1c.1-.1.1-.2.1-.3h-.2v-.1c.1-.1.1-.2.2-.2h-.1s-.1 0-.1.1c-.1 0-.1 0-.2.1 0 0 0-.1-.1-.1v-.1c-.1-.2-.1-.3-.2-.3"/><path fill="#171796" d="m25.4 8.6-1.5-1.7-2 1.2-.4 3.9c1 .1 1.9.2 2.9.5z"/><path d="M22.2 8.8h.3s.1 0 .1-.1l.1-.1c.1 0 .1-.1.2-.1h.2c.1 0 .1 0 .2.1.1 0 .1.1.2.1s.1.1.2.1h.3s.1 0 0 0c-.3.2-.5 0-.6 0 .1 0 .1.1.2.1.1.1.1.1.3.2.1 0 .2.1.3.1h.1c-.1 0-.1.1-.2.1s-.3 0-.4-.1-.2-.1-.3-.2h-.5.3v.1l-.1.1c-.1.1-.1 0-.1 0v.3l.1.1s.1 0 .1.1h.2c.1 0 .1 0 .2.1h.4s.1 0 .1.1h.5s.1 0 .1.1l-.1.1v.1c0 .1 0 .1-.1.1h-.2c0 .1 0 .1-.1.1v.1s.1.1 0 .1v.3l-.1.1c0 .1-.1.1-.1.2 0 0 0 .1-.1.1v.1l-.1.1h-.2v-.1s-.1 0-.1-.1h.1c0-.1 0-.1.1-.1l.1-.1s0-.1.1-.1v-.1h-.2l-.1.1h-.1c-.1 0-.1.1-.2.1v.3h-.2v-.1l.1-.1h.1s0-.1.1-.1V11c-.1.1-.1 0-.1 0H23v.2s0 .1-.1.1v.3h-.2.1s0-.1.1-.1c0 0 0-.1.1-.1V11c0 .1 0 .1-.1.1v.3h-.2s-.1 0-.1-.1c-.1 0-.1-.1 0-.1s.1-.1.1-.1c0-.1 0-.1.1-.1v-.3c-.1 0 0 0 0-.1v-.2c-.1 0-.1 0 0-.1l.1-.1v-.1s0-.1.1-.1v-.1c-.1 0-.1 0 0-.1v-.1h-.2v-.1c-.1 0-.1-.1 0-.1v-.1c0-.1.1-.1.1-.1h-.1v-.1c-.6-.3-.6-.3-.6-.4"/><path fill="#F7DB17" d="M23.5 10.7s0 .1 0 0c0 0-.1.1 0 0l-.1.1c-.1 0-.1.1-.1.1v.2h-.1.1c0 .1-.1 0-.2 0h.1l.1-.1.1-.1c0-.1 0-.1.1-.1zv-.2.1h.1l.1-.1v.2-.1h.1c-.3 0-.3 0-.3.1"/><path fill="#F7DB17" d="M22.3 10s0-.1 0 0l.1-.1zc.1 0 0 0 0 0q.15.15 0 0 .15 0 0 0h.1zq.15 0 0 0 .15.15 0 0c0 .1 0 .1.1.1v.5c-.1 0 0 .1 0 .1 0 .1-.1.1-.2.1 0 0 .1 0 0 0h.2v-.1s0-.1.1-.1v-.1s0-.1.1-.1h.1V10v.7000000000000001s0 .1-.1.1l-.1.1h-.1v.1h.2v-.30000000000000004s0-.1.1-.1v-.1h.2v-.2.2l.1-.1.1-.1-.1.1-.1.1s0-.1.1-.1h.1v-.1.1H23s0 .1-.1.1v.1h.1l.1-.1v.1h.1v.2h.1c0 .1-.1.2-.2.2 0 0-.1 0-.1.1h-.1.1v.1h.2s.1 0 .1-.1c-.1 0 0 0 0 0s.1 0 .1-.1.1-.1.1-.2l.1-.1v-.4l-.1-.1h.1v-.1h.1V10h.1v-.1h.1-.4v.1-.2h-.2s0 .1.1.1v.1-.1s0-.1-.1-.1v.1h-.1v.2-.2.2-.2l-.1-.1v.1-.1H23v.1-.2h-.1v.2-.30000000000000004s0-.1-.1-.1v.2-.30000000000000004h-.2.4-.2.2-.5.30000000000000004v-.1l-.1-.1h-.2v.1-.1h-.30000000000000004.1v.1h-.1.4-.1s-.1 0-.1.1l-.1.1h-.1v.1l-.1.1v.1h.1c.1-.1.1 0 0 0l-.1.1v.1h.1v-.30000000000000004.30000000000000004s.1 0 .1-.1c0 0 0-.1.1-.1v.1-.1l-.1.1h.1-.1l-.1.1zh-.1c.2-.1.2-.1.1 0 0-.1 0 0 0 0M22.3 9q0-.15 0 0l-.1-.1c.1 0 .1 0 .1.1q0-.15 0 0 0-.15 0 0 0-.15 0 0 0-.15 0 0c0-.1 0-.1-.1-.1h.30000000000000004s-.1 0-.2.1q.15-.15 0 0c0-.1 0 0 0 0"/><path d="M23.6 10.7c-.1 0 0 0 0 0M23.7 11s0 .1 0 0q0 .15 0 0 0 .15 0 0 0 .15 0 0 0 .15 0 0c0 .1 0 0 0 0M23.8 10.9s0 .1 0 0q-.15.15 0 0-.15.15 0 0c-.1 0 0 0 0 0M24 10.8q-.15.15 0 0-.15.15 0 0-.15 0 0 0M23.9 10.3v.1c.1 0 .1 0 0-.1q.15.15 0 0c.1.1.1 0 0 0q.15 0 0 0 .15 0 0 0 .15 0 0 0 .15 0 0 0c.1 0 .1.1 0 0v.2c.1-.1.1-.1 0-.2M23.9 10.5v.1zq0 .15 0 0 0 .15 0 0v.1zq-.15 0 0 0M23.9 10.5s0 .1 0 0q0 .15 0 0 0 .15 0 0 0 .15 0 0 0 .15 0 0c0 .1 0 0 0 0M24 10.5q0 .15 0 0v.1zq0 .15 0 0M24.1 10.4s-.1 0 0 0q-.15 0 0 0-.15 0 0 0-.15 0 0 0-.15 0 0 0-.15 0 0 0-.15 0 0 0M24 10q0 .15 0 0v.1zq0 .15 0 0M23.9 10c.1 0 .1.1.1.1v.1s0 .1-.1.1v-.2.2s.1 0 .1-.1v-.1s-.1 0-.1-.1M24 9.9c.1 0 .1.1 0 0q.15.15 0 0 .15.15 0 0 .15.15 0 0 .15.15 0 0c.1.1.1 0 0 0M23.7 9.9q0 .15 0 0 0 .15 0 0s-.1 0 0 0q-.15 0 0 0M23.8 10.1c0-.1 0 0 0 0M23.5 9.9s0 .1 0 0q0 .15 0 0 0 .15 0 0v.1zq0 .15 0 0 0 .15 0 0c0 .1 0 0 0 0M23.6 10.1q.15 0 0 0v.2l.1.1v-.1c0-.1 0-.1-.1-.2.1.1.1.1.1 0v.2s-.1 0-.1-.1zq.15 0 0 0M23.6 10.2v.1c-.1 0-.1 0 0-.1q0 .15 0 0 0 .15 0 0v.1zq0 .15 0 0v.1c-.1 0-.1-.1 0-.1M23.4 10.1v.2h-.1v-.2c.1.1.1.1.1 0q0-.15 0 0"/><path d="M23.6 10.3q0 .15 0 0v.2-.2q-.15.15 0 0-.15.15 0 0v.2zq0 .15 0 0c0 .1 0 0 0 0M23.7 10.3q0 .15 0 0 0 .15 0 0c0 .1 0 0 0 0M23.8 10.4v.1c-.1-.1-.1-.1 0-.1M23.8 10.6q-.15 0 0 0c-.1 0 0 0 0 0M23.6 10.5q0 .15 0 0 0 .15 0 0 0 .15 0 0 0 .15 0 0M23.5 10.7q-.15 0 0 0-.15 0 0 0-.15 0 0 0c-.1 0 0 0 0 0M23.1 11q0 .15 0 0 0 .15 0 0 0 .15 0 0 0 .15 0 0 0 .15 0 0M23.4 9.8s0 .1 0 0q0 .15 0 0 0 .15 0 0 0 .15 0 0 0 .15 0 0M23.3 9.8s.1 0 0 0q.15 0 0 0 .15 0 0 0M23.2 9.9s0-.1 0 0q0-.15 0 0 0-.15 0 0 0-.15 0 0M23.4 10.1q-.15 0 0 0-.15 0 0 0M23.2 9.9q0 .15 0 0l.1.1zq.15.15 0 0h.1v.2-.2c0 .1 0 .1-.1 0l.1.1c-.1.1-.1.1-.1-.1q0 .15 0 0 0 .15 0 0M23.3 10.3s0 .1 0 0q0 .15 0 0 0 .15 0 0 0 .15 0 0 0 .15 0 0c0 .1 0 0 0 0M23.3 10.2q-.15.15 0 0l-.1.1v.1-.1zq-.15.15 0 0"/><path d="m23.2 10.2-.1.1c.1 0 .1 0 .1-.1q0-.15 0 0 0-.15 0 0M23 10.2q0 .15 0 0c0 .1 0 .1-.1.1.1.1.1 0 .1-.1q0 .15 0 0M22.7 10.4v.1c.1 0 .1 0 0-.1q.15.15 0 0 .15.15 0 0l.1.1c-.1 0-.1 0-.1-.1M22.7 10.7q0-.15 0 0M22.6 11s0-.1 0 0q.15-.15 0 0 .15-.15 0 0 .15-.15 0 0 .15-.15 0 0M22.5 10.4q0 .15 0 0 0 .15 0 0M22.8 10.2v.2zc-.1 0 0 0 0 0M22.7 10.1v.30000000000000004-.30000000000000004M22.6 10.3q0 .15 0 0 0 .15 0 0 0 .15 0 0 0 .15 0 0-.15 0 0 0M22.5 10.3q0 .15 0 0 0 .15 0 0 0 .15 0 0 0 .15 0 0M22.9 9.6v.1c.1 0 0 0 0-.1M22.9 9.7v.1zM22.6 9.7v.4-.2c0-.1-.1-.1 0-.2M22.9 9.6c0 .1-.1.1-.1.1v.1-.1c0-.1 0-.1.1-.1-.1 0 0 0 0 0s0-.1 0 0q0-.15 0 0"/><path d="M22.6 9.6v.2-.1c-.1 0-.1 0 0-.1 0 .1 0 0 0 0M22.7 9.6s.1 0 0 0q.15 0 0 0"/><path d="M22.7 9.5s0 .1 0 0q0 .15 0 0 0 .15 0 0v.2-.2c-.1.1-.1.2-.1.2v.1-.1zq0 .15 0 0c0 .1 0 0 0 0"/><path d="M22.7 9.5q0 .15 0 0v.1c-.1 0-.1 0 0-.1 0 .1 0 0 0 0M23.1 10s.1 0 0 0q.15 0 0 0 .15 0 0 0 .15 0 0 0 .15 0 0 0M23.1 10.1s.1 0 0 0v.1z"/><path d="M23.1 10c.1.1.1.2.1.2-.1-.1-.1-.1-.1-.2q-.15 0 0 0c-.1 0 0 0 0 0M23 10.1q0 .15 0 0c0 .1-.1.1-.1.1V10v.2c.1 0 .1 0 .1-.1q0 .15 0 0M22.8 10.1v.1zM22.7 10.1q0 .15 0 0-.15.15 0 0-.15 0 0 0M22.7 10q0 .15 0 0 0 .15 0 0 0 .15 0 0 0 .15 0 0M22.6 10.3V10v.30000000000000004q0-.15 0 0M22.9 9.9s0 .1 0 0v.1zc0 .1 0 0 0 0M23 9.8s0 .1 0 0v.1zc0 .1-.1.1 0 0q-.15.15 0 0-.15 0 0 0c-.1.1 0 .1 0 0v.1zc0 .1 0 0 0 0M23 9.7c.1 0 .1.1 0 0v.1c.1 0 .1 0 0-.1.1.1 0 0 0 0M22.9 9.7s-.1 0 0 0q-.15.15 0 0-.15.15 0 0-.15.15 0 0-.15.15 0 0-.15 0 0 0M22.5 9.9q0 .15 0 0c0 .1-.1.1-.1.1 0 .1.1 0 .1-.1q0 .15 0 0M22.5 9.8s0 .1 0 0q0 .15 0 0 0 .15 0 0 0 .15 0 0 0 .15 0 0c0 .1 0 0 0 0M22.7 9.8s0 .1 0 0q0 .15 0 0 0 .15 0 0 0 .15 0 0M22.8 9.7v.30000000000000004-.30000000000000004M22.4 9.1q.15-.15 0 0h.2zq.15 0 0 0 .15 0 0 0 .15 0 0 0h.2c0-.1-.1-.1-.2 0q.15-.15 0 0M22.5 9q0 .15 0 0 0 .15 0 0M22.7 9.2s0-.1 0 0q0-.15 0 0 0-.15 0 0 0-.15 0 0 0-.15 0 0M23 9q0 .15 0 0 0 .15 0 0 0 .15 0 0 0 .15 0 0 0 .15 0 0M22.8 9.1q0-.15 0 0 0-.15 0 0 .15-.15 0 0 .15-.15 0 0 0-.15 0 0 0-.15 0 0M22.8 9.1s0-.1 0 0q0-.15 0 0M22.6 9.1q-.15 0 0 0M22.5 9q-.15 0 0 0-.15 0 0 0-.15 0 0 0M22.4 9s0 .1 0 0q0 .15 0 0 0 .15 0 0M22.3 9.1s0 .1 0 0c0 .1 0 0 0 0M22.4 9.2s0 .1 0 0q0 .15 0 0 0 .15 0 0 0 .15 0 0 0 .15 0 0c0 .1 0 0 0 0M22.3 8.8q.15.15 0 0 .15.15 0 0 .15.15 0 0 .15.15 0 0 0 .15 0 0M22.7 9.4q.15 0 0 0v.1z"/><path d="M22.6 9.5s.1-.1 0 0c.1-.1.1-.1.1-.2v-.1.1c0 .1 0 .1-.1.2q.15 0 0 0M22.4 9.5q.15 0 0 0c.1 0 .1-.1 0 0q.15 0 0 0 .15 0 0 0c.1 0 0 0 0 0M22.4 9.5q0-.15 0 0 .15-.15 0 0 .15-.15 0 0c0-.1 0 0 0 0M24.4 9.8q0 .15 0 0 0 .15 0 0 0 .15 0 0 0 .15 0 0 0 .15 0 0M22.3 10.8q0 .15 0 0 0 .15 0 0 0 .15 0 0 0 .15 0 0 0 .15 0 0 0 .15 0 0"/><path fill="red" d="M23.9 8.9h.1c0 .1-.1.1-.1 0q0 .15 0 0"/><path fill="red" d="M23.8 8.9q.15 0 0 0h.1c0 .1 0 .1-.1 0q.15.15 0 0 0 .15 0 0 0 .15 0 0 0 .15 0 0 0 .15 0 0M22.9 8.7h.2v.1-.1h.2v-.1s.1 0 .1.1h.2c-.1 0-.2-.1-.3-.1 0 0-.1 0-.1-.1h-.1c0 .3-.1.3-.2.2q.15.15 0 0 .15 0 0 0 .15 0 0 0"/><path fill="red" d="M22.8 8.7h.3v.1H23c-.1 0-.1 0-.2-.1 0 .1 0 0 0 0"/><path fill="red" d="M23.3 9c-.1-.1-.2-.1-.3-.1v-.1l-.1-.1h.2v.2l.1-.1v-.1s.1 0 .1.1c0 0 .1 0 .1.1.1.1 0 .1-.1.1q.15 0 0 0c.1 0 0 0 0 0M23.5 9.2l-.1-.1h.1V9s.1 0 .1.1zq.15-.15 0 0 .15-.15 0 0 .15-.15 0 0 .15-.15 0 0c.1-.1 0-.1 0 0q0-.15 0 0M23.7 9.3s-.1-.1 0 0c-.1 0-.1-.1-.2-.1h.1c.1-.1.1 0 .1.1l.1-.1z"/><path fill="red" d="M23.9 9.3c-.1 0-.1 0-.2-.1 0 .1.1.1.2.1l-.1-.1s.1 0 .1.1M24.2 9.3s.1 0 0 0c-.1.1-.2.1-.4 0h.4M23.5 11.2c-.1 0-.1.1-.1.1zq-.15.15 0 0c0 .1 0 .1-.1.1h.2s.1 0 .1-.1zM22.3 10.8q-.15.15 0 0l-.1.1c-.1 0 0 0 .1-.1-.1 0 0 .1-.1.1h.2v-.1zM23.1 11.1s-.1 0 0 0c-.1 0 0 0 0 0s0 .1 0 0c0 .1-.1.1-.1.1-.1-.1 0-.1.1-.1q-.15 0 0 0-.15 0 0 0H23zq-.15 0 0 0-.15 0 0 0M22.5 11.1q-.15 0 0 0l-.1.1zv.1h.2v-.1zq.15 0 0 0M22.7 9s.1 0 0 0h.30000000000000004v-.1l-.1-.1h-.2v.1-.1h-.30000000000000004.1c.2.1.3.1.2.2q.15-.15 0 0 .15-.15 0 0 0-.15 0 0c0-.1-.1-.1-.1-.1zm-.2-.1s.1 0 0 0l.1-.1h.2-.1s-.1 0-.1.1z"/><path fill="#0093DD" d="m27.1 13.5 1.7-3.8-1.2-2-2.2.8-1 4c.9.3 1.8.6 2.7 1"/><path fill="#FFF" d="M25 10c1.1.3 2.1.6 3.2 1.1l-.6 1.4c-.9-.4-1.9-.8-2.9-1z"/><path fill="red" d="m27.6 12.3.4-1c-1-.4-2-.8-3.1-1.1l-.3 1c1.1.3 2.1.7 3 1.1"/><path d="M25.2 11q.15 0 0 0h.2l-.1-.1h-.1s0-.1 0 0h.4s.1 0 .1.1h.2c.1 0 .2 0 .4.2.1 0 .2.1.3.1h.1c.2 0 .4 0 .5.1.1 0 .1 0 .2.1h.1c.1 0 .1 0 .2.1.1 0 .2 0 .2.1v.1c0 .1-.1.1-.1 0-.1 0-.1 0-.2-.1-.1 0-.1-.1-.2-.1h-.2v.2s0 .1.1.1h.1v.2l-.1.1h-.1s0-.1.1-.1V12h-.1s-.1-.1-.2-.1-.1 0-.1-.1h-.5v-.1h.2-.1c-.1-.1-.2-.1-.2 0h-.4.3s-.1 0-.1-.1h-.4c-.4-.5-.4-.5-.5-.6.1.1 0 .1 0 0q0 .15 0 0h-.1z"/><path fill="#FFF" d="M26.5 11.4h-.2c-.1 0-.1-.1-.2-.1h.2s.1 0 .2.1q0-.15 0 0s.1 0 0 0h.1z"/><path d="m26.6 8.5.1.4-.3.3.4.1.1.4.3-.3.4.1-.1-.4.3-.1-.4-.1-.1-.4-.3.2z"/><path fill="#F7DB17" d="m26.4 9.2.3-.2.3.1zM27.1 9.1l.3-.2.3.1z"/><path fill="#F7DB17" d="m27.7 9-.3.2-.3-.1z"/><path fill="#F7DB17" d="m27.1 9.1-.3.2-.3-.1zM26.6 8.6l.4.1.1.4zM27.1 9.1l.3.1.1.4z"/><path fill="#F7DB17" d="m27.5 9.6-.3-.1-.1-.4zM27.1 9.1l-.3-.1-.1-.4zM27.3 8.5l.1.4-.3.2z"/><path fill="#F7DB17" d="m27.1 9.1.1.4-.3.2zM26.9 9.7l-.1-.4.3-.2zM27.1 9.1l-.1-.4.3-.2z"/><path d="M13.6 9h-.1v.4l.3.3-.4.1-.1.4-.3-.2-.4.1.1-.4-.3-.3.4-.1.1-.4.3.3.3-.2z"/><g fill="#F7DB17"><path d="M19.7 8.2s-.1 0 0 0c-.1 0-.1.1 0 0-.1.1 0 .1 0 0M18.7 8.2q.15.15 0 0 0 .15 0 0c0 .1 0 0 0 0M19.6 8.3h-.8.8"/><path d="M18.8 8.3h.8v-.1l.1-.1s-.1 0-.1.1c-.1 0-.1 0-.1.1-.1 0-.1 0-.1.1 0 0 0-.1 0 0l-.1-.1-.1.1c0-.1-.1-.1-.1-.1l-.1-.1h-.1zl-.1-.1zs-.1 0 0 0M19.6 8.5q-.15 0 0 0-.15 0 0 0c-.1 0 0 0 0 0s-.1 0 0 0h-.9999999999999999v.1-.1.1l.1.1h-.1v-.1c0 .1 0 .2.1.2h-.2.1-.1c0 .1.1.1.2.1h.1-.1s-.1 0-.1.1h.2-.1l-.1.1v.1h.2v.1-.1l.1-.1h-.1v.1l.1-.1h.1-.1l-.1.1h.1v.1-.1h.2v.2-.2.30000000000000004-.2.2l.1-.1v-.1.2-.2h.30000000000000004v-.2h.1l-.1-.1h-.1.1l.1.1V9h-.1.1v.1V9h.1-.1.2v-.1h-.2.2c0-.1 0-.1-.1-.1.1 0 .1-.1.2-.1h-.1.1-.2v-.1c0-.1.1-.1.1-.2v.1h-.1c0 .1 0 .1-.1 0q.15 0 0 0 .15 0 0 0h.1zl.1.1v-.1zc.1-.1 0 0 0 0"/><path d="M19.6 8.4h-.8.8c0 .1 0 0 0 0"/><path fill-rule="evenodd" d="M18.8 8.5h.8-.4c-.1-.2-.3-.1-.4 0q0-.15 0 0 0-.15 0 0 0-.15 0 0 0-.15 0 0m.2-.1"/></g><path d="M19.2 8.2q-.15 0 0 0c-.1 0 0-.1 0 0v-.1zq0-.15 0 0c.1-.1.1 0 0 0m0 0q0-.15 0 0 0-.15 0 0 0-.15 0 0c0-.1 0 0 0 0M19.4 9.2h-.1zq0-.15 0 0m0-.1-.1.1zm-.3 0 .1.1zq-.15 0 0 0-.15 0 0 0m0 .1h.1zm0 0s.1 0 0 0h.1v-.1h-.1V9v.1h.2-.1v.1h.1-.2c.1.1 0 .1 0 0m.1.1q.15 0 0 0 .15 0 0 0M19.3 8.7s0-.1 0 0l.1-.1zm-.1 0q-.15 0 0 0l-.2-.1zc-.1-.1-.1 0 0 0m-.1.2q.15-.15 0 0 .15-.15 0 0 .15-.15 0 0 .15-.15 0 0m.1-.3v.2h.2c-.2-.1-.2-.1-.2-.2m-.1.2q0-.15 0 0H19zm.2-.2q-.15 0 0 0-.15 0 0 0v.1h.2v-.1c-.3.1-.3.1-.2 0q-.15 0 0 0-.15 0 0 0-.15 0 0 0m.1.1c-.1 0-.1 0-.1.1v.1c0-.1 0-.1.1-.2q0 .15 0 0 0 .15 0 0"/><path fill-rule="evenodd" d="M19.4 8.7s-.1 0 0 0c-.1.1 0 .1 0 0q0 .15 0 0m0 0s-.1 0 0 0q0 .15 0 0 0 .15 0 0m0 0q0 .15 0 0 0 .15 0 0m-.3 0q0 .15 0 0-.15.15 0 0-.15 0 0 0m0 0q0 .15 0 0-.15.15 0 0-.15 0 0 0m0 0s0 .1 0 0q0 .15 0 0-.15.15 0 0c-.1.1-.1 0 0 0"/><g fill="#F7DB17"><path d="M21.3 8.2q-.15.15 0 0 0 .15 0 0 0 .15 0 0c0 .1 0 0 0 0M20.3 8.2q.15 0 0 0c.1 0 .1.1 0 0 .1.1 0 .1 0 0M20.4 8.4"/><path d="M21.2 8.3h-.8.8c0 .1 0 0 0 0M20.4 8.3h.8v-.1l.1-.1h-.1c-.1 0-.1 0-.1.1-.1 0-.1 0-.1.1 0 0 0-.1 0 0l-.1-.1-.1.1c0-.1-.1-.1-.1-.1s0-.1-.1-.1c0 0-.1 0-.1-.1l.1.1c-.2.1-.2.1-.2.2 0-.1 0 0 0 0M21.2 8.5s0 .1 0 0q-.15.15 0 0-.15.15 0 0c-.1 0 0 0 0 0s-.1 0 0 0h-.9999999999999999v.1-.1.1l.1.1h-.1v-.1c0 .1 0 .2.1.2v.1h-.2.1-.1c0 .1.1.1.2.1 0 0-.1 0-.1.1h.2-.2v.1h.2-.1.1v.1-.1h.1-.1v.1l.1-.1h.1-.1l-.1.1h.1v.1h.30000000000000004v.2-.2.30000000000000004-.2.2s.1 0 .1-.1v-.1.2-.2h.2v.1-.2h.1s0-.1-.1-.1H21h.1l.1.1v-.1h-.1l.1.1v.1-.1h.2v-.1l-.1-.1h-.1.2c0-.1 0-.1-.1-.1.1 0 .1-.1.2-.1h-.1.1-.2c.1-.1.1-.1.1-.2v.1h-.1c0-.3 0-.3-.1-.4.1.1.1 0 0 0q.15 0 0 0h.1s0 .1-.1 0l.1.1v-.1zc.1 0 0 0 0 0M21.2 8.5h-.8.8"/><path fill-rule="evenodd" d="M20.4 8.4h.8-.4c-.1-.1-.3-.1-.4 0 0 0 .1 0 0 0 .1 0 0 0 0 0m.2 0"/></g><path d="M20.8 8.2q0-.15 0 0v-.1zq.15-.15 0 0 .15 0 0 0 .15 0 0 0m0 0q.15 0 0 0c.1-.1 0-.1 0 0q0-.15 0 0 0-.15 0 0c0-.1 0 0 0 0M20.9 9.2h-.1zm.1-.1-.1.1zm-.4 0 .1.1zm0 0q.15.15 0 0 .15.15 0 0 0 .15 0 0m.1.1h.1v-.1h-.1V9v.1h.2-.1v.1h.1-.2c0 .1 0 0 0 0s-.1 0 0 0m0 .1q.15 0 0 0 .15 0 0 0M20.9 8.7s0-.1 0 0l.1-.1zm-.2 0s0-.1 0 0l-.1-.1zc0-.1 0 0 0 0q.15 0 0 0m0 .2q0-.15 0 0 .15-.15 0 0 .15-.15 0 0c.1-.1 0-.1 0 0m.1-.3v.2h.2c-.2-.1-.2-.1-.2-.2m-.1.2q0-.15 0 0c-.1 0-.1-.1-.1-.1 0 .1 0 .1.1.1q-.15 0 0 0m.2-.2q-.15 0 0 0-.15 0 0 0v.1h.2v-.1c-.3.1-.3.1-.2 0q-.15 0 0 0-.15 0 0 0-.15 0 0 0m.1.1h-.1v.1zq0 .15 0 0 0 .15 0 0c0 .1 0 0 0 0"/><path fill-rule="evenodd" d="M21 8.7q-.15 0 0 0-.15.15 0 0 0 .15 0 0m0 0q-.15 0 0 0-.15.15 0 0 0 .15 0 0m0 0s-.1.1 0 0c-.1.1 0 .1 0 0q0 .15 0 0c0 .1 0 0 0 0m-.4 0q.15 0 0 0 .15.15 0 0 0 .15 0 0m0 0q.15 0 0 0 .15.15 0 0 0 .15 0 0m0 0q.15 0 0 0 .15.15 0 0 0 .15 0 0"/></svg>