<svg xmlns="http://www.w3.org/2000/svg" xml:space="preserve" width="40" height="40" baseProfile="tiny" overflow="visible" version="1.2" viewBox="0 0 40 40"><path fill="red" fill-rule="evenodd" d="M1 15.6h38V7.5H1z"/><path fill="#FFFFFE" fill-rule="evenodd" d="M1 24.5h38v-9H1z"/><path fill="#171796" fill-rule="evenodd" d="M1 32.5h38v-8H1z"/><path fill="red" d="M20 25.3c2.5 0 4.6-2.1 4.6-4.6v-5.5h-9.2v5.5c0 2.6 2.1 4.6 4.6 4.6"/><path fill="#FFF" d="M20 25.2c2.5 0 4.5-2 4.5-4.5v-5.4h-9v5.4c0 2.5 2 4.5 4.5 4.5"/><path fill="red" d="M17.4 15.5h-1.7v1.9h1.7zM17.4 19.3h1.7v-1.9h-1.7zM15.7 20.7v.5h1.7v-1.9h-1.7zM20.9 19.3h-1.7v1.9h1.7zM20.9 23.1h1.7v-1.9h-1.7zM22.6 24.2c.4-.3.7-.6 1-1h-1zM17.4 23.1h1.7v-1.9h-1.7zM16.4 23.1c.3.4.6.8 1 1v-1zM20.3 25.1c.2 0 .4 0 .6-.1v-1.8h-1.7V25c.2 0 .4.1.6.1zM24.3 21.2v-1.9h-1.7v1.9zM20.9 19.3h1.7v-1.9h-1.7zM20.9 15.5h-1.7v1.9h1.7zM24.3 17.4v-1.9h-1.7v1.9z"/><path fill="#FFF" d="m24.4 15.2 1.1-2.4-.8-1.3-1.4.5-1-1.1-1.3.7-1-.9-1.1.9-1.3-.7-1 1.1-1.4-.5-.8 1.3 1.1 2.4c1.4-.6 2.9-1 4.4-1 1.7.1 3.2.4 4.5 1"/><path fill="#0093DD" d="m16.7 12.1-1.3-.5-.8 1.2.3.7.7 1.7c.5-.2 1.1-.4 1.7-.6z"/><path fill="#FFF" stroke="#000" stroke-miterlimit="10" stroke-width=".014" d="M16.6 13.3c0 .1.1.2.1.3 0 .4-.3.7-.7.7-.3 0-.6-.2-.6-.5q.15.3.6.3c.4 0 .7-.3.7-.7l-.1-.1z"/><path fill="#F7DB17" d="m15.8 12.7.2.1.2-.1z"/><path fill="#F7DB17" d="m15.8 12.7.4.1-.2-.2zM15.3 12.6l.4.1-.2-.1zM15.7 12.7l-.4-.1.2.1z"/><path fill="#F7DB17" d="m15.7 12.7.3-.3-.2.1zM15.5 13l.3-.3-.2.1z"/><path fill="#F7DB17" d="m15.7 12.7-.2.3.2-.1zM16 12.4l-.3.3.2-.1zM15.7 12.7l-.1-.4v.2zM15.9 13.1l-.1-.4v.2z"/><path fill="#F7DB17" d="m15.7 12.7.1.4v-.2zM15.6 12.3l.1.4v-.2z"/><path fill="#171796" d="m18.9 11.7-1.3-.7-.9 1.1.6 2.4 1.8-.3z"/><path fill="red" d="M17.2 13.9c.6-.2 1.2-.3 1.9-.3L19 13c-.7.1-1.3.2-2 .3zM16.9 12.7q1.05-.3 2.1-.3l-.1-.6c-.7.1-1.5.2-2.2.4z"/><path fill="#0093DD" d="m21.1 11.7-1.1-.9-1.1.9.2 2.5h1.8z"/><path d="M20 12.8c0 .1-.1.1 0 0l-.1.1v.1s-.1-.1-.1 0h-.2c0 .1.1.1.1.2h-.1c0 .1 0 .1.1.2h-.1s0 .1.1.1v.2h.1v.1h.2v.1l.1-.1s.1 0 .1-.1l.1.1v-.1h.2v-.1h.1v-.2c.1 0 .1-.1.1-.1h-.1c.1-.1.1-.1.1-.2h-.1c0-.1.1-.1.1-.2h-.2v-.1c-.4.1-.4.1-.5 0 .1.1 0 .1 0 0"/><path fill="#F7DB17" d="M20.3 13.1h-.6.6M19.7 13.1h.6l.1-.1h-.2l-.1-.1s0 .1-.1.1-.2 0-.3.1q.15-.15 0 0V13h-.1zq0-.15 0 0 0-.15 0 0 0-.15 0 0 0-.15 0 0M20.2 13.2h-.30000000000000004s0 .1.1.1h-.1l.1.1-.1.1h.2v.1h.1v.2-.2h.1v-.1h.2s0-.1-.1-.1c0 0 .1 0 .1-.1h-.1s0-.1.1-.1zq.15 0 0 0c.1 0 .1.1 0 0q.15.15 0 0 .15 0 0 0 .15 0 0 0 .15 0 0 0 .15 0 0 0 .15 0 0 0 .15 0 0 0 .15 0 0 0 .15 0 0 0 .15 0 0 0h.1c.1-.1 0-.1-.1 0q.15 0 0 0"/><path fill="#F7DB17" d="M20.2 13.1h-.4.4c0 .1 0 0 0 0"/><path fill="#F7DB17" fill-rule="evenodd" d="M19.8 13.1h.4-.4m.1 0"/><path d="M20 13q0-.15 0 0 0-.15 0 0 0-.15 0 0c0-.1 0 0 0 0m0 0q0-.15 0 0 0-.15 0 0M20.1 13.6q-.15 0 0 0-.15 0 0 0m0-.1q-.15.15 0 0-.15.15 0 0m-.2 0q.15.15 0 0 .15.15 0 0m0 .1q.15 0 0 0 .15 0 0 0m0 0s.1 0 0 0q.15 0 0 0 .15 0 0 0 0-.15 0 0v-.1zq0-.15 0 0 .15-.15 0 0l.1-.1c0 .1 0 .1-.1.1q.15 0 0 0 .15 0 0 0h.1zq.15 0 0 0 .15 0 0 0c.1 0 0 0 0 0m.1 0q0 .15 0 0 0 .15 0 0M20 13.3q.15 0 0 0 .15-.15 0 0 .15-.15 0 0 .15 0 0 0 .15 0 0 0 .15 0 0 0m0 0s-.1 0 0 0c-.1 0-.1-.1 0 0q-.15-.15 0 0-.15-.15 0 0-.15-.15 0 0c-.1 0 0 0 0 0m-.1.1s.1 0 0 0q.15 0 0 0 .15 0 0 0 .15 0 0 0 .15 0 0 0 .15 0 0 0m.1-.2s0 .1 0 0q0 .15 0 0v.1c-.1 0-.1 0 0-.1-.1.1-.1.1 0 .1zq0 .15 0 0c0 .1 0 0 0 0m-.1.1s0 .1 0 0q0 .15 0 0 0 .15 0 0c0 .1 0 0 0 0m.1-.1s0 .1 0 0q0 .15 0 0v.1c.1 0 .1 0 0-.1l.1.1c-.1 0-.1 0-.1-.1q0 .15 0 0c0 .1 0 0 0 0m.1.1s0 .1 0 0q0 .15 0 0 0 .15 0 0c0 .1 0 0 0 0"/><path fill-rule="evenodd" d="M20.1 13.3s0 .1 0 0c0 .1 0 0 0 0m-.2 0s0 .1 0 0c0 .1 0 0 0 0m0 0"/><path d="M19.5 11.7s-.1.1 0 0l-.1.1v.1s-.1-.1-.1 0h-.2l.1.1h-.1c0 .1 0 .1.1.2h-.1s0 .1.1.1v.2h.1v.1h.2v.1l.1-.1s.1 0 .1-.1l.1.1v-.1h.2v-.1h.1v-.2c.1 0 .1-.1.1-.1h-.1c0-.1.1-.1.1-.2h-.1c0-.1.1-.1.1-.2H20s0-.1 0 0c-.4.1-.4.1-.5 0 .1.1 0 0 0 0"/><path fill="#F7DB17" d="M19.8 11.9h-.6.6M19.2 11.9h.6v-.1h-.2l-.1-.1s0 .1-.1.1c0 .1-.1 0-.2.1q.15 0 0 0v-.1h-.1zM19.8 12q-.15 0 0 0c-.1 0-.1.1 0 0q-.15.15 0 0-.15.15 0 0c-.1.1-.1 0 0 0q-.15 0 0 0-.15 0 0 0-.15 0 0 0-.15 0 0 0-.15.15 0 0c-.1.1-.1 0 0 0q-.15 0 0 0-.15 0 0 0h-.30000000000000004s0 .1.1.1h-.1l.1.1v.1h.2v.1h.1v.2-.2h.1v-.1h.2s0-.1-.1-.1c0 0 .1 0 .1-.1h-.1V12zq0 .15 0 0 0 .15 0 0 0 .15 0 0 0 .15 0 0c0 .1 0 0 0 0s0 .1 0 0q0 .15 0 0 0 .15 0 0 0 .15 0 0h.1zM19.7 12h-.4.4s.1 0 0 0"/><path fill="#F7DB17" fill-rule="evenodd" d="M19.3 12h.4-.3c0-.1-.1 0-.1 0m.1 0"/><path d="M19.5 11.9q0-.15 0 0 0-.15 0 0 0-.15 0 0 0-.15 0 0 0-.15 0 0 0-.15 0 0 0-.15 0 0 0-.15 0 0 0-.15 0 0c0-.1 0 0 0 0m0 0q0-.15 0 0 0-.15 0 0 0-.15 0 0 0-.15 0 0 0-.15 0 0 0-.15 0 0 0-.15 0 0 0-.15 0 0M19.6 12.4q0 .15 0 0 0 .15 0 0m0 0s0 .1 0 0m-.2 0q.15 0 0 0 .15.15 0 0m0 0q.15.15 0 0 .15.15 0 0 0 .15 0 0m.1.1q0-.15 0 0 0-.15 0 0v-.1zq0-.15 0 0 0-.15 0 0 0-.15 0 0l.1-.1c-.1 0-.1 0-.1.1h.1zq-.15 0 0 0-.15 0 0 0M19.5 12.2q.15-.15 0 0 .15-.15 0 0 .15-.15 0 0 .15-.15 0 0 .15-.15 0 0 .15-.15 0 0 .15 0 0 0m0 0s-.1-.1 0 0q-.15-.15 0 0h-.1c0-.1 0-.1.1 0q-.15-.15 0 0c-.1-.1 0-.1 0 0m0 .1q0-.15 0 0 0-.15 0 0 0-.15 0 0c0-.1 0 0 0 0m0-.2s0 .1 0 0v.1c-.1 0-.1 0 0-.1-.1.1 0 .1 0 .1zc0 .1 0 0 0 0m0 .1q-.15 0 0 0-.15 0 0 0-.15 0 0 0-.15 0 0 0-.15 0 0 0-.15 0 0 0-.15 0 0 0m0-.1s0 .1 0 0v.1c.1 0 .1 0 0-.1l.1.1c-.1 0-.1 0-.1-.1 0 .1 0 0 0 0m.2.1q-.15 0 0 0-.15 0 0 0-.15 0 0 0-.15 0 0 0-.15 0 0 0-.15 0 0 0-.15 0 0 0-.15 0 0 0c-.1 0 0 0 0 0"/><path fill-rule="evenodd" d="M19.4 12.2"/><path d="M20.5 11.7s0 .1 0 0l-.1.1s-.1-.1-.1 0h-.1c0 .1.1.1.1.2h-.1c0 .1 0 .1.1.2h-.1s0 .1.1.1v.2h.1v.1h.2v.1l.1-.1s.1 0 .1-.1v.1-.1h.2v-.1h.1v-.2c.1 0 .1-.1.1-.1h-.1c.1-.1.1-.1.1-.2h-.1l.1-.1h-.3v-.1c-.3.1-.3.1-.4 0 .1.1 0 0 0 0"/><path fill="#F7DB17" d="M20.8 11.9h-.6.6c0 .1 0 0 0 0M20.2 11.9h.6l.1-.1h-.2l-.1-.1s0 .1-.1.1c-.1.1-.2 0-.3.1q.15 0 0 0v-.1h-.1zc0-.1 0 0 0 0M20.7 12s0 .1 0 0q0 .15 0 0 0 .15 0 0 0 .15 0 0 0 .15 0 0c0 .1 0 0 0 0q0 .15 0 0 0 .15 0 0-.15.15 0 0c0 .1 0 0 0 0h-.30000000000000004v.1h-.1s0 .1.1.1l-.1.1h.2v.1h.1v.2-.2h.1v-.1h.2v-.1s.1 0 .1-.1h-.1l.1-.1c-.2.1-.2.1-.3 0q.15.15 0 0 .15.15 0 0 .15.15 0 0 .15.15 0 0 .15.15 0 0 .15 0 0 0 .15 0 0 0 .15.15 0 0 .15.15 0 0 .15.15 0 0 .15.15 0 0 .15.15 0 0h.1zq.15 0 0 0M20.7 12h-.4.4"/><path fill="#F7DB17" fill-rule="evenodd" d="M20.3 12h.4-.3c0-.1-.1-.1-.1 0m.1 0"/><path d="M20.5 11.9q0-.15 0 0 0-.15 0 0 0-.15 0 0 0-.15 0 0 0-.15 0 0 0-.15 0 0 0-.15 0 0 0-.15 0 0 0-.15 0 0m0 0q0-.15 0 0 0-.15 0 0 0-.15 0 0 0-.15 0 0 0-.15 0 0 0-.15 0 0 0-.15 0 0 0-.15 0 0M20.6 12.5q-.15 0 0 0-.15 0 0 0 0-.15 0 0m0-.1q-.15.15 0 0-.15 0 0 0m-.2 0c0 .1 0 0 0 0m0 0q0 .15 0 0 0 .15 0 0m0 .1q.15 0 0 0c.1-.1 0-.1 0 0q0-.15 0 0v-.1zq0-.15 0 0 .15-.15 0 0l.1-.1zq.15 0 0 0 .15 0 0 0h.1zq.15 0 0 0 .15 0 0 0m0 0q.15 0 0 0 .15 0 0 0M20.5 12.2c0-.1.1-.1 0 0q.15-.15 0 0 .15-.15 0 0 .15-.15 0 0 .15-.15 0 0c.1-.1.1 0 0 0m0 0q-.15-.15 0 0-.15-.15 0 0-.15-.15 0 0-.15-.15 0 0-.15-.15 0 0-.15-.15 0 0m-.1.1q.15-.15 0 0 .15-.15 0 0 .15-.15 0 0c.1-.1.1 0 0 0m.1-.2s0 .1 0 0v.1c-.1 0-.1 0 0-.1-.1.1-.1.1 0 .1zc0 .1 0 0 0 0m0 0s0 .1 0 0v.1c.1 0 .1 0 0-.1l.1.1c-.1 0-.1 0-.1-.1 0 .1 0 0 0 0m.1.1"/><path fill-rule="evenodd" d="M20.4 12.2"/><path fill="#171796" d="m23.3 12.1-.9-1.1-1.2.7-.2 2.5 1.8.3z"/><path d="M21.4 12.2h.7s.1 0 .1.1h.2c-.2.1-.3 0-.4 0l.1.1s.1.1.2.1h.3-.1c-.1 0-.2 0-.3-.1-.1 0-.1-.1-.2-.1s-.1-.1-.1-.1h-.1.1-.2v.1h.1s.1 0 .1.1h.7-.1v.6s-.1 0-.1.1c0 0 0 .1-.1.1v.1h-.2s0-.1.1-.1l.1-.1V13h-.1l-.1.1v.1H22l.1-.1v-.2h-.3v.4-.3.2h-.1s.1 0 .1-.1v-.3l.1-.1v-.2s-.1 0 0-.1c0 0 0-.1.1-.1-.6 0-.6 0-.6-.1q0 .15 0 0c-.1.1 0 0 0 0"/><path fill="#F7DB17" d="M22.2 13.4q-.15 0 0 0-.15.15 0 0-.15.15 0 0l-.1.1s0-.1.1-.1q-.15 0 0 0h-.1l-.1.1h-.1l.1-.1v-.2zc-.1-.1-.1 0-.1 0zq-.15 0 0 0-.15-.15 0 0-.15-.15 0 0-.15-.15 0 0 0-.15 0 0M21.4 13q0-.15 0 0 .15-.15 0 0 .15-.15 0 0 .15-.15 0 0 .15-.15 0 0 0-.15 0 0 .15 0 0 0 .15 0 0 0 .15 0 0 0 .15 0 0 0 .15-.15 0 0 .15-.15 0 0 .15-.15 0 0 .15-.15 0 0 .15 0 0 0 .15 0 0 0 .15 0 0 0 .15 0 0 0 .15 0 0 0c.1 0 0 0 0 0v.1c.1 0 .1 0 0-.1l.1.1c0-.1 0-.1-.1-.1l.1.1v.2l-.1.1h.1V13v.2h.1V13h.1v-.1.1-.1.2c0 .1-.1.1-.1.1v.1h-.1.2v-.1l.1-.1s.1 0 .1-.1v-.2h-.30000000000000004v.2-.2h-.1v.1-.1h-.1.2-.2.2-.30000000000000004.1-.1l-.1.1s-.1 0-.1.1v.1s-.1 0-.1.1c.5-.3.4-.3.4-.2q0-.15 0 0M21.4 12.3q0-.15 0 0 0-.15 0 0c0-.1 0 0 0 0q0-.15 0 0 0-.15 0 0 0-.15 0 0 .15 0 0 0 .15 0 0 0 .15 0 0 0"/><path d="M22.3 13.5s0 .1 0 0q0 .15 0 0 0 .15 0 0c0 .1 0 0 0 0M22.4 13.4s0 .1 0 0q0 .15 0 0 0 .15 0 0 0 .15 0 0 0 .15 0 0M22.4 13.5q0-.15 0 0 0-.15 0 0M22.4 13.2q.15 0 0 0 .15 0 0 0c.1 0 .1-.1 0 0q.15-.15 0 0 .15-.15 0 0c.1-.1.1 0 0 0q.15 0 0 0c.1 0 0 0 0 0q0 .15 0 0M22.4 13.3q0 .15 0 0M22.4 13.3q0 .15 0 0 0 .15 0 0M22.5 13.3s0 .1 0 0v.1zc0 .1 0 0 0 0M22.5 13s0 .1 0 0q0 .15 0 0 0 .15 0 0c0 .1 0 0 0 0M22.4 12.9q0 .15 0 0 0 .15 0 0 0 .15 0 0 0 .15 0 0v.2zq0 .15 0 0 0 .15 0 0 0 .15 0 0 0 .15 0 0 0 .15 0 0M22.5 12.9q0 .15 0 0 0 .15 0 0 0 .15 0 0 0 .15 0 0M22.2 13s0-.1 0 0M22.3 12.9s-.1 0 0 0q-.15 0 0 0M22.1 12.9q0 .15 0 0 .15.15 0 0 .15.15 0 0 .15.15 0 0 .15.15 0 0 .15.15 0 0c.1.1 0 .1 0 0q0 .15 0 0"/><path d="M22.2 13q.15 0 0 0c.1 0 .1.1 0 0v.1c.1 0 .1 0 0-.1q.15.15 0 0 .15 0 0 0 .15 0 0 0 .15 0 0 0 .15 0 0 0 .15 0 0 0 .15 0 0 0 .15.15 0 0c0 .1.1.1.1.1-.1 0-.1 0-.1-.1.1.1.1 0 0 0M22.1 13.1"/><path d="M22.1 13q0 .15 0 0v.1zq.15.15 0 0 .15.15 0 0v.1zq0 .15 0 0M22.2 13.2v.1zs0 .1 0 0c0 .1 0 0 0 0M22.3 13.2q0 .15 0 0 0 .15 0 0M22.3 13.3s0 .1 0 0q0 .15 0 0 0 .15 0 0c0 .1 0 0 0 0M22.1 12.8q0 .15 0 0 0 .15 0 0 0 .15 0 0 0 .15 0 0M22 12.9s0 .1 0 0q0 .15 0 0 0 .15 0 0 0 .15 0 0 0 .15 0 0 0 .15 0 0c0 .1 0 0 0 0q.15 0 0 0c.1 0 .1 0 .1.1zq.15 0 0 0s0 .1 0 0q0 .15 0 0 0 .15 0 0 0 .15 0 0v.1zq0 .15 0 0M22 13.1q0 .15 0 0v.1zq0 .15 0 0M22 13.1c0 .1-.1.1-.1.1s0-.1.1-.1c-.1 0 0 0 0 0M21.9 13.1s0 .1 0 0c0 .1-.1.1 0 0q-.15.15 0 0-.15.15 0 0c-.1.1 0 .1 0 0 0 .1 0 0 0 0M21.7 13.2s0 .1 0 0q0 .15 0 0v.1zq0 .15 0 0 0 .15 0 0 0 .15 0 0 0 .15 0 0v.1zq0 .15 0 0c0 .1 0 0 0 0M21.7 13.5s0-.1 0 0q0-.15 0 0 0-.15 0 0c0-.1 0 0 0 0M21.6 13.6q0-.15 0 0 0-.15 0 0 0-.15 0 0 0-.15 0 0M21.5 13.5q0-.15 0 0 0-.15 0 0M21.7 13.1v.1zc0 .1 0 0 0 0s0 .1 0 0v.1zM21.7 13q0 .15 0 0v.1zq0 .15 0 0c0 .1 0 0 0 0M21.5 13.1s0 .1 0 0q0 .15 0 0 0 .15 0 0 0 .15 0 0 0 .15 0 0 0 .15 0 0 0 .15 0 0 0 .15 0 0 0 .15 0 0c0 .1 0 0 0 0M21.8 12.7q0 .15 0 0 0 .15 0 0 0 .15 0 0 0 .15 0 0M21.6 12.8v.1zM21.8 12.7q-.15 0 0 0v.1c-.1 0-.1 0 0-.1q-.15 0 0 0M21.6 12.7s0 .1 0 0q0 .15 0 0v.1c-.1 0-.1 0 0-.1q0 .15 0 0c0 .1 0 0 0 0M21.7 12.7"/><path d="M21.7 12.7s0 .1 0 0v.1zq0 .15 0 0l-.1.1v.1-.1z"/><path d="M21.7 12.6s0 .1 0 0q0 .15 0 0-.15.15 0 0-.15.15 0 0-.15.15 0 0-.15.15 0 0-.15.15 0 0-.15.15 0 0 0 .15 0 0M21.9 12.9s0 .1 0 0q0 .15 0 0 0 .15 0 0 0 .15 0 0 0 .15 0 0 0 .15 0 0M21.9 13s0 .1 0 0q0 .15 0 0 0 .15 0 0 0 .15 0 0 0 .15 0 0 0 .15 0 0 0 .15 0 0c0 .1 0 0 0 0M21.9 12.9q0 .15 0 0v.1zq0 .15 0 0 0 .15 0 0M21.9 13.1s-.1 0 0 0q-.15 0 0 0l-.1.1s0-.1.1-.1q-.15 0 0 0-.15 0 0 0c-.1 0-.1-.1 0 0q-.15-.15 0 0-.15-.15 0 0-.15-.15 0 0-.15-.15 0 0-.15-.15 0 0-.15-.15 0 0c-.1-.1-.1 0 0 0q-.15 0 0 0-.15 0 0 0-.15 0 0 0-.15 0 0 0-.15 0 0 0-.15 0 0 0 0-.15 0 0M21.7 13q0 .15 0 0 0 .15 0 0 0 .15 0 0 0 .15 0 0M21.6 13q0 .15 0 0 0 .15 0 0M21.7 13q-.15 0 0 0-.15 0 0 0M21.6 13.1V13zM21.8 12.9q0 .15 0 0 0 .15 0 0 0 .15 0 0 0 .15 0 0M21.9 12.8s0 .1 0 0v.1zq0 .15 0 0M21.8 12.8s-.1 0 0 0q-.15 0 0 0M21.6 12.9c0 .1-.1.1 0 0q-.15.15 0 0-.15.15 0 0-.15.15 0 0-.15.15 0 0-.15.15 0 0-.15 0 0 0M21.7 12.8q0 .15 0 0 0 .15 0 0 0 .15 0 0 0 .15 0 0c0 .1 0 0 0 0M21.7 12.8v.2-.2M21.5 12.4h.1zq.15 0 0 0 .15 0 0 0M21.6 12.4q-.15 0 0 0-.15 0 0 0M21.6 12.5c0-.1.1-.1 0 0q.15-.15 0 0 .15-.15 0 0 .15-.15 0 0 .15-.15 0 0c.1-.1.1 0 0 0M21.8 12.4q.15 0 0 0M21.7 12.4s.1 0 0 0q.15 0 0 0 .15 0 0 0c.1 0 0 0 0 0M21.7 12.4q.15 0 0 0 .15 0 0 0M21.6 12.5q-.15 0 0 0-.15 0 0 0-.15 0 0 0-.15 0 0 0-.15 0 0 0M21.6 12.3s-.1 0 0 0q-.15 0 0 0-.15 0 0 0-.15 0 0 0-.15 0 0 0-.15 0 0 0M21.5 12.3q0 .15 0 0 0 .15 0 0M21.4 12.3q.15 0 0 0 .15 0 0 0 .15 0 0 0 .15 0 0 0M21.7 12.6s0 .1 0 0"/><path d="M21.6 12.7q0-.15 0 0 .15-.15 0 0l.1-.1zq.15-.15 0 0 0-.15 0 0M21.5 12.6q0 .15 0 0 0 .15 0 0M21.4 13.5"/><path fill="red" d="M22.4 12.3s.1 0 0 0c.1 0 0 0 0 0M22.3 12.3q.15 0 0 0 .15 0 0 0 .15 0 0 0 .15 0 0 0 .15 0 0 0 .15 0 0 0M21.8 12.2h.5c-.1 0-.1 0-.2-.1h-.2c0 .1 0 .1-.1.1M21.7 12.2h.1zq.15 0 0 0M22.1 12.4s-.1 0 0 0c-.1 0-.1-.1-.2-.1v-.1h.2c-.1.1-.1.1 0 .2q-.15-.15 0 0-.15-.15 0 0-.15-.15 0 0-.15-.15 0 0v-.1c-.1 0 0 0 0 .1q0-.15 0 0c0-.1 0 0 0 0"/><path fill="red" d="M22.2 12.4q-.15 0 0 0-.15 0 0 0v-.1z"/><path fill="red" d="M22.3 12.5s-.1 0 0 0q-.15 0 0 0c-.1 0-.1-.1 0 0q-.15-.15 0 0-.15-.15 0 0v-.1z"/><path fill="red" d="M22.4 12.6h-.1c0-.1 0-.1.1 0q-.15-.15 0 0 0-.15 0 0 0-.15 0 0 0-.15 0 0M22.6 12.5h-.2.2M22.1 13.7q0 .15 0 0 0 .15 0 0 0 .15 0 0 0 .15 0 0c0 .1.1.1 0 0l.1.1s0-.1-.1-.1q.15 0 0 0 .15 0 0 0M21.4 13.5q-.15 0 0 0-.15 0 0 0c-.1 0-.1.1 0 0q0 .15 0 0c.1.1.1 0 0 0q.15 0 0 0M21.9 13.6q0 .15 0 0 0 .15 0 0c0 .1-.1.1 0 0q-.15.15 0 0-.15.15 0 0-.15.15 0 0-.15.15 0 0-.15.15 0 0-.15.15 0 0h-.1c0 .1 0 .1.1 0q-.15 0 0 0-.15 0 0 0c-.1 0 0 0 0 0M21.5 13.6q0 .15 0 0 0 .15 0 0 0 .15 0 0 0 .15 0 0 0 .15 0 0 0 .15 0 0 .15.15 0 0 .15.15 0 0 .15.15 0 0 .15 0 0 0 .15 0 0 0 .15 0 0 0M21.7 12.3h.2-.1c0-.1-.1-.1-.1 0q0-.15 0 0c0-.1-.1 0 0 0 0 0-.1 0 0 0h-.1zm-.1 0 .1-.1h.1c-.2 0-.2 0-.2.1q0-.15 0 0 0-.15 0 0 0-.15 0 0 0-.15 0 0 0-.15 0 0 0-.15 0 0s-.1 0 0 0q-.15 0 0 0"/><path fill="#0093DD" d="m24.4 15.1 1-2.3-.8-1.2-1.3.5-.6 2.4c.6.2 1.1.4 1.7.6"/><path fill="#FFF" d="M23.1 13c.7.2 1.3.4 1.9.7l-.4.9q-.9-.45-1.8-.6z"/><path fill="red" d="m24.7 14.4.3-.6c-.6-.3-1.3-.5-1.9-.7l-.2.6c.6.2 1.2.4 1.8.7"/><path d="M23.2 13.6s.1 0 0 0h.1l-.1-.1h-.1.3s.1 0 .2.1c.1 0 .1 0 .2.1.1 0 .2 0 .3.1h.3s.1 0 .1.1v.1h-.2s-.1 0-.1-.1h-.1.1v.1h-.1.1-.1s-.1 0-.1-.1h-.3.2-.6c0-.3 0-.3-.1-.3q.15 0 0 0 0 .15 0 0s-.1 0 0 0q-.15 0 0 0"/><path fill="#FFF" d="M24 13.8h-.2.2q.15 0 0 0c.1 0 0 0 0 0"/><path d="M24.1 12.1v.2l-.2.2.2.1v.2l.2-.2.2.1v-.2l.2-.2-.2-.1V12l-.2.2z"/><path fill="#F7DB17" d="m24 12.5.2-.1.2.1zM24.4 12.4l.2-.1.2.1z"/><path fill="#F7DB17" d="m24.8 12.3-.2.1-.2-.1zM24.3 12.4l-.2.1H24zM24.1 12.1l.2.1v.2zM24.4 12.4l.2.1v.2z"/><path fill="#F7DB17" d="m24.6 12.7-.2-.1v-.2zM24.4 12.4l-.2-.1v-.2z"/><path fill="#F7DB17" d="M24.5 12v.2l-.2.1zM24.4 12.4v.2l-.2.1z"/><path fill="#F7DB17" d="M24.2 12.8v-.2l.2-.1zM24.4 12.4v-.2l.2-.1z"/><path d="M16 12.4v.2l.2.2-.3.1v.2l-.2-.2-.2.1v-.2l-.2-.2.2-.1.1-.2.2.1z"/></svg>