<svg xmlns="http://www.w3.org/2000/svg" xml:space="preserve" width="40" height="40" baseProfile="tiny" overflow="visible" version="1.2" viewBox="0 0 40 40"><path fill="#FFFFFE" fill-rule="evenodd" stroke="#CFCFCF" stroke-miterlimit="10" stroke-width=".3" d="M1 32.5h38v-25H1z"/><path fill="#4E5B31" d="M19.2 28.6s0-.1 0 0c-.1-.2-.2-.2-.3-.3q-.15-.3-.3-.3l-.3-.1-.2-.1.1-.1.4.2.3.1.6.5-.2.2c.1-.3 0-.2-.1-.1.1-.1 0-.1 0 0m-2.3-.7c-.3 0-.6-.1-.8-.2 0-.1.1-.1.1-.1.1-.1.2-.1.5-.1s.6.1 1 .3c-.2 0-.5.1-.8.1m-1.2-.3c-.1 0-.1 0-.1-.1l-.1-.1v-.2h.1c.1 0 .2.1.2.2v.1c0 .1-.1.1-.1.1m2.2-.2c-.7-.1-1.1-.4-1.2-.6-.1-.1-.1-.3-.1-.4h.1c.2 0 .7.1 1.2 1m-1.5-.2c-.3 0-.6-.1-.7-.2-.1 0-.1-.1-.2-.2v-.1c.1 0 .2-.1.3-.1h.1c.2 0 .6.1 1 .5-.2.1-.4.1-.5.1m-1.6 0c-.3 0-.8-.1-1.1-.4.2-.1.4-.1.7-.1h.1c.3 0 .6.1.7.2l.1.1v.1c-.1 0-.3.1-.5.1m-1-.6h-.1v-.3h.2l.1.1c-.2.1-.2.1-.2.2m2.5 0c-.1 0-.1 0-.1-.1l-.1-.1v-.2h.1c.1 0 .2.1.2.2v.1c-.1 0-.1.1-.1.1m-1.3-.1c-.7 0-1-.2-1.2-.4l-.2-.2v-.1h.2c.2 0 .7.1 1.2.7m.8-.1c-.5-.1-.8-.3-1-.5-.1-.1-.2-.2-.2-.4h.2c.2.1.7.2 1 .9m-2.8-.2c-.2 0-.3 0-.5-.1-.3-.1-.4-.2-.5-.3v-.1c.1 0 .3-.1.4-.1h.4c.3.1.5.2.7.4-.2.2-.3.2-.5.2m1.2-.5c-.1 0-.1 0-.1-.1l-.1-.1v-.2h.1c.1 0 .2.1.2.2.1.1.1.1-.1.2q.15 0 0 0m-.9-.1c-.2-.1-.4-.1-.5-.2-.2-.1-.5-.4-.6-.8h.1c.1 0 .2 0 .4.2.2.1.4.4.6.8m.6 0c-.1-.1-.3-.2-.4-.3-.3-.3-.6-.6-.7-1h.1c.1 0 .3 0 .4.2.3.2.5.6.6 1.1m-1.6-.1c-.2 0-.3-.1-.3-.2v-.2h.1c.1 0 .3.1.3.2v.1c.1.1 0 .1-.1.1m-.4-.5h-.5c-.2 0-.3-.2-.3-.3s-.1-.2-.1-.3c.6 0 .8.2 1 .3.1.1.1.2.1.3 0-.1-.1 0-.2 0m.6-.6s-.1-.1-.1-.2c-.1-.1-.1-.2-.1-.3v-.6s.4.1.4.5-.2.6-.2.6m-.5-.1c-.1 0-.3-.1-.5-.2s-.4-.3-.5-.4-.1-.3-.2-.5v-.3h.1c.1 0 .2 0 .3.1s.2.1.3.2l.3.3.2.4zq.15 0 0 0"/><path fill="#4E5B31" d="M18.1 28.6s.1-.1 0 0c.1-.2.2-.2.3-.3q.15-.3.3-.3l.3-.1.2-.1-.1-.1-.4.2-.3.1-.6.5.2.2c0-.3 0-.2.1-.1q0-.15 0 0m2.3-.7c.3 0 .6-.1.8-.2 0-.1-.1-.1-.1-.1-.1-.1-.2-.1-.5-.1s-.6.1-1 .3c.2 0 .5.1.8.1m1.2-.3c.1 0 .1 0 .1-.1l.1-.1v-.2h-.1c-.1 0-.2.1-.2.2v.1c0 .1.1.1.1.1m-2.2-.2c.7-.1 1.1-.4 1.2-.6.1-.1.1-.3.1-.4h-.1c-.2 0-.7.1-1.2 1m1.5-.2c.3 0 .6-.1.7-.2.1 0 .1-.1.2-.2v-.1c-.1 0-.2-.1-.3-.1h-.1c-.2 0-.6.1-1 .5.2.1.4.1.5.1m1.6 0c.3 0 .8-.1 1.1-.4-.2-.1-.4-.1-.7-.1h-.1c-.3 0-.6.1-.7.2l-.1.1v.1c.1 0 .3.1.5.1m1.1-.6h.1v-.3h-.2l-.1.1zq-.15 0 0 0m-2.5 0c.1 0 .1 0 .1-.1l.1-.1v-.2h-.1c-.1 0-.2.1-.2.2v.1s0 .1.1.1m1.2-.1c.7 0 1-.2 1.2-.4l.2-.2v-.1h-.2c-.2 0-.7.1-1.2.7m-.8-.1c.5-.1.8-.3 1-.5.1-.1.2-.2.2-.4h-.2c-.2.1-.7.2-1 .9m2.8-.2c.2 0 .3 0 .5-.1.3-.1.4-.2.5-.3v-.1c-.1 0-.3-.1-.4-.1h-.4c-.3.1-.5.2-.7.4.2.2.3.2.5.2m-1.2-.5c.1 0 .1 0 .1-.1l.1-.1v-.2h-.1c-.1 0-.2.1-.2.2s0 .1.1.2q-.15 0 0 0m.9-.1c.2-.1.4-.1.5-.2.2-.1.5-.4.6-.8H25c-.1 0-.2 0-.4.2-.2.1-.4.4-.6.8m-.6 0c.1-.1.3-.2.4-.3.3-.3.6-.6.7-1h-.1c-.1 0-.3 0-.4.2-.3.2-.5.6-.6 1.1m1.6-.1c.2 0 .3-.1.3-.2v-.2h-.1c-.1 0-.3.1-.3.2v.1c0 .1 0 .1.1.1m.4-.5h.5c.2 0 .3-.2.3-.3s.1-.2.1-.3c-.6 0-.8.2-1 .3-.1.1-.1.2-.1.3 0-.1.1 0 .2 0m-.5-.6s.1-.1.1-.2c.1-.1.1-.2.1-.3v-.6s-.4.1-.4.5.2.6.2.6m.4-.1c.1 0 .3-.1.5-.2s.4-.3.5-.4.1-.3.2-.5v-.3h-.1c-.1 0-.2 0-.3.1s-.2.1-.3.2l-.3.3-.2.4z"/><path fill="#D57800" d="M30.5 11.4h-.2l-.1.1-.2.1h-.2v.2h-.2l-.1.1h-.3l-.2.2h-.3l-.1.1h-.1l-.1.1-.1.1v.1h-.1l-.1.1h-.5l-.1.1h-.7v.2l-.1.1-.1.1-.2.2-.2.1-.2.1-.1.1-.3.2-.6.3h-.3l-.3.1-.2.1-.3.1h-.8l-.2.1-.3.2-.1.1-.2.1-.3.1v-.1h-.6l-.1.1h-.4l-.2.1h-1.3l-.2-.1h-1.1l-.1-.1-.3.1h-.1l-.4-.1h-.1l-.1.1h-.4l-.2-.1h-.2l-.2-.2-.3-.2-.2-.1h-.1v.5l.1.1v1.4l-.2.5v.1l-.1.1-.2.2-.2.1h-.3l-.1-.1h-.1l-.2-.3H14l-.2-.1v-.1h-.4l-.2-.1H13l-.1.1h-.3l-.1.1H12v.2l-.1.1-.1.1-.1.1-.2.4-.1.1-.1.1-.2.2-.2.1h-.6l-.2-.1-.1-.2-.2-.2h-.2v.5l.2.3.1.1v.1l.1.2v.2h-.1v.1l.2.2v.2l-.1.1v.1l.1.1.1.1.1.2h.3l.1.1h.1v.3l.1.2v.5l.1.1h.1l.1.1.1.1h.2l.3.2h.1l.1.1.1-.1h.3l.2.1h.1l.2.1h.2l.1.1h.2l.2.1h.4l.1-.1h.3l.1-.1h.5l.2-.1h.2l.2.1h.1l.1.1h.1v.1l.1.1.1.1.1.2.1.1v.2h-.1.7l.1.1h.1V23l-.1-.1v-.6l.1-.1.2-.1.2-.2.1-.1.1-.1.4-.1h.2l1.1.1v-.1l.1-.1h.4l.1-.1h.1l.1-.1h.1l.2-.1h.2l.2-.1.1-.1.1-.1h.4l.1-.1h.1l.1-.1h.1l.1-.1v-.1h.6l.1-.2h.1l.2-.2v-.7l.1-.2.1-.1.1-.1h.8l.3.1h.1l.1.1.1.1h.3l.1-.1.1-.1.1-.1.2-.1h.2l.1-.1h.6l.1.1h.1l.2.1v-.1h-.1l-.1-.1.1-.1-.1-.1v-.1l-.2-.3-.3-.2h-.9l-.2-.2-.1-.1-.1-.1-.1-.1-.1-.1-.2-.2h-.1l-.1-.3v-.1l.1-.4.1-.3.1-.1.1-.2.1-.1.1-.1.1-.1h.2l.2.1h.5l.1-.2v-.2l.2-.3.2-.2.4-.3.2-.1.1-.3.9-.4.2-.2.1-.1.2-.1.2-.1.2-.2v-.1l.1-.2v-.1l.2-.1.7-.3h.1l.1-.1h.2v-.4z"/></svg>