<svg xmlns="http://www.w3.org/2000/svg" width="40" height="40" viewBox="0 0 40 40"><g fill="none" fill-rule="evenodd"><path fill="#039" d="M2 1h36v38H2z"/><path fill="#FC0" d="M18.986 11.143v.001l.387-1.201-1.014-.741-.001-.001h1.254l.388-1.2V8l.388 1.201h1.254l-1.015.742.387 1.2h.001L20 10.403zm.387 19.656-1.014-.741-.001-.001h1.254l.388-1.2v-.001l.388 1.201h1.254-.001l-1.014.742.388 1.201-.001-.001L20 31.258 18.985 32v-.002zm-9.73-12.371.387 1.201h1.255-.002l-1.014.742.388 1.201-.001-.001-1.014-.741-1.015.742v-.002l.388-1.2L8 19.63h1.255l.387-1.2zm4.163-5.887.388-1.2-1.015-.743h1.255l.387-1.2.388 1.2h1.255-.002l-1.014.742.388 1.201-.001-.001-1.014-.741-1.014.741zm-2.777.675v-.002l.389 1.201h1.254l-1.015.742.388 1.2-1.015-.741-1.014.74v.002l.387-1.201-1.014-.741-.001-.001h1.254zM9.39 24.844h-.002 1.255l.388-1.2v-.002l.388 1.201h1.255l-1.016.742.387 1.2h.001l-1.015-.742-1.014.742h-.001l.388-1.2zm7.075 3.816-1.016.742.388 1.2-1.015-.742-1.015.743V30.6l.388-1.2-1.015-.741h1.255l.387-1.2.388 1.2h1.255m13.894-10.232v.002l.387 1.199H32l-1.015.742.387 1.2-1.014-.741-1.014.74-.001.002.388-1.201-1.014-.741-.002-.001h1.255zm-4.164-5.887-.001-.001-1.014-.741-1.014.74v.002l.387-1.2-1.014-.742-.002-.001h1.255l.387-1.2.388 1.2h1.255l-1.015.742zm1.76 3.817.001-.002.388-1.199-1.014-.741h-.001 1.254l.388-1.2v-.002l.388 1.2h1.254l-1.015.743.387 1.2h.001l-1.015-.741zm1.016 7.286.388 1.2h1.255-.002l-1.014.741.388 1.2h-.001l-1.014-.742-1.015.743v-.002l.388-1.199-1.016-.742h1.255l.388-1.2m-5.316 5.075-.118-.06h.037l-.037-.026.16.027h1.095l.38-1.176.008-.051.387 1.2h1.255l-.078.04.078-.013-1.008.737.38 1.18-.028-.03.03.056-1.034-.756-.905.661-.092.095.011-.036-.011.009.023-.046.371-1.15z"/></g></svg>