<svg xmlns="http://www.w3.org/2000/svg" width="40" height="40" viewBox="0 0 40 40"><g fill="none" fill-rule="evenodd"><path fill="#039" d="M1 7h38v26H1z"/><path fill="#FC0" d="m19.155 12.62.322-1-.844-.619h-.002 1.046L20 10V10l.323 1h1.046l-.846.62.322.999-.845-.618zM19.477 29l-.844-.619h-.002 1.046l.323-1v-.001l.323 1h1.046l-.002.001-.844.618.323 1.001h-.001L20 29.38l-.846.619v-.001zm-8.109-10.31.324 1h1.045l-.001.001-.845.618.323 1.001-.845-.619-.846.619v-.001l.323-1-.846-.618h1.045l.323-1zm3.47-4.906.323-1-.845-.619h1.045l.323-1 .323 1h1.046-.001l-.845.618.323 1.001h-.001l-.845-.618-.845.617zm-2.313.562.323 1h1.046l-.846.618.322 1h.001l-.846-.618-.845.618.322-1-.845-.618h1.045zm-1.368 9.69h1.045l.323-1 .323 1h1.045l-.845.618.322 1h.001l-.846-.618-.845.618.322-1zm5.896 3.18-.846.619.323 1-.846-.618-.846.618.324-1-.846-.619h1.045l.324-1v.001l.322 1h1.046m11.579-8.526v.001l.323 1H30l-.846.618.323 1-.846-.618-.844.618-.001.001.323-1-.845-.619h-.001 1.045zm-3.47-4.906h-.001l-.845-.618-.845.617v.001l.322-1-.845-.618v-.001h1.045l.322-1 .324 1h1.045l-.845.618zm1.467 3.18.323-1-.844-.617-.002-.001h1.046l.323-1 .323 1h1.046l-.846.618.322 1-.845-.618zm.846 6.072.323 1h1.046-.001l-.845.618.323 1h-.001l-.845-.618-.846.619v-.002l.323-.999-.846-.618h1.046zm-4.43 4.23-.098-.05h.03l-.03-.022.134.023h.912l.316-.98.006-.043.324 1h1.045l-.065.033.065-.01-.84.614.318.982-.024-.024.024.046-.862-.63-.753.552-.077.079.01-.03-.01.007.02-.038.309-.958z"/></g></svg>