<svg xmlns="http://www.w3.org/2000/svg" xml:space="preserve" x="0" y="0" version="1.1" viewBox="0 0 40 40"><path d="M1 39h38V1H1z" fill-rule="evenodd" clip-rule="evenodd" fill="#fffffe" stroke="#d5d5d4" stroke-width=".5" stroke-miterlimit="10"/><path d="M20 39h19V1H20z" fill-rule="evenodd" clip-rule="evenodd" fill="#cf142b"/><path d="M1 39h19V1H1z" fill-rule="evenodd" clip-rule="evenodd" fill="#fffffe"/><path d="M8.9 5v3c-.5 0-.9.4-.9.9H5v3.2h3c0 .5.4.9.9.9v3h3.2v-3c.5 0 .9-.5.9-.9h3V8.9h-3c0-.5-.5-.9-.9-.9V5z" fill-rule="evenodd" clip-rule="evenodd" fill="#fff"/><path d="M10.7 11.1q.15 0 0 0 .15 0 0 0h.1zq.15 0 0 0"/><path d="M11.7 11.6q0-.15 0 0c0-.1 0 0 0 0zm-.4-.2q0-.15 0 0-.15-.15 0 0v-.1.1q0-.15 0 0z" stroke="#000" stroke-width="6.626546e-3" stroke-linejoin="round" stroke-miterlimit="3.9492"/><path d="M11 11.3h.1-.1q.15 0 0 0zm.1.1q.15 0 0 0l.1-.1c0 .1 0 .1-.1.1q.15 0 0 0zm.6-.7zm.1.1q-.15 0 0 0-.15 0 0 0-.15 0 0 0-.15 0 0 0-.15 0 0 0-.15 0 0 0-.15 0 0 0zm.2.3s-.1 0 0 0q-.15 0 0 0-.15 0 0 0h-.1.1q-.15 0 0 0zm-.5-.3q.15 0 0 0 .15.15 0 0l.1.1-.1-.1z" stroke="#000" stroke-width="6.626546e-3" stroke-linejoin="round" stroke-miterlimit="3.9492"/><path d="M11.7 10.9q0 .15 0 0 0 .15 0 0 0 .15 0 0 0 .15 0 0 0 .15 0 0 0 .15 0 0 0 .15 0 0 0 .15 0 0 0 .15 0 0 0 .15 0 0 0 .15 0 0h-.1zq0 .15 0 0 0 .15 0 0l-.1.1zq0 .15 0 0 0 .15 0 0 0 .15 0 0 0 .15 0 0 0 .15 0 0 0 .15 0 0 0 .15 0 0 0 .15 0 0 0 .15 0 0 0 .15 0 0 .15.15 0 0 .15.15 0 0 .15.15 0 0l.1.1zq.15.15 0 0 .15.15 0 0 .15.15 0 0c.1.1.1 0 0 0m0 .1"/><path d="M11.8 10.8z" stroke="#000" stroke-width="6.626546e-3" stroke-linejoin="round" stroke-miterlimit="3.9492"/><path d="M11.4 11c-.1 0-.1.1-.1.1s.1.1 0 .2m-.4.4h-.2l.1-.1c0-.1-.1-.1-.1-.1s-.1-.1-.2 0m.9.2s-.1-.2-.3-.1" stroke="#000" stroke-linejoin="round" stroke-miterlimit="3.9492" fill="none" stroke-width="1.139766e-2" stroke-linecap="round"/><path d="M11.3 10.9c-.1 0-.1.1 0 0q-.15.15 0 0-.15.15 0 0-.15.15 0 0l-.1.1.1-.1q-.15.15 0 0c-.1 0 0 0 0 0zm-.2-.1c0 .1-.1.1 0 0q-.15.15 0 0-.15.15 0 0-.15.15 0 0-.15.15 0 0-.15.15 0 0 0 .15 0 0zm.5.6h-.1.1q-.15.15 0 0zM11.6 11.4q-.15 0 0 0-.15-.15 0 0l-.1-.1.1.1q-.15-.15 0 0zM11.4 11q-.15 0 0 0-.15 0 0 0-.15 0 0 0-.15 0 0 0l-.1.1.1-.1q-.15 0 0 0-.15 0 0 0-.15 0 0 0zm.6.2q-.15 0 0 0-.15 0 0 0-.15 0 0 0-.15 0 0 0-.15 0 0 0-.15 0 0 0-.15 0 0 0-.15 0 0 0-.15 0 0 0-.15 0 0 0-.15.15 0 0-.15.15 0 0l-.1.1.1-.1q-.15.15 0 0c-.1.1-.1 0 0 0q-.15 0 0 0-.15 0 0 0-.15 0 0 0-.15 0 0 0-.15 0 0 0-.15 0 0 0-.15 0 0 0-.15 0 0 0zm-.1.1s0 .1 0 0q0 .15 0 0 0 .15 0 0-.15.15 0 0-.15.15 0 0-.15.15 0 0-.15.15 0 0-.15.15 0 0 0 .15 0 0 0 .15 0 0 0 .15 0 0c0 .1 0 0 0 0 0 .1 0 0 0 0zm-.3.4q.15-.15 0 0 .15-.15 0 0 .15-.15 0 0 .15-.15 0 0l.1-.1-.1.1q.15-.15 0 0 .15-.15 0 0 .15-.15 0 0 .15-.15 0 0 .15 0 0 0z" stroke="#000" stroke-width="6.626546e-3" stroke-linejoin="round" stroke-miterlimit="3.9492"/><path d="M11.7 11.5q0 .15 0 0c.1.1 0 .1 0 0q.15.15 0 0 .15.15 0 0l.1.1-.1-.1q.15.15 0 0 .15.15 0 0 .15.15 0 0c.1.1.1 0 0 0q.15 0 0 0c.1 0 .1.1 0 0q.15.15 0 0 .15.15 0 0 .15.15 0 0z" stroke="#000" stroke-width="6.626546e-3" stroke-linejoin="round" stroke-miterlimit="3.9492"/><path d="M11.8 11.5c-.1 0-.2.1-.2.1m-.7-.3s.1 0 0 0c.2.1.1.1.1.1s.1-.1.1 0v.1l.1-.1h.1s0-.1-.1-.2h0q0-.15-.3-.3" stroke="#000" stroke-linejoin="round" stroke-miterlimit="3.9492" fill="none" stroke-width="1.139766e-2" stroke-linecap="round"/><path d="M11.7 11.5q-.15 0 0 0-.15 0 0 0-.15.15 0 0l-.1.1.1-.1c-.1 0 0 0 0 0zm-.4-.3s-.1 0 0 0q-.15-.15 0 0-.15-.15 0 0-.15-.15 0 0-.15-.15 0 0 0-.15 0 0c0-.1 0 0 0 0zm-.2-.1q0-.15 0 0V11v.1q0-.15 0 0zm-.5-.1q.15 0 0 0 .15 0 0 0h.1-.1q.15 0 0 0 .15 0 0 0 .15 0 0 0 .15 0 0 0 .15 0 0 0zM10.8 11.1h.1-.1q.15 0 0 0zm.1.3.1.1-.1-.1s0-.1 0 0z" stroke="#000" stroke-width="6.626546e-3" stroke-linejoin="round" stroke-miterlimit="3.9492"/><path d="M10.9 11.4q0 .15 0 0 0 .15 0 0 0 .15 0 0 0 .15 0 0l.1.1c-.1 0-.1 0-.1-.1q0 .15 0 0 0 .15 0 0-.15 0 0 0-.15 0 0 0z" stroke="#000" stroke-width="6.626546e-3" stroke-linejoin="round" stroke-miterlimit="3.9492"/><path d="M10.8 11.5s.1 0 0 0q.15 0 0 0 .15 0 0 0 .15 0 0 0 .15 0 0 0 .15 0 0 0 .15 0 0 0 .15 0 0 0 .15.15 0 0 .15.15 0 0 .15.15 0 0l.1.1-.1-.1q.15.15 0 0 .15.15 0 0 .15 0 0 0 .15 0 0 0 .15 0 0 0 .15 0 0 0 .15 0 0 0 .15 0 0 0zm.1.1c0 .1.1.1 0 0q.15.15 0 0 .15.15 0 0 .15.15 0 0h.1-.1q.15.15 0 0 .15.15 0 0 0 .15 0 0c0 .1 0 0 0 0zm-.2.1h-.1.1zM10.4 11.7q.15 0 0 0 .15 0 0 0 .15 0 0 0 .15 0 0 0 .15 0 0 0 .15 0 0 0zm.4 0s-.1 0 0 0q-.15 0 0 0-.15 0 0 0-.15 0 0 0-.15 0 0 0-.15 0 0 0zm0 .1q-.15 0 0 0-.15 0 0 0-.15 0 0 0h-.1.1q-.15 0 0 0-.15 0 0 0h-.1.1q-.15 0 0 0-.15 0 0 0zm-.3-.4q-.15 0 0 0c-.1 0 0 0 0 0zm-.2 0s-.1.1 0 0c0 0 0 .1 0 0q0 .15 0 0v.1-.1q0 .15 0 0zm-.2.3s-.1 0 0 0q-.15 0 0 0-.15 0 0 0-.15 0 0 0-.15 0 0 0-.15 0 0 0-.15 0 0 0-.15 0 0 0-.15 0 0 0c-.1 0 0 0 0 0q-.15 0 0 0-.15 0 0 0-.15 0 0 0-.15 0 0 0z" stroke="#000" stroke-width="6.626546e-3" stroke-linejoin="round" stroke-miterlimit="3.9492"/><path d="M10.6 10.9s.1 0 0 0h.1zm.4.3h-.1zc.1 0 0 0 0 0"/><path d="M11.5 11.1s0 .1 0 0v.1-.1q0 .15 0 0-.15 0 0 0-.15 0 0 0z" stroke="#000" stroke-width="6.626546e-3" stroke-linejoin="round" stroke-miterlimit="3.9492"/><path d="M11.2 11.2q-.15 0 0 0h-.1zq-.15 0 0 0c-.1 0 0 0 0 0m0 .1q-.15 0 0 0h-.1zq-.15 0 0 0m0 .1q0 .15 0 0 0 .15 0 0 0 .15 0 0 0 .15 0 0 0 .15 0 0c.1 0 0 0 0 0"/><path d="M10.4 11.8q.15 0 0 0 .15 0 0 0 .15 0 0 0 .15 0 0 0 .15 0 0 0zM10.5 11.8h.1-.1zm0-.2zm-.2-.1q0 .15 0 0 0 .15 0 0h.1-.1q.15.15 0 0 0 .15 0 0 0 .15 0 0zm-.2 0s.1 0 0 0q.15 0 0 0h.1-.1q.15 0 0 0 .15 0 0 0zm-.2.1q.15 0 0 0 .15 0 0 0 .15.15 0 0 .15.15 0 0 .15.15 0 0zm0 .1q.15 0 0 0 .15 0 0 0zm.1.2q0 .15 0 0 0 .15 0 0 0 .15 0 0 0 .15 0 0-.15.15 0 0-.15.15 0 0-.15.15 0 0 0 .15 0 0 0 .15 0 0 0 .15 0 0 0 .15 0 0 0 .15 0 0 0 .15 0 0c0 .1 0 0 0 0z" stroke="#000" stroke-width="6.626546e-3" stroke-linejoin="round" stroke-miterlimit="3.9492"/><path d="M10.3 11.8h-.5l.9.3s-.4-.1-.7-.2v.2h-.3s0-.1.1-.1h.1-.2c-.1 0-.1-.1-.1-.1h-.5c.3.3.8.5 1.2.5s.9-.2 1.2-.5h-.8.1-.6c-.1 0-.1 0-.1-.1h.2z" fill="none" stroke-width="1.987964e-2" stroke="#000" stroke-linejoin="round" stroke-miterlimit="3.9492"/><path d="M11.4 10.6c-.1 0-.2.2-.3.3h.1v-.1l.2-.2q.15 0 0 0zm.3.1c-.1 0-.1.1-.1.1l.1.1h-.2v.1s.1 0 .1.1v.1c0-.1-.1-.1-.1-.1h-.1V11h-.3v.1h-.5.1v.1h.2v.1h.1s.1.1 0 .1h.1v.1h-.4c-.1 0-.2 0-.3.1h-.2l.1.1h.1s.1.1.2.1c0 0-.1.1 0 .1 0 0 0 .1.1.1h.3s.1.1.2 0h.1-.2.6s.1 0 .1-.1c0 0 0 .1.1 0 0 0 0 .1.1.1l.1-.1v-.1l.1-.1s0-.1.1-.1h.1v-.1h-.2l-.1.1s-.1.1-.2.1v-.2c0-.1-.1-.1-.1-.2l.1.1h.2c.1 0 .1-.1.1-.1h.2s-.4-.2-.4-.3l-.1-.1v-.1c-.1-.1-.1-.1-.2-.1.1 0 0 0 0 0zm-1.7.8v.1c-.1 0-.2 0-.2.1h.2s.1 0 .1-.1c-.1.1-.1 0-.1-.1 0 .1 0 0 0 0zm-.3.3c0 .1 0 .1.1.1h.2-.1l-.1.1h.3s.1-.1 0-.2h-.4z" fill="none" stroke-width="1.987964e-2" stroke="#000" stroke-linejoin="round" stroke-miterlimit="3.9492"/><path d="m9.3 11.6 1.5.5s-1.5-.4-1.5-.5z" fill="none" stroke-width="1.987964e-2" stroke="#000" stroke-linejoin="round" stroke-miterlimit="3.9492"/><path d="M10.7 9.3q.15 0 0 0 .15 0 0 0 .15.15 0 0 .15.15 0 0 .15.15 0 0 .15.15 0 0v.1c.1 0 .1 0 0-.1q.15.15 0 0l.1.1-.1-.1q.15.15 0 0 .15.15 0 0 .15 0 0 0 .15 0 0 0zm.6.1q.15 0 0 0z" stroke="#000" stroke-width="6.626546e-3" stroke-linejoin="round" stroke-miterlimit="3.9492"/><path d="M11.3 9.4q.15 0 0 0 .15 0 0 0"/><path d="M11 9.9h.1-.1c0 .1 0 0 0 0zm.3.4s-.1 0 0 0q-.15 0 0 0-.15 0 0 0l-.1-.1c0 .1 0 .1.1.1q-.15 0 0 0-.15 0 0 0zm.1.1q-.15 0 0 0h-.1.1zm-.1-.2v.1c.1 0 .1 0 0-.1l.1.1-.1-.1.1.1-.1-.1zm.1 0zm.2-.1h.1-.1zM11.9 10.2q0 .15 0 0 .15.15 0 0 .15.15 0 0 .15.15 0 0 .15.15 0 0l.1.1-.1-.1.1.1-.1-.1q.15.15 0 0 .15.15 0 0 .15 0 0 0zm.1.2zm-1.4-.4.1.1h.2-.1c-.1 0-.1 0-.2-.1.1.1 0 .1 0 0zm.4.4q0 .15 0 0 0 .15 0 0 0 .15 0 0 0 .15 0 0l.1.1h.1-.30000000000000004c.1 0 .1 0 .1-.1q0 .15 0 0c-.1 0 0 0 0 0zm.4.1s.1 0 0 0h.2-.2c.1 0 0 0 0 0zm.2 0q.15 0 0 0 .15 0 0 0c.1 0 .1.1 0 0q.15.15 0 0l.1.1-.1-.1c.1.1.1 0 0 0q.15 0 0 0zm.3.3q.15 0 0 0c.1 0 0 0 0 0zM11.9 10.7q0 .15 0 0 0 .15 0 0 0 .15 0 0 0 .15 0 0zm-1.6 0s-.1 0 0 0q-.15.15 0 0l-.1.1v.1-.2c0 .1 0 .1.1 0h.1-.1zm-.1.1zm-.2.2zm0 0z" stroke="#000" stroke-width="6.626546e-3" stroke-linejoin="round" stroke-miterlimit="3.9492"/><path d="M10.3 10.7s0 .1 0 0q0 .15 0 0 0 .15 0 0 0 .15 0 0 0 .15 0 0l-.1.1.1-.1q0 .15 0 0 0 .15 0 0 0 .15 0 0 0 .15 0 0 0 .15 0 0c0 .1 0 0 0 0zm-.2.4q0 .15 0 0 0 .15 0 0 0 .15 0 0 0 .15 0 0 0 .15 0 0 .15.15 0 0l.1.1c-.1 0-.1 0-.1-.1q0 .15 0 0 0 .15 0 0 0 .15 0 0 0 .15 0 0z" stroke="#000" stroke-width="6.626546e-3" stroke-linejoin="round" stroke-miterlimit="3.9492"/><path d="M10.5 11.2q.15 0 0 0 .15 0 0 0 .15 0 0 0 .15 0 0 0 .15 0 0 0 .15 0 0 0c.1 0 .1-.1 0 0h.1zq.15 0 0 0 .15 0 0 0"/><path d="M10.1 10.9q0 .15 0 0 0 .15 0 0 0 .15 0 0 0 .15 0 0 0 .15 0 0h.1c0 .1 0 .1-.1 0q0 .15 0 0 0 .15 0 0 0 .15 0 0c0 .1 0 0 0 0zm-.1 0s0 .1 0 0l-.1.1.1-.1zm-.4-.4q0 .15 0 0v.1h.30000000000000004-.30000000000000004v-.1q0 .15 0 0c-.1 0 0 0 0 0zM9.7 10.8q.15 0 0 0l.1.1h.2-.2l-.1-.1q.15 0 0 0zm.4.8q0 .15 0 0 0 .15 0 0v.1-.1q0 .15 0 0v.1s.1 0 0-.1q.15.15 0 0 .15.15 0 0 .15.15 0 0 0 .15 0 0 0 .15 0 0 0 .15 0 0 0 .15 0 0c0 .1 0 0 0 0zm0 .1zm-.1-1.5q.15 0 0 0c.1 0 .1.1 0 0l.1.1-.1-.1q.15.15 0 0c.1 0 0 0 0 0zM10.2 10.7s0-.1 0 0q0-.15 0 0 0-.15 0 0l-.1-.1c.1 0 .1 0 .1.1q0-.15 0 0c.1 0 0 0 0 0zm-.5.5s0 .1 0 0q.15.15 0 0c.1 0 .1.1.1.1l-.1-.1q.15.15 0 0 .15.15 0 0 .15.15 0 0 0 .15 0 0c0 .1 0 0 0 0zm-.4-.7q-.15 0 0 0h-.1.1zm-.1.3.1.1-.1-.1zm-.1.3q0 .15 0 0v.1-.1zm0-.2v.1-.1zm2-1.6.1.1-.1-.1q0 .15 0 0zm-.1-.1q-.15 0 0 0-.15 0 0 0-.15 0 0 0-.15 0 0 0-.15 0 0 0-.15 0 0 0-.15 0 0 0-.15 0 0 0-.15 0 0 0 0 .15 0 0 0 .15 0 0 0 .15 0 0 0 .15 0 0 0 .15 0 0 0 .15 0 0c0 .1 0 0 0 0q0 .15 0 0 0 .15 0 0 0 .15 0 0c0 .1-.1.1 0 0-.1.1-.1 0 0 0q-.15 0 0 0-.15 0 0 0-.15 0 0 0-.15 0 0 0-.15 0 0 0-.15 0 0 0zm-.1.1q.15 0 0 0c.1 0 .1 0 .1.1l-.1-.1zm-.2 0s0 .1 0 0q0 .15 0 0l-.1.1v-.1h.1q0 .15 0 0 0 .15 0 0zm-.1.4zm0 0q0 .15 0 0 0 .15 0 0zm0 .1q0 .15 0 0 0 .15 0 0 0 .15 0 0zm1.5.5q0 .15 0 0 0 .15 0 0 0 .15 0 0v.1-.1q0 .15 0 0 0 .15 0 0zm-.9.1s-.1 0 0 0q-.15 0 0 0c-.1 0 0 0 0 0zm.8.3q0 .15 0 0 0 .15 0 0 0 .15 0 0l.1.1-.1-.1q0 .15 0 0c0 .1 0 0 0 0zm-1.9-.4s.1 0 0 0h.4-.4zm.7.3s-.1 0 0 0h-.5.5z" stroke="#000" stroke-width="6.626546e-3" stroke-linejoin="round" stroke-miterlimit="3.9492"/><path d="M10.1 10.6q.15 0 0 0 .15 0 0 0c.1 0 .1.1.1.1 0-.1 0-.1-.1-.1q.15 0 0 0 .15 0 0 0zm.6.6q.15.15 0 0l.1.1-.1-.1q.15.15 0 0zm-.5.5q.15 0 0 0 .15 0 0 0 .15 0 0 0 .15 0 0 0 .15 0 0 0 .15 0 0 0 .15 0 0 0 .15 0 0 0 .15 0 0 0 .15 0 0 0 .15 0 0 0 .15 0 0 0 .15 0 0 0zm-.4-.6q-.15 0 0 0-.15 0 0 0-.15.15 0 0v.1c-.1 0-.1 0 0-.1q-.15.15 0 0-.15 0 0 0-.15 0 0 0zm-.3-.7s0 .1 0 0q0 .15 0 0v.1-.1q0 .15 0 0 0 .15 0 0zm-.5.1q0 .15 0 0v.2-.2zm.2.6q0 .15 0 0v.1-.1q0 .15 0 0z" stroke="#000" stroke-width="6.626546e-3" stroke-linejoin="round" stroke-miterlimit="3.9492"/><path d="M10.7 9.2q0 .15 0 0m-.1.1s.1 0 0 0m0 0s0 .1 0 0m-.1 0q.15.15 0 0m0 .1q.15 0 0 0m0 0s.1 0 0 0m0 0h.1m-.1.1h.1m-.1 0s.1 0 0 0m-.1.1h.1m-.1 0h.1m-.1 0h.1m0 .2s0-.1 0 0m0 0s.1 0 0 0M10.5 9.8s.1 0 0 0m0 .1s.1 0 0 0m0 0s.1 0 0 0m0 .1c0-.1.1-.1 0 0m0 0s.1 0 0 0" stroke="#000" stroke-linejoin="round" stroke-miterlimit="3.9492" fill-rule="evenodd" clip-rule="evenodd" stroke-width="3.777131e-3" stroke-linecap="round"/><path d="M11.2 9.5h.1zc.1-.1.2-.1.2-.1v-.1h-.1l-.2-.1h-.2v-.1h0s0 .1-.1.1-.2.2-.2.2v.2m-.1.1v.1m.5-.2s-.1 0 0 0v-.1h.1m-.5.4v.2h-.1c.1 0 .2 0 .2.1h.2l.1.2s.1.2.2.2h.1c.1 0 .2-.1.3-.1h.2s.1.1.2.1c0 0 0 .1.1.1h.1v.1h.30000000000000004s-.1-.2-.2-.2l-.3-.3s-.1-.1-.2-.1h-.2 0s.1-.1.1-.2l.1-.1.2.1h.1v.1h.2V10l-.1-.1-.5.1h-.2c-.1 0-.2.1-.2.1 0-.1-.1-.1-.1-.1 0-.1-.1-.2-.2-.3m-1 .5c-.1 0-.2.1-.3.1l.2.2v.1h-.1l-.2-.2c-.1 0-.1.1-.1.2h-.3c-.1 0-.3 0-.3.2 0 .1.1.2.1.3v.30000000000000004l.1.1v.1l.1-.1v-.2c.1-.3.2-.3.1-.4l-.2-.2s0-.1.1-.1h.30000000000000004l.2.2.1.1v.1l-.1.2v.1s.1.1.2.1c0 0 .1.2.2.2 0 0 0 .1.1.1 0 0 .1 0 0 0v.1h.30000000000000004l-.1-.1-.2-.1-.2-.2c-.1-.1-.1-.1 0-.2V11v.2h.5s.1 0 .1.1h.2v-.1l-.1-.1-.1-.1h-.30000000000000004v-.1s.1-.2.2-.3h.4s-.1-.1-.2-.1l-.1-.2h-.4c.1-.1 0-.1-.2-.1.1 0 0 0 0 0M10.5 9.6v-.2s.1-.2.2-.2h-.1 0s-.1 0 0 0h0c-.2.3-.2.3-.1.4l-.1-.1h0m.1.2s0 .1 0 0q0 .15 0 0m.1.1v-.1m-.1.1q-.15 0 0 0c-.1 0 0 0 0 0q0 .15 0 0v.1h0c.1 0 .1-.1 0-.1v-.1" stroke="#000" stroke-linejoin="round" stroke-miterlimit="3.9492" fill="none" stroke-width="1.987964e-2" stroke-linecap="round"/><path d="m11.2 9.4-.1.1s-.1.1-.2.1l-.2.1s-.1.1-.2 0h-.1 0c0 .1.1.1.1.1s.1 0 .2-.1c.1 0 .2-.1.3-.2s.2 0 .2-.1m-.6.2h-.1 0c0 .1 0 .1.1 0q-.15.15 0 0c-.1.1 0 .1 0 0q0 .15 0 0c.1.1 0 0 0 0m0 .1q-.15 0 0 0-.15 0 0 0-.15 0 0 0" stroke-linecap="round" fill="none" stroke="#000" stroke-width="1.656636e-2" stroke-linejoin="round" stroke-miterlimit="3.9492"/><path d="M9.1 9.7s.1 0 0 0q.15 0 0 0h.2-.2q.15 0 0 0zm.7-.5c.1 0 0 0 0 0q0 .15 0 0-.15 0 0 0-.15 0 0 0zm.1.1h.1-.1c-.1 0 0 0 0 0zm-.5 0s.1 0 0 0c.1 0 .1.1 0 0 .1.1.1 0 0 0q0 .15 0 0zm-.2.2q.15 0 0 0 .15 0 0 0h.1-.2.1zM9.4 9.3q.15 0 0 0 .15 0 0 0 .15 0 0 0 .15 0 0 0 .15 0 0 0h.30000000000000004-.30000000000000004q.15 0 0 0 .15 0 0 0 .15 0 0 0 .15 0 0 0 .15 0 0 0zm-.2.3zm-.3.4H9l.1-.1-.1.1h-.1z" stroke="#000" stroke-width="6.626546e-3" stroke-linejoin="round" stroke-miterlimit="3.9492"/><path d="M10.6 9.3q-.15 0 0 0-.15 0 0 0c-.1 0 0 0 0 0m-.2 0s0 .1 0 0q0 .15 0 0c0 .1-.1.1 0 0q0 .15 0 0 0 .15 0 0-.15.15 0 0l-.1.1zc-.1.1 0 .1 0 0q0 .15 0 0m-.5.2.1-.1z"/><path d="M10.2 9.3v.1-.1zm-.3.2c.1 0 .1.1 0 0q.15.15 0 0l.1.1-.1-.1q.15.15 0 0c0 .1 0 0 0 0zM10.2 9.7h.1-.1z" stroke="#000" stroke-width="6.626546e-3" stroke-linejoin="round" stroke-miterlimit="3.9492"/><path d="M10.4 9.7q-.15 0 0 0-.15 0 0 0-.15 0 0 0-.15 0 0 0-.15 0 0 0-.15 0 0 0-.15 0 0 0 0-.15 0 0c0-.1 0 0 0 0"/><path d="M10 9.8h.1-.1q.15 0 0 0zm.2 0s.1 0 0 0q.15 0 0 0 .15.15 0 0 .15.15 0 0 .15.15 0 0 .15.15 0 0zm.2.2q-.15 0 0 0-.15 0 0 0-.15 0 0 0h-.1.1q-.15 0 0 0-.15 0 0 0zm-.3 0c0-.1 0 0 0 0z" stroke="#000" stroke-width="6.626546e-3" stroke-linejoin="round" stroke-miterlimit="3.9492"/><path d="M9.5 10"/><path d="M9.4 10.1q0-.15 0 0zm0 0c0-.1 0 0 0 0zm0 0q.15 0 0 0z" stroke="#000" stroke-width="6.626546e-3" stroke-linejoin="round" stroke-miterlimit="3.9492"/><path d="M9.7 9.6q.15 0 0 0 .15 0 0 0 .15 0 0 0 .15 0 0 0c.1 0 0 0 0 0s.1 0 0 0"/><path d="M9.8 10.4q.15.15 0 0 .15.15 0 0 .15.15 0 0 .15.15 0 0 .15.15 0 0c.1.1 0 .1 0 0zm-.3-.3q.15.15 0 0 .15.15 0 0zM9.6 10.2q.15.15 0 0 .15.15 0 0l.1.1-.1-.1q.15.15 0 0c.1.1 0 0 0 0z" stroke="#000" stroke-width="6.626546e-3" stroke-linejoin="round" stroke-miterlimit="3.9492"/><path d="M10.5 9.7q-.15 0 0 0-.15 0 0 0-.15 0 0 0m0 0q-.15 0 0 0-.15 0 0 0c-.1 0 0 0 0 0M10.5 9.8q-.15 0 0 0-.15 0 0 0-.15 0 0 0-.15 0 0 0-.15 0 0 0s-.1 0 0 0"/><path d="M10.1 10.1h.1-.1q0 .15 0 0 0 .15 0 0zm.7.4q0 .15 0 0 0 .15 0 0l.1.1-.1-.1q0 .15 0 0zm.1.1s0 .1 0 0q0 .15 0 0 0 .15 0 0s0 .1 0 0zM10 9.1zm.1 0q.15 0 0 0 .15 0 0 0zm.2-.1s0 .1 0 0q0 .15 0 0 0 .15 0 0 0 .15 0 0 0 .15 0 0 0 .15 0 0 0 .15 0 0v.1V9q0 .15 0 0 0 .15 0 0c0 .1 0 0 0 0zm0 .1z" stroke="#000" stroke-width="6.626546e-3" stroke-linejoin="round" stroke-miterlimit="3.9492"/><path d="M10.7 9s0 .1 0 0m0 0s-.1 0 0 0m0 0q-.15 0 0 0m-.1-.1q0 .15 0 0m0 0q0 .15 0 0m0 0s0 .1 0 0m-.1 0s0 .1 0 0m0 0q0 .15 0 0m-.1 0q0 .15 0 0m0 0q0 .15 0 0m0 .1" stroke="#000" stroke-linejoin="round" stroke-miterlimit="3.9492" fill-rule="evenodd" clip-rule="evenodd" stroke-width="3.777131e-3" stroke-linecap="round"/><path d="M10.4 9.1q-.15.15 0 0-.15.15 0 0-.15.15 0 0-.15.15 0 0-.15.15 0 0-.15.15 0 0 0 .15 0 0 0 .15 0 0 0 .15 0 0 0 .15 0 0 0 .15 0 0 0 .15 0 0 0 .15 0 0 0 .15 0 0 0 .15 0 0 0 .15 0 0 .15.15 0 0 .15.15 0 0 .15.15 0 0 .15.15 0 0c.1.1 0 .1 0 0 0 .1 0 0 0 0zm.3.1c-.1 0-.1-.1 0 0q-.15-.15 0 0-.15-.15 0 0-.15-.15 0 0-.15-.15 0 0-.15-.15 0 0z" stroke="#000" stroke-width="6.626546e-3" stroke-linejoin="round" stroke-miterlimit="3.9492"/><path d="M10.5 9.3q-.15 0 0 0-.15 0 0 0-.15 0 0 0m0 0s.1 0 0 0m-.2-.1s.1 0 0 0q.15 0 0 0c.1.1 0 .1 0 0q0 .15 0 0v.1zq0 .15 0 0"/><path d="M10.1 9.4c0 .1.1.1.1.1-.1 0-.1 0-.1-.1z" stroke="#000" stroke-width="6.626546e-3" stroke-linejoin="round" stroke-miterlimit="3.9492"/><path d="m10.9 10.4-.2.1.2-.1q0 .15 0 0zm0 .1-.2.1.2-.1zm.1.1h-.1.1v.1-.1z" stroke="#000" stroke-width="9.939819e-3" stroke-linejoin="round" stroke-miterlimit="3.9492"/><path d="M11 10.6q0 .15 0 0 0 .15 0 0v.1-.1q0 .15 0 0z" stroke="#000" stroke-width="6.626546e-3" stroke-linejoin="round" stroke-miterlimit="3.9492"/><path d="M11.2 10.8q.15 0 0 0h.1zq.15 0 0 0m-.8-1.3q0 .15 0 0v.1zq0 .15 0 0m0 .1"/><path d="M10.7 10.2s.1 0 0 0q.15 0 0 0l.1.1-.1-.1q.15 0 0 0zm-.2.5q.15.15 0 0 .15.15 0 0 .15.15 0 0c.1.1 0 .1 0 0q0 .15 0 0 0 .15 0 0 .15.15 0 0 0 .15 0 0zm.1-1.6s0-.1 0 0l-.1-.1.1.1q0-.15 0 0 0-.15 0 0z" stroke="#000" stroke-width="6.626546e-3" stroke-linejoin="round" stroke-miterlimit="3.9492"/><path d="M10.8 9.1q-.15 0 0 0c-.1.1-.1 0-.2 0 0 0 0-.1-.1-.1s-.1 0-.2.1v.1s-.1 0-.1-.1h-.3.5s.1-.1.2-.1c0-.1.1-.1.2.1-.1-.1 0-.1 0 0z" fill="none" stroke-width="1.987964e-2" stroke="#000" stroke-linejoin="round" stroke-miterlimit="3.9492"/><path d="M10.5 9c-.1 0-.1 0-.2.1v.1h.2v.1h.2v-.1c0-.1-.1-.1-.2-.2q.15 0 0 0z" fill="none" stroke="#000" stroke-width="1.656636e-2" stroke-linejoin="round" stroke-miterlimit="3.9492"/><path d="M10.6 9.2q-.15 0 0 0l-.1.1v-.2h-.1v.1h-.1l-.1-.1h-.1s-.1.1-.2.1-.1.1-.1.1c-.1 0-.1.1-.1.1s-.2.5-.3.6h-.1.3v-.1l.2-.2.1-.1s.1 0 .1-.1c0 .1 0 .2.1.3v.4l.1.1h.6l.1.2s.1.1.2.1 0 .1 0 .1h.3-.1l-.1-.1s0-.1-.1-.1c0 0-.1-.2-.2-.2 0-.1-.1-.1-.1-.2h-.2s-.1 0-.2-.1c-.1 0-.1 0-.1-.1v-.5s0-.1.1-.1c.2 0 .2 0 .2-.1q0 .15 0 0c0 .1 0 0 0 0z" fill="none" stroke-width="1.987964e-2" stroke="#000" stroke-linejoin="round" stroke-miterlimit="3.9492"/><path d="M9.8 9.2s-.1 0 0 0c-.1.1-.2.1-.3.1h-.1v.1h-.1c-.1 0-.1 0-.1.1v.1s-.1 0-.2.1v.2s-.1.1-.2.1 0 0 0 .1l.2.1s.1 0 .1-.1h.2l-.1-.1.1.1v-.2l.1-.1.6-.6h-.2zm.1.3-.1.1-.2.3.1-.1c.1 0 .1-.1.2-.1v-.2q0 .15 0 0z" fill="none" stroke-width="1.987964e-2" stroke="#000" stroke-linejoin="round" stroke-miterlimit="3.9492"/><path d="M10.5 9.7s0 .1 0 0q0 .15 0 0c0 .1-.1.1 0 0q-.15.15 0 0c-.1.1-.1 0 0 0q-.15 0 0 0-.15 0 0 0c-.1 0 0 0 0 0z" fill="none" stroke="#000" stroke-width="1.656636e-2" stroke-linejoin="round" stroke-miterlimit="3.9492"/><path d="M9.3 9.9s0 .1 0 0q0 .15 0 0 .15.15 0 0 .15 0 0 0zm.3.1-.1.1.1-.1zM9.5 10.1l.4.4h.1v-.1l-.5-.3zM10.6 10.7h-.1c0 .1.1.1.1 0q0 .15 0 0z" fill="none" stroke-width="1.987964e-2" stroke="#000" stroke-linejoin="round" stroke-miterlimit="3.9492"/><path d="M10.4 9.7q0-.15 0 0v-.1h0v-.1h0l-.1-.1h0v.1h0c.1.1.1.1.1.2" stroke-linecap="round" fill="none" stroke="#000" stroke-width="1.656636e-2" stroke-linejoin="round" stroke-miterlimit="3.9492"/><path d="M10.5 12.5q.15 0 0 0 .15.15 0 0l.1.1c-.2 0-.2 0-.1-.1q-.15.15 0 0-.15 0 0 0-.15 0 0 0"/><path d="m10.4 12.4-.1.1.1.1h-.1v.1s0 .1.1.1h.1v.1h.2v-.1h.1s.1 0 .1-.1v-.1h-.1l.1-.1v-.1h-.5q.15 0 0 0c.1 0 0 0 0 0m0 0q.15 0 0 0 .15.15 0 0 .15.15 0 0h.2v.2h.1v.1s0 .1 0 0h-.1v.1h-.2v-.1h-.1v-.1h.1zc-.1.1 0 .1 0 0"/><path d="M10.5 12.3v.1zm-.3.2.1.1zm.6 0q-.15 0 0 0h-.1zm-.4 0q0 .15 0 0 0 .15 0 0m.2 0q0 .15 0 0 0 .15 0 0m-.2.1q0 .15 0 0 .15.15 0 0c.1.1 0 0 0 0m.2 0q-.15.15 0 0-.15.15 0 0 0 .15 0 0m0 .1.1.1zm-.2 0-.1.1z" fill-rule="evenodd" clip-rule="evenodd"/><path d="m12.8 9-.1.1c-.3-.1-.4-.2-.5-.4s-.1-.4-.1-.6c.3 0 .5.1.7.2s.3.4.3.5H13c0-.1-.1-.3-.2-.4s-.4-.3-.5-.2-.1.3 0 .4c-.1.2.2.4.3.4l.1-.1z" fill="none" stroke="#000" stroke-linejoin="round" stroke-width="2.650444e-2" stroke-linecap="round" stroke-miterlimit="10"/><path d="M12.6 8.4c-.1 0-.3.1-.4.1 0-.1 0-.2.1-.3h-.1c0 .1 0 .3-.1.4h0c.2 0 .4-.1.5-.2 0 .1 0 0 0 0" fill="none" stroke="#000" stroke-linejoin="round" stroke-width="2.650444e-2" stroke-linecap="round" stroke-miterlimit="10"/><path d="m12.7 8.5-.3.3s.1 0 .1.1c0-.1.2-.2.2-.4q0 .15 0 0" fill="none" stroke="#000" stroke-linejoin="round" stroke-width="2.650444e-2" stroke-linecap="round" stroke-miterlimit="10"/><path d="m12 12.8-.1-.1c.1-.3.2-.4.4-.5s.4-.1.6-.1c0 .3-.1.5-.2.7s-.4.3-.5.3V13c.1 0 .3-.1.4-.2s.3-.4.2-.5-.3-.1-.4 0-.3.3-.3.4l.1.1z" fill="none" stroke="#000" stroke-linejoin="round" stroke-width="2.650444e-2" stroke-linecap="round" stroke-miterlimit="10"/><path d="M12.6 12.6c0-.1-.1-.3-.1-.4.1 0 .2 0 .3.1v-.1c-.1 0-.3 0-.4-.1h0c0 .2.1.4.2.5-.1 0 0 0 0 0" fill="none" stroke="#000" stroke-linejoin="round" stroke-width="2.650444e-2" stroke-linecap="round" stroke-miterlimit="10"/><path d="m12.5 12.7-.3-.3s0 .1-.1.1c.1 0 .2.2.4.2q-.15 0 0 0" fill="none" stroke="#000" stroke-linejoin="round" stroke-width="2.650444e-2" stroke-linecap="round" stroke-miterlimit="10"/><path d="m8.2 12 .1-.1c.3.1.4.2.5.4s.1.4.1.6c-.3 0-.5-.1-.7-.2s-.3-.4-.3-.5H8c0 .1.1.3.2.4s.4.3.5.2.1-.3 0-.4c.1-.2-.2-.4-.3-.4l-.1.1z" fill="none" stroke="#000" stroke-linejoin="round" stroke-width="2.650444e-2" stroke-linecap="round" stroke-miterlimit="10"/><path d="M8.4 12.6c.1 0 .3-.1.4-.1 0 .1 0 .2-.1.3h.1c0-.1 0-.3.1-.4h0c-.2 0-.4.1-.5.2 0-.1 0 0 0 0" fill="none" stroke="#000" stroke-linejoin="round" stroke-width="2.650444e-2" stroke-linecap="round" stroke-miterlimit="10"/><path d="m8.3 12.5.3-.3s-.1 0-.1-.1c0 .1-.2.2-.2.4q0-.15 0 0" fill="none" stroke="#000" stroke-linejoin="round" stroke-width="2.650444e-2" stroke-linecap="round" stroke-miterlimit="10"/><path d="m9 8.2.1.1c-.1.4-.2.5-.4.6s-.4.2-.6.2c0-.3.1-.5.2-.7s.4-.3.5-.3v.1c-.1 0-.3.1-.4.2s-.2.4-.1.5.3.1.4 0 .3-.4.3-.5l-.1-.1z" fill="none" stroke="#000" stroke-linejoin="round" stroke-width="2.650444e-2" stroke-linecap="round" stroke-miterlimit="10"/><path d="M8.4 8.4c0 .1.1.3.1.4-.1 0-.2 0-.3-.1v.1c.1 0 .3 0 .4.1h0c0-.2-.1-.4-.2-.5.1 0 0 0 0 0" fill="none" stroke="#000" stroke-linejoin="round" stroke-width="2.650444e-2" stroke-linecap="round" stroke-miterlimit="10"/><path d="m8.5 8.3.3.3s0-.1.1-.1c-.1 0-.2-.2-.4-.2q.15 0 0 0" fill="none" stroke="#000" stroke-linejoin="round" stroke-width="2.650444e-2" stroke-linecap="round" stroke-miterlimit="10"/><path d="M8.6 11.8c-.1-.1-.1-.2-.2-.2h.1c0 .1.1.2.1.2l.1-.1c0-.1-.1-.1-.1-.1h.1s0 .1.1.1c0 0 .1-.1.2-.1v-.1c-.1 0-.3.2-.4.3m-.2-1.1c-.1 0-.2.1-.2.3s.1.2.3.2.2-.1.2-.3-.1-.2-.3-.2m0 .1c.1 0 .2 0 .2.1s-.1.2-.2.2-.2-.1-.2-.1c.1-.1.1-.2.2-.2m.3-.9c-.1.1-.2.1-.2.2 0-.1-.1-.1-.1-.1-.1 0-.1 0-.1.1v.2h.4v-.1h-.2l.1-.1s.1-.1.1-.2m-.2.4h-.2c0-.1 0-.1.1-.1 0-.1.1-.1.1.1m.4-1.4c0 .1-.1.1-.1.2 0 0 0 .1.1.1s.1.1.2 0l.1-.1-.1-.1c0 .1.1.1.1.1 0 .1-.1.2-.2.2h-.3V9c.1 0 .2-.1.2-.1m.6-.4V9l.1-.1v-.1l.2-.1.1.1.1-.1c-.1 0-.2-.1-.2-.1zm0 .1.2.1zm.8-.4v.4c.1 0 .2 0 .2-.1v.1h-.3v-.4zM12 9.4c0-.1.2-.2.3-.3l-.1.4c.1 0 .2-.1.3-.2l.1.1c-.1 0-.3.1-.4.2l.1-.4c-.1.1-.3.2-.3.2m.7.7V10h.1c0 .1.1.3.1.4h-.1c-.1-.1-.1-.2-.1-.3-.1.1-.3.1-.3.2v-.1c0-.1.2-.1.3-.1m-.6 1.3-.1.1c.1 0 .1 0 .2.1 0 .1.1.2.1.3l.1-.1s-.1 0-.1-.2h.2l.1-.1c-.1.1-.3.1-.3.1zm-.2-2.7-.3.2s-.1.1-.2.1l.1.1.1-.1h.1s0 .1-.1.1l.1.1V9zm-.1 0v.2l-.1-.1zm-.8-.4c0 .1-.1.2-.1.4h.2v.1l-.3-.1c0-.1.1-.3.1-.4zm1.3 2.8c.1-.1.2-.1.2-.2 0 .1.1.1.1.1.1 0 .1 0 .1-.1v-.2h-.4v.1h.2l-.1.1s-.1.1-.1.2m.2-.4h.2c0 .1 0 .1-.1.1 0 .1-.1.1-.1-.1"/><path d="M16 8.9h-3c0-.5-.5-.9-.9-.9V5H8.9v3c-.5 0-.9.4-.9.9H5v3.2h3c0 .5.4.9.9.9v3h3.2v-3c.5 0 .9-.5.9-.9h3z" fill="none" stroke="#cf142b" stroke-width=".1865" stroke-miterlimit="3.9492"/><path d="M9.2 5.3v3.2-3.2h2.6v3.2-3.2zM5.3 9.2v2.6h3.2-3.2V9.2h3.2zm7.2 0h3.2v2.6h-3.2 3.2V9.2zm-3.3 3.3v3.2h2.6v-3.2 3.2H9.2v-3.2zM9 5.1v3.2-3.2h2.9v3-3zm3 3.2v.3-.3zm-3 .2v.1zM5.1 9v3h3.2-3.2V9h3zm3.3 0h.2zm3.9 0h.1-.1zm.4 0h3.1v3h-3 3V9zm-4.2 3h.1zm3.9 0h.4zm-.4.3v.1-.1zm-3 0v.3-.3zm3 .4v3.2H9v-3 3h3v-3.2z" fill-rule="evenodd" clip-rule="evenodd" stroke="#000" stroke-width="9.939819e-3" stroke-linejoin="round" stroke-miterlimit="3.9492"/><circle cx="10.5" cy="10.5" r="1.8" fill="none" stroke="#000" stroke-linejoin="round" stroke-miterlimit="3.9492" stroke-width="3.313273e-2"/><circle cx="11.6" cy="12.3" r=".1"/><circle cx="9.4" cy="12.3" r=".1"/><circle cx="10.5" cy="10.5" r="2.4" fill="none" stroke="#000" stroke-linejoin="round" stroke-miterlimit="3.9492" stroke-width="3.313273e-2"/></svg>