<svg xmlns="http://www.w3.org/2000/svg" xml:space="preserve" width="40" height="40" baseProfile="tiny" overflow="visible" version="1.2" viewBox="0 0 40 40"><path fill="red" fill-rule="evenodd" d="M1 32.5h38v-25H1z"/><path fill="#060" fill-rule="evenodd" d="M1 32.5h15v-25H1z"/><path fill="#FF0" fill-rule="evenodd" stroke="#000" stroke-linecap="round" stroke-linejoin="round" stroke-width=".037" d="M21.6 24c-2-.1-10.9-5.7-11-6.6l.5-.8c.9 1.3 10.1 6.7 11 6.6z"/><path fill="#FF0" fill-rule="evenodd" stroke="#000" stroke-linecap="round" stroke-linejoin="round" stroke-width=".037" d="M11 16.5c-.2.5 2.3 2 5.4 3.9 3 1.8 5.6 3 5.8 2.8l.1-.2q0 .15-.3 0c-.8-.2-3-1.2-5.6-2.8s-4.9-3.1-5.3-3.7v-.2h0zM21.6 24c0 .1-.1.1-.2 0-.7-.1-3-1.2-5.6-2.7-3.1-1.8-5.6-3.5-5.3-3.9l.1-.1h0c-.2.7 5 3.7 5.3 3.9 3 1.9 5.6 3 5.8 2.7z"/><path fill="#FF0" fill-rule="evenodd" stroke="#000" stroke-linecap="round" stroke-linejoin="round" stroke-width=".037" d="M16.5 18c2 0 4.4-.3 5.8-.8l-.3-.5c-.8.5-3.3.8-5.5.8-2.6 0-4.5-.3-5.4-.9l-.3.5c1.7.7 3.5.9 5.7.9"/><path fill="#FF0" fill-rule="evenodd" stroke="#000" stroke-linecap="round" stroke-linejoin="round" stroke-width=".037" d="M22.4 17.2c0 .1-1 .4-2.3.6-.9.1-2.1.3-3.6.3-1.4 0-2.5-.1-3.4-.2-1.4-.2-2.1-.5-2.4-.6 0-.1 0-.1.1-.1.8.3 1.5.5 2.4.6s2 .2 3.4.2c1.5 0 2.6-.1 3.5-.3 1.4-.2 2.1-.5 2.2-.6zm-.3-.5c-.1.1-.9.4-2.2.6-.9.1-2 .2-3.4.2-1.3 0-2.4-.1-3.3-.2-1.3-.2-2-.5-2.3-.6l.1-.1c.2.1.9.4 2.2.6.8.1 1.9.2 3.3.2s2.5-.1 3.4-.2c1.3-.2 2-.5 2.1-.6zM10.1 20.4c1.2.6 3.9 1 6.4 1 2.3 0 5.3-.4 6.4-1v-.6c-.4.5-3.6 1.1-6.4 1.1-2.9 0-5.5-.5-6.4-1z"/><path fill="#FF0" fill-rule="evenodd" stroke="#000" stroke-linecap="round" stroke-linejoin="round" stroke-width=".037" d="M23 20.3v.2c-.2.2-1.2.5-2.6.7-1 .2-2.3.3-4 .3-1.6 0-2.8-.1-3.8-.3-1.5-.2-2.5-.6-2.7-.7v-.2c.6.4 2.2.7 2.7.8 1 .1 2.2.3 3.7.3 1.6 0 2.9-.1 4-.3s2.4-.6 2.7-.8m0-.6v.2c-.2.2-1.2.5-2.6.7-1 .2-2.3.3-4 .3-1.6 0-2.8-.1-3.8-.3-1.5-.2-2.5-.6-2.7-.7v-.2c.6.4 2.2.7 2.7.8 1 .1 2.2.3 3.7.3 1.6 0 2.9-.1 4-.3s2.4-.5 2.7-.8M16.5 23.9c-2.8 0-5.2-.8-5.7-.9l.4.6c.9.4 3.2.9 5.3.9 2.1-.1 3.9-.2 5.2-.9l.4-.6c-.8.4-3.9.9-5.6.9"/><path fill="#FF0" fill-rule="evenodd" stroke="#000" stroke-linecap="round" stroke-linejoin="round" stroke-width=".036" d="M21.9 23.5c-.1.1-.1.2-.2.2-.6.2-1.6.4-2 .5-.8.2-2.1.3-3.3.3-2.5 0-4.5-.5-5.4-.9v-.1h0l.1.1c1.7.6 3.6.8 5.4.9 1.1 0 2.3-.1 3.2-.3 1.4-.4 2-.6 2.2-.7m.3-.6q0 0 0 0c0 .1-.1.1-.1.2-.3.1-1.2.4-2.5.6-.9.1-1.4.2-3.1.3-3.2-.1-5.2-.7-5.7-.9l-.1-.1c1.8.5 3.7.8 5.8.9 1.6 0 2.2-.1 3.1-.3 1.5-.2 2.3-.5 2.5-.6q0 0 0 0z"/><path fill="#FF0" fill-rule="evenodd" stroke="#000" stroke-linecap="round" stroke-linejoin="round" stroke-width=".037" d="M22.3 19.8c0 1.8-.9 3.5-1.7 4.2-1.1 1-2.5 1.7-4.1 1.7-1.8 0-3.6-1.2-4-1.7-.9-1-1.7-2.3-1.7-4.1.1-2 .9-3.4 2-4.3 1.1-1 2.6-1.4 3.9-1.4 1.4 0 3.1.7 4.3 2.2.8.9 1.1 1.9 1.3 3.4m-5.8-6.2c3.5 0 6.4 2.9 6.4 6.4s-2.9 6.4-6.4 6.4-6.4-2.9-6.4-6.4 2.9-6.4 6.4-6.4"/><path fill="#FF0" fill-rule="evenodd" stroke="#000" stroke-linecap="round" stroke-linejoin="round" stroke-width=".037" d="M16.5 13.6c3.5 0 6.4 2.9 6.4 6.4s-2.9 6.4-6.4 6.4-6.4-2.9-6.4-6.4 2.9-6.4 6.4-6.4M10.2 20c0 3.5 2.8 6.3 6.3 6.3 3.4 0 6.3-2.8 6.3-6.3s-2.8-6.3-6.3-6.3-6.3 2.8-6.3 6.3"/><path fill="#FF0" fill-rule="evenodd" stroke="#000" stroke-linecap="round" stroke-linejoin="round" stroke-width=".037" d="M16.5 14.1c3.2 0 5.9 2.6 5.9 5.9 0 3.2-2.7 5.9-5.9 5.9s-5.9-2.6-5.9-5.9c0-3.2 2.7-5.9 5.9-5.9M10.8 20c0 3.2 2.6 5.7 5.7 5.7s5.7-2.6 5.7-5.7c0-3.2-2.6-5.7-5.7-5.7-3.1-.1-5.7 2.5-5.7 5.7"/><path fill="#FF0" fill-rule="evenodd" stroke="#000" stroke-linecap="round" stroke-linejoin="round" stroke-width=".037" d="M16.8 13.5h-.6v12.9h.6z"/><path fill="#FF0" fill-rule="evenodd" stroke="#000" stroke-linecap="round" stroke-linejoin="round" stroke-width=".037" d="M16.7 13.5h.1v13.1h-.1zm-.5 0h.1v13.1h-.1z"/><path fill="#FF0" fill-rule="evenodd" stroke="#000" stroke-linecap="round" stroke-linejoin="round" stroke-width=".037" d="M22.9 20.2v-.5l-.4-.4-2.2-.6-3.2-.3-3.8.2-2.7.6-.5.4v.5l1.4-.6 3.3-.5H18l2.3.3 1.6.4z"/><path fill="#FF0" fill-rule="evenodd" stroke="#000" stroke-linecap="round" stroke-linejoin="round" stroke-width=".037" d="M16.5 19c1.5 0 3 .1 4.2.4 1.2.2 2.1.5 2.3.9v.2c-.3-.4-1.5-.7-2.4-.9-1.2-.2-2.6-.4-4.1-.4-1.6 0-3.1.2-4.2.4-.9.2-2.1.5-2.3.9v-.2c.1-.2 1-.6 2.3-.9 1.1-.2 2.6-.4 4.2-.4m0-.5c1.5 0 3 .1 4.2.4 1.2.2 2.1.5 2.3.9v.2c-.3-.4-1.5-.7-2.4-.9-1.2-.2-2.6-.4-4.1-.4-1.6 0-3.1.2-4.2.4-.9.2-2.2.5-2.3.9v-.2c.1-.2 1-.6 2.3-.9 1.1-.3 2.6-.4 4.2-.4M16.5 15.6c2.4 0 4.5.3 5.4.8l.3.6c-.8-.4-3.1-.9-5.8-.8-2.2 0-4.5.2-5.7.9l.4-.7c1-.5 3.3-.8 5.4-.8"/><path fill="#FF0" fill-rule="evenodd" stroke="#000" stroke-linecap="round" stroke-linejoin="round" stroke-width=".037" d="M16.5 16.1c1.4 0 2.7.1 3.7.3s1.9.5 2 .6l.1.2c-.3-.2-1.1-.4-2.2-.6-1-.2-2.4-.3-3.7-.3-1.5 0-2.7.1-3.8.3s-1.8.5-2 .6l.1-.2c.4-.2.9-.4 1.9-.6 1.2-.2 2.4-.3 3.9-.3m0-.5c1.3 0 2.6.1 3.6.2.8.2 1.6.4 1.9.6l.2.2c-.3-.3-1.2-.6-2.1-.7-1-.2-2.2-.2-3.5-.3q-2.1 0-3.6.3-1.35.3-1.8.6l.1-.2c.4-.2.9-.4 1.6-.5 1-.1 2.2-.2 3.6-.2M19.7 22.7c-1.2-.2-2.4-.3-3.2-.2-4 0-5.3.8-5.4 1.1l-.3-.6c1-.7 3.2-1.1 5.7-1.1 1.3 0 2.5.1 3.4.3z"/><path fill="#FF0" fill-rule="evenodd" stroke="#000" stroke-linecap="round" stroke-linejoin="round" stroke-width=".036" d="M16.5 22.4c1.1 0 2.2.1 3.2.3l-.1.1c-1-.2-2-.2-3.2-.2-1.5 0-3 .1-4.3.5-.4.1-1.1.4-1.2.6l.1-.2c0-.1.4-.4 1.2-.6 1.5-.5 2.9-.5 4.3-.5m0-.6c1.1 0 2.3.1 3.5.3l-.1.1c-1-.2-2-.3-3.4-.3-1.5 0-3 .1-4.5.5-.5.1-1.3.4-1.3.7V23c0-.2.7-.5 1.3-.7 1.5-.4 3-.5 4.5-.5"/><path fill="#FF0" fill-rule="evenodd" stroke="#000" stroke-linecap="round" stroke-linejoin="round" stroke-width=".037" d="m22.2 23.1-.5.7-1.4-1.2-3.6-2.4-4-2.2-2.1-.7.4-.8.2-.1 1.3.3 4.3 2.2 2.5 1.6 2.1 1.5.8 1z"/><path fill="#FF0" fill-rule="evenodd" stroke="#000" stroke-linecap="round" stroke-linejoin="round" stroke-width=".037" d="M10.6 17.3c.4-.2 3.1 1 5.9 2.6 2.8 1.7 5.5 3.6 5.2 4l-.1.1h0v-.2c-.1-.4-2-1.9-5.2-3.8-3.1-1.8-5.6-2.9-5.9-2.6zm11.7 5.8c.2-.5-2.3-2.3-5.4-4.2-3.2-1.8-5.4-2.9-5.9-2.5v.1q0 0 0 0c.1-.1.2-.1.3-.1.7 0 2.8 1 5.6 2.6 1.3.8 5.3 3.4 5.4 4.1-.1.1-.1.1-.1.2z"/><path fill="#FFF" stroke="#000" stroke-width=".043" d="M12.7 20.7c0 1.1.4 2 1.1 2.7s1.7 1.1 2.7 1.1c1.1 0 2-.4 2.7-1.1s1.1-1.7 1.1-2.7v-5.1h-7.7l.1 5.1z"/><path fill="red" stroke="#000" stroke-width=".033" d="M12.8 20.7c0 1 .4 1.9 1.1 2.6s1.6 1.1 2.6 1.1 1.9-.4 2.6-1.1 1.1-1.6 1.1-2.6v-5h-7.4v5m5.9-3.5V21c-.1.5-.3.9-.6 1.3-.4.4-1 .6-1.6.6s-1.1-.3-1.5-.7-.7-1-.7-1.6v-3.5l4.4.1z"/><path fill="#FF0" d="M13.3 17c0-.4.3-.4.3-.4s.3.1.3.4z"/><path fill="#FF0" stroke="#000" stroke-width=".032" d="M13.1 16.6v.4h.3c0-.3.3-.4.3-.4s.3.1.3.4h.3v-.4h-1.2zM13 17h1.1v.2H13V17z"/><path fill="#FF0" stroke="#000" stroke-width=".032" d="M13.4 17c0-.2.1-.3.1-.3s.2.1.2.3h-.3M13 16.4h1.1H13q0 .15 0 0z"/><path fill="#FF0" stroke="#000" stroke-width=".032" d="M13 16.5h1-1q0 .15 0 0zM13.4 15.8l.1.1v-.1h.1v.1h.1v-.1h.1v.1h-.3l-.1-.1zM13.7 16v.4h-.3V16h.3M13.3 16.2v.2H13v-.2h.3zM14 16.2v.2h-.3v-.2h.3zM13 16l.1.1V16h.1v.1h.1V16h.1v.1h-.3L13 16z"/><path fill="#FF0" stroke="#000" stroke-width=".032" d="m13.7 16 .1.1V16h.1v.1h.1V16h.1v.1h-.3l-.1-.1z"/><path d="M13.5 16.1s.1 0 0 0M13.2 16.3q0-.15 0 0M13.9 16.3q0-.15 0 0"/><path fill="#FF0" d="M13.3 20c0-.4.3-.4.3-.4s.3.1.3.4z"/><path fill="#FF0" stroke="#000" stroke-width=".032" d="M13.1 19.6v.4h.3c0-.3.3-.4.3-.4s.3.1.3.4h.3v-.4h-1.2zM13 20h1.1v.2H13V20z"/><path fill="#FF0" stroke="#000" stroke-width=".032" d="M13.4 20c0-.2.1-.3.1-.3s.2.1.2.3h-.3M13 19.4h1.1H13q0 .15 0 0z"/><path fill="#FF0" stroke="#000" stroke-width=".032" d="M13 19.5h1-1q0 .15 0 0zM13.4 18.8l.1.1v-.1h.1v.1h.1v-.1h.1v.1h-.3l-.1-.1zM13.7 19v.4h-.3V19h.3M13.3 19.2v.2H13v-.2h.3zM14 19.2v.2h-.3v-.2h.3zM13 19l.1.1V19h.1v.1h.1V19h.1v.1h-.3L13 19z"/><path fill="#FF0" stroke="#000" stroke-width=".032" d="m13.7 19 .1.1V19h.1v.1h.1V19h.1v.1h-.3l-.1-.1z"/><path d="M13.5 19.1s.1 0 0 0M13.2 19.3q0-.15 0 0M13.9 19.3q0-.15 0 0"/><path fill="#FF0" d="M14.4 23.2c-.2-.3-.1-.5-.1-.5s.3-.1.5.1z"/><path fill="#FF0" stroke="#000" stroke-width=".032" d="m14 23 .3.3.2-.2c-.2-.2-.1-.5-.1-.5s.2-.1.5.1l.2-.2-.3-.3-.8.8z"/><path fill="#FF0" stroke="#000" stroke-width=".032" d="m14.2 23.3.8-.8h.1v.1l-.9.7q.15.15 0 0 0 .15 0 0z"/><path fill="#FF0" stroke="#000" stroke-width=".032" d="M14.5 23.1c-.2-.2-.1-.3-.1-.3s.2-.1.3.1l-.2.2M13.8 22.9l.7-.7h.1v.1l-.8.6q.15.15 0 0c0 .1 0 0 0 0z"/><path fill="#FF0" stroke="#000" stroke-width=".032" d="m13.9 23 .7-.7h.1v.1l-.8.6c.1 0 0 0 0 0zM13.7 22.3l.1-.1-.1.1.2-.2.1-.1.1.1-.2.2c-.1.1-.1.1-.2 0z"/><path fill="#FF0" stroke="#000" stroke-width=".032" d="m14 22.2.3.3-.2.2-.3-.3.2-.2M13.9 22.5l.2.2-.2.2-.2-.2.2-.2zM14.4 22.1l.2.2-.2.2-.2-.2.2-.2z"/><path fill="#FF0" stroke="#000" stroke-width=".032" d="m13.6 22.6.1-.1-.1.1.2-.2.1-.1.1.1-.2.2c-.1.1-.1.1-.2 0zM14 22.2l.1-.1-.1.1.2-.2.1-.1.1.1-.2.2c0 .1 0 .1-.2 0z"/><path d="M14 22.4q0-.15 0 0h.1zM13.8 22.7s.1-.1 0 0M14.3 22.2"/><path fill="#FF0" d="M16.2 17c0-.4.3-.4.3-.4s.3.1.3.4z"/><path fill="#FF0" stroke="#000" stroke-width=".032" d="M16 16.6v.4h.3c0-.3.3-.4.3-.4s.3.1.3.4h.1v-.4h-1zM16 17h1.1v.2H16c-.1-.1-.1-.1 0-.2q-.15 0 0 0z"/><path fill="#FF0" stroke="#000" stroke-width=".032" d="M16.4 17c0-.2.1-.3.1-.3s.2.1.2.3h-.3M16 16.4h1-1c0 .1-.1.1 0 0-.1 0 0 0 0 0zM16 16.5h1-1q0 .15 0 0zM16.3 15.8l.1.1v-.1h.1v.1h.1v-.1h.1v.1h-.3l-.1-.1zM16.6 16v.4h-.3V16h.3M16.3 16.2v.2H16v-.2h.3zM17 16.2v.2h-.3v-.2h.3z"/><path fill="#FF0" stroke="#000" stroke-width=".032" d="m16 16 .1.1V16h.1v.1h.1V16h.1v.1H16V16zM16.7 16l.1.1V16h.1v.1h.1V16h.1v.1h-.3l-.1-.1z"/><path d="M16.1 16.3c0-.1.1-.1 0 0M16.8 16.3c0-.1.1-.1 0 0"/><path fill="#FF0" d="M19.7 17c0-.4-.3-.4-.3-.4s-.3.1-.3.4z"/><path fill="#FF0" stroke="#000" stroke-width=".032" d="M19.9 16.6v.4h-.3c0-.3-.3-.4-.3-.4s-.3.1-.3.4h-.3v-.4h1.2zM20 17h-1.1v.2H20V17z"/><path fill="#FF0" stroke="#000" stroke-width=".032" d="M19.6 17c0-.2-.1-.3-.1-.3s-.2.1-.2.3h.3M20 16.4h-1.1H20q0 .15 0 0z"/><path fill="#FF0" stroke="#000" stroke-width=".032" d="M20 16.5h-1 1q0 .15 0 0zM19.6 15.8l-.1.1v-.1h-.1v.1h-.1v-.1h-.1v.1h.3l.1-.1zM19.3 16v.4h.3V16h-.3M19.7 16.2v.2h.3v-.2h-.3zM19 16.2v.2h.3v-.2H19z"/><path fill="#FF0" stroke="#000" stroke-width=".032" d="m20 16-.1.1V16h-.1v.1h-.1V16h-.1v.1h.3l.1-.1zM19.3 16l-.1.1V16h-.1v.1H19V16h-.1v.1h.3l.1-.1z"/><path d="M19.5 16.1s-.1 0 0 0M19.8 16.3q0-.15 0 0M19.1 16.3q0-.15 0 0"/><path fill="#FF0" d="M19.7 20c0-.4-.3-.4-.3-.4s-.3.1-.3.4z"/><path fill="#FF0" stroke="#000" stroke-width=".032" d="M19.9 19.6v.4h-.3c0-.3-.3-.4-.3-.4s-.3.1-.3.4h-.3v-.4h1.2zM20 20h-1.1v.2H20V20z"/><path fill="#FF0" stroke="#000" stroke-width=".032" d="M19.6 20c0-.2-.1-.3-.1-.3s-.2.1-.2.3h.3M20 19.4h-1.1H20q0 .15 0 0z"/><path fill="#FF0" stroke="#000" stroke-width=".032" d="M20 19.5h-1 1q0 .15 0 0zM19.6 18.8l-.1.1v-.1h-.1v.1h-.1v-.1h-.1v.1h.3l.1-.1zM19.3 19v.4h.3V19h-.3M19.7 19.2v.2h.3v-.2h-.3zM19 19.2v.2h.3v-.2H19z"/><path fill="#FF0" stroke="#000" stroke-width=".032" d="m20 19-.1.1V19h-.1v.1h-.1V19h-.1v.1h.3l.1-.1zM19.3 19l-.1.1V19h-.1v.1H19V19h-.1v.1h.3l.1-.1z"/><path d="M19.5 19.1s-.1 0 0 0M19.8 19.3q0-.15 0 0M19.1 19.3q0-.15 0 0"/><path fill="#FF0" d="M18.6 23.2c.2-.3.1-.5.1-.5s-.3-.1-.5.1z"/><path fill="#FF0" stroke="#000" stroke-width=".032" d="m19 23-.3.3-.2-.2c.2-.2.1-.5.1-.5s-.2-.1-.5.1l-.1-.1.3-.3.7.7z"/><path fill="#FF0" stroke="#000" stroke-width=".032" d="m18.8 23.3-.8-.7h-.1v.1l.9.6q-.15.15 0 0 0 .15 0 0z"/><path fill="#FF0" stroke="#000" stroke-width=".032" d="M18.5 23.1c.2-.2.1-.3.1-.3s-.2-.1-.3.1l.2.2M19.2 22.9l-.7-.7h-.1v.1l.8.6q-.15.15 0 0c0 .1 0 0 0 0z"/><path fill="#FF0" stroke="#000" stroke-width=".032" d="m19.1 23-.7-.7h-.1v.1l.8.6c-.1 0 0 0 0 0zM19.3 22.3l-.1-.1.1.1-.2-.2V22l-.1.1.2.2c0 .1 0 .1.1 0z"/><path fill="#FF0" stroke="#000" stroke-width=".032" d="m19 22.2-.3.3.2.2.3-.3-.2-.2M19.1 22.5l-.2.2.2.2.2-.2-.2-.2zM18.6 22.1l-.2.2.2.2.2-.2-.2-.2z"/><path fill="#FF0" stroke="#000" stroke-width=".032" d="m19.4 22.6-.1-.1.1.1-.2-.2-.1-.1-.1.1.2.2c.1.1.1.1.2 0zM19 22.2l-.1-.1.1.1-.2-.2-.1-.1-.1.1.2.2c0 .1 0 .1.2 0z"/><path d="M19 22.4q0-.15 0 0h-.1zM19.2 22.7s-.1-.1 0 0M18.7 22.2"/><path fill="#039" d="M16 20.1c0 .1.1.3.1.4.1.1.2.2.3.2s.3-.1.3-.2c.1-.1.1-.2.1-.4v-.7h-1zM16 18.5c0 .1.1.3.1.4.1.1.2.2.3.2s.3-.1.3-.2c.1-.1.1-.2.1-.4v-.7h-1zM14.7 20.1c0 .1.1.3.1.4.1.1.2.2.3.2s.3-.1.3-.2c.1-.1.1-.2.1-.4v-.7h-1zM17.4 20.1c0 .1.1.3.1.4.1.1.2.2.3.2s.3-.1.3-.2c.1-.1.1-.2.1-.4v-.7h-1zM16 21.8c0 .1.1.3.1.4.1.1.2.2.3.2s.3-.1.3-.2c.1-.1.1-.2.1-.4v-.7h-1z"/><circle cx="16.3" cy="19.7" r=".1" fill="#FFF"/><circle cx="16.8" cy="19.7" r=".1" fill="#FFF"/><circle cx="16.5" cy="20" r=".1" fill="#FFF"/><circle cx="16.3" cy="20.2" r=".1" fill="#FFF"/><circle cx="16.8" cy="20.2" r=".1" fill="#FFF"/><circle cx="16.3" cy="18" r=".1" fill="#FFF"/><circle cx="16.8" cy="18" r=".1" fill="#FFF"/><circle cx="16.5" cy="18.3" r=".1" fill="#FFF"/><circle cx="16.3" cy="18.6" r=".1" fill="#FFF"/><circle cx="16.8" cy="18.6" r=".1" fill="#FFF"/><circle cx="14.9" cy="19.7" r=".1" fill="#FFF"/><circle cx="15.4" cy="19.7" r=".1" fill="#FFF"/><circle cx="15.2" cy="20" r=".1" fill="#FFF"/><circle cx="14.9" cy="20.2" r=".1" fill="#FFF"/><circle cx="15.4" cy="20.2" r=".1" fill="#FFF"/><circle cx="17.6" cy="19.7" r=".1" fill="#FFF"/><circle cx="18.1" cy="19.7" r=".1" fill="#FFF"/><circle cx="17.9" cy="20" r=".1" fill="#FFF"/><circle cx="17.6" cy="20.2" r=".1" fill="#FFF"/><circle cx="18.1" cy="20.2" r=".1" fill="#FFF"/><circle cx="16.3" cy="21.4" r=".1" fill="#FFF"/><circle cx="16.8" cy="21.4" r=".1" fill="#FFF"/><circle cx="16.5" cy="21.6" r=".1" fill="#FFF"/><circle cx="16.3" cy="21.9" r=".1" fill="#FFF"/><circle cx="16.8" cy="21.9" r=".1" fill="#FFF"/></svg>