<svg xmlns="http://www.w3.org/2000/svg" xml:space="preserve" width="40" height="40" baseProfile="tiny" overflow="visible" version="1.2" viewBox="0 0 40 40"><path fill="red" fill-rule="evenodd" d="M1 39h38V1H1z"/><path fill="#060" fill-rule="evenodd" d="M1 39h13V1H1z"/><path fill="#FF0" fill-rule="evenodd" stroke="#000" stroke-linecap="round" stroke-linejoin="round" stroke-width=".054" d="M21.9 25.4c-2.9-.1-16-8.3-16.1-9.6l.7-1.2c1.3 1.9 14.7 9.9 16 9.6z"/><path fill="#FF0" fill-rule="evenodd" stroke="#000" stroke-linecap="round" stroke-linejoin="round" stroke-width=".054" d="M6.4 14.4c-.3.7 3.4 3 7.9 5.7 4.4 2.7 8.3 4.4 8.5 4.1l.1-.2c-.1.1-.2.1-.4 0-1.2-.3-4.3-1.8-8.2-4.1s-7.2-4.5-7.8-5.4c0-.1-.1-.2-.1-.3h0zm15.6 11c0 .1-.1.1-.3.1-1.1-.1-4.3-1.7-8.2-4-4.5-2.7-8.2-5.1-7.8-5.8l.1-.2h0c-.4 1.1 7.3 5.5 7.7 5.7 4.4 2.7 8.2 4.3 8.5 3.9z"/><path fill="#FF0" fill-rule="evenodd" stroke="#000" stroke-linecap="round" stroke-linejoin="round" stroke-width=".054" d="M14.5 16.6c2.9 0 6.4-.4 8.4-1.2l-.4-.7c-1.2.7-4.8 1.1-8 1.2-3.9 0-6.6-.4-8-1.3l-.4.8c2.5.9 5.1 1.2 8.4 1.2"/><path fill="#FF0" fill-rule="evenodd" stroke="#000" stroke-linecap="round" stroke-linejoin="round" stroke-width=".054" d="M23.1 15.4c-.1.1-1.4.6-3.4.9-1.3.2-3.1.4-5.2.4s-3.7-.1-5-.3c-2-.4-3.1-.8-3.5-1 0-.1.1-.1.1-.2 1.1.4 2.2.7 3.4.9 1.3.2 2.9.3 5 .3s3.9-.2 5.2-.4c2-.3 3.1-.7 3.3-.9zm-.4-.7c-.2.2-1.3.6-3.2.9-1.3.2-2.9.3-5 .3q-3 0-4.8-.3c-1.9-.3-3-.7-3.3-.8 0-.1.1-.1.1-.2.3.1 1.3.5 3.2.8q1.8.3 4.8.3c2.1 0 3.7-.2 4.9-.3 1.9-.3 2.9-.8 3.1-.9zM5.1 20c1.8.9 5.7 1.4 9.4 1.5 3.4 0 7.8-.5 9.4-1.4v-.9c-.5.8-5.2 1.6-9.4 1.5-4.2 0-8.1-.7-9.4-1.5z"/><path fill="#FF0" fill-rule="evenodd" stroke="#000" stroke-linecap="round" stroke-linejoin="round" stroke-width=".054" d="M24 19.9v.2c-.2.3-1.8.7-3.7 1.1-1.5.2-3.4.4-5.8.4-2.3 0-4.1-.2-5.5-.4-2.2-.3-3.7-.9-3.9-1.1v-.3c.9.6 3.2 1 4 1.1 1.4.2 3.2.4 5.5.4 2.4 0 4.3-.2 5.8-.4 1.2-.1 3.2-.7 3.6-1m0-.8v.2c-.2.3-1.8.7-3.7 1.1-1.5.2-3.4.4-5.8.4-2.3 0-4.1-.2-5.5-.4-2.2-.3-3.7-.9-3.9-1.1V19c.9.6 3.2 1 4 1.1 1.4.2 3.2.4 5.5.4 2.4 0 4.3-.2 5.8-.4 1.2-.1 3.2-.7 3.6-1M14.5 25.2c-4.1 0-7.5-1.1-8.3-1.3l.5.8c1.3.5 4.7 1.4 7.8 1.3s5.8-.3 7.7-1.3l.5-.9c-1.2.7-5.6 1.4-8.2 1.4"/><path fill="#FF0" fill-rule="evenodd" stroke="#000" stroke-linecap="round" stroke-linejoin="round" stroke-width=".052" d="M22.4 24.6c-.1.1-.2.2-.2.4-.9.3-2.3.6-2.9.7-1.2.3-3.1.4-4.8.4-3.6-.1-6.5-.8-7.9-1.4l-.1-.2h0l.2.1c2.5.9 5.2 1.2 7.8 1.3 1.7 0 3.3-.2 4.7-.4 2-.4 2.9-.7 3.2-.9m.5-.8q0 0 0 0c-.1.1-.1.2-.2.3-.5.2-1.8.5-3.7.8-1.2.2-2 .3-4.5.4-4.6-.1-7.7-1-8.4-1.3l-.1-.2c2.7.7 5.4 1.2 8.5 1.2 2.3 0 3.2-.2 4.5-.4 2.2-.3 3.3-.7 3.7-.8q0 0 0 0z"/><path fill="#FF0" fill-rule="evenodd" stroke="#000" stroke-linecap="round" stroke-linejoin="round" stroke-width=".054" d="M22.9 19.3c0 2.7-1.4 5.1-2.5 6.1-1.6 1.5-3.6 2.5-6 2.5-2.7 0-5.2-1.7-5.9-2.5-1.3-1.5-2.4-3.4-2.4-6 .2-2.9 1.3-4.9 3-6.3s3.9-2.1 5.7-2c2.1.1 4.6 1.1 6.3 3.2 1.1 1.3 1.6 2.7 1.8 5m-8.4-9.2c5.2 0 9.4 4.2 9.4 9.4s-4.2 9.4-9.4 9.4-9.4-4.2-9.4-9.4 4.2-9.4 9.4-9.4"/><path fill="#FF0" fill-rule="evenodd" stroke="#000" stroke-linecap="round" stroke-linejoin="round" stroke-width=".054" d="M14.5 10.1c5.2 0 9.4 4.2 9.4 9.4s-4.2 9.4-9.4 9.4-9.4-4.2-9.4-9.4 4.2-9.4 9.4-9.4m-9.2 9.4c0 5 4.1 9.2 9.2 9.2 5 0 9.2-4.1 9.2-9.2 0-5-4.1-9.2-9.2-9.2s-9.2 4.1-9.2 9.2"/><path fill="#FF0" fill-rule="evenodd" stroke="#000" stroke-linecap="round" stroke-linejoin="round" stroke-width=".054" d="M14.5 10.9c4.7 0 8.6 3.9 8.6 8.6s-3.9 8.6-8.6 8.6-8.6-3.9-8.6-8.6 3.9-8.6 8.6-8.6m-8.4 8.6c0 4.6 3.8 8.4 8.4 8.4s8.4-3.8 8.4-8.4-3.8-8.4-8.4-8.4-8.4 3.8-8.4 8.4"/><path fill="#FF0" fill-rule="evenodd" stroke="#000" stroke-linecap="round" stroke-linejoin="round" stroke-width=".054" d="M14.9 10.1h-.8V29h.8z"/><path fill="#FF0" fill-rule="evenodd" stroke="#000" stroke-linecap="round" stroke-linejoin="round" stroke-width=".054" d="M14.8 10h.2v19h-.2zm-.8 0h.2v19.1H14z"/><path fill="#FF0" fill-rule="evenodd" stroke="#000" stroke-linecap="round" stroke-linejoin="round" stroke-width=".054" d="M23.9 19.9v-.7l-.6-.5-3.2-.9-4.6-.5-5.6.3-4 .9-.8.6v.7l2-.9 4.8-.8h4.6l3.4.4 2.4.6z"/><path fill="#FF0" fill-rule="evenodd" stroke="#000" stroke-linecap="round" stroke-linejoin="round" stroke-width=".054" d="M14.5 18c2.2 0 4.4.2 6.1.5 1.8.4 3 .8 3.4 1.3v.2c-.5-.6-2.2-1.1-3.5-1.3-1.7-.3-3.8-.5-6-.5-2.3 0-4.5.2-6.2.6-1.3.3-3.1.8-3.3 1.3v-.3c.1-.4 1.5-.9 3.3-1.3 1.7-.2 3.9-.5 6.2-.5m0-.8c2.2 0 4.4.2 6.1.5 1.8.4 3 .8 3.4 1.3v.2c-.5-.6-2.2-1.1-3.5-1.3-1.7-.3-3.8-.5-6-.5-2.3 0-4.5.2-6.1.5-1.3.2-3.1.8-3.4 1.3v-.3c.1-.4 1.5-.9 3.3-1.3 1.7-.1 3.9-.4 6.2-.4M14.5 13.1c3.5 0 6.5.5 7.9 1.2l.5.9c-1.2-.7-4.5-1.3-8.4-1.2-3.2 0-6.6.4-8.4 1.3l.6-1c1.4-.8 4.8-1.2 7.8-1.2"/><path fill="#FF0" fill-rule="evenodd" stroke="#000" stroke-linecap="round" stroke-linejoin="round" stroke-width=".054" d="M14.5 13.9c2 0 3.9.1 5.4.4 1.4.3 2.8.7 3 .9l.2.3c-.5-.3-1.6-.7-3.2-.9-1.5-.3-3.4-.4-5.4-.4-2.2 0-4 .1-5.5.4-1.6.3-2.7.7-3 .9l.1-.3c.5-.3 1.4-.6 2.8-.8 1.6-.4 3.4-.5 5.6-.5m0-.8c1.9 0 3.8.1 5.3.4 1.2.2 2.3.6 2.7.9l.2.4c-.4-.4-1.8-.8-3-1-1.5-.3-3.3-.4-5.2-.4-2 0-3.8.1-5.3.4-1.4.3-2.3.6-2.6.8l.2-.3c.5-.3 1.3-.5 2.4-.7 1.4-.4 3.3-.5 5.3-.5M19.2 23.4c-1.7-.3-3.5-.4-4.7-.4-5.8.1-7.7 1.2-7.9 1.5l-.4-.7c1.5-1.1 4.7-1.7 8.4-1.6 1.9 0 3.6.2 5 .4z"/><path fill="#FF0" fill-rule="evenodd" stroke="#000" stroke-linecap="round" stroke-linejoin="round" stroke-width=".052" d="M14.5 22.9c1.6 0 3.2.1 4.7.4l-.1.2c-1.4-.3-2.9-.4-4.6-.4-2.1 0-4.3.2-6.2.7-.6.2-1.6.5-1.7.9l-.1-.2c0-.2.6-.6 1.7-.9 2.2-.5 4.2-.6 6.3-.7m0-.8c1.7 0 3.4.1 5.1.4l-.1.2c-1.5-.3-3-.4-5-.4-2.2 0-4.4.2-6.5.8-.7.2-1.8.6-1.9 1l-.1-.2c0-.3 1-.7 1.9-1 2.2-.6 4.5-.8 6.6-.8"/><path fill="#FF0" fill-rule="evenodd" stroke="#000" stroke-linecap="round" stroke-linejoin="round" stroke-width=".054" d="m22.8 24-.7 1.1-2-1.8-5.2-3.5L9 16.5l-3.1-1 .7-1.2.2-.1 1.9.5 6.3 3.2 3.6 2.3 3 2.2 1.2 1.4z"/><path fill="#FF0" fill-rule="evenodd" stroke="#000" stroke-linecap="round" stroke-linejoin="round" stroke-width=".054" d="M5.9 15.5c.5-.4 4.5 1.4 8.6 3.9s8 5.3 7.7 5.8l-.2.2h-.1s.1-.1 0-.3c-.2-.6-3-2.8-7.6-5.6-4.5-2.7-8.2-4.3-8.6-3.8zM23 24c.3-.7-3.3-3.4-7.8-6.1-4.6-2.6-8-4.2-8.6-3.7l-.1.2q0 0 0 0c.1-.1.3-.1.4-.1 1 0 4 1.4 8.2 3.8 1.8 1.1 7.8 4.9 7.8 6v.2z"/><path fill="#FFF" stroke="#000" stroke-width=".064" d="M8.9 20.5c0 1.5.6 2.9 1.7 4 1 1 2.4 1.7 4 1.7s3-.6 4-1.6 1.7-2.4 1.7-4V13H8.9v7.5z"/><path fill="red" stroke="#000" stroke-width=".048" d="M9.1 20.5c0 1.5.6 2.8 1.6 3.8s2.3 1.6 3.8 1.6 2.8-.6 3.8-1.6 1.6-2.3 1.6-3.8v-7.3H9.1v7.3m8.6-5.1v5.5c-.1.7-.4 1.4-.9 1.9-.6.6-1.4.9-2.3.9s-1.7-.4-2.3-1-1-1.4-1-2.3v-5.1l6.5.1z"/><path fill="#FF0" d="M9.8 15.2c0-.5.4-.6.4-.6s.4.1.4.7z"/><path fill="#FF0" stroke="#000" stroke-width=".047" d="m9.5 14.5-.1.6h.4c0-.5.4-.6.4-.6s.4.1.4.6h.4l-.1-.6H9.5zM9.4 15.1H11s.1 0 .1.1c0 0 0 .1-.1.1H9.4c-.1 0-.1-.1 0-.2-.1.1-.1 0 0 0z"/><path fill="#FF0" stroke="#000" stroke-width=".047" d="M10 15.1c0-.3.2-.4.2-.4s.2.1.2.4H10M9.4 14.3H11s.1 0 .1.1c0 0 0 .1-.1.1H9.4v-.2z"/><path fill="#FF0" stroke="#000" stroke-width=".047" d="M9.4 14.4h1.5s.1 0 .1.1c0 0 0 .1-.1.1H9.4v-.2zM9.9 13.4h.1v.1h.1v-.1h.1v.1h.1v-.1h.1v.2h-.5v-.2zM10.4 13.7v.6H10v-.6h.4M9.9 13.9v.3h-.4v-.3h.4zM10.9 13.9v.3h-.4v-.3h.4zM9.4 13.7h.1v.1h.1v-.1h.1v.1h.1v-.1h.1v.2h-.5v-.2z"/><path fill="#FF0" stroke="#000" stroke-width=".047" d="M10.4 13.7h.1v.1h.1v-.1h.1v.1h.1v-.1h.1v.2h-.6l.1-.2z"/><path d="M10.1 13.9c0-.1.1-.1 0 0l.1.1h-.1zM9.6 14.1c0-.1.1-.1 0 0l.1.1h-.1zM10.6 14.1c0-.1.1-.1 0 0l.1.1h-.1z"/><path fill="#FF0" d="M9.8 19.6c0-.5.4-.6.4-.6s.4.1.4.7z"/><path fill="#FF0" stroke="#000" stroke-width=".047" d="m9.5 18.9-.1.6h.4c0-.5.4-.6.4-.6s.4.1.4.6h.4l-.1-.6H9.5zM9.4 19.5H11s.1 0 .1.1c0 0 0 .1-.1.1H9.4c-.1 0-.1-.1 0-.2-.1.1-.1 0 0 0z"/><path fill="#FF0" stroke="#000" stroke-width=".047" d="M10 19.5c0-.3.2-.4.2-.4s.2.1.2.4H10M9.4 18.7H11s.1 0 .1.1c0 0 0 .1-.1.1H9.4v-.2z"/><path fill="#FF0" stroke="#000" stroke-width=".047" d="M9.4 18.8h1.5s.1 0 .1.1c0 0 0 .1-.1.1H9.4v-.2zM9.9 17.8h.1v.1h.1v-.1h.1v.1h.1v-.1h.1v.2h-.5v-.2zM10.4 18.1v.6H10v-.6h.4M9.9 18.3v.3h-.4v-.3h.4zM10.9 18.3v.3h-.4v-.3h.4zM9.4 18.1h.1v.1h.1v-.1h.1v.1h.1v-.1h.1v.2h-.5v-.2z"/><path fill="#FF0" stroke="#000" stroke-width=".047" d="M10.4 18.1h.1v.1h.1v-.1h.1v.1h.1v-.1h.1v.2h-.6l.1-.2z"/><path d="M10.1 18.2s.1 0 0 0l.1.1h-.1zM9.6 18.5c0-.1.1-.1 0 0l.1.1h-.1zM10.6 18.5c0-.1.1-.1 0 0l.1.1h-.1z"/><path fill="#FF0" d="M11.5 24.1c-.4-.4-.2-.7-.2-.7s.4-.2.7.2z"/><path fill="#FF0" stroke="#000" stroke-width=".047" d="m10.8 23.9.4.5.3-.3c-.4-.4-.1-.7-.1-.7s.3-.2.7.1l.3-.3-.5-.4-1.1 1.1z"/><path fill="#FF0" stroke="#000" stroke-width=".047" d="m11.2 24.4 1.1-1.1h.1v.1l-1.1 1.1s-.1 0-.1-.1c0 .1 0 0 0 0z"/><path fill="#FF0" stroke="#000" stroke-width=".047" d="M11.6 24c-.2-.2-.1-.4-.1-.4s.2-.1.4.1l-.3.3M10.6 23.8l1.1-1.1h.1v.1l-1.2 1c.1.1 0 .1 0 0z"/><path fill="#FF0" stroke="#000" stroke-width=".047" d="m10.7 23.8 1-1h.1v.1l-1.1.9q.15.3 0 0 0 .15 0 0zM10.3 22.8h.1l.1-.1-.1-.1.1-.1.1.1.1-.1-.1-.1.1-.1.1.1v.1l-.3.3h-.2zM10.8 22.7l.5.4-.3.3-.4-.5.2-.2M10.7 23.2l.2.2-.3.3-.2-.2.3-.3zM11.4 22.5l.2.2-.2.3-.2-.2.2-.3z"/><path fill="#FF0" stroke="#000" stroke-width=".047" d="M10.2 23.4h.1l.1-.1-.1-.1.1-.1.1.1.1-.1-.1-.1.1-.1.1.1v.1l-.3.3h-.2zM10.9 22.6h.1l.1-.1-.1-.1.1-.1.1.1.1-.1-.1-.1.1-.1.1.1v.1l-.3.3h-.2z"/><path d="M10.8 23q0-.15 0 0h.2l-.1.1zM10.6 23.5q0-.15 0 0h.1zM11.3 22.7s0-.1 0 0h.1z"/><path fill="#FF0" d="M14.1 15.2c0-.5.4-.6.4-.6s.4.1.4.7z"/><path fill="#FF0" stroke="#000" stroke-width=".047" d="m13.8 14.5-.1.6h.4c0-.5.4-.6.4-.6s.4.1.4.6h.4l-.1-.6h-1.4zM13.7 15.1h1.6s.1 0 .1.1c0 0 0 .1-.1.1h-1.6s-.1-.1 0-.2c-.1.1 0 0 0 0z"/><path fill="#FF0" stroke="#000" stroke-width=".047" d="M14.3 15.1c0-.3.2-.4.2-.4s.2.1.2.4h-.4M13.7 14.3h1.5s.1 0 .1.1c0 0 0 .1-.1.1h-1.5v-.2z"/><path fill="#FF0" stroke="#000" stroke-width=".047" d="M13.8 14.4h1.5s.1 0 .1.1c0 0 0 .1-.1.1h-1.5c-.1-.1-.1-.1 0-.2q-.15 0 0 0zM14.3 13.4h.1v.1h.1v-.1h.1v.1h.1v-.1h.1v.2h-.6l.1-.2zM14.7 13.7v.6h-.4v-.6h.4M14.2 13.9v.3h-.4v-.3h.4zM15.2 13.9v.3h-.4v-.3h.4zM13.8 13.7h.1v.1h.1v-.1h.1v.1h.1v-.1h.1v.2h-.6l.1-.2zM14.8 13.7h.1v.1h.1v-.1h.1v.1h.1v-.1h.1v.2h-.6l.1-.2z"/><path d="M14.5 13.9c0-.1.1-.1 0 0l.1.1h-.1zM14 14.1q0-.15 0 0l.1.1H14zM15 14.1c0-.1.1-.1 0 0l.1.1H15z"/><path fill="#FF0" d="M19.2 15.2c0-.5-.4-.6-.4-.6s-.4.1-.4.7z"/><path fill="#FF0" stroke="#000" stroke-width=".047" d="m19.5 14.5.1.6h-.4c0-.5-.4-.6-.4-.6s-.4.1-.4.6H18l.1-.6h1.4zM19.6 15.1H18s-.1 0-.1.1c0 0 0 .1.1.1h1.6c.1 0 .1-.1 0-.2.1.1.1 0 0 0z"/><path fill="#FF0" stroke="#000" stroke-width=".047" d="M19 15.1c0-.3-.2-.4-.2-.4s-.2.1-.2.4h.4M19.6 14.3H18s-.1 0-.1.1c0 0 0 .1.1.1h1.5c.1-.1.1-.1.1-.2z"/><path fill="#FF0" stroke="#000" stroke-width=".047" d="M19.6 14.4h-1.5s-.1 0-.1.1c0 0 0 .1.1.1h1.5v-.2zM19.1 13.4H19v.1h-.1v-.1h-.1v.1h-.1v-.1h-.1v.2h.5v-.2zM18.6 13.7v.6h.4v-.6h-.4M19.1 13.9v.3h.4v-.3h-.4zM18.1 13.9v.3h.4v-.3h-.4zM19.6 13.7h-.1v.1h-.1v-.1h-.1v.1h-.1v-.1h-.1v.2h.6l-.1-.2z"/><path fill="#FF0" stroke="#000" stroke-width=".047" d="M18.6 13.7h-.1v.1h-.1v-.1h-.1v.1h-.1v-.1h-.1v.2h.6l-.1-.2z"/><path d="M18.9 13.9c0-.1-.1-.1 0 0l-.1.1h.1zM19.4 14.1c0-.1-.1-.1 0 0l-.1.1h.1zM18.4 14.1c0-.1-.1-.1 0 0l-.1.1h.1z"/><path fill="#FF0" d="M19.2 19.6c0-.5-.4-.6-.4-.6s-.4.1-.4.7z"/><path fill="#FF0" stroke="#000" stroke-width=".047" d="m19.5 18.9.1.6h-.4c0-.5-.4-.6-.4-.6s-.4.1-.4.6H18l.1-.6h1.4zM19.6 19.5H18s-.1 0-.1.1c0 0 0 .1.1.1h1.6c.1 0 .1-.1 0-.2.1.1.1 0 0 0z"/><path fill="#FF0" stroke="#000" stroke-width=".047" d="M19 19.5c0-.3-.2-.4-.2-.4s-.2.1-.2.4h.4M19.6 18.7H18s-.1 0-.1.1c0 0 0 .1.1.1h1.5c.1-.1.1-.1.1-.2z"/><path fill="#FF0" stroke="#000" stroke-width=".047" d="M19.6 18.8h-1.5s-.1 0-.1.1c0 0 0 .1.1.1h1.5v-.2zM19.1 17.8H19v.1h-.1v-.1h-.1v.1h-.1v-.1h-.1v.2h.5v-.2zM18.6 18.1v.6h.4v-.6h-.4M19.1 18.3v.3h.4v-.3h-.4zM19.6 18.1h-.1v.1h-.1v-.1h-.1v.1h-.1v-.1h-.1v.2h.6l-.1-.2z"/><path d="M18.9 18.2s-.1 0 0 0l-.1.1h.1zM19.4 18.5c0-.1-.1-.1 0 0l-.1.1h.1z"/><path fill="#FF0" d="M17.5 24.1c.4-.4.2-.7.2-.7s-.4-.2-.7.2z"/><path fill="#FF0" stroke="#000" stroke-width=".047" d="m18.2 23.9-.4.5-.3-.3c.4-.4.1-.7.1-.7s-.3-.2-.7.1l-.3-.3.5-.4 1.1 1.1z"/><path fill="#FF0" stroke="#000" stroke-width=".047" d="m17.8 24.4-1.1-1.1h-.1v.1l1.1 1.1s.1 0 .1-.1c0 .1 0 0 0 0z"/><path fill="#FF0" stroke="#000" stroke-width=".047" d="M17.4 24c.2-.2.1-.4.1-.4s-.2-.1-.4.1l.3.3M18.4 23.8l-1.1-1.1h-.1v.1l1.2 1c-.1.1 0 .1 0 0z"/><path fill="#FF0" stroke="#000" stroke-width=".047" d="m18.3 23.8-1-1h-.1v.1l1.1.9q-.15.3 0 0 0 .15 0 0zM18.7 22.8h-.1l-.1-.1.1-.1-.1-.1-.1.1-.1-.1.1-.1-.1-.1-.1.1v.1l.3.3h.2zM18.2 22.7l-.5.4.3.3.4-.5-.2-.2M18.3 23.2l-.2.2.3.3.2-.2-.3-.3z"/><path fill="#FF0" stroke="#000" stroke-width=".047" d="M18.8 23.4h-.1l-.1-.1.1-.1-.1-.1-.1.1-.1-.1.1-.1h-.1l-.1.1v.1l.3.3h.1l.1-.1z"/><path d="M18.2 23q0-.15 0 0H18l.1.1zM18.4 23.5q0-.15 0 0h-.1z"/><path fill="#039" d="M13.8 19.7c0 .2.1.4.2.5s.3.2.5.2.4-.1.5-.2.2-.3.2-.5v-1h-1.4zM13.8 17.2c0 .2.1.4.2.5s.3.2.5.2.4-.1.5-.2.2-.3.2-.5v-1h-1.4zM11.8 19.7c0 .2.1.4.2.5s.3.2.5.2.4-.1.5-.2.2-.3.2-.5v-1h-1.4zM15.8 19.7c0 .2.1.4.2.5s.3.2.5.2.4-.1.5-.2.2-.3.2-.5v-1h-1.4zM13.8 22.2c0 .2.1.4.2.5s.3.2.5.2.4-.1.5-.2.2-.3.2-.5v-1h-1.4z"/><path fill="#FF0" stroke="#000" stroke-width=".047" d="M18.1 18.3v.3h.4v-.3h-.4zM18.6 18.1h-.1v.1h-.1v-.1h-.1v.1h-.1v-.1h-.1v.2h.6l-.1-.2z"/><path d="M18.4 18.5c0-.1-.1-.1 0 0l-.1.1h.1z"/><path fill="#FF0" stroke="#000" stroke-width=".047" d="m17.6 22.5-.2.2.3.3.2-.2-.3-.3zM18.1 22.6H18l-.1-.1.1-.1-.1-.1-.1.1-.1-.1.1-.1-.1-.1-.1.1v.1l.3.3h.2z"/><path d="M17.7 22.7s0-.1 0 0h-.1z"/><circle cx="14.1" cy="19.1" r=".1" fill="#FFF"/><circle cx="14.9" cy="19.1" r=".1" fill="#FFF"/><circle cx="14.5" cy="19.5" r=".1" fill="#FFF"/><circle cx="14.1" cy="19.9" r=".1" fill="#FFF"/><circle cx="14.9" cy="19.9" r=".1" fill="#FFF"/><circle cx="14.1" cy="16.6" r=".1" fill="#FFF"/><circle cx="14.9" cy="16.6" r=".1" fill="#FFF"/><circle cx="14.5" cy="17" r=".1" fill="#FFF"/><circle cx="14.1" cy="17.4" r=".1" fill="#FFF"/><circle cx="14.9" cy="17.4" r=".1" fill="#FFF"/><circle cx="12.2" cy="19.1" r=".1" fill="#FFF"/><circle cx="13" cy="19.1" r=".1" fill="#FFF"/><circle cx="12.6" cy="19.5" r=".1" fill="#FFF"/><circle cx="12.2" cy="19.9" r=".1" fill="#FFF"/><circle cx="13" cy="19.9" r=".1" fill="#FFF"/><circle cx="16.1" cy="19.1" r=".1" fill="#FFF"/><circle cx="16.9" cy="19.1" r=".1" fill="#FFF"/><circle cx="16.5" cy="19.5" r=".1" fill="#FFF"/><circle cx="16.1" cy="19.9" r=".1" fill="#FFF"/><circle cx="16.9" cy="19.9" r=".1" fill="#FFF"/><circle cx="14.1" cy="21.5" r=".1" fill="#FFF"/><circle cx="14.9" cy="21.5" r=".1" fill="#FFF"/><circle cx="14.5" cy="21.9" r=".1" fill="#FFF"/><circle cx="14.1" cy="22.3" r=".1" fill="#FFF"/><circle cx="14.9" cy="22.3" r=".1" fill="#FFF"/></svg>