<svg xmlns="http://www.w3.org/2000/svg" width="40" height="40" fill="none" viewBox="0 0 40 40"><g fill-rule="evenodd" clip-path="url(#a)" clip-rule="evenodd"><path fill="#EA3323" d="M1 32.5h38v-25H1z"/><path fill="#005CE5" d="M1 24.167h38V7.5H1z"/><path fill="#FFFFFE" d="M1 15.833h38V7.5H1z"/></g><path stroke="#D5D5D4" stroke-width=".5" d="M1.25 7.75h37.5v24.5H1.25z"/><path fill="#005CE5" fill-rule="evenodd" d="M10.67 11q-.096 0-.19.003c-1.235.032-2.393.35-3.218.74q-.135.057-.262.114l.283 4.44c.197 2.321 1.71 3.672 3.39 4.203 1.68-.53 3.191-1.882 3.388-4.202l.282-4.427a6 6 0 0 0-.263-.127v-.002c-.867-.408-2.102-.74-3.406-.742h-.004" clip-rule="evenodd"/><path fill="#fff" fill-rule="evenodd" d="m10.671 14.074-.829 1.62-.536-.698-1.4 1.852q.037.172.087.334c.156.264.457.566.842.566.306 0 .612-.245.918-.245s.612.245.918.245.612-.245.918-.245.612.245.918.245c.383 0 .681-.296.839-.558a5 5 0 0 0 .09-.344l-1.4-1.85-.535.697zm-.918 3.674c-.306 0-.612.245-.918.245-.242 0-.45-.086-.611-.208q.085.182.183.35c.126.078.27.131.428.131.306 0 .612-.245.918-.245s.612.245.918.245.612-.245.918-.245.612.245.918.245a.8.8 0 0 0 .423-.128q.098-.167.183-.349c-.16.12-.366.204-.606.204-.306 0-.612-.245-.918-.245s-.612.245-.918.245-.612-.245-.918-.245m0 .518c-.306 0-.612.245-.918.245q-.1-.001-.19-.02c.529.708 1.251 1.181 2.026 1.454.773-.272 1.494-.746 2.023-1.452q-.09.017-.187.018c-.306 0-.612-.245-.918-.245s-.612.245-.918.245-.612-.245-.918-.245" clip-rule="evenodd"/><path fill="#FFE500" fill-rule="evenodd" d="M9.53 11.577h.601l-.3.52" clip-rule="evenodd"/><path fill="#FFE500" fill-rule="evenodd" d="M9.53 11.924h.601l-.3-.52M11.211 11.577h.6l-.3.52" clip-rule="evenodd"/><path fill="#FFE500" fill-rule="evenodd" d="M11.211 11.924h.6l-.3-.52M10.372 12.869h.6l-.3.52" clip-rule="evenodd"/><path fill="#FFE500" fill-rule="evenodd" d="M10.372 13.217h.6l-.3-.52" clip-rule="evenodd"/><path fill="red" fill-rule="evenodd" d="M7.263 11.744q-.136.056-.263.113l.283 4.44c.197 2.321 1.709 3.672 3.39 4.203 1.68-.53 3.191-1.882 3.388-4.202l.282-4.427a6 6 0 0 0-.263-.127l-.263 4.407c-.182 2.256-1.586 3.57-3.146 4.085-1.56-.515-2.963-1.83-3.145-4.085z" clip-rule="evenodd"/><defs><clipPath><path fill="#fff" d="M1 7.5h38v25H1z"/></clipPath></defs></svg>