<svg xmlns="http://www.w3.org/2000/svg" width="40" height="40" fill="none" viewBox="0 0 40 40"><g fill-rule="evenodd" clip-path="url(#a)" clip-rule="evenodd"><path fill="#EA3323" d="M1 39h38V1H1z"/><path fill="#005CE5" d="M1 27h38V1H1z"/><path fill="#FFFFFE" d="M1 13h38V1H1z"/></g><path stroke="#D5D5D4" stroke-width=".5" d="M1.25 1.25h37.5v37.5H1.25z"/><path fill="#005CE5" fill-rule="evenodd" d="M13.498 6q-.143 0-.286.005c-1.848.048-3.583.525-4.819 1.107v.002q-.203.084-.393.17l.425 6.652c.294 3.477 2.56 5.5 5.076 6.296 2.517-.795 4.782-2.82 5.077-6.296L19 7.305a10 10 0 0 0-.393-.191v-.002C17.308 6.5 15.458 6.003 13.504 6h-.006" clip-rule="evenodd"/><path fill="#fff" fill-rule="evenodd" d="m13.5 10.604-1.242 2.426-.803-1.043-2.1 2.773q.058.258.132.5c.234.396.685.848 1.262.848.459 0 .917-.367 1.376-.367s.917.367 1.375.367.917-.367 1.375-.367c.459 0 .917.367 1.375.367.573 0 1.02-.443 1.257-.836a7 7 0 0 0 .134-.515l-2.095-2.77-.804 1.043zm-1.375 5.504c-.459 0-.917.367-1.376.367a1.5 1.5 0 0 1-.915-.31q.127.271.274.523c.189.117.404.197.641.197.459 0 .917-.367 1.376-.367s.917.367 1.375.367.917-.367 1.375-.367c.459 0 .917.367 1.375.367.235 0 .447-.078.634-.193q.148-.25.274-.521a1.5 1.5 0 0 1-.908.304c-.458 0-.916-.367-1.375-.367s-.917.367-1.375.367-.917-.367-1.375-.367m0 .777c-.459 0-.917.367-1.376.367q-.149-.001-.286-.03c.794 1.06 1.876 1.77 3.036 2.177 1.158-.407 2.239-1.117 3.031-2.175q-.134.027-.28.028c-.458 0-.916-.367-1.375-.367s-.917.367-1.375.367-.917-.367-1.375-.367" clip-rule="evenodd"/><path fill="#FFE500" fill-rule="evenodd" d="M11.792 6.865h.899l-.45.779" clip-rule="evenodd"/><path fill="#FFE500" fill-rule="evenodd" d="M11.792 7.384h.899l-.45-.778M14.308 6.865h.9l-.45.779" clip-rule="evenodd"/><path fill="#FFE500" fill-rule="evenodd" d="M14.308 7.384h.9l-.45-.778M13.051 8.8h.9l-.45.779" clip-rule="evenodd"/><path fill="#FFE500" fill-rule="evenodd" d="M13.051 9.32h.9l-.45-.779" clip-rule="evenodd"/><path fill="red" fill-rule="evenodd" d="M8.393 7.114q-.203.084-.393.17l.425 6.652c.294 3.477 2.56 5.5 5.076 6.296 2.517-.795 4.782-2.82 5.077-6.296L19 7.305a10 10 0 0 0-.393-.191l-.395 6.602c-.273 3.38-2.375 5.348-4.712 6.12-2.337-.772-4.44-2.74-4.713-6.12z" clip-rule="evenodd"/><defs><clipPath><path fill="#fff" d="M1 1h38v38H1z"/></clipPath></defs></svg>