<svg xmlns="http://www.w3.org/2000/svg" width="40" height="40" version="1.1" viewBox="0 0 40 40"><defs><path d="M7.6 19C4.473 17.495 0 14.507 0 8.597S.283 0 .283 0h14.634s.283 2.688.283 8.597c0 5.91-4.473 8.898-7.6 10.403"/></defs><g transform="translate(-.042)"><path d="M0 0h40v40H0z" fill="none"/><path d="M39 1H1v38h38V20z" fill="#fff" stroke="#d3d3d3" stroke-width=".5px" stroke-miterlimit="10"/></g><g transform="translate(-.042)"><path d="M1 26.65h38V39H1z" fill="#d8262d"/><path d="M1 13.35h38v13.3H1z" fill="#1c4689"/><path d="M1 1h38v12.35H1z" fill="#fffffe"/></g><path d="M22.678 11H8.238s-.28 2.69-.28 8.6c0 2.2.61 3.99 1.54 5.45.41-.72 1.04-1.5 1.91-1.5 1.28 0 1.75 1.04 1.75 1.04s.63-1.62 1.8-2.07v-3.13c-.95-.01-2.61 0-3.96.45 0 0 .04-.53.04-1.14s-.04-1.14-.04-1.14c1.47.49 3.11.46 3.96.45v-2.05c-.77 0-1.88.03-3.13.45 0 0 .04-.53.04-1.14s-.04-1.14-.04-1.14c1.25.42 2.36.46 3.13.45-.04-1.3-.42-2.94-.42-2.94s.78.06 1.09.06 1.09-.06 1.09-.06-.38 1.64-.42 2.94c.77 0 1.88-.03 3.13-.45 0 0-.04.53-.04 1.14s.04 1.14.04 1.14c-1.25-.42-2.36-.46-3.13-.45v2.05c.84.01 2.49.05 3.96-.45 0 0-.04.53-.04 1.14s.04 1.14.04 1.14c-1.34-.45-3.01-.46-3.96-.45v3.2c1.09.51 1.68 2 1.68 2s.47-1.04 1.75-1.04c.8 0 1.4.66 1.81 1.33.87-1.43 1.44-3.17 1.44-5.28 0-5.91-.28-8.6-.28-8.6z" fill="#d8262d"/><path d="M16.288 22.58v-3.2c.95-.01 2.61 0 3.96.45 0 0-.04-.53-.04-1.14s.04-1.14.04-1.14c-1.47.49-3.11.46-3.96.45v-2.05c.77 0 1.88.03 3.13.45 0 0-.04-.53-.04-1.14s.04-1.14.04-1.14c-1.25.42-2.36.46-3.13.45.04-1.3.42-2.94.42-2.94s-.78.06-1.09.06-1.09-.06-1.09-.06.38 1.64.42 2.94c-.77 0-1.88-.03-3.13-.45 0 0 .04.53.04 1.14s-.04 1.14-.04 1.14c1.25-.42 2.36-.46 3.13-.45V18c-.84.01-2.49.05-3.96-.45 0 0 .04.53.04 1.14s-.04 1.14-.04 1.14c1.35-.45 3.01-.46 3.96-.45v3.13c.19-.07.39-.12.6-.12.27 0 .51.08.73.18z" fill="#fffffe"/><path d="M23.638 10H7.278s-.32 2.97-.32 9.5c0 2.68.85 4.81 2.09 6.52.26.36.53.7.82 1.02.66.73 1.39 1.37 2.14 1.92 1.17.86 2.38 1.53 3.45 2.04 2.11-1 4.76-2.61 6.54-5.16 1.17-1.67 1.96-3.75 1.96-6.34 0-6.53-.32-9.5-.32-9.5m-2.12 14.88c-1.56 2.57-4.08 4.16-6.06 5.12-1.94-.95-4.4-2.48-5.96-4.95-.93-1.46-1.54-3.26-1.54-5.45 0-5.91.28-8.6.28-8.6h14.44s.28 2.69.28 8.6c0 2.11-.57 3.85-1.44 5.28" fill="#fffffe"/><path d="M19.708 23.55c-1.28 0-1.75 1.04-1.75 1.04s-.59-1.49-1.68-2c-.22-.11-.46-.18-.73-.18-.22 0-.41.05-.6.12-1.18.45-1.8 2.07-1.8 2.07s-.47-1.04-1.75-1.04c-.87 0-1.5.78-1.91 1.5 1.56 2.47 4.02 4 5.96 4.95 1.98-.97 4.51-2.55 6.06-5.12-.41-.67-1.01-1.33-1.81-1.33z" fill="#1c4689"/></svg>