<svg xmlns="http://www.w3.org/2000/svg" xml:space="preserve" width="40" height="40" baseProfile="tiny" overflow="visible" version="1.2" viewBox="0 0 40 40"><path fill="#C60B1E" d="M1 1h38v10H1zM1 29h38v10H1z"/><path fill="#FFC400" d="M1 11h38v18H1z"/><path fill="#AD1519" stroke="#000" stroke-linejoin="round" stroke-width=".019" d="M7.9 16.9c-.1 0-.1-.1-.1-.1h-.1v-.1s-.1-.1 0-.2c0-.1.1-.1.1-.1h1.1s.1 0 .2.1h.2l.1.1v.4h-.2s-.4-.1-.6-.1h-.7z"/><path fill="#C8B100" stroke="#000" stroke-width=".022" d="M8.6 16.2h-.2.1v-.1l.1.1"/><path fill="none" stroke="#000" stroke-width=".019" d="M8.5 16.2v.1c-.1 0-.1 0 0-.1q-.15 0 0 0"/><path fill="#C8B100" stroke="#000" stroke-width=".019" d="M8.5 16.9h-.4v-.3l-.2-.2v-.1c.1-.1.3.1.4.3v.1h.3v-.1c.1-.2.3-.3.4-.3v.1l-.2.2v.3h-.3z"/><path fill="none" stroke="#000" stroke-width=".019" d="M7.9 16.4c.1 0 .2.1.4.3m.8-.3c-.1 0-.2.1-.4.3"/><path fill="#C8B100" stroke="#000" stroke-width=".019" d="M7.9 17.1s0-.1 0 0c.1-.1.3-.2.6-.2.2 0 .4 0 .6.1v.2c-.1 0-.3-.1-.5-.1h-.7c.1 0 0 0 0 0"/><path fill="#C8B100" stroke="#000" stroke-width=".019" d="M8.5 17.3H9s.1 0 .1-.1c-.1 0-.3-.1-.5-.1s-.4 0-.5.1l.1.1zM9 16.9h-.1c-.1 0-.1-.1-.1-.1h-.30000000000000004l-.1-.1s0 .1-.1.1h-.1l-.1.1H8s0 .1-.1.1h-.1c.1 0 .3-.1.6-.1H9z"/><path fill="#C8B100" stroke="#000" stroke-width=".019" d="M8.5 16.7q0 .15 0 0c0 .1.1.1.1.1s.1 0 .1-.1c0 0 0 .1.1.1 0 0 .1 0 .1-.1 0 0 0 .1.1.1h.1v.1h.1l.1-.1s0 .1-.1.1H9s-.1 0-.1-.1h-.3s-.1 0-.1-.1l-.1.1h-.3l-.1.1h-.3l-.1-.1.1.1c.1.1.1 0 .1 0v-.1h.1s.1 0 .1-.1c0 0 0 .1.1.1 0 0 .1 0 .1-.1 0 0 0 .1.1.1.1.1.1 0 .2-.1q-.15.15 0 0z"/><path fill="#C8B100" stroke="#000" stroke-linejoin="round" stroke-width=".019" d="M8.5 16.9c-.2 0-.4 0-.6.1.1-.1.3-.1.6-.1h.6c-.2.1-.4 0-.6 0z"/><path fill="#C8B100" stroke="#000" stroke-width=".019" d="M7.7 16.9s0-.1 0 0q-.15-.15 0 0-.15-.15 0 0 0-.15 0 0 0-.15 0 0 0-.15 0 0 0-.15 0 0zM7.8 16.8l-.1.1.1-.1M7.7 16.8q.15.15 0 0 0 .15 0 0c0 .1 0 0 0 0zM7.9 16.8s0 .1 0 0q0 .15 0 0zM7.9 16.8H8h-.1M8.1 16.6v.1-.1M8.2 16.7h-.1.1M8.3 16.8s0-.1 0 0c0-.1 0 0 0 0zM8.3 16.7h.1-.1M8.5 16.6v.1-.1M8.6 16.7h-.1.1M8.7 16.8s0-.1 0 0c-.1-.1-.1 0 0 0q-.15 0 0 0zM8.7 16.7h.1-.1M8.9 16.6v.1-.1M9 16.8h-.1.1M9 16.8s0 .1 0 0q0 .15 0 0zM9.2 16.9s0-.1 0 0q.15-.15 0 0 .15-.15 0 0c.1-.1 0-.1 0 0q0-.15 0 0 0-.15 0 0 0-.15 0 0zM9.1 16.8l.1.1-.1-.1M9.2 16.8q0 .15 0 0 0 .15 0 0c0 .1 0 0 0 0z"/><path fill="#AD1519" stroke="#000" stroke-width=".019" d="M7.9 17.1"/><path fill="#058E6E" stroke="#000" stroke-width=".019" d="M8.1 17.1q-.15 0 0 0-.15-.15 0 0 .15-.15 0 0c.1-.1.1 0 0 0"/><path fill="#AD1519" stroke="#000" stroke-width=".019" d="M8.5 17q-.15 0 0 0-.15 0 0 0"/><path fill="#058E6E" stroke="#000" stroke-width=".019" d="M8.8 17.1q.15 0 0 0 .15-.15 0 0 0-.15 0 0c-.1-.1 0 0 0 0"/><path fill="#AD1519" stroke="#000" stroke-width=".019" d="M9 17.1"/><path fill="#AD1519" stroke="#000" stroke-linejoin="round" stroke-width=".019" d="M8.5 17.2H8c.1 0 .3-.1.5-.1s.3 0 .5.1z"/><path fill="none" stroke="#000" stroke-width=".001" d="M8.4 17.2"/><path fill="none" stroke="#000" stroke-width=".002" d="M8.4 17.2"/><path fill="none" stroke="#000" stroke-width=".003" d="M8.4 17.2"/><path fill="none" stroke="#000" stroke-width=".004" d="M8.3 17.2"/><path fill="none" stroke="#000" stroke-width=".005" d="M8.3 17.2"/><path fill="none" stroke="#000" stroke-width=".006" d="M8.3 17.2"/><path fill="none" stroke="#000" stroke-width=".007" d="M8.2 17.2"/><path fill="none" stroke="#000" stroke-width=".008" d="M8.2 17.2"/><path fill="none" stroke="#000" stroke-width=".009" d="M8.1 17.2"/><path fill="none" stroke="#000" stroke-width=".01" d="M8.1 17.2"/><path fill="none" stroke="#000" stroke-width=".011" d="M8.1 17.2"/><path fill="none" stroke="#000" stroke-width=".013" d="M8 17.2"/><path fill="#005BBF" stroke="#000" stroke-width=".029" d="M9.6 25c-.1 0-.2 0-.3-.1-.1 0-.2-.1-.3-.1s-.2 0-.3.1c0 .1-.1.1-.2.1s-.2 0-.3-.1c-.1 0-.2-.1-.3-.1s-.2 0-.3.1-.2.1-.3.1v.2c.1 0 .2 0 .3-.1.1 0 .2-.1.3-.1s.2 0 .3.1c.1 0 .2.1.3.1s.2 0 .3-.1c0 0 .1-.1.2-.1s.2 0 .3.1c.1 0 .2.1.3.1V25z"/><path fill="#CCC" stroke="#000" stroke-width=".029" d="M9.6 25.2c-.1 0-.2 0-.3-.1 0 0-.1-.1-.3-.1-.1 0-.2 0-.3.1-.1 0-.2.1-.3.1s-.2 0-.3-.1c0 0-.1-.1-.2-.1s-.2 0-.3.1c-.1 0-.2.1-.3.1v.2c.1 0 .2 0 .3-.1.1 0 .2-.1.3-.1s.2 0 .3.1c.1 0 .2.1.3.1s.2 0 .3-.1c.1 0 .2-.1.3-.1s.2 0 .3.1c.1 0 .2.1.3.1l-.1-.2"/><path fill="#005BBF" stroke="#000" stroke-width=".029" d="M9.6 25.3c-.1 0-.2 0-.3-.1-.1 0-.2-.1-.3-.1s-.2 0-.3.1c-.1 0-.2.1-.3.1s-.2 0-.3-.1c-.1 0-.2-.1-.3-.1s-.2 0-.3.1c-.1 0-.2.1-.3.1v.2c.1 0 .2 0 .3-.1.1 0 .2-.1.3-.1s.2 0 .3.1c.1 0 .2.1.3.1s.2 0 .3-.1c.1 0 .2-.1.3-.1s.2 0 .3.1c.1 0 .2.1.3.1v-.2"/><path fill="#CCC" stroke="#000" stroke-width=".029" d="M9.6 25.7c-.1 0-.2 0-.3-.1-.1 0-.2-.1-.3-.1s-.2 0-.3.1c-.1 0-.2.1-.3.1s-.2 0-.3-.1c-.1 0-.2-.1-.3-.1s-.2 0-.3.1c-.1 0-.2.1-.3.1v-.2c.1 0 .2 0 .3-.1.1 0 .2-.1.3-.1s.2 0 .3.1c.1 0 .2.1.3.1s.2 0 .3-.1c.1 0 .2-.1.3-.1s.2 0 .3.1c.1 0 .2.1.3.1v.2"/><path fill="#005BBF" stroke="#000" stroke-width=".029" d="M9.6 25.9c-.1 0-.2 0-.3-.1-.1 0-.2-.1-.3-.1s-.2 0-.3.1c-.1 0-.2.1-.3.1s-.2 0-.3-.1c-.1 0-.2-.1-.3-.1s-.2 0-.3.1c-.1 0-.2.1-.3.1v-.2c.1 0 .2 0 .3-.1.1 0 .2-.1.3-.1s.2 0 .3.1c.1 0 .2.1.3.1s.2 0 .3-.1c.1 0 .2-.1.3-.1s.2 0 .3.1c.1 0 .2.1.3.1v.2z"/><path fill="#C8B100" stroke="#000" stroke-linejoin="round" stroke-width=".029" d="M7.8 24.3c0 .2-.1.2-.2.2h1.7c-.1 0-.2-.1-.2-.2H7.8z"/><path fill="#C8B100" stroke="#000" stroke-width=".029" d="M7.8 24.1H9s.1 0 .1.1c0 0 0 .1-.1.1H7.8v-.2c0 .1 0 0 0 0zM7.6 24.9h1.7v-.4H7.6z"/><path fill="#CCC" stroke="#000" stroke-width=".029" d="M7.9 24.1h1.2v-5.9H7.9z"/><path fill="none" stroke="#000" stroke-width=".029" d="M8.7 18.2v5.9m.2-5.9v5.9"/><path fill="#C8B100" stroke="#000" stroke-width=".029" d="M7.6 17.7h1.7v-.4H7.6v.4z"/><path fill="#C8B100" stroke="#000" stroke-linejoin="round" stroke-width=".029" d="M7.8 18h1.3l-.1-.1s0-.1.1-.1H7.8c.1 0 .1 0 0 .2.1-.1.1 0 0 0z"/><path fill="#C8B100" stroke="#000" stroke-width=".029" d="M7.8 18H9s.1 0 .1.1c0 0 0 .1-.1.1H7.8V18zM7.8 17.7h1.3-1.3q0 .15 0 0z"/><path fill="#AD1519" stroke="#000" stroke-width=".029" d="M7.5 22.6c-.2.1-.3.2-.3.2l.1.1c.1.1.2.2.1.3.1-.1.2-.2.2-.3.1-.1 0-.2-.1-.3z"/><path fill="#AD1519" stroke="#000" stroke-linejoin="round" stroke-width=".029" d="M10.3 20.4c-.3-.1-.7-.2-1.2-.2-.2 0-.4 0-.6.1-.7.1-1.3.4-1.2.6l-.3-.6c0-.3.6-.6 1.4-.7.3 0 .5-.1.7-.1.5 0 1 .1 1.2.2v.7"/><path fill="#AD1519" stroke="#000" stroke-width=".029" d="M7.9 21.1c-.3 0-.6-.1-.6-.3q0-.15.3-.3h.3v.6M9.1 20.7c.2 0 .4.1.4.1 0 .1-.1.2-.5.4l.1-.5"/><path fill="#AD1519" stroke="#000" stroke-linejoin="round" stroke-width=".029" d="M7.1 22.3c0-.1.3-.3.8-.5.2-.1.4-.2.6-.2.6-.3 1.1-.6 1.1-.7l.1.6c.1.1-.4.4-1 .7-.2.1-.6.2-.8.3-.3.1-.7.3-.6.4l-.2-.6z"/><path fill="#AD1519" stroke="#000" stroke-width=".02" d="M19.5 16.8s0 .1 0 0c-.1.1-.2 0-.2 0h-.2s0 .1-.1.1h-.1l-.1-.1v-.1s.1-.1.2-.1h.2s.1-.1.2-.1.2 0 .2.1c0 0 .1-.1.2-.1s.2 0 .2.1h.2c.1 0 .2.1.2.1v.1l-.1.1h-.1l-.1-.1s-.1.1-.1 0h-.1s-.2.1-.4 0c.1.1 0 0 0 0z"/><path fill="#C8B100" stroke="#000" stroke-width=".022" d="M19.6 16.3h-.2.1v-.1l.1.1"/><path fill="none" stroke="#000" stroke-width=".019" d="M19.5 16.3q.15 0 0 0v.1-.1"/><path fill="none" stroke="#000" stroke-linecap="round" stroke-width=".019" d="M18.8 16.8c-.1 0-.1-.1 0 0 0-.2.1-.3.2-.3h.1"/><path fill="none" stroke="#000" stroke-width=".019" d="M19.1 16.6c0-.1.1-.2.2-.2h.1M19.9 16.6c0-.1-.1-.2-.2-.2h-.1"/><path fill="none" stroke="#000" stroke-linecap="round" stroke-width=".019" d="M20.3 16.8s0-.1 0 0c0-.2-.1-.3-.2-.3H20"/><path fill="#C8B100" stroke="#000" stroke-width=".019" d="M19 17.1s0-.1 0 0c.1-.1.3-.1.5-.1s.4 0 .6.1v.2c-.1 0-.3-.1-.5-.1-.3-.1-.5-.1-.6-.1"/><path fill="#C8B100" stroke="#000" stroke-width=".019" d="M19.5 17.3h.5s.1 0 .1-.1c-.1 0-.3-.1-.5-.1s-.4 0-.5.1l.1.1zM20.1 16.9H20c-.1 0-.1-.1-.1-.1h-.30000000000000004l-.1-.1s0 .1-.1.1h-.1l-.1.1h-.1s0 .1-.1.1h-.1c.1 0 .3-.1.6-.1h.6z"/><path fill="#C8B100" stroke="#000" stroke-width=".019" d="M19.5 16.7q0 .15 0 0c0 .1.1.1.1.1s.1 0 .1-.1c0 0 0 .1.1.1 0 0 .1 0 .1-.1 0 0 0 .1.1.1h.1v.1h.1l.1-.1s0 .1-.1.1H20s-.1 0-.1-.1h-.3s-.1 0-.1-.1l-.1.1h-.3l-.1.1h-.3l-.1-.1.1.1c.1.1.1 0 .1 0v-.1h.1s.1 0 .1-.1c0 0 0 .1.1.1 0 0 .1 0 .1-.1 0 0 0 .1.1.1.2.1.2 0 .2-.1q0 .15 0 0z"/><path fill="#C8B100" stroke="#000" stroke-linejoin="round" stroke-width=".019" d="M19.5 16.9c-.2 0-.4 0-.6.1.2-.1.4-.1.6-.1h.6c-.1.1-.3 0-.6 0z"/><path fill="#C8B100" stroke="#000" stroke-width=".019" d="M18.8 16.9s-.1-.1 0 0q-.15-.15 0 0-.15-.15 0 0-.15-.15 0 0 0-.15 0 0 0-.15 0 0 0-.15 0 0zM18.9 16.8l-.1.1.1-.1M18.8 16.8q0 .15 0 0 0 .15 0 0c0 .1 0 0 0 0zM19 16.8s0 .1 0 0q0 .15 0 0zM19 16.8h.1-.1M19.1 16.6v.1-.1M19.3 16.7h-.1.1M19.3 16.8s0-.1 0 0c0-.1.1 0 0 0q.15 0 0 0zM19.4 16.7h.1-.1M19.5 16.6v.1-.1M19.7 16.7h-.1.1M19.7 16.8s0-.1 0 0c0-.1 0 0 0 0zM19.8 16.7h.1-.1M19.9 16.6v.1-.1M20 16.8h-.1.1M20.1 16.8s0 .1 0 0q0 .15 0 0zM20.3 16.9s0-.1 0 0c0-.1.1-.1 0 0q.15-.15 0 0 0-.15 0 0 0-.15 0 0 0-.15 0 0 0-.15 0 0zM20.1 16.8l.1.1-.1-.1"/><path fill="#C8B100" stroke="#000" stroke-width=".019" d="M20.3 16.8s-.1 0 0 0q-.15.15 0 0c-.1.1 0 .1 0 0 0 .1 0 0 0 0z"/><path fill="#AD1519" stroke="#000" stroke-width=".019" d="M19 17.1"/><path fill="#058E6E" stroke="#000" stroke-width=".019" d="M19.2 17.1q-.15 0 0 0-.15-.15 0 0 0-.15 0 0c0-.1 0 0 0 0"/><path fill="#AD1519" stroke="#000" stroke-width=".019" d="M19.5 17q-.15 0 0 0-.15 0 0 0"/><path fill="#058E6E" stroke="#000" stroke-width=".019" d="M19.9 17.1q.15 0 0 0 .15-.15 0 0-.15-.15 0 0c-.1-.1-.1 0 0 0"/><path fill="#AD1519" stroke="#000" stroke-width=".019" d="M20.1 17.1"/><path fill="#AD1519" stroke="#000" stroke-linejoin="round" stroke-width=".019" d="M19.5 17.2H19c.1 0 .3-.1.5-.1s.3 0 .5.1z"/><path fill="none" stroke="#000" stroke-width=".001" d="M19.5 17.2"/><path fill="none" stroke="#000" stroke-width=".002" d="M19.5 17.2"/><path fill="none" stroke="#000" stroke-width=".003" d="M19.4 17.2"/><path fill="none" stroke="#000" stroke-width=".004" d="M19.4 17.2"/><path fill="none" stroke="#000" stroke-width=".005" d="M19.4 17.2"/><path fill="none" stroke="#000" stroke-width=".006" d="M19.3 17.2"/><path fill="none" stroke="#000" stroke-width=".007" d="M19.3 17.2"/><path fill="none" stroke="#000" stroke-width=".008" d="M19.2 17.2"/><path fill="none" stroke="#000" stroke-width=".009" d="M19.2 17.2"/><path fill="none" stroke="#000" stroke-width=".01" d="M19.1 17.2"/><path fill="none" stroke="#000" stroke-width=".011" d="M19.1 17.2"/><path fill="none" stroke="#000" stroke-width=".013" d="M19.1 17.2"/><path fill="#005BBF" stroke="#000" stroke-width=".029" d="M20.7 25c-.1 0-.2 0-.3-.1-.1 0-.2-.1-.3-.1s-.2 0-.3.1c-.1 0-.2.1-.3.1s-.2 0-.3-.1c-.1 0-.2-.1-.3-.1s-.2 0-.3.1c-.1 0-.2.1-.3.1v.2c.1 0 .2 0 .3-.1.1 0 .2-.1.3-.1s.2 0 .3.1c.1 0 .2.1.3.1s.2 0 .3-.1c.1 0 .2-.1.3-.1s.2 0 .3.1c.1 0 .2.1.3.1V25z"/><path fill="#CCC" stroke="#000" stroke-width=".029" d="M20.7 25.2c-.1 0-.2 0-.3-.1-.1 0-.2-.1-.3-.1s-.2 0-.3.1c-.1 0-.2.1-.3.1s-.2 0-.3-.1c-.1 0-.2-.1-.3-.1s-.2 0-.3.1c-.1 0-.2.1-.3.1v.2c.1 0 .2 0 .3-.1.1 0 .2-.1.3-.1s.2 0 .3.1c.1 0 .2.1.3.1s.2 0 .3-.1c.1 0 .2-.1.3-.1s.2 0 .3.1c.1 0 .2.1.3.1v-.2"/><path fill="#005BBF" stroke="#000" stroke-width=".029" d="M20.7 25.3c-.1 0-.2 0-.3-.1-.1 0-.2-.1-.3-.1s-.2 0-.3.1c-.1 0-.2.1-.3.1s-.2 0-.3-.1c-.1 0-.2-.1-.3-.1s-.2 0-.3.1c-.1 0-.2.1-.3.1v.2c.1 0 .2 0 .3-.1.1 0 .2-.1.3-.1s.2 0 .3.1c.1 0 .2.1.3.1s.2 0 .3-.1c.1 0 .2-.1.3-.1s.2 0 .3.1c.1 0 .2.1.3.1v-.2"/><path fill="#CCC" stroke="#000" stroke-width=".029" d="M20.7 25.7c-.1 0-.2 0-.3-.1-.1 0-.2-.1-.3-.1s-.2 0-.3.1c-.1 0-.2.1-.3.1s-.2 0-.3-.1c-.1 0-.2-.1-.3-.1s-.2 0-.3.1c-.1 0-.2.1-.3.1v-.2c.1 0 .2 0 .3-.1.1 0 .2-.1.3-.1s.2 0 .3.1c.1 0 .2.1.3.1s.2 0 .3-.1c.1 0 .2-.1.3-.1s.2 0 .3.1c.1 0 .2.1.3.1v.2"/><path fill="#005BBF" stroke="#000" stroke-width=".029" d="M20.7 25.9c-.1 0-.2 0-.3-.1-.1 0-.2-.1-.3-.1s-.2 0-.3.1c-.1 0-.2.1-.3.1s-.2 0-.3-.1c-.1 0-.2-.1-.3-.1s-.2 0-.3.1c-.1 0-.2.1-.3.1v-.2c.1 0 .2 0 .3-.1.1 0 .2-.1.3-.1s.2 0 .3.1c.1 0 .2.1.3.1s.2 0 .3-.1c.1 0 .2-.1.3-.1s.2 0 .3.1c.1 0 .2.1.3.1v.2z"/><path fill="#C8B100" stroke="#000" stroke-linejoin="round" stroke-width=".029" d="M18.9 24.3c0 .2-.1.2-.2.2h1.7c-.1 0-.2-.1-.2-.2h-1.3z"/><path fill="#C8B100" stroke="#000" stroke-width=".029" d="M18.9 24.1h1.2s.1 0 .1.1c0 0 0 .1-.1.1h-1.2s-.1-.1 0-.2c-.1.1 0 0 0 0zM18.7 24.9h1.7v-.4h-1.7z"/><path fill="#CCC" stroke="#000" stroke-width=".029" d="M18.9 24.1h1.2v-5.9h-1.2z"/><path fill="none" stroke="#000" stroke-width=".029" d="M19.8 18.2v5.9m.1-5.9v5.9"/><path fill="#C8B100" stroke="#000" stroke-width=".029" d="M18.7 17.7h1.7v-.4h-1.7v.4z"/><path fill="#C8B100" stroke="#000" stroke-linejoin="round" stroke-width=".029" d="M18.9 18h1.3l-.1-.1s0-.1.1-.1H19c-.1 0 0 0-.1.2.1-.1 0 0 0 0z"/><path fill="#C8B100" stroke="#000" stroke-width=".029" d="M18.9 18h1.2s.1 0 .1.1c0 0 0 .1-.1.1h-1.2c0-.1-.1-.1 0-.2-.1 0 0 0 0 0zM18.9 17.7h1.3-1.3c0 .1-.1.1 0 0-.1 0 0 0 0 0z"/><path fill="#AD1519" stroke="#000" stroke-width=".029" d="M20.5 22.6c.2.1.3.2.3.2l-.1.1c-.1.1-.2.2-.1.3-.1-.1-.2-.2-.2-.3-.1-.1 0-.2.1-.3z"/><path fill="#AD1519" stroke="#000" stroke-linejoin="round" stroke-width=".029" d="M17.7 20.4c.3-.1.7-.2 1.2-.2.2 0 .4 0 .6.1.7.1 1.3.4 1.2.6l.3-.6c0-.3-.6-.6-1.4-.7-.3 0-.5-.1-.7-.1-.5 0-1 .1-1.2.2v.7"/><path fill="#AD1519" stroke="#000" stroke-width=".029" d="M20.1 21.1c.3 0 .6-.1.6-.3q0-.15-.3-.3h-.3v.6M18.9 20.7c-.2 0-.4.1-.4.1 0 .1.1.2.5.4l-.1-.5"/><path fill="#AD1519" stroke="#000" stroke-linejoin="round" stroke-width=".029" d="M20.9 22.3c0-.1-.3-.3-.8-.5-.2-.1-.4-.2-.6-.2-.6-.3-1.1-.6-1.1-.7l-.1.6c-.1.1.4.4 1 .7.2.1.6.2.8.3.3.1.7.3.6.4l.2-.6z"/><path fill="#C8B100" d="M7.8 20.1c.1-.1.2-.1.2-.2s-.1-.1-.2 0l-.2.1.2.4H8zm-.1-.2h.2v.1h-.1zM8.3 19.7q-.15 0 0 0h-.1l.1.5.3-.1h-.2zM8.9 20.1c.1-.2.1-.3.2-.5 0 .1-.1.2-.1.4-.1-.1-.1-.2-.2-.3h-.2c.1.1.1.2.3.4-.1 0 0 0 0 0M9.6 19.7c0-.1 0-.1-.1-.1s-.2 0-.2.1c0 .2.2.2.2.3l-.1.1c-.1 0-.1 0-.1-.1v.1h.1c.1 0 .2 0 .2-.1 0-.2-.2-.2-.2-.3 0 0 0-.1.1-.1 0 .1.1.1.1.1M18.5 20.1c0-.2.1-.3.2-.5 0 .1-.1.2-.1.4-.1-.1-.1-.2-.2-.3h-.2c0 .1.1.3.3.4q-.15 0 0 0-.15 0 0 0M18.9 19.6h-.1v.5h.3-.2zM19.4 19.7h.2-.5.2v.4h.2zM19.6 20.2s.1 0 0 0h.1l.1-.2v.1l.1.2h.2c0-.1-.1-.1-.1-.2.1 0 .1 0 .2-.1 0 0 0-.1-.1-.1h-.30000000000000004zm.2-.4c.1 0 .1 0 .1.1s-.1.1-.2.1zM20.5 20.3v.2h.2V20l-.5.3.1-.1zm-.2-.1.2-.1v.2z"/><path fill="#AD1519" stroke="#000" stroke-width=".019" d="M14 14c.5 0 .9.1 1.2.2.2.1.4.1.6.2h.5c.2 0 .5.1.8.2.2.1.4.2.6.4h-.1v.3l-.3.4-.3.1-.4.3h-.2l-.1.2L14 16l-2.4.3-.1-.2h-.2l-.4-.3-.2-.1-.3-.4V15l-.1-.1c.1-.1.3-.3.6-.4s.6-.2.8-.2h.5c.2 0 .5-.1.6-.2.2 0 .7-.1 1.2-.1z"/><path fill="#C8B100" stroke="#000" stroke-width=".029" d="m12.2 14.7.1.1.2-.3c-.2-.1-.3-.3-.3-.5v-.1c0-.3.4-.6.9-.6.3 0 .5.1.7.2v-.1c-.2-.1-.4-.2-.7-.2-.6 0-1 .3-1 .7v.1c0 .2.1.4.2.5l-.1.2"/><path fill="#C8B100" stroke="#000" stroke-width=".029" d="M12.2 14.7q-.3-.15-.3-.6c0-.3.2-.5.4-.6-.2.1-.2.3-.3.5v.1c0 .2.1.4.2.5v.1M10.4 14.9c-.1-.1-.2-.3-.2-.5 0-.1 0-.2.1-.3.2-.3.7-.6 1.2-.6h.5l-.1.1h-.4c-.5 0-1 .2-1.1.5 0 .1-.1.2-.1.2 0 .2.1.3.2.4l-.2.3-.1-.1h.2z"/><path fill="#C8B100" stroke="#000" stroke-width=".029" d="m10.6 13.8-.3.3c0 .1-.1.2-.1.3 0 .2.1.3.2.5l-.1.2c-.1-.1-.2-.3-.2-.5 0-.3.2-.6.5-.8zM14 13.2c.1 0 .2.1.3.2v.3c0 .3 0 .5.1.6l-.4.5-.4-.4c.1-.1.1-.4.1-.6v-.3c0-.2.2-.3.3-.3z"/><path fill="#C8B100" stroke="#000" stroke-width=".029" d="M14 13.3c.1 0 .1 0 .1.1v.3c0 .2 0 .5.1.6l-.2.3-.3-.2c0-.1.1-.4.1-.6v-.3c.1-.2.1-.2.2-.2zM15.8 14.7l-.1.1-.2-.3c.2-.1.3-.3.3-.5v-.1c0-.3-.4-.6-.9-.6-.3 0-.5.1-.7.2v-.1c.2-.1.4-.2.7-.2.6 0 1 .3 1 .7v.1c0 .2-.1.4-.2.5l.1.2"/><path fill="#C8B100" stroke="#000" stroke-width=".029" d="M15.8 14.7q.3-.15.3-.6c0-.3-.2-.5-.4-.6.2.1.2.3.3.5v.1c0 .2-.1.4-.2.5v.1M17.5 14.9c.1-.1.2-.3.2-.5 0-.1 0-.2-.1-.3-.2-.3-.7-.6-1.2-.6h-.5l.1.1h.4c.5 0 1 .2 1.1.5 0 .1.1.2.1.2 0 .2-.1.3-.2.4l.2.3.1-.1z"/><path fill="#C8B100" stroke="#000" stroke-width=".029" d="m17.3 13.8.3.3c0 .1.1.2.1.3 0 .2-.1.3-.2.5l.1.2c.1-.1.2-.3.2-.5 0-.3-.2-.6-.5-.8z"/><path fill="#C8B100" stroke="#000" stroke-width=".019" d="M13.9 12v.2h-.2v.2h.2v.5h-.2v.1h.6v-.1h-.2v-.5h.2v-.2h-.2V12h-.2z"/><path fill="#C8B100" stroke="#000" stroke-width=".029" d="M14 17.2c-.9 0-1.7-.1-2.3-.3l-.1-.1s0-.1.1-.1c.6-.2 1.4-.3 2.3-.3s1.7.1 2.3.3c0 0 .1 0 .1.1 0 0 0 .1-.1.1-.6.2-1.4.3-2.3.3"/><path fill="#C8B100" stroke="#000" stroke-width=".029" d="M14 16.5c-.9 0-1.7.1-2.3.3v-.2c-.1-.2-.2-.2-.2-.2.6-.2 1.5-.3 2.5-.3s1.9.1 2.5.3c0 0-.1 0-.2.2s-.1.2 0 .2c-.6-.2-1.4-.3-2.3-.3"/><path fill="#C8B100" stroke="#000" stroke-width=".029" d="M14 16.1c-1 0-1.9.1-2.5.3h-.1s0-.1.1-.1c.5-.3 1.5-.4 2.5-.4s1.9.1 2.6.3l.1.1s-.1.1-.1 0c-.7-.1-1.6-.2-2.6-.2"/><path fill="#C8B100" stroke="#000" stroke-width=".029" d="m14 15.3.1.1c0 .2.2.3.4.3s.3-.1.3-.2c0 0 0-.1.1-.1v.1c0 .2.2.3.4.3s.4-.2.4-.3l.1-.1.1.1v.2c0 .2.2.3.3.3s.2-.1.3-.1l.1-.1v.1c0 .1 0 .2.2.2 0 0 .1 0 .3-.1s.3-.2.3-.2v.1s-.1.2-.3.3c-.1 0-.2.1-.3.1s-.2-.1-.2-.2c-.1 0-.2.1-.3.1-.2 0-.4-.1-.5-.3-.1.1-.2.2-.4.2s-.3-.1-.4-.2c-.1.1-.2.1-.4.1s-.3-.1-.4-.2c-.1.1-.3.2-.4.2s-.3-.1-.4-.1c-.1.1-.2.2-.4.2s-.3-.1-.4-.2c-.1.2-.3.3-.5.3-.1 0-.2 0-.3-.1 0 .1-.1.2-.2.2s-.2 0-.3-.1c-.2-.1-.3-.3-.3-.3v-.1s.1.1.3.2.3.1.3.1c.1 0 .2-.1.2-.2v-.1l.1.1c.1.1.2.1.3.1q.3 0 .3-.3v-.2l.1-.1.1.1c0 .2.2.3.4.3s.3-.1.4-.3v-.1.1c0 .1.2.2.3.2.2 0 .4-.2.4-.3-.3 0-.3-.1-.2-.1"/><path fill="#C8B100" stroke="#000" stroke-width=".029" d="M10.9 15.8q0-.15 0 0c-.1-.1-.2-.1-.2-.1s-.1-.2-.2-.2c-.1-.1-.3 0-.3 0 0-.1.1-.2.2-.2s.1 0 .2.1v-.1s.1 0 .1.1v.3s0-.1.1-.1c0 0 .1-.1.2-.1l.1-.1v.1h.3c0 .1-.1.1-.2.2l.1.1h-.4"/><path fill="#AD1519" stroke="#000" stroke-width=".029" d="M10.7 15.7h.2c.1 0 .1.1 0 .2h-.2c-.1-.1-.1-.2 0-.2"/><path fill="#FFF" stroke="#000" stroke-width=".029" d="M11.5 15.7v-.1s.1 0 .1.1v.1s-.1 0-.1-.1"/><path fill="#C8B100" stroke="#000" stroke-width=".029" d="M12.2 15.4c-.1-.1 0-.1 0-.2 0 0-.1 0-.1-.1h-.3v.1c-.1 0-.2.1-.2.2.1.1.2.1.3.1v.1h.1s.1 0 .2-.1v-.1"/><path fill="#C8B100" stroke="#000" stroke-width=".029" d="M12.2 14.7c.1 0 .1.1.2.2h.2v.4h-.1s-.1 0-.1.1l-.1-.1c-.3-.2-.3-.3-.3-.3l-.1-.1h.2c0-.1 0-.2.1-.2"/><path fill="#C8B100" stroke="#000" stroke-width=".029" d="M12.4 15.4s0-.1 0 0v-.2s0-.1.1-.1c0 0 .1-.1.2-.1h.1v.1c.1 0 .2 0 .3.1l-.2.2v.1h-.3c-.1-.1-.2-.1-.2-.1"/><path fill="#FFF" stroke="#000" stroke-width=".029" d="M13.1 15.4c0-.1 0-.1.1-.1 0 0 .1 0 .1.1s0 .1-.1.1-.1 0-.1-.1"/><path fill="#C8B100" stroke="#000" stroke-width=".029" d="M13.9 15.3c-.1 0-.1-.1 0 0v-.2s-.1 0-.1-.1h-.30000000000000004v.1c-.1 0-.2.1-.3.1.1.1.2.1.3.1v.1h.30000000000000004c0-.1.1-.1.1-.1M14 14.4c.1.1.1.2.1.3h.2v.1s0 .1-.1.2c0 .1-.1.1-.1.1L14 15c-.1 0-.1 0-.1.1 0 0 0-.1-.1-.1 0-.1 0-.2-.1-.2v-.1h.2c0-.1 0-.2.1-.3"/><path fill="#C8B100" stroke="#000" stroke-width=".029" d="M14.1 15.3s0-.1 0 0v-.2s.1 0 .1-.1h.3v.1c.1 0 .2.1.3.1-.1.1-.2.1-.3.1v.1h-.3c0-.1-.1-.1-.1-.1"/><path fill="#FFF" stroke="#000" stroke-width=".029" d="M14.9 15.4c0-.1 0-.1-.1-.1 0 0-.1 0-.1.1s0 .1.1.1.1 0 .1-.1"/><path fill="#C8B100" stroke="#000" stroke-width=".029" d="M15.6 15.4c-.1 0-.1-.1 0 0v-.2s0-.1-.1-.1c0 0-.1-.1-.2-.1h-.1v.1c-.1 0-.2 0-.3.1l.2.2v.1h.3c.1-.1.2-.1.2-.1"/><path fill="#C8B100" stroke="#000" stroke-width=".029" d="M15.8 14.7c-.1 0-.1.1-.2.2h-.2v.4h.1s.1 0 .1.1l.1-.1c0-.1.1-.1.1-.2l.1-.1h-.2c.2-.2.2-.3.1-.3M15.8 15.4c.1-.1 0-.1 0-.2 0 0 .1 0 .1-.1h.30000000000000004v.1c.1 0 .2.1.2.2-.1.1-.2.1-.3.1v.1H16s-.1 0-.2-.1v-.1"/><path fill="#FFF" stroke="#000" stroke-width=".029" d="M16.5 15.7v-.1s-.1 0-.1.1v.1s.1 0 .1-.1"/><path fill="#C8B100" stroke="#000" stroke-width=".029" d="M17.1 15.8q0-.15 0 0c.1-.1.2-.1.2-.1s.1-.2.2-.2h.3c0-.1-.1-.2-.2-.2s-.1 0-.2.1v-.1s-.1 0-.1.1v.3s0-.1-.1-.1c0 0-.1-.1-.2-.1s-.1-.1-.1-.1v.1h-.3c0 .1.1.1.2.2l-.1.1h.4"/><path fill="#AD1519" stroke="#000" stroke-width=".029" d="M17.3 15.7h-.2c-.1 0-.1.1 0 .2h.2c0-.1.1-.2 0-.2"/><path fill="#AD1519" stroke="#000" stroke-linejoin="round" stroke-width=".029" d="M14 17.1c-.8 0-1.6-.1-2.1-.2.6-.1 1.3-.2 2.1-.2s1.6.1 2.1.2c-.5.1-1.3.2-2.1.2z"/><path fill="none" stroke="#000" stroke-width=".004" d="M14.6 17.1v-.4m-.2.4v-.5m-.2.5v-.5"/><path fill="none" stroke="#000" stroke-width=".007" d="M14 17.1v-.5"/><path fill="none" stroke="#000" stroke-width=".01" d="M13.9 17.1v-.5"/><path fill="none" stroke="#000" stroke-width=".013" d="M13.8 17.1v-.5"/><path fill="none" stroke="#000" stroke-width=".017" d="M13.7 17.1v-.5"/><path fill="none" stroke="#000" stroke-width=".021" d="M13.6 17.1v-.5"/><path fill="none" stroke="#000" stroke-width=".024" d="M13.3 17.1v-.4m.1.4v-.5"/><path fill="none" stroke="#000" stroke-width=".027" d="M13.2 17.1v-.4m.1.4v-.4"/><path fill="none" stroke="#000" stroke-width=".031" d="M12.9 17.1v-.4m.1.4v-.4m.1.4v-.4"/><path fill="none" stroke="#000" stroke-width=".034" d="M12.8 17.1v-.3"/><path fill="none" stroke="#000" stroke-width=".038" d="M12.7 17v-.3"/><path fill="none" stroke="#000" stroke-width=".042" d="M12.6 17v-.3"/><path fill="none" stroke="#000" stroke-width=".044" d="M12.4 17v-.2m.1.2v-.3"/><path fill="none" stroke="#000" stroke-width=".047" d="M12.3 17v-.2"/><path fill="none" stroke="#000" stroke-width=".05" d="M12.3 17v-.2"/><path fill="none" stroke="#000" stroke-width=".054" d="M12.2 16.9v-.1"/><path fill="none" stroke="#000" stroke-width=".057" d="M12.1 16.9v-.1"/><path fill="none" stroke="#000" stroke-width=".067" d="M12 16.9"/><path fill="none" stroke="#000" stroke-width=".029" d="M11.8 16.9c.6-.2 1.4-.3 2.2-.3.9 0 1.7.1 2.2.3"/><path fill="#AD1519" stroke="#000" stroke-width=".029" d="m11.5 16.6.1-.1h.2l-.2.1h-.1"/><path fill="#FFF" stroke="#000" stroke-width=".029" d="M12.1 16.4c.1-.1.2 0 .2 0-.1.1-.1.1-.2 0q0 .15 0 0"/><path fill="#058E6E" stroke="#000" stroke-width=".029" d="M12.8 16.4h-.2s-.1 0-.1-.1c0 0 0-.1.1-.1h.4s.1 0 .1.1 0 .1-.1.1h-.2"/><path fill="#FFF" stroke="#000" stroke-width=".029" d="M13.3 16.3q0-.15 0 0c.1-.1.2 0 .2 0-.1 0-.1.1-.2 0 0 .1 0 0 0 0"/><path fill="#AD1519" stroke="#000" stroke-width=".029" d="M14 16.3h-.2s-.1 0-.1-.1c0 0 0-.1.1-.1h.5s.1 0 .1.1c0 0 0 .1-.1.1H14"/><path fill="#FFF" stroke="#000" stroke-width=".029" d="M14.5 16.3c0-.1.1-.1 0 0 .1-.1.2 0 .2 0s0 .1-.2 0c.1.1 0 0 0 0"/><path fill="#058E6E" stroke="#000" stroke-width=".029" d="M15.2 16.4h.2s.1 0 .1-.1c0 0 0-.1-.1-.1H15s-.1 0-.1.1c0 0 0 .1.1.1h.2"/><path fill="#FFF" stroke="#000" stroke-width=".029" d="M15.8 16.4c.1-.1.2 0 .2 0-.1.1-.1.1-.2 0q0 .15 0 0"/><path fill="#AD1519" stroke="#000" stroke-width=".029" d="m16.5 16.6-.1-.1h-.2l.2.1h.1"/><path fill="#CCC" stroke="#000" stroke-width=".039" d="M14 26q-1.5 0-2.7-.6c-.6-.3-1-.9-1-1.6v-2.5h7.4v2.5c0 .7-.4 1.3-1 1.6q-1.2.6-2.7.6z"/><path fill="#FFD691" stroke="#000" stroke-width=".039" d="M14.2 24.9c.2 0 .2.2.2.3 0 .2-.2.3-.4.3s-.4-.1-.4-.3c0-.1.1-.3.2-.3h.2v-.1h.1s0 .1.1.1c-.1 0-.1-.1 0 0v-.1.1"/><path fill="#058E6E" stroke="#000" stroke-width=".039" d="M14 25.7s-.3-.2-.4-.2h-.4l.1.1s.2.1.3.1c.2.1.4 0 .4 0M14.1 25.7s.2-.2.4-.2h.5s-.1 0-.1.1c0 0-.1.1-.3.1h-.5"/><path fill="#AD1519" stroke="#000" stroke-width=".039" d="M14 25.5c-.1-.1-.1-.2-.1-.3s0-.2.1-.3c.1.1.1.2.1.3.1.1 0 .2-.1.3"/><path fill="#058E6E" stroke="#000" stroke-width=".039" d="M14 25.9v-.4.4"/><path fill="#AD1519" stroke="#000" stroke-width=".039" d="M14 23.8c0 1-.8 1.8-1.9 1.8s-1.9-.8-1.9-1.8v-2.5H14v2.5"/><path fill="#C8B100" stroke="#000" stroke-width=".039" d="M10.3 23.8c0 .5.2.9.4 1.2v-3.7h-.4v2.5zM11.1 25.3c.1.1.3.2.4.2v-4.2h-.4zM11.9 25.5h.4v-4.3h-.4zM12.7 25.5c.2 0 .4-.1.4-.2v-4h-.4v4.2zM13.6 24.9c.2-.2.4-.5.4-.9v-2.7h-.4z"/><path fill="#AD1519" stroke="#000" stroke-width=".039" d="M17.7 21.3v2.5c0 1-.8 1.8-1.9 1.8-1 0-1.9-.8-1.9-1.8v-2.5h3.8"/><path fill="#C8B100" stroke="#C8B100" stroke-width=".019" d="M15.7 23.2s0-.1 0 0l-.3-.4-.1.1-.3-.3.1-.1-.4-.5v.3h.1v.3h-.1v.3c.1 0 .1.1.1.1h.2v-.1h.4v.1zm-.6-1.4v.1h.2v-.1zm-.5 1.5q.15 0 0 0c.1-.1 0-.2 0-.2s-.1.1 0 .2c-.1 0 0 0 0 0zm1.2-.7h-.1v-.3h.1v-.1c-.1 0-.1-.1-.1-.1h-.2v.1h-.3v-.1H15l.4.4.1-.1.2.3-.1.1.3.3zm-.5-.1v.2l.1-.1zm.5 2.7c-.1 0-.2-.1-.2-.1-.1 0-.2 0-.4-.1l.1-.1c.1 0 .2.1.3.1l.1-.1v-.4h-.1V24h.1v-.6l-.3.3.1.1-.2.3-.1-.1-.2.3v.2c.1.1.2.1.2.2l-.1.1c-.1-.1-.2-.1-.3-.2h-.2q-.15-.15 0-.3c-.1-.1-.1-.2-.1-.4h.1c0 .1 0 .2.1.3h.1l.2-.3v-.1l.2-.3.1.1.3-.3h-.2v.1H15v-.1h-.2c0 .1-.1.1-.1.1v.3h-.1v-.3c-.1 0-.1-.1-.1-.2s.1-.2.1-.2v-.3h-.1v-.3h.1V22c-.1 0-.1-.1-.1-.2s.1-.2.2-.2.2.1.2.1h.1v-.1h.3v.1h.2c0-.1.1-.1.2-.1v.6h-.1v.2h.1V24h-.1v.2h.1zm-.4-1.4-.2.1.1.1zm-.7-1.4h-.1v.2h.1zm.6.9v-.1h-.2v.1zm-.7.7h-.1v-.3h.1v.2c-.1 0-.1 0 0 .1zm.1-.4h.1v.4h-.1v-.4zm.8 1.3v-.1c-.1 0-.2-.1-.3-.2l-.1.1c.1 0 .2.1.4.2zm-.1.1c-.2.1-.3 0-.4-.1v-.1c.1 0 .3.1.4.2z"/><path fill="#C8B100" stroke="#C8B100" stroke-width=".019" d="M16 23.2s0-.1 0 0l.3-.4.1.1.2-.3-.1-.1.5-.5v.3h-.1v.3h.1v.3c-.1 0-.1.1-.1.1h-.2v-.1h-.4v.1zm.6-1.4v.1h-.2v-.1zm.5 1.5q-.15 0 0 0c-.1-.1 0-.2 0-.2s.1.1 0 .2c.1 0 0 0 0 0zm-1.2-.7h.1v-.3h-.1v-.1c.1-.2.1-.2.1-.3h.2v.1h.3v-.1h.2l-.4.4-.1-.1-.2.3.1.1-.3.3zm.5-.1v.2l-.1-.1zm-.5 2.7c.1 0 .2-.1.2-.1.1 0 .2 0 .4-.1l-.1-.1c-.1 0-.2.1-.3.1l-.1-.1v-.4h.1V24H16v-.6l.3.3-.1.1.2.3.1-.1.2.3v.2c-.1.1-.2.1-.2.2l.1.1c.1-.1.2-.1.3-.2h.2q.15-.15 0-.3c.1-.1.1-.2.1-.4h-.1c0 .1 0 .2-.1.3h-.1l-.3-.2.1-.1-.2-.3-.1.1-.4-.4h.2v.1h.4v-.1h.2c0 .1.1.1.1.1v.3h.1v-.3c.1 0 .1-.1.1-.2S17 23 17 23v-.3h.1v-.3H17V22c.1 0 .1-.1.1-.2s-.1-.2-.2-.2-.2.1-.2.1h-.2v-.1h-.3v.1H16c0-.1-.1-.1-.2-.1v.6h.1v.2h-.1V24h.1v.2h-.1zm.4-1.4.2.1-.1.1zm.7-1.4h.1v.2H17zm-.7.9v-.1h.2v.1zm.8.7h.1v-.3h-.1v.2c.1 0 0 0 0 .1zm-.1-.4h-.1v.4h.1v-.4zm-.8 1.3v-.1c.1 0 .2-.1.3-.2l.1.1c-.1 0-.2.1-.4.2zm.1.1c.2.1.3 0 .4-.1v-.1c-.1 0-.3.1-.4.2z"/><path fill="#058E6E" d="M15.7 23.2c0-.1.1-.2.2-.2s.2.1.2.2-.1.2-.2.2-.2-.1-.2-.2"/><path fill="#AD1519" stroke="#000" stroke-width=".039" d="M10.3 21.3H14v-4.1h-3.7z"/><path fill="#C8B100" stroke="#000" stroke-width=".034" d="m11.6 18.1-.2-.1v.3h.1v.2h-.3v.5h.1v1.1H11v.6h2.1v-.6h-.3V19h.1v-.5h-.3v-.2h.1V18h-.1v.1h-.1V18h-.1v.1h-.1V18h-.1v.3h.1v.2H12v-.6h.1v-.3H12v.1h-.1v-.1h-.1v.1h.2v-.1h-.1v.3h.1v.6h-.3v-.2h.1V18h-.1v.1h-.1V18v.1zm-.5 2.7h2.1m-2.1-.2h2.1m-2.1-.1h2.1m-2.1-.2h2.1m-2.1-.1h2.1m-1.8-.1H13m-1.6-.2H13m-1.6-.1H13m-1.6-.2H13m-1.6-.1H13m-1.6-.1H13m-1.6-.2H13m-1.8-.1H13m-1.8-.1H13m-1.8-.2H13m-1.8-.1H13m-1.5-.2h1.3m-.8-.1h.3m-.3-.1h.3m-.3-.2h.3M12 18h.3m-.4-.2h.5m-.9.6h.3m-.4-.2h.5m-.5 2.6v-.1m0-.2v-.1m-.2.1v.1m.3 0v-.1m.1.3v-.1m0-.2v-.1m0-.2v-.1m0-.2v-.2m-.1.6v-.2m-.3.2v-.2m.6.1v.2m.1-.2v-.1m-.4-.2v.1m.3-.1v.1m.2-.1v.1m-.1-.1v-.2m.1-.1v.1m0-.3v.1m-.1-.3v.1m.1-.2v.1m-.2-.1v.1m-.3-.1v.1m-.1-.2v.1m.2-.1v.1m.3-.1v.1m.1-.3v.2m-.2-.2v.2m-.3-.2v.2m-.1-.3v.1m.5-.1v.1m-.3-.4v.1m1.2-.1h-.3m.4-.2h-.5m.5 2.6v-.1m0-.2v-.1m.2.1v.1m-.3 0v-.1m-.1.3v-.1m0-.2v-.1m0-.2v-.1m0-.2v-.2m.1.6v-.2m.3.2v-.2m-.6.1v.2m-.1-.2v-.1m.4-.2v.1m-.3-.1v.1m-.2-.1v.1m.1-.1v-.2m-.1-.1v.1m0-.3v.1m.1-.3v.1m-.1-.2v.1m.2-.1v.1m.3-.1v.1m.1-.2v.1m-.2-.1v.1m-.3-.1v.1m-.1-.3v.2m.2-.2v.2m.3-.2v.2m.1-.3v.1m-.5-.1v.1m.3-.4v.1m-.6 1.4v-.2m0-.3v-.1m0 .3v-.1m0-.4V19m0-.2v-.1m0-.3v-.1m0-.2V18m-.6.4h.3m.2-.5h.3m.2.5h.3"/><path fill="#C8B100" stroke="#000" stroke-width=".034" d="M12.5 20.8v-.4c0-.1 0-.3-.4-.3-.3 0-.3.2-.3.3v.4z"/><path fill="#C8B100" stroke="#000" stroke-width=".034" d="M11.9 20.4h-.2c0-.1 0-.2.1-.2l.2.1zM12.2 20.2l.1-.2H12l.1.2h.1zM12.4 20.4h.2c0-.1 0-.2-.1-.2l-.2.1zM11.9 19.8v-.4c0-.1-.1-.2-.2-.2s-.2.1-.2.2v.4h.4zM12.4 19.8v-.4c0-.1.1-.2.2-.2s.2.1.2.2v.4zM11.8 18.9v-.3h-.3v.3zM12.3 18.9v-.3H12v.3zM12.5 18.9v-.3h.3v.3h-.3z"/><path fill="#0039F0" d="M12.4 20.8v-.3c0-.1 0-.2-.2-.2s-.2.2-.2.2v.3zM11.8 19.8v-.3c0-.1-.1-.2-.2-.2s-.2.1-.2.2v.3zM12.4 19.8v-.3c0-.1.1-.2.2-.2s.2.1.2.2v.3z"/><path fill="#CCC" stroke="#000" stroke-width=".039" d="M14 21.3h3.7v-4.1H14z"/><path fill="#DB4446" stroke="#000" stroke-width=".029" d="M15.9 18.2c0-.1-.1-.1-.2-.1s-.1 0-.2-.1l-.1-.1h-.2s.1 0 .1.1l.1.1h.2c.2.1.3.1.3.1z"/><path fill="#ED72AA" stroke="#000" stroke-width=".029" d="M16.5 18v.4h-.1v.2l.1.1v.1s0-.1-.1-.1h-.1l.1.1v.1s0-.1-.1-.1l-.1-.1v.3l-.1-.1s-.1 0-.1-.1v.1s0 .2.1.3.2.3.4.2.1-.4.1-.5-.1-.3-.1-.4V18c0-.1.1-.1.1-.2v-.2s0 .1.1.1v.1s0-.1.1-.1.1-.1.2-.1v.2l-.1.2h.2l-.1.1c-.1.1 0 .1-.1.2 0 .1-.1.1-.1.1-.1.1 0 .3 0 .4l.2.4c0 .1 0 .2-.1.4-.1.1-.2.1-.3.1 0 0-.1.1-.1.2s0 .2.1.2h.1v.2l-.1.1-.1.2v.1s.1.1 0 .1h-.2v-.2.1h-.2s0-.1.1-.1c0 0 .1 0 0 0H16v-.2h.2v-.1s-.1 0-.1-.1v-.1.2l-.1-.1v-.1.2l-.1-.1s-.1 0-.1-.1v-.3h.2-.1v.4s0 .1-.1.1h-.4s-.1 0 0 .1v.1h-.2v-.1H15v-.1s-.1-.1 0-.1h.1v-.1s-.1 0 0-.1h.1s0-.1.1 0v.1c0 .1.1.1.2.1h.1V20v.1-.3.2-.3s.1-.1.2-.1h.4s-.2-.1-.3-.1-.1-.1-.2-.2v-.1h-.1s-.1 0-.1.1l-.1.1v-.2s0 .1-.1.1-.1.1-.1.1v-.2s0 .1-.1.1H15v.1h-.2v-.1h-.2v-.1h.1-.1s-.1 0 0-.1c0 0 0-.1.1 0 0 0 0 .1.1.1h.2l.1-.1.1-.1s-.1 0-.1-.1l-.1-.1h-.2.2-.3.2-.1v-.1h-.1v-.1h.1l-.1-.1s-.1 0 0-.1h.1s0-.1.1-.1l.1.1v-.2h.2v.2l.1.1s.1 0 .1.1c0 0 .1.1.2.1h.4s.1 0 .1-.1l-.1-.1h.1c.1 0 .1 0 .1-.1s0-.1-.1-.1-.1 0-.2-.1v-.1h.2V18h.1s.1.1.2.1c0-.2.1-.1.1-.1"/><path fill="none" stroke="#000" stroke-width=".029" d="M15.4 18.5s-.1 0 0 0l-.1.1h.3s-.1.1 0 .1v.2h.1c.1 0 .1 0 .1-.1l.1-.1v.2h.1s.1 0 .1-.1v-.1.1l.1.1v-.1l.1-.1v-.1.1m-1 .2c.1-.1.1-.1.2-.1h.1m0 .3s.1 0 .1-.1c.1 0 .1-.1.1-.1"/><path fill="none" stroke="#000" stroke-width=".019" d="M16.4 18.3s-.1-.1 0 0"/><path fill="none" stroke="#000" stroke-width=".029" d="M16.1 19.6s.2.1.1.2c0 .1-.1.2-.1.2"/><path stroke="#000" stroke-width=".019" d="M15.7 18s0-.1 0 0q0-.15 0 0 0-.15 0 0z"/><path stroke="#000" stroke-width=".004" d="M16 17.9q0-.15 0 0c.1 0 .1.1.1.1s0-.1-.1-.1q.15 0 0 0z"/><path stroke="#000" stroke-width=".019" d="M15.8 18"/><path fill="#DB4446" stroke="#000" stroke-width=".029" d="M14.9 18h.1v-.1c0-.1-.1-.1-.1-.1v.2c0-.1 0 0 0 0zM14.7 18h-.2.1c0 .1 0 .1.1 0q-.15.15 0 0c0 .1 0 0 0 0zM14.6 18.3l-.1.1h.2s-.1 0-.1-.1zM14.8 19h-.2.1c0 .1 0 .1.1 0-.1.1 0 .1 0 0 0 .1 0 0 0 0zM14.7 19.3s0-.1 0 0l-.1.1s0-.1.1-.1v.1-.1c.1 0 0 0 0 0zM14.8 19.5l.1.1-.1-.1h.1-.1c.1 0 0 0 0 0zM15.4 20s0-.1 0 0h-.2.2q-.15 0 0 0zM15.2 20.2h-.1v.1l.1-.1v.1-.1zM15.4 20.4s-.1.1 0 0c0 .1.1.1.1.1s-.1 0-.1-.1c.1.1.1 0 .1 0h-.1zM16.3 20.5s-.1 0 0 0c-.1 0-.2.1-.2.1s.1 0 .2-.1q0 .15 0 0 0 .15 0 0zM16.3 20.7s0 .1 0 0v.2-.2l.1.1s0-.1-.1-.1c.1 0 0 0 0 0zM16.6 20.8s-.1 0 0 0l.1.1s-.1 0-.1-.1h.1-.1z"/><path fill="#C8B100" stroke="#000" stroke-width=".019" d="M16.4 17.7h-.1v-.1h-.1l-.1-.1v.2c.1 0 .1.1.2.1l.2.2h.2-.1v-.1h-.1c-.1-.1-.1-.1-.1-.2 0 .1 0 0 0 0z"/><path stroke="#000" stroke-width=".004" d="M16.3 17.8q-.15 0 0 0zM16.3 17.8q.15 0 0 0c.1.1 0 .1 0 0M16.2 17.7s0 .1 0 0q0 .15 0 0M16.1 17.7zM16.4 17.9zM16.4 17.9q.15.15 0 0c.1.1.1 0 0 0M16.5 18z"/><path fill="#C8B100" stroke="#000" stroke-width=".019" d="M16.2 17.6s.1 0 0 0q.15 0 0 0 .15 0 0 0zM16.1 17.5s-.1 0 0 0c-.1 0 0-.1 0 0zM16.1 17.5q0 .15 0 0 0 .15 0 0zM16.4 17.7zM16.6 17.9s0-.1 0 0c0-.1-.1-.1 0 0-.1-.1-.1 0 0 0-.1 0 0 0 0 0zM16.7 18s.1 0 0 0q.15 0 0 0c0-.1 0 0 0 0zM16.7 18s-.1 0 0 0z"/><path fill="#C8B100" stroke="#000" stroke-linejoin="round" stroke-width=".025" d="M13.6 20.6s-.1.1-.1.2v.2l-.1-.1c-.1 0-.1 0-.1.1v.2h.1s.1 0 .1.1h-.1v.1h.1l-.1.1h.1l.1.1.1-.1h.1l-.1-.1h.1v-.1h-.1s0-.1.1-.1h.1V21c0-.1 0-.1-.1-.1 0 0-.1 0-.1.1v-.2c0-.1-.1-.2-.1-.2z"/><path fill="#C8B100" stroke="#000" stroke-width=".025" d="M13.5 21.3h.3v-.1l-.3.1z"/><path fill="#C8B100" stroke="#000" stroke-linejoin="round" stroke-width=".025" d="M14.4 20.6s-.1.1-.1.2v.2l-.1-.1c-.1 0-.1 0-.1.1v.2h.1s.1 0 .1.1h-.1v.1h.1l-.1.1h.1l.1.1.1-.1h.1l-.1-.1h.1v-.1h-.1s0-.1.1-.1h.1V21c0-.1 0-.1-.1-.1 0 0-.1 0-.1.1v-.2c0-.1-.1-.2-.1-.2z"/><path fill="#C8B100" stroke="#000" stroke-width=".025" d="M14.2 21.3h.3v-.1l-.3.1z"/><path fill="#C8B100" stroke="#000" stroke-linejoin="round" stroke-width=".025" d="M14 21.3s-.1.1-.1.2v.2l-.1-.1c-.1 0-.1 0-.1.1v.2h.1s.1 0 .1.1h-.1.1l-.1.1h.1l.1.1.1-.1h.1l-.1-.1h.1v-.1h-.1s0-.1.1-.1h.1v-.2c0-.1 0-.1-.1-.1 0 0-.1 0-.1.1v-.2l-.1-.1z"/><path fill="#C8B100" stroke="#000" stroke-width=".025" d="M13.8 22h.3v-.1l-.3.1z"/><ellipse cx="8.5" cy="16.5" fill="#C8B100" stroke="#000" stroke-width=".019" rx=".1" ry=".2"/><circle cx="8.5" cy="16.3" r=".1" fill="#C8B100"/><circle cx="19.5" cy="16.5" r=".1" fill="#C8B100" stroke="#000" stroke-width=".019"/><circle cx="19.5" cy="16.3" r=".1" fill="#C8B100"/><circle cx="14" cy="12.9" r=".3" fill="#005BBF" stroke="#000" stroke-width=".019"/><circle cx="14" cy="14.5" r=".1" fill="#FFF" stroke="#000" stroke-width=".029"/><circle cx="14" cy="14.2" r=".1" fill="#FFF" stroke="#000" stroke-width=".029"/><circle cx="14" cy="13.9" r=".1" fill="#FFF" stroke="#000" stroke-width=".029"/><circle cx="14" cy="13.7" r=".1" fill="#FFF" stroke="#000" stroke-width=".029"/><circle cx="14" cy="13.5" r=".1" fill="#FFF" stroke="#000" stroke-width=".029"/><circle cx="10.2" cy="15.2" r=".1" fill="#FFF" stroke="#000" stroke-width=".029"/><circle cx="10.1" cy="15" r=".1" fill="#FFF" stroke="#000" stroke-width=".029"/><circle cx="10" cy="14.8" r=".1" fill="#FFF" stroke="#000" stroke-width=".029"/><circle cx="10" cy="14.5" r=".1" fill="#FFF" stroke="#000" stroke-width=".029"/><circle cx="10.1" cy="14.3" r=".1" fill="#FFF" stroke="#000" stroke-width=".029"/><circle cx="10.2" cy="14.1" r=".1" fill="#FFF" stroke="#000" stroke-width=".029"/><circle cx="10.3" cy="13.9" r=".1" fill="#FFF" stroke="#000" stroke-width=".029"/><circle cx="10.5" cy="13.7" r=".1" fill="#FFF" stroke="#000" stroke-width=".029"/><circle cx="10.8" cy="13.6" r=".1" fill="#FFF" stroke="#000" stroke-width=".029"/><circle cx="11" cy="13.5" r=".1" fill="#FFF" stroke="#000" stroke-width=".029"/><circle cx="11.3" cy="13.5" r=".1" fill="#FFF" stroke="#000" stroke-width=".029"/><circle cx="11.5" cy="13.5" r=".1" fill="#FFF" stroke="#000" stroke-width=".029"/><circle cx="11.8" cy="13.5" r=".1" fill="#FFF" stroke="#000" stroke-width=".029"/><circle cx="12.1" cy="14.6" r=".1" fill="#FFF" stroke="#000" stroke-width=".029"/><circle cx="11.9" cy="14.4" r=".1" fill="#FFF" stroke="#000" stroke-width=".029"/><circle cx="11.9" cy="14.2" r=".1" fill="#FFF" stroke="#000" stroke-width=".029"/><circle cx="11.9" cy="13.9" r=".1" fill="#FFF" stroke="#000" stroke-width=".029"/><circle cx="11.9" cy="13.7" r=".1" fill="#FFF" stroke="#000" stroke-width=".029"/><circle cx="12" cy="13.5" r=".1" fill="#FFF" stroke="#000" stroke-width=".029"/><circle cx="12.2" cy="13.3" r=".1" fill="#FFF" stroke="#000" stroke-width=".029"/><circle cx="12.5" cy="13.2" r=".1" fill="#FFF" stroke="#000" stroke-width=".029"/><circle cx="12.7" cy="13.1" r=".1" fill="#FFF" stroke="#000" stroke-width=".029"/><circle cx="13" cy="13.1" r=".1" fill="#FFF" stroke="#000" stroke-width=".029"/><circle cx="13.2" cy="13.1" r=".1" fill="#FFF" stroke="#000" stroke-width=".029"/><circle cx="13.5" cy="13.1" r=".1" fill="#FFF" stroke="#000" stroke-width=".029"/><circle cx="13.7" cy="13.2" r=".1" fill="#FFF" stroke="#000" stroke-width=".029"/><circle cx="14.3" cy="13.2" r=".1" fill="#FFF" stroke="#000" stroke-width=".029"/><circle cx="14.5" cy="13.1" r=".1" fill="#FFF" stroke="#000" stroke-width=".029"/><circle cx="14.8" cy="13.1" r=".1" fill="#FFF" stroke="#000" stroke-width=".029"/><circle cx="15" cy="13.1" r=".1" fill="#FFF" stroke="#000" stroke-width=".029"/><circle cx="15.3" cy="13.1" r=".1" fill="#FFF" stroke="#000" stroke-width=".029"/><circle cx="15.5" cy="13.2" r=".1" fill="#FFF" stroke="#000" stroke-width=".029"/><circle cx="15.7" cy="13.3" r=".1" fill="#FFF" stroke="#000" stroke-width=".029"/><circle cx="15.9" cy="13.5" r=".1" fill="#FFF" stroke="#000" stroke-width=".029"/><circle cx="16" cy="13.7" r=".1" fill="#FFF" stroke="#000" stroke-width=".029"/><circle cx="16.1" cy="13.9" r=".1" fill="#FFF" stroke="#000" stroke-width=".029"/><circle cx="16.1" cy="14.2" r=".1" fill="#FFF" stroke="#000" stroke-width=".029"/><circle cx="16" cy="14.4" r=".1" fill="#FFF" stroke="#000" stroke-width=".029"/><circle cx="15.9" cy="14.6" r=".1" fill="#FFF" stroke="#000" stroke-width=".029"/><circle cx="16.2" cy="13.5" r=".1" fill="#FFF" stroke="#000" stroke-width=".029"/><circle cx="16.4" cy="13.5" r=".1" fill="#FFF" stroke="#000" stroke-width=".029"/><circle cx="16.7" cy="13.5" r=".1" fill="#FFF" stroke="#000" stroke-width=".029"/><circle cx="16.9" cy="13.5" r=".1" fill="#FFF" stroke="#000" stroke-width=".029"/><circle cx="17.2" cy="13.6" r=".1" fill="#FFF" stroke="#000" stroke-width=".029"/><circle cx="17.4" cy="13.7" r=".1" fill="#FFF" stroke="#000" stroke-width=".029"/><circle cx="17.6" cy="13.9" r=".1" fill="#FFF" stroke="#000" stroke-width=".029"/><circle cx="17.8" cy="14.1" r=".1" fill="#FFF" stroke="#000" stroke-width=".029"/><circle cx="17.9" cy="14.3" r=".1" fill="#FFF" stroke="#000" stroke-width=".029"/><circle cx="18" cy="14.5" r=".1" fill="#FFF" stroke="#000" stroke-width=".029"/><circle cx="18" cy="14.8" r=".1" fill="#FFF" stroke="#000" stroke-width=".029"/><circle cx="17.9" cy="15" r=".1" fill="#FFF" stroke="#000" stroke-width=".029"/><circle cx="17.8" cy="15.2" r=".1" fill="#FFF" stroke="#000" stroke-width=".029"/><circle cx="12.3" cy="15.3" r=".2" fill="#AD1519" stroke="#000" stroke-width=".029"/><circle cx="14" cy="15.2" r=".2" fill="#AD1519" stroke="#000" stroke-width=".029"/><circle cx="15.7" cy="15.3" r=".2" fill="#AD1519" stroke="#000" stroke-width=".029"/><ellipse cx="14" cy="21.3" fill="#AD1519" stroke="#000" stroke-width=".045" rx="1.2" ry="1.4"/><ellipse cx="14" cy="21.3" fill="#005BBF" stroke="#000" stroke-width=".045" rx=".8" ry="1"/></svg>