<svg xmlns="http://www.w3.org/2000/svg" xml:space="preserve" width="40" height="40" baseProfile="tiny" overflow="visible" version="1.2" viewBox="0 0 40 40"><path fill="#C60B1E" d="M1 26.7h38v5.8H1zM1 7.5h38v5.8H1z"/><path fill="#FFC400" d="M1 13.3h38v13.5H1z"/><path fill="#992528" fill-rule="evenodd" d="M10.2 17.2s-.1 0 0 0q-.15 0 0 0h-.1c-.1-.1-.1-.1.1 0q-.15-.15 0 0c-.1-.1 0-.1 0 0q0-.15 0 0l.1-.1h.9-.4c-.2 0-.6.1-.6.1"/><path fill="#AD1519" stroke="#000" stroke-linejoin="round" stroke-width=".017" d="M7.8 18.2s-.1 0 0 0c-.1 0-.1-.1-.1-.1v-.2c0-.1.1-.1.1-.1H9s.1 0 .1.1v.4h-.2s-.3-.1-.5-.1h-.6z"/><path fill="#C8B100" stroke="#000" stroke-width=".019" d="M8.3 17.6h-.2.1v-.1l.1.1"/><path fill="none" stroke="#000" stroke-width=".017" d="M8.3 17.6v.1c-.1 0-.1 0 0-.1q-.15 0 0 0"/><path fill="#C8B100" stroke="#000" stroke-width=".017" d="M8.3 18.2H8v-.3l-.2-.2c.1 0 .2.1.3.2h.3c.1-.2.3-.3.3-.2l-.2.2v.3h-.2z"/><path fill="none" stroke="#000" stroke-width=".017" d="M7.7 17.8c.1 0 .2.1.3.2m.8-.2c-.1 0-.2.1-.3.2"/><path fill="#C8B100" stroke="#000" stroke-width=".017" d="M7.8 18.4q0-.15 0 0c.1-.1.3-.1.5-.1s.4 0 .5.1v.2c-.1 0-.3-.1-.4-.1-.3-.1-.5-.1-.6-.1"/><path fill="#C8B100" stroke="#000" stroke-width=".017" d="M8.3 18.5h.4s.1 0 .1-.1c-.1 0-.3-.1-.4-.1-.2 0-.3 0-.4.1l.1.1zM8.8 18.2h-.1l-.1-.1h-.30000000000000004l-.1-.1s0 .1-.1.1h-.30000000000000004l-.1.1h-.1c.1 0 .3-.1.5-.1s.5.1.7.1z"/><path fill="#C8B100" stroke="#000" stroke-width=".017" d="M8.3 18.1s0 .1 0 0c.1.1.1.1.2 0 0 0 0 .1.1.1 0 0 .1 0 .1-.1 0 0 0 .1.1.1h.3s0 .1-.1.1h-.2s-.1 0-.1-.1h-.3c-.1 0-.1 0-.1-.1 0 .1-.1.1-.1.1h-.3l-.1.1h-.2l-.1-.1h.3s.1 0 .1-.1c0 0 0 .1.1.1 0 0 .1 0 .1-.1 0 0 0 .1.2 0-.1.1-.1 0 0 0q-.15 0 0 0z"/><path fill="#C8B100" stroke="#000" stroke-linejoin="round" stroke-width=".017" d="M8.3 18.2c-.2 0-.4 0-.5.1.1-.1.3-.1.5-.1h.5c-.2.1-.4 0-.5 0z"/><path fill="#C8B100" stroke="#000" stroke-width=".017" d="M7.6 18.2s0-.1 0 0c0-.1-.1-.1 0 0q-.15-.15 0 0 0-.15 0 0 0-.15 0 0 0-.15 0 0c0-.1 0 0 0 0zM7.7 18.1h-.1.1M7.6 18.1q.15.15 0 0 0 .15 0 0 0 .15 0 0zM7.8 18.2q0-.15 0 0 0-.15 0 0zM7.8 18.1h.1-.1M7.9 18v.1-.1M8 18.1h-.1.1M8.1 18.1zM8.1 18h.1-.1M8.3 17.9v.1-.1M8.4 18h-.1.1M8.4 18.1zM8.5 18.1h.1-.1M8.6 18v.1-.1M8.7 18.1h-.1.1M8.7 18.2q0-.15 0 0 0-.15 0 0zM8.9 18.2s0-.1 0 0q.15-.15 0 0 .15-.15 0 0 0-.15 0 0 0-.15 0 0 0-.15 0 0c0-.1 0 0 0 0zM8.8 18.1h.1-.1M8.9 18.1c0 .1-.1.1 0 0q0 .15 0 0 0 .15 0 0z"/><path fill="#AD1519" stroke="#000" stroke-width=".017" d="M7.8 18.4"/><path fill="#058E6E" stroke="#000" stroke-width=".017" d="M8 18.3q-.15 0 0 0-.15 0 0 0"/><path fill="#AD1519" stroke="#000" stroke-width=".017" d="M8.3 18.3q-.15 0 0 0-.15 0 0 0"/><path fill="#058E6E" stroke="#000" stroke-width=".017" d="M8.6 18.3q-.15 0 0 0-.15 0 0 0"/><path fill="#AD1519" stroke="#000" stroke-width=".017" d="M8.7 18.4"/><path fill="#AD1519" stroke="#000" stroke-linejoin="round" stroke-width=".017" d="M8.3 18.5h-.4c.1-.1.2-.1.4 0 .2-.1.3-.1.4 0z"/><path fill="none" stroke="#000" stroke-width=".001" d="M8.2 18.5"/><path fill="none" stroke="#000" stroke-width=".002" d="M8.2 18.5"/><path fill="none" stroke="#000" stroke-width=".003" d="M8.2 18.5"/><path fill="none" stroke="#000" stroke-width=".004" d="M8.1 18.5"/><path fill="none" stroke="#000" stroke-width=".005" d="M8.1 18.5"/><path fill="none" stroke="#000" stroke-width=".006" d="M8 18.5"/><path fill="none" stroke="#000" stroke-width=".007" d="M8 18.5"/><path fill="none" stroke="#000" stroke-width=".008" d="M7.9 18.5"/><path fill="none" stroke="#000" stroke-width=".009" d="M7.9 18.5"/><path fill="none" stroke="#000" stroke-width=".01" d="M7.9 18.5"/><path fill="none" stroke="#000" stroke-width=".011" d="M7.9 18.5"/><path fill="#005BBF" stroke="#000" stroke-width=".025" d="M9.2 25.1c-.1 0-.2 0-.2-.1h-.2c-.1 0-.2 0-.2.1-.1 0-.2.1-.2.1-.1 0-.2 0-.2-.1-.3-.1-.3-.1-.4-.1s-.2 0-.2.1c-.1 0-.2.1-.3.1v.2c.1 0 .2 0 .3-.1.1 0 .1-.1.2-.1s.2 0 .2.1c.1 0 .2.1.2.1.1 0 .2 0 .2-.1.1 0 .2-.1.2-.1.1 0 .2 0 .2.1.1 0 .2.1.2.1l.2-.3z"/><path fill="#CCC" stroke="#000" stroke-width=".025" d="M9.2 25.3c-.1 0-.2 0-.2-.1-.1 0-.2-.1-.2-.1-.1 0-.2 0-.2.1-.1 0-.2.1-.2.1-.1 0-.2 0-.2-.1-.1 0-.1-.1-.2-.1s-.2 0-.2.1c-.1 0-.2.1-.3.1v.2c.1 0 .2 0 .3-.1.1 0 .1-.1.2-.1s.2 0 .2.1c.1 0 .2.1.2.1.1 0 .2 0 .2-.1.1 0 .2-.1.2-.1.1 0 .2 0 .2.1.1 0 .2.1.2.1v-.2"/><path fill="#005BBF" stroke="#000" stroke-width=".025" d="M9.2 25.4c-.1 0-.2 0-.2-.1-.1 0-.2-.1-.2-.1-.1 0-.2 0-.2.1-.1 0-.2.1-.2.1-.1 0-.2 0-.2-.1-.1 0-.1-.1-.2-.1s-.2 0-.2.1c-.1 0-.2.1-.3.1v.2c.1 0 .2 0 .3-.1.1 0 .1-.1.2-.1s.2 0 .2.1c.1 0 .2.1.2.1.1 0 .2 0 .2-.1.1 0 .2-.1.2-.1.1 0 .2 0 .2.1.1 0 .2.1.2.1v-.2"/><path fill="#CCC" stroke="#000" stroke-width=".025" d="M9.2 25.7c-.1 0-.2 0-.2-.1-.1 0-.2-.1-.2-.1-.1 0-.2 0-.2.1-.1 0-.2.1-.2.1-.1 0-.2 0-.2-.1-.1 0-.1-.1-.2-.1s-.2 0-.2.1c-.1 0-.2.1-.3.1v-.2c.1 0 .2 0 .3-.1.1 0 .1-.1.2-.1s.2 0 .2.1c.1 0 .2.1.2.1.1 0 .2 0 .2-.1.1 0 .2-.1.2-.1.1 0 .2 0 .2.1.1 0 .2.1.2.1v.2"/><path fill="#005BBF" stroke="#000" stroke-width=".025" d="M9.2 25.9c-.1 0-.2 0-.2-.1-.1 0-.2-.1-.2-.1-.1 0-.2 0-.2.1-.1 0-.2.1-.2.1-.1 0-.2 0-.2-.1-.1 0-.1-.1-.2-.1s-.2 0-.2.1c-.1 0-.2.1-.3.1v-.2c.1 0 .2 0 .3-.1.1 0 .1-.1.2-.1s.2 0 .2.1c.1 0 .2.1.2.1.1 0 .2 0 .2-.1.1 0 .2-.1.2-.1.1 0 .2 0 .2.1.1 0 .2.1.2.1v.2z"/><path fill="#C8B100" stroke="#000" stroke-linejoin="round" stroke-width=".025" d="M7.7 24.5c0 .1-.1.2-.2.2H9c-.1 0-.2-.1-.2-.2H7.7z"/><path fill="#C8B100" stroke="#000" stroke-width=".025" d="M7.7 24.4h1.2000000000000002s0 .1-.1.1l-1.1-.1q0 .15 0 0zM7.5 25.1H9v-.4H7.5z"/><path fill="#CCC" stroke="#000" stroke-width=".025" d="M7.7 24.3h1v-5.1h-1z"/><path fill="none" stroke="#000" stroke-width=".025" d="M8.5 19.3v5.1m.1-5.1v5.1"/><path fill="#C8B100" stroke="#000" stroke-width=".025" d="M7.6 18.9H9v-.4H7.6v.4z"/><path fill="#C8B100" stroke="#000" stroke-linejoin="round" stroke-width=".025" d="M7.7 19.1h1.1s-.1 0-.1-.1 0-.1.1-.1H7.7c0 .1.1.1 0 .2.1 0 0 0 0 0z"/><path fill="#C8B100" stroke="#000" stroke-width=".025" d="M7.7 19.1h1.2000000000000002s0 .1-.1.1l-1.1-.1q0 .15 0 0zM7.7 18.9h1.2000000000000002-1.2000000000000002c0 .1 0 0 0 0z"/><path fill="#AD1519" stroke="#000" stroke-width=".025" d="m7.4 23.1-.2.2.1.1c.1.1.2.2.1.3.1-.1.1-.2.1-.3.1-.1 0-.2-.1-.3z"/><path fill="#AD1519" stroke="#000" stroke-linejoin="round" stroke-width=".025" d="M9.8 21.2c-.2-.1-.6-.2-1-.2h-.5c-.6.1-1.1.4-1.1.6l-.2-.5c0-.2.5-.5 1.2-.6.2 0 .4-.1.6 0 .4 0 .8.1 1.1.1l-.1.6"/><path fill="#AD1519" stroke="#000" stroke-width=".025" d="M7.7 21.8c-.3 0-.5-.1-.5-.2q0-.15.3-.3h.3l-.1.5M8.8 21.4c.2 0 .3.1.4.1 0 .1-.1.2-.4.4v-.5"/><path fill="#AD1519" stroke="#000" stroke-linejoin="round" stroke-width=".025" d="M7.1 22.8c0-.1.3-.2.6-.4.2-.1.3-.1.5-.2.5-.2 1-.5.9-.6l.1.5c0 .1-.3.4-.8.6-.2.1-.5.2-.7.3-.3.1-.6.3-.5.4l-.1-.6z"/><path fill="#AD1519" stroke="#000" stroke-width=".017" d="M17.7 18.1s0 .1 0 0c-.1.1-.2 0-.2 0h-.2s0 .1-.1.1h-.1v-.1l.1-.1h.1s.1-.1.2-.1h.4c.1 0 .2 0 .2.1h.1c.1 0 .2.1.1.1v.1h-.1l-.1-.1s-.1.1-.1 0h-.1s0 .1-.2 0c.1.1 0 0 0 0z"/><path fill="#C8B100" stroke="#000" stroke-width=".019" d="M17.8 17.7h-.2.1v-.1l.1.1"/><path fill="none" stroke="#000" stroke-width=".017" d="M17.8 17.7v.1s-.1-.1 0-.1q-.15 0 0 0"/><path fill="none" stroke="#000" stroke-linecap="round" stroke-width=".017" d="M17.1 18.1q0 0 0 0c0-.2.1-.3.2-.3h.1"/><path fill="none" stroke="#000" stroke-width=".017" d="M17.4 18q0-.15 0 0c0-.1.1-.2.1-.2h.1M18.1 18s0-.1 0 0c0-.1-.1-.2-.2-.2h-.1"/><path fill="none" stroke="#000" stroke-linecap="round" stroke-width=".017" d="M18.4 18.1q0 0 0 0c0-.2-.1-.3-.2-.3h-.1"/><path fill="#C8B100" stroke="#000" stroke-width=".017" d="M17.3 18.4q0-.15 0 0c.1-.1.3-.1.5-.1s.4 0 .5.1v.2c-.1 0-.3-.1-.4-.1-.3-.1-.5-.1-.6-.1"/><path fill="#C8B100" stroke="#000" stroke-width=".017" d="M17.7 18.5h.4s.1 0 .1-.1c-.1 0-.3-.1-.4-.1-.2 0-.3 0-.4.1l.1.1zM18.2 18.2h-.1l-.1-.1h-.30000000000000004l-.1-.1s0 .1-.1.1h-.30000000000000004l-.1.1H17c.1 0 .3-.1.5-.1.4.1.6.1.7.1z"/><path fill="#C8B100" stroke="#000" stroke-width=".017" d="M17.7 18.1q.15 0 0 0c.1 0 .1.1 0 0 .1.1.1.1.2 0 0 0 0 .1.1.1 0 0 .1 0 .1-.1 0 0 0 .1.1.1h.3s0 .1-.1.1h-.2s-.1 0-.1-.1h-.3l-.1-.1c0 .1-.1.1-.1.1h-.3l-.1.1H17l-.1-.1h.3s.1 0 .1-.1c0 0 0 .1.1.1 0 0 .1 0 .1-.1.1 0 .1.1.2 0 0 .1 0 0 0 0z"/><path fill="#C8B100" stroke="#000" stroke-linejoin="round" stroke-width=".017" d="M17.7 18.2c-.2 0-.4 0-.5.1.2-.1.3-.1.5-.1h.5c-.1.1-.3 0-.5 0z"/><path fill="#C8B100" stroke="#000" stroke-width=".017" d="M17.1 18.2s0-.1 0 0q-.15-.15 0 0-.15-.15 0 0 0-.15 0 0 0-.15 0 0 0-.15 0 0c0-.1 0 0 0 0zM17.2 18.1h-.1.1M17.1 18.1q0 .15 0 0 0 .15 0 0 0 .15 0 0zM17.3 18.2c-.1-.1 0-.1 0 0q0-.15 0 0zM17.3 18.1h.1-.1M17.4 18v.1-.1M17.5 18.1h-.1.1M17.6 18.1zM17.6 18h.1-.1M17.7 17.9v.1-.1M17.9 18h-.1.1M17.9 18.1zM18 18.1h.1-.1M18.1 18v.1-.1M18.2 18.1h-.1.1M18.2 18.2q0-.15 0 0 0-.15 0 0zM18.4 18.2s0-.1 0 0c0-.1.1-.1 0 0 .1-.1 0-.1 0 0q0-.15 0 0 0-.15 0 0 0-.15 0 0c0-.1 0 0 0 0zM18.3 18.1h.1-.1M18.4 18.1q-.15.15 0 0c-.1.1 0 .1 0 0q0 .15 0 0z"/><path fill="#AD1519" stroke="#000" stroke-width=".017" d="M17.3 18.4"/><path fill="#058E6E" stroke="#000" stroke-width=".017" d="M17.4 18.3q.15 0 0 0 .15 0 0 0"/><path fill="#AD1519" stroke="#000" stroke-width=".017" d="M17.7 18.3q.15 0 0 0 .15 0 0 0"/><path fill="#058E6E" stroke="#000" stroke-width=".017" d="M18 18.3q.15 0 0 0 .15 0 0 0"/><path fill="#AD1519" stroke="#000" stroke-width=".017" d="M18.2 18.4"/><path fill="#AD1519" stroke="#000" stroke-linejoin="round" stroke-width=".017" d="M17.7 18.5h-.4c.1-.1.3-.1.4 0 .2-.1.3-.1.4 0z"/><path fill="none" stroke="#000" stroke-width=".001" d="M17.7 18.5"/><path fill="none" stroke="#000" stroke-width=".002" d="M17.7 18.5"/><path fill="none" stroke="#000" stroke-width=".003" d="M17.6 18.5"/><path fill="none" stroke="#000" stroke-width=".004" d="M17.6 18.5"/><path fill="none" stroke="#000" stroke-width=".005" d="M17.6 18.5"/><path fill="none" stroke="#000" stroke-width=".006" d="M17.5 18.5"/><path fill="none" stroke="#000" stroke-width=".007" d="M17.5 18.5"/><path fill="none" stroke="#000" stroke-width=".008" d="M17.4 18.5"/><path fill="none" stroke="#000" stroke-width=".009" d="M17.4 18.5"/><path fill="none" stroke="#000" stroke-width=".01" d="M17.4 18.5"/><path fill="none" stroke="#000" stroke-width=".011" d="M17.4 18.5"/><path fill="#005BBF" stroke="#000" stroke-width=".025" d="M18.7 25.1c-.1 0-.2 0-.2-.1-.1 0-.2-.1-.2-.1-.1 0-.2 0-.2.1-.1 0-.2.1-.2.1-.1 0-.2 0-.2-.1-.1 0-.1-.1-.2-.1s-.2 0-.2.1c-.1 0-.2.1-.3.1v.2c.1 0 .2 0 .3-.1.1 0 .1-.1.2-.1s.2 0 .2.1c.1 0 .2.1.2.1.1 0 .2 0 .2-.1.1 0 .2-.1.2-.1.1 0 .2 0 .2.1.1 0 .2.1.2.1v-.2z"/><path fill="#CCC" stroke="#000" stroke-width=".025" d="M18.7 25.3c-.1 0-.2 0-.2-.1-.1 0-.2-.1-.2-.1-.1 0-.2 0-.2.1-.1 0-.2.1-.2.1-.1 0-.2 0-.2-.1-.1 0-.1-.1-.2-.1s-.2 0-.2.1c-.1 0-.2.1-.3.1v.2c.1 0 .2 0 .3-.1.1 0 .1-.1.2-.1s.2 0 .2.1c.1 0 .2.1.2.1.1 0 .2 0 .2-.1.1 0 .2-.1.2-.1.1 0 .2 0 .2.1.1 0 .2.1.2.1v-.2"/><path fill="#005BBF" stroke="#000" stroke-width=".025" d="M18.7 25.4c-.1 0-.2 0-.2-.1-.1 0-.2-.1-.2-.1-.1 0-.2 0-.2.1-.1 0-.2.1-.2.1-.1 0-.2 0-.2-.1-.1 0-.1-.1-.2-.1s-.2 0-.2.1c-.1 0-.2.1-.3.1v.2c.1 0 .2 0 .3-.1.1 0 .1-.1.2-.1s.2 0 .2.1c.1 0 .2.1.2.1.1 0 .2 0 .2-.1.1 0 .2-.1.2-.1.1 0 .2 0 .2.1.1 0 .2.1.2.1v-.2"/><path fill="#CCC" stroke="#000" stroke-width=".025" d="M18.7 25.7c-.1 0-.2 0-.2-.1-.1 0-.2-.1-.2-.1-.1 0-.2 0-.2.1-.1 0-.2.1-.2.1-.1 0-.2 0-.2-.1-.1 0-.1-.1-.2-.1s-.2 0-.2.1c-.1 0-.2.1-.3.1v-.2c.1 0 .2 0 .3-.1.1 0 .1-.1.2-.1s.2 0 .2.1c.1 0 .2.1.2.1.1 0 .2 0 .2-.1.1 0 .2-.1.2-.1.1 0 .2 0 .2.1.1 0 .2.1.2.1v.2"/><path fill="#005BBF" stroke="#000" stroke-width=".025" d="M18.7 25.9c-.1 0-.2 0-.2-.1-.1 0-.2-.1-.2-.1-.1 0-.2 0-.2.1-.1 0-.2.1-.2.1-.1 0-.2 0-.2-.1-.1 0-.1-.1-.2-.1s-.2 0-.2.1c-.1 0-.2.1-.3.1v-.2c.1 0 .2 0 .3-.1.1 0 .1-.1.2-.1s.2 0 .2.1c.1 0 .2.1.2.1.1 0 .2 0 .2-.1.1 0 .2-.1.2-.1.1 0 .2 0 .2.1.1 0 .2.1.2.1v.2z"/><path fill="#C8B100" stroke="#000" stroke-linejoin="round" stroke-width=".025" d="M17.2 24.5c0 .1-.1.2-.2.2h1.5c-.1 0-.2-.1-.2-.2h-1.1z"/><path fill="#C8B100" stroke="#000" stroke-width=".025" d="M17.2 24.4h1.2000000000000002s0 .1-.1.1l-1.1-.1c0 .1-.1.1 0 0-.1 0 0 0 0 0zM17 25.1h1.5v-.4H17z"/><path fill="#CCC" stroke="#000" stroke-width=".025" d="M17.2 24.3h1v-5.1h-1z"/><path fill="none" stroke="#000" stroke-width=".025" d="M18 19.3v5.1m.1-5.1v5.1"/><path fill="#C8B100" stroke="#000" stroke-width=".025" d="M17 18.9h1.4v-.4H17v.4z"/><path fill="#C8B100" stroke="#000" stroke-linejoin="round" stroke-width=".025" d="M17.2 19.1h1.1s-.1 0-.1-.1 0-.1.1-.1h-1.1v.2z"/><path fill="#C8B100" stroke="#000" stroke-width=".025" d="M17.2 19.1h1.2000000000000002s0 .1-.1.1l-1.1-.1c0 .1-.1.1 0 0-.1 0 0 0 0 0zM17.2 18.9h1.2000000000000002-1.2000000000000002c0 .1-.1 0 0 0-.1 0 0 0 0 0z"/><path fill="#AD1519" stroke="#000" stroke-width=".025" d="m18.6 23.1.2.2-.1.1c-.1.1-.2.2-.1.3-.1-.1-.1-.2-.1-.3-.1-.1 0-.2.1-.3z"/><path fill="#AD1519" stroke="#000" stroke-linejoin="round" stroke-width=".025" d="M16.2 21.2c.2-.1.6-.2 1-.2h.5c.6.1 1.1.4 1.1.6l.2-.5c0-.2-.5-.5-1.2-.6-.2 0-.4-.1-.6 0-.4 0-.8.1-1.1.1l.1.6"/><path fill="#AD1519" stroke="#000" stroke-width=".025" d="M18.3 21.8c.3 0 .5-.1.5-.2q0-.15-.3-.3h-.3l.1.5M17.2 21.4c-.2 0-.3.1-.4.1 0 .1.1.2.4.4v-.5"/><path fill="#AD1519" stroke="#000" stroke-linejoin="round" stroke-width=".025" d="M18.9 22.8c0-.1-.3-.2-.6-.4-.2-.1-.3-.1-.5-.2-.5-.2-1-.5-.9-.6l-.1.5c0 .1.3.4.8.6.2.1.5.2.7.3.3.1.6.3.5.4l.1-.6z"/><path fill="#C8B100" d="M7.7 20.9c.1 0 .2-.1.2-.2s-.1-.1-.2 0l-.2.1.2.4h.2zm-.1-.1h.1v.1zM8.1 20.6s-.1 0 0 0H8l.1.4h.2-.2zM8.6 20.9c.1-.1.1-.3.2-.4 0 .1-.1.2-.1.3-.1-.1-.1-.2-.2-.3h-.2c.1.2.2.3.3.4M9.2 20.6s0-.1 0 0q-.3-.15-.3 0c0 .1.2.1.2.2 0 0 0 .1-.1.1s-.1 0-.1-.1v.1H9c.1 0 .2 0 .2-.1s-.2-.1-.2-.2zM16.8 21c0-.1.1-.3.1-.4 0 .1-.1.2-.1.3-.1-.1-.1-.2-.2-.3h-.2c.2.1.3.2.4.4M17.2 20.5h-.1v.4h.3-.2zM17.7 20.6h.1-.4.1v.4h.2zM17.8 21s.1 0 0 0h.1v-.2.1l.1.1h.2c0-.1-.1-.1-.1-.2.1 0 .1 0 .1-.1v-.1h-.30000000000000004zm.2-.4s.1 0 .1.1zc.1.2 0 .2 0 .2zM18.5 21.1v.1h.2v-.5l-.4.3.1-.1zm-.1-.1.1-.1v.2z"/><path fill="#AD1519" stroke="#000" stroke-width=".017" d="M13 15.7c.4 0 .8.1 1 .2.1.1.3.1.5.1h.4c.2 0 .4 0 .7.2.2.1.4.2.5.3l-.1.1v.3l-.3.3-.1.1-.3.3h-.2l-.1.1-2-.3-2.1.2-.1-.1h-.2l-.3-.3-.1-.1-.3-.3v-.3l-.1-.1c.1-.1.3-.2.5-.3.3-.1.5-.2.7-.2h.4c.2 0 .4-.1.5-.1.3 0 .6-.1 1.1-.1z"/><path fill="#C8B100" stroke="#000" stroke-width=".025" d="m11.4 16.3.2-.1c-.1-.1-.2-.2-.2-.4v-.1c0-.3.3-.5.8-.5.2 0 .4.1.6.2v-.1c-.2-.1-.4-.1-.6-.1-.5 0-.9.3-.9.6v.1c0 .2.1.3.2.4h-.1"/><path fill="#C8B100" stroke="#000" stroke-width=".025" d="M11.4 16.3c-.2-.1-.3-.3-.3-.5s.1-.4.4-.5c-.1.1-.2.2-.2.4v.1c0 .2.1.3.2.4l-.1.1M9.9 16.5c-.1-.1-.2-.2-.2-.4 0-.1 0-.2.1-.3.1-.3.6-.5 1.1-.5h.4s0 .1-.1.1h-.3c-.5 0-.8.2-1 .4v.2c0 .1.1.3.2.4l-.2.3-.1-.1.1-.1z"/><path fill="#C8B100" stroke="#000" stroke-width=".025" d="m10.1 15.6-.3.3c0 .1-.1.2-.1.3s.1.3.2.4l-.1.2c-.1-.1-.2-.3-.2-.4.1-.4.3-.7.5-.8zM13 15c.1 0 .2.1.2.2v.3c0 .2 0 .4.1.5l-.3.4-.3-.3c0-.1.1-.3.1-.5v-.3c0-.2.1-.3.2-.3z"/><path fill="#C8B100" stroke="#000" stroke-width=".025" d="M13 15.1c.1 0 .1 0 .1.1v.3c0 .2 0 .4.1.5l-.2.3-.2-.2c0-.1.1-.3.1-.5v-.3c0-.2 0-.2.1-.2zM14.6 16.3l-.2-.1c.1-.1.2-.2.2-.4v-.1c0-.3-.3-.5-.8-.5-.2 0-.4.1-.6.2v-.1c.2-.1.4-.1.6-.1.5 0 .9.3.9.6v.1c0 .2-.1.3-.2.4h.1"/><path fill="#C8B100" stroke="#000" stroke-width=".025" d="M14.5 16.3c.2-.1.3-.3.3-.5s-.1-.4-.4-.5c.1.1.2.2.2.4v.1c0 .2-.1.3-.2.4l.1.1M16 16.5c.1-.1.2-.2.2-.4 0-.1 0-.2-.1-.3-.1-.3-.6-.5-1.1-.5h-.4s0 .1.1.1h.3c.5 0 .8.2 1 .4v.2c0 .1-.1.3-.2.4l.2.3.1-.1z"/><path fill="#C8B100" stroke="#000" stroke-width=".025" d="m15.9 15.6.3.3c0 .1.1.2.1.3s-.1.3-.2.4l.1.2c.1-.1.2-.3.2-.4-.1-.4-.3-.7-.5-.8z"/><path fill="#C8B100" stroke="#000" stroke-width=".017" d="M12.9 14v.1h-.2v.1h.2v.4h-.2v.1h.5v-.1H13v-.4h.2v-.1H13V14h-.1z"/><path fill="#C8B100" stroke="#000" stroke-width=".025" d="M13 18.5c-.8 0-1.5-.1-2-.2 0 0-.1 0-.1-.1 0 0 0-.1.1-.1.5-.2 1.2-.2 2-.2s1.5.1 2 .2c0 0 .1 0 .1.1 0 0 0 .1-.1.1-.5.1-1.2.2-2 .2"/><path fill="#C8B100" stroke="#000" stroke-width=".025" d="M13 17.8c-.8 0-1.5.1-2 .3v-.2c-.1-.2-.2-.2-.2-.2.6-.2 1.3-.3 2.2-.3s1.6.1 2.2.3c0 0-.1 0-.2.2v.2c-.5-.2-1.2-.2-2-.3"/><path fill="#C8B100" stroke="#000" stroke-width=".025" d="M13 17.5c-.9 0-1.6.1-2.2.3h-.1v-.1c.6-.2 1.3-.3 2.2-.3s1.7.1 2.2.3c0 0 .1.1 0 .1H15c-.4-.2-1.2-.3-2-.3"/><path fill="#C8B100" stroke="#000" stroke-width=".025" d="M13 16.8c.1 0 .1.1.1.1q0 .3.3.3c.1 0 .3-.1.3-.2v-.1.1c0 .1.2.2.3.2q.3 0 .3-.3l.1-.1.1.1v.1q0 .3.3.3c.1 0 .2 0 .2-.1l.1-.1v.1c0 .1 0 .2.1.2 0 0 .1 0 .3-.1l.2-.2v.1s-.1.2-.3.3c-.1 0-.2.1-.3.1s-.2-.1-.2-.2c-.1 0-.1.1-.2.1-.2 0-.3-.1-.4-.2-.1.1-.2.1-.3.1s-.3-.1-.4-.2c-.1.1-.2.1-.3.1-.2 0-.3-.1-.4-.2-.1.1-.2.2-.4.2-.1 0-.2 0-.3-.1-.1.1-.2.2-.4.2-.1 0-.2-.1-.3-.1-.1.1-.2.2-.4.2-.1 0-.2 0-.2-.1 0 .1-.1.2-.2.2s-.2 0-.3-.1l-.3-.3v-.1l.2.2c.1.1.3.1.3.1.1 0 .1-.1.1-.2v-.1l.1.1c.1.1.1.1.2.1q.3 0 .3-.3v-.1l.1-.1.1.1q0 .3.3.3c.2 0 .3-.1.3-.2v-.1.1c0 .1.2.2.3.2q.3 0 .3-.3c.2 0 .2 0 .3-.1"/><path fill="#C8B100" stroke="#000" stroke-width=".025" d="M10.3 17.2c-.1-.1-.2-.1-.2-.1l-.2-.2h-.2c0-.1.1-.2.2-.2s.1 0 .2.1v-.1s.1 0 .1.1v.2s0-.1.1-.1c0 0 .1-.1.2-.1l.1-.1v.1h.2c0 .1-.1.1-.2.1h.1-.3c0 .3 0 .3-.1.3"/><path fill="#AD1519" stroke="#000" stroke-width=".025" d="M10.1 17.1h.2c.1 0 .1.1 0 .1h-.2v-.1"/><path fill="#FFF" stroke="#000" stroke-width=".025" d="M10.8 17.2v-.1s.1 0 .1.1v.1l-.1-.1"/><path fill="#C8B100" stroke="#000" stroke-width=".025" d="M11.5 16.9q-.15 0 0 0v-.1h-.4c-.1 0-.1.1-.2.1.1 0 .1.1.2.1v.1h.1c.1 0 .1-.1.3-.2-.1.1 0 0 0 0"/><path fill="#C8B100" stroke="#000" stroke-width=".025" d="M11.4 16.3c.1 0 .1.1.1.2h.1v.3h-.1s-.1 0-.1.1l-.1-.1c0-.1-.1-.1-.1-.1v-.1h.2v-.3"/><path fill="#C8B100" stroke="#000" stroke-width=".025" d="M11.6 16.9q.15 0 0 0v-.1l.1-.1.1-.1h.1v.1c.1 0 .2 0 .2.1s-.1.1-.2.1h-.3c.1 0 0 0 0 0"/><path fill="#FFF" stroke="#000" stroke-width=".025" d="M12.2 16.9c0-.1 0-.1.1-.1 0 0 .1 0 .1.1s-.1.1-.2 0q0 .15 0 0"/><path fill="#C8B100" stroke="#000" stroke-width=".025" d="M12.9 16.8v-.2s-.1 0-.1-.1h-.3v.1c-.1 0-.2.1-.2.1.1.1.1.1.2.1v.1h.3l.1-.1"/><path fill="#C8B100" stroke="#000" stroke-width=".025" d="M13 16.1c.1.1.1.2.1.2h.2v.1s0 .1-.1.2c0 .1-.1.1-.1.1h-.2l-.1-.1c0-.1 0-.1-.1-.2v-.1h.2c0-.1 0-.2.1-.2"/><path fill="#C8B100" stroke="#000" stroke-width=".025" d="M13.1 16.8v-.2s.1 0 .1-.1h.3v.1c.1 0 .2.1.2.1-.1.1-.1.1-.2.1v.1h-.3l-.1-.1"/><path fill="#FFF" stroke="#000" stroke-width=".025" d="M13.8 16.9c0-.1 0-.1-.1-.1 0 0-.1 0-.1.1s.1.1.2 0c-.1.1 0 .1 0 0"/><path fill="#C8B100" stroke="#000" stroke-width=".025" d="M14.3 16.9v-.1l-.1-.1-.1-.1H14v.1c-.1 0-.2 0-.2.1s.1.1.2.1h.30000000000000004M14.6 16.3c-.1 0-.1.1-.1.2h-.1v.30000000000000004h.1s.1 0 .1.1l.1-.1c0-.1.1-.1.1-.1v-.1h-.2v-.3"/><path fill="#C8B100" stroke="#000" stroke-width=".025" d="M14.5 16.9s.1 0 0 0v-.1h.4c.1 0 .1.1.2.1-.1.1-.2.1-.3.1v.1h-.1s0-.1-.2-.2c.1.1 0 0 0 0"/><path fill="#FFF" stroke="#000" stroke-width=".025" d="M15.1 17.2v-.1s-.1 0-.1.1v.1c.1 0 .1 0 .1-.1"/><path fill="#C8B100" stroke="#000" stroke-width=".025" d="M15.6 17.2q.15 0 0 0c.1-.1.2-.1.2-.1l.2-.2h.2c0-.1-.1-.2-.2-.2s-.1 0-.2.1v-.1s-.1 0-.1.1v.2s0-.1-.1-.1c0 0-.1-.1-.2-.1l-.1-.1v.1h-.2c0 .1.1.1.2.1h-.1.3l.1.3"/><path fill="#AD1519" stroke="#000" stroke-width=".025" d="M15.8 17.1h-.2c-.1 0-.1.1 0 .1h.2c.1 0 .1 0 0-.1"/><path fill="#AD1519" stroke="#000" stroke-linejoin="round" stroke-width=".025" d="M13 18.4c-.7 0-1.3-.1-1.8-.2.5-.1 1.1-.2 1.8-.2s1.3.1 1.8.2c-.5.1-1.1.2-1.8.2z"/><path fill="none" stroke="#000" stroke-width=".003" d="M13.5 18.4V18m-.2.4V18m-.1.4V18"/><path fill="none" stroke="#000" stroke-width=".006" d="M13 18.4V18"/><path fill="none" stroke="#000" stroke-width=".009" d="M12.9 18.4V18"/><path fill="none" stroke="#000" stroke-width=".011" d="M12.8 18.4V18"/><path fill="none" stroke="#000" stroke-width=".015" d="M12.7 18.4V18"/><path fill="none" stroke="#000" stroke-width=".018" d="M12.6 18.4V18"/><path fill="none" stroke="#000" stroke-width=".021" d="M12.4 18.4V18m.1.4V18"/><path fill="none" stroke="#000" stroke-width=".024" d="M12.3 18.4V18m.1.4V18"/><path fill="none" stroke="#000" stroke-width=".027" d="M12.1 18.3V18m0 .3V18m.1.3V18"/><path fill="none" stroke="#000" stroke-width=".029" d="M12 18.3V18"/><path fill="none" stroke="#000" stroke-width=".032" d="M11.9 18.3V18"/><path fill="none" stroke="#000" stroke-width=".036" d="M11.8 18.3V18"/><path fill="none" stroke="#000" stroke-width=".038" d="M11.7 18.3v-.2m0 .2v-.2"/><path fill="none" stroke="#000" stroke-width=".04" d="M11.6 18.3v-.2"/><path fill="none" stroke="#000" stroke-width=".043" d="M11.5 18.3v-.2"/><path fill="none" stroke="#000" stroke-width=".046" d="M11.4 18.2v-.1"/><path fill="none" stroke="#000" stroke-width=".049" d="M11.3 18.2"/><path fill="none" stroke="#000" stroke-width=".058" d="M11.2 18.2"/><path fill="none" stroke="#000" stroke-width=".025" d="M11.1 18.2c.5-.1 1.2-.2 1.9-.2s1.4.1 1.9.2"/><path fill="#AD1519" stroke="#000" stroke-width=".025" d="m10.9 17.9.1-.1h.2l-.2.2-.1-.1"/><path fill="#FFF" stroke="#000" stroke-width=".025" d="M11.3 17.8s.1-.1 0 0c.1-.1.1 0 .1 0 .1 0 0 .1-.1 0 .1.1 0 0 0 0"/><path fill="#058E6E" stroke="#000" stroke-width=".025" d="M11.9 17.8h-.2s-.1 0-.1-.1c0 0 0-.1.1-.1h.4s.1 0 .1.1 0 .1-.1.1h-.2"/><path fill="#FFF" stroke="#000" stroke-width=".025" d="M12.4 17.7q0-.15 0 0c.1-.1.1 0 .1 0h-.1"/><path fill="#AD1519" stroke="#000" stroke-width=".025" d="M13 17.7h-.2s-.1 0-.1-.1c0 0 0-.1.1-.1h.4s.1 0 .1.1c0 0 0 .1-.1.1H13"/><path fill="#FFF" stroke="#000" stroke-width=".025" d="M13.5 17.7q0-.15 0 0c.1-.1.1 0 .1 0h-.1"/><path fill="#058E6E" stroke="#000" stroke-width=".025" d="M14 17.8h.2s.1 0 .1-.1c0 0 0-.1-.1-.1h-.4s-.1 0-.1.1c0 0 0 .1.1.1h.2"/><path fill="#FFF" stroke="#000" stroke-width=".025" d="M14.5 17.8s0-.1 0 0c.1-.1.1 0 .1 0 .1 0 0 .1-.1 0 0 .1 0 0 0 0"/><path fill="#AD1519" stroke="#000" stroke-width=".025" d="m15.1 17.9-.1-.1h-.2l.2.2.1-.1"/><path fill="#CCC" stroke="#000" stroke-width=".033" d="M13 26c-.8 0-1.7-.2-2.3-.5-.5-.3-.8-.8-.8-1.3V22h6.4v2.1c0 .6-.3 1.1-.8 1.3-.8.4-1.7.6-2.5.6z"/><path fill="#FFD691" stroke="#000" stroke-width=".033" d="M13.2 25.1c.1 0 .2.1.2.3q0 .3-.3.3t-.3-.3c0-.1.1-.2.2-.3h.1s0-.1.1 0q-.15-.15 0 0-.15-.15 0 0 0-.15 0 0 0-.15 0 0c0-.1 0 0 0 0"/><path fill="#058E6E" stroke="#000" stroke-width=".033" d="M13 25.7s-.3-.2-.4-.2h-.4l.1.1.2.1c.3.1.5 0 .5 0M13.1 25.8s.2-.2.3-.2h.4s-.1 0-.1.1c0 0-.1.1-.3.1-.1 0-.2-.1-.3 0"/><path fill="#AD1519" stroke="#000" stroke-width=".033" d="M13 25.6c-.1-.1-.1-.1-.1-.2s0-.2.1-.2c.1.1.1.1.1.2 0 0 0 .1-.1.2"/><path fill="#058E6E" stroke="#000" stroke-width=".033" d="M13 25.9v-.3.1c.1.1.1.2 0 .2.1 0 0 0 0 0"/><path fill="#AD1519" stroke="#000" stroke-width=".033" d="M13 24.1c0 .8-.7 1.5-1.6 1.5s-1.6-.7-1.6-1.5V22H13v2.1"/><path fill="#C8B100" stroke="#000" stroke-width=".033" d="M9.8 24.1c0 .4.2.8.4 1V22h-.4v2.1zM10.5 25.4c.1.1.2.1.4.2V22h-.4zM11.2 25.6h.4v-3.7h-.4zM11.9 25.5c.1 0 .3-.1.4-.2v-3.5h-.4v3.7zM12.7 25c.2-.1.3-.5.4-.8v-2.3h-.4z"/><path fill="#AD1519" stroke="#000" stroke-width=".033" d="M16.2 22v2.1c0 .8-.7 1.5-1.6 1.5s-1.6-.7-1.6-1.5V22h3.2"/><path fill="#C8B100" stroke="#C8B100" stroke-width=".017" d="m14.4 23.6-.3-.3H14l-.2-.2.1-.1-.3-.4v.3h.1v.3h-.1v.3c.1 0 .1.1.1.1h.2v-.1h.3v.1zm-.4-1.2v.1h.2v-.1zm-.5 1.3q.15 0 0 0c.1-.1 0-.1 0-.1s-.1 0 0 .1c-.1 0 0 0 0 0zm1-.6h-.1v-.3h.1v-.1c-.1 0-.1-.1-.1-.1h-.2v.1h-.3v-.1h-.2l.3.4h.1l.2.2-.1.1.3.3zm-.4-.1v.2l.1-.1zm.5 2.3c-.1 0-.1-.1-.2-.1s-.2 0-.3-.1l.1-.1c.1 0 .2.1.3.1l.1-.1v-.4h-.1v-.3h.1v-.5l-.3.3.1.1-.2.2h-.1l-.2.2v.2l.2.2H14c-.1-.1-.2-.1-.2-.2h-.2c-.1-.1-.1-.2 0-.2 0-.1-.1-.2-.1-.3h.1c0 .1 0 .2.1.3h.1l.2-.2-.1-.1.2-.2h.1l.3-.3h-.2v.1H14v-.1h-.2l-.1.1v.3h-.1v-.3c-.1 0-.1-.1-.1-.2s.1-.1.1-.2v-.3h-.1v-.3h.1v-.3c-.1 0-.1-.1-.1-.2s.1-.2.2-.2.1 0 .2.1h.2v-.1h.3v.1h.2c0-.1.1-.1.2-.1v.5h-.1v.3h.1v1.6zm-.4-1.2-.2.1.1.1zm-.6-1.2h-.1v.2h.1zm.6.8v-.1H14v.1zm-.7.6h-.1V24h.1v.3zm.1-.4h.1v.2h-.1v-.2zm.7 1.1v-.1c-.1 0-.2-.1-.3-.1l-.1.1c.1 0 .2.1.4.1zm-.1.1c-.2 0-.3 0-.3-.1v-.1c.1.1.2.2.3.2z"/><path fill="#C8B100" stroke="#C8B100" stroke-width=".017" d="m14.7 23.6.3-.3h.1l.2-.2-.1-.1.3-.4v.3h-.1v.3h.1v.3c-.1 0-.1.1-.1.1h-.2v-.1h-.3v.1zm.5-1.2v.1H15v-.1zm.5 1.3q-.15 0 0 0c-.1-.1 0-.1 0-.1v.1zm-1.1-.6h.1v-.3h-.1v-.1c.1 0 .1-.1.1-.1h.2v.1h.3v-.1h.2l-.3.4H15l-.2.2.1.1-.3.3zm.5-.1v.2l-.1-.1zm-.5 2.3c.1 0 .1-.1.2-.1s.2 0 .3-.1L15 25c-.1 0-.2.1-.3.1l-.1-.1v-.4h.1v-.3h-.1v-.5l.3.3-.1.1.2.2h.1l.2.2v.2l-.2.2.1.1c.1-.1.2-.1.2-.2h.2c.1-.1.1-.2 0-.2 0-.1.1-.2.1-.3h-.1c0 .1 0 .2-.1.3h-.1l-.2-.2.1-.1-.2-.2-.1-.2-.3-.3h.2v.1h.3v-.1h.2l.1.1v.3h.1v-.3c.1 0 .1-.1.1-.2s-.1-.1-.1-.2v-.3h.1v-.3h-.1v-.3c.1 0 .1-.1.1-.2s-.1-.2-.2-.2-.1 0-.2.1h-.2v-.1H15v.1h-.2c0-.1-.1-.1-.2-.1v.5h.1v.4h-.1v2.3zm.4-1.2.2.1-.1.1zm.6-1.2h.1v.2h-.1zm-.6.8v-.1h.2v.1zm.7.6h.1V24h-.1v.3zm-.1-.4h-.1v.2h.1v-.2zm-.7 1.1v-.1c.1 0 .2-.1.3-.1l.1.1c-.2 0-.3.1-.4.1zm.1.1c.2 0 .3 0 .3-.1v-.1c-.1.1-.2.2-.3.2z"/><path fill="#058E6E" d="M14.4 23.6c0-.1.1-.2.2-.2s.2.1.2.2-.1.2-.2.2-.2-.1-.2-.2"/><path fill="#AD1519" stroke="#000" stroke-width=".033" d="M9.8 22H13v-3.5H9.8z"/><path fill="#C8B100" stroke="#000" stroke-width=".029" d="m10.9 19.3-.2-.1v.2h.1v.2h-.2v.5h.1v.9h-.2v.5h1.8V21h-.2v-.9h.1v-.5H12v-.2h.1v-.2H12v.1h-.1v-.1h-.1v.1h-.1v-.1h-.1v.2h.1v.2h-.2v-.5h.1v-.2h-.1v.1h-.1v-.1h-.1v.1h-.1v-.1h-.1v.2h.1v.5H11v-.2h.1v-.2H11v.1-.1l-.1.1zm-.4 2.2h1.8m-1.8-.1h1.8m-1.8-.1h1.8m-1.8-.2h1.8m-1.8-.1h1.8m-1.6-.1H12m-1.3-.1H12m-1.3-.1H12m-1.3-.2H12m-1.3-.1H12m-1.3-.1H12m-1.3-.1H12m-1.4-.1h1.6m-1.6-.1h1.6m-1.6-.2h1.6m-1.6-.1h1.6m-1.4-.1H12m-.7-.1h.2m-.2-.1h.2m-.2-.1h.2m-.2-.2h.2m-.3-.1h.5m-.9.5h.2m-.3-.2h.4m-.4 2.2v-.1m0-.1v-.1m-.1.1v.1m.2 0v-.1m.2.2v-.1m0-.1v-.1m0-.2v-.1m0-.1v-.1m-.2.4V21m-.2.1V21m.5 0v.1m.1-.1v-.1m-.4-.1v.1m.3-.1v.1m.2-.1v.1m-.1-.1v-.1m.1-.2v.1m0-.3v.1m-.1-.2v.1m.1-.2v.1m-.2-.1v.1m-.3-.1v.1m-.1-.2v.1m.3-.1v.1m.2-.1v.1m.1-.3v.2m-.2-.2v.2m-.3-.2v.2m-.1-.3v.1m.5-.1v.1m-.2-.3v.1m1-.1h-.2m.3-.2h-.4m.4 2.2v-.1m0-.1v-.1m.1.1v.1m-.2 0v-.1m-.1.2v-.1m0-.1v-.1m0-.2v-.1m0-.1v-.1m.1.4V21m.2.1V21m-.5 0v.1m-.1-.1v-.1m.4-.1v.1m-.3-.1v.1m-.2-.1v.1m.1-.1v-.1m-.1-.2v.1m0-.3v.1m.1-.2v.1m-.1-.2v.1m.2-.1v.1m.3-.1v.1m.1-.2v.1m-.2-.1v.1m-.3-.1v.1m-.1-.3v.2m.2-.2v.2m.3-.2v.2m.1-.3v.1m-.5-.1v.1m.3-.3v.1m-.5 1.2v-.1m0-.4v-.1m0 .3v-.1m0-.3V20m0-.2v-.1m0-.2v-.1m0-.1v-.1m-.6.2h.2m.3-.3h.2m.2.3h.3"/><path fill="#C8B100" stroke="#000" stroke-width=".029" d="M11.7 21.5v-.3c0-.1 0-.2-.3-.2s-.3.2-.3.2v.3z"/><path fill="#C8B100" stroke="#000" stroke-width=".029" d="M11.2 21.2h-.1c0-.1 0-.1.1-.2v.2c0-.1 0 0 0 0zM11.5 21.1l.1-.1h-.2l.1.1zM11.6 21.2h.1c0-.1 0-.1-.1-.2v.2c0-.1 0 0 0 0zM11.2 20.7v-.3c0-.1-.1-.2-.2-.2s-.2.1-.2.2v.3h.4zM11.6 20.7v-.3c0-.1.1-.2.2-.2s.2.1.2.2v.3zM11.1 19.9v-.3h-.3v.3zM11.5 19.9v-.3h-.3v.3zM11.7 19.9v-.3h.3v.3h-.3z"/><path fill="#0039F0" d="M11.6 21.5v-.3s0-.2-.2-.2-.2.1-.2.2v.3zM11.2 20.7v-.3c0-.1 0-.1-.1-.1s-.1.1-.1.1v.3zM11.7 20.7v-.3c0-.1 0-.1.1-.1s.1.1.1.1v.3z"/><path fill="#CCC" stroke="#000" stroke-width=".033" d="M13 22h3.2v-3.5H13z"/><path fill="#DB4446" stroke="#000" stroke-width=".025" d="M14.6 19.3c0-.1-.1-.1-.1-.1-.1 0-.1 0-.2-.1-.1 0-.1-.1-.1-.1H14s.1 0 .1.1.1.1.1.1h.2c.1.1.2.1.2.1z"/><path fill="#ED72AA" stroke="#000" stroke-width=".025" d="M15.1 19.2v.6l.1.1v.1l-.1-.1H15l.1.1v.1L15 20l-.1-.1v.3l-.1-.1h-.1v.1s0 .1.1.3c.1.1.2.2.3.2.2 0 .1-.3.1-.4s-.1-.3-.1-.3v-.4c0-.1 0-.1.1-.2v-.2.2s0-.1.1-.1.1-.1.1-.1v.2l-.1.1h.2l-.1.1c-.1.1 0 .1-.1.1 0 .1-.1.1-.1.1-.1.1 0 .3 0 .3s.1.3.1.4 0 .2-.1.3-.2.1-.2.1-.1.1-.1.2 0 .1.1.2h.1v.1l-.1.1s-.1.1-.1.2v.1s.1.1 0 .1h-.2v.1h-.2v-.1s-.1 0 0 0v-.2h.2v-.1s-.1 0-.1-.1v-.1.2-.2.2s-.1 0-.1-.1l-.1-.1v-.3h-.2v.4h-.4s-.1 0 0 0h-.2v-.2h.1s0-.1 0 0v.1l.1.1h.1v-.2.1-.3.2-.2s0-.1.1-.1h.3l-.2-.1-.1-.1v-.1h-.1s-.1 0-.1.1v.1-.2s0 .1-.1.1l-.1.1v-.2l-.1.1h-.1v.1h-.1v-.1h-.2v-.1h.1-.1s-.1 0 0 0c0 0 0 .1.1.1h.1l.1-.1.1-.1-.1-.1s0-.1-.1-.1h-.2.2-.3.2-.1v-.1H13v-.1h.1l-.1-.1s-.1 0 0 0h.1s0-.1 0 0l.1.1V20h.2v.2s0 .1.1.1c0 0 .1 0 .1.1l.1.1h.4s.1 0 .1-.1l-.1-.1h.1s.1 0 .1-.1 0-.1-.1-.1-.1 0-.1-.1v-.1h.2v-.1h.1s.1 0 .2.1c.4-.8.5-.7.5-.7"/><path fill="none" stroke="#000" stroke-width=".025" d="M14.2 19.6s-.1 0 0 0l-.1.1.1-.1.1.1h.1v.3h.1s.1 0 .1-.1l.1-.1v.2h.2v-.1.2-.3.1m-.8 0s.1 0 0 0l.1-.1h.1m.1.3c.1-.1.2-.1.2-.1"/><path fill="none" stroke="#000" stroke-width=".017" d="M15.1 19.4s-.1 0 0 0q-.15 0 0 0"/><path fill="none" stroke="#000" stroke-width=".025" d="m14.8 20.5.1.1c0 .1-.1.2-.1.2"/><path stroke="#000" stroke-width=".017" d="M14.4 19.1s.1 0 0 0q.15 0 0 0c.1 0 0 0 0 0z"/><path stroke="#000" stroke-width=".003" d="M14.7 19c.1 0 .1.1.1.1l-.1-.1q.15.15 0 0 0 .15 0 0c0 .1 0 0 0 0z"/><path stroke="#000" stroke-width=".017" d="M14.5 19.2"/><path fill="#DB4446" stroke="#000" stroke-width=".025" d="M13.7 19.1s.1 0 0 0h.1V19c0-.1-.1-.1-.1-.1s.1.1 0 .2c.1 0 0 0 0 0zM13.6 19.2s0-.1 0 0h-.2.1s0 .1.1 0c-.1.1 0 0 0 0zM13.5 19.4l-.1.1s.1 0 .1-.1v.1-.1zM13.7 20h-.2s.1.1.2 0q-.15.15 0 0c-.1.1 0 .1 0 0 0 .1 0 0 0 0zM13.6 20.2c-.1 0-.1.1-.1.1s.1 0 .1-.1q0 .15 0 0 0 .15 0 0zM13.7 20.4c0 .1.1.1.1.1l-.1-.1q.15 0 0 0 .15 0 0 0zM14.2 20.8H14h.2q-.15.15 0 0-.15.15 0 0c0 .1 0 0 0 0zM14.1 21s-.1 0 0 0l-.1.1.1-.1c-.1.1 0 .1 0 0q0 .15 0 0zM14.2 21.2c0 .1.1.1.1.1s-.1 0-.1-.1c0 .1.1 0 0 0zM15 21.3s-.1 0 0 0c-.1 0-.1.1-.1.1s0-.1.1-.1c-.1 0 0 .1 0 0 0 .1 0 0 0 0zM15 21.5v.1-.1s.1 0 0 0q.15 0 0 0zM15.2 21.5s0 .1 0 0l.1.1s-.1 0-.1-.1h.1-.1z"/><path fill="#C8B100" stroke="#000" stroke-width=".017" d="M15.1 18.9s-.1 0 0 0q-.15 0 0 0-.15 0 0 0H15v-.2.2s.1.1.2.1c.1.1.1.1.1.2h.2-.2c-.2-.2-.2-.2-.2-.3q0 .15 0 0-.15.15 0 0z"/><path stroke="#000" stroke-width=".003" d="M14.9 18.9q0 .15 0 0 0 .15 0 0 0 .15 0 0zM14.8 18.9zM15.1 19q-.15 0 0 0-.15 0 0 0c-.1 0 0 0 0 0zM15.2 19.1q-.15 0 0 0-.15 0 0 0-.15 0 0 0z"/><path fill="#C8B100" stroke="#000" stroke-width=".017" d="M14.9 18.8q.15 0 0 0zM14.8 18.8s0-.1 0 0c0-.1-.1-.1 0 0-.1-.1 0-.1 0 0q0-.15 0 0c0-.1 0 0 0 0zM14.8 18.8q0-.15 0 0 0-.15 0 0zM15.1 18.9zM15.2 19zM15.3 19.1c.1 0 .1.1 0 0 .1.1.1 0 0 0zM15.3 19.1q0 .15 0 0z"/><path fill="#C8B100" stroke="#000" stroke-linejoin="round" stroke-width=".022" d="M12.7 21.4s-.1.1-.1.2v.2s0-.1-.1-.1-.1 0-.1.1v.1h.1s.1 0 .1.1h-.1.1l-.1.1h.1l.1.1.1-.1h.1l-.2-.1h.1v-.1h-.1s0-.1.1-.1h.1v-.1c0-.1 0-.1-.1-.1 0 0-.1 0-.1.1v-.2c.1 0 0-.1 0-.1z"/><path fill="#C8B100" stroke="#000" stroke-width=".022" d="M12.5 22h.3v-.1l-.3.1z"/><path fill="#C8B100" stroke="#000" stroke-linejoin="round" stroke-width=".022" d="M13.3 21.4s-.1.1-.1.2v.2s0-.1-.1-.1-.1 0-.1.1v.1h.1s.1 0 .1.1h-.1.1l-.1.1h.1l.1.1.1-.1h.1l-.1-.1h.1v-.1h-.1s0-.1.1-.1h.1v-.1c0-.1 0-.1-.1-.1 0 0-.1 0-.1.1v-.2l-.1-.1z"/><path fill="#C8B100" stroke="#000" stroke-width=".022" d="M13.2 22h.3v-.1l-.3.1z"/><path fill="#C8B100" stroke="#000" stroke-linejoin="round" stroke-width=".022" d="M13 22s-.1.1-.1.2v.2s0-.1-.1-.1-.1 0-.1.1v.1h.1s.1 0 .1.1h-.1v.1h.1l-.1.1h.1l.1.1.1-.1h.1l-.1-.1h.1v-.1h-.1s0-.1.1-.1h.1v-.1c0-.1 0-.1-.1-.1 0 0-.1 0-.1.1v-.2c0-.1-.1-.2-.1-.2z"/><path fill="#C8B100" stroke="#000" stroke-width=".022" d="M12.9 22.6h.3v-.1l-.3.1z"/><ellipse cx="8.3" cy="17.8" fill="#C8B100" stroke="#000" stroke-width=".017" rx=".1" ry=".2"/><circle cx="8.3" cy="17.7" r=".1" fill="#C8B100"/><circle cx="17.7" cy="17.9" r=".1" fill="#C8B100" stroke="#000" stroke-width=".017"/><circle cx="17.7" cy="17.7" r=".1" fill="#C8B100"/><circle cx="13" cy="14.7" r=".3" fill="#005BBF" stroke="#000" stroke-width=".017"/><circle cx="13" cy="16.1" r=".1" fill="#FFF" stroke="#000" stroke-width=".025"/><circle cx="13" cy="15.9" r=".1" fill="#FFF" stroke="#000" stroke-width=".025"/><circle cx="13" cy="15.7" r=".1" fill="#FFF" stroke="#000" stroke-width=".025"/><circle cx="13" cy="15.4" r=".1" fill="#FFF" stroke="#000" stroke-width=".025"/><circle cx="13" cy="15.2" r=".1" fill="#FFF" stroke="#000" stroke-width=".025"/><circle cx="9.7" cy="16.7" r=".1" fill="#FFF" stroke="#000" stroke-width=".025"/><circle cx="9.6" cy="16.6" r=".1" fill="#FFF" stroke="#000" stroke-width=".025"/><circle cx="9.6" cy="16.4" r=".1" fill="#FFF" stroke="#000" stroke-width=".025"/><circle cx="9.6" cy="16.2" r=".1" fill="#FFF" stroke="#000" stroke-width=".025"/><circle cx="9.6" cy="16" r=".1" fill="#FFF" stroke="#000" stroke-width=".025"/><circle cx="9.7" cy="15.8" r=".1" fill="#FFF" stroke="#000" stroke-width=".025"/><circle cx="9.9" cy="15.6" r=".1" fill="#FFF" stroke="#000" stroke-width=".025"/><circle cx="10" cy="15.5" r=".1" fill="#FFF" stroke="#000" stroke-width=".025"/><circle cx="10.2" cy="15.4" r=".1" fill="#FFF" stroke="#000" stroke-width=".025"/><circle cx="10.4" cy="15.3" r=".1" fill="#FFF" stroke="#000" stroke-width=".025"/><circle cx="10.7" cy="15.3" r=".1" fill="#FFF" stroke="#000" stroke-width=".025"/><circle cx="10.9" cy="15.3" r=".1" fill="#FFF" stroke="#000" stroke-width=".025"/><circle cx="11.1" cy="15.3" r=".1" fill="#FFF" stroke="#000" stroke-width=".025"/><circle cx="11.3" cy="16.2" r=".1" fill="#FFF" stroke="#000" stroke-width=".025"/><circle cx="11.2" cy="16" r=".1" fill="#FFF" stroke="#000" stroke-width=".025"/><circle cx="11.2" cy="15.9" r=".1" fill="#FFF" stroke="#000" stroke-width=".025"/><circle cx="11.2" cy="15.7" r=".1" fill="#FFF" stroke="#000" stroke-width=".025"/><circle cx="11.2" cy="15.5" r=".1" fill="#FFF" stroke="#000" stroke-width=".025"/><circle cx="11.3" cy="15.3" r=".1" fill="#FFF" stroke="#000" stroke-width=".025"/><circle cx="11.5" cy="15.1" r=".1" fill="#FFF" stroke="#000" stroke-width=".025"/><circle cx="11.7" cy="15" r=".1" fill="#FFF" stroke="#000" stroke-width=".025"/><circle cx="11.9" cy="15" r=".1" fill="#FFF" stroke="#000" stroke-width=".025"/><circle cx="12.1" cy="14.9" r=".1" fill="#FFF" stroke="#000" stroke-width=".025"/><circle cx="12.3" cy="14.9" r=".1" fill="#FFF" stroke="#000" stroke-width=".025"/><circle cx="12.5" cy="15" r=".1" fill="#FFF" stroke="#000" stroke-width=".025"/><circle cx="12.7" cy="15" r=".1" fill="#FFF" stroke="#000" stroke-width=".025"/><circle cx="13.2" cy="15" r=".1" fill="#FFF" stroke="#000" stroke-width=".025"/><circle cx="13.4" cy="15" r=".1" fill="#FFF" stroke="#000" stroke-width=".025"/><circle cx="13.7" cy="14.9" r=".1" fill="#FFF" stroke="#000" stroke-width=".025"/><circle cx="13.9" cy="14.9" r=".1" fill="#FFF" stroke="#000" stroke-width=".025"/><circle cx="14.1" cy="15" r=".1" fill="#FFF" stroke="#000" stroke-width=".025"/><circle cx="14.3" cy="15" r=".1" fill="#FFF" stroke="#000" stroke-width=".025"/><circle cx="14.5" cy="15.1" r=".1" fill="#FFF" stroke="#000" stroke-width=".025"/><circle cx="14.6" cy="15.3" r=".1" fill="#FFF" stroke="#000" stroke-width=".025"/><circle cx="14.8" cy="15.5" r=".1" fill="#FFF" stroke="#000" stroke-width=".025"/><circle cx="14.8" cy="15.7" r=".1" fill="#FFF" stroke="#000" stroke-width=".025"/><circle cx="14.8" cy="15.9" r=".1" fill="#FFF" stroke="#000" stroke-width=".025"/><circle cx="14.7" cy="16" r=".1" fill="#FFF" stroke="#000" stroke-width=".025"/><circle cx="14.6" cy="16.2" r=".1" fill="#FFF" stroke="#000" stroke-width=".025"/><circle cx="14.9" cy="15.3" r=".1" fill="#FFF" stroke="#000" stroke-width=".025"/><circle cx="15.1" cy="15.3" r=".1" fill="#FFF" stroke="#000" stroke-width=".025"/><circle cx="15.3" cy="15.3" r=".1" fill="#FFF" stroke="#000" stroke-width=".025"/><circle cx="15.5" cy="15.3" r=".1" fill="#FFF" stroke="#000" stroke-width=".025"/><circle cx="15.7" cy="15.4" r=".1" fill="#FFF" stroke="#000" stroke-width=".025"/><circle cx="15.9" cy="15.5" r=".1" fill="#FFF" stroke="#000" stroke-width=".025"/><circle cx="16.1" cy="15.6" r=".1" fill="#FFF" stroke="#000" stroke-width=".025"/><circle cx="16.2" cy="15.8" r=".1" fill="#FFF" stroke="#000" stroke-width=".025"/><circle cx="16.3" cy="16" r=".1" fill="#FFF" stroke="#000" stroke-width=".025"/><circle cx="16.4" cy="16.2" r=".1" fill="#FFF" stroke="#000" stroke-width=".025"/><circle cx="16.4" cy="16.4" r=".1" fill="#FFF" stroke="#000" stroke-width=".025"/><circle cx="16.3" cy="16.6" r=".1" fill="#FFF" stroke="#000" stroke-width=".025"/><circle cx="16.2" cy="16.7" r=".1" fill="#FFF" stroke="#000" stroke-width=".025"/><circle cx="11.5" cy="16.9" r=".1" fill="#AD1519" stroke="#000" stroke-width=".025"/><circle cx="13" cy="16.7" r=".1" fill="#AD1519" stroke="#000" stroke-width=".025"/><circle cx="14.4" cy="16.9" r=".1" fill="#AD1519" stroke="#000" stroke-width=".025"/><ellipse cx="13" cy="22" fill="#AD1519" stroke="#000" stroke-width=".039" rx="1" ry="1.2"/><ellipse cx="13" cy="22" fill="#005BBF" stroke="#000" stroke-width=".039" rx=".7" ry=".9"/></svg>