<?xml version="1.0" encoding="utf-8"?><svg xmlns="http://www.w3.org/2000/svg" xmlns:xlink="http://www.w3.org/1999/xlink"><symbol viewBox="0 0 48 48" id="audio" xmlns="http://www.w3.org/2000/svg"><path d="M24 2v44L10 32H2V16h8L24 2Zm15 5.03c4.667 4.666 7.043 10.776 6.958 16.97-.085 6.194-2.291 12.304-6.958 16.97l-3.31-3.309c7.553-7.552 7.553-19.94.086-27.407L39 7.029Zm-8 5.656c3.086 3.086 4.628 7.2 4.628 11.314S34.171 32.142 31 35.314l-3.257-3.429c2.143-2.142 3.343-4.885 3.343-7.97 0-3.086-1.2-5.829-3.343-7.972L31 12.686Z"/></symbol><symbol viewBox="0 0 48 48" id="back" xmlns="http://www.w3.org/2000/svg"><path d="M45 26H10l8 8-3 3L2 24l13-13 3 3-8 8h35z"/></symbol><symbol viewBox="0 0 48 48" id="book" xmlns="http://www.w3.org/2000/svg"><defs><path d="M41.887 2H9.957C7.696 2 6 3.59 6 6v36c0 2.536 1.852 4 4 4h28V8H12c-2 0-4 0-4-2s2-2 4-2h28v34h2l-.113-36Z" id="acid-1a"/></defs><use xlink:href="#acid-1a"/></symbol><symbol viewBox="0 0 48 48" id="brochure" xmlns="http://www.w3.org/2000/svg"><path d="M37 8V2H7v38c2.762-.016 4.43-.016 5 0v6h28V8h-3ZM12 38H8.989L9 4h19L12 7v31ZM35 4v4H14l21-4Zm3 40H14V10h24v34Z"/><path d="M35 16H17v2h18zM35 21H17v2h18zM35 26H17v2h18zM30 31H17v2h13z"/></symbol><symbol viewBox="0 0 48 48" id="budget" xmlns="http://www.w3.org/2000/svg"><path d="M30 14c8.833 0 16-2.69 16-6s-7.167-6-16-6-16 2.69-16 6 7.167 6 16 6Zm8 8c4.48-.928 8-1.912 8-4v-4c-2.651 2.157-7.206 3.317-12 3.592 2.203 1.23 3.343 2.371 4 4.408Zm-20 8c7 0 16-2.488 16-7 0-4.512-8-7-16-7S2 18.488 2 23c0 4.512 9 7 16 7Zm20 0c4.775-.905 8-2.067 8-4v-4c-1 2-6 4-8 4v4Zm-20 8c8.833 0 16-2.946 16-6v-4c-3.442 2.941-9.742 4.464-16 4.464-6.258 0-12.558-1.523-16-4.464v4c0 3.054 7.167 6 16 6Zm0 8c8.833 0 16-2.69 16-5.998V36c-3.442 2.727-9.733 4.002-16 4.002-6.267 0-12.558-1.275-16-4.002v4.002C2 43.31 9.167 46 18 46Z"/></symbol><symbol viewBox="0 0 48 48" id="calendar" xmlns="http://www.w3.org/2000/svg"><defs><path d="M10 8V2h6v6c0 1.65-1.16 3-3 3-1.841 0-3-1.235-3-3Zm22 0V2h6v6c0 1.812-1.342 3-3 3s-3-1.188-3-3Zm10 34h-6v-6h6v6Zm0-8h-6v-6h6v6Zm0-8h-6v-6h6v6ZM32 42h-6v-6h6v6Zm0-8h-6v-6h6v6Zm0-8h-6v-6h6v6ZM22 42h-6v-6h6v6Zm0-8h-6v-6h6v6Zm0-8h-6v-6h6v6ZM12 42H6v-6h6v6Zm0-8H6v-6h6v6Zm0-8H6v-6h6v6Zm32-8H4v26h40V18ZM2 46V6h6v2c0 2.514 2.196 5 5 5s5-2.486 5-5V6h12v2c0 2.514 2.198 5 5 5s5-2.486 5-5V6h6v40H2Z" id="afid-2a"/></defs><use xlink:href="#afid-2a"/></symbol><symbol viewBox="0 0 48 48" id="check" xmlns="http://www.w3.org/2000/svg"><defs><path id="agid-3a" d="M36 12 20 28l-8-8-4 4 12 12 20-20z"/></defs><use xlink:href="#agid-3a"/></symbol><symbol viewBox="0 0 48 48" id="check-filled" xmlns="http://www.w3.org/2000/svg"><path d="M24 2c12.198 0 22 9.81 22 22s-9.81 22-22 22S2 36.19 2 24 11.81 2 24 2Zm9.25 14-11 10.667-5.5-5.334L14 24l8 8 14-13.333L33.25 16Z"/></symbol><symbol viewBox="0 0 48 48" id="close" xmlns="http://www.w3.org/2000/svg"><defs><path d="M32 29.315 26.703 24 32 18.685 29.31 16l-5.161 5.288-5.46-5.261L16 18.712 21.324 24 16 29.288l2.69 2.685 5.324-5.288L29.31 32 32 29.315Zm4.726-18.041a17.807 17.807 0 0 0-5.715-3.854A17.847 17.847 0 0 0 24 6c-2.435 0-4.795.479-7.013 1.42-2.133.902-4.06 2.2-5.715 3.854a17.817 17.817 0 0 0-3.854 5.715A17.877 17.877 0 0 0 6 24c0 2.435.479 4.793 1.418 7.013.902 2.133 2.2 4.06 3.854 5.715a17.836 17.836 0 0 0 5.715 3.854A17.88 17.88 0 0 0 24 42a17.942 17.942 0 0 0 12.726-5.272 17.856 17.856 0 0 0 3.854-5.715C41.52 28.793 42 26.435 42 24c0-2.434-.48-4.793-1.42-7.011a17.814 17.814 0 0 0-3.854-5.715Zm2.828-2.828a21.764 21.764 0 0 0-6.985-4.71A21.813 21.813 0 0 0 24 2c-2.977 0-5.86.585-8.571 1.736a21.917 21.917 0 0 0-6.985 4.71 21.776 21.776 0 0 0-4.71 6.985A21.85 21.85 0 0 0 2 24c0 2.977.585 5.859 1.734 8.571a21.917 21.917 0 0 0 4.71 6.985 21.8 21.8 0 0 0 6.985 4.71A21.852 21.852 0 0 0 24 46a21.85 21.85 0 0 0 8.569-1.734 21.929 21.929 0 0 0 6.985-4.71 21.824 21.824 0 0 0 4.71-6.985A21.862 21.862 0 0 0 46 24c0-2.974-.587-5.859-1.736-8.569a21.772 21.772 0 0 0-4.71-6.985Z" id="aiid-5a"/></defs><use xlink:href="#aiid-5a" fill-rule="evenodd"/></symbol><symbol viewBox="0 0 48 48" id="close-filled" xmlns="http://www.w3.org/2000/svg"><defs><path d="M32 29.315 26.703 24 32 18.685 29.31 16l-5.161 5.288-5.46-5.261L16 18.712 21.324 24 16 29.288l2.69 2.685 5.324-5.288L29.31 32 32 29.315Zm7.554-20.869a21.764 21.764 0 0 0-6.985-4.71A21.813 21.813 0 0 0 24 2c-2.977 0-5.86.585-8.571 1.736a21.917 21.917 0 0 0-6.985 4.71 21.776 21.776 0 0 0-4.71 6.985A21.85 21.85 0 0 0 2 24c0 2.977.585 5.859 1.734 8.571a21.917 21.917 0 0 0 4.71 6.985 21.8 21.8 0 0 0 6.985 4.71A21.852 21.852 0 0 0 24 46a21.85 21.85 0 0 0 8.569-1.734 21.929 21.929 0 0 0 6.985-4.71 21.824 21.824 0 0 0 4.71-6.985A21.862 21.862 0 0 0 46 24c0-2.974-.587-5.859-1.736-8.569a21.772 21.772 0 0 0-4.71-6.985Z" id="ajid-4a"/></defs><use xlink:href="#ajid-4a" fill-rule="evenodd"/></symbol><symbol viewBox="0 0 48 48" id="copy" xmlns="http://www.w3.org/2000/svg"><defs><path d="M42 10v36H14V16l6-6h22Zm-4 4H24v4h-6v24h20V14ZM12 38H8V8l8.027-6H40v6h-4V6H20v2l-4 4h-4v26Z" id="akid-6a"/></defs><use xlink:href="#akid-6a"/></symbol><symbol viewBox="0 0 48 48" id="corner-arrow" xmlns="http://www.w3.org/2000/svg"><defs><path id="alid-7a" d="M40 38 24 20 8 38l-6-6L24 8l22 24z"/></defs><use xlink:href="#alid-7a"/></symbol><symbol viewBox="0 0 48 48" id="data" xmlns="http://www.w3.org/2000/svg"><defs><path d="M24 18c-10.556 0-16-4.206-16-6 0-1.794 5.444-6 16-6 10.557 0 16 4.206 16 6 0 1.794-5.443 6-16 6Zm16 6c0 2.125-5.443 6-16 6-10.556 0-16-3.875-16-6v-6c3.732 2.254 9.51 3.71 16 4 6.492-.29 12.268-1.746 16-4v6Zm0 12c0 2.125-5.443 6-16 6-10.556 0-16-3.875-16-6v-6c3.732 2.254 9.51 3.709 16 4 6.492-.291 12.268-1.746 16-4v6ZM24 2C12.971 2 4 6.32 4 12v24c0 5.68 8.971 10 20 10s20-4.32 20-10V12c0-5.68-8.971-10-20-10Z" id="amid-8a"/></defs><use xlink:href="#amid-8a"/></symbol><symbol viewBox="0 0 48 48" id="digital" xmlns="http://www.w3.org/2000/svg"><path d="M40 28h-6v-8h-8v6h-6v8h8v6H14V26H2V2h24v12h8V8h6v6h6v20h-6v-6ZM8 8v12h12V8H8Zm32-6h6v6h-6V2ZM28 28h6v6h-6v-6ZM2 34h6v6H2v-6Zm6 6h6v6H8v-6Zm32 0h6v6h-6v-6Zm-12 0h6v6h-6v-6ZM10 10h8v8h-8v-8Z"/></symbol><symbol viewBox="0 0 48 48" id="download" xmlns="http://www.w3.org/2000/svg"><path d="M6 24v18h36V24h4v22H2V24h4ZM26 2v24l8-8 3 3-13 13-13-13 3-3 8 8V2h4Z"/></symbol><symbol viewBox="0 0 48 48" id="edit" xmlns="http://www.w3.org/2000/svg"><path d="M36 2v12l5.456 5.657-14.142 14.142-8.486 2.828 2.829-8.485L32 17.943V6H20v6h-8v30h20v-6l4-4v14H8V9.333L14 2h22Z"/></symbol><symbol viewBox="0 0 48 48" id="energy" xmlns="http://www.w3.org/2000/svg"><defs><path d="M23.392 17.857c3.18-.475 5.894 3.044 3.96 6.174-1.62 2.623-6.966 2.607-7.343-1.776-.09-1.042.548-2.575.577-2.621.533-.863 1.47-1.577 2.806-1.777ZM22 30l4 4 2 12h-8l2-16Zm8.806-5.802c2.559 3.766 5.76 8.735 6.829 12.384.197.675.405 2.2-.394 2.801-.799.602-2.184-.007-2.801-.393-3.381-2.116-6.86-6.282-10.023-9.978 2.801.394 5.996-2.013 6.39-4.814ZM17.733 18.22c-1.856 2.134-1.577 6.125.558 7.98-4.552.095-10.464.074-14.106-1.018-.673-.202-2.064-.858-2.134-1.856-.07-.997 1.196-1.827 1.855-2.134 3.616-1.684 9.005-2.333 13.827-2.972ZM32.596 1.563c.92.39 1.086 1.895 1.06 2.622-.142 3.986-2.01 9.082-3.63 13.669-1.06-2.623-4.741-4.185-7.364-3.126 1.983-4.098 4.685-9.356 7.312-12.106.485-.508 1.702-1.45 2.622-1.06Z" id="aqid-9a"/></defs><use xlink:href="#aqid-9a"/></symbol><symbol viewBox="0 0 48 48" id="error" xmlns="http://www.w3.org/2000/svg"><path d="m34 2 12 12v20L34 46H14L2 34V14L14 2h20Zm-4.69 14-5.161 5.288-5.46-5.261L16 18.712 21.324 24 16 29.288l2.69 2.685 5.324-5.288L29.31 32 32 29.315 26.703 24 32 18.685 29.31 16Z"/></symbol><symbol viewBox="0 0 48 48" id="euro" xmlns="http://www.w3.org/2000/svg"><path d="M24 2A22 22 0 0 0 2 24a22 22 0 0 0 22 22 22 22 0 0 0 22-22A22 22 0 0 0 24 2zm1.773 12c1.624 0 3.035.464 4.227 1l-.852 3.455c-.819-.748-2.011-1.113-3.591-1.113C23.98 17.342 21 18 20 21h9l-1 2h-8a40.795 40.795 0 0 0 0 2h8l-1 2h-7c1 3 3.92 3.656 5.467 3.656 1.855 0 3.435-.624 4.533-1.656v4c-1.254.562-2.816 1-4.49 1-2.816 0-5.702-1.237-7.51-3-1.24-1.197-1.598-2.21-2-4h-2l1-2h1a45.931 45.931 0 0 1 0-2h-2l1-2h1c.402-1.75 1.389-3.163 2.596-4.334C20.422 14.89 22.802 14 25.773 14z"/></symbol><symbol viewBox="0 0 48 48" id="external" xmlns="http://www.w3.org/2000/svg"><path d="M14 2v4H6v36h36v-8h4v12H2V2h12Zm32 0v20h-4V8.667l-.201.404-16.97 16.97L22 23.214l16.97-16.97.484-.243H26V2h20Z"/></symbol><symbol viewBox="0 0 48 48" id="external-events" xmlns="http://www.w3.org/2000/svg"><path d="M21.548 41H4.952V18h37.096v7H44V7h-5.858v1.8c0 2.26-2.394 4.2-4.88 4.2-2.488 0-4.892-1.937-4.892-4.2V7h-9.752v1.8c0 2.26-2.394 4.2-4.88 4.2-2.488 0-4.892-1.937-4.892-4.2V7H3v36h18.548v-2Z"/><path d="M11 8.334V3h6v5.334C17 9.8 15.84 11 14 11s-3-1.097-3-2.666ZM30 8.334V3h6v5.334C36 9.944 34.657 11 32.997 11 31.337 11 30 9.944 30 8.334ZM44 40v6H25V27h6v2h-4v15h15v-4z"/><path d="M44 27v8h-2.036L42 30.5 35.5 37 34 35.5l6.5-6.5H36v-2zM22 34h-5v5h5zM22 27h-5v5h5zM13 34H8v5h5zM13 27H8v5h5zM39 20h-5v5h5zM30 20h-5v5h5zM22 20h-5v5h5zM13 20H8v5h5z"/></symbol><symbol viewBox="0 0 48 48" id="faq" xmlns="http://www.w3.org/2000/svg"><defs><path d="M19 31c0-3.46 1.236-4.406 1.8-5.545.564-1.14 1.918-2.31 3.61-3.701 1.724-1.392 2.759-2.34 3.072-2.75.532-.696.651-1.454.651-2.277 0-2.909-2.933-4.363-4.4-4.363-1.466 0-5.866 0-6.342 5.375L12 17.044c.156-2.498 1.222-4.648 3.196-6.388C17.171 8.885 19.74 8 22.97 8c3.353 0 6.048.886 8.022 2.687C32.997 12.46 34 14.514 34 16.885c0 1.297-.376 2.53-1.097 3.7-.752 1.169-2.32 2.75-4.7 4.773-1.253 1.044-2.006 1.866-2.32 2.498C25.601 28.49 25 29.278 25 31h-6Zm0 9v-6h6v6h-6Z" id="avid-10a"/></defs><use xlink:href="#avid-10a"/></symbol><symbol viewBox="0 0 48 48" id="feedback" xmlns="http://www.w3.org/2000/svg"><path d="M23 2c11.598 0 21 9.402 21 21 0 4.365-1.332 8.419-3.611 11.778L46 46l-12.784-4.648A20.905 20.905 0 0 1 23 44C11.402 44 2 34.598 2 23S11.402 2 23 2Z"/></symbol><symbol viewBox="0 0 48 48" id="file" xmlns="http://www.w3.org/2000/svg"><path d="M38 2v26.056L34 28V6H22v6h-8v30h20V28h4v18H10V9.333L16 2z"/></symbol><symbol viewBox="0 0 48 48" id="fullscreen" xmlns="http://www.w3.org/2000/svg"><path d="M8 30v10h10v4H4V30h4Zm36 0v14H30v-4h10V30h4ZM18 4v4H8v10H4V4h14Zm26 0v14h-4V8H30V4h14Z"/></symbol><symbol viewBox="0 0 48 48" id="gear" xmlns="http://www.w3.org/2000/svg"><path d="m26 2 2 5.998 4.485 1.86 5.657-2.829 2.829 2.829-2.829 5.657L40 20l6 1.384v5.007L40 28l-1.858 4.485 3.264 5.222-3.54 3.54-5.38-3.105L28 40l-2 6h-4l-2-6-4.485-1.858-5.657 2.829-2.829-2.829 2.829-5.657L7.998 28 2 26v-4l6-2 1.858-4.485-2.829-5.657 2.829-2.829 5.657 2.829L20 7.998 22 2h4Zm-1.987 14C19.589 16 16 19.582 16 23.998 16 28.412 19.589 32 24.013 32 28.437 32 32 28.41 32 23.998A7.983 7.983 0 0 0 24.013 16Z"/></symbol><symbol viewBox="0 0 48 48" id="generic-lang" xmlns="http://www.w3.org/2000/svg"><defs><path d="M33.952 24.657a11.612 11.612 0 0 0 1.072-4.197h-4.151a18.897 18.897 0 0 1-.607 4.197h3.686Zm1.12-5.876A11.642 11.642 0 0 0 34 14.583h-3.73c.325 1.26.56 2.66.652 4.198h4.15Zm-10.868 7.555v4.803c.746-.56 2.47-2.052 3.684-4.803h-3.684Zm5.457 0c-.746 1.865-1.725 3.357-2.612 4.384 2.424-.84 4.477-2.332 5.923-4.384h-3.31Zm3.357-13.431c-1.4-2.053-3.451-3.592-5.83-4.43.84 1.071 1.819 2.517 2.565 4.43h3.265Zm-4.477 1.678h-4.337v4.198h5.037c-.093-1.585-.326-2.985-.7-4.198Zm-4.337 5.877v4.197h4.337c.372-1.213.607-2.612.653-4.197h-4.99Zm3.684-7.602c-.372-1.025-.932-1.865-1.4-2.564-.699-.933-1.399-1.586-1.912-2.006-.093-.14-.233-.186-.372-.28v4.852h3.684v-.002Zm-9.047 0h3.73V8.055c-.792.56-2.517 2.1-3.73 4.803Zm-1.773 0a14.683 14.683 0 0 1 2.612-4.384c-2.425.793-4.477 2.378-5.923 4.384h3.31Zm-1.259 7.555h-4.15a11.402 11.402 0 0 0 1.071 4.198h3.685c-.326-1.26-.514-2.612-.607-4.198h.001Zm.654-5.876h-3.685a12.734 12.734 0 0 0-1.12 4.198h4.198c.093-1.54.28-2.939.607-4.198ZM2 32c0 2.383 1.96 4 4 4h12l16 10V36h8c2.188 0 4-1.775 4-4V6c0-2.108-1.905-4-4-4H6.182C4.075 2 2 4.073 2 6.182V32Zm7.98-12.426c0-7.415 6.016-13.431 13.43-13.385 7.416 0 13.386 6.016 13.34 13.431 0 7.416-6.017 13.432-13.432 13.385-7.415 0-13.385-6.016-13.338-13.431Zm3.732 6.715a12.087 12.087 0 0 0 5.876 4.431 14.952 14.952 0 0 1-2.564-4.43h-3.312Zm4.522-1.678h4.291v-4.198h-4.99c.046 1.586.279 2.985.7 4.198Zm4.293-5.876v-4.198h-4.338c-.374 1.213-.56 2.612-.653 4.198h4.99ZM20.24 28.854c.7.886 1.4 1.585 1.913 2.006.093.14.232.232.326.279v-4.803h-3.685c.42.979.98 1.818 1.446 2.518Z" id="baid-11a"/></defs><use xlink:href="#baid-11a"/></symbol><symbol viewBox="0 0 48 48" id="global" xmlns="http://www.w3.org/2000/svg"><path d="M2 24c0 12.144 9.834 22 21.978 22C36.144 46 46 36.144 46 24S36.144 2 23.978 2C11.834 2 2 11.856 2 24Zm38-8h-7c-.704-2.75-1.982-6.19-3.302-8.632C33.746 8.754 40 16 40 16ZM24 6c1.826 2.64 4 7 4 10h-8c0-3 4-10 4-10ZM6.4 24c0-1.518.22-2.992.572-4.4h7.436c-.176 1.452-.308 2.904-.308 4.4 0 1.496.132 2.948.308 4.4H6.972C6.62 26.992 6.4 25.518 6.4 24ZM8 32h7c.704 2.75 1.982 6.19 3.302 8.632C14.254 39.246 8 32 8 32Zm7-16H8c2.112-3.652 6.254-7.246 10.302-8.632C16.982 9.81 15 16 15 16Zm9 26c-1.826-2.64-4-7-4-10h8c0 3-4 10-4 10Zm-5.148-13.6c-.198-1.452-.352-2.904-.352-4.4 0-1.496.154-2.97.352-4.4h10.296c.198 1.43.352 2.904.352 4.4 0 1.496-.154 2.948-.352 4.4H18.852ZM33 32h7c-2.112 3.63-6.254 7.246-10.302 8.632C31.018 38.19 32.296 34.75 33 32Zm.9-8c0-1.496-.132-2.948-.308-4.4h7.436c.352 1.408.572 2.882.572 4.4 0 1.518-.22 2.992-.572 4.4h-7.436c.176-1.452.308-2.904.308-4.4Z"/></symbol><symbol viewBox="0 0 48 48" id="growth" xmlns="http://www.w3.org/2000/svg"><defs><path d="M2 46V36h8v10H2Zm12 0V30h8v16h-8Zm12 0 .053-20H34l-.053 20H26Zm20-24v24h-8V22h8Zm0-20v14h-4l-.001-7.174L28.836 21.99l.012.01-.714.692-.519.521-.009-.009L26 24.763l-6.886-6.035-14.204 14.3L2 30l16-16 .02.014.964-.947 6.884 6.235L39.168 6H32V2h14Z" id="bcid-12a"/></defs><use xlink:href="#bcid-12a"/></symbol><symbol viewBox="0 0 48 48" id="hamburger" xmlns="http://www.w3.org/2000/svg"><defs><path d="M44 34v5H4v-5h40Zm0-13v5H4v-5h40Zm0-13v5H4V8h40Z" id="bdid-13a"/></defs><use xlink:href="#bdid-13a" fill-rule="evenodd"/></symbol><symbol viewBox="0 0 48 48" id="image" xmlns="http://www.w3.org/2000/svg"><defs><path d="M42 38H6V10h36v28Zm4-32H2v36h44V6Zm-12 8c2.24 0 4 1.76 4 4s-1.76 4-4 4-4-1.92-4-4c0-2.4 1.76-4 4-4Zm4 20H10v-4l8-14 12 14 8-6v10Z" id="beid-14a"/></defs><use xlink:href="#beid-14a"/></symbol><symbol viewBox="0 0 48 48" id="infographic" xmlns="http://www.w3.org/2000/svg"><path d="M6.249 27C7.514 34.539 13.463 40.488 21 41.752v4.046C11.25 44.468 3.533 36.75 2.204 27h4.046ZM34.43 38.673l2.861 2.86a21.89 21.89 0 0 1-10.29 4.265v-4.046a17.897 17.897 0 0 0 7.043-2.811l.386-.268ZM45.797 27a21.89 21.89 0 0 1-4.264 10.29l-2.86-2.86A17.904 17.904 0 0 0 41.75 27h4.046ZM17 26v7h-4v-7h4Zm9-13v20h-4V13h4Zm9 7v13h-4V20h4ZM21 2.203v4.046C13.463 7.513 7.513 13.462 6.25 20.999H2.203C3.533 11.25 11.25 3.533 21 2.204Zm6 0C36.75 3.533 44.468 11.25 45.797 21h-4.046c-1.264-7.537-7.213-13.486-14.75-14.751V2.203Z"/></symbol><symbol viewBox="0 0 48 48" id="information" xmlns="http://www.w3.org/2000/svg"><path d="M24 2.01c12.072 0 22 9.81 22 22s-9.81 22-22 22-22-9.81-22-22 9.81-22 22-22ZM28 20H18v4h4v10h-4v4h14v-4h-4V20Zm0-10h-6v6h6v-6Z"/></symbol><symbol viewBox="0 0 48 48" id="language" xmlns="http://www.w3.org/2000/svg"><defs><path d="M7 2C3.132 2 2 3.042 2 7v26c0 3.963 1.11 4.949 5 5h6v8l17-8h10c4.114 0 6-1.058 6-5V7c0-3.988-.999-5-6-5H7Z" id="bhid-15a"/></defs><use xlink:href="#bhid-15a"/></symbol><symbol viewBox="0 0 48 48" id="list" xmlns="http://www.w3.org/2000/svg"><path d="M3 3h6v5.012H3Zm12 0h30v5.012H15ZM3 15.371h6v5.008H3Zm12 0h30v5.008H15ZM3 27.738h6v5.012H3Zm12 0h30v5.012H15ZM3 40.11h6v5.012H3Zm12 0h30v5.012H15Zm0 0"/></symbol><symbol viewBox="0 0 48 48" id="livestreaming" xmlns="http://www.w3.org/2000/svg"><defs><path d="M2 6v10h4v-6h36v28H28v4h18V6H2Zm0 30v6h6c0-3.4-2.6-6-6-6Zm0-8v4c5.6 0 10 4.4 10 10h4c0-7.8-6.2-14-14-14Zm0-8v4c10 0 18 8 18 18h4c0-12.2-9.8-22-22-22Z" id="bjid-16a"/></defs><use xlink:href="#bjid-16a"/></symbol><symbol viewBox="0 0 48 48" id="location" xmlns="http://www.w3.org/2000/svg"><defs><path d="M24 22a6 6 0 1 0 0-12 6 6 0 0 0 0 12Zm0-20c-7.72 0-14 5.975-14 14 0 3.232 1.916 8.392 6 16 1.926 3.587 4.593 8.254 8 14 3.408-5.746 6.074-10.413 8-14 4.084-7.608 6-12.768 6-16 0-8.025-6.28-14-14-14Z" id="bkid-17a"/></defs><use xlink:href="#bkid-17a" fill-rule="evenodd"/></symbol><symbol viewBox="0 0 48 48" id="log-in" xmlns="http://www.w3.org/2000/svg"><path d="M23.978 2C36.144 2 46 11.856 46 24c0 7.74-4.004 14.551-10.059 18.473-.46-3.65-3.583-6.473-7.368-6.473h-9.146l-.245.004c-3.679.119-6.681 2.905-7.125 6.482C6.004 38.566 2 31.75 2 24 2 11.856 11.834 2 23.978 2ZM24 15a9 9 0 0 0-9 9c0 4.972 4.03 9 9 9s9-4.028 9-9a9 9 0 0 0-9-9Z"/></symbol><symbol viewBox="0 0 48 48" id="logged-in" xmlns="http://www.w3.org/2000/svg"><path d="M45.241 26.036a2.503 2.503 0 0 1-.02 3.61L29.258 45l-8.192-7.965a2.503 2.503 0 0 1 0-3.61 2.678 2.678 0 0 1 3.713 0l4.5 4.374 12.25-11.783a2.678 2.678 0 0 1 3.712.02ZM18.983 3C28.384 3 36 10.616 36 20c0 5.662-2.773 10.68-7.038 13.771-.324-2.612-2.689-4.658-5.598-4.766L23.12 29h-7.24l-.231.004c-3.062.108-5.523 2.361-5.644 5.165l-.005.217v.044C5.195 31.426 2 26.085 2 20 2 10.616 9.599 3 18.983 3Zm.517 11a6.5 6.5 0 1 0 0 13 6.5 6.5 0 0 0 0-13Z"/></symbol><symbol viewBox="0 0 48 48" id="minus" xmlns="http://www.w3.org/2000/svg"><path d="M8 26v-4h32v4z"/></symbol><symbol viewBox="0 0 48 48" id="multiple-files" xmlns="http://www.w3.org/2000/svg"><defs><path d="M46 10v36H18V16l6-6h22Zm-4 4H28v4h-6v24h20V14Zm-28 2v26h-4V16h4ZM34 2v6h-4V6H14v6H6v26H2V8l8.027-6H34Z" id="boid-18a"/></defs><use xlink:href="#boid-18a"/></symbol><symbol viewBox="0 0 48 48" id="organigram" xmlns="http://www.w3.org/2000/svg"><defs><path d="M2 46V35h12v11H2Zm32 0V35h12v11H34ZM11 28v3H7v-6.928L22 24v-6h4v6l15 .072V31h-4v-3H11Zm3-14V2h20v12H14Z" id="bpid-19a"/></defs><use xlink:href="#bpid-19a"/></symbol><symbol viewBox="0 0 48 48" id="package" xmlns="http://www.w3.org/2000/svg"><defs><path d="M4 20h40v26H4V20Zm12 10h16v-6H16v6Zm30-12v-6L40 2H8L2 12v6h44Z" id="bqid-20a"/></defs><use xlink:href="#bqid-20a"/></symbol><symbol viewBox="0 0 48 48" id="pause" xmlns="http://www.w3.org/2000/svg"><path d="M31.011 7.42a17.808 17.808 0 0 1 5.715 3.854 17.817 17.817 0 0 1 3.854 5.715A17.877 17.877 0 0 1 42 24c0 2.435-.48 4.793-1.42 7.013a17.86 17.86 0 0 1-3.854 5.715A17.945 17.945 0 0 1 24 42c-2.435 0-4.795-.479-7.013-1.418a17.84 17.84 0 0 1-5.715-3.854 17.933 17.933 0 0 1-3.854-5.715A17.886 17.886 0 0 1 6 24c0-2.434.479-4.793 1.418-7.011a17.817 17.817 0 0 1 3.854-5.715 17.932 17.932 0 0 1 5.715-3.854A17.85 17.85 0 0 1 24 6c2.434 0 4.793.479 7.011 1.42Zm1.558-3.684a21.764 21.764 0 0 1 6.985 4.71 21.772 21.772 0 0 1 4.71 6.985A21.85 21.85 0 0 1 46 24.001c0 2.976-.587 5.858-1.736 8.57a21.826 21.826 0 0 1-4.71 6.985 21.926 21.926 0 0 1-6.985 4.71A21.848 21.848 0 0 1 24 46c-2.977 0-5.86-.585-8.571-1.734a21.796 21.796 0 0 1-6.985-4.71 21.917 21.917 0 0 1-4.71-6.985A21.862 21.862 0 0 1 2 24.001c0-2.975.585-5.86 1.734-8.57a21.776 21.776 0 0 1 4.71-6.985 21.916 21.916 0 0 1 6.985-4.71A21.815 21.815 0 0 1 24 2c2.974 0 5.859.585 8.569 1.736ZM18 15h4v18h-4V15Zm12 0h-4v18h4V15Z" fill-rule="evenodd"/></symbol><symbol viewBox="0 0 48 48" id="pause-filled" xmlns="http://www.w3.org/2000/svg"><path d="M39.554 8.446a21.767 21.767 0 0 0-6.985-4.71A21.812 21.812 0 0 0 24 2c-2.977 0-5.86.585-8.571 1.736a21.917 21.917 0 0 0-6.985 4.71 21.776 21.776 0 0 0-4.71 6.985A21.85 21.85 0 0 0 2 24c0 2.977.585 5.859 1.734 8.571a21.92 21.92 0 0 0 4.71 6.985 21.797 21.797 0 0 0 6.985 4.71A21.853 21.853 0 0 0 24 46a21.85 21.85 0 0 0 8.569-1.734 21.93 21.93 0 0 0 6.985-4.71 21.826 21.826 0 0 0 4.71-6.985A21.86 21.86 0 0 0 46 24a21.85 21.85 0 0 0-1.736-8.569 21.773 21.773 0 0 0-4.71-6.985ZM17.89 14.222h3.667v18.334h-3.667V14.222Zm12.222 0h-3.667v18.334h3.667V14.222Z" fill-rule="evenodd"/></symbol><symbol viewBox="0 0 48 48" id="play" xmlns="http://www.w3.org/2000/svg"><g fill-rule="evenodd"><path d="M31.011 7.42a17.808 17.808 0 0 1 5.715 3.854 17.817 17.817 0 0 1 3.854 5.715A17.877 17.877 0 0 1 42 24c0 2.435-.48 4.793-1.42 7.013a17.86 17.86 0 0 1-3.854 5.715A17.945 17.945 0 0 1 24 42c-2.435 0-4.795-.479-7.013-1.418a17.84 17.84 0 0 1-5.715-3.854 17.933 17.933 0 0 1-3.854-5.715A17.886 17.886 0 0 1 6 24c0-2.434.479-4.793 1.418-7.011a17.817 17.817 0 0 1 3.854-5.715 17.932 17.932 0 0 1 5.715-3.854A17.85 17.85 0 0 1 24 6c2.434 0 4.793.479 7.011 1.42Zm1.558-3.684a21.764 21.764 0 0 1 6.985 4.71 21.772 21.772 0 0 1 4.71 6.985A21.85 21.85 0 0 1 46 24.001c0 2.976-.587 5.858-1.736 8.57a21.826 21.826 0 0 1-4.71 6.985 21.926 21.926 0 0 1-6.985 4.71A21.848 21.848 0 0 1 24 46c-2.977 0-5.86-.585-8.571-1.734a21.796 21.796 0 0 1-6.985-4.71 21.917 21.917 0 0 1-4.71-6.985A21.862 21.862 0 0 1 2 24.001c0-2.975.585-5.86 1.734-8.57a21.776 21.776 0 0 1 4.71-6.985 21.916 21.916 0 0 1 6.985-4.71A21.815 21.815 0 0 1 24 2c2.974 0 5.859.585 8.569 1.736Z"/><path d="M36.726 11.274a17.808 17.808 0 0 0-5.715-3.854A17.847 17.847 0 0 0 24.001 6a17.85 17.85 0 0 0-7.014 1.42c-2.133.902-4.06 2.2-5.715 3.854a17.817 17.817 0 0 0-3.854 5.715A17.877 17.877 0 0 0 6 24c0 2.435.479 4.793 1.418 7.013.902 2.133 2.2 4.06 3.854 5.715a17.84 17.84 0 0 0 5.715 3.854A17.878 17.878 0 0 0 24 42a17.945 17.945 0 0 0 12.726-5.272 17.86 17.86 0 0 0 3.854-5.715C41.52 28.793 42 26.435 42 24c0-2.434-.48-4.793-1.42-7.011a17.817 17.817 0 0 0-3.854-5.715Zm2.828-2.828a21.764 21.764 0 0 0-6.985-4.71A21.812 21.812 0 0 0 24 2c-2.977 0-5.86.585-8.571 1.736a21.916 21.916 0 0 0-6.985 4.71 21.776 21.776 0 0 0-4.71 6.985A21.85 21.85 0 0 0 2 24.001c0 2.976.585 5.858 1.734 8.57a21.917 21.917 0 0 0 4.71 6.985 21.796 21.796 0 0 0 6.985 4.71A21.852 21.852 0 0 0 24 46c2.974 0 5.859-.585 8.569-1.734a21.926 21.926 0 0 0 6.985-4.71 21.826 21.826 0 0 0 4.71-6.985A21.863 21.863 0 0 0 46 24.001a21.85 21.85 0 0 0-1.736-8.57 21.772 21.772 0 0 0-4.71-6.985Z"/><path d="M18 33V15l16 9z"/></g></symbol><symbol viewBox="0 0 48 48" id="play-filled" xmlns="http://www.w3.org/2000/svg"><path d="M39.554 8.446a21.764 21.764 0 0 0-6.985-4.71A21.813 21.813 0 0 0 24 2c-2.977 0-5.86.585-8.571 1.736a21.917 21.917 0 0 0-6.985 4.71 21.776 21.776 0 0 0-4.71 6.985A21.85 21.85 0 0 0 2 24c0 2.977.585 5.859 1.734 8.571a21.917 21.917 0 0 0 4.71 6.985 21.8 21.8 0 0 0 6.985 4.71A21.852 21.852 0 0 0 24 46a21.85 21.85 0 0 0 8.569-1.734 21.929 21.929 0 0 0 6.985-4.71 21.824 21.824 0 0 0 4.71-6.985A21.862 21.862 0 0 0 46 24c0-2.974-.587-5.859-1.736-8.569a21.772 21.772 0 0 0-4.71-6.985ZM18 33V15l16 9-16 9Z"/></symbol><symbol viewBox="0 0 48 48" id="plus" xmlns="http://www.w3.org/2000/svg"><path d="m26 8-.001 14H40v4H25.999L26 40h-4l-.001-14H8v-4h13.999L22 8h4Z"/></symbol><symbol viewBox="0 0 48 48" id="presentation" xmlns="http://www.w3.org/2000/svg"><defs><path d="M8 30h32V10H8v20ZM44 6v4h-2v22H26v2l10 12h-4l-8-10-8 10h-4l10-12v-2H6V10H4V6h40ZM20 4V2h8v2h-8Z" id="bwid-22a"/></defs><use xlink:href="#bwid-22a"/></symbol><symbol viewBox="0 0 48 48" id="print" xmlns="http://www.w3.org/2000/svg"><defs><path d="M39 22A3 3 0 1 1 39 16 3 3 0 0 1 39 22Zm7-10v22h-8v12H10V34H2V12h44ZM12 26v16h24V26H12Zm4 6v-2h16v2H16ZM12 6v4h-2V2h28v8h-2V6H12Zm4 32v-2h12v2H16Z" id="bxid-27a"/></defs><use xlink:href="#bxid-27a"/></symbol><symbol viewBox="0 0 48 48" id="regulation" xmlns="http://www.w3.org/2000/svg"><defs><path d="m24 2 22 12v2H2v-2c.17-.445 16.96-9.586 22-12Zm-8 18-2 2v16H6V22l-2-2h12Zm28 0-2 2v16h-8V22l-2-2h12Zm-14 0-2 2v16h-8V22l-2-2h12ZM2 42h44v4H2v-4Z" id="byid-21a"/></defs><use xlink:href="#byid-21a"/></symbol><symbol viewBox="0 0 48 48" id="rss" xmlns="http://www.w3.org/2000/svg"><defs><path d="M8 46a6 6 0 1 0 0-12 6 6 0 0 0 0 12Zm8.667-14.667C12.727 27.393 7.473 26 2 26v-8c7.88 0 15.323 2.388 20.577 7.642C27.831 30.896 30 37.9 30 46h-8c0-5.473-1.393-10.726-5.333-14.667ZM38 46c0-19.483-16.736-36-36-36V2c12.04 0 23.204 4.816 31.085 12.915C40.965 23.015 46 33.96 46 46h-8Z" id="bzid-23a"/></defs><use xlink:href="#bzid-23a"/></symbol><symbol viewBox="0 0 48 48" id="search" xmlns="http://www.w3.org/2000/svg"><path d="M2 20c0-9.941 8.059-18 18-18s18 8.059 18 18c0 3.522-1.012 6.808-2.76 9.583l10.588 10.589-5.656 5.656-10.59-10.588A17.916 17.916 0 0 1 20 38c-9.941 0-18-8.059-18-18ZM19.864 7.127c-7.18 0-13 5.82-13 13s5.82 13 13 13 13-5.82 13-13-5.82-13-13-13Z"/></symbol><symbol viewBox="0 0 48 48" id="share" xmlns="http://www.w3.org/2000/svg"><path d="M36 2a8 8 0 1 1-5.563 13.749L19.73 21.93c.176.66.27 1.353.27 2.069a8.01 8.01 0 0 1-.277 2.096l10.536 6.333a8 8 0 1 1-1.981 3.475L17.74 29.57a8 8 0 1 1 .018-11.124l10.587-6.112A8 8 0 0 1 36 2Z"/></symbol><symbol viewBox="0 0 48 48" id="solid-arrow" xmlns="http://www.w3.org/2000/svg"><defs><path id="ccid-24a" d="m32 30-8-13-8 13z"/></defs><use xlink:href="#ccid-24a"/></symbol><symbol viewBox="0 0 48 48" id="spinner" xmlns="http://www.w3.org/2000/svg"><path d="m29.133 36.281 2.495 8.497-4.109 1.207-2.495-8.497 4.11-1.207Zm-11.266 0 4.109 1.207-2.495 8.497-4.11-1.207 2.496-8.497Zm16.635-5.061 6.693 5.799-2.805 3.237-6.692-5.8 2.804-3.236Zm-22.004 0 2.804 3.236-6.692 5.8-2.805-3.237 6.693-5.8Zm23.88-7.31 8.766 1.26-.61 4.24-8.765-1.26.61-4.24Zm-25.756 0 .61 4.24-8.766 1.26-.61-4.24 8.766-1.26ZM42.22 12.994 44 16.89l-8.056 3.679-1.779-3.896 8.056-3.679Zm-37.442 0 8.056 3.68-1.78 3.895L3 16.89l1.78-3.896Zm28.575-8.637 3.603 2.315-4.788 7.45-3.603-2.315 4.788-7.45Zm-19.708 0 4.788 7.45-3.603 2.315-4.788-7.45 3.603-2.315ZM25 2v9h-4V2h4Z"/></symbol><symbol viewBox="0 0 48 48" id="spreadsheet" xmlns="http://www.w3.org/2000/svg"><defs><path d="M2 2h44v44H2V2Zm4 24h8v-6H6v6Zm0 8h8v-6H6v6Zm8 8v-6H6v6h8Zm28-6H16v6h26v-6Zm-26-2h26v-6H16v6Zm0-8h26v-6H16v6Zm0-8h26v-8H16v8ZM6 18h8v-8H6v8Z" id="ceid-25a"/></defs><use xlink:href="#ceid-25a"/></symbol><symbol viewBox="0 0 48 48" id="success" xmlns="http://www.w3.org/2000/svg"><path d="M24 2c12.198 0 22 9.81 22 22s-9.81 22-22 22S2 36.19 2 24 11.81 2 24 2Zm9.25 14-11 10.667-5.5-5.334L14 24l8 8 14-13.333L33.25 16Z"/></symbol><symbol viewBox="0 0 48 48" id="tag" xmlns="http://www.w3.org/2000/svg"><path d="m23 2 23 23-21 21L2 23V2h21Zm-9 7a5 5 0 1 0 0 10 5 5 0 0 0 0-10Z"/></symbol><symbol viewBox="0 0 48 48" id="trash" xmlns="http://www.w3.org/2000/svg"><path fill-rule="evenodd" clip-rule="evenodd" d="M19 5.971H5V11h39V5.971H30V2H19v3.971ZM41 13H8v33h33V13Zm-8 4h3v25h-3V17Zm-10 0h3v25h-3V17Zm-10 0h3v25h-3V17Z"/></symbol><symbol viewBox="0 0 48 48" id="video" xmlns="http://www.w3.org/2000/svg"><defs><path id="ciid-26a" d="m34 38-32-.072V10.072L34 10v10l12-10v28L34 28z"/></defs><use xlink:href="#ciid-26a"/></symbol><symbol viewBox="0 0 48 48" id="warning" xmlns="http://www.w3.org/2000/svg"><path d="m24 6 22 36H2L24 6Zm2 28h-4v4h4v-4Zm0-16h-4v12h4V18Z"/></symbol></svg>