<?xml version="1.0" encoding="utf-8"?><svg xmlns="http://www.w3.org/2000/svg" xmlns:xlink="http://www.w3.org/1999/xlink"><symbol viewBox="0 0 48 48" id="blog" xmlns="http://www.w3.org/2000/svg"><path d="M0 0h48v48H0z" style="fill:none"/><path d="M2 7c0-3.96 1.13-5 5-5h33c5 0 6 1.01 6 5v26c0 3.94-1.89 5-6 5H30l-17 8v-8H7c-3.89-.05-5-1.04-5-5V7Zm7 4h30v3H9v-3Zm30 7H9v3h30v-3Zm-8 7H9v3h22v-3Z" style="fill-rule:evenodd"/></symbol><symbol viewBox="0 0 48 48" id="blog-color" xmlns="http://www.w3.org/2000/svg"><path d="M0 0h48v48H0z" style="fill:none"/><path d="M2 7c0-3.96 1.13-5 5-5h33c5 0 6 1.01 6 5v26c0 3.94-1.89 5-6 5H30l-17 8v-8H7c-3.89-.05-5-1.04-5-5V7Zm7 4h30v3H9v-3Zm30 7H9v3h30v-3Zm-8 7H9v3h22v-3Z" style="fill:#0e47cb;fill-rule:evenodd"/></symbol><symbol viewBox="0 0 48 48" id="blog-negative" xmlns="http://www.w3.org/2000/svg"><path d="M0 0h48v48H0z" style="fill:none"/><path d="M2 7c0-3.96 1.13-5 5-5h33c5 0 6 1.01 6 5v26c0 3.94-1.89 5-6 5H30l-17 8v-8H7c-3.89-.05-5-1.04-5-5V7Zm7 4h30v3H9v-3Zm30 7H9v3h30v-3Zm-8 7H9v3h22v-3Z" style="fill:#fff;fill-rule:evenodd"/></symbol><symbol viewBox="0 0 48 48" id="email" xmlns="http://www.w3.org/2000/svg"><path d="M0 0h48v48H0z" style="fill:none"/><path d="M41.33 12.08H6.67c-.55 0-1 .45-1 1v21.83c0 .55.45 1 1 1h34.66c.55 0 1-.45 1-1V13.08c0-.55-.45-1-1-1Zm-2.67 2.75-14.67 8.25-14.66-8.25h29.33Zm.92 17.33c0 .55-.45 1-1 1H9.42c-.55 0-1-.45-1-1v-15.5L24 25.54l15.58-8.88v15.5Z"/></symbol><symbol viewBox="0 0 48 48" id="email-color" xmlns="http://www.w3.org/2000/svg"><path d="M0 0h48v48H0z" style="fill:none"/><path d="M41.33 12.08H6.67c-.55 0-1 .45-1 1v21.83c0 .55.45 1 1 1h34.66c.55 0 1-.45 1-1V13.08c0-.55-.45-1-1-1Zm-2.67 2.75-14.67 8.25-14.66-8.25h29.33Zm.92 17.33c0 .55-.45 1-1 1H9.42c-.55 0-1-.45-1-1v-15.5L24 25.54l15.58-8.88v15.5Z" style="fill:#0e47cb"/></symbol><symbol viewBox="0 0 48 48" id="email-negative" xmlns="http://www.w3.org/2000/svg"><path d="M0 0h48v48H0z" style="fill:none"/><path d="M41.33 12.08H6.67c-.55 0-1 .45-1 1v21.83c0 .55.45 1 1 1h34.66c.55 0 1-.45 1-1V13.08c0-.55-.45-1-1-1Zm-2.67 2.75-14.67 8.25-14.66-8.25h29.33Zm.92 17.33c0 .55-.45 1-1 1H9.42c-.55 0-1-.45-1-1v-15.5L24 25.54l15.58-8.88v15.5Z" style="fill:#fff"/></symbol><symbol viewBox="0 0 48 48" id="facebook" xmlns="http://www.w3.org/2000/svg"><path d="M46 24.134C46 11.911 36.15 2 24 2S2 11.91 2 24.134C2 35.182 10.045 44.34 20.563 46V30.532h-5.586v-6.398h5.585v-4.876c0-5.548 3.285-8.612 8.31-8.612 2.407 0 4.925.432 4.925.432v5.448h-2.775c-2.732 0-3.584 1.705-3.584 3.457v4.151h6.1l-.973 6.398h-5.127V46C37.954 44.339 46 35.182 46 24.134"/><path fill="#FFF" d="m32.756 30.539.984-6.287h-6.16v-4.079c0-1.72.862-3.396 3.62-3.396H34v-5.353S31.458 11 29.028 11c-5.073 0-8.39 3.01-8.39 8.461v4.791H15v6.287h5.639v15.197c1.131.174 2.29.264 3.47.264 1.182 0 2.34-.09 3.47-.264V30.54h5.177Z"/></symbol><symbol viewBox="0 0 48 48" id="facebook-color" xmlns="http://www.w3.org/2000/svg"><g fill="none" fill-rule="evenodd"><path fill="#1877F2" d="M46 24.134C46 11.911 36.15 2 24 2S2 11.91 2 24.134C2 35.182 10.045 44.34 20.563 46V30.532h-5.586v-6.398h5.585v-4.876c0-5.548 3.285-8.612 8.31-8.612 2.407 0 4.925.432 4.925.432v5.448h-2.775c-2.732 0-3.584 1.705-3.584 3.457v4.151h6.1l-.973 6.398h-5.127V46C37.954 44.339 46 35.182 46 24.134"/><path fill="#FFF" d="m32.756 30.539.984-6.287h-6.16v-4.079c0-1.72.862-3.396 3.62-3.396H34v-5.353S31.458 11 29.028 11c-5.073 0-8.39 3.01-8.39 8.461v4.791H15v6.287h5.639v15.197c1.131.174 2.29.264 3.47.264 1.182 0 2.34-.09 3.47-.264V30.54h5.177Z"/></g></symbol><symbol viewBox="0 0 48 48" id="facebook-negative" xmlns="http://www.w3.org/2000/svg"><path fill="#FFF" fill-rule="evenodd" d="M46 24.134C46 11.911 36.15 2 24 2S2 11.91 2 24.134C2 35.182 10.045 44.34 20.563 46V30.532h-5.586v-6.398h5.585v-4.876c0-5.548 3.285-8.612 8.31-8.612 2.407 0 4.925.432 4.925.432v5.448h-2.775c-2.732 0-3.584 1.705-3.584 3.457v4.151h6.1l-.973 6.398h-5.127V46C37.954 44.339 46 35.182 46 24.134"/></symbol><symbol viewBox="0 0 48 48" id="flickr" xmlns="http://www.w3.org/2000/svg"><ellipse cx="11.625" cy="23.5" rx="9.625" ry="9.5"/><ellipse cx="36.375" cy="23.5" rx="9.625" ry="9.5"/></symbol><symbol viewBox="0 0 48 48" id="flickr-color" xmlns="http://www.w3.org/2000/svg"><g fill="none" fill-rule="evenodd"><ellipse cx="11.625" cy="23.5" fill="#0063DC" rx="9.625" ry="9.5"/><ellipse cx="36.375" cy="23.5" fill="#FF0084" rx="9.625" ry="9.5"/></g></symbol><symbol viewBox="0 0 48 48" id="flickr-negative" xmlns="http://www.w3.org/2000/svg"><g fill="#FFF" fill-rule="evenodd"><ellipse cx="11.625" cy="23.5" rx="9.625" ry="9.5"/><ellipse cx="36.375" cy="23.5" rx="9.625" ry="9.5"/></g></symbol><symbol viewBox="0 0 48 48" id="foursquare" xmlns="http://www.w3.org/2000/svg"><path d="M35.054 2H11.251C7.965 2 7 4.436 7 5.97v37.3c0 1.847.943 2.367 1.472 2.577.53.212 1.891.347 2.866-.603 0 0 11.296-12.998 11.479-13.198.182-.2.29-.203.396-.203l7.201.003c1.933 0 3.517-1.248 3.93-3.199 0 0 4.199-20.134 4.585-22.013C39.353 4.586 37.855 2 35.054 2"/><path fill="#FFF" d="m33.97 8.511-1.08 5.117a1.33 1.33 0 0 1-1.29 1.044h-9.5c-1.045 0-1.904.844-1.904 1.879v1.128c0 1.032.859 1.878 1.903 1.878h8.08c.734 0 1.358.69 1.199 1.47-.163.78-.983 4.781-1.073 5.211a1.34 1.34 0 0 1-1.293 1.004l-6.626.003c-1.336.041-1.625.048-2.41 1.013-.787.966-7.843 9.69-7.843 9.69-.071.084-.133.06-.133-.03V8.258C12 7.571 12.582 7 13.274 7h19.51c.708 0 1.365.655 1.186 1.511"/></symbol><symbol viewBox="0 0 48 48" id="foursquare-color" xmlns="http://www.w3.org/2000/svg"><g fill="none" fill-rule="evenodd"><path fill="#FF577A" d="M35.054 2H11.251C7.965 2 7 4.436 7 5.97v37.3c0 1.847.943 2.367 1.472 2.577.53.212 1.891.347 2.866-.603 0 0 11.296-12.998 11.479-13.198.182-.2.29-.203.396-.203l7.201.003c1.933 0 3.517-1.248 3.93-3.199 0 0 4.199-20.134 4.585-22.013C39.353 4.586 37.855 2 35.054 2"/><path fill="#FFF" fill-rule="nonzero" d="m33.97 8.511-1.08 5.117a1.33 1.33 0 0 1-1.29 1.044h-9.5c-1.045 0-1.904.844-1.904 1.879v1.128c0 1.032.859 1.878 1.903 1.878h8.08c.734 0 1.358.69 1.199 1.47-.163.78-.983 4.781-1.073 5.211a1.34 1.34 0 0 1-1.293 1.004l-6.626.003c-1.336.041-1.625.048-2.41 1.013-.787.966-7.843 9.69-7.843 9.69-.071.084-.133.06-.133-.03V8.258C12 7.571 12.582 7 13.274 7h19.51c.708 0 1.365.655 1.186 1.511"/></g></symbol><symbol viewBox="0 0 48 48" id="foursquare-negative" xmlns="http://www.w3.org/2000/svg"><path fill="#FFF" fill-rule="evenodd" d="M35.054 2c2.801 0 4.299 2.586 3.875 4.634-.386 1.88-4.584 22.013-4.584 22.013-.414 1.951-1.998 3.199-3.93 3.199l-2.548-.001h-2.253l-.23-.001H23.6l-.107-.001h-.28c-.106 0-.214.003-.396.203l-.046.052c-.382.435-3 3.445-5.635 6.475l-.51.586-5.288 6.085c-.975.95-2.336.815-2.866.603-.53-.21-1.472-.73-1.472-2.578V5.97C7 4.437 7.965 2 11.251 2Zm-2.27 5h-19.51C12.582 7 12 7.571 12 8.258v29.66c0 .09.062.114.133.03l.026-.032.077-.095 3.523-4.355.6-.742c1.665-2.057 3.265-4.035 3.616-4.466.786-.965 1.075-.972 2.41-1.013h1.784l.238-.001h2.055l.254-.001h2.296a1.34 1.34 0 0 0 1.293-1.005l.483-2.347.105-.512c.21-1.023.412-2.006.485-2.352.159-.78-.465-1.47-1.199-1.47H22.1c-1.044 0-1.903-.846-1.903-1.878v-1.128c0-1.035.859-1.88 1.903-1.88h9.5a1.33 1.33 0 0 0 1.292-1.043l1.08-5.117A1.232 1.232 0 0 0 32.783 7Z"/></symbol><symbol viewBox="0 0 48 48" id="instagram" xmlns="http://www.w3.org/2000/svg"><path d="M46 23.96c-.01-5.97-.04-6.72-.15-9.07-.11-2.35-.48-3.94-1.03-5.34-.57-1.45-1.32-2.67-2.54-3.89-1.22-1.22-2.45-1.97-3.9-2.53-1.4-.54-3-.91-5.34-1.01-2.34-.1-3.1-.13-9.07-.12-5.97.01-6.72.04-9.07.15-2.34.11-3.94.48-5.34 1.03-1.45.56-2.67 1.32-3.89 2.54-1.22 1.22-1.97 2.45-2.53 3.9-.54 1.4-.91 3-1.01 5.34-.1 2.34-.13 3.09-.11 9.07.01 5.97.04 6.72.15 9.07.11 2.34.48 3.94 1.03 5.34.56 1.45 1.32 2.67 2.54 3.89 1.22 1.22 2.45 1.97 3.9 2.53 1.4.54 3 .91 5.34 1.01 2.34.1 3.1.13 9.07.11 5.97-.01 6.72-.04 9.07-.15 2.35-.11 3.94-.49 5.33-1.03 1.45-.57 2.67-1.32 3.89-2.54 1.22-1.22 1.97-2.45 2.53-3.9.54-1.4.91-3 1.01-5.34.1-2.35.13-3.1.12-9.07Zm-4.07 8.9c-.09 2.14-.45 3.31-.75 4.09-.4 1.03-.87 1.76-1.64 2.53-.77.77-1.5 1.25-2.53 1.65-.77.3-1.94.66-4.08.77-2.32.11-3.02.13-8.89.14-5.87.01-6.57-.01-8.89-.11-2.15-.09-3.31-.45-4.09-.75-1.03-.4-1.76-.87-2.53-1.64-.77-.77-1.25-1.5-1.65-2.53-.3-.78-.66-1.94-.76-4.08-.11-2.32-.13-3.01-.14-8.89-.01-5.87 0-6.57.11-8.89.09-2.14.45-3.31.75-4.08.4-1.03.87-1.76 1.64-2.53.77-.77 1.5-1.25 2.53-1.65.78-.3 1.94-.66 4.08-.76 2.32-.11 3.02-.13 8.89-.14 5.87-.01 6.57 0 8.89.11 2.14.09 3.31.45 4.08.75 1.03.4 1.76.87 2.53 1.64.77.77 1.25 1.5 1.65 2.53.3.77.66 1.94.76 4.08.11 2.32.14 3.02.15 8.89.01 5.87-.01 6.57-.11 8.89Z"/><path d="M23.98 12.7c-6.24.01-11.29 5.08-11.27 11.32.01 6.24 5.08 11.29 11.32 11.27 6.24-.01 11.29-5.08 11.28-11.32-.01-6.24-5.08-11.29-11.32-11.27Zm6.8 14.09a7.361 7.361 0 0 1-2.69 3.3c-1.2.81-2.62 1.24-4.07 1.24-.96 0-1.92-.19-2.81-.55s-1.7-.91-2.38-1.58a7.364 7.364 0 0 1-2.15-5.19c0-1.45.42-2.87 1.23-4.08.8-1.21 1.95-2.15 3.29-2.71a7.325 7.325 0 0 1 8 1.57 7.258 7.258 0 0 1 2.01 3.75c.29 1.42.14 2.9-.41 4.24ZM37.18 10.04c-.43-.29-.95-.44-1.47-.44-.7 0-1.37.28-1.86.78s-.77 1.17-.77 1.87a2.636 2.636 0 0 0 1.64 2.44c.48.2 1.01.25 1.53.15.51-.1.98-.36 1.35-.73.37-.37.62-.84.72-1.35.1-.51.05-1.04-.15-1.53-.2-.48-.54-.89-.97-1.18Z"/></symbol><symbol fill="none" viewBox="0 0 48 48" id="instagram-color" xmlns="http://www.w3.org/2000/svg"><path fill="#000" d="M14.889 2.154c-2.341.11-3.94.484-5.337 1.033A10.766 10.766 0 0 0 5.66 5.731a10.777 10.777 0 0 0-2.53 3.9c-.542 1.4-.91 3-1.012 5.342-.104 2.342-.127 3.095-.115 9.07.011 5.974.038 6.722.151 9.07.112 2.34.484 3.938 1.033 5.336a10.777 10.777 0 0 0 2.545 3.892c1.224 1.22 2.45 1.969 3.902 2.53 1.4.54 3 .909 5.341 1.011 2.342.103 3.096.127 9.068.115 5.973-.011 6.725-.038 9.071-.149 2.347-.111 3.936-.486 5.335-1.032 1.446-.566 2.672-1.32 3.892-2.546a10.782 10.782 0 0 0 2.529-3.901c.542-1.4.91-3 1.012-5.34.102-2.348.126-3.098.115-9.071-.011-5.974-.038-6.723-.15-9.069-.111-2.346-.484-3.939-1.032-5.338-.566-1.446-1.32-2.67-2.544-3.892-1.224-1.22-2.453-1.97-3.902-2.529-1.4-.541-3-.91-5.341-1.012-2.342-.1-3.095-.127-9.07-.115-5.975.011-6.723.037-9.07.151Zm.257 39.77c-2.146-.093-3.31-.449-4.086-.747-1.028-.396-1.76-.875-2.534-1.641-.773-.766-1.249-1.5-1.65-2.526-.301-.777-.664-1.94-.765-4.085-.109-2.318-.132-3.014-.144-8.888-.013-5.874.01-6.569.111-8.888.091-2.143.45-3.31.748-4.085a6.812 6.812 0 0 1 1.64-2.533c.769-.773 1.501-1.25 2.528-1.65.775-.303 1.938-.663 4.082-.765 2.32-.11 3.016-.132 8.888-.145 5.873-.013 6.57.01 8.891.111 2.143.094 3.31.449 4.085.748 1.028.396 1.76.872 2.533 1.641.773.77 1.25 1.5 1.65 2.528.304.773.664 1.936.765 4.081.11 2.32.135 3.016.146 8.888.01 5.872-.01 6.57-.112 8.888-.094 2.145-.45 3.31-.748 4.087a6.818 6.818 0 0 1-1.642 2.533c-.768.773-1.5 1.249-2.526 1.65-.775.302-1.94.663-4.082.765-2.32.11-3.015.132-8.89.145-5.875.013-6.568-.011-8.888-.111M33.08 12.242a2.64 2.64 0 1 0 5.282-.01 2.64 2.64 0 0 0-5.282.01Zm-20.376 11.78c.012 6.24 5.08 11.285 11.317 11.274 6.238-.012 11.288-5.079 11.276-11.318-.012-6.24-5.08-11.287-11.319-11.275-6.239.013-11.286 5.08-11.274 11.319Zm3.963-.008a7.333 7.333 0 1 1 14.666-.03 7.333 7.333 0 0 1-14.666.03Z"/></symbol><symbol viewBox="0 0 48 48" id="instagram-negative" xmlns="http://www.w3.org/2000/svg"><defs><style>.aqcls-3{fill:#fff;fill-rule:evenodd}</style><mask id="aqmask" width="44" height="44" x="2" y="2" maskUnits="userSpaceOnUse"/></defs><path id="aqtransparant_bg" d="M0 0h48v48H0z" style="fill:none"/><g id="aqLayer_1"><g id="aqComponent_type_Icons_Icon_type_Social_Size_2XL_48x48px_Subject_Icon-Instagram_Style_Negative_Webtools_False" style="mask:url(#aqmask)"><path id="aqFill_1" d="M24 2c-5.97 0-6.72.03-9.07.13-2.34.11-3.94.48-5.34 1.02-1.45.56-2.67 1.31-3.9 2.54a10.76 10.76 0 0 0-2.54 3.9c-.54 1.4-.92 3-1.02 5.34C2.02 17.28 2 18.03 2 24s.03 6.72.13 9.07c.11 2.34.48 3.94 1.02 5.34.56 1.45 1.31 2.67 2.54 3.9a10.76 10.76 0 0 0 3.9 2.54c1.4.54 3 .92 5.34 1.02 2.35.11 3.1.13 9.07.13s6.72-.03 9.07-.13c2.34-.11 3.94-.48 5.34-1.02 1.45-.56 2.67-1.31 3.9-2.54a10.76 10.76 0 0 0 2.54-3.9c.54-1.4.92-3 1.02-5.34.11-2.35.13-3.1.13-9.07s-.03-6.72-.13-9.07c-.11-2.34-.48-3.94-1.02-5.34-.56-1.45-1.31-2.67-2.54-3.9a10.76 10.76 0 0 0-3.9-2.54c-1.4-.54-3-.92-5.34-1.02C30.72 2.02 29.97 2 24 2Zm0 3.96c5.87 0 6.57.02 8.89.13 2.15.1 3.31.46 4.09.76 1.03.4 1.76.88 2.53 1.65.77.77 1.25 1.5 1.65 2.53.3.78.66 1.94.76 4.09.11 2.32.13 3.02.13 8.89s-.02 6.57-.13 8.89c-.1 2.15-.46 3.31-.76 4.09-.4 1.03-.88 1.76-1.65 2.53-.77.77-1.5 1.25-2.53 1.65-.78.3-1.94.66-4.09.76-2.32.11-3.02.13-8.89.13s-6.57-.02-8.89-.13c-2.14-.1-3.31-.46-4.09-.76-1.03-.4-1.76-.88-2.53-1.65-.77-.77-1.25-1.5-1.65-2.53-.3-.78-.66-1.94-.76-4.09-.11-2.32-.13-3.02-.13-8.89s.02-6.57.13-8.89c.1-2.15.46-3.31.76-4.09.4-1.03.88-1.76 1.65-2.53.77-.77 1.5-1.25 2.53-1.65.78-.3 1.94-.66 4.09-.76 2.32-.11 3.02-.13 8.89-.13Z" class="aqcls-3"/><path id="aqFill_4" d="M24.5 31.96a7.46 7.46 0 1 1 0-14.92 7.46 7.46 0 0 1 0 14.92Zm0-18.96C18.15 13 13 18.15 13 24.5S18.15 36 24.5 36 36 30.85 36 24.5 30.85 13 24.5 13Z" class="aqcls-3"/><path id="aqFill_5" d="M38 12.5a2.5 2.5 0 0 1-5 0 2.5 2.5 0 0 1 5 0Z" class="aqcls-3"/></g></g></symbol><symbol viewBox="0 0 48 48" id="linkedin" xmlns="http://www.w3.org/2000/svg"><path d="M42.74 2.003H5.247A3.21 3.21 0 0 0 2 5.175v37.65A3.213 3.213 0 0 0 5.247 46H42.74A3.22 3.22 0 0 0 46 42.825V5.172A3.218 3.218 0 0 0 42.74 2"/><path fill="#FFF" d="M31.295 17.778c6.506 0 7.705 4.286 7.705 9.863L38.997 39H32.58V28.6c-.01-2.345-.193-5.161-3.338-5.161-3.266 0-3.83 2.496-3.854 5.129v10.431h-6.42V18.293h6.162v2.83h.087a6.75 6.75 0 0 1 6.08-3.345Zm-16.36.515V39H8.509V18.293h6.426ZM11.725 8a3.728 3.728 0 0 1 3.724 3.73c0 .99-.392 1.94-1.09 2.64a3.721 3.721 0 0 1-2.634 1.093A3.728 3.728 0 0 1 8 11.732 3.728 3.728 0 0 1 11.724 8Z"/></symbol><symbol viewBox="0 0 48 48" id="linkedin-color" xmlns="http://www.w3.org/2000/svg"><g fill="none" fill-rule="nonzero"><path fill="#0A66C2" d="M42.74 2.003H5.247A3.21 3.21 0 0 0 2 5.175v37.65A3.213 3.213 0 0 0 5.247 46H42.74A3.22 3.22 0 0 0 46 42.825V5.172A3.218 3.218 0 0 0 42.74 2"/><path fill="#FFF" d="M31.295 17.778c6.506 0 7.705 4.286 7.705 9.863L38.997 39H32.58V28.6c-.01-2.345-.193-5.161-3.338-5.161-3.266 0-3.83 2.496-3.854 5.129v10.431h-6.42V18.293h6.162v2.83h.087a6.75 6.75 0 0 1 6.08-3.345Zm-16.36.515V39H8.509V18.293h6.426ZM11.725 8a3.728 3.728 0 0 1 3.724 3.73c0 .99-.392 1.94-1.09 2.64a3.721 3.721 0 0 1-2.634 1.093A3.728 3.728 0 0 1 8 11.732 3.728 3.728 0 0 1 11.724 8Z"/></g></symbol><symbol viewBox="0 0 48 48" id="linkedin-negative" xmlns="http://www.w3.org/2000/svg"><path fill="#FFF" fill-rule="evenodd" d="M42.74 2A3.218 3.218 0 0 1 46 5.172v37.653A3.22 3.22 0 0 1 42.74 46H5.247A3.213 3.213 0 0 1 2 42.825V5.175a3.21 3.21 0 0 1 3.247-3.172H42.74ZM31.295 17.778a6.75 6.75 0 0 0-6.08 3.345h-.086v-2.83h-6.161v20.706h6.418l.001-10.431c.024-2.633.588-5.13 3.854-5.13 3.145 0 3.327 2.817 3.337 5.161V39h6.42L39 27.64c0-5.576-1.2-9.862-7.705-9.862Zm-16.36.515H8.509V39h6.426V18.293ZM11.725 8A3.728 3.728 0 0 0 8 11.732a3.728 3.728 0 0 0 3.725 3.73c.988 0 1.936-.393 2.634-1.093a3.735 3.735 0 0 0 1.09-2.638A3.728 3.728 0 0 0 11.724 8Z"/></symbol><symbol viewBox="0 0 48 48" id="mastodon" xmlns="http://www.w3.org/2000/svg"><path fill-rule="evenodd" d="M33.517 36.582c6.024-.724 11.272-4.421 11.919-7.808.913-4.614.962-10.957.975-12.601.002-.263.003-.406.007-.403 0-10.418-6.825-13.47-6.825-13.47C36.154.725 30.234.053 24.107 0h-.155c-6.127.052-12.048.724-15.46 2.3 0 0-6.825 3.052-6.825 13.47 0 .651-.004 1.337-.008 2.051-.01 1.897-.023 4 .034 6.196.232 10.16 1.861 20.217 11.22 22.725 4.343 1.137 8.066 1.37 11.065 1.215 5.455-.31 8.505-1.939 8.505-1.939l-.18-3.956s-3.879 1.241-8.248 1.086c-4.317-.155-8.893-.49-9.591-5.79a9.322 9.322 0 0 1-.104-1.5s4.266 1.034 9.644 1.293c3.265.154 6.35-.203 9.461-.563l.052-.006Zm4.854-7.394V16.572c0-2.586-.647-4.628-1.99-6.127-1.371-1.526-3.155-2.301-5.352-2.301-2.56 0-4.499.982-5.766 2.947l-1.24 2.094-1.241-2.094c-1.267-1.965-3.206-2.947-5.766-2.947-2.223 0-3.981.775-5.351 2.3-1.319 1.5-1.965 3.542-1.965 6.128v12.564h5.015V16.908c0-2.56 1.086-3.878 3.258-3.878 2.378 0 3.593 1.55 3.593 4.627v6.722h4.964v-6.696c0-3.076 1.19-4.627 3.594-4.627 2.171 0 3.257 1.292 3.257 3.877v12.255h4.99Z" clip-rule="evenodd"/></symbol><symbol fill="none" viewBox="0 0 48 48" id="mastodon-color" xmlns="http://www.w3.org/2000/svg"><path fill="#2B90D9" d="M45.436 28.774c-.647 3.387-5.895 7.084-11.919 7.808-3.128.362-6.23.724-9.513.569-5.378-.26-9.644-1.293-9.644-1.293 0 .517.026 1.034.104 1.5.698 5.3 5.274 5.635 9.591 5.79 4.37.155 8.247-1.086 8.247-1.086l.181 3.956s-3.05 1.629-8.505 1.939c-3 .155-6.722-.078-11.065-1.215-9.359-2.508-10.988-12.565-11.22-22.725-.078-3.024-.026-5.868-.026-8.247C1.667 5.352 8.492 2.3 8.492 2.3 11.904.725 17.825.053 23.952 0h.155c6.127.052 12.047.724 15.486 2.3 0 0 6.825 3.052 6.825 13.47-.026-.026.078 7.653-.982 13.004Z"/><path fill="#fff" d="M38.37 16.572v12.616h-4.989V16.933c0-2.585-1.086-3.877-3.257-3.877-2.405 0-3.594 1.55-3.594 4.627v6.696h-4.964v-6.722c0-3.076-1.215-4.627-3.593-4.627-2.172 0-3.258 1.318-3.258 3.878v12.228H9.7V16.572c0-2.586.646-4.628 1.965-6.127 1.37-1.526 3.128-2.301 5.351-2.301 2.56 0 4.499.982 5.766 2.947l1.24 2.094 1.241-2.094c1.267-1.965 3.206-2.947 5.765-2.947 2.198 0 3.982.775 5.352 2.3 1.344 1.5 1.99 3.542 1.99 6.128Z"/></symbol><symbol fill="none" viewBox="0 0 48 48" id="mastodon-negative" xmlns="http://www.w3.org/2000/svg"><path fill="#fff" fill-rule="evenodd" d="M33.517 36.582c6.024-.724 11.272-4.421 11.919-7.808.913-4.614.962-10.957.975-12.601.002-.263.003-.406.007-.403 0-10.418-6.825-13.47-6.825-13.47C36.154.725 30.234.053 24.107 0h-.155c-6.127.052-12.048.724-15.46 2.3 0 0-6.825 3.052-6.825 13.47 0 .651-.004 1.337-.008 2.051-.01 1.897-.023 4 .034 6.196.232 10.16 1.861 20.217 11.22 22.725 4.343 1.137 8.066 1.37 11.065 1.215 5.455-.31 8.505-1.939 8.505-1.939l-.18-3.956s-3.879 1.241-8.248 1.086c-4.317-.155-8.893-.49-9.591-5.79a9.322 9.322 0 0 1-.104-1.5s4.266 1.034 9.644 1.293c3.265.154 6.35-.203 9.461-.563l.052-.006Zm4.854-7.394V16.572c0-2.586-.647-4.628-1.99-6.127-1.371-1.526-3.155-2.301-5.352-2.301-2.56 0-4.499.982-5.766 2.947l-1.24 2.094-1.241-2.094c-1.267-1.965-3.206-2.947-5.766-2.947-2.223 0-3.981.775-5.351 2.3-1.319 1.5-1.965 3.542-1.965 6.128v12.564h5.015V16.908c0-2.56 1.086-3.878 3.258-3.878 2.378 0 3.593 1.55 3.593 4.627v6.722h4.964v-6.696c0-3.076 1.19-4.627 3.594-4.627 2.171 0 3.257 1.292 3.257 3.877v12.255h4.99Z" clip-rule="evenodd"/></symbol><symbol viewBox="0 0 48 48" id="pinterest" xmlns="http://www.w3.org/2000/svg"><defs><mask id="baa" width="43.96" height="44" x="2" y="2" maskUnits="userSpaceOnUse"/></defs><path d="M0 0h48v48H0z" style="fill:none"/><g style="mask:url(#baa)"><path d="M24 2C11.85 2 2 11.84 2 23.98c0 9.32 5.79 17.28 13.98 20.48-.2-1.74-.36-4.41.07-6.31.4-1.72 2.57-10.93 2.57-10.93s-.65-1.32-.65-3.26c0-3.06 1.77-5.34 3.98-5.34 1.88 0 2.79 1.41 2.79 3.09 0 1.88-1.19 4.7-1.83 7.33-.52 2.19 1.1 3.98 3.26 3.98 3.91 0 6.92-4.13 6.92-10.06 0-5.26-3.78-8.94-9.2-8.94-6.26 0-9.94 4.69-9.94 9.53 0 1.88.73 3.91 1.63 5.01.18.22.2.42.15.63-.16.69-.54 2.19-.62 2.5-.09.4-.33.49-.74.29-2.75-1.29-4.47-5.28-4.47-8.52 0-6.93 5.03-13.3 14.54-13.3 7.62 0 13.56 5.43 13.56 12.7s-4.78 13.68-11.41 13.68c-2.23 0-4.33-1.16-5.03-2.53 0 0-1.11 4.2-1.38 5.23-.49 1.92-1.83 4.31-2.73 5.77 2.06.63 4.24.98 6.52.98 12.15 0 22-9.84 22-21.98.04-12.18-9.81-22.02-21.96-22.02Z" style="fill-rule:evenodd"/></g></symbol><symbol viewBox="0 0 48 48" id="pinterest-color" xmlns="http://www.w3.org/2000/svg"><defs><mask id="aya" width="44" height="43.96" x="2" y="2" maskUnits="userSpaceOnUse"/><mask id="ayb" width="43.96" height="44" x="2" y="2" maskUnits="userSpaceOnUse"/></defs><path d="M0 0h48v48H0z" style="fill:none"/><g style="mask:url(#aya)"><path d="M24 2c12.15 0 22 9.84 22 21.98s-9.85 21.98-22 21.98S2 36.12 2 23.98 11.85 2 24 2Z" style="fill:#fff;fill-rule:evenodd"/></g><g style="mask:url(#ayb)"><path d="M24 2C11.85 2 2 11.84 2 23.98c0 9.32 5.79 17.28 13.98 20.48-.2-1.74-.36-4.41.07-6.31.4-1.72 2.57-10.93 2.57-10.93s-.65-1.32-.65-3.26c0-3.06 1.77-5.34 3.98-5.34 1.88 0 2.79 1.41 2.79 3.09 0 1.88-1.19 4.7-1.83 7.33-.52 2.19 1.1 3.98 3.26 3.98 3.91 0 6.92-4.13 6.92-10.06 0-5.26-3.78-8.94-9.2-8.94-6.26 0-9.94 4.69-9.94 9.53 0 1.88.73 3.91 1.63 5.01.18.22.2.42.15.63-.16.69-.54 2.19-.62 2.5-.09.4-.33.49-.74.29-2.75-1.29-4.47-5.28-4.47-8.52 0-6.93 5.03-13.3 14.54-13.3 7.62 0 13.56 5.43 13.56 12.7s-4.78 13.68-11.41 13.68c-2.23 0-4.33-1.16-5.03-2.53 0 0-1.11 4.2-1.38 5.23-.49 1.92-1.83 4.31-2.73 5.77 2.06.63 4.24.98 6.52.98 12.15 0 22-9.84 22-21.98.04-12.18-9.81-22.02-21.96-22.02Z" style="fill-rule:evenodd;fill:#e60023"/></g></symbol><symbol viewBox="0 0 48 48" id="pinterest-negative" xmlns="http://www.w3.org/2000/svg"><defs><mask id="aza" width="43.96" height="44" x="2" y="2" maskUnits="userSpaceOnUse"/></defs><path d="M0 0h48v48H0z" style="fill:none"/><g style="mask:url(#aza)"><path d="M24 2C11.85 2 2 11.84 2 23.98c0 9.32 5.79 17.28 13.98 20.48-.2-1.74-.36-4.41.07-6.31.4-1.72 2.57-10.93 2.57-10.93s-.65-1.32-.65-3.26c0-3.06 1.77-5.34 3.98-5.34 1.88 0 2.79 1.41 2.79 3.09 0 1.88-1.19 4.7-1.83 7.33-.52 2.19 1.1 3.98 3.26 3.98 3.91 0 6.92-4.13 6.92-10.06 0-5.26-3.78-8.94-9.2-8.94-6.26 0-9.94 4.69-9.94 9.53 0 1.88.73 3.91 1.63 5.01.18.22.2.42.15.63-.16.69-.54 2.19-.62 2.5-.09.4-.33.49-.74.29-2.75-1.29-4.47-5.28-4.47-8.52 0-6.93 5.03-13.3 14.54-13.3 7.62 0 13.56 5.43 13.56 12.7s-4.78 13.68-11.41 13.68c-2.23 0-4.33-1.16-5.03-2.53 0 0-1.11 4.2-1.38 5.23-.49 1.92-1.83 4.31-2.73 5.77 2.06.63 4.24.98 6.52.98 12.15 0 22-9.84 22-21.98.04-12.18-9.81-22.02-21.96-22.02Z" style="fill:#fff;fill-rule:evenodd"/></g></symbol><symbol viewBox="0 0 48 48" id="reddit" xmlns="http://www.w3.org/2000/svg"><path fill-rule="evenodd" d="M24 46c12.15 0 22-9.85 22-22S36.15 2 24 2 2 11.85 2 24s9.85 22 22 22Zm2.217-19.49a2.277 2.277 0 0 0 2.267 2.28 2.276 2.276 0 0 0 2.266-2.28 2.276 2.276 0 0 0-2.266-2.282 2.277 2.277 0 0 0-2.267 2.281Zm-2.718 7.701c.872 0 3.836-.12 5.383-1.675a.594.594 0 0 0 .002-.836.584.584 0 0 0-.831 0c-.977.981-3.063 1.33-4.554 1.33-1.49 0-3.575-.349-4.55-1.33a.584.584 0 0 0-.831 0 .591.591 0 0 0 0 .835c1.545 1.556 4.508 1.676 5.381 1.676Zm-4.988-9.983a2.277 2.277 0 0 0-2.267 2.281 2.276 2.276 0 0 0 2.267 2.28 2.275 2.275 0 0 0 2.265-2.28 2.276 2.276 0 0 0-2.265-2.281Zm16.316-3.193A3.183 3.183 0 0 1 38 24.228a3.192 3.192 0 0 1-1.888 2.917c.05.315.075.637.075.96 0 4.913-5.683 8.895-12.694 8.895-7.01 0-12.694-3.982-12.694-8.895 0-.326.027-.649.077-.965A3.194 3.194 0 0 1 9 24.228a3.183 3.183 0 0 1 3.173-3.193c.853 0 1.625.34 2.195.89 2.198-1.593 5.235-2.611 8.612-2.706l1.614-7.636a.57.57 0 0 1 .672-.44l5.274 1.13A2.254 2.254 0 0 1 32.564 11a2.273 2.273 0 0 1 2.266 2.28 2.274 2.274 0 0 1-2.266 2.281c-1.216 0-2.2-.965-2.256-2.173l-4.724-1.01-1.444 6.844c3.328.116 6.316 1.134 8.486 2.708a3.15 3.15 0 0 1 2.201-.895Z" clip-rule="evenodd"/></symbol><symbol fill="none" viewBox="0 0 48 48" id="reddit-color" xmlns="http://www.w3.org/2000/svg"><g fill-rule="evenodd" clip-rule="evenodd"><path fill="#FF4500" d="M46 24c0 12.15-9.85 22-22 22S2 36.15 2 24 11.85 2 24 2s22 9.85 22 22Z"/><path fill="#fff" d="M28.484 28.79a2.277 2.277 0 0 1-2.267-2.28 2.277 2.277 0 0 1 2.267-2.282 2.276 2.276 0 0 1 2.266 2.281 2.276 2.276 0 0 1-2.266 2.281Zm.398 3.746c-1.547 1.555-4.51 1.675-5.383 1.675-.873 0-3.836-.12-5.381-1.676a.591.591 0 0 1 0-.835.584.584 0 0 1 .83 0c.976.981 3.06 1.33 4.551 1.33 1.49 0 3.577-.349 4.554-1.33a.584.584 0 0 1 .83 0 .594.594 0 0 1 0 .836Zm-12.639-6.027a2.277 2.277 0 0 1 2.268-2.281 2.276 2.276 0 0 1 2.265 2.281 2.275 2.275 0 0 1-2.265 2.28 2.276 2.276 0 0 1-2.267-2.28ZM38 24.228a3.183 3.183 0 0 0-3.173-3.193 3.15 3.15 0 0 0-2.2.895c-2.171-1.574-5.16-2.592-8.487-2.708l1.444-6.844 4.724 1.01a2.268 2.268 0 0 0 2.256 2.173 2.274 2.274 0 0 0 2.266-2.281A2.273 2.273 0 0 0 32.564 11c-.89 0-1.654.52-2.024 1.273l-5.274-1.13a.57.57 0 0 0-.672.44l-1.614 7.636c-3.377.095-6.414 1.113-8.612 2.706a3.15 3.15 0 0 0-2.195-.89A3.183 3.183 0 0 0 9 24.228c0 1.297.771 2.412 1.876 2.912-.05.316-.077.64-.077.965C10.8 33.018 16.483 37 23.493 37c7.01 0 12.694-3.982 12.694-8.895 0-.323-.026-.645-.075-.96A3.192 3.192 0 0 0 38 24.228Z"/></g></symbol><symbol fill="none" viewBox="0 0 48 48" id="reddit-negative" xmlns="http://www.w3.org/2000/svg"><path fill="#fff" fill-rule="evenodd" d="M24 46c12.15 0 22-9.85 22-22S36.15 2 24 2 2 11.85 2 24s9.85 22 22 22Zm2.217-19.49a2.277 2.277 0 0 0 2.267 2.28 2.276 2.276 0 0 0 2.266-2.28 2.276 2.276 0 0 0-2.266-2.282 2.277 2.277 0 0 0-2.267 2.281Zm-2.718 7.701c.872 0 3.836-.12 5.383-1.675a.594.594 0 0 0 .002-.836.584.584 0 0 0-.831 0c-.977.981-3.063 1.33-4.554 1.33-1.49 0-3.575-.349-4.55-1.33a.584.584 0 0 0-.831 0 .591.591 0 0 0 0 .835c1.545 1.556 4.508 1.676 5.381 1.676Zm-4.988-9.983a2.277 2.277 0 0 0-2.267 2.281 2.276 2.276 0 0 0 2.267 2.28 2.275 2.275 0 0 0 2.265-2.28 2.276 2.276 0 0 0-2.265-2.281Zm16.316-3.193A3.183 3.183 0 0 1 38 24.228a3.192 3.192 0 0 1-1.888 2.917c.05.315.075.637.075.96 0 4.913-5.683 8.895-12.694 8.895-7.01 0-12.694-3.982-12.694-8.895 0-.326.027-.649.077-.965A3.194 3.194 0 0 1 9 24.228a3.183 3.183 0 0 1 3.173-3.193c.853 0 1.625.34 2.195.89 2.198-1.593 5.235-2.611 8.612-2.706l1.614-7.636a.57.57 0 0 1 .672-.44l5.274 1.13A2.254 2.254 0 0 1 32.564 11a2.273 2.273 0 0 1 2.266 2.28 2.274 2.274 0 0 1-2.266 2.281c-1.216 0-2.2-.965-2.256-2.173l-4.724-1.01-1.444 6.844c3.328.116 6.316 1.134 8.486 2.708a3.15 3.15 0 0 1 2.201-.895Z" clip-rule="evenodd"/></symbol><symbol viewBox="0 0 48 48" id="share" xmlns="http://www.w3.org/2000/svg"><path d="M0 0h48v48H0z" style="fill:none"/><path d="M36 32c-1.32 0-2.53.44-3.52 1.16l-14.55-8.4c.03-.25.08-.5.08-.76s-.04-.51-.08-.76l14.55-8.4c.99.72 2.2 1.16 3.52 1.16 3.31 0 6-2.69 6-6s-2.69-6-6-6-6 2.69-6 6c0 .53.09 1.03.22 1.52l-14.09 8.14C15.05 18.64 13.61 18 12.01 18c-3.31 0-6 2.69-6 6s2.69 6 6 6c1.6 0 3.05-.64 4.12-1.66l14.09 8.14c-.13.49-.22.99-.22 1.52 0 3.31 2.69 6 6 6s6-2.69 6-6-2.69-6-6-6Z" style="fill:#231f20"/></symbol><symbol viewBox="0 0 48 48" id="share-color" xmlns="http://www.w3.org/2000/svg"><path d="M0 0h48v48H0z" style="fill:none"/><path d="M36 32c-1.32 0-2.53.44-3.52 1.16l-14.55-8.4c.03-.25.08-.5.08-.76s-.04-.51-.08-.76l14.55-8.4c.99.72 2.2 1.16 3.52 1.16 3.31 0 6-2.69 6-6s-2.69-6-6-6-6 2.69-6 6c0 .53.09 1.03.22 1.52l-14.09 8.14C15.05 18.64 13.61 18 12.01 18c-3.31 0-6 2.69-6 6s2.69 6 6 6c1.6 0 3.05-.64 4.12-1.66l14.09 8.14c-.13.49-.22.99-.22 1.52 0 3.31 2.69 6 6 6s6-2.69 6-6-2.69-6-6-6Z" style="fill:#0e47cb"/></symbol><symbol viewBox="0 0 48 48" id="share-negative" xmlns="http://www.w3.org/2000/svg"><path d="M0 0h48v48H0z" style="fill:none"/><path d="M36 32c-1.32 0-2.53.44-3.52 1.16l-14.55-8.4c.03-.25.08-.5.08-.76s-.04-.51-.08-.76l14.55-8.4c.99.72 2.2 1.16 3.52 1.16 3.31 0 6-2.69 6-6s-2.69-6-6-6-6 2.69-6 6c0 .53.09 1.03.22 1.52l-14.09 8.14C15.05 18.64 13.61 18 12.01 18c-3.31 0-6 2.69-6 6s2.69 6 6 6c1.6 0 3.05-.64 4.12-1.66l14.09 8.14c-.13.49-.22.99-.22 1.52 0 3.31 2.69 6 6 6s6-2.69 6-6-2.69-6-6-6Z" style="fill:#fff"/></symbol><symbol viewBox="0 0 48 48" id="skype" xmlns="http://www.w3.org/2000/svg"><path d="M44.382 27.594a20.79 20.79 0 0 0 .312-3.595c0-11.428-9.266-20.694-20.694-20.694-1.228 0-2.428.106-3.595.312A12.223 12.223 0 0 0 14.305 2C7.507 2 2 7.51 2 14.305c0 2.22.586 4.303 1.617 6.101a20.637 20.637 0 0 0-.312 3.593c0 11.43 9.266 20.697 20.695 20.697 1.226 0 2.428-.108 3.594-.313a12.223 12.223 0 0 0 6.1 1.617C40.489 46 46 40.49 46 33.694c0-2.22-.59-4.302-1.618-6.1"/><path fill="#FFF" d="M23.583 37C16.318 37 13 33.345 13 30.66c0-1.377 1.09-2.325 2.486-2.325 3.108 0 2.299 4.608 8.097 4.608 2.968 0 4.706-1.765 4.706-3.42 0-.996-.578-2.104-2.532-2.588l-6.459-1.619c-5.203-1.306-6.114-4.167-6.114-6.819 0-5.506 5.093-7.497 9.947-7.497 4.47 0 9.784 2.437 9.784 5.742 0 1.415-1.202 2.186-2.599 2.186-2.653 0-2.21-3.688-7.554-3.688-2.652 0-4.051 1.227-4.051 2.952 0 1.72 2.052 2.304 3.87 2.72l4.78 1.065C32.6 23.147 34 26.181 34 29.071 34 33.546 30.493 37 23.583 37"/></symbol><symbol viewBox="0 0 48 48" id="skype-color" xmlns="http://www.w3.org/2000/svg"><g fill="none" fill-rule="evenodd"><path fill="#0078D7" d="M44.382 27.594a20.79 20.79 0 0 0 .312-3.595c0-11.428-9.266-20.694-20.694-20.694-1.228 0-2.428.106-3.595.312A12.223 12.223 0 0 0 14.305 2C7.507 2 2 7.51 2 14.305c0 2.22.586 4.303 1.617 6.101a20.637 20.637 0 0 0-.312 3.593c0 11.43 9.266 20.697 20.695 20.697 1.226 0 2.428-.108 3.594-.313a12.223 12.223 0 0 0 6.1 1.617C40.489 46 46 40.49 46 33.694c0-2.22-.59-4.302-1.618-6.1"/><path fill="#FFF" fill-rule="nonzero" d="M23.583 37C16.318 37 13 33.345 13 30.66c0-1.377 1.09-2.325 2.486-2.325 3.108 0 2.299 4.608 8.097 4.608 2.968 0 4.706-1.765 4.706-3.42 0-.996-.578-2.104-2.532-2.588l-6.459-1.619c-5.203-1.306-6.114-4.167-6.114-6.819 0-5.506 5.093-7.497 9.947-7.497 4.47 0 9.784 2.437 9.784 5.742 0 1.415-1.202 2.186-2.599 2.186-2.653 0-2.21-3.688-7.554-3.688-2.652 0-4.051 1.227-4.051 2.952 0 1.72 2.052 2.304 3.87 2.72l4.78 1.065C32.6 23.147 34 26.181 34 29.071 34 33.546 30.493 37 23.583 37"/></g></symbol><symbol viewBox="0 0 48 48" id="skype-negative" xmlns="http://www.w3.org/2000/svg"><path fill="#FFF" fill-rule="evenodd" d="M14.304 2c2.22 0 4.304.586 6.1 1.617A20.696 20.696 0 0 1 24 3.305c11.428 0 20.694 9.266 20.694 20.694a20.79 20.79 0 0 1-.312 3.595 12.248 12.248 0 0 1 1.618 6.1C46 40.491 40.49 46 33.694 46c-2.22 0-4.302-.586-6.1-1.617a20.767 20.767 0 0 1-3.594.313c-11.429 0-20.695-9.268-20.695-20.697 0-1.226.106-2.426.312-3.593A12.227 12.227 0 0 1 2 14.306C2 7.51 7.508 2 14.304 2Zm8.827 9c-4.854 0-9.947 1.991-9.947 7.497 0 2.652.911 5.513 6.114 6.82l6.46 1.618c1.953.484 2.531 1.592 2.531 2.588 0 1.655-1.738 3.42-4.706 3.42-5.798 0-4.989-4.608-8.097-4.608-1.396 0-2.486.948-2.486 2.325C13 33.345 16.318 37 23.583 37 30.493 37 34 33.546 34 29.071c0-2.89-1.4-5.924-6.638-7.094l-4.781-1.065c-1.818-.416-3.87-1-3.87-2.72 0-1.725 1.399-2.952 4.051-2.952 5.343 0 4.901 3.688 7.554 3.688 1.397 0 2.599-.77 2.599-2.186C32.915 13.437 27.6 11 23.13 11Z"/></symbol><symbol viewBox="0 0 48 48" id="spotify" xmlns="http://www.w3.org/2000/svg"><defs><mask id="bma" width="44" height="44" x="2" y="2" maskUnits="userSpaceOnUse"/></defs><path d="M0 0h48v48H0z" style="fill:none"/><g style="mask:url(#bma)"><path d="M2 24C2 11.85 11.85 2 24 2s22 9.85 22 22-9.85 22-22 22S2 36.15 2 24Zm9.63-4.62c6.7-2.08 18.28-1.69 25.3 2.58.96.59 2.22.26 2.79-.73.57-.99.26-2.27-.71-2.85-8.08-4.9-20.86-5.37-28.56-2.98-1.08.33-1.68 1.5-1.36 2.6.33 1.1 1.46 1.72 2.54 1.39Zm22.73 9.46c.8.5 1.84.25 2.34-.57.49-.81.24-1.88-.56-2.39-6.72-4.22-16.55-5.41-24.46-2.96-.9.28-1.4 1.25-1.13 2.17.27.92 1.22 1.43 2.12 1.16 6.92-2.15 15.84-1.08 21.7 2.59Zm-.33 5.49c-.39.65-1.23.86-1.87.46-5.11-3.2-11.55-3.92-19.13-2.15-.73.17-1.46-.3-1.62-1.04-.17-.75.29-1.49 1.02-1.66 8.29-1.94 15.41-1.1 21.15 2.48.64.4.84 1.26.45 1.91Z" style="fill-rule:evenodd"/></g></symbol><symbol viewBox="0 0 48 48" id="spotify-color" xmlns="http://www.w3.org/2000/svg"><defs><mask id="bka" width="44" height="44" x="2" y="2" maskUnits="userSpaceOnUse"/></defs><path d="M0 0h48v48H0z" style="fill:none"/><g style="mask:url(#bka)"><path d="M24 2C11.85 2 2 11.85 2 24s9.85 22 22 22 22-9.85 22-22S36.15 2 24 2Z" style="fill-rule:evenodd;fill:#1ed760"/><path d="M36.92 21.96c-7.02-4.26-18.6-4.65-25.3-2.58-1.08.34-2.21-.29-2.54-1.39-.33-1.1.28-2.26 1.36-2.6C18.13 13 30.92 13.46 39 18.37c.97.59 1.29 1.87.71 2.85-.57.99-1.82 1.31-2.79.73Zm-.23 6.31a1.68 1.68 0 0 1-2.34.57c-5.85-3.68-14.77-4.74-21.7-2.59-.9.28-1.85-.24-2.12-1.16-.27-.92.24-1.89 1.13-2.17 7.91-2.45 17.74-1.27 24.46 2.96.8.5 1.05 1.57.56 2.39Zm-4.53 6.53c.64.4 1.48.19 1.87-.46.39-.66.19-1.51-.45-1.91-5.74-3.59-12.85-4.42-21.15-2.48-.73.17-1.19.92-1.02 1.66.17.75.89 1.21 1.62 1.04 7.58-1.77 14.02-1.05 19.13 2.15Z" style="fill:#fff;fill-rule:evenodd"/></g></symbol><symbol viewBox="0 0 48 48" id="spotify-negative" xmlns="http://www.w3.org/2000/svg"><path fill="#FFF" fill-rule="evenodd" d="M24 2c12.15 0 22 9.85 22 22s-9.85 22-22 22S2 36.15 2 24 11.85 2 24 2Zm9.58 30.424c-5.74-3.585-12.854-4.419-21.148-2.48-.733.17-1.189.915-1.021 1.662.167.746.894 1.215 1.625 1.044 7.58-1.771 14.015-1.05 19.128 2.147.64.4 1.475.192 1.866-.462.39-.656.19-1.51-.45-1.91Zm2.557-6.54c-6.723-4.222-16.553-5.409-24.46-2.956-.898.278-1.404 1.247-1.133 2.165a1.695 1.695 0 0 0 2.119 1.156c6.923-2.15 15.844-1.082 21.696 2.594a1.676 1.676 0 0 0 2.335-.572 1.76 1.76 0 0 0-.557-2.386Zm2.865-7.506c-8.079-4.905-20.864-5.365-28.556-2.977-1.078.333-1.683 1.495-1.358 2.596.326 1.1 1.464 1.722 2.54 1.387 6.7-2.079 18.278-1.686 25.296 2.576.965.587 2.216.26 2.79-.728.575-.988.256-2.265-.712-2.854Z"/></symbol><symbol viewBox="0 0 48 48" id="telegram" xmlns="http://www.w3.org/2000/svg"><path d="M46 24c0 12.15-9.85 22-22 22S2 36.15 2 24 11.85 2 24 2s22 9.85 22 22Zm-20.028-6.29-14.816 6.03c-2.605 1.005-1.079 1.973-1.079 1.973s2.196.781 4.132 1.34c1.936.558 2.94-.075 2.94-.075l8.972-6.03c3.164-2.16 2.382-.373 1.638.372-1.638 1.675-4.393 4.28-6.663 6.365-1.043.894-.521 1.675-.075 2.048 1.348 1.164 4.636 3.31 5.904 4.138.273.179.453.296.499.329.298.26 2.085 1.414 3.164 1.154 1.08-.26 1.191-1.713 1.191-1.713l1.6-9.976c.522-3.35 1.006-6.477 1.08-7.37.186-2.16-2.084-1.266-2.084-1.266s-4.951 2.047-6.403 2.68Z"/></symbol><symbol fill="none" viewBox="0 0 48 48" id="telegram-color" xmlns="http://www.w3.org/2000/svg"><circle cx="24" cy="24" r="22" fill="#27A6E6"/><path fill="#fff" d="m11.156 23.74 14.816-6.03c1.452-.634 6.403-2.681 6.403-2.681s2.27-.893 2.084 1.266c-.074.893-.558 4.02-1.08 7.37l-1.6 9.976s-.111 1.452-1.191 1.713c-1.08.26-2.866-.894-3.164-1.154-.26-.186-4.765-3.053-6.403-4.467-.447-.373-.968-1.154.075-2.048 2.27-2.084 5.025-4.69 6.663-6.365.744-.745 1.526-2.531-1.638-.372l-8.971 6.03s-1.005.633-2.941.075a83.79 83.79 0 0 1-4.132-1.34s-1.526-.968 1.08-1.973Z"/></symbol><symbol fill="none" viewBox="0 0 48 48" id="telegram-negative" xmlns="http://www.w3.org/2000/svg"><path d="M0 0h48v48H0z"/><path fill="#fff" fill-rule="evenodd" d="M46 24c0 12.15-9.85 22-22 22S2 36.15 2 24 11.85 2 24 2s22 9.85 22 22Zm-20.028-6.29-14.816 6.03c-2.605 1.005-1.079 1.973-1.079 1.973s2.196.781 4.132 1.34c1.936.558 2.94-.075 2.94-.075l8.972-6.03c3.164-2.16 2.382-.373 1.638.372-1.638 1.675-4.393 4.28-6.663 6.365-1.043.894-.521 1.675-.075 2.048 1.348 1.164 4.636 3.31 5.904 4.138.273.179.453.296.499.329.298.26 2.085 1.414 3.164 1.154 1.08-.26 1.191-1.713 1.191-1.713l1.6-9.976c.522-3.35 1.006-6.477 1.08-7.37.186-2.16-2.084-1.266-2.084-1.266s-4.951 2.047-6.403 2.68Z" clip-rule="evenodd"/></symbol><symbol viewBox="0 0 48 48" id="twitter" xmlns="http://www.w3.org/2000/svg"><path d="M15.838 42c16.605 0 25.685-13.85 25.685-25.858 0-.393-.008-.785-.026-1.175A18.422 18.422 0 0 0 46 10.262a17.863 17.863 0 0 1-5.184 1.43 9.107 9.107 0 0 0 3.97-5.026 18.01 18.01 0 0 1-5.733 2.205A8.997 8.997 0 0 0 32.465 6c-4.986 0-9.03 4.071-9.03 9.088 0 .712.08 1.406.235 2.072-7.503-.38-14.156-3.997-18.608-9.495a9.105 9.105 0 0 0-1.222 4.567 9.095 9.095 0 0 0 4.018 7.565 8.92 8.92 0 0 1-4.09-1.137l-.001.117c0 4.4 3.111 8.075 7.242 8.909a8.895 8.895 0 0 1-4.077.155c1.15 3.611 4.481 6.238 8.433 6.313a18.044 18.044 0 0 1-11.212 3.89c-.727 0-1.446-.043-2.153-.126A25.436 25.436 0 0 0 15.838 42"/></symbol><symbol viewBox="0 0 48 48" id="twitter-color" xmlns="http://www.w3.org/2000/svg"><path fill="#1DA1F2" fill-rule="evenodd" d="M15.838 42c16.605 0 25.685-13.85 25.685-25.858 0-.393-.008-.785-.026-1.175A18.422 18.422 0 0 0 46 10.262a17.863 17.863 0 0 1-5.184 1.43 9.107 9.107 0 0 0 3.97-5.026 18.01 18.01 0 0 1-5.733 2.205A8.997 8.997 0 0 0 32.465 6c-4.986 0-9.03 4.071-9.03 9.088 0 .712.08 1.406.235 2.072-7.503-.38-14.156-3.997-18.608-9.495a9.105 9.105 0 0 0-1.222 4.567 9.095 9.095 0 0 0 4.018 7.565 8.92 8.92 0 0 1-4.09-1.137l-.001.117c0 4.4 3.111 8.075 7.242 8.909a8.895 8.895 0 0 1-4.077.155c1.15 3.611 4.481 6.238 8.433 6.313a18.044 18.044 0 0 1-11.212 3.89c-.727 0-1.446-.043-2.153-.126A25.436 25.436 0 0 0 15.838 42"/></symbol><symbol viewBox="0 0 48 48" id="twitter-negative" xmlns="http://www.w3.org/2000/svg"><path fill="#FFF" fill-rule="evenodd" d="M15.838 42c16.605 0 25.685-13.85 25.685-25.858 0-.393-.008-.785-.026-1.175A18.422 18.422 0 0 0 46 10.262a17.863 17.863 0 0 1-5.184 1.43 9.107 9.107 0 0 0 3.97-5.026 18.01 18.01 0 0 1-5.733 2.205A8.997 8.997 0 0 0 32.465 6c-4.986 0-9.03 4.071-9.03 9.088 0 .712.08 1.406.235 2.072-7.503-.38-14.156-3.997-18.608-9.495a9.105 9.105 0 0 0-1.222 4.567 9.095 9.095 0 0 0 4.018 7.565 8.92 8.92 0 0 1-4.09-1.137l-.001.117c0 4.4 3.111 8.075 7.242 8.909a8.895 8.895 0 0 1-4.077.155c1.15 3.611 4.481 6.238 8.433 6.313a18.044 18.044 0 0 1-11.212 3.89c-.727 0-1.446-.043-2.153-.126A25.436 25.436 0 0 0 15.838 42"/></symbol><symbol viewBox="0 0 48 48" id="youtube" xmlns="http://www.w3.org/2000/svg"><path d="M45.08 13.841a5.525 5.525 0 0 0-3.89-3.914C37.76 9 24 9 24 9s-13.76 0-17.19.927a5.53 5.53 0 0 0-3.891 3.914C2 17.295 2 24.5 2 24.5s0 7.206.918 10.659a5.531 5.531 0 0 0 3.892 3.916C10.24 40 24 40 24 40s13.76 0 17.19-.925a5.527 5.527 0 0 0 3.89-3.916C46 31.706 46 24.5 46 24.5s0-7.205-.92-10.659"/><path fill="#FFF" d="M19.5 31.043 31 24.5l-11.5-6.542z"/></symbol><symbol viewBox="0 0 48 48" id="youtube-color" xmlns="http://www.w3.org/2000/svg"><g fill="none" fill-rule="evenodd"><path fill="red" d="M45.08 13.841a5.525 5.525 0 0 0-3.89-3.914C37.76 9 24 9 24 9s-13.76 0-17.19.927a5.53 5.53 0 0 0-3.891 3.914C2 17.295 2 24.5 2 24.5s0 7.206.918 10.659a5.531 5.531 0 0 0 3.892 3.916C10.24 40 24 40 24 40s13.76 0 17.19-.925a5.527 5.527 0 0 0 3.89-3.916C46 31.706 46 24.5 46 24.5s0-7.205-.92-10.659"/><path fill="#FFF" d="M19.5 31.043 31 24.5l-11.5-6.542z"/></g></symbol><symbol viewBox="0 0 48 48" id="youtube-negative" xmlns="http://www.w3.org/2000/svg"><path fill="#FFF" fill-rule="evenodd" d="M24.226 9h.097l.384.002c1.401.008 4.689.038 8.022.161l.714.028c3.212.133 6.344.357 7.747.736a5.525 5.525 0 0 1 3.89 3.914c.343 1.287.558 3.094.693 4.856l.04.554c.162 2.389.184 4.58.187 5.121v.256c-.006.98-.072 7.349-.92 10.53a5.527 5.527 0 0 1-3.89 3.917c-1.403.378-4.535.602-7.747.734l-.714.028c-3.571.132-7.09.157-8.293.162H23.564c-1.203-.005-4.722-.03-8.293-.162l-.714-.028c-3.212-.132-6.344-.356-7.747-.734a5.531 5.531 0 0 1-3.891-3.916c-.793-2.979-.902-8.752-.917-10.28l-.001-.182v-.395l.001-.18c.015-1.53.124-7.3.917-10.28a5.53 5.53 0 0 1 3.89-3.915c1.404-.38 4.536-.603 7.748-.736l.714-.028c3.333-.123 6.62-.153 8.022-.16L23.677 9h.097ZM19.5 17.958v13.085L31 24.5l-11.5-6.542Z"/></symbol></svg>