<svg xmlns="http://www.w3.org/2000/svg" viewBox="0 0 40 40"><g><g><path fill="#dd5a2b" d="M0 0h40v40H0z"/><g transform="translate(44 170)"><path d="m-37-149.4-.1 2.3s.4.6 1.4.6c.9 0 1.8-.7 1.8-2.5 0-1.2-.5-1.9-1.3-1.9-1.2 0-1.8.8-1.8 1.5m-2.1-5.2c0-.1 0-.2-.1-.2s-.2 0-.3.2c-.2.2-.4.3-.7.2s-.4-.4-.3-.7c.4-.8 1-1.2 1.7-1.2 1.4 0 1.7.9 1.7 1.9 0 .6-.1 1.7-.1 2.6.5-.4 1.2-.9 2.3-.9 1.7 0 2.8 1.6 2.8 3.7 0 .8-.2 1.5-.6 2 1.3-.6 2.2-1.8 2.2-4.2 0-.4.3-.7.7-.7s.7.3.7.7c0 4.3-3 6.3-6.9 6.3-2.5 0-3.3-1.6-3.3-2.3 0-.4.1-1 .1-1.4.3-4.1.1-5.2.1-6" fill="#fff"/><path d="M-30.2-146.9c0-.5.1-1 .1-1.7 0-1.2-.1-3-.1-3 0-.6.5-1.1 1.1-1.1s1.1.5 1.1 1.1c0 1.8-.1 2.9-.1 4.6 0 .3.2.5.5.5.9 0 1.9-1.2 1.9-4.7 0-.4.3-.7.7-.7s.7.3.7.7c0 4.3-1.5 6.3-3.8 6.3-1.3 0-2.1-.9-2.1-2m1-9.1c.7 0 1.2.5 1.2 1.2s-.5 1.2-1.2 1.2-1.2-.5-1.2-1.2c0-.6.6-1.2 1.2-1.2" fill="#fff"/><path d="M-23.4-144.9c-1.6 0-2.6-1-2.6-2.2 0-.5.1-1 .1-1.5v-2.7h-.2c-.4 0-.6-.3-.6-.6 0-.4.3-.6.6-.6h.1v-1.6c0-.6.5-1.1 1.1-1.1s1.1.5 1.1 1.1v1.6h1.7c.4 0 .7.3.7.7s-.3.7-.7.7h-1.7c0 1.2-.1 2.4-.1 3.6 0 .6.3 1.1 1 1.1 1.6 0 2.6-1.3 2.6-4.7 0-.4.3-.7.7-.7s.7.3.7.7c-.1 3.8-1.7 6.2-4.5 6.2" fill="#fff"/><path d="M-16.2-151.2c0-.4.3-.7.7-.7s.7.3.7.7c0 4.3-1.5 6.3-3.8 6.3-1.1 0-1.9-.9-1.9-2 0-.4.1-1.3.1-1.7 0-4.1-.1-5.5-.1-6.7 0-.6.5-1.1 1.1-1.1s1.1.5 1.1 1.1c0 1.2-.1 2.5-.1 8.3 0 .3.2.5.5.5.7 0 1.7-1.2 1.7-4.7" fill="#fff"/><path d="M-11.1-144.6c-1.6.3-2.6.4-2.6 1.2 0 .3.2.7 1 .7 1.3 0 1.7-.8 1.6-1.6zm-.1-2.1c-.4.5-1.3.9-2.5.9-1.7 0-2.5-1.2-2.5-2.8 0-1.2-.1-2.1-.1-2.9 0-.6.5-1.1 1.1-1.1s1.1.5 1.1 1.1c0 .8-.1 1.9-.1 2.8 0 .7.3 1.3 1.1 1.3 1.3 0 1.8-.8 1.8-1.5 0-.9-.1-1.8-.1-2.6 0-.6.5-1.1 1.1-1.1s1.1.5 1.1 1.1c0 .8-.1 1.7-.1 2.9v.3c0 .7.1 1.3.2 1.9.3-.1.5-.4.8-.9.2-.2.5-.3.7-.2.3.2.4.4.3.8-.3.8-.9 1.4-1.7 1.6v.3c0 1.6-.5 3.6-3.5 3.6-2.3 0-2.9-1-2.9-2.1 0-1.8 2.3-1.9 4.4-2.5z" fill="#fff"/></g></g></g></svg>