<svg xmlns="http://www.w3.org/2000/svg" width="40" height="40" fill="none" viewBox="0 0 40 40"><path fill="#2B90D9" d="M0 0h40v40H0z"/><path fill="#2B90D9" d="M0 0h40v40H0z"/><path fill="#000" fill-opacity=".2" d="M0 0h40v40H0z"/><path fill="#fff" d="M36.364 23.647c-.494 2.587-4.503 5.411-9.104 5.964-2.39.277-4.76.553-7.268.435-4.107-.198-7.366-.988-7.366-.988 0 .395.02.79.08 1.146.532 4.048 4.028 4.305 7.326 4.423 3.337.119 6.3-.83 6.3-.83l.138 3.022s-2.33 1.244-6.497 1.481c-2.291.119-5.135-.059-8.453-.928-7.149-1.915-8.393-9.598-8.57-17.359-.06-2.31-.02-4.483-.02-6.3 0-7.958 5.213-10.289 5.213-10.289 2.607-1.204 7.13-1.718 11.81-1.757h.118c4.68.04 9.203.553 11.83 1.757 0 0 5.213 2.33 5.213 10.29-.02-.02.06 5.845-.75 9.933Z"/><path fill="#2B90D9" d="M30.968 14.325v9.638h-3.812v-9.361c0-1.975-.829-2.962-2.488-2.962-1.837 0-2.745 1.185-2.745 3.535v5.115h-3.792v-5.135c0-2.35-.928-3.535-2.745-3.535-1.659 0-2.488 1.007-2.488 2.962v9.341H9.067v-9.597c0-1.975.493-3.536 1.5-4.68 1.047-1.166 2.39-1.759 4.088-1.759 1.956 0 3.437.75 4.405 2.252l.947 1.6.948-1.6c.968-1.501 2.45-2.252 4.404-2.252 1.679 0 3.042.593 4.088 1.758 1.027 1.146 1.52 2.706 1.52 4.68Z"/><path fill="#000" fill-opacity=".2" d="M30.968 14.325v9.638h-3.812v-9.361c0-1.975-.829-2.962-2.488-2.962-1.837 0-2.745 1.185-2.745 3.535v5.115h-3.792v-5.135c0-2.35-.928-3.535-2.745-3.535-1.659 0-2.488 1.007-2.488 2.962v9.341H9.067v-9.597c0-1.975.493-3.536 1.5-4.68 1.047-1.166 2.39-1.759 4.088-1.759 1.956 0 3.437.75 4.405 2.252l.947 1.6.948-1.6c.968-1.501 2.45-2.252 4.404-2.252 1.679 0 3.042.593 4.088 1.758 1.027 1.146 1.52 2.706 1.52 4.68Z"/></svg>