<svg xmlns="http://www.w3.org/2000/svg" xmlns:xlink="http://www.w3.org/1999/xlink" id="print_svg__Layer_1" viewBox="0 0 40 40"><style>.print_svg__st1{clip-path:url(#print_svg__SVGID_2_)}.print_svg__st3{clip-path:url(#print_svg__SVGID_6_)}.print_svg__st5{clip-path:url(#print_svg__SVGID_10_)}.print_svg__st9{clip-path:url(#print_svg__SVGID_18_)}.print_svg__st16{clip-path:url(#print_svg__SVGID_30_)}.print_svg__st18{clip-path:url(#print_svg__SVGID_34_)}.print_svg__st20{clip-path:url(#print_svg__SVGID_38_)}.print_svg__st26{clip-path:url(#print_svg__SVGID_48_)}.print_svg__st35{clip-path:url(#print_svg__SVGID_66_)}</style><path fill="#fff" d="M0 0h40v40H0z"/><defs><path id="print_svg__SVGID_1_" d="M382-696h40v40h-40z"/></defs><clipPath id="print_svg__SVGID_2_"><use xlink:href="#print_svg__SVGID_1_" overflow="visible"/></clipPath><g class="print_svg__st1"><defs><path id="print_svg__SVGID_3_" d="M-689-1146H711v2330H-689z"/></defs><clipPath id="print_svg__SVGID_4_"><use xlink:href="#print_svg__SVGID_3_" overflow="visible"/></clipPath><path fill="#fff" d="M377-701h50v50h-50z" clip-path="url(#print_svg__SVGID_4_)"/></g><g class="print_svg__st1"><defs><path id="print_svg__SVGID_5_" d="M397.2-669.3h8.2v1.6h-8.2z"/></defs><clipPath id="print_svg__SVGID_6_"><use xlink:href="#print_svg__SVGID_5_" overflow="visible"/></clipPath><g class="print_svg__st3"><defs><path id="print_svg__SVGID_7_" d="M-689-1146H711v2330H-689z"/></defs><clipPath id="print_svg__SVGID_8_"><use xlink:href="#print_svg__SVGID_7_" overflow="visible"/></clipPath><path fill="#414141" d="M392.2-674.3h18.2v11.6h-18.2z" clip-path="url(#print_svg__SVGID_8_)"/></g><g class="print_svg__st3"><defs><path id="print_svg__SVGID_9_" d="M395.5-687.4h13v3.2h1.6v-4.8h-16.2v4.8h1.6z"/></defs><clipPath id="print_svg__SVGID_10_"><use xlink:href="#print_svg__SVGID_9_" overflow="visible"/></clipPath><g class="print_svg__st5"><defs><path id="print_svg__SVGID_11_" d="M-689-1146H711v2330H-689z"/></defs><clipPath id="print_svg__SVGID_12_"><use xlink:href="#print_svg__SVGID_11_" overflow="visible"/></clipPath><path fill="#414141" d="M388.9-694h26.2v14.9h-26.2z" clip-path="url(#print_svg__SVGID_12_)"/></g><g class="print_svg__st5"><defs><path id="print_svg__SVGID_13_" d="M389-689h26v26h-26z"/></defs><clipPath id="print_svg__SVGID_14_"><use xlink:href="#print_svg__SVGID_13_" overflow="visible"/></clipPath><g clip-path="url(#print_svg__SVGID_14_)"><defs><path id="print_svg__SVGID_15_" d="M-689-1146H711v2330H-689z"/></defs><clipPath id="print_svg__SVGID_16_"><use xlink:href="#print_svg__SVGID_15_" overflow="visible"/></clipPath><g clip-path="url(#print_svg__SVGID_16_)"><defs><path id="print_svg__SVGID_17_" d="M389-683h26v20h-26z"/></defs><clipPath id="print_svg__SVGID_18_"><use xlink:href="#print_svg__SVGID_17_" overflow="visible"/></clipPath><g class="print_svg__st9"><defs><path id="print_svg__SVGID_19_" d="M397.1-672.8h9.7v1.6h-9.7z"/></defs><defs><path id="print_svg__SVGID_20_" d="M389-683h26v20h-26z"/></defs><clipPath id="print_svg__SVGID_21_"><use xlink:href="#print_svg__SVGID_19_" overflow="visible"/></clipPath><clipPath id="print_svg__SVGID_22_" clip-path="url(#print_svg__SVGID_21_)"><use xlink:href="#print_svg__SVGID_20_" overflow="visible"/></clipPath><g clip-path="url(#print_svg__SVGID_22_)"><defs><path id="print_svg__SVGID_23_" d="M389-689h26v26h-26z"/></defs><clipPath id="print_svg__SVGID_24_"><use xlink:href="#print_svg__SVGID_23_" overflow="visible"/></clipPath><path fill="#414141" d="M392.1-677.8h19.7v11.6h-19.7z" clip-path="url(#print_svg__SVGID_24_)"/></g><g clip-path="url(#print_svg__SVGID_22_)"><defs><path id="print_svg__SVGID_25_" d="M413.4-682.5h-22.7c-.9 0-1.6.7-1.6 1.6v9.8c0 .9.7 1.6 1.6 1.6h3.2v6.4h16.2v-6.4h3.2c.9 0 1.6-.7 1.6-1.6v-9.8c.1-.9-.6-1.6-1.5-1.6zm-17.9 8.1h13v9.8h-13v-9.8zm16.2-3.2c-.9 0-1.6-.7-1.6-1.6 0-.9.7-1.6 1.6-1.6s1.6.7 1.6 1.6c.1.8-.7 1.6-1.6 1.6z"/></defs><clipPath id="print_svg__SVGID_26_"><use xlink:href="#print_svg__SVGID_25_" overflow="visible"/></clipPath><g clip-path="url(#print_svg__SVGID_26_)"><defs><path id="print_svg__SVGID_27_" d="M389-689h26v26h-26z"/></defs><clipPath id="print_svg__SVGID_28_"><use xlink:href="#print_svg__SVGID_27_" overflow="visible"/></clipPath><path fill="#414141" d="M384-687.5h36v29.5h-36z" clip-path="url(#print_svg__SVGID_28_)"/></g></g></g><g class="print_svg__st9"><defs><path id="print_svg__SVGID_29_" d="M0 0h40v40H0z"/></defs><clipPath id="print_svg__SVGID_30_"><use xlink:href="#print_svg__SVGID_29_" overflow="visible"/></clipPath><g class="print_svg__st16"><defs><path id="print_svg__SVGID_31_" d="M-1071-450H329v2330h-1400z"/></defs><clipPath id="print_svg__SVGID_32_"><use xlink:href="#print_svg__SVGID_31_" overflow="visible"/></clipPath><path fill="#fff" d="M-5-5h50v50H-5z" clip-path="url(#print_svg__SVGID_32_)"/></g><g class="print_svg__st16"><defs><path id="print_svg__SVGID_33_" d="M15.2 26.7h8.2v1.6h-8.2z"/></defs><clipPath id="print_svg__SVGID_34_"><use xlink:href="#print_svg__SVGID_33_" overflow="visible"/></clipPath><g class="print_svg__st18"><defs><path id="print_svg__SVGID_35_" d="M-1071-450H329v2330h-1400z"/></defs><clipPath id="print_svg__SVGID_36_"><use xlink:href="#print_svg__SVGID_35_" overflow="visible"/></clipPath><path fill="#414141" d="M10.2 21.7h18.2v11.6H10.2z" clip-path="url(#print_svg__SVGID_36_)"/></g><g class="print_svg__st18"><defs><path id="print_svg__SVGID_37_" d="M13.5 8.6h13v3.2h1.6V7H11.9v4.8h1.6z"/></defs><clipPath id="print_svg__SVGID_38_"><use xlink:href="#print_svg__SVGID_37_" overflow="visible"/></clipPath><g class="print_svg__st20"><defs><path id="print_svg__SVGID_39_" d="M-1071-450H329v2330h-1400z"/></defs><clipPath id="print_svg__SVGID_40_"><use xlink:href="#print_svg__SVGID_39_" overflow="visible"/></clipPath><path fill="#414141" d="M6.9 2h26.2v14.9H6.9z" clip-path="url(#print_svg__SVGID_40_)"/></g><g class="print_svg__st20"><defs><path id="print_svg__SVGID_41_" d="M7 7h26v26H7z"/></defs><clipPath id="print_svg__SVGID_42_"><use xlink:href="#print_svg__SVGID_41_" overflow="visible"/></clipPath><g clip-path="url(#print_svg__SVGID_42_)"><defs><path id="print_svg__SVGID_43_" d="M-1071-450H329v2330h-1400z"/></defs><clipPath id="print_svg__SVGID_44_"><use xlink:href="#print_svg__SVGID_43_" overflow="visible"/></clipPath><g clip-path="url(#print_svg__SVGID_44_)"><defs><path id="print_svg__SVGID_45_" d="M7 13h26v20H7z"/></defs><defs><path id="print_svg__SVGID_46_" d="M7 13h26v20H7z"/></defs><clipPath id="print_svg__SVGID_47_"><use xlink:href="#print_svg__SVGID_45_" overflow="visible"/></clipPath><clipPath id="print_svg__SVGID_48_" clip-path="url(#print_svg__SVGID_47_)"><use xlink:href="#print_svg__SVGID_46_" overflow="visible"/></clipPath><g class="print_svg__st26"><defs><path id="print_svg__SVGID_49_" d="M7 7h26v26H7z"/></defs><clipPath id="print_svg__SVGID_50_"><use xlink:href="#print_svg__SVGID_49_" overflow="visible"/></clipPath><path fill="#414141" d="M10.1 18.2h19.7v11.6H10.1z" clip-path="url(#print_svg__SVGID_50_)"/></g><g class="print_svg__st26"><defs><path id="print_svg__SVGID_51_" d="M7 7h26v26H7z"/></defs><clipPath id="print_svg__SVGID_52_"><use xlink:href="#print_svg__SVGID_51_" overflow="visible"/></clipPath><path fill="#414141" d="M2 8.5h36V38H2z" clip-path="url(#print_svg__SVGID_52_)"/></g></g></g></g></g></g></g></g></g></g></g></g><defs><path id="print_svg__SVGID_53_" d="M15.2 26.7h8.2v1.6h-8.2z"/></defs><clipPath id="print_svg__SVGID_54_"><use xlink:href="#print_svg__SVGID_53_" overflow="visible"/></clipPath><g clip-path="url(#print_svg__SVGID_54_)"><defs><path id="print_svg__SVGID_55_" d="M-1071-450H329v2330h-1400z"/></defs><clipPath id="print_svg__SVGID_56_"><use xlink:href="#print_svg__SVGID_55_" overflow="visible"/></clipPath><path fill="#404040" d="M10.2 21.7h18.2v11.6H10.2z" clip-path="url(#print_svg__SVGID_56_)"/></g><defs><path id="print_svg__SVGID_57_" d="M13.5 8.6h13v3.2h1.6V7H11.9v4.8h1.6V8.6z"/></defs><clipPath id="print_svg__SVGID_58_"><use xlink:href="#print_svg__SVGID_57_" overflow="visible"/></clipPath><g clip-path="url(#print_svg__SVGID_58_)"><defs><path id="print_svg__SVGID_59_" d="M-1071-450H329v2330h-1400z"/></defs><clipPath id="print_svg__SVGID_60_"><use xlink:href="#print_svg__SVGID_59_" overflow="visible"/></clipPath><path fill="#404040" d="M6.9 2h26.2v14.9H6.9z" clip-path="url(#print_svg__SVGID_60_)"/></g><defs><path id="print_svg__SVGID_61_" d="M7 7h26v26H7z"/></defs><clipPath id="print_svg__SVGID_62_"><use xlink:href="#print_svg__SVGID_61_" overflow="visible"/></clipPath><g clip-path="url(#print_svg__SVGID_62_)"><defs><path id="print_svg__SVGID_63_" d="M-1071-450H329v2330h-1400z"/></defs><clipPath id="print_svg__SVGID_64_"><use xlink:href="#print_svg__SVGID_63_" overflow="visible"/></clipPath><g clip-path="url(#print_svg__SVGID_64_)"><defs><path id="print_svg__SVGID_65_" d="M7 13h26v20H7z"/></defs><clipPath id="print_svg__SVGID_66_"><use xlink:href="#print_svg__SVGID_65_" overflow="visible"/></clipPath><g class="print_svg__st35"><defs><path id="print_svg__SVGID_67_" d="M15.1 23.2h9.7v1.6h-9.7z"/></defs><clipPath id="print_svg__SVGID_68_"><use xlink:href="#print_svg__SVGID_67_" overflow="visible"/></clipPath><g clip-path="url(#print_svg__SVGID_68_)"><defs><path id="print_svg__SVGID_69_" d="M7 7h26v26H7z"/></defs><clipPath id="print_svg__SVGID_70_"><use xlink:href="#print_svg__SVGID_69_" overflow="visible"/></clipPath><path fill="#404040" d="M10.1 18.2h19.7v11.6H10.1z" clip-path="url(#print_svg__SVGID_70_)"/></g></g><g class="print_svg__st35"><defs><path id="print_svg__SVGID_71_" d="M31.4 13.5H8.6c-.9 0-1.6.7-1.6 1.6v9.8c0 .9.7 1.6 1.6 1.6h3.2V33H28v-6.4h3.2c.9 0 1.6-.7 1.6-1.6v-9.8c.2-1-.5-1.7-1.4-1.7zm-17.9 8.1h13v9.8h-13v-9.8zm16.2-3.2c-.9 0-1.6-.7-1.6-1.6 0-.9.7-1.6 1.6-1.6.9 0 1.6.7 1.6 1.6.1.8-.7 1.6-1.6 1.6z"/></defs><clipPath id="print_svg__SVGID_72_"><use xlink:href="#print_svg__SVGID_71_" overflow="visible"/></clipPath><g clip-path="url(#print_svg__SVGID_72_)"><defs><path id="print_svg__SVGID_73_" d="M7 7h26v26H7z"/></defs><clipPath id="print_svg__SVGID_74_"><use xlink:href="#print_svg__SVGID_73_" overflow="visible"/></clipPath><path fill="#404040" d="M2 8.5h36V38H2z" clip-path="url(#print_svg__SVGID_74_)"/></g></g></g></g></svg>