<svg xmlns="http://www.w3.org/2000/svg" xmlns:xlink="http://www.w3.org/1999/xlink" viewBox="0 0 40 40"><path fill="#fff" d="M0 0h40v40H0z"/><defs><path d="M382-696h40v40h-40z"/></defs><clipPath><use xlink:href="#SVGID_1_" overflow="visible"/></clipPath><g clip-path="url(#SVGID_2_)"><defs><path d="M-689-1146H711v2330H-689z"/></defs><clipPath><use xlink:href="#SVGID_3_" overflow="visible"/></clipPath><path fill="#fff" d="M377-701h50v50h-50z" clip-path="url(#SVGID_4_)"/></g><defs><path d="M397.2-669.3h8.2v1.6h-8.2z"/></defs><clipPath><use xlink:href="#SVGID_5_" overflow="visible"/></clipPath><g clip-path="url(#SVGID_6_)"><defs><path d="M-689-1146H711v2330H-689z"/></defs><clipPath><use xlink:href="#SVGID_7_" overflow="visible"/></clipPath><path fill="#414141" d="M392.2-674.3h18.2v11.6h-18.2z" clip-path="url(#SVGID_8_)"/></g><defs><path d="M395.5-687.4h13v3.2h1.6v-4.8h-16.2v4.8h1.6z"/></defs><clipPath><use xlink:href="#SVGID_9_" overflow="visible"/></clipPath><g clip-path="url(#SVGID_10_)"><defs><path d="M-689-1146H711v2330H-689z"/></defs><clipPath><use xlink:href="#SVGID_11_" overflow="visible"/></clipPath><path fill="#414141" d="M388.9-694h26.2v14.9h-26.2z" clip-path="url(#SVGID_12_)"/></g><defs><path d="M389-689h26v26h-26z"/></defs><clipPath><use xlink:href="#SVGID_13_" overflow="visible"/></clipPath><g clip-path="url(#SVGID_14_)"><defs><path d="M-689-1146H711v2330H-689z"/></defs><clipPath><use xlink:href="#SVGID_15_" overflow="visible"/></clipPath><g clip-path="url(#SVGID_16_)"><defs><path d="M389-683h26v20h-26z"/></defs><clipPath><use xlink:href="#SVGID_17_" overflow="visible"/></clipPath><g clip-path="url(#SVGID_18_)"><defs><path d="M397.1-672.8h9.7v1.6h-9.7z"/></defs><clipPath><use xlink:href="#SVGID_19_" overflow="visible"/></clipPath><g clip-path="url(#SVGID_20_)"><defs><path d="M389-689h26v26h-26z"/></defs><clipPath><use xlink:href="#SVGID_21_" overflow="visible"/></clipPath><path fill="#414141" d="M392.1-677.8h19.7v11.6h-19.7z" clip-path="url(#SVGID_22_)"/></g></g><g clip-path="url(#SVGID_18_)"><defs><path d="M413.4-682.5h-22.7c-.9 0-1.6.7-1.6 1.6v9.8c0 .9.7 1.6 1.6 1.6h3.2v6.4h16.2v-6.4h3.2c.9 0 1.6-.7 1.6-1.6v-9.8c.1-.9-.6-1.6-1.5-1.6m-17.9 8.1h13v9.8h-13zm16.2-3.2c-.9 0-1.6-.7-1.6-1.6s.7-1.6 1.6-1.6 1.6.7 1.6 1.6c.1.8-.7 1.6-1.6 1.6"/></defs><clipPath><use xlink:href="#SVGID_23_" overflow="visible"/></clipPath><g clip-path="url(#SVGID_24_)"><defs><path d="M389-689h26v26h-26z"/></defs><clipPath><use xlink:href="#SVGID_25_" overflow="visible"/></clipPath><path fill="#414141" d="M384-687.5h36v29.5h-36z" clip-path="url(#SVGID_26_)"/></g></g></g></g><defs><path d="M415.2-624.3h8.2v1.6h-8.2z"/></defs><clipPath><use xlink:href="#SVGID_27_" overflow="visible"/></clipPath><g clip-path="url(#SVGID_28_)"><defs><path d="M-671-1146.1H729v2330H-671z"/></defs><clipPath><use xlink:href="#SVGID_29_" overflow="visible"/></clipPath><path fill="#414141" d="M410.2-629.3h18.2v11.6h-18.2z" clip-path="url(#SVGID_30_)"/></g><defs><path d="M413.5-642.4h13v3.2h1.6v-4.8h-16.2v4.8h1.6z"/></defs><clipPath><use xlink:href="#SVGID_31_" overflow="visible"/></clipPath><g clip-path="url(#SVGID_32_)"><defs><path d="M-671-1146.1H729v2330H-671z"/></defs><clipPath><use xlink:href="#SVGID_33_" overflow="visible"/></clipPath><path fill="#010101" d="M406.9-649h26.2v14.9h-26.2z" clip-path="url(#SVGID_34_)"/></g><defs><path d="M407-644h26v26h-26z"/></defs><clipPath><use xlink:href="#SVGID_35_" overflow="visible"/></clipPath><g clip-path="url(#SVGID_36_)"><defs><path d="M-671-1146.1H729v2330H-671z"/></defs><clipPath><use xlink:href="#SVGID_37_" overflow="visible"/></clipPath><g clip-path="url(#SVGID_38_)"><defs><path d="M407-638h26v20h-26z"/></defs><clipPath><use xlink:href="#SVGID_39_" overflow="visible"/></clipPath><g clip-path="url(#SVGID_40_)"><defs><path d="M415.1-627.7h9.7v1.6h-9.7z"/></defs><clipPath><use xlink:href="#SVGID_41_" overflow="visible"/></clipPath><g clip-path="url(#SVGID_42_)"><defs><path d="M407-644h26v26h-26z"/></defs><clipPath><use xlink:href="#SVGID_43_" overflow="visible"/></clipPath><path fill="#414141" d="M410.1-632.7h19.7v11.6h-19.7z" clip-path="url(#SVGID_44_)"/></g></g><g clip-path="url(#SVGID_40_)"><defs><path d="M431.4-637.5h-22.7c-.9 0-1.6.7-1.6 1.6v9.8c0 .9.7 1.6 1.6 1.6h3.2v6.4h16.2v-6.4h3.2c.9 0 1.6-.7 1.6-1.6v-9.8c.1-.9-.6-1.6-1.5-1.6m-17.9 8.1h13v9.8h-13zm16.2-3.2c-.9 0-1.6-.7-1.6-1.6s.7-1.6 1.6-1.6 1.6.7 1.6 1.6c.1.9-.7 1.6-1.6 1.6"/></defs><clipPath><use xlink:href="#SVGID_45_" overflow="visible"/></clipPath><g clip-path="url(#SVGID_46_)"><defs><path d="M407-644h26v26h-26z"/></defs><clipPath><use xlink:href="#SVGID_47_" overflow="visible"/></clipPath><path fill="#010101" d="M402-642.5h36v29.5h-36z" clip-path="url(#SVGID_48_)"/></g></g></g></g><defs><path d="M415.2-624.3h8.2v1.6h-8.2z"/></defs><clipPath><use xlink:href="#SVGID_49_" overflow="visible"/></clipPath><g clip-path="url(#SVGID_50_)"><defs><path d="M-671-1146.1H729v2330H-671z"/></defs><clipPath><use xlink:href="#SVGID_51_" overflow="visible"/></clipPath><path fill="#414141" d="M410.2-629.3h18.2v11.6h-18.2z" clip-path="url(#SVGID_52_)"/></g><defs><path d="M413.5-642.4h13v3.2h1.6v-4.8h-16.2v4.8h1.6z"/></defs><clipPath><use xlink:href="#SVGID_53_" overflow="visible"/></clipPath><g clip-path="url(#SVGID_54_)"><defs><path d="M-671-1146.1H729v2330H-671z"/></defs><clipPath><use xlink:href="#SVGID_55_" overflow="visible"/></clipPath><path fill="#010101" d="M406.9-649h26.2v14.9h-26.2z" clip-path="url(#SVGID_56_)"/></g><defs><path d="M407-644h26v26h-26z"/></defs><clipPath><use xlink:href="#SVGID_57_" overflow="visible"/></clipPath><g clip-path="url(#SVGID_58_)"><defs><path d="M-671-1146.1H729v2330H-671z"/></defs><clipPath><use xlink:href="#SVGID_59_" overflow="visible"/></clipPath><g clip-path="url(#SVGID_60_)"><defs><path d="M407-638h26v20h-26z"/></defs><clipPath><use xlink:href="#SVGID_61_" overflow="visible"/></clipPath><g clip-path="url(#SVGID_62_)"><defs><path d="M415.1-627.7h9.7v1.6h-9.7z"/></defs><clipPath><use xlink:href="#SVGID_63_" overflow="visible"/></clipPath><g clip-path="url(#SVGID_64_)"><defs><path d="M407-644h26v26h-26z"/></defs><clipPath><use xlink:href="#SVGID_65_" overflow="visible"/></clipPath><path fill="#414141" d="M410.1-632.7h19.7v11.6h-19.7z" clip-path="url(#SVGID_66_)"/></g></g><g clip-path="url(#SVGID_62_)"><defs><path d="M431.4-637.5h-22.7c-.9 0-1.6.7-1.6 1.6v9.8c0 .9.7 1.6 1.6 1.6h3.2v6.4h16.2v-6.4h3.2c.9 0 1.6-.7 1.6-1.6v-9.8c.1-.9-.6-1.6-1.5-1.6m-17.9 8.1h13v9.8h-13zm16.2-3.2c-.9 0-1.6-.7-1.6-1.6s.7-1.6 1.6-1.6 1.6.7 1.6 1.6c.1.9-.7 1.6-1.6 1.6"/></defs><clipPath><use xlink:href="#SVGID_67_" overflow="visible"/></clipPath><g clip-path="url(#SVGID_68_)"><defs><path d="M407-644h26v26h-26z"/></defs><clipPath><use xlink:href="#SVGID_69_" overflow="visible"/></clipPath><path fill="#010101" d="M402-642.5h36v29.5h-36z" clip-path="url(#SVGID_70_)"/></g></g></g></g><defs><path d="M415.2-624.3h8.2v1.6h-8.2z"/></defs><clipPath><use xlink:href="#SVGID_71_" overflow="visible"/></clipPath><g clip-path="url(#SVGID_72_)"><defs><path d="M-671-1146.1H729v2330H-671z"/></defs><clipPath><use xlink:href="#SVGID_73_" overflow="visible"/></clipPath><path fill="#414141" d="M410.2-629.3h18.2v11.6h-18.2z" clip-path="url(#SVGID_74_)"/></g><defs><path d="M413.5-642.4h13v3.2h1.6v-4.8h-16.2v4.8h1.6z"/></defs><clipPath><use xlink:href="#SVGID_75_" overflow="visible"/></clipPath><g clip-path="url(#SVGID_76_)"><defs><path d="M-671-1146.1H729v2330H-671z"/></defs><clipPath><use xlink:href="#SVGID_77_" overflow="visible"/></clipPath><path fill="#010101" d="M406.9-649h26.2v14.9h-26.2z" clip-path="url(#SVGID_78_)"/></g><defs><path d="M407-644h26v26h-26z"/></defs><clipPath><use xlink:href="#SVGID_79_" overflow="visible"/></clipPath><g clip-path="url(#SVGID_80_)"><defs><path d="M-671-1146.1H729v2330H-671z"/></defs><clipPath><use xlink:href="#SVGID_81_" overflow="visible"/></clipPath><g clip-path="url(#SVGID_82_)"><defs><path d="M407-638h26v20h-26z"/></defs><clipPath><use xlink:href="#SVGID_83_" overflow="visible"/></clipPath><g clip-path="url(#SVGID_84_)"><defs><path d="M415.1-627.7h9.7v1.6h-9.7z"/></defs><clipPath><use xlink:href="#SVGID_85_" overflow="visible"/></clipPath><g clip-path="url(#SVGID_86_)"><defs><path d="M407-644h26v26h-26z"/></defs><clipPath><use xlink:href="#SVGID_87_" overflow="visible"/></clipPath><path fill="#414141" d="M410.1-632.7h19.7v11.6h-19.7z" clip-path="url(#SVGID_88_)"/></g></g><g clip-path="url(#SVGID_84_)"><defs><path d="M431.4-637.5h-22.7c-.9 0-1.6.7-1.6 1.6v9.8c0 .9.7 1.6 1.6 1.6h3.2v6.4h16.2v-6.4h3.2c.9 0 1.6-.7 1.6-1.6v-9.8c.1-.9-.6-1.6-1.5-1.6m-17.9 8.1h13v9.8h-13zm16.2-3.2c-.9 0-1.6-.7-1.6-1.6s.7-1.6 1.6-1.6 1.6.7 1.6 1.6c.1.9-.7 1.6-1.6 1.6"/></defs><clipPath><use xlink:href="#SVGID_89_" overflow="visible"/></clipPath><g clip-path="url(#SVGID_90_)"><defs><path d="M407-644h26v26h-26z"/></defs><clipPath><use xlink:href="#SVGID_91_" overflow="visible"/></clipPath><path fill="#010101" d="M402-642.5h36v29.5h-36z" clip-path="url(#SVGID_92_)"/></g></g></g></g><defs><path d="M13.5 8.6h13v3.2h1.6V7H11.9v4.8h1.6z"/></defs><clipPath><use xlink:href="#SVGID_93_" overflow="visible"/></clipPath><g clip-path="url(#SVGID_94_)"><defs><path d="M-1071-495.1H329v2330h-1400z"/></defs><clipPath><use xlink:href="#SVGID_95_" overflow="visible"/></clipPath><path fill="#010101" d="M6.9 2h26.2v14.9H6.9z" clip-path="url(#SVGID_96_)"/></g><defs><path d="M7 7h26v26H7z"/></defs><clipPath><use xlink:href="#SVGID_97_" overflow="visible"/></clipPath><g clip-path="url(#SVGID_98_)"><defs><path d="M-1071-495.1H329v2330h-1400z"/></defs><clipPath><use xlink:href="#SVGID_99_" overflow="visible"/></clipPath><g clip-path="url(#SVGID_100_)"><defs><path d="M7 13h26v20H7z"/></defs><clipPath><use xlink:href="#SVGID_101_" overflow="visible"/></clipPath><g clip-path="url(#SVGID_102_)"><defs><path d="M15.1 23.2h9.7v1.6h-9.7z"/></defs><clipPath><use xlink:href="#SVGID_103_" overflow="visible"/></clipPath><g clip-path="url(#SVGID_104_)"><defs><path d="M7 7h26v26H7z"/></defs><clipPath><use xlink:href="#SVGID_105_" overflow="visible"/></clipPath><path fill="#414141" d="M10.1 18.2h19.7v11.6H10.1z" clip-path="url(#SVGID_106_)"/></g></g><g clip-path="url(#SVGID_102_)"><defs><path d="M31.4 13.5H8.6c-.9 0-1.6.7-1.6 1.6v9.8c0 .9.7 1.6 1.6 1.6h3.2V33H28v-6.4h3.2c.9 0 1.6-.7 1.6-1.6v-9.8c.2-1-.5-1.7-1.4-1.7m-17.9 8.1h13v9.8h-13zm16.2-3.2c-.9 0-1.6-.7-1.6-1.6s.7-1.6 1.6-1.6 1.6.7 1.6 1.6c.1.8-.7 1.6-1.6 1.6"/></defs><clipPath><use xlink:href="#SVGID_107_" overflow="visible"/></clipPath><g clip-path="url(#SVGID_108_)"><defs><path d="M7 7h26v26H7z"/></defs><clipPath><use xlink:href="#SVGID_109_" overflow="visible"/></clipPath><path fill="#010101" d="M2 8.5h36V38H2z" clip-path="url(#SVGID_110_)"/></g></g></g></g><path d="M15.1 23.2h9.7v1.6h-9.7zm.1 3.5h8.2v1.6h-8.2z"/></svg>