<svg xmlns="http://www.w3.org/2000/svg" id="spotify_svg__Layer_1" viewBox="0 0 40 40"><style>.spotify_svg__st0{fill:#7dc112}</style><g id="spotify_svg__Page-1"><g id="spotify_svg__spotify"><path id="spotify_svg__bg" d="M0 0h40v40H0z" class="spotify_svg__st0"/><g id="spotify_svg__icon" transform="translate(120 119.744)"><path id="spotify_svg__Shape" fill="#fefefe" d="M-100.6-110.2c5 0 9 2.8 10.4 6.9 1.4 4.1.1 8.8-3.2 11.4-.5.4-.8.4-1.2-.1-3-3.8-8.8-4.6-12.7-1.6-.6.5-.8.3-1.2-.2-2.3-3.5-2.6-7.1-.7-10.8 1.9-3.6 5.1-5.4 8.6-5.6z"/><path id="spotify_svg__Shape_1_" fill="#fdfefd" d="M-104.9-90.7c1.9-2 5.5-1.8 7 .4.2.3.6.6-.1.7-2.5.5-4.8.1-6.9-1.1z"/><path id="spotify_svg__Shape_2_" fill="#7dc111" d="M-93.2-101.9c-.1-.1-.4-.1-.6-.2-3.7-1.8-7.5-2-11.4-1.2-.1 0-.3.1-.4.1-.6.1-1.1 0-1.3-.7-.2-.7.3-1 .8-1.2 1.3-.4 2.6-.5 3.9-.6 3.1-.1 6.2.3 9 1.7.3.1.6.3.8.5.3.3.4.7.2 1.1-.1.4-.5.6-1 .5z"/><path id="spotify_svg__Shape_3_" d="M-101.4-102.2c2.5 0 4.9.5 7.1 1.8.5.3 1 .6.7 1.3-.4.7-.9.5-1.4.2-3.1-1.6-6.3-1.9-9.7-1.2-.1 0-.2 0-.3.1-.5.1-1 .1-1.2-.5-.1-.6.2-.9.8-1 1.3-.5 2.6-.7 4-.7z" class="spotify_svg__st0"/><path id="spotify_svg__Shape_4_" fill="#7dc212" d="M-101.1-98.7c1.8 0 3.8.4 5.6 1.4.4.2.9.5.6 1-.3.5-.8.3-1.2.1-2.6-1.4-5.3-1.5-8.2-1-.2 0-.4.1-.6.1-.4.1-.8 0-.9-.5-.1-.5.3-.7.7-.8 1.3-.1 2.5-.3 4-.3z"/></g></g></g></svg>