<svg xmlns="http://www.w3.org/2000/svg" viewBox="0 0 40 40"><path fill="#0a50b4" d="M0 0h40v40H0z"/><path fill="#e00" d="M22.2 18.157c.6-.8 1.1-1.8 1.1-1.9-.1-.1-1.3.1-2.4.4-.2-.8-.6-1.6-.7-1.6s-1 .8-1.6 1.6c-.8-.3-1.8-.6-1.9-.5s-.2 1-.1 1.8c-1 .3-2.1.8-2.2.9 0 .1.7.7 1.5 1.1-.6.8-1.2 1.9-1.2 1.9.1.1 1.3-.1 2.3-.3.1.9.5 2 .6 2s1.1-.9 1.8-1.8c.9.4 2.1.8 2.2.7s.1-1.2 0-2.2c1.1-.3 2.4-.9 2.4-1 .1-.1-.9-.7-1.8-1.1"/><path fill="#fff" d="M30.8 19.657c0-.2-2.4-1.8-4.6-2.7 1.3-1.8 2.4-4.1 2.2-4.2s-3.1.3-5.4 1c-.4-1.6-1.3-3.3-1.6-3.3-.2 0-2.1 1.7-3.4 3.3-1.7-.7-3.8-1.1-4-.9-.2.1-.5 2.1-.3 3.8-2.1.6-4.4 1.7-4.5 1.9s1.4 1.5 2.9 2.4c-1.5 1.8-2.9 4.2-2.8 4.4s2.8 0 5.1-.6c.2 2.2 1 4.8 1.3 4.9.3 0 2.6-2.2 4.2-4.3 2.1 1.2 5.2 2.2 5.4 2 .3-.2.2-3.1-.4-5.4 2.9-.7 5.9-2 5.9-2.3m-6.6-.3c-.2.7.8 2.5.8 2.5s-2.5.2-3.2.7c-.7.4-1.7 2.6-1.7 2.6s-1.6-1.4-2.4-1.5c-.7-.1-2.9.9-2.9.9s.2-2.1-.1-2.6-2.2-1-2.2-1 1.7-1.5 1.9-2.1-.4-2.1-.4-2.1 2.1-.3 2.6-.7c.6-.4 1.5-2.1 1.5-2.1s1.4 1 2.1 1 2.8-.9 2.8-.9 0 1.8.4 2.2 2.7.9 2.7.9-1.8 1.5-1.9 2.2"/></svg>