<svg xmlns="http://www.w3.org/2000/svg" viewBox="0 0 40 40"><g><g><path fill="#1e8cbe" d="M0 0h40v40H0z"/><g transform="translate(99 99.677)"><path d="M-68.9-79.6c0-1.1-.2-2.1-.5-3L-74-70.8c3.1-1.8 5.1-5.1 5.1-8.8" fill="#fff"/><path d="M-82.3-70c1 .3 2.1.5 3.2.5 1.2 0 2.3-.2 3.4-.6l-3.1-8.1z" fill="#fff"/><path d="M-88.8-82.5c-.3.9-.4 1.9-.4 2.9 0 3.8 2.1 7.1 5.2 8.9z" fill="#fff"/><path d="M-83.6-83.2h-.4c-1 0-.8 1-.8 1l3.4 8.5 2.3-5.4-1.3-3.2c-.5-.9-1.8-.8-1.8-.8v-.5h7.1v.5h-.7c-.9 0-.7.9-.7.9l3.1 8.3.9-2.3c1.6-3.6.6-6.2.6-6.2-1.6-3.2.4-3.7.4-3.7h.4c-1.9-2.2-4.7-3.6-7.8-3.6-4.2 0-7.8 2.5-9.4 6.2h4.8z" fill="#fff"/><path d="M-67.6-79.7c0 6.3-5.1 11.4-11.4 11.4s-11.5-5.1-11.5-11.4 5.1-11.4 11.5-11.4c6.3 0 11.4 5.1 11.4 11.4m-11.5-12c-6.6 0-12 5.4-12 12s5.4 12 12 12 12-5.4 12-12-5.3-12-12-12" fill="#fff"/></g></g></g></svg>