<svg xmlns="http://www.w3.org/2000/svg" viewBox="0 0 40 40"><g><g><path fill="#08789a" d="M0 40h40V0H0z"/><g transform="translate(97.881 120)"><path d="M-72.9-99.4c1.9.4 3.9.6 5.9.7.7.1 1.3-.6 1.3-1.2 0-.7-.6-1.3-1.3-1.2-2 .1-4 .3-5.9.7-.3.1-1.2.2-1.2.5 0 .4.9.4 1.2.5" fill="#fff"/><path d="M-88.9-110.4c-.4 0-.7.2-.9.5s-.3.7-.1 1.1c0 0 1.6 4 3.1 8.1.8 2 1.6 4 2.2 5.6-.2.5-.4.9-.5 1.3-.1.3-.2.4-.3.6-.3.6-.9 1-1.4 1.1-.9.1-1.9.1-1.9.1-.3 0-.6.2-.8.4s-.3.5-.3.8.2.6.4.8.5.3.8.3c.9 0 1.2 0 2.4-.2 1.8-.5 2.7-1.6 3.3-3.1.2-.5.5-1.2.8-2 .6-1.6 1.4-3.7 2.2-5.7 1.6-4.1 3.1-8.1 3.1-8.1.1-.4.1-.8-.1-1.1s-.6-.5-1-.5c-.2 0-.4.1-.6.2s-.3.3-.4.5c0 0-1.6 4-3.1 8.1-.4 1.1-.9 2.2-1.3 3.3-.4-1.1-.8-2.1-1.3-3.3-1.6-4.1-3.1-8.1-3.1-8.1-.1-.2-.2-.4-.4-.5-.3-.1-.5-.2-.8-.2" fill="#fff"/><path d="M-75.1-95.6c1.4 1.4 3.1 2.5 4.7 3.7.6.4 1.4.2 1.7-.4.4-.6.1-1.4-.5-1.7-1.8-.9-3.5-1.8-5.4-2.5-.3-.1-1.1-.5-1.3-.2-.2.4.5.9.8 1.1" fill="#fff"/><path d="M-75.1-104.2c1.4-1.4 3.1-2.5 4.7-3.7.6-.4 1.4-.2 1.7.4.4.6.1 1.4-.5 1.7-1.8.9-3.5 1.8-5.4 2.5-.3.1-1.1.5-1.3.2-.2-.4.5-.9.8-1.1" fill="#fff"/></g></g></g></svg>