<svg xmlns="http://www.w3.org/2000/svg" viewBox="0 0 40 40"><g fill="none" fill-rule="evenodd"><path fill="#BA513C" d="M0 0h40v40H0z"/><path fill="#FFF" d="M28.231 18.481h.241c1.637 0 2.97 1.315 2.97 2.93v.017l.001.017c.108 1.414.161 2.89.157 4.392a56 56 0 0 1-.157 4.395l-.002.017v.017c0 1.615-1.554 2.93-3.19 2.93h.203c-2.614.109-5.606.16-8.453.156-2.849.005-5.841-.047-8.456-.157h.205c-1.637 0-3.192-1.314-3.192-2.93v-.016l-.001-.017a56 56 0 0 1-.157-4.393 56 56 0 0 1 .157-4.394l.001-.017v-.017c0-1.615 1.555-2.93 3.192-2.93h-.205A201 201 0 0 1 20 18.325c2.85-.006 5.618.047 8.232.156zm-1.107 6.782q0-.485.149-.695.15-.21.492-.21.327 0 .476.21.15.21.15.695v.78h-1.267zm2.743 1.978v-1.964q0-1.098-.528-1.684t-1.513-.586q-.963 0-1.57.633-.609.632-.609 1.637v3.463q0 1.114.554 1.75.554.637 1.516.637 1.072 0 1.61-.6.54-.6.54-1.787v-.58h-1.476v.537q0 .68-.142.88-.141.199-.5.199-.342 0-.484-.236-.142-.235-.141-.843V27.24h2.743zm-6.778 1.869q0 .369-.124.531-.125.163-.388.163l-.346-.084-.34-.27v-4.81l.296-.235.303-.076q.291 0 .445.203.154.202.154.593v3.983zm.077-6.005q-.333-.001-.66.184a2.2 2.2 0 0 0-.615.537v-3.368h-1.448v10.46h1.448v-.593q.282.354.613.521.33.17.75.17.638 0 .974-.437.337-.436.337-1.26v-4.28q0-.945-.359-1.44-.357-.494-1.04-.494m-5.558 5.954-.443.415q-.241.163-.4.163-.202 0-.292-.123t-.09-.397v-5.915h-1.435v6.449q0 .69.253 1.034.252.345.75.345.403 0 .832-.246a3.1 3.1 0 0 0 .825-.718v.852h1.435v-7.716h-1.435zm-2.64-8.6H10.01v1.518h1.671v8.94h1.616v-8.94h1.671zM12.335 6.647h1.627l1.049 4.18h.101l1-4.18h1.641l-1.88 6.12v4.34h-1.616v-4.146zm6.821 8.652q0 .318.153.492.154.174.438.173a.62.62 0 0 0 .463-.177q.172-.176.172-.488v-4.202a.52.52 0 0 0-.175-.409.67.67 0 0 0-.46-.155.6.6 0 0 0-.426.155.54.54 0 0 0-.165.409V15.3zm-1.476-4.145q0-.896.58-1.427.578-.532 1.557-.531.89 0 1.458.56.57.56.57 1.442v3.985q0 .99-.559 1.554-.557.564-1.535.564-.941 0-1.506-.582t-.565-1.565zm9.477-1.764v7.716h-1.435v-.852q-.396.471-.826.717t-.832.247q-.498 0-.75-.345-.252-.344-.252-1.034V9.391h1.435v5.915q0 .274.09.397t.292.123q.158 0 .4-.162l.443-.416V9.391z"/></g></svg>