<?xml version="1.0" encoding="utf-8"?><svg xmlns="http://www.w3.org/2000/svg" xmlns:xlink="http://www.w3.org/1999/xlink"><symbol viewBox="0 0 48 48" id="blog" xmlns="http://www.w3.org/2000/svg"><path d="M0 0h48v48H0z" fill="none"/><path d="M2 7c0-3.96 1.13-5 5-5h33c5 0 6 1.01 6 5v26c0 3.94-1.89 5-6 5H30l-17 8v-8H7c-3.89-.05-5-1.04-5-5zm7 4h30v3H9zm30 7H9v3h30zm-8 7H9v3h22z" fill-rule="evenodd"/></symbol><symbol viewBox="0 0 48 48" id="blog-color" xmlns="http://www.w3.org/2000/svg"><path d="M0 0h48v48H0z" fill="none"/><path d="M2 7c0-3.96 1.13-5 5-5h33c5 0 6 1.01 6 5v26c0 3.94-1.89 5-6 5H30l-17 8v-8H7c-3.89-.05-5-1.04-5-5zm7 4h30v3H9zm30 7H9v3h30zm-8 7H9v3h22z" fill="#0e47cb" fill-rule="evenodd"/></symbol><symbol viewBox="0 0 48 48" id="blog-negative" xmlns="http://www.w3.org/2000/svg"><path d="M0 0h48v48H0z" fill="none"/><path d="M2 7c0-3.96 1.13-5 5-5h33c5 0 6 1.01 6 5v26c0 3.94-1.89 5-6 5H30l-17 8v-8H7c-3.89-.05-5-1.04-5-5zm7 4h30v3H9zm30 7H9v3h30zm-8 7H9v3h22z" fill="#fff" fill-rule="evenodd"/></symbol><symbol viewBox="0 0 48 48" id="chain" xmlns="http://www.w3.org/2000/svg"><path d="M23.55 30.75a6.56 6.56 0 0 0 4.68 1.95c1.77 0 3.42-.69 4.68-1.95l10.56-10.56a6.627 6.627 0 0 0 0-9.36l-2.1-2.1a6.627 6.627 0 0 0-9.36 0l-5.28 5.28 2.97 2.97 5.28-5.28c.93-.93 2.49-.93 3.42 0l2.1 2.1c.93.93.93 2.49 0 3.42L29.94 27.78c-.93.9-2.52.9-3.42 0l-3.15-3.15-2.97 2.97z"/><path d="M6.6 39.27c1.29 1.29 3 1.92 4.68 1.92 1.71 0 3.39-.63 4.68-1.92l5.31-5.31-2.97-2.97-5.31 5.31c-.96.96-2.49.93-3.42 0l-2.1-2.1c-.93-.96-.93-2.49 0-3.42l10.56-10.56c.96-.96 2.49-.93 3.42 0l3.18 3.18 2.97-2.97-3.18-3.18a6.627 6.627 0 0 0-9.36 0L4.5 27.81a6.627 6.627 0 0 0 0 9.36z"/></symbol><symbol fill="none" viewBox="0 0 48 48" id="chain-color" xmlns="http://www.w3.org/2000/svg"><path fill="#3860ED" d="M23.55 30.75a6.56 6.56 0 0 0 4.68 1.95c1.77 0 3.42-.69 4.68-1.95l10.56-10.56a6.627 6.627 0 0 0 0-9.36l-2.1-2.1a6.627 6.627 0 0 0-9.36 0l-5.28 5.28 2.97 2.97 5.28-5.28c.93-.93 2.49-.93 3.42 0l2.1 2.1c.93.93.93 2.49 0 3.42L29.94 27.78c-.93.9-2.52.9-3.42 0l-3.15-3.15-2.97 2.97z"/><path fill="#3860ED" d="M6.6 39.27c1.29 1.29 3 1.92 4.68 1.92 1.71 0 3.39-.63 4.68-1.92l5.31-5.31-2.97-2.97-5.31 5.31c-.96.96-2.49.93-3.42 0l-2.1-2.1c-.93-.96-.93-2.49 0-3.42l10.56-10.56c.96-.96 2.49-.93 3.42 0l3.18 3.18 2.97-2.97-3.18-3.18a6.627 6.627 0 0 0-9.36 0L4.5 27.81a6.627 6.627 0 0 0 0 9.36z"/></symbol><symbol fill="none" viewBox="0 0 48 48" id="chain-negative" xmlns="http://www.w3.org/2000/svg"><path fill="#fff" d="M23.55 30.75a6.56 6.56 0 0 0 4.68 1.95c1.77 0 3.42-.69 4.68-1.95l10.56-10.56a6.627 6.627 0 0 0 0-9.36l-2.1-2.1a6.627 6.627 0 0 0-9.36 0l-5.28 5.28 2.97 2.97 5.28-5.28c.93-.93 2.49-.93 3.42 0l2.1 2.1c.93.93.93 2.49 0 3.42L29.94 27.78c-.93.9-2.52.9-3.42 0l-3.15-3.15-2.97 2.97z"/><path fill="#fff" d="M6.6 39.27c1.29 1.29 3 1.92 4.68 1.92 1.71 0 3.39-.63 4.68-1.92l5.31-5.31-2.97-2.97-5.31 5.31c-.96.96-2.49.93-3.42 0l-2.1-2.1c-.93-.96-.93-2.49 0-3.42l10.56-10.56c.96-.96 2.49-.93 3.42 0l3.18 3.18 2.97-2.97-3.18-3.18a6.627 6.627 0 0 0-9.36 0L4.5 27.81a6.627 6.627 0 0 0 0 9.36z"/></symbol><symbol viewBox="0 0 48 48" id="email" xmlns="http://www.w3.org/2000/svg"><path d="M0 0h48v48H0z" fill="none"/><path d="M41.33 12.08H6.67c-.55 0-1 .45-1 1v21.83c0 .55.45 1 1 1h34.66c.55 0 1-.45 1-1V13.08c0-.55-.45-1-1-1m-2.67 2.75-14.67 8.25-14.66-8.25zm.92 17.33c0 .55-.45 1-1 1H9.42c-.55 0-1-.45-1-1v-15.5L24 25.54l15.58-8.88z"/></symbol><symbol viewBox="0 0 48 48" id="email-color" xmlns="http://www.w3.org/2000/svg"><path d="M0 0h48v48H0z" fill="none"/><path d="M41.33 12.08H6.67c-.55 0-1 .45-1 1v21.83c0 .55.45 1 1 1h34.66c.55 0 1-.45 1-1V13.08c0-.55-.45-1-1-1m-2.67 2.75-14.67 8.25-14.66-8.25zm.92 17.33c0 .55-.45 1-1 1H9.42c-.55 0-1-.45-1-1v-15.5L24 25.54l15.58-8.88z" fill="#0e47cb"/></symbol><symbol viewBox="0 0 48 48" id="email-negative" xmlns="http://www.w3.org/2000/svg"><path d="M0 0h48v48H0z" fill="none"/><path d="M41.33 12.08H6.67c-.55 0-1 .45-1 1v21.83c0 .55.45 1 1 1h34.66c.55 0 1-.45 1-1V13.08c0-.55-.45-1-1-1m-2.67 2.75-14.67 8.25-14.66-8.25zm.92 17.33c0 .55-.45 1-1 1H9.42c-.55 0-1-.45-1-1v-15.5L24 25.54l15.58-8.88z" fill="#fff"/></symbol><symbol viewBox="0 0 48 48" id="facebook" xmlns="http://www.w3.org/2000/svg"><path d="M46 24.134C46 11.911 36.15 2 24 2S2 11.91 2 24.134C2 35.182 10.045 44.34 20.563 46V30.532h-5.586v-6.398h5.586v-4.876c0-5.548 3.284-8.612 8.309-8.612 2.407 0 4.925.432 4.925.432v5.448h-2.775c-2.732 0-3.584 1.705-3.584 3.457v4.151h6.1l-.973 6.398h-5.127V46C37.954 44.339 46 35.182 46 24.134"/><path fill="#FFF" d="m32.756 30.539.984-6.287h-6.16v-4.079c0-1.72.862-3.396 3.62-3.396H34v-5.353S31.458 11 29.028 11c-5.073 0-8.39 3.01-8.39 8.461v4.791H15v6.287h5.639v15.197q1.698.263 3.47.264 1.774-.002 3.47-.264V30.54z"/></symbol><symbol viewBox="0 0 48 48" id="facebook-color" xmlns="http://www.w3.org/2000/svg"><g fill="none" fill-rule="evenodd"><path fill="#1877F2" d="M46 24.134C46 11.911 36.15 2 24 2S2 11.91 2 24.134C2 35.182 10.045 44.34 20.563 46V30.532h-5.586v-6.398h5.586v-4.876c0-5.548 3.284-8.612 8.309-8.612 2.407 0 4.925.432 4.925.432v5.448h-2.775c-2.732 0-3.584 1.705-3.584 3.457v4.151h6.1l-.973 6.398h-5.127V46C37.954 44.339 46 35.182 46 24.134"/><path fill="#FFF" d="m32.756 30.539.984-6.287h-6.16v-4.079c0-1.72.862-3.396 3.62-3.396H34v-5.353S31.458 11 29.028 11c-5.073 0-8.39 3.01-8.39 8.461v4.791H15v6.287h5.639v15.197q1.698.263 3.47.264 1.774-.002 3.47-.264V30.54z"/></g></symbol><symbol viewBox="0 0 48 48" id="facebook-negative" xmlns="http://www.w3.org/2000/svg"><path fill="#FFF" fill-rule="evenodd" d="M46 24.134C46 11.911 36.15 2 24 2S2 11.91 2 24.134C2 35.182 10.045 44.34 20.563 46V30.532h-5.586v-6.398h5.586v-4.876c0-5.548 3.284-8.612 8.309-8.612 2.407 0 4.925.432 4.925.432v5.448h-2.775c-2.732 0-3.584 1.705-3.584 3.457v4.151h6.1l-.973 6.398h-5.127V46C37.954 44.339 46 35.182 46 24.134"/></symbol><symbol viewBox="0 0 48 48" id="flickr" xmlns="http://www.w3.org/2000/svg"><ellipse cx="11.625" cy="23.5" rx="9.625" ry="9.5"/><ellipse cx="36.375" cy="23.5" rx="9.625" ry="9.5"/></symbol><symbol viewBox="0 0 48 48" id="flickr-color" xmlns="http://www.w3.org/2000/svg"><g fill="none" fill-rule="evenodd"><ellipse cx="11.625" cy="23.5" fill="#0063DC" rx="9.625" ry="9.5"/><ellipse cx="36.375" cy="23.5" fill="#FF0084" rx="9.625" ry="9.5"/></g></symbol><symbol viewBox="0 0 48 48" id="flickr-negative" xmlns="http://www.w3.org/2000/svg"><g fill="#FFF" fill-rule="evenodd"><ellipse cx="11.625" cy="23.5" rx="9.625" ry="9.5"/><ellipse cx="36.375" cy="23.5" rx="9.625" ry="9.5"/></g></symbol><symbol viewBox="0 0 48 48" id="foursquare" xmlns="http://www.w3.org/2000/svg"><path d="M35.054 2H11.251C7.965 2 7 4.436 7 5.97v37.3c0 1.847.943 2.367 1.472 2.577.53.212 1.891.347 2.866-.603 0 0 11.296-12.998 11.479-13.198s.29-.203.396-.203l7.201.003c1.933 0 3.517-1.248 3.93-3.199 0 0 4.199-20.134 4.585-22.013C39.353 4.586 37.855 2 35.054 2"/><path fill="#FFF" d="m33.97 8.511-1.08 5.117a1.33 1.33 0 0 1-1.29 1.044h-9.5c-1.045 0-1.904.844-1.904 1.879v1.128c0 1.032.859 1.878 1.903 1.878h8.08c.734 0 1.358.69 1.199 1.47-.163.78-.983 4.781-1.073 5.211a1.34 1.34 0 0 1-1.293 1.004l-6.626.003c-1.336.041-1.625.048-2.41 1.013-.787.966-7.843 9.69-7.843 9.69-.071.084-.133.06-.133-.03V8.258C12 7.571 12.582 7 13.274 7h19.51c.708 0 1.365.655 1.186 1.511"/></symbol><symbol viewBox="0 0 48 48" id="foursquare-color" xmlns="http://www.w3.org/2000/svg"><g fill="none" fill-rule="evenodd"><path fill="#FF577A" d="M35.054 2H11.251C7.965 2 7 4.436 7 5.97v37.3c0 1.847.943 2.367 1.472 2.577.53.212 1.891.347 2.866-.603 0 0 11.296-12.998 11.479-13.198s.29-.203.396-.203l7.201.003c1.933 0 3.517-1.248 3.93-3.199 0 0 4.199-20.134 4.585-22.013C39.353 4.586 37.855 2 35.054 2"/><path fill="#FFF" fill-rule="nonzero" d="m33.97 8.511-1.08 5.117a1.33 1.33 0 0 1-1.29 1.044h-9.5c-1.045 0-1.904.844-1.904 1.879v1.128c0 1.032.859 1.878 1.903 1.878h8.08c.734 0 1.358.69 1.199 1.47-.163.78-.983 4.781-1.073 5.211a1.34 1.34 0 0 1-1.293 1.004l-6.626.003c-1.336.041-1.625.048-2.41 1.013-.787.966-7.843 9.69-7.843 9.69-.071.084-.133.06-.133-.03V8.258C12 7.571 12.582 7 13.274 7h19.51c.708 0 1.365.655 1.186 1.511"/></g></symbol><symbol viewBox="0 0 48 48" id="foursquare-negative" xmlns="http://www.w3.org/2000/svg"><path fill="#FFF" fill-rule="evenodd" d="M35.054 2c2.801 0 4.299 2.586 3.875 4.634-.386 1.88-4.584 22.013-4.584 22.013-.414 1.951-1.998 3.199-3.93 3.199l-2.548-.001h-2.253l-.23-.001H23.6l-.107-.001h-.28c-.106 0-.214.003-.396.203l-.046.052c-.382.435-3 3.445-5.635 6.475l-.51.586-5.288 6.085c-.975.95-2.336.815-2.866.603-.53-.21-1.472-.73-1.472-2.578V5.97C7 4.437 7.965 2 11.251 2Zm-2.27 5h-19.51C12.582 7 12 7.571 12 8.258v29.66c0 .09.062.114.133.03l.026-.032.077-.095 3.523-4.355.6-.742c1.665-2.057 3.265-4.035 3.616-4.466.786-.965 1.075-.972 2.41-1.013h1.784l.238-.001h2.055l.254-.001h2.296a1.34 1.34 0 0 0 1.293-1.005l.483-2.347.105-.512c.21-1.023.412-2.006.485-2.352.159-.78-.465-1.47-1.199-1.47H22.1c-1.044 0-1.903-.846-1.903-1.878v-1.128c0-1.035.859-1.88 1.903-1.88h9.5a1.33 1.33 0 0 0 1.292-1.043l1.08-5.117A1.232 1.232 0 0 0 32.783 7"/></symbol><symbol fill="none" viewBox="0 0 48 48" id="gmail-color" xmlns="http://www.w3.org/2000/svg"><path fill="#4285F4" d="M5 41h7V24.004L2 16.506v21.495C2 39.66 3.345 41 5 41"/><path fill="#34A853" d="M36 41h7c1.66 0 3-1.345 3-3V16.507l-10 7.498"/><path fill="#FBBC04" d="M36 11.008v12.996l10-7.498v-3.999c0-3.709-4.235-5.823-7.2-3.599"/><path fill="#EA4335" d="M12 24.004V11.008l12 8.997 12-8.997v12.996l-12 8.998"/><path fill="#C5221F" d="M2 12.507v4l10 7.497V11.008l-2.8-2.1c-2.97-2.224-7.2-.11-7.2 3.6"/></symbol><symbol viewBox="0 0 48 48" id="instagram" xmlns="http://www.w3.org/2000/svg"><path d="M46 23.96c-.01-5.97-.04-6.72-.15-9.07s-.48-3.94-1.03-5.34c-.57-1.45-1.32-2.67-2.54-3.89s-2.45-1.97-3.9-2.53c-1.4-.54-3-.91-5.34-1.01s-3.1-.13-9.07-.12-6.72.04-9.07.15c-2.34.11-3.94.48-5.34 1.03-1.45.56-2.67 1.32-3.89 2.54S3.7 8.17 3.14 9.62c-.54 1.4-.91 3-1.01 5.34s-.13 3.09-.11 9.07c.01 5.97.04 6.72.15 9.07.11 2.34.48 3.94 1.03 5.34.56 1.45 1.32 2.67 2.54 3.89s2.45 1.97 3.9 2.53c1.4.54 3 .91 5.34 1.01s3.1.13 9.07.11c5.97-.01 6.72-.04 9.07-.15s3.94-.49 5.33-1.03c1.45-.57 2.67-1.32 3.89-2.54s1.97-2.45 2.53-3.9c.54-1.4.91-3 1.01-5.34.1-2.35.13-3.1.12-9.07Zm-4.07 8.9c-.09 2.14-.45 3.31-.75 4.09-.4 1.03-.87 1.76-1.64 2.53s-1.5 1.25-2.53 1.65c-.77.3-1.94.66-4.08.77-2.32.11-3.02.13-8.89.14s-6.57-.01-8.89-.11c-2.15-.09-3.31-.45-4.09-.75-1.03-.4-1.76-.87-2.53-1.64s-1.25-1.5-1.65-2.53c-.3-.78-.66-1.94-.76-4.08-.11-2.32-.13-3.01-.14-8.89-.01-5.87 0-6.57.11-8.89.09-2.14.45-3.31.75-4.08.4-1.03.87-1.76 1.64-2.53s1.5-1.25 2.53-1.65c.78-.3 1.94-.66 4.08-.76 2.32-.11 3.02-.13 8.89-.14s6.57 0 8.89.11c2.14.09 3.31.45 4.08.75 1.03.4 1.76.87 2.53 1.64s1.25 1.5 1.65 2.53c.3.77.66 1.94.76 4.08.11 2.32.14 3.02.15 8.89s-.01 6.57-.11 8.89Z"/><path d="M23.98 12.7c-6.24.01-11.29 5.08-11.27 11.32.01 6.24 5.08 11.29 11.32 11.27 6.24-.01 11.29-5.08 11.28-11.32S30.23 12.68 23.99 12.7Zm6.8 14.09a7.36 7.36 0 0 1-2.69 3.3c-1.2.81-2.62 1.24-4.07 1.24-.96 0-1.92-.19-2.81-.55s-1.7-.91-2.38-1.58a7.36 7.36 0 0 1-2.15-5.19c0-1.45.42-2.87 1.23-4.08.8-1.21 1.95-2.15 3.29-2.71a7.325 7.325 0 0 1 8 1.57 7.26 7.26 0 0 1 2.01 3.75c.29 1.42.14 2.9-.41 4.24ZM37.18 10.04c-.43-.29-.95-.44-1.47-.44-.7 0-1.37.28-1.86.78s-.77 1.17-.77 1.87a2.636 2.636 0 0 0 1.64 2.44c.48.2 1.01.25 1.53.15.51-.1.98-.36 1.35-.73s.62-.84.72-1.35.05-1.04-.15-1.53c-.2-.48-.54-.89-.97-1.18Z"/></symbol><symbol fill="none" viewBox="0 0 48 48" id="instagram-color" xmlns="http://www.w3.org/2000/svg"><path fill="#000" d="M14.889 2.154c-2.341.11-3.94.484-5.337 1.033A10.8 10.8 0 0 0 5.66 5.731a10.8 10.8 0 0 0-2.53 3.9c-.542 1.4-.91 3-1.012 5.342-.104 2.342-.127 3.095-.115 9.07s.038 6.722.151 9.07c.112 2.34.484 3.938 1.033 5.336a10.8 10.8 0 0 0 2.545 3.892c1.224 1.22 2.45 1.969 3.902 2.53 1.4.54 3 .909 5.341 1.011 2.342.103 3.096.127 9.068.115 5.973-.011 6.725-.038 9.071-.149s3.936-.486 5.335-1.032c1.446-.566 2.672-1.32 3.892-2.546a10.8 10.8 0 0 0 2.529-3.901c.542-1.4.91-3 1.012-5.34.102-2.348.126-3.098.115-9.071-.011-5.974-.038-6.723-.15-9.069s-.484-3.939-1.032-5.338c-.566-1.446-1.32-2.67-2.544-3.892-1.224-1.22-2.453-1.97-3.902-2.529-1.4-.541-3-.91-5.341-1.012-2.342-.1-3.095-.127-9.07-.115s-6.723.037-9.07.151m.257 39.77c-2.145-.093-3.31-.449-4.086-.747-1.028-.396-1.76-.875-2.534-1.641s-1.249-1.5-1.65-2.526c-.301-.777-.664-1.94-.765-4.085-.109-2.318-.132-3.014-.144-8.888-.013-5.874.01-6.569.111-8.888.091-2.143.45-3.31.748-4.085a6.8 6.8 0 0 1 1.64-2.533c.769-.773 1.501-1.25 2.528-1.65.775-.303 1.938-.663 4.082-.765 2.32-.11 3.016-.132 8.888-.145 5.873-.013 6.57.01 8.891.111 2.143.094 3.31.449 4.085.748 1.028.396 1.76.872 2.533 1.641.773.77 1.25 1.5 1.65 2.528.304.773.664 1.936.765 4.081.11 2.32.135 3.016.146 8.888s-.01 6.57-.112 8.888c-.094 2.145-.45 3.31-.748 4.087a6.8 6.8 0 0 1-1.642 2.533c-.768.773-1.5 1.249-2.526 1.65-.775.302-1.94.663-4.082.765-2.32.11-3.015.132-8.89.145s-6.568-.011-8.888-.111M33.08 12.242a2.64 2.64 0 1 0 5.282-.01 2.64 2.64 0 0 0-5.282.01m-20.376 11.78c.012 6.24 5.08 11.285 11.317 11.274 6.238-.012 11.288-5.079 11.276-11.318-.012-6.24-5.08-11.287-11.319-11.275s-11.286 5.08-11.274 11.319m3.963-.008a7.333 7.333 0 1 1 14.666-.03 7.333 7.333 0 0 1-14.666.03"/></symbol><symbol viewBox="0 0 48 48" id="instagram-negative" xmlns="http://www.w3.org/2000/svg"><defs><mask width="44" height="44" x="2" y="2" maskUnits="userSpaceOnUse"/></defs><path d="M0 0h48v48H0z" fill="none"/><g><g mask="url(#mask)"><path d="M24 2c-5.97 0-6.72.03-9.07.13-2.34.11-3.94.48-5.34 1.02-1.45.56-2.67 1.31-3.9 2.54a10.8 10.8 0 0 0-2.54 3.9c-.54 1.4-.92 3-1.02 5.34C2.02 17.28 2 18.03 2 24s.03 6.72.13 9.07c.11 2.34.48 3.94 1.02 5.34.56 1.45 1.31 2.67 2.54 3.9a10.8 10.8 0 0 0 3.9 2.54c1.4.54 3 .92 5.34 1.02 2.35.11 3.1.13 9.07.13s6.72-.03 9.07-.13c2.34-.11 3.94-.48 5.34-1.02 1.45-.56 2.67-1.31 3.9-2.54a10.8 10.8 0 0 0 2.54-3.9c.54-1.4.92-3 1.02-5.34.11-2.35.13-3.1.13-9.07s-.03-6.72-.13-9.07c-.11-2.34-.48-3.94-1.02-5.34-.56-1.45-1.31-2.67-2.54-3.9a10.8 10.8 0 0 0-3.9-2.54c-1.4-.54-3-.92-5.34-1.02C30.72 2.02 29.97 2 24 2m0 3.96c5.87 0 6.57.02 8.89.13 2.15.1 3.31.46 4.09.76 1.03.4 1.76.88 2.53 1.65s1.25 1.5 1.65 2.53c.3.78.66 1.94.76 4.09.11 2.32.13 3.02.13 8.89s-.02 6.57-.13 8.89c-.1 2.15-.46 3.31-.76 4.09-.4 1.03-.88 1.76-1.65 2.53s-1.5 1.25-2.53 1.65c-.78.3-1.94.66-4.09.76-2.32.11-3.02.13-8.89.13s-6.57-.02-8.89-.13c-2.14-.1-3.31-.46-4.09-.76-1.03-.4-1.76-.88-2.53-1.65s-1.25-1.5-1.65-2.53c-.3-.78-.66-1.94-.76-4.09-.11-2.32-.13-3.02-.13-8.89s.02-6.57.13-8.89c.1-2.15.46-3.31.76-4.09.4-1.03.88-1.76 1.65-2.53s1.5-1.25 2.53-1.65c.78-.3 1.94-.66 4.09-.76 2.32-.11 3.02-.13 8.89-.13" fill="#fff" fill-rule="evenodd"/><path d="M24.5 31.96a7.46 7.46 0 1 1 0-14.92 7.46 7.46 0 0 1 0 14.92m0-18.96C18.15 13 13 18.15 13 24.5S18.15 36 24.5 36 36 30.85 36 24.5 30.85 13 24.5 13" fill="#fff" fill-rule="evenodd"/><path d="M38 12.5a2.5 2.5 0 0 1-5 0 2.5 2.5 0 0 1 5 0" fill="#fff" fill-rule="evenodd"/></g></g></symbol><symbol viewBox="0 0 48 48" id="linkedin" xmlns="http://www.w3.org/2000/svg"><path d="M42.74 2.003H5.247A3.21 3.21 0 0 0 2 5.175v37.65A3.213 3.213 0 0 0 5.247 46H42.74A3.22 3.22 0 0 0 46 42.825V5.172A3.22 3.22 0 0 0 42.74 2"/><path fill="#FFF" d="M31.295 17.778c6.506 0 7.705 4.286 7.705 9.863L38.997 39H32.58V28.6c-.01-2.345-.193-5.161-3.338-5.161-3.266 0-3.83 2.496-3.854 5.129v10.431h-6.42V18.293h6.162v2.83h.087a6.75 6.75 0 0 1 6.08-3.345m-16.36.515V39H8.509V18.293zM11.725 8a3.73 3.73 0 0 1 3.724 3.73c0 .99-.392 1.94-1.09 2.64a3.72 3.72 0 0 1-2.634 1.093A3.73 3.73 0 0 1 8 11.732 3.73 3.73 0 0 1 11.724 8"/></symbol><symbol viewBox="0 0 48 48" id="linkedin-color" xmlns="http://www.w3.org/2000/svg"><g fill="none" fill-rule="nonzero"><path fill="#0A66C2" d="M42.74 2.003H5.247A3.21 3.21 0 0 0 2 5.175v37.65A3.213 3.213 0 0 0 5.247 46H42.74A3.22 3.22 0 0 0 46 42.825V5.172A3.22 3.22 0 0 0 42.74 2"/><path fill="#FFF" d="M31.295 17.778c6.506 0 7.705 4.286 7.705 9.863L38.997 39H32.58V28.6c-.01-2.345-.193-5.161-3.338-5.161-3.266 0-3.83 2.496-3.854 5.129v10.431h-6.42V18.293h6.162v2.83h.087a6.75 6.75 0 0 1 6.08-3.345m-16.36.515V39H8.509V18.293zM11.725 8a3.73 3.73 0 0 1 3.724 3.73c0 .99-.392 1.94-1.09 2.64a3.72 3.72 0 0 1-2.634 1.093A3.73 3.73 0 0 1 8 11.732 3.73 3.73 0 0 1 11.724 8"/></g></symbol><symbol viewBox="0 0 48 48" id="linkedin-negative" xmlns="http://www.w3.org/2000/svg"><path fill="#FFF" fill-rule="evenodd" d="M42.74 2A3.22 3.22 0 0 1 46 5.172v37.653A3.22 3.22 0 0 1 42.74 46H5.247A3.213 3.213 0 0 1 2 42.825V5.175a3.21 3.21 0 0 1 3.247-3.172H42.74ZM31.295 17.778a6.75 6.75 0 0 0-6.08 3.345h-.086v-2.83h-6.161v20.706h6.418l.001-10.431c.024-2.633.588-5.13 3.854-5.13 3.145 0 3.327 2.817 3.337 5.161V39h6.42L39 27.64c0-5.576-1.2-9.862-7.705-9.862m-16.36.515H8.509V39h6.426zM11.725 8A3.73 3.73 0 0 0 8 11.732a3.73 3.73 0 0 0 3.725 3.73c.988 0 1.936-.393 2.634-1.093a3.74 3.74 0 0 0 1.09-2.638A3.73 3.73 0 0 0 11.724 8"/></symbol><symbol viewBox="0 0 48 48" id="mastodon" xmlns="http://www.w3.org/2000/svg"><path fill-rule="evenodd" d="M33.517 36.582c6.024-.724 11.272-4.421 11.919-7.808.913-4.614.962-10.957.975-12.601.002-.263.003-.406.007-.403 0-10.418-6.825-13.47-6.825-13.47C36.154.725 30.234.053 24.107 0h-.155c-6.127.052-12.048.724-15.46 2.3 0 0-6.825 3.052-6.825 13.47q-.001.978-.008 2.051c-.01 1.897-.023 4 .034 6.196.232 10.16 1.861 20.217 11.22 22.725 4.343 1.137 8.066 1.37 11.065 1.215 5.455-.31 8.505-1.939 8.505-1.939l-.18-3.956s-3.879 1.241-8.248 1.086c-4.317-.155-8.893-.49-9.591-5.79a9.3 9.3 0 0 1-.104-1.5s4.266 1.034 9.644 1.293c3.265.154 6.35-.203 9.461-.563zm4.854-7.394V16.572c0-2.586-.647-4.628-1.99-6.127-1.371-1.526-3.155-2.301-5.352-2.301-2.56 0-4.499.982-5.766 2.947l-1.24 2.094-1.241-2.094c-1.267-1.965-3.206-2.947-5.766-2.947-2.223 0-3.981.775-5.351 2.3-1.319 1.5-1.965 3.542-1.965 6.128v12.564h5.015V16.908c0-2.56 1.086-3.878 3.258-3.878 2.378 0 3.593 1.55 3.593 4.627v6.722h4.964v-6.696c0-3.076 1.19-4.627 3.594-4.627q3.257 0 3.257 3.877v12.255z" clip-rule="evenodd"/></symbol><symbol fill="none" viewBox="0 0 48 48" id="mastodon-color" xmlns="http://www.w3.org/2000/svg"><path fill="#2B90D9" d="M45.436 28.774c-.647 3.387-5.895 7.084-11.919 7.808-3.128.362-6.23.724-9.513.569-5.378-.26-9.644-1.293-9.644-1.293 0 .517.026 1.034.104 1.5.698 5.3 5.274 5.635 9.591 5.79 4.37.155 8.247-1.086 8.247-1.086l.181 3.956s-3.05 1.629-8.505 1.939c-3 .155-6.722-.078-11.065-1.215-9.359-2.508-10.988-12.565-11.22-22.725-.078-3.024-.026-5.868-.026-8.247C1.667 5.352 8.492 2.3 8.492 2.3 11.904.725 17.825.053 23.952 0h.155c6.127.052 12.047.724 15.486 2.3 0 0 6.825 3.052 6.825 13.47-.026-.026.078 7.653-.982 13.004"/><path fill="#fff" d="M38.37 16.572v12.616h-4.989V16.934q0-3.878-3.257-3.878c-2.405 0-3.594 1.55-3.594 4.627v6.696h-4.964v-6.722c0-3.076-1.215-4.627-3.593-4.627-2.172 0-3.258 1.318-3.258 3.878v12.228H9.7V16.572c0-2.586.646-4.628 1.965-6.127 1.37-1.526 3.128-2.301 5.351-2.301 2.56 0 4.499.982 5.766 2.947l1.24 2.094 1.241-2.094c1.267-1.965 3.206-2.947 5.765-2.947 2.198 0 3.982.775 5.352 2.3 1.344 1.5 1.99 3.542 1.99 6.128"/></symbol><symbol fill="none" viewBox="0 0 48 48" id="mastodon-negative" xmlns="http://www.w3.org/2000/svg"><path fill="#fff" fill-rule="evenodd" d="M33.517 36.582c6.024-.724 11.272-4.421 11.919-7.808.913-4.614.962-10.957.975-12.601.002-.263.003-.406.007-.403 0-10.418-6.825-13.47-6.825-13.47C36.154.725 30.234.053 24.107 0h-.155c-6.127.052-12.048.724-15.46 2.3 0 0-6.825 3.052-6.825 13.47q-.001.978-.008 2.051c-.01 1.897-.023 4 .034 6.196.232 10.16 1.861 20.217 11.22 22.725 4.343 1.137 8.066 1.37 11.065 1.215 5.455-.31 8.505-1.939 8.505-1.939l-.18-3.956s-3.879 1.241-8.248 1.086c-4.317-.155-8.893-.49-9.591-5.79a9.3 9.3 0 0 1-.104-1.5s4.266 1.034 9.644 1.293c3.265.154 6.35-.203 9.461-.563zm4.854-7.394V16.572c0-2.586-.647-4.628-1.99-6.127-1.371-1.526-3.155-2.301-5.352-2.301-2.56 0-4.499.982-5.766 2.947l-1.24 2.094-1.241-2.094c-1.267-1.965-3.206-2.947-5.766-2.947-2.223 0-3.981.775-5.351 2.3-1.319 1.5-1.965 3.542-1.965 6.128v12.564h5.015V16.908c0-2.56 1.086-3.878 3.258-3.878 2.378 0 3.593 1.55 3.593 4.627v6.722h4.964v-6.696c0-3.076 1.19-4.627 3.594-4.627q3.257 0 3.257 3.877v12.255z" clip-rule="evenodd"/></symbol><symbol viewBox="0 0 48 48" id="messenger" xmlns="http://www.w3.org/2000/svg"><path d="M22 0C9.61 0 0 9.08 0 21.34c0 6.41 2.63 11.96 6.91 15.78.36.32.58.77.59 1.25l.12 3.91a1.764 1.764 0 0 0 2.47 1.56l4.37-1.93c.37-.16.78-.19 1.17-.09 2.01.55 4.14.85 6.37.85 12.39 0 22-9.08 22-21.34S34.39 0 22 0m13.21 16.42-6.46 10.25a3.297 3.297 0 0 1-4.77.88l-5.14-3.85c-.47-.35-1.12-.35-1.59 0l-6.94 5.27c-.93.7-2.14-.41-1.52-1.39l6.46-10.25a3.297 3.297 0 0 1 4.77-.88l5.14 3.85c.47.35 1.12.35 1.59 0l6.94-5.27c.93-.7 2.14.41 1.52 1.39" fill="evenodd"/></symbol><symbol fill="none" viewBox="0 0 48 48" id="messenger-color" xmlns="http://www.w3.org/2000/svg"><path fill="#000" d="M24 2C11.607 2 2 11.078 2 23.34c0 6.414 2.628 11.956 6.91 15.784.358.322.575.772.59 1.255l.12 3.913a1.76 1.76 0 0 0 2.47 1.556l4.367-1.928c.37-.163.785-.193 1.174-.086 2.007.552 4.143.846 6.369.846 12.393 0 22-9.078 22-21.34S36.393 2 24 2m13.211 16.42-6.462 10.252a3.3 3.3 0 0 1-4.772.88l-5.14-3.854a1.32 1.32 0 0 0-1.59.004l-6.942 5.269c-.927.703-2.136-.406-1.516-1.39l6.463-10.253a3.3 3.3 0 0 1 4.771-.88l5.14 3.854a1.32 1.32 0 0 0 1.59-.004l6.942-5.269c.926-.703 2.136.406 1.515 1.39z"/><path fill="#000" d="M24 2C11.607 2 2 11.078 2 23.34c0 6.414 2.628 11.956 6.91 15.784.358.322.575.772.59 1.255l.12 3.913a1.76 1.76 0 0 0 2.47 1.556l4.367-1.928c.37-.163.785-.193 1.174-.086 2.007.552 4.143.846 6.369.846 12.393 0 22-9.078 22-21.34S36.393 2 24 2m13.211 16.42-6.462 10.252a3.3 3.3 0 0 1-4.772.88l-5.14-3.854a1.32 1.32 0 0 0-1.59.004l-6.942 5.269c-.927.703-2.136-.406-1.516-1.39l6.463-10.253a3.3 3.3 0 0 1 4.771-.88l5.14 3.854a1.32 1.32 0 0 0 1.59-.004l6.942-5.269c.926-.703 2.136.406 1.515 1.39z"/></symbol><symbol fill="none" viewBox="0 0 48 48" id="messenger-negative" xmlns="http://www.w3.org/2000/svg"><path fill="#fff" d="M24 2C11.607 2 2 11.078 2 23.34c0 6.414 2.628 11.956 6.91 15.784.358.322.575.772.59 1.255l.12 3.913a1.76 1.76 0 0 0 2.47 1.556l4.367-1.928c.37-.163.785-.193 1.174-.086 2.007.552 4.143.846 6.369.846 12.393 0 22-9.078 22-21.34S36.393 2 24 2m13.211 16.42-6.462 10.252a3.3 3.3 0 0 1-4.772.88l-5.14-3.854a1.32 1.32 0 0 0-1.59.004l-6.942 5.269c-.927.703-2.136-.406-1.516-1.39l6.463-10.253a3.3 3.3 0 0 1 4.771-.88l5.14 3.854a1.32 1.32 0 0 0 1.59-.004l6.942-5.269c.926-.703 2.136.406 1.515 1.39z"/><path fill="#fff" d="M24 2C11.607 2 2 11.078 2 23.34c0 6.414 2.628 11.956 6.91 15.784.358.322.575.772.59 1.255l.12 3.913a1.76 1.76 0 0 0 2.47 1.556l4.367-1.928c.37-.163.785-.193 1.174-.086 2.007.552 4.143.846 6.369.846 12.393 0 22-9.078 22-21.34S36.393 2 24 2m13.211 16.42-6.462 10.252a3.3 3.3 0 0 1-4.772.88l-5.14-3.854a1.32 1.32 0 0 0-1.59.004l-6.942 5.269c-.927.703-2.136-.406-1.516-1.39l6.463-10.253a3.3 3.3 0 0 1 4.771-.88l5.14 3.854a1.32 1.32 0 0 0 1.59-.004l6.942-5.269c.926-.703 2.136.406 1.515 1.39z"/></symbol><symbol viewBox="0 0 48 48" id="pinterest" xmlns="http://www.w3.org/2000/svg"><defs><mask width="43.96" height="44" x="2" y="2" maskUnits="userSpaceOnUse"/></defs><path d="M0 0h48v48H0z" fill="none"/><g mask="url(#a)"><path d="M24 2C11.85 2 2 11.84 2 23.98c0 9.32 5.79 17.28 13.98 20.48-.2-1.74-.36-4.41.07-6.31.4-1.72 2.57-10.93 2.57-10.93s-.65-1.32-.65-3.26c0-3.06 1.77-5.34 3.98-5.34 1.88 0 2.79 1.41 2.79 3.09 0 1.88-1.19 4.7-1.83 7.33-.52 2.19 1.1 3.98 3.26 3.98 3.91 0 6.92-4.13 6.92-10.06 0-5.26-3.78-8.94-9.2-8.94-6.26 0-9.94 4.69-9.94 9.53 0 1.88.73 3.91 1.63 5.01.18.22.2.42.15.63-.16.69-.54 2.19-.62 2.5-.09.4-.33.49-.74.29-2.75-1.29-4.47-5.28-4.47-8.52 0-6.93 5.03-13.3 14.54-13.3 7.62 0 13.56 5.43 13.56 12.7s-4.78 13.68-11.41 13.68c-2.23 0-4.33-1.16-5.03-2.53 0 0-1.11 4.2-1.38 5.23-.49 1.92-1.83 4.31-2.73 5.77 2.06.63 4.24.98 6.52.98 12.15 0 22-9.84 22-21.98.04-12.18-9.81-22.02-21.96-22.02Z" fill-rule="evenodd"/></g></symbol><symbol viewBox="0 0 48 48" id="pinterest-color" xmlns="http://www.w3.org/2000/svg"><defs><mask width="44" height="43.96" x="2" y="2" maskUnits="userSpaceOnUse"/><mask width="43.96" height="44" x="2" y="2" maskUnits="userSpaceOnUse"/></defs><path d="M0 0h48v48H0z" fill="none"/><g mask="url(#a)"><path d="M24 2c12.15 0 22 9.84 22 21.98s-9.85 21.98-22 21.98S2 36.12 2 23.98 11.85 2 24 2" fill-rule="evenodd" fill="#fff"/></g><g mask="url(#b)"><path d="M24 2C11.85 2 2 11.84 2 23.98c0 9.32 5.79 17.28 13.98 20.48-.2-1.74-.36-4.41.07-6.31.4-1.72 2.57-10.93 2.57-10.93s-.65-1.32-.65-3.26c0-3.06 1.77-5.34 3.98-5.34 1.88 0 2.79 1.41 2.79 3.09 0 1.88-1.19 4.7-1.83 7.33-.52 2.19 1.1 3.98 3.26 3.98 3.91 0 6.92-4.13 6.92-10.06 0-5.26-3.78-8.94-9.2-8.94-6.26 0-9.94 4.69-9.94 9.53 0 1.88.73 3.91 1.63 5.01.18.22.2.42.15.63-.16.69-.54 2.19-.62 2.5-.09.4-.33.49-.74.29-2.75-1.29-4.47-5.28-4.47-8.52 0-6.93 5.03-13.3 14.54-13.3 7.62 0 13.56 5.43 13.56 12.7s-4.78 13.68-11.41 13.68c-2.23 0-4.33-1.16-5.03-2.53 0 0-1.11 4.2-1.38 5.23-.49 1.92-1.83 4.31-2.73 5.77 2.06.63 4.24.98 6.52.98 12.15 0 22-9.84 22-21.98.04-12.18-9.81-22.02-21.96-22.02Z" fill="#e60023" fill-rule="evenodd"/></g></symbol><symbol viewBox="0 0 48 48" id="pinterest-negative" xmlns="http://www.w3.org/2000/svg"><defs><mask width="43.96" height="44" x="2" y="2" maskUnits="userSpaceOnUse"/></defs><path d="M0 0h48v48H0z" fill="none"/><g mask="url(#a)"><path d="M24 2C11.85 2 2 11.84 2 23.98c0 9.32 5.79 17.28 13.98 20.48-.2-1.74-.36-4.41.07-6.31.4-1.72 2.57-10.93 2.57-10.93s-.65-1.32-.65-3.26c0-3.06 1.77-5.34 3.98-5.34 1.88 0 2.79 1.41 2.79 3.09 0 1.88-1.19 4.7-1.83 7.33-.52 2.19 1.1 3.98 3.26 3.98 3.91 0 6.92-4.13 6.92-10.06 0-5.26-3.78-8.94-9.2-8.94-6.26 0-9.94 4.69-9.94 9.53 0 1.88.73 3.91 1.63 5.01.18.22.2.42.15.63-.16.69-.54 2.19-.62 2.5-.09.4-.33.49-.74.29-2.75-1.29-4.47-5.28-4.47-8.52 0-6.93 5.03-13.3 14.54-13.3 7.62 0 13.56 5.43 13.56 12.7s-4.78 13.68-11.41 13.68c-2.23 0-4.33-1.16-5.03-2.53 0 0-1.11 4.2-1.38 5.23-.49 1.92-1.83 4.31-2.73 5.77 2.06.63 4.24.98 6.52.98 12.15 0 22-9.84 22-21.98.04-12.18-9.81-22.02-21.96-22.02Z" fill="#fff" fill-rule="evenodd"/></g></symbol><symbol viewBox="0 0 48 48" id="qzone" xmlns="http://www.w3.org/2000/svg"><path d="M23.42 28.26c0 .63 6.48 2.27 12.27 1.85.02-.16.24-.37.22-.36l9.83-10.05c.21-.21.3-.53.23-.82-.05-.18-.23-.41-.61-.47-.38-.07-13.48-2.58-13.48-2.58s-.19-.04-.37-.13c-.17-.09-.23-.31-.23-.31S24.81 3.78 24.63 3.43c-.34-.61-.94-.58-1.28 0-.18.34-6.65 11.96-6.65 11.96s-.07.22-.23.31c-.17.09-.37.13-.37.13S3 18.33 2.62 18.4s-.55.29-.61.47c-.07.3.01.61.23.82l9.83 10.05s.13.14.21.31c.03.18 0 .38 0 .38s-2.18 13.26-2.23 13.64c-.06.38.14.67.29.79.15.11.42.19.76.02.35-.17 12.49-5.97 12.49-5.97s.18-.08.37-.11.37.11.37.11 12.15 5.8 12.49 5.97c.69.34 1.14-.22 1.07-.81-.04-.26-1.71-10.39-1.71-10.39 1.61-1 2.61-1.9 3.4-3.21-6.52 2.46-15.75 3.96-23.64 3.39-2.18-.15-3.25-.78-1.27-2.32 1.75-1.31 3.5-2.63 5.24-3.94 2.36-1.77 6.53-4.53 6.53-5.01 0-.52-3.93-1.42-7.4-1.42s-4.18.24-5.16.31c-.9.06-1.41 0-1.48-.26-.11-.45.34-.71 1.08-1.04 1.3-.58 3.41-1.09 3.64-1.14.36-.1 5.65-1.48 10.3-.98 2.41.25 5.95 1.22 5.95 2.33 0 .63-3.16 2.74-5.92 4.76-2.1 1.55-4.07 2.86-4.07 3.09Z" fill="evenodd"/></symbol><symbol fill="none" viewBox="0 0 48 48" id="qzone-color" xmlns="http://www.w3.org/2000/svg"><path fill="#FC0" d="M27.489 25.17c-2.104 1.546-4.066 2.86-4.066 3.087 0 .63 6.484 2.272 12.269 1.854.024-.156.242-.365.223-.355l9.832-10.05a.88.88 0 0 0 .228-.82c-.052-.185-.228-.408-.608-.474-.38-.071-13.48-2.575-13.48-2.575s-.195-.043-.366-.128c-.166-.086-.227-.309-.227-.309S24.819 3.786 24.639 3.445c-.342-.607-.94-.579-1.278 0-.18.341-6.655 11.955-6.655 11.955s-.066.223-.227.309a1.8 1.8 0 0 1-.366.128s-13.1 2.504-13.48 2.565c-.38.072-.551.294-.608.475a.87.87 0 0 0 .228.82l9.832 10.054s.128.142.214.313c.028.185.004.384.004.384s-2.175 13.26-2.232 13.64a.84.84 0 0 0 .294.787c.152.114.423.194.765.023.352-.17 12.492-5.97 12.492-5.97s.18-.081.37-.11c.186-.033.367.11.367.11s12.145 5.8 12.492 5.97c.689.337 1.135-.223 1.069-.81l-1.715-10.391c1.61-.996 2.612-1.902 3.396-3.206-6.522 2.461-15.75 3.965-23.635 3.39-2.185-.146-3.25-.782-1.273-2.323 1.748-1.314 3.496-2.632 5.243-3.941 2.356-1.774 6.527-4.53 6.527-5.008 0-.517-3.933-1.423-7.4-1.423s-4.176.237-5.159.308c-.898.057-1.41.005-1.477-.256-.11-.45.337-.706 1.083-1.038 1.297-.579 3.41-1.086 3.638-1.143.357-.1 5.653-1.48 10.303-.982 2.413.252 5.951 1.224 5.951 2.333 0 .631-3.158 2.741-5.918 4.757z"/></symbol><symbol fill="none" viewBox="0 0 48 48" id="qzone-negative" xmlns="http://www.w3.org/2000/svg"><path fill="#fff" d="M27.489 25.17c-2.104 1.546-4.066 2.86-4.066 3.087 0 .63 6.484 2.272 12.269 1.854.024-.156.242-.365.223-.355l9.832-10.05a.88.88 0 0 0 .228-.82c-.052-.185-.228-.408-.608-.474-.38-.071-13.48-2.575-13.48-2.575s-.195-.043-.366-.128c-.166-.086-.227-.309-.227-.309S24.819 3.786 24.639 3.445c-.342-.607-.94-.579-1.278 0-.18.341-6.655 11.955-6.655 11.955s-.066.223-.227.309a1.8 1.8 0 0 1-.366.128s-13.1 2.504-13.48 2.565c-.38.072-.551.294-.608.475a.87.87 0 0 0 .228.82l9.832 10.054s.128.142.214.313c.028.185.004.384.004.384s-2.175 13.26-2.232 13.64a.84.84 0 0 0 .294.787c.152.114.423.194.765.023.352-.17 12.492-5.97 12.492-5.97s.18-.081.37-.11c.186-.033.367.11.367.11s12.145 5.8 12.492 5.97c.689.337 1.135-.223 1.069-.81l-1.715-10.391c1.61-.996 2.612-1.902 3.396-3.206-6.522 2.461-15.75 3.965-23.635 3.39-2.185-.146-3.25-.782-1.273-2.323 1.748-1.314 3.496-2.632 5.243-3.941 2.356-1.774 6.527-4.53 6.527-5.008 0-.517-3.933-1.423-7.4-1.423s-4.176.237-5.159.308c-.898.057-1.41.005-1.477-.256-.11-.45.337-.706 1.083-1.038 1.297-.579 3.41-1.086 3.638-1.143.357-.1 5.653-1.48 10.303-.982 2.413.252 5.951 1.224 5.951 2.333 0 .631-3.158 2.741-5.918 4.757z"/></symbol><symbol viewBox="0 0 48 48" id="reddit" xmlns="http://www.w3.org/2000/svg"><path fill-rule="evenodd" d="M24 46c12.15 0 22-9.85 22-22S36.15 2 24 2 2 11.85 2 24s9.85 22 22 22m2.217-19.49a2.277 2.277 0 0 0 2.267 2.28 2.276 2.276 0 0 0 2.266-2.28 2.276 2.276 0 0 0-2.266-2.282 2.277 2.277 0 0 0-2.267 2.281m-2.718 7.701c.872 0 3.836-.12 5.383-1.675a.594.594 0 0 0 .002-.836.584.584 0 0 0-.831 0c-.977.981-3.063 1.33-4.554 1.33-1.49 0-3.575-.349-4.55-1.33a.584.584 0 0 0-.831 0 .59.59 0 0 0 0 .835c1.545 1.556 4.508 1.676 5.381 1.676m-4.988-9.983a2.277 2.277 0 0 0-2.267 2.281 2.276 2.276 0 0 0 2.267 2.28 2.275 2.275 0 0 0 2.265-2.28 2.276 2.276 0 0 0-2.265-2.281m16.316-3.193A3.183 3.183 0 0 1 38 24.228a3.19 3.19 0 0 1-1.888 2.917q.075.474.075.96c0 4.913-5.683 8.895-12.694 8.895-7.01 0-12.694-3.982-12.694-8.895q.001-.49.077-.965A3.19 3.19 0 0 1 9 24.228a3.183 3.183 0 0 1 3.173-3.193c.853 0 1.625.34 2.195.89 2.198-1.593 5.235-2.611 8.612-2.706l1.614-7.636a.57.57 0 0 1 .672-.44l5.274 1.13A2.25 2.25 0 0 1 32.564 11a2.273 2.273 0 0 1 2.266 2.28 2.274 2.274 0 0 1-2.266 2.281c-1.216 0-2.2-.965-2.256-2.173l-4.724-1.01-1.444 6.844c3.328.116 6.316 1.134 8.487 2.708a3.15 3.15 0 0 1 2.2-.895" clip-rule="evenodd"/></symbol><symbol fill="none" viewBox="0 0 48 48" id="reddit-color" xmlns="http://www.w3.org/2000/svg"><g fill-rule="evenodd" clip-rule="evenodd"><path fill="#FF4500" d="M46 24c0 12.15-9.85 22-22 22S2 36.15 2 24 11.85 2 24 2s22 9.85 22 22"/><path fill="#fff" d="M28.484 28.79a2.277 2.277 0 0 1-2.267-2.28 2.277 2.277 0 0 1 2.267-2.282 2.276 2.276 0 0 1 2.266 2.281 2.276 2.276 0 0 1-2.266 2.281m.398 3.746c-1.547 1.555-4.51 1.675-5.383 1.675s-3.836-.12-5.381-1.676a.59.59 0 0 1 0-.835.584.584 0 0 1 .83 0c.976.981 3.06 1.33 4.551 1.33 1.49 0 3.577-.349 4.554-1.33a.584.584 0 0 1 .83 0 .594.594 0 0 1 0 .836m-12.638-6.027a2.277 2.277 0 0 1 2.267-2.281 2.276 2.276 0 0 1 2.265 2.281 2.275 2.275 0 0 1-2.265 2.28 2.276 2.276 0 0 1-2.267-2.28M38 24.228a3.183 3.183 0 0 0-3.173-3.193 3.15 3.15 0 0 0-2.2.895c-2.171-1.574-5.16-2.592-8.487-2.708l1.444-6.844 4.724 1.01a2.27 2.27 0 0 0 2.256 2.173 2.274 2.274 0 0 0 2.266-2.281A2.273 2.273 0 0 0 32.564 11c-.89 0-1.654.52-2.024 1.273l-5.274-1.13a.57.57 0 0 0-.672.44l-1.614 7.636c-3.377.095-6.414 1.113-8.612 2.706a3.15 3.15 0 0 0-2.195-.89A3.183 3.183 0 0 0 9 24.228c0 1.297.771 2.412 1.876 2.912q-.076.476-.077.965C10.8 33.018 16.483 37 23.493 37s12.694-3.982 12.694-8.895q0-.486-.075-.96A3.19 3.19 0 0 0 38 24.228"/></g></symbol><symbol fill="none" viewBox="0 0 48 48" id="reddit-negative" xmlns="http://www.w3.org/2000/svg"><path fill="#fff" fill-rule="evenodd" d="M24 46c12.15 0 22-9.85 22-22S36.15 2 24 2 2 11.85 2 24s9.85 22 22 22m2.217-19.49a2.277 2.277 0 0 0 2.267 2.28 2.276 2.276 0 0 0 2.266-2.28 2.276 2.276 0 0 0-2.266-2.282 2.277 2.277 0 0 0-2.267 2.281m-2.718 7.701c.872 0 3.836-.12 5.383-1.675a.594.594 0 0 0 .002-.836.584.584 0 0 0-.831 0c-.977.981-3.063 1.33-4.554 1.33-1.49 0-3.575-.349-4.55-1.33a.584.584 0 0 0-.831 0 .59.59 0 0 0 0 .835c1.545 1.556 4.508 1.676 5.381 1.676m-4.988-9.983a2.277 2.277 0 0 0-2.267 2.281 2.276 2.276 0 0 0 2.267 2.28 2.275 2.275 0 0 0 2.265-2.28 2.276 2.276 0 0 0-2.265-2.281m16.316-3.193A3.183 3.183 0 0 1 38 24.228a3.19 3.19 0 0 1-1.888 2.917q.075.474.075.96c0 4.913-5.683 8.895-12.694 8.895-7.01 0-12.694-3.982-12.694-8.895q.001-.49.077-.965A3.19 3.19 0 0 1 9 24.228a3.183 3.183 0 0 1 3.173-3.193c.853 0 1.625.34 2.195.89 2.198-1.593 5.235-2.611 8.612-2.706l1.614-7.636a.57.57 0 0 1 .672-.44l5.274 1.13A2.25 2.25 0 0 1 32.564 11a2.273 2.273 0 0 1 2.266 2.28 2.274 2.274 0 0 1-2.266 2.281c-1.216 0-2.2-.965-2.256-2.173l-4.724-1.01-1.444 6.844c3.328.116 6.316 1.134 8.487 2.708a3.15 3.15 0 0 1 2.2-.895" clip-rule="evenodd"/></symbol><symbol viewBox="0 0 48 48" id="rss" xmlns="http://www.w3.org/2000/svg"><rect width="42" height="42" x="3" y="3" fill-rule="evenodd" rx="9.04" ry="9.04"/><path fill="#fff" d="M30.3 17.67c-5.7-5.7-13.26-8.83-21.33-8.83v5.93c6.48 0 12.56 2.52 17.13 7.09s7.09 10.65 7.09 17.13h5.94c0-8.06-3.13-15.63-8.83-21.32"/><path fill="#fff" d="M8.91 18.88v5.93c7.82 0 14.18 6.37 14.18 14.18h5.93c0-11.09-9.01-20.11-20.11-20.11"/><circle cx="13.12" cy="34.92" r="4.25" fill="#fff"/></symbol><symbol viewBox="0 0 48 48" id="rss-color" xmlns="http://www.w3.org/2000/svg"><rect width="42" height="42" x="3" y="3" fill="#d95c29" rx="9.04" ry="9.04"/><path fill="#fff" fill-rule="evenodd" d="M30.3 17.67c-5.7-5.7-13.26-8.83-21.33-8.83v5.93c6.48 0 12.56 2.52 17.13 7.09s7.09 10.65 7.09 17.13h5.94c0-8.06-3.13-15.63-8.83-21.32"/><path fill="#fff" fill-rule="evenodd" d="M8.91 18.88v5.93c7.82 0 14.18 6.37 14.18 14.18h5.93c0-11.09-9.01-20.11-20.11-20.11"/><circle cx="13.12" cy="34.92" r="4.25" fill="#fff"/></symbol><symbol viewBox="0 0 48 48" id="rss-negative" xmlns="http://www.w3.org/2000/svg"><rect width="42" height="42" x="3" y="3" fill="none" rx="9.04" ry="9.04"/><path fill="#fff" d="M30.3 17.67c-5.7-5.7-13.26-8.83-21.33-8.83v5.93c6.48 0 12.56 2.52 17.13 7.09s7.09 10.65 7.09 17.13h5.94c0-8.06-3.13-15.63-8.83-21.32"/><path fill="#fff" d="M8.91 18.88v5.93c7.82 0 14.18 6.37 14.18 14.18h5.93c0-11.09-9.01-20.11-20.11-20.11"/><circle cx="13.12" cy="34.92" r="4.25" fill="#fff"/></symbol><symbol viewBox="0 0 48 48" id="skype" xmlns="http://www.w3.org/2000/svg"><path d="M44.382 27.594a21 21 0 0 0 .312-3.595c0-11.428-9.266-20.694-20.694-20.694q-1.843.002-3.595.312A12.2 12.2 0 0 0 14.305 2C7.507 2 2 7.51 2 14.305c0 2.22.586 4.303 1.617 6.101a20.6 20.6 0 0 0-.312 3.593c0 11.43 9.266 20.697 20.695 20.697 1.226 0 2.428-.108 3.594-.313a12.2 12.2 0 0 0 6.1 1.617C40.489 46 46 40.49 46 33.694c0-2.22-.59-4.302-1.618-6.1"/><path fill="#FFF" d="M23.583 37C16.318 37 13 33.345 13 30.66c0-1.377 1.09-2.325 2.486-2.325 3.108 0 2.299 4.608 8.097 4.608 2.968 0 4.706-1.765 4.706-3.42 0-.996-.578-2.104-2.532-2.588l-6.459-1.619c-5.203-1.306-6.114-4.167-6.114-6.819 0-5.506 5.093-7.497 9.947-7.497 4.47 0 9.784 2.437 9.784 5.742 0 1.415-1.202 2.186-2.599 2.186-2.653 0-2.21-3.688-7.554-3.688-2.652 0-4.051 1.227-4.051 2.952 0 1.72 2.052 2.304 3.87 2.72l4.78 1.065C32.6 23.147 34 26.181 34 29.071 34 33.546 30.493 37 23.583 37"/></symbol><symbol viewBox="0 0 48 48" id="skype-color" xmlns="http://www.w3.org/2000/svg"><g fill="none" fill-rule="evenodd"><path fill="#0078D7" d="M44.382 27.594a21 21 0 0 0 .312-3.595c0-11.428-9.266-20.694-20.694-20.694q-1.843.002-3.595.312A12.2 12.2 0 0 0 14.305 2C7.507 2 2 7.51 2 14.305c0 2.22.586 4.303 1.617 6.101a20.6 20.6 0 0 0-.312 3.593c0 11.43 9.266 20.697 20.695 20.697 1.226 0 2.428-.108 3.594-.313a12.2 12.2 0 0 0 6.1 1.617C40.489 46 46 40.49 46 33.694c0-2.22-.59-4.302-1.618-6.1"/><path fill="#FFF" fill-rule="nonzero" d="M23.583 37C16.318 37 13 33.345 13 30.66c0-1.377 1.09-2.325 2.486-2.325 3.108 0 2.299 4.608 8.097 4.608 2.968 0 4.706-1.765 4.706-3.42 0-.996-.578-2.104-2.532-2.588l-6.459-1.619c-5.203-1.306-6.114-4.167-6.114-6.819 0-5.506 5.093-7.497 9.947-7.497 4.47 0 9.784 2.437 9.784 5.742 0 1.415-1.202 2.186-2.599 2.186-2.653 0-2.21-3.688-7.554-3.688-2.652 0-4.051 1.227-4.051 2.952 0 1.72 2.052 2.304 3.87 2.72l4.78 1.065C32.6 23.147 34 26.181 34 29.071 34 33.546 30.493 37 23.583 37"/></g></symbol><symbol viewBox="0 0 48 48" id="skype-negative" xmlns="http://www.w3.org/2000/svg"><path fill="#FFF" fill-rule="evenodd" d="M14.304 2c2.22 0 4.304.586 6.1 1.617A20.7 20.7 0 0 1 24 3.305c11.428 0 20.694 9.266 20.694 20.694a21 21 0 0 1-.312 3.595 12.25 12.25 0 0 1 1.618 6.1C46 40.491 40.49 46 33.694 46c-2.22 0-4.302-.586-6.1-1.617a21 21 0 0 1-3.594.313c-11.429 0-20.695-9.268-20.695-20.697q.002-1.84.312-3.593A12.2 12.2 0 0 1 2 14.306C2 7.51 7.508 2 14.304 2m8.827 9c-4.854 0-9.947 1.991-9.947 7.497 0 2.652.911 5.513 6.114 6.82l6.46 1.618c1.953.484 2.531 1.592 2.531 2.588 0 1.655-1.738 3.42-4.706 3.42-5.798 0-4.989-4.608-8.097-4.608-1.396 0-2.486.948-2.486 2.325C13 33.345 16.318 37 23.583 37 30.493 37 34 33.546 34 29.071c0-2.89-1.4-5.924-6.638-7.094l-4.781-1.065c-1.818-.416-3.87-1-3.87-2.72 0-1.725 1.399-2.952 4.051-2.952 5.343 0 4.901 3.688 7.554 3.688 1.397 0 2.599-.77 2.599-2.186C32.915 13.437 27.6 11 23.13 11"/></symbol><symbol viewBox="0 0 48 48" id="sms" xmlns="http://www.w3.org/2000/svg"><defs/><path d="M40.09 2H7.81C4.37 2 2 4.36 2 7.79v24.14c0 3.48 2.35 5.83 5.83 5.83 2.45 0 4.89.01 7.34 0 .47 0 .62.12.61.6-.03 2.08-.02 4.17 0 6.25 0 1.09 1.02 1.7 2.01 1.23.2-.1.39-.24.57-.38 3.25-2.45 6.5-4.9 9.74-7.37.31-.23.61-.34.99-.34 3.67.01 7.34 0 11.01 0s5.88-2.29 5.89-5.78c.03-8.07.03-16.14 0-24.2-.01-3.49-2.4-5.79-5.89-5.79ZM15.26 24.46c-.83.61-1.77.97-2.99.95-1.03-.04-2.17-.37-3.27-.8-.72-.28-1.06-1.03-.87-1.67.21-.69.95-1.1 1.76-.92.71.16 1.4.38 2.1.55.48.12.96.05 1.38-.21.32-.19.35-.45 0-.66-.43-.26-.9-.43-1.38-.54-.93-.2-1.77-.61-2.58-1.08-1.75-1.03-1.61-3.89.2-4.95 1.33-.78 2.73-.92 4.2-.59.48.11.98.14 1.43.39.58.31.93.99.76 1.51-.21.66-.86 1.09-1.56.99-.64-.08-1.28-.19-1.92-.27-.45-.05-.88.04-1.28.23-.12.05-.26.11-.26.27s.12.23.25.28c.48.19.95.4 1.45.54.76.21 1.48.5 2.18.86 1.89.99 2.13 3.85.42 5.12Zm14.26-.71c0 .56-.09 1.11-.65 1.44-.99.59-2.11-.03-2.15-1.22-.04-1.09 0-2.18-.01-3.27 0-.18.06-.38-.1-.61-.45.61-.87 1.18-1.29 1.76-.81 1.09-1.87 1.09-2.68 0-.42-.56-.83-1.12-1.37-1.65v2.49c0 .52.04 1.03-.06 1.54-.14.73-.62 1.15-1.34 1.16-.71.01-1.23-.41-1.37-1.13-.03-.17-.04-.34-.04-.51v-7.69c0-.47.07-.91.42-1.27.63-.65 1.61-.58 2.19.19.87 1.14 1.71 2.3 2.57 3.44.1.14.21.26.36.44.92-1.24 1.82-2.44 2.72-3.65.14-.18.27-.37.45-.52.79-.68 2.03-.28 2.28.73.05.2.08.41.08.62 0 2.56.01 5.12 0 7.69Zm8.19 1.31c-.58.22-1.17.36-1.79.35-1.23-.09-2.42-.3-3.54-.83-.72-.34-.99-.93-.77-1.64.22-.7.95-1.12 1.68-.93.64.16 1.24.48 1.91.57.5.07.99.07 1.46-.16.17-.08.35-.19.34-.42 0-.2-.18-.3-.34-.36-.61-.22-1.23-.4-1.84-.62-.52-.19-1.03-.39-1.54-.61-1.17-.5-1.72-1.48-1.73-2.68 0-1.17.52-2.09 1.61-2.71 1.67-.94 3.35-.74 5.04-.19.7.23 1.02.89.85 1.55-.2.74-.81 1.15-1.56 1.02-.7-.11-1.38-.34-2.09-.24-.38.06-.95.05-1 .48-.05.4.52.4.83.53.88.36 1.82.57 2.68.99 1.24.61 1.9 1.59 1.87 2.96-.03 1.41-.75 2.41-2.09 2.93ZM23.99 18.88v.01z" fill="evenodd"/></symbol><symbol fill="none" viewBox="0 0 48 48" id="sms-color" xmlns="http://www.w3.org/2000/svg"><path fill="#004494" d="M23.98 2h16.112c3.492 0 5.876 2.297 5.887 5.785q.042 12.1 0 24.203c-.011 3.488-2.395 5.78-5.89 5.78-3.668 0-7.339.005-11.007-.006-.386 0-.686.1-.994.335a2990 2990 0 0 1-9.737 7.366 3.5 3.5 0 0 1-.57.377c-.987.47-2.001-.14-2.008-1.228-.014-2.084-.019-4.168.007-6.251.006-.484-.145-.606-.613-.601-2.446.02-4.894.011-7.34.009C4.348 37.764 2 35.417 2 31.936V7.792C2 4.364 4.368 2.002 7.81 2zm.013 16.883c-.144-.18-.255-.305-.355-.44-.859-1.148-1.7-2.31-2.572-3.445-.588-.767-1.567-.836-2.194-.188-.344.355-.417.798-.417 1.268q0 3.844.002 7.686c0 .17.011.344.044.512.14.718.656 1.14 1.37 1.128.72-.011 1.206-.438 1.341-1.163.097-.512.055-1.028.058-1.544.007-.829 0-1.66 0-2.488.546.528.957 1.09 1.374 1.65.808 1.085 1.87 1.08 2.675-.01.425-.575.847-1.153 1.292-1.76.156.237.099.432.099.614.006 1.09-.023 2.18.013 3.267.04 1.189 1.157 1.806 2.148 1.221.557-.328.647-.883.651-1.441.016-2.561.01-5.124.003-7.685 0-.21-.035-.42-.085-.622-.253-1.008-1.49-1.407-2.28-.73-.173.147-.308.337-.446.521-.901 1.205-1.799 2.412-2.723 3.651zm-11.726 6.526c1.218.018 2.161-.333 2.992-.948 1.714-1.271 1.473-4.135-.418-5.122a11 11 0 0 0-2.177-.858c-.493-.135-.966-.353-1.445-.54-.129-.047-.25-.114-.25-.277 0-.165.137-.22.256-.273.407-.183.838-.282 1.283-.227.642.078 1.282.188 1.925.27a1.436 1.436 0 0 0 1.558-.993c.165-.525-.186-1.202-.762-1.512-.45-.243-.95-.278-1.432-.386-1.47-.328-2.865-.188-4.196.592-1.806 1.058-1.946 3.927-.197 4.952.805.473 1.647.88 2.576 1.079.482.103.952.28 1.381.537.356.213.32.464.003.659-.423.259-.897.328-1.382.209-.702-.175-1.394-.395-2.101-.554-.805-.18-1.549.225-1.755.918-.193.648.149 1.391.867 1.673 1.101.434 2.237.764 3.272.799zm23.652.007c.624.01 1.214-.13 1.79-.353 1.34-.519 2.053-1.517 2.085-2.93.03-1.366-.629-2.348-1.872-2.959-.863-.422-1.797-.633-2.68-.989-.314-.128-.883-.133-.833-.532.055-.43.622-.42 1.005-.475.714-.101 1.4.128 2.095.243.752.122 1.36-.282 1.558-1.023.174-.66-.15-1.325-.85-1.552-1.692-.546-3.37-.746-5.038.19-1.09.613-1.62 1.538-1.612 2.706.004 1.2.553 2.176 1.725 2.678q.762.327 1.542.608c.61.218 1.232.404 1.84.622.153.055.33.159.337.356.007.223-.168.333-.342.415-.466.225-.957.225-1.457.159-.67-.09-1.269-.406-1.913-.567a1.406 1.406 0 0 0-1.684.934c-.225.704.05 1.299.766 1.638 1.122.533 2.317.744 3.542.826z"/></symbol><symbol fill="none" viewBox="0 0 48 48" id="sms-negative" xmlns="http://www.w3.org/2000/svg"><path fill="#fff" d="M23.98 2h16.112c3.492 0 5.876 2.297 5.887 5.785q.042 12.1 0 24.203c-.011 3.488-2.395 5.78-5.89 5.78-3.668 0-7.339.005-11.007-.006-.386 0-.686.1-.994.335a2990 2990 0 0 1-9.737 7.366 3.5 3.5 0 0 1-.57.377c-.987.47-2.001-.14-2.008-1.228-.014-2.084-.019-4.168.007-6.251.006-.484-.145-.606-.613-.601-2.446.02-4.894.011-7.34.009C4.348 37.764 2 35.417 2 31.936V7.792C2 4.364 4.368 2.002 7.81 2zm.013 16.883c-.144-.18-.255-.305-.355-.44-.859-1.148-1.7-2.31-2.572-3.445-.588-.767-1.567-.836-2.194-.188-.344.355-.417.798-.417 1.268q0 3.844.002 7.686c0 .17.011.344.044.512.14.718.656 1.14 1.37 1.128.72-.011 1.206-.438 1.341-1.163.097-.512.055-1.028.058-1.544.007-.829 0-1.66 0-2.488.546.528.957 1.09 1.374 1.65.808 1.085 1.87 1.08 2.675-.01.425-.575.847-1.153 1.292-1.76.156.237.099.432.099.614.006 1.09-.023 2.18.013 3.267.04 1.189 1.157 1.806 2.148 1.221.557-.328.647-.883.651-1.441.016-2.561.01-5.124.003-7.685 0-.21-.035-.42-.085-.622-.253-1.008-1.49-1.407-2.28-.73-.173.147-.308.337-.446.521-.901 1.205-1.799 2.412-2.723 3.651zm-11.726 6.526c1.218.018 2.161-.333 2.992-.948 1.714-1.271 1.473-4.135-.418-5.122a11 11 0 0 0-2.177-.858c-.493-.135-.966-.353-1.445-.54-.129-.047-.25-.114-.25-.277 0-.165.137-.22.256-.273.407-.183.838-.282 1.283-.227.642.078 1.282.188 1.925.27a1.436 1.436 0 0 0 1.558-.993c.165-.525-.186-1.202-.762-1.512-.45-.243-.95-.278-1.432-.386-1.47-.328-2.865-.188-4.196.592-1.806 1.058-1.946 3.927-.197 4.952.805.473 1.647.88 2.576 1.079.482.103.952.28 1.381.537.356.213.32.464.003.659-.423.259-.897.328-1.382.209-.702-.175-1.394-.395-2.101-.554-.805-.18-1.549.225-1.755.918-.193.648.149 1.391.867 1.673 1.101.434 2.237.764 3.272.799zm23.652.007c.624.01 1.214-.13 1.79-.353 1.34-.519 2.053-1.517 2.085-2.93.03-1.366-.629-2.348-1.872-2.959-.863-.422-1.797-.633-2.68-.989-.314-.128-.883-.133-.833-.532.055-.43.622-.42 1.005-.475.714-.101 1.4.128 2.095.243.752.122 1.36-.282 1.558-1.023.174-.66-.15-1.325-.85-1.552-1.692-.546-3.37-.746-5.038.19-1.09.613-1.62 1.538-1.612 2.706.004 1.2.553 2.176 1.725 2.678q.762.327 1.542.608c.61.218 1.232.404 1.84.622.153.055.33.159.337.356.007.223-.168.333-.342.415-.466.225-.957.225-1.457.159-.67-.09-1.269-.406-1.913-.567a1.406 1.406 0 0 0-1.684.934c-.225.704.05 1.299.766 1.638 1.122.533 2.317.744 3.542.826z"/></symbol><symbol viewBox="0 0 48 48" id="spotify" xmlns="http://www.w3.org/2000/svg"><defs><mask width="44" height="44" x="2" y="2" maskUnits="userSpaceOnUse"/></defs><path d="M0 0h48v48H0z" fill="none"/><g mask="url(#a)"><path d="M2 24C2 11.85 11.85 2 24 2s22 9.85 22 22-9.85 22-22 22S2 36.15 2 24m9.63-4.62c6.7-2.08 18.28-1.69 25.3 2.58.96.59 2.22.26 2.79-.73s.26-2.27-.71-2.85c-8.08-4.9-20.86-5.37-28.56-2.98-1.08.33-1.68 1.5-1.36 2.6.33 1.1 1.46 1.72 2.54 1.39Zm22.73 9.46c.8.5 1.84.25 2.34-.57.49-.81.24-1.88-.56-2.39-6.72-4.22-16.55-5.41-24.46-2.96-.9.28-1.4 1.25-1.13 2.17s1.22 1.43 2.12 1.16c6.92-2.15 15.84-1.08 21.7 2.59Zm-.33 5.49c-.39.65-1.23.86-1.87.46-5.11-3.2-11.55-3.92-19.13-2.15-.73.17-1.46-.3-1.62-1.04-.17-.75.29-1.49 1.02-1.66 8.29-1.94 15.41-1.1 21.15 2.48.64.4.84 1.26.45 1.91" fill-rule="evenodd"/></g></symbol><symbol viewBox="0 0 48 48" id="spotify-color" xmlns="http://www.w3.org/2000/svg"><defs><mask width="44" height="44" x="2" y="2" maskUnits="userSpaceOnUse"/></defs><path d="M0 0h48v48H0z" fill="none"/><g mask="url(#a)"><path d="M24 2C11.85 2 2 11.85 2 24s9.85 22 22 22 22-9.85 22-22S36.15 2 24 2" fill="#1ed760" fill-rule="evenodd"/><path d="M36.92 21.96c-7.02-4.26-18.6-4.65-25.3-2.58-1.08.34-2.21-.29-2.54-1.39s.28-2.26 1.36-2.6C18.13 13 30.92 13.46 39 18.37c.97.59 1.29 1.87.71 2.85-.57.99-1.82 1.31-2.79.73Zm-.23 6.31a1.68 1.68 0 0 1-2.34.57c-5.85-3.68-14.77-4.74-21.7-2.59-.9.28-1.85-.24-2.12-1.16s.24-1.89 1.13-2.17c7.91-2.45 17.74-1.27 24.46 2.96.8.5 1.05 1.57.56 2.39Zm-4.53 6.53c.64.4 1.48.19 1.87-.46.39-.66.19-1.51-.45-1.91-5.74-3.59-12.85-4.42-21.15-2.48-.73.17-1.19.92-1.02 1.66.17.75.89 1.21 1.62 1.04 7.58-1.77 14.02-1.05 19.13 2.15" fill-rule="evenodd" fill="#fff"/></g></symbol><symbol viewBox="0 0 48 48" id="spotify-negative" xmlns="http://www.w3.org/2000/svg"><path fill="#FFF" fill-rule="evenodd" d="M24 2c12.15 0 22 9.85 22 22s-9.85 22-22 22S2 36.15 2 24 11.85 2 24 2m9.58 30.424c-5.74-3.585-12.854-4.419-21.148-2.48-.733.17-1.189.915-1.021 1.662.167.746.894 1.215 1.625 1.044 7.58-1.771 14.015-1.05 19.128 2.147.64.4 1.475.192 1.866-.462.39-.656.19-1.51-.45-1.91m2.557-6.54c-6.723-4.222-16.553-5.409-24.46-2.956-.898.278-1.404 1.247-1.133 2.165a1.695 1.695 0 0 0 2.119 1.156c6.923-2.15 15.844-1.082 21.696 2.594a1.676 1.676 0 0 0 2.335-.572 1.76 1.76 0 0 0-.557-2.386m2.865-7.506c-8.079-4.905-20.864-5.365-28.556-2.977-1.078.333-1.683 1.495-1.358 2.596.326 1.1 1.464 1.722 2.54 1.387 6.7-2.079 18.278-1.686 25.296 2.576.965.587 2.216.26 2.79-.728.575-.988.256-2.265-.712-2.854"/></symbol><symbol viewBox="0 0 48 48" id="telegram" xmlns="http://www.w3.org/2000/svg"><path d="M46 24c0 12.15-9.85 22-22 22S2 36.15 2 24 11.85 2 24 2s22 9.85 22 22m-20.028-6.29-14.816 6.03c-2.605 1.005-1.079 1.973-1.079 1.973s2.196.781 4.132 1.34c1.936.558 2.94-.075 2.94-.075l8.972-6.03c3.164-2.16 2.382-.373 1.638.372-1.638 1.675-4.393 4.28-6.663 6.365-1.043.894-.521 1.675-.075 2.048 1.348 1.164 4.636 3.31 5.904 4.138.273.179.453.296.499.329.298.26 2.085 1.414 3.164 1.154s1.191-1.713 1.191-1.713l1.6-9.976c.522-3.35 1.006-6.477 1.08-7.37.186-2.16-2.084-1.266-2.084-1.266s-4.951 2.047-6.403 2.68"/></symbol><symbol fill="none" viewBox="0 0 48 48" id="telegram-color" xmlns="http://www.w3.org/2000/svg"><circle cx="24" cy="24" r="22" fill="#27A6E6"/><path fill="#fff" d="m11.157 23.74 14.815-6.03c1.452-.634 6.403-2.681 6.403-2.681s2.27-.893 2.084 1.266c-.074.893-.558 4.02-1.08 7.37l-1.6 9.976s-.111 1.452-1.191 1.713c-1.08.26-2.866-.894-3.164-1.154-.26-.186-4.765-3.053-6.403-4.467-.447-.373-.968-1.154.075-2.048 2.27-2.084 5.025-4.69 6.663-6.365.744-.745 1.526-2.531-1.638-.372l-8.971 6.03s-1.005.633-2.941.075a84 84 0 0 1-4.132-1.34s-1.526-.968 1.08-1.973"/></symbol><symbol fill="none" viewBox="0 0 48 48" id="telegram-negative" xmlns="http://www.w3.org/2000/svg"><path d="M0 0h48v48H0z"/><path fill="#fff" fill-rule="evenodd" d="M46 24c0 12.15-9.85 22-22 22S2 36.15 2 24 11.85 2 24 2s22 9.85 22 22m-20.028-6.29-14.816 6.03c-2.605 1.005-1.079 1.973-1.079 1.973s2.196.781 4.132 1.34c1.936.558 2.94-.075 2.94-.075l8.972-6.03c3.164-2.16 2.382-.373 1.638.372-1.638 1.675-4.393 4.28-6.663 6.365-1.043.894-.521 1.675-.075 2.048 1.348 1.164 4.636 3.31 5.904 4.138.273.179.453.296.499.329.298.26 2.085 1.414 3.164 1.154s1.191-1.713 1.191-1.713l1.6-9.976c.522-3.35 1.006-6.477 1.08-7.37.186-2.16-2.084-1.266-2.084-1.266s-4.951 2.047-6.403 2.68" clip-rule="evenodd"/></symbol><symbol viewBox="0 0 48 48" id="threads" xmlns="http://www.w3.org/2000/svg"><path fill-rule="evenodd" d="M40.02 3.27c2.52.66 4.47 2.85 4.89 5.37h-.03c.03.21.06.45.09.69v29.46c-.03.21-.06.45-.09.69-.24 1.44-.9 2.67-1.95 3.69-1.32 1.29-2.94 1.92-4.8 1.92H9.63q-1.305 0-2.52-.54C4.59 43.44 3 41.04 3 38.28V9.9c0-.51.03-.99.15-1.47q.675-2.97 3.33-4.5c.96-.54 1.98-.81 3.09-.87h29.19c.42.03.84.09 1.26.21M17.67 34.89c-1.47-1.02-2.52-2.37-3.24-3.99l.03.18c-.81-1.8-1.17-3.66-1.23-5.61-.06-1.62 0-3.21.27-4.8.21-1.23.51-2.43 1.02-3.57 1.11-2.55 2.97-4.29 5.64-5.13 1.11-.36 2.28-.54 3.45-.54 1.41-.03 2.79.06 4.17.39 2.01.51 3.72 1.56 5.01 3.21.9 1.14 1.53 2.46 2.01 3.84q.014.03.023.06c.014.04.027.08.067.12.435-.12.87-.232 1.305-.345q.653-.166 1.305-.345c-.15-.48-.3-.96-.48-1.41-.66-1.68-1.56-3.21-2.79-4.53-1.59-1.65-3.51-2.73-5.7-3.3-1.35-.36-2.73-.51-4.11-.51-2.04-.03-4.02.24-5.94.99a11.34 11.34 0 0 0-4.98 3.72c-1.14 1.5-1.89 3.21-2.37 5.04a22.6 22.6 0 0 0-.63 4.5c-.09 1.95 0 3.9.39 5.82.3 1.53.78 2.97 1.5 4.35.96 1.8 2.25 3.3 3.99 4.41 2.04 1.32 4.32 1.95 6.75 2.1 1.29.06 2.58 0 3.84-.21 1.35-.21 2.61-.6 3.81-1.2 1.5-.75 2.76-1.74 3.72-3.09 1.02-1.41 1.56-2.97 1.68-4.68q.135-1.665-.45-3.24c-.6-1.56-1.68-2.73-3.09-3.63-.48-.3-.99-.57-1.5-.78-.03-.33-.06-.66-.12-.99-.15-.99-.39-1.92-.87-2.79q-1.395-2.52-4.23-3.06c-1.2-.21-2.4-.15-3.57.12-1.65.36-2.91 1.29-3.87 2.67.75.54 1.5 1.05 2.25 1.56q.067-.069.135-.15c.045-.052.09-.105.135-.15.54-.63 1.2-1.08 2.01-1.23.66-.12 1.32-.18 1.98-.12 1.5.12 2.76 1.17 3.12 2.64.06.21.09.42.06.66l-.203-.034c-.153-.027-.312-.056-.457-.056-.78-.09-1.53-.12-2.31-.12-1.47 0-2.91.24-4.23.93-.75.39-1.38.87-1.89 1.56-.6.81-.9 1.74-.93 2.76-.06.99.18 1.92.75 2.73.93 1.35 2.28 2.1 3.9 2.4 1.05.18 2.1.12 3.12-.12 1.56-.36 2.79-1.17 3.69-2.49.6-.9.99-1.86 1.23-2.91l.18-.81c.09.03.18.06.24.12.96.66 1.65 1.5 1.98 2.61.42 1.35.27 2.64-.33 3.9-.63 1.29-1.62 2.22-2.85 2.94-1.38.78-2.85 1.17-4.41 1.35-1.35.15-2.7.12-4.02-.12-1.41-.27-2.76-.78-3.96-1.62m4.77-10.05c.57-.24 1.17-.36 1.77-.42h-.03c1.02-.09 2.07-.09 3.09.06q.495.045.99.18c-.09 1.05-.24 2.07-.78 3-.45.84-1.14 1.35-2.07 1.56-.84.21-1.71.24-2.55 0-.39-.12-.78-.3-1.14-.54-.66-.48-.9-1.14-.81-1.95.12-.93.69-1.53 1.53-1.89" clip-rule="evenodd"/></symbol><symbol fill="none" viewBox="0 0 48 48" id="threads-color" xmlns="http://www.w3.org/2000/svg"><path fill="#26324B" fill-rule="evenodd" d="M40.02 3.27c2.52.66 4.47 2.85 4.89 5.37h-.03c.03.21.06.45.09.69v29.46c-.03.21-.06.45-.09.69-.24 1.44-.9 2.67-1.95 3.69-1.32 1.29-2.94 1.92-4.8 1.92H9.63q-1.305 0-2.52-.54C4.59 43.44 3 41.04 3 38.28V9.9c0-.51.03-.99.15-1.47q.675-2.97 3.33-4.5c.96-.54 1.98-.81 3.09-.87h29.19c.42.03.84.09 1.26.21M17.67 34.89c-1.47-1.02-2.52-2.37-3.24-3.99l.03.18c-.81-1.8-1.17-3.66-1.23-5.61-.06-1.62 0-3.21.27-4.8.21-1.23.51-2.43 1.02-3.57 1.11-2.55 2.97-4.29 5.64-5.13 1.11-.36 2.28-.54 3.45-.54 1.41-.03 2.79.06 4.17.39 2.01.51 3.72 1.56 5.01 3.21.9 1.14 1.53 2.46 2.01 3.84q.014.03.023.06c.014.04.027.08.067.12.435-.12.87-.232 1.305-.345q.653-.166 1.305-.345c-.15-.48-.3-.96-.48-1.41-.66-1.68-1.56-3.21-2.79-4.53-1.59-1.65-3.51-2.73-5.7-3.3-1.35-.36-2.73-.51-4.11-.51-2.04-.03-4.02.24-5.94.99a11.34 11.34 0 0 0-4.98 3.72c-1.14 1.5-1.89 3.21-2.37 5.04a22.6 22.6 0 0 0-.63 4.5c-.09 1.95 0 3.9.39 5.82.3 1.53.78 2.97 1.5 4.35.96 1.8 2.25 3.3 3.99 4.41 2.04 1.32 4.32 1.95 6.75 2.1 1.29.06 2.58 0 3.84-.21 1.35-.21 2.61-.6 3.81-1.2 1.5-.75 2.76-1.74 3.72-3.09 1.02-1.41 1.56-2.97 1.68-4.68q.135-1.665-.45-3.24c-.6-1.56-1.68-2.73-3.09-3.63-.48-.3-.99-.57-1.5-.78-.03-.33-.06-.66-.12-.99-.15-.99-.39-1.92-.87-2.79q-1.395-2.52-4.23-3.06c-1.2-.21-2.4-.15-3.57.12-1.65.36-2.91 1.29-3.87 2.67.75.54 1.5 1.05 2.25 1.56q.067-.069.135-.15c.045-.052.09-.105.135-.15.54-.63 1.2-1.08 2.01-1.23.66-.12 1.32-.18 1.98-.12 1.5.12 2.76 1.17 3.12 2.64.06.21.09.42.06.66l-.203-.034c-.153-.027-.312-.056-.457-.056-.78-.09-1.53-.12-2.31-.12-1.47 0-2.91.24-4.23.93-.75.39-1.38.87-1.89 1.56-.6.81-.9 1.74-.93 2.76-.06.99.18 1.92.75 2.73.93 1.35 2.28 2.1 3.9 2.4 1.05.18 2.1.12 3.12-.12 1.56-.36 2.79-1.17 3.69-2.49.6-.9.99-1.86 1.23-2.91l.18-.81c.09.03.18.06.24.12.96.66 1.65 1.5 1.98 2.61.42 1.35.27 2.64-.33 3.9-.63 1.29-1.62 2.22-2.85 2.94-1.38.78-2.85 1.17-4.41 1.35-1.35.15-2.7.12-4.02-.12-1.41-.27-2.76-.78-3.96-1.62m4.77-10.05c.57-.24 1.17-.36 1.77-.42h-.03c1.02-.09 2.07-.09 3.09.06q.495.045.99.18c-.09 1.05-.24 2.07-.78 3-.45.84-1.14 1.35-2.07 1.56-.84.21-1.71.24-2.55 0-.39-.12-.78-.3-1.14-.54-.66-.48-.9-1.14-.81-1.95.12-.93.69-1.53 1.53-1.89" clip-rule="evenodd"/></symbol><symbol fill="none" viewBox="0 0 48 48" id="threads-negative" xmlns="http://www.w3.org/2000/svg"><path fill="#fff" fill-rule="evenodd" d="M40.02 3.27c2.52.66 4.47 2.85 4.89 5.37h-.03c.03.21.06.45.09.69v29.46c-.03.21-.06.45-.09.69-.24 1.44-.9 2.67-1.95 3.69-1.32 1.29-2.94 1.92-4.8 1.92H9.63q-1.305 0-2.52-.54C4.59 43.44 3 41.04 3 38.28V9.9c0-.51.03-.99.15-1.47q.675-2.97 3.33-4.5c.96-.54 1.98-.81 3.09-.87h29.19c.42.03.84.09 1.26.21M17.67 34.89c-1.47-1.02-2.52-2.37-3.24-3.99l.03.18c-.81-1.8-1.17-3.66-1.23-5.61-.06-1.62 0-3.21.27-4.8.21-1.23.51-2.43 1.02-3.57 1.11-2.55 2.97-4.29 5.64-5.13 1.11-.36 2.28-.54 3.45-.54 1.41-.03 2.79.06 4.17.39 2.01.51 3.72 1.56 5.01 3.21.9 1.14 1.53 2.46 2.01 3.84q.014.03.023.06c.014.04.027.08.067.12q.653-.178 1.305-.345.653-.166 1.305-.345c-.15-.48-.3-.96-.48-1.41-.66-1.68-1.56-3.21-2.79-4.53-1.59-1.65-3.51-2.73-5.7-3.3-1.35-.36-2.73-.51-4.11-.51-2.04-.03-4.02.24-5.94.99a11.34 11.34 0 0 0-4.98 3.72c-1.14 1.5-1.89 3.21-2.37 5.04a22.6 22.6 0 0 0-.63 4.5c-.09 1.95 0 3.9.39 5.82.3 1.53.78 2.97 1.5 4.35.96 1.8 2.25 3.3 3.99 4.41 2.04 1.32 4.32 1.95 6.75 2.1 1.29.06 2.58 0 3.84-.21 1.35-.21 2.61-.6 3.81-1.2 1.5-.75 2.76-1.74 3.72-3.09 1.02-1.41 1.56-2.97 1.68-4.68q.135-1.665-.45-3.24c-.6-1.56-1.68-2.73-3.09-3.63-.48-.3-.99-.57-1.5-.78-.03-.33-.06-.66-.12-.99-.15-.99-.39-1.92-.87-2.79q-1.395-2.52-4.23-3.06c-1.2-.21-2.4-.15-3.57.12-1.65.36-2.91 1.29-3.87 2.67.75.54 1.5 1.05 2.25 1.56q.067-.069.135-.15c.045-.052.09-.105.135-.15.54-.63 1.2-1.08 2.01-1.23.66-.12 1.32-.18 1.98-.12 1.5.12 2.76 1.17 3.12 2.64.06.21.09.42.06.66l-.203-.034c-.153-.027-.312-.056-.457-.056-.78-.09-1.53-.12-2.31-.12-1.47 0-2.91.24-4.23.93-.75.39-1.38.87-1.89 1.56-.6.81-.9 1.74-.93 2.76-.06.99.18 1.92.75 2.73.93 1.35 2.28 2.1 3.9 2.4 1.05.18 2.1.12 3.12-.12 1.56-.36 2.79-1.17 3.69-2.49.6-.9.99-1.86 1.23-2.91l.18-.81c.09.03.18.06.24.12.96.66 1.65 1.5 1.98 2.61.42 1.35.27 2.64-.33 3.9-.63 1.29-1.62 2.22-2.85 2.94-1.38.78-2.85 1.17-4.41 1.35-1.35.15-2.7.12-4.02-.12-1.41-.27-2.76-.78-3.96-1.62m4.77-10.05c.57-.24 1.17-.36 1.77-.42h-.03c1.02-.09 2.07-.09 3.09.06q.495.045.99.18c-.09 1.05-.24 2.07-.78 3-.45.84-1.14 1.35-2.07 1.56-.84.21-1.71.24-2.55 0-.39-.12-.78-.3-1.14-.54-.66-.48-.9-1.14-.81-1.95.12-.93.69-1.53 1.53-1.89" clip-rule="evenodd"/></symbol><symbol viewBox="0 0 48 48" id="twitter" xmlns="http://www.w3.org/2000/svg"><path fill-rule="evenodd" d="M26.586 20.9 41.338 3.75H37.84L25.03 18.64 14.8 3.75H3l15.472 22.515L3.001 44.25h3.497l13.526-15.726L30.83 44.25h11.799zm-4.788 5.564-1.569-2.243L7.756 6.382h5.37L23.19 20.78l1.569 2.242 13.084 18.715h-5.37z" clip-rule="evenodd"/></symbol><symbol viewBox="0 0 48 48" id="twitter-color" xmlns="http://www.w3.org/2000/svg"><path fill="#26324B" fill-rule="evenodd" d="M26.586 20.9 41.338 3.75H37.84L25.03 18.64 14.8 3.75H3l15.472 22.515L3.001 44.25h3.497l13.526-15.726L30.83 44.25h11.799zm-4.788 5.564-1.569-2.243L7.756 6.382h5.37L23.19 20.78l1.569 2.242 13.084 18.715h-5.37z" clip-rule="evenodd"/></symbol><symbol viewBox="0 0 48 48" id="twitter-negative" xmlns="http://www.w3.org/2000/svg"><path fill="#fff" fill-rule="evenodd" d="M26.586 20.9 41.338 3.75H37.84L25.03 18.64 14.8 3.75H3l15.472 22.515L3.001 44.25h3.497l13.526-15.726L30.83 44.25h11.799zm-4.788 5.564-1.569-2.243L7.756 6.382h5.37L23.19 20.78l1.569 2.242 13.084 18.715h-5.37z" clip-rule="evenodd"/></symbol><symbol viewBox="0 0 48 48" id="typepad" xmlns="http://www.w3.org/2000/svg"><path d="M43.36 18.04c-2.4-2.66-5.45-4.28-8.79-5.41-2.47-.84-5.02-1.3-7.63-1.51-3.33-.27-6.63-.1-9.9.54-2.18.43-4.31 1.08-6.32 2.05-2.68 1.28-5.13 2.87-6.88 5.35-1.9 2.7-2.41 5.6-1.14 8.72.35.86 1 1.34 1.85 1.3.58-.03 1.17-.09 1.73-.22 3.25-.71 6.39-1.78 9.5-2.93 2.31-.85 4.61-1.73 6.91-2.59l.04.1c-.15.08-.31.17-.47.25-2.48 1.26-4.93 2.57-7.32 4-2.04 1.22-4.11 2.41-5.85 4.06-1.1 1.05-1.04 1.7.21 2.55.04.03.08.05.11.07 1.92 1.28 4.09 1.95 6.28 2.49 3.37.84 6.79 1.06 10.27.89 3.05-.15 6.01-.67 8.88-1.68 3.08-1.08 5.92-2.59 8.21-4.98 1.56-1.64 2.64-3.55 2.87-5.81.29-2.8-.74-5.2-2.6-7.26Z" fill="evenodd"/></symbol><symbol fill="none" viewBox="0 0 48 48" id="typepad-color" xmlns="http://www.w3.org/2000/svg"><path fill="#AAB652" d="M22.7 23.35c-2.303.865-4.602 1.746-6.913 2.593-3.115 1.141-6.252 2.221-9.502 2.926-.567.123-1.153.186-1.733.216-.856.044-1.501-.437-1.852-1.296-1.27-3.123-.764-6.02 1.137-8.724 1.747-2.483 4.204-4.07 6.88-5.354 2.012-.966 4.138-1.624 6.32-2.05a36.2 36.2 0 0 1 9.903-.538c2.608.21 5.156.677 7.63 1.514 3.335 1.128 6.39 2.742 8.786 5.405 1.855 2.061 2.882 4.46 2.597 7.26-.23 2.264-1.304 4.177-2.866 5.813-2.288 2.397-5.124 3.898-8.206 4.982-2.874 1.011-5.83 1.526-8.883 1.677-3.478.173-6.902-.054-10.272-.89-2.196-.547-4.368-1.213-6.284-2.495-.038-.024-.078-.044-.115-.07-1.254-.85-1.314-1.508-.214-2.554 1.74-1.654 3.81-2.836 5.847-4.06 2.385-1.433 4.839-2.744 7.318-4.005.157-.08.31-.169.466-.254z"/></symbol><symbol fill="none" viewBox="0 0 48 48" id="typepad-negative" xmlns="http://www.w3.org/2000/svg"><path fill="#fff" d="M22.7 23.35c-2.303.865-4.602 1.746-6.913 2.593-3.115 1.141-6.252 2.221-9.502 2.926-.567.123-1.153.186-1.733.216-.856.044-1.501-.437-1.852-1.296-1.27-3.123-.764-6.02 1.137-8.724 1.747-2.483 4.204-4.07 6.88-5.354 2.012-.966 4.138-1.624 6.32-2.05a36.2 36.2 0 0 1 9.903-.538c2.608.21 5.156.677 7.63 1.514 3.335 1.128 6.39 2.742 8.786 5.405 1.855 2.061 2.882 4.46 2.597 7.26-.23 2.264-1.304 4.177-2.866 5.813-2.288 2.397-5.124 3.898-8.206 4.982-2.874 1.011-5.83 1.526-8.883 1.677-3.478.173-6.902-.054-10.272-.89-2.196-.547-4.368-1.213-6.284-2.495-.038-.024-.078-.044-.115-.07-1.254-.85-1.314-1.508-.214-2.554 1.74-1.654 3.81-2.836 5.847-4.06 2.385-1.433 4.839-2.744 7.318-4.005.157-.08.31-.169.466-.254z"/></symbol><symbol viewBox="0 0 48 48" id="weibo" xmlns="http://www.w3.org/2000/svg"><defs/><path d="M35.05 23.11c-.62-.19-1.04-.31-.72-1.12.7-1.76.78-3.28.01-4.37-1.43-2.03-5.34-1.93-9.82-.05 0 0-1.41.61-1.04-.5.69-2.21.58-4.06-.49-5.13-2.43-2.43-8.89.09-14.44 5.62C4.41 21.69 2 26.08 2 29.88c0 7.25 9.33 11.67 18.46 11.67 11.97 0 19.92-6.93 19.92-12.44 0-3.33-2.81-5.22-5.33-6M20.49 38.94c-7.29.72-13.57-2.57-14.05-7.33-.47-4.77 5.05-9.22 12.33-9.94 7.29-.72 13.57 2.57 14.04 7.33.48 4.77-5.05 9.22-12.32 9.94M43.02 9.82H43c-2.89-3.19-7.15-4.4-11.08-3.57a1.67 1.67 0 0 0-1.29 1.99c.19.91 1.09 1.48 2 1.29 2.8-.59 5.83.27 7.88 2.54a8.24 8.24 0 0 1 1.73 8.08c-.29.88.2 1.83 1.09 2.11s1.83-.2 2.12-1.08c1.24-3.81.46-8.17-2.43-11.36" fill="evenodd"/><path d="M37.92 20.3c.77.24 1.58-.17 1.83-.93.6-1.86.22-3.98-1.18-5.53h-.01a5.65 5.65 0 0 0-5.4-1.75c-.78.16-1.28.94-1.12 1.72.17.78.94 1.28 1.72 1.11.94-.2 1.95.09 2.64.85s.87 1.8.58 2.71c-.24.76.17 1.57.94 1.82M21.2 25.35c-3.47-.9-7.38.82-8.89 3.87-1.54 3.11-.05 6.56 3.45 7.68 3.63 1.17 7.9-.62 9.39-3.97 1.47-3.28-.36-6.65-3.95-7.58m-2.64 7.93c-.7 1.12-2.22 1.61-3.35 1.1-1.12-.51-1.45-1.81-.75-2.91.7-1.09 2.16-1.57 3.28-1.1 1.14.49 1.51 1.78.81 2.91zm2.33-2.97c-.26.44-.82.64-1.26.46s-.57-.67-.32-1.09c.26-.42.8-.63 1.23-.46.44.16.59.65.35 1.09" fill="evenodd"/></symbol><symbol fill="none" viewBox="0 0 48 48" id="weibo-color" xmlns="http://www.w3.org/2000/svg"><path fill="#fff" d="M5.236 30.444c0 5.11 6.672 9.252 14.898 9.252s14.898-4.142 14.898-9.252-6.672-9.252-14.898-9.252-14.898 4.142-14.898 9.252"/><path fill="#E6162D" d="M20.486 38.944c-7.286.72-13.575-2.568-14.048-7.332-.473-4.771 5.052-9.216 12.33-9.936 7.285-.72 13.574 2.567 14.041 7.332.48 4.77-5.045 9.222-12.323 9.936M35.05 23.11c-.62-.188-1.045-.309-.723-1.12.704-1.763.778-3.283.013-4.372-1.427-2.034-5.336-1.925-9.817-.055 0 0-1.409.612-1.044-.497.686-2.21.582-4.056-.486-5.128-2.428-2.427-8.894.092-14.437 5.62C4.41 21.693 2 26.083 2 29.88c0 7.253 9.33 11.667 18.456 11.667 11.965 0 19.924-6.933 19.924-12.437.007-3.329-2.805-5.219-5.33-6"/><path fill="#F93" d="M42.998 9.834c-2.89-3.197-7.152-4.414-11.085-3.578a1.68 1.68 0 1 0 .703 3.282 8.29 8.29 0 0 1 7.88 2.543 8.24 8.24 0 0 1 1.731 8.076c-.285.884.2 1.828 1.088 2.113.886.285 1.833-.2 2.118-1.078v-.006A11.56 11.56 0 0 0 43 9.834"/><path fill="#F93" d="M38.56 13.83a5.66 5.66 0 0 0-5.398-1.737 1.45 1.45 0 0 0-1.117 1.72c.17.78.94 1.277 1.718 1.108.936-.2 1.955.09 2.642.848a2.76 2.76 0 0 1 .577 2.706 1.45 1.45 0 0 0 2.762.889 5.64 5.64 0 0 0-1.183-5.534"/><path fill="#000" d="M20.887 30.31c-.256.436-.82.642-1.258.46-.437-.176-.57-.666-.322-1.09.256-.424.796-.63 1.226-.46.437.158.595.648.352 1.09m-2.325 2.968c-.704 1.12-2.217 1.61-3.351 1.095-1.117-.508-1.452-1.81-.746-2.906.698-1.09 2.155-1.574 3.284-1.102 1.14.491 1.505 1.78.814 2.913m2.647-7.932c-3.466-.902-7.382.823-8.888 3.87-1.537 3.105-.049 6.556 3.449 7.682 3.63 1.17 7.904-.623 9.391-3.971 1.47-3.282-.364-6.654-3.952-7.58"/></symbol><symbol fill="none" viewBox="0 0 48 48" id="weibo-negative" xmlns="http://www.w3.org/2000/svg"><path fill="#fff" d="M20.49 38.94c-7.29.72-13.57-2.57-14.05-7.33-.47-4.77 5.05-9.22 12.33-9.94 7.29-.72 13.57 2.57 14.04 7.33.48 4.77-5.05 9.22-12.32 9.94m14.56-15.83c-.62-.19-1.04-.31-.72-1.12.7-1.76.78-3.28.01-4.37-1.43-2.03-5.34-1.93-9.82-.05 0 0-1.41.61-1.04-.5.69-2.21.58-4.06-.49-5.13-2.43-2.43-8.89.09-14.44 5.62C4.41 21.69 2 26.08 2 29.88c0 7.25 9.33 11.67 18.46 11.67 11.97 0 19.92-6.93 19.92-12.44 0-3.33-2.81-5.22-5.33-6M43 9.83c-2.89-3.2-7.15-4.41-11.08-3.58a1.67 1.67 0 0 0-1.29 1.99c.19.91 1.09 1.48 2 1.29 2.8-.59 5.83.27 7.88 2.54a8.24 8.24 0 0 1 1.73 8.08c-.29.88.2 1.83 1.09 2.11s1.83-.2 2.12-1.08c1.24-3.81.46-8.17-2.43-11.36"/><path fill="#fff" d="M38.56 13.83a5.67 5.67 0 0 0-5.4-1.74c-.78.16-1.28.94-1.12 1.72.17.78.94 1.28 1.72 1.11.94-.2 1.95.09 2.64.85s.87 1.8.58 2.71c-.24.76.17 1.57.94 1.82.77.24 1.58-.17 1.83-.93.6-1.86.22-3.98-1.18-5.53M20.89 30.31c-.26.44-.82.64-1.26.46s-.57-.67-.32-1.09c.26-.42.8-.63 1.23-.46.44.16.59.65.35 1.09m-2.33 2.97c-.7 1.12-2.22 1.61-3.35 1.1-1.12-.51-1.45-1.81-.75-2.91.7-1.09 2.16-1.57 3.28-1.1 1.14.49 1.51 1.78.81 2.91m2.65-7.93c-3.47-.9-7.38.82-8.89 3.87-1.54 3.11-.05 6.56 3.45 7.68 3.63 1.17 7.9-.62 9.39-3.97 1.47-3.28-.36-6.65-3.95-7.58"/></symbol><symbol viewBox="0 0 48 48" id="whatasapp" xmlns="http://www.w3.org/2000/svg"><defs/><path d="M39.31 8.4c-4.1-4.12-9.56-6.39-15.38-6.4C11.94 2 2.19 11.78 2.18 23.8c0 3.84 1 7.59 2.9 10.9L2 46l11.53-3.03c3.18 1.74 6.75 2.65 10.39 2.65 11.98 0 21.74-9.78 21.74-21.8 0-5.83-2.26-11.3-6.36-15.42ZM23.93 41.94c-3.24 0-6.42-.87-9.2-2.53l-.66-.39-6.84 1.8 1.83-6.69-.43-.69a18.13 18.13 0 0 1-2.76-9.64c0-9.99 8.11-18.12 18.08-18.12 4.83 0 9.36 1.89 12.78 5.32 3.41 3.43 5.29 7.98 5.29 12.82 0 9.99-8.11 18.12-18.07 18.12Z" fill="evenodd"/><path d="M33.84 28.37c-.55-.28-3.21-1.59-3.71-1.77s-.86-.27-1.22.27c-.36.55-1.4 1.77-1.72 2.14-.32.36-.63.41-1.18.14-.54-.27-2.29-.85-4.37-2.7-1.61-1.45-2.71-3.23-3.02-3.77-.32-.55-.03-.84.24-1.11.24-.24.54-.64.82-.95.27-.32.36-.55.54-.91s.09-.68-.04-.95c-.14-.27-1.22-2.95-1.68-4.04-.44-1.06-.89-.92-1.22-.94-.32-.02-.68-.02-1.04-.02s-.95.14-1.45.68c-.5.55-1.9 1.86-1.9 4.54s1.95 5.27 2.22 5.64c.27.36 3.83 5.87 9.28 8.23 1.3.56 2.31.9 3.1 1.15 1.3.41 2.49.36 3.42.22 1.04-.16 3.21-1.32 3.67-2.59.45-1.27.45-2.36.32-2.59-.14-.23-.5-.36-1.04-.64Z" fill="evenodd"/></symbol><symbol fill="none" viewBox="0 0 48 48" id="whataspp-negative" xmlns="http://www.w3.org/2000/svg"><path fill="#fff" fill-rule="evenodd" d="M39.307 8.394A21.57 21.57 0 0 0 23.927 2C11.94 2 2.187 11.78 2.182 23.802c-.002 3.842 1 7.593 2.903 10.9L2 46l11.526-3.031a21.66 21.66 0 0 0 10.391 2.653h.01c11.983 0 21.739-9.78 21.742-21.802.003-5.826-2.257-11.303-6.362-15.424zM23.927 41.94h-.008c-3.242 0-6.422-.875-9.198-2.527l-.66-.393-6.84 1.8 1.826-6.688-.43-.686A18.1 18.1 0 0 1 5.854 23.8c.003-9.991 8.111-18.12 18.08-18.12a17.93 17.93 0 0 1 12.777 5.315 18.04 18.04 0 0 1 5.288 12.82c-.005 9.993-8.112 18.121-18.072 18.121zm9.913-13.571c-.544-.273-3.215-1.59-3.713-1.772-.499-.183-.86-.273-1.222.272-.361.546-1.403 1.774-1.72 2.136-.317.364-.634.409-1.177.136s-2.293-.848-4.369-2.704c-1.614-1.445-2.705-3.228-3.023-3.774-.317-.546-.034-.84.238-1.112.244-.244.543-.636.815-.954s.361-.547.543-.91.091-.68-.044-.954c-.136-.272-1.222-2.954-1.676-4.044-.441-1.062-.889-.919-1.221-.936-.317-.016-.68-.018-1.042-.018-.363 0-.951.136-1.45.681-.498.546-1.902 1.864-1.902 4.544 0 2.681 1.947 5.272 2.219 5.637s3.832 5.866 9.28 8.226c1.296.562 2.31.897 3.099 1.148 1.301.415 2.485.357 3.422.217 1.043-.157 3.214-1.319 3.667-2.59.452-1.273.452-2.364.316-2.592-.135-.227-.498-.363-1.041-.636v-.002" clip-rule="evenodd"/></symbol><symbol fill="none" viewBox="0 0 48 48" id="whatsapp-color" xmlns="http://www.w3.org/2000/svg"><path fill="#25D366" fill-rule="evenodd" d="M39.307 8.394A21.57 21.57 0 0 0 23.927 2C11.94 2 2.187 11.78 2.182 23.802c-.002 3.842 1 7.593 2.903 10.9L2 46l11.526-3.031a21.66 21.66 0 0 0 10.391 2.653h.01c11.983 0 21.739-9.78 21.742-21.802.003-5.826-2.257-11.303-6.362-15.424zM23.927 41.94h-.008c-3.242 0-6.422-.875-9.198-2.527l-.66-.393-6.84 1.8 1.826-6.688-.43-.686A18.1 18.1 0 0 1 5.854 23.8c.003-9.991 8.111-18.12 18.08-18.12a17.93 17.93 0 0 1 12.777 5.315 18.04 18.04 0 0 1 5.288 12.82c-.005 9.993-8.112 18.121-18.072 18.121zm9.913-13.571c-.544-.273-3.215-1.59-3.713-1.772-.499-.183-.86-.273-1.222.272-.361.546-1.403 1.774-1.72 2.136-.317.364-.634.409-1.177.136s-2.293-.848-4.369-2.704c-1.614-1.445-2.705-3.228-3.023-3.774-.317-.546-.034-.84.238-1.112.244-.244.543-.636.815-.954s.361-.547.543-.91.091-.68-.044-.954c-.136-.272-1.222-2.954-1.676-4.044-.441-1.062-.889-.919-1.221-.936-.317-.016-.68-.018-1.042-.018-.363 0-.951.136-1.45.681-.498.546-1.902 1.864-1.902 4.544 0 2.681 1.947 5.272 2.219 5.637s3.832 5.866 9.28 8.226c1.296.562 2.31.897 3.099 1.148 1.301.415 2.485.357 3.422.217 1.043-.157 3.214-1.319 3.667-2.59.452-1.273.452-2.364.316-2.592-.135-.227-.498-.363-1.041-.636v-.002" clip-rule="evenodd"/></symbol><symbol viewBox="0 0 48 48" id="yahoomail" xmlns="http://www.w3.org/2000/svg"><defs/><path d="M32.12 36.46c-.52 0-.88.35-.88.86s.37.89.87.89c.53 0 .88-.35.88-.91s-.29-.84-.87-.84M17.16 36.45h-.01c-.57.01-.85.29-.85.86 0 .5.44.98.92.97.41 0 .92-.56.91-1.01 0-.49-.39-.81-.97-.82M13.71 15.29c3.03 1.5 6.07 2.97 9.07 4.52.84.44 1.47.47 2.34.02 1.5-.77 3-1.55 4.53-2.27 1.62-.76 3.19-1.6 4.8-2.38.19-.09.3-.23.29-.46-.02-.47-.03-.95 0-1.42.03-.39-.1-.48-.48-.48-3.42.01-6.84 0-10.26 0H13.65c-.3 0-.4.09-.39.39.02.46.04.92 0 1.37-.03.38.12.55.45.71" fill="evenodd"/><path d="M45.8 2c-.4.02-.79 0-1.19 0H2.4c-.33 0-.4.07-.4.4.01 13.98 0 27.96 0 41.94 0 .41.03.83 0 1.24-.03.35.08.42.42.42 14.38-.01 28.77-.01 43.15 0 .34 0 .42-.08.42-.42-.01-14.39 0-28.77 0-43.16 0-.08-.01-.16 0-.23.03-.16-.03-.2-.19-.19m-32.75 8.92c3.14.02 6.28 0 9.41 0 .18 0 .36-.02.55-.03 3.51 0 7.02.01 10.53.02h1.65c.9.03 1.46.57 1.46 1.47 0 4.5.02 9 0 13.5 0 .89-.23 1.48-1.51 1.48-7.35-.01-14.71 0-22.06 0-.17 0-.34 0-.5.01-.66-.08-1-.51-1.2-1.09-.03-.04-.03-.08-.04-.11V16.3h.02c0-1.4 0-2.83-.02-4.24v-.04c.26-.84.87-1.1 1.7-1.1Zm-.33 29.86c-.12.3-.27.5-.66.45s-.79-.01-1.22-.01c.17-.42.28-.82.49-1.17.19-.32.18-.58.04-.91-.44-.97-.85-1.95-1.28-2.92 0-.1-.02-.18-.1-.24V36v-.01c0-.03-.01-.06-.02-.09-.07-.16-.13-.34-.21-.49-.14-.26-.05-.36.22-.34.3 0 .61.04.91 0 .39-.05.53.16.64.46.21.58.43 1.15.63 1.73.04.12.08.26.21.25.06 0 .12-.15.16-.24.25-.63.51-1.25.72-1.9.08-.24.19-.31.41-.3.44.01.88 0 1.35 0-.35 1.2-.92 2.25-1.37 3.35-.32.78-.62 1.56-.93 2.34l.02.02Zm6.9-1.3h-.03c-.41-.01-.82 0-1.23.01h-.04c-.38-.38-.69 0-1.04.08-.88.19-1.66-.17-2.16-.97-.75-1.18-.32-2.9.91-3.45.56-.26 1.14-.23 1.7.03.16.08.27.2.38-.06.03-.09 1.35-.1 1.44-.03.13.1.08.25.08.38 0 1.31 0 2.62.02 3.93.03.04.01.06-.03.08m4.81-.23c0 .22-.08.3-.29.3-.34 0-.67-.01-1.01 0-.25.01-.31-.11-.31-.33v-2.06c-.01-.53-.17-.71-.56-.7-.38 0-.54.21-.54.73 0 .64-.03 1.28 0 1.92.02.38-.12.49-.47.44-.37-.05-.76.07-1.13-.07-.09-.15-.07-.33-.07-.49V33.6c0-.18-.05-.37.12-.51h.41c.75 0 1.12.38 1.12 1.14v1.14c.39-.23.74-.37 1.16-.39.91-.04 1.37.72 1.48 1.31.18.98.05 1.97.08 2.96zm2.59.32c-1.28.14-2.3-1.08-2.29-1.99.02-1.6.8-2.54 2.07-2.6 1.72-.09 2.68 1.04 2.62 2.47-.04.89-1.03 2.28-2.4 2.12m5.05.01c-1.3-.01-2.44-1.09-2.36-2.31.1-1.5 1.04-2.31 2.47-2.35s2.26 1.13 2.29 2.49c.02 1.03-1.22 2.37-2.4 2.17m3.73.08c-.54 0-1.08-.42-1.07-1.07 0-.6.4-1.02 1-1.03.72.06 1.11.34 1.1 1 0 .54-.51 1.1-1.03 1.1m1.49-2.75h-.01c-.04.1-.08.24-.23.25h-1.73c.52-1.29 1.02-2.51 1.51-3.74.1-.26.23-.36.53-.34.47.03.94 0 1.47 0-.53 1.31-1.03 2.57-1.54 3.83" fill="evenodd"/><path d="M27.1 36.46c-.52 0-.91.38-.9.89.01.47.4.86.86.86.56 0 .88-.34.89-.95 0-.54-.27-.8-.85-.8M20.06 33.6v5.39c0 .16-.03.34.07.49v-2.97c0-.57 0-1.14.01-1.71h.01c0-.57.01-1.14.02-1.71-.17.14-.12.34-.12.51ZM19.59 39.47s.05-.04.03-.08c-.02.02-.03.05-.03.08" fill="evenodd"/></symbol><symbol fill="none" viewBox="0 0 48 48" id="yahoomail-color" xmlns="http://www.w3.org/2000/svg"><path fill="#6619DF" d="M32.116 36.457c-.516 0-.879.354-.882.861a.86.86 0 0 0 .874.89c.534.003.883-.356.88-.908-.003-.568-.286-.842-.872-.842M17.153 36.461c-.571-.002-.853.28-.855.852-.001.502.444.975.916.971.414-.003.92-.56.912-1.006-.009-.494-.392-.815-.973-.817M13.714 15.298c3.03 1.487 6.071 2.956 9.066 4.513.844.439 1.468.47 2.34.018 1.495-.774 2.998-1.55 4.527-2.265 1.616-.756 3.192-1.604 4.8-2.383.193-.094.295-.226.286-.462-.018-.472-.03-.948.003-1.42.028-.384-.102-.478-.48-.476-3.419.015-6.838.01-10.256.01h-6.455c-1.297 0-2.594.007-3.891-.007-.3-.004-.4.087-.385.388.024.457.037.919-.004 1.373-.033.381.124.55.45.71z"/><path fill="#6619DF" d="M45.993 2.193c.029-.16-.026-.196-.187-.19-.396.016-.793.005-1.19.005C30.545 2.01 16.473 2.01 2.402 2c-.33 0-.398.068-.398.398.01 13.98.009 27.963.009 41.944 0 .412.026.826-.008 1.236-.03.347.077.422.42.422q21.577-.015 43.153 0c.344 0 .42-.077.42-.421-.01-14.386-.007-28.772-.007-43.157 0-.076-.011-.156.002-.23M11.26 25.758q.007-6.626.016-13.253c0-.167-.014-.337.065-.493.26-.84.866-1.1 1.696-1.096 3.138.018 6.276.01 9.415.008.181 0 .364-.016.546-.025l10.527.02c.549 0 1.099-.013 1.648.004.902.026 1.459.569 1.46 1.468.01 4.502.02 9.004-.009 13.504-.005.891-.225 1.485-1.51 1.482-7.354-.015-14.708-.007-22.063-.006-.167 0-.335.007-.503.01-.659-.08-1.003-.506-1.197-1.094-.124-.16-.09-.349-.09-.53m1.463 15.021c-.118.3-.268.502-.659.451-.389-.05-.788-.01-1.223-.01.172-.423.284-.823.488-1.17.187-.32.184-.585.038-.908-.436-.968-.852-1.945-1.276-2.919v.012l-.105-.244.01.006-.02-.087c-.069-.164-.126-.336-.21-.492-.14-.261-.053-.359.22-.345.305.005.615.045.914.004.391-.054.533.162.643.464.21.579.431 1.153.633 1.733.042.122.076.258.21.25.059-.004.122-.152.158-.244.247-.63.51-1.255.72-1.898.079-.244.186-.306.413-.3.438.011.876.004 1.35.004-.351 1.196-.925 2.249-1.374 3.35-.317.778-.62 1.56-.928 2.341zm6.866-1.309-1.234.018c-.015 0-.038.006-.045-.001-.381-.383-.693.002-1.043.077-.876.187-1.656-.173-2.164-.971-.75-1.18-.32-2.897.906-3.453.561-.256 1.143-.235 1.7.035.161.078.272.2.377-.064.035-.087 1.35-.096 1.436-.03.134.102.08.252.082.382.008 1.31.01 2.621.015 3.931q.038.059-.03.076m4.843-.22c.007.216-.078.302-.295.295-.335-.01-.67-.013-1.006.002-.252.011-.308-.109-.305-.332.007-.686.01-1.373-.003-2.058-.01-.528-.167-.709-.563-.702-.379.008-.537.211-.544.725-.007.641-.026 1.283.005 1.922.018.378-.12.487-.468.444-.373-.046-.758.074-1.126-.067-.094-.154-.067-.326-.067-.49q-.006-2.697-.004-5.393c0-.176-.052-.37.118-.511h.411q1.121 0 1.121 1.146v1.136c.388-.228.741-.37 1.162-.388.913-.039 1.372.721 1.481 1.31.183.977.05 1.974.083 2.961m4.99-1.798c-.037.887-1.033 2.281-2.4 2.12-1.283.135-2.304-1.085-2.29-1.986.023-1.6.802-2.538 2.067-2.604 1.716-.09 2.679 1.04 2.622 2.47m2.646 2.12c-1.301-.005-2.44-1.082-2.36-2.3.099-1.504 1.042-2.312 2.467-2.356 1.427-.044 2.262 1.134 2.288 2.49.019 1.03-1.221 2.37-2.395 2.166m3.73.087c-.543-.003-1.075-.424-1.069-1.069.007-.605.405-1.023.998-1.026.724.06 1.112.336 1.1.998-.008.539-.508 1.1-1.029 1.097m1.483-2.746c-.042.104-.076.244-.227.246-.572.005-1.145.002-1.734.002.52-1.288 1.023-2.51 1.507-3.74.102-.26.234-.363.526-.343.47.03.942.008 1.472.008-.529 1.312-1.034 2.571-1.544 3.827"/><path fill="#6619DF" d="M27.099 36.458c-.525-.002-.913.38-.9.888.01.47.403.862.862.86.564-.003.883-.344.885-.949.002-.54-.268-.795-.848-.798"/><path fill="#fff" d="M11.35 26.288c.195.59.539 1.014 1.198 1.094.168-.003.336-.01.503-.01 7.355 0 14.71-.009 22.063.006 1.285.003 1.504-.59 1.51-1.482.029-4.501.018-9.003.01-13.504-.002-.9-.558-1.442-1.46-1.468-.55-.017-1.1-.003-1.65-.004l-10.526-.02c-.182.009-.364.025-.546.025-3.139 0-6.277.01-9.415-.008-.83-.004-1.437.257-1.696 1.096.006 1.433.02 2.867.02 4.3q-.002 4.987-.01 9.975m1.915-11.7c.04-.455.027-.916.004-1.373-.016-.301.084-.392.385-.388 1.297.014 2.594.006 3.891.006H24c3.418 0 6.837.006 10.256-.01.378 0 .508.093.48.478a13 13 0 0 0-.003 1.418c.01.236-.092.37-.287.463-1.607.779-3.184 1.626-4.8 2.383-1.53.717-3.03 1.49-4.526 2.265-.872.452-1.496.42-2.34-.018-2.995-1.557-6.035-3.027-9.066-4.514-.325-.16-.482-.33-.449-.71M24.349 36.29c-.11-.588-.569-1.348-1.482-1.309-.422.019-.774.16-1.161.388v-1.136q0-1.146-1.121-1.145l-.412-.001-.016 1.712q-.009.856-.015 1.712-.009 1.485-.015 2.97c.369.142.753.022 1.126.068.348.043.487-.066.468-.444-.03-.64-.012-1.281-.004-1.922.005-.514.165-.718.543-.725.396-.007.554.174.563.702.013.685.01 1.372.003 2.058-.003.222.053.343.305.332a14 14 0 0 1 1.007-.002c.216.007.301-.08.294-.295-.033-.988.1-1.984-.083-2.962M19.603 35.465c0-.13.052-.28-.082-.382-.085-.065-1.401-.057-1.436.03-.105.264-.215.142-.377.064-.556-.27-1.137-.29-1.7-.035-1.226.556-1.657 2.272-.906 3.453.508.797 1.288 1.158 2.164.97.35-.074.662-.459 1.044-.076.007.007.029 0 .044 0l1.234-.017a.08.08 0 0 1 .03-.076c-.005-1.31-.007-2.621-.015-3.931m-2.389 2.82c-.472.003-.917-.47-.916-.972.002-.573.284-.854.855-.852.58.002.964.323.972.817.009.445-.497 1.003-.912 1.006zM13.676 35.085c-.228-.005-.335.057-.415.3-.21.642-.472 1.268-.718 1.897-.036.093-.1.24-.159.244-.134.008-.167-.126-.21-.25-.202-.58-.422-1.154-.632-1.732-.11-.302-.252-.518-.644-.464-.298.04-.607 0-.913-.004-.274-.014-.36.083-.22.344.083.157.14.328.21.493l.019.087c.078.055.1.135.097.225.423.974.84 1.951 1.276 2.919.145.323.148.588-.039.907-.203.348-.317.748-.487 1.17.433 0 .834-.04 1.222.011.392.051.542-.151.66-.45.308-.782.61-1.565.927-2.342.45-1.103 1.023-2.155 1.374-3.35-.474 0-.91.008-1.35-.004zM32.175 34.917c-1.425.044-2.368.852-2.467 2.355-.08 1.22 1.058 2.296 2.36 2.3 1.174.204 2.413-1.137 2.394-2.165-.026-1.357-.86-2.534-2.288-2.49m-.066 3.29a.857.857 0 0 1-.874-.89c.002-.507.365-.86.882-.86.586 0 .87.273.872.84.003.553-.345.912-.88.908zM26.798 34.984c-1.265.066-2.043 1.004-2.067 2.603-.014.902 1.007 2.122 2.29 1.986 1.367.162 2.364-1.232 2.4-2.12.056-1.43-.906-2.559-2.623-2.469m.263 3.221c-.46.002-.852-.39-.863-.86-.012-.507.377-.89.9-.888.58.003.85.258.848.799-.001.605-.32.947-.885.948zM37.352 33.08c-.291-.02-.423.083-.526.343-.485 1.23-.986 2.452-1.507 3.74.59 0 1.161.003 1.734-.002.15 0 .185-.142.228-.246.51-1.256 1.015-2.515 1.543-3.827-.53 0-1.002.023-1.472-.009M35.726 37.566c-.594.003-.99.421-.997 1.026-.007.645.525 1.066 1.069 1.069.52.003 1.02-.558 1.03-1.097.01-.662-.378-.939-1.102-.998"/><path fill="#6619DF" d="m20.156 34.798.016-1.712c-.17.14-.116.335-.117.511q-.002 2.696.003 5.392c0 .165-.026.337.067.49q.006-1.485.015-2.97l.015-1.712zM19.588 39.472q.067-.018.03-.076a.08.08 0 0 0-.03.076M11.36 16.313c0-1.434-.012-2.868-.02-4.3-.078.156-.064.326-.064.493q-.01 6.627-.016 13.253c0 .18-.032.368.092.529.004-3.325.01-6.65.01-9.975zM9.994 35.999l.002.006-.01-.013.105.244-.002-.017.002.005c.004-.09-.018-.171-.097-.225"/><path fill="#6619DF" d="M10.091 36.236v-.011l-.001-.006zM9.994 35.999l-.009-.007.011.014z"/></symbol><symbol fill="none" viewBox="0 0 48 48" id="yahoomail-negative" xmlns="http://www.w3.org/2000/svg"><path fill="#fff" d="M32.12 36.46c-.52 0-.88.35-.88.86s.37.89.87.89c.53 0 .88-.35.88-.91 0-.57-.29-.84-.87-.84M17.15 36.46c-.57 0-.85.28-.85.85 0 .5.44.98.92.97.41 0 .92-.56.91-1.01 0-.49-.39-.81-.97-.82zM13.71 15.3c3.03 1.49 6.07 2.96 9.07 4.51.84.44 1.47.47 2.34.02 1.5-.77 3-1.55 4.53-2.27 1.62-.76 3.19-1.6 4.8-2.38.19-.09.3-.23.29-.46-.02-.47-.03-.95 0-1.42.03-.39-.1-.48-.48-.48-3.42.01-6.84 0-10.26 0H13.65c-.3 0-.4.09-.39.39.02.46.04.92 0 1.37-.03.38.12.55.45.71z"/><path fill="#fff" d="M45.99 2.19c.03-.16-.03-.2-.19-.19-.4.02-.79 0-1.19 0H2.4c-.33 0-.4.07-.4.4.01 13.98 0 27.96 0 41.94 0 .41.03.83 0 1.24-.03.35.08.42.42.42 14.38-.01 28.77-.01 43.15 0 .34 0 .42-.08.42-.42-.01-14.39 0-28.77 0-43.16 0-.08-.01-.16 0-.23M11.26 25.76c0-4.42.01-8.84.02-13.25 0-.17-.01-.34.07-.49.26-.84.87-1.1 1.7-1.1 3.14.02 6.28 0 9.41 0 .18 0 .36-.02.55-.03 3.51 0 7.02.01 10.53.02.55 0 1.1-.01 1.65 0 .9.03 1.46.57 1.46 1.47 0 4.5.02 9 0 13.5 0 .89-.23 1.48-1.51 1.48-7.35-.01-14.71 0-22.06 0-.17 0-.34 0-.5.01-.66-.08-1-.51-1.2-1.09-.12-.16-.09-.35-.09-.53zm1.46 15.02c-.12.3-.27.5-.66.45s-.79-.01-1.22-.01c.17-.42.28-.82.49-1.17.19-.32.18-.58.04-.91-.44-.97-.85-1.95-1.28-2.92-.04-.07-.07-.15-.11-.23 0-.03-.01-.06-.02-.09-.07-.16-.13-.34-.21-.49-.14-.26-.05-.36.22-.34.3 0 .61.04.91 0 .39-.05.53.16.64.46.21.58.43 1.15.63 1.73.04.12.08.26.21.25.06 0 .12-.15.16-.24.25-.63.51-1.25.72-1.9.08-.24.19-.31.41-.3.44.01.88 0 1.35 0-.35 1.2-.92 2.25-1.37 3.35-.32.78-.62 1.56-.93 2.34zm6.87-1.31c-.41 0-.82.01-1.23.02h-.04c-.38-.38-.69 0-1.04.08-.88.19-1.66-.17-2.16-.97-.75-1.18-.32-2.9.91-3.45.56-.26 1.14-.23 1.7.03.16.08.27.2.38-.06.03-.09 1.35-.1 1.44-.03.13.1.08.25.08.38 0 1.31.01 2.62.02 3.93.03.04.01.06-.03.08zm4.84-.22c0 .22-.08.3-.29.3-.34 0-.67-.01-1.01 0-.25.01-.31-.11-.31-.33 0-.69.01-1.37 0-2.06-.01-.53-.17-.71-.56-.7-.38 0-.54.21-.54.73 0 .64-.03 1.28 0 1.92.02.38-.12.49-.47.44-.37-.05-.76.07-1.13-.07-.09-.15-.07-.33-.07-.49V33.6c0-.18-.05-.37.12-.51h.41c.75 0 1.12.38 1.12 1.14v1.14c.39-.23.74-.37 1.16-.39.91-.04 1.37.72 1.48 1.31.18.98.05 1.97.08 2.96zm4.99-1.8c-.04.89-1.03 2.28-2.4 2.12-1.28.14-2.3-1.08-2.29-1.99.02-1.6.8-2.54 2.07-2.6 1.72-.09 2.68 1.04 2.62 2.47m2.65 2.12c-1.3 0-2.44-1.08-2.36-2.3.1-1.5 1.04-2.31 2.47-2.35s2.26 1.13 2.29 2.49c.02 1.03-1.22 2.37-2.4 2.17zm3.73.09c-.54 0-1.08-.42-1.07-1.07 0-.6.4-1.02 1-1.03.72.06 1.11.34 1.1 1 0 .54-.51 1.1-1.03 1.1m1.48-2.75c-.04.1-.08.24-.23.25h-1.73c.52-1.29 1.02-2.51 1.51-3.74.1-.26.23-.36.53-.34.47.03.94 0 1.47 0-.53 1.31-1.03 2.57-1.54 3.83z"/><path fill="#fff" d="M27.1 36.46c-.52 0-.91.38-.9.89.01.47.4.86.86.86.56 0 .88-.34.89-.95 0-.54-.27-.8-.85-.8M20.16 34.8c0-.57.01-1.14.02-1.71-.17.14-.12.34-.12.51v5.39c0 .16-.03.34.07.49 0-.99 0-1.98.01-2.97 0-.57 0-1.14.01-1.71zM19.59 39.47s.05-.04.03-.08c-.02.02-.03.05-.03.08M11.36 16.31c0-1.43-.01-2.87-.02-4.3-.08.16-.07.33-.07.49 0 4.42-.01 8.84-.02 13.25 0 .18-.03.37.09.53V16.3zM9.99 36h-.01c.03.07.07.15.11.23v-.02c0-.09-.02-.17-.1-.23z"/></symbol><symbol viewBox="0 0 48 48" id="yammer" xmlns="http://www.w3.org/2000/svg"><path fill-rule="evenodd" d="M5.38 6.5c-.29 0-.58.04-.87.15-1.18.43-1.78 1.68-1.39 2.83l9.56 22.68c-1.34 3.69-2.58 5.42-5.44 5.42-.28 0-1.24-.06-1.3-.06-.92-.05-1.78.54-2.03 1.44-.28 1.02.33 2.08 1.38 2.37.76.13 1.53.18 2.23.18 5.26 0 7-2.95 8.74-7.25L26.53 9.34c.37-1.13-.28-2.34-1.43-2.7-1.13-.35-2.33.23-2.74 1.3l-7.21 18.55h-.11L7.44 7.8c-.38-.79-1.19-1.28-2.06-1.3m33.16 5.25c-.23 0-.46.02-.69.09-.08.04-.16.08-.25.13-1.43.8-11.11 7.64-10.02 8.41s7.7-2.24 12.23-4.74c.86-.69 1.07-1.94.47-2.88-.4-.63-1.06-.98-1.75-1Zm4.47 10.51c-1.64 0-13.46 1.32-12.86 2.55.59 1.22 7.86 1.81 13.05 1.81 1.09-.19 1.87-1.19 1.8-2.34a2.21 2.21 0 0 0-1.7-2.02h-.28Zm-14.77 6.99c-.29-.01-.52.02-.65.12-1.09.77 8.59 7.61 10.02 8.41.09.05.17.09.25.13.9.26 1.9-.08 2.43-.92.6-.95.38-2.19-.47-2.88-3.96-2.19-9.52-4.76-11.57-4.86Z"/></symbol><symbol viewBox="0 0 48 48" id="yammer-color" xmlns="http://www.w3.org/2000/svg"><path fill="#407ec0" fill-rule="evenodd" d="M45.16 15.94c-.17-.65-.83-1.03-1.48-.86l-18.94 5.11v7.68l18.91 5.26c.65.18 1.31-.2 1.48-.85.38-1.46.95-4.27.95-8.17s-.54-6.71-.91-8.17Z"/><path fill="#2a66b1" fill-rule="evenodd" d="M24.73 27.88v5.29c0 1.01-.82 1.83-1.83 1.83h-1.73l9.68 9.61c.57.56 1.49.52 2.01-.09 1.89-2.24 5.91-7.51 6.76-12.5z"/><path fill="#34a5dd" fill-rule="evenodd" d="m24.73 20.19 14.92-4.02C38 9.72 34.27 5.16 32.59 3.37c-.45-.48-1.2-.49-1.67-.02L21 13.27h1.89c1.01 0 1.83.82 1.83 1.83v5.1Z"/><path fill="#03529a" fill-rule="evenodd" d="M22.9 34.99H4.83A1.83 1.83 0 0 1 3 33.16V15.09c0-1.01.82-1.83 1.83-1.83H22.9c1.01 0 1.83.82 1.83 1.83v18.07c0 1.01-.82 1.83-1.83 1.83"/><path fill="#fff" fill-rule="evenodd" d="M18.02 18.28c-.52-.28-1.16-.09-1.44.43l-2.66 4.97-2.77-4.97a1.06 1.06 0 0 0-1.44-.43c-.52.28-.71.93-.43 1.44l3.34 6.07v3.13c0 .65.53 1.18 1.18 1.18s1.18-.53 1.18-1.18v-2.9l3.46-6.3c.28-.52.09-1.16-.43-1.44Z"/></symbol><symbol viewBox="0 0 48 48" id="yammer-negative" xmlns="http://www.w3.org/2000/svg"><path fill="none" d="M0 0h48v48H0z"/><path fill="#fff" d="M5.38 6.5c-.29 0-.58.04-.87.15-1.18.43-1.78 1.68-1.39 2.83l9.56 22.68c-1.34 3.69-2.58 5.42-5.44 5.42-.28 0-1.24-.06-1.3-.06-.92-.05-1.78.54-2.03 1.44-.28 1.02.33 2.08 1.38 2.37.76.13 1.53.18 2.23.18 5.26 0 7-2.95 8.74-7.25L26.53 9.34c.37-1.13-.28-2.34-1.43-2.7-1.13-.35-2.33.23-2.74 1.3l-7.21 18.55h-.11L7.44 7.8c-.38-.79-1.19-1.28-2.06-1.3m33.16 5.25c-.23 0-.46.02-.69.09-.08.04-.16.08-.25.13-1.43.8-11.11 7.64-10.02 8.41s7.7-2.24 12.23-4.74c.86-.69 1.07-1.94.47-2.88-.4-.63-1.06-.98-1.75-1Zm4.47 10.51c-1.64 0-13.46 1.32-12.86 2.55.59 1.22 7.86 1.81 13.05 1.81 1.09-.19 1.87-1.19 1.8-2.34a2.21 2.21 0 0 0-1.7-2.02h-.28Zm-14.77 6.99c-.29-.01-.52.02-.65.12-1.09.77 8.59 7.61 10.02 8.41.09.05.17.09.25.13.9.26 1.9-.08 2.43-.92.6-.95.38-2.19-.47-2.88-3.96-2.19-9.52-4.76-11.57-4.86Z"/></symbol><symbol viewBox="0 0 48 48" id="youtube" xmlns="http://www.w3.org/2000/svg"><path d="M45.08 13.841a5.53 5.53 0 0 0-3.89-3.914C37.76 9 24 9 24 9s-13.76 0-17.19.927a5.53 5.53 0 0 0-3.891 3.914C2 17.295 2 24.5 2 24.5s0 7.206.918 10.659a5.53 5.53 0 0 0 3.892 3.916C10.24 40 24 40 24 40s13.76 0 17.19-.925a5.53 5.53 0 0 0 3.89-3.916C46 31.706 46 24.5 46 24.5s0-7.205-.92-10.659"/><path fill="#FFF" d="M19.5 31.043 31 24.5l-11.5-6.542z"/></symbol><symbol viewBox="0 0 48 48" id="youtube-color" xmlns="http://www.w3.org/2000/svg"><g fill="none" fill-rule="evenodd"><path fill="red" d="M45.08 13.841a5.53 5.53 0 0 0-3.89-3.914C37.76 9 24 9 24 9s-13.76 0-17.19.927a5.53 5.53 0 0 0-3.891 3.914C2 17.295 2 24.5 2 24.5s0 7.206.918 10.659a5.53 5.53 0 0 0 3.892 3.916C10.24 40 24 40 24 40s13.76 0 17.19-.925a5.53 5.53 0 0 0 3.89-3.916C46 31.706 46 24.5 46 24.5s0-7.205-.92-10.659"/><path fill="#FFF" d="M19.5 31.043 31 24.5l-11.5-6.542z"/></g></symbol><symbol viewBox="0 0 48 48" id="youtube-negative" xmlns="http://www.w3.org/2000/svg"><path fill="#FFF" fill-rule="evenodd" d="M24.226 9h.097l.384.002c1.401.008 4.689.038 8.022.161l.714.028c3.212.133 6.344.357 7.747.736a5.53 5.53 0 0 1 3.89 3.914c.343 1.287.558 3.094.693 4.856l.04.554c.162 2.389.184 4.58.187 5.121v.256c-.006.98-.072 7.349-.92 10.53a5.53 5.53 0 0 1-3.89 3.917c-1.403.378-4.535.602-7.747.734l-.714.028c-3.571.132-7.09.157-8.293.162h-.872c-1.203-.005-4.722-.03-8.293-.162l-.714-.028c-3.212-.132-6.344-.356-7.747-.734a5.53 5.53 0 0 1-3.891-3.916c-.793-2.979-.902-8.752-.917-10.28l-.001-.182v-.395l.001-.18c.015-1.53.124-7.3.917-10.28a5.53 5.53 0 0 1 3.89-3.915c1.404-.38 4.536-.603 7.748-.736l.714-.028c3.333-.123 6.62-.153 8.022-.16L23.677 9h.097ZM19.5 17.958v13.085L31 24.5z"/></symbol></svg>