<svg xmlns="http://www.w3.org/2000/svg" width="40" height="41" fill="none" viewBox="0 0 40 40"><g clip-path="url(#a)"><path fill="red" d="M39 1.089H1v38h38z"/></g><path fill="#000" d="M17.291 11.794c-.264-.004-.702.085-.692.287-.735-.126-.812.178-.769.448.07-.107.155-.165.22-.177.099-.016.201.016.306.08.105.065.22.168.272.233-.26.062-.46.022-.664-.014a.9.9 0 0 1-.324-.132c-.083-.059-.11-.114-.24-.248-.155-.158-.32-.114-.269.132.12.229.317.33.567.372.12.02.3.063.502.063.203 0 .431-.03.555-.004-.075.047-.159.128-.326.16-.17.032-.428-.101-.585-.138.02.133.187.256.516.32.54.119.989.208 1.286.37.296.16.483.362.617.52.266.314.28.556.297.609.055.502-.12.785-.446.872-.163.043-.452-.039-.558-.163-.106-.125-.21-.338-.18-.674.028-.13.179-.473.05-.544a15.5 15.5 0 0 0-1.823-.852c-.142-.053-.258.14-.304.214-.88-.107-1.673-.703-2.03-1.337-.244-.432-.644.001-.577.41.109.454.456.784.872 1.017.427.235.961.467 1.501.455.291.055.288.431-.06.502-.684.004-1.229-.013-1.743-.51-.39-.355-.61.07-.497.31.191.741 1.249.949 2.319.709.414-.069.166.375.05.38-.448.32-1.248.634-1.953-.004-.323-.247-.541-.039-.421.318.313.93 1.51.734 2.33.276.212-.118.404.157.147.365-1.022.714-1.533.722-1.994.448-.577-.228-.627.412-.285.622.381.234 1.35.059 2.062-.388.304-.227.318.128.125.268-.844.73-1.176.921-2.056.802-.436-.034-.43.504-.087.715.469.287 1.384-.19 2.094-.78.299-.159.348.103.2.413-.434.547-.841.87-1.233 1.02-.393.149-.77.125-1.037.034-.326-.112-.366.226-.186.534.108.185.558.245 1.043.073s1.006-.576 1.364-1.049c.311-.272.272.094.13.352-.716 1.132-1.37 1.552-2.234 1.48-.382-.064-.47.233-.225.508.428.355.963.344 1.431-.007.417-.401 1.213-1.266 1.63-1.729.295-.234.389-.003.303.474-.079.273-.276.56-.811.77-.366.209-.091.497.183.502.15.003.457-.174.692-.438.309-.347.327-.58.497-1.121.16-.264.448-.14.448.136-.138.541-.256.638-.534.86-.267.25.185.333.337.23.44-.296.601-.68.748-1.03.107-.251.415-.13.272.282-.341.984-.902 1.37-1.883 1.57-.1.017-.16.076-.126.191.132.137.264.261.395.397-.606.177-1.099.276-1.706.453-.298-.195-.539-.36-.837-.556-.078-.184-.115-.464-.554-.267-.298-.137-.436-.087-.6.051.238.01.342.073.435.182.122.322.404.353.692.261.188.158.288.28.475.438l-.943-.03c-.333-.357-.6-.337-.838-.057-.182.028-.259.032-.383.253.195-.08.319-.104.404-.017.354.206.585.16.761 0l.993.061c-.126.107-.299.164-.424.272-.514-.147-.782.05-.873.47a.96.96 0 0 0-.07.524c.049-.166.129-.308.276-.397.457.116.63-.07.655-.345.22-.18.553-.22.773-.402.258.083.382.134.641.216.093.28.301.39.64.319.403.012.332.178.365.31.107-.19.104-.375-.145-.543-.09-.245-.29-.357-.552-.215-.248-.07-.312-.171-.559-.241.623-.198 1.065-.243 1.687-.441.155.147.279.252.436.383.082.05.161.062.21 0 .39-.564.564-1.061.926-1.433.139-.154.313-.362.507-.412.097-.026.216-.01.292.073s.136.235.11.463c-.036.326-.115.43-.207.626s-.203.316-.318.466c-.23.3-.535.475-.715.592-.36.235-.512.132-.79.117-.36.04-.456.216-.161.458.275.144.523.161.724.124.173-.032.375-.255.52-.375.161-.187.43.035.247.253-.333.396-.666.657-1.077.651-.432.058-.351.301-.065.42.516.212.982-.187 1.218-.449.183-.2.312-.207.28.102-.181.56-.429.776-.833.804-.328-.03-.331.223-.091.394.546.378.941-.266 1.126-.655.132-.35.334-.184.354.105.003.387-.171.702-.639 1.098.358.57.775 1.15 1.133 1.722l1.086-12.095-1.085-1.911c-.114-.105-.496-.555-.596-.618-.036-.039-.059-.066-.005-.086.052-.02.173-.042.254-.056-.23-.231-.427-.305-.863-.431.106-.045.21-.02.522-.034a1.7 1.7 0 0 0-.76-.577c.237-.168.283-.18.518-.377a5 5 0 0 1-1.103-.212c-.22-.103-.527-.19-.677-.193m.039.474c.215 0 .348.073.348.162 0 .091-.133.165-.348.165s-.35-.08-.35-.171c0-.09.136-.156.35-.156"/><path fill="#000" d="M22.71 11.794c.263-.004.701.085.692.287.735-.126.811.178.768.448-.07-.107-.155-.165-.22-.177a.45.45 0 0 0-.306.08c-.104.065-.22.168-.271.233.26.062.46.022.663-.014a.9.9 0 0 0 .324-.132c.084-.059.11-.114.241-.248.155-.158.32-.114.268.132-.119.229-.317.33-.567.372-.12.02-.299.063-.502.063s-.43-.03-.554-.004c.074.047.158.128.325.16.17.032.428-.101.585-.138-.02.133-.186.256-.515.32-.54.119-.99.208-1.286.37a2.1 2.1 0 0 0-.618.52c-.265.314-.28.556-.296.609-.055.502.12.785.446.872.163.043.452-.039.558-.163.106-.125.21-.338.18-.674-.029-.13-.18-.473-.051-.544a15.5 15.5 0 0 1 1.823-.852c.142-.053.259.14.304.214.88-.107 1.674-.703 2.03-1.337.244-.432.645.001.577.41-.108.454-.455.784-.872 1.017-.427.235-.96.467-1.5.455-.292.055-.289.431.06.502.683.004 1.228-.013 1.742-.51.39-.355.61.07.498.31-.192.741-1.25.949-2.32.709-.414-.069-.166.375-.049.38.447.32 1.248.634 1.953-.004.322-.247.54-.039.42.318-.312.93-1.509.734-2.33.276-.212-.118-.404.157-.146.365 1.021.714 1.532.722 1.993.448.577-.228.628.412.285.622-.38.234-1.35.059-2.061-.388-.305-.227-.319.128-.126.268.844.73 1.177.921 2.057.802.436-.034.43.504.086.715-.468.287-1.383-.19-2.093-.78-.3-.159-.348.103-.2.413.433.547.84.87 1.233 1.02.392.149.77.125 1.036.034.326-.112.367.226.187.534-.109.185-.558.245-1.043.073-.486-.172-1.007-.576-1.364-1.049-.312-.272-.273.094-.13.352.715 1.132 1.37 1.552 2.233 1.48.383-.064.47.233.226.508-.428.355-.964.344-1.432-.007-.416-.401-1.212-1.266-1.63-1.729-.294-.234-.389-.003-.302.474.078.273.275.56.81.77.367.209.092.497-.183.502-.15.003-.457-.174-.692-.438-.308-.347-.326-.58-.497-1.121-.16-.264-.448-.14-.448.136.138.541.256.638.535.86.266.25-.186.333-.338.23-.44-.296-.6-.68-.748-1.03-.106-.251-.414-.13-.271.282.341.984.902 1.37 1.883 1.57.1.017.16.076.125.191-.131.137-.263.261-.395.397.607.177 1.1.276 1.707.453.297-.195.538-.36.836-.556.079-.184.115-.464.555-.267.298-.137.435-.087.6.051-.238.01-.342.073-.436.182-.122.322-.404.353-.692.261-.187.158-.287.28-.475.438l.943-.03c.334-.357.6-.337.838-.057.182.028.26.032.384.253-.196-.08-.32-.104-.404-.017-.354.206-.586.16-.762 0l-.992.061c.126.107.298.164.424.272.514-.147.782.05.872.47.069.169.101.343.071.524-.05-.166-.13-.308-.276-.397-.458.116-.63-.07-.655-.345-.22-.18-.553-.22-.774-.402-.257.083-.382.134-.64.216-.093.28-.302.39-.64.319-.404.012-.333.178-.365.31-.107-.19-.104-.375.144-.543.09-.245.29-.357.553-.215.247-.07.312-.171.558-.241-.622-.198-1.064-.243-1.686-.441-.156.147-.28.252-.436.383-.083.05-.162.062-.21 0-.39-.564-.564-1.061-.927-1.433-.138-.154-.313-.362-.507-.412-.097-.026-.216-.01-.292.073s-.135.235-.11.463c.036.326.115.43.207.626s.204.316.319.466c.23.3.534.475.714.592.36.235.512.132.79.117.36.04.456.216.162.458a1.1 1.1 0 0 1-.725.124c-.172-.032-.375-.255-.519-.375-.162-.187-.43.035-.247.253.333.396.666.657 1.077.651.432.058.35.301.064.42-.515.212-.981-.187-1.218-.449-.182-.2-.312-.207-.28.102.182.56.43.776.833.804.328-.03.332.223.092.394-.546.378-.942-.266-1.126-.655-.132-.35-.334-.184-.355.105-.003.387.172.702.64 1.098-.358.57-.775 1.15-1.134 1.722l-1.086-12.095L20 14.378c.113-.105.495-.555.596-.618.036-.039.058-.066.005-.086-.052-.02-.173-.042-.255-.056.23-.231.428-.305.864-.431-.107-.045-.21-.02-.523-.034.124-.177.402-.447.76-.577-.236-.168-.283-.18-.517-.377a5 5 0 0 0 1.102-.212c.221-.103.528-.19.677-.193m-.04.474c-.214 0-.347.073-.347.162 0 .091.133.165.348.165.213 0 .349-.08.349-.171 0-.09-.136-.156-.35-.156"/><defs><clipPath><path fill="#fff" d="M1 1.089h38v38H1z"/></clipPath></defs></svg>