<svg xmlns="http://www.w3.org/2000/svg" width="40" height="40" fill="none" viewBox="0 0 40 40"><g clip-path="url(#a)"><path fill="red" d="M39 7.5H1v25h38z"/><path fill="#000" d="M17.291 12.36c-.264-.003-.702.078-.692.265-.735-.116-.812.163-.769.412.07-.099.155-.152.22-.162.099-.015.201.014.306.073.105.06.22.155.272.214-.26.057-.46.02-.664-.012a1 1 0 0 1-.324-.122c-.083-.054-.11-.104-.24-.228-.155-.146-.32-.105-.269.122.12.21.317.304.567.342.12.018.3.058.502.058.203 0 .431-.027.555-.003-.075.043-.159.117-.326.146-.17.03-.428-.093-.585-.126.02.122.187.236.516.295.54.108.989.19 1.286.34.296.148.483.333.617.479.266.29.28.512.297.56.055.464-.12.724-.446.804-.163.04-.452-.035-.558-.15s-.21-.312-.18-.62c.028-.121.179-.437.05-.502-.589-.3-1.305-.604-1.823-.784-.142-.05-.258.128-.304.197-.88-.1-1.673-.648-2.03-1.232-.244-.397-.644.001-.577.377.109.42.456.723.872.937.427.217.961.43 1.501.42.291.05.288.397-.06.462-.684.004-1.229-.012-1.743-.47-.39-.327-.61.064-.497.285.191.683 1.249.874 2.319.653.414-.063.166.346.05.35-.448.296-1.248.585-1.953-.003-.323-.227-.541-.036-.421.292.313.857 1.51.677 2.33.255.212-.108.404.144.147.336-1.022.658-1.533.665-1.994.413-.577-.21-.627.38-.285.573.381.215 1.35.054 2.062-.358.304-.209.318.118.125.247-.844.672-1.176.849-2.056.74-.436-.032-.43.463-.087.657.469.265 1.384-.175 2.094-.717.299-.147.348.094.2.38-.434.504-.841.8-1.233.939-.393.137-.77.115-1.037.03-.326-.102-.366.21-.186.493.108.17.558.226 1.043.067.485-.158 1.006-.53 1.364-.965.311-.251.272.086.13.323-.716 1.043-1.37 1.43-2.234 1.364-.382-.06-.47.214-.225.467.428.327.963.317 1.431-.006.417-.37 1.213-1.166 1.63-1.592.295-.216.389-.003.303.436-.079.251-.276.516-.811.71-.366.191-.091.457.183.462.15.002.457-.16.692-.404.309-.32.327-.534.497-1.032.16-.243.448-.13.448.125-.138.498-.256.588-.534.792-.267.23.185.307.337.212.44-.273.601-.627.748-.948.107-.232.415-.12.272.26-.341.905-.902 1.261-1.883 1.445-.1.016-.16.07-.126.176.132.126.264.24.395.366-.606.162-1.099.254-1.706.417-.298-.18-.539-.332-.837-.512-.078-.17-.115-.428-.554-.246-.298-.127-.436-.08-.6.047.238.008.342.067.435.167.122.297.404.325.692.24.188.146.288.258.475.404l-.943-.027c-.333-.33-.6-.311-.838-.053-.182.026-.259.03-.383.233.195-.074.319-.096.404-.015.354.189.585.146.761 0 .342.019.65.035.993.056-.126.098-.299.15-.424.25-.514-.136-.782.047-.873.433a.8.8 0 0 0-.07.482.6.6 0 0 1 .276-.365c.457.107.63-.065.655-.317.22-.166.553-.203.773-.37.258.075.382.122.641.198.093.258.301.36.64.293.403.012.332.165.365.286.107-.175.104-.345-.145-.5-.09-.226-.29-.329-.552-.198-.248-.065-.312-.158-.559-.222.623-.183 1.065-.224 1.687-.406.155.135.279.232.436.353.082.045.161.057.21 0 .39-.52.564-.978.926-1.32.139-.142.313-.333.507-.38.097-.023.216-.01.292.067.076.076.136.217.11.427-.036.3-.115.396-.207.576s-.203.292-.318.43c-.23.276-.535.437-.715.545-.36.216-.512.122-.79.108-.36.037-.456.199-.161.422.275.132.523.148.724.114.173-.03.375-.235.52-.345.161-.173.43.032.247.232-.333.365-.666.606-1.077.6-.432.054-.351.277-.065.386.516.197.982-.17 1.218-.412.183-.184.312-.191.28.094-.181.515-.429.715-.833.74-.328-.028-.331.205-.091.363.546.348.941-.245 1.126-.603.132-.324.334-.17.354.097.003.355-.171.646-.639 1.01.358.526.775 1.06 1.133 1.586l1.086-11.14-1.085-1.76c-.114-.096-.496-.511-.596-.569-.036-.036-.059-.06-.005-.08.052-.017.173-.037.254-.051-.23-.212-.427-.28-.863-.397.106-.042.21-.017.522-.031a1.7 1.7 0 0 0-.76-.531c.237-.155.283-.166.518-.347a5.3 5.3 0 0 1-1.103-.195c-.22-.096-.527-.176-.677-.179m.039.437c.215 0 .348.067.348.15s-.133.151-.348.151-.35-.074-.35-.158c0-.082.136-.143.35-.143"/><path fill="#000" d="M22.71 12.36c.263-.003.701.078.692.265.735-.116.811.163.768.412-.07-.099-.155-.152-.22-.162a.48.48 0 0 0-.306.073c-.104.06-.22.155-.271.214.26.057.46.02.663-.012.1-.016.24-.068.324-.122s.11-.104.241-.228c.155-.146.32-.105.268.122-.119.21-.317.304-.567.342-.12.018-.299.058-.502.058s-.43-.027-.554-.003c.074.043.158.117.325.146.17.03.428-.093.585-.126-.02.122-.186.236-.515.295-.54.108-.99.19-1.286.34a2.1 2.1 0 0 0-.618.479c-.265.29-.28.512-.296.56-.055.464.12.724.446.804.163.04.452-.035.558-.15s.21-.312.18-.62c-.029-.121-.18-.437-.051-.502.59-.3 1.305-.604 1.823-.784.142-.05.259.128.304.197.88-.1 1.674-.648 2.03-1.232.244-.397.645.001.577.377-.108.42-.455.723-.872.937-.427.217-.96.43-1.5.42-.292.05-.289.397.06.462.683.004 1.228-.012 1.742-.47.39-.327.61.064.498.285-.192.683-1.25.874-2.32.653-.414-.063-.166.346-.049.35.447.296 1.248.585 1.953-.003.322-.227.54-.036.42.292-.312.857-1.509.677-2.33.255-.212-.108-.404.144-.146.336 1.021.658 1.532.665 1.993.413.577-.21.628.38.285.573-.38.215-1.35.054-2.061-.358-.305-.209-.319.118-.126.247.844.672 1.177.849 2.057.74.436-.032.43.463.086.657-.468.265-1.383-.175-2.093-.717-.3-.147-.348.094-.2.38.433.504.84.8 1.233.939.392.137.77.115 1.036.03.326-.102.367.21.187.493-.109.17-.558.226-1.043.067-.486-.158-1.007-.53-1.364-.965-.312-.251-.273.086-.13.323.715 1.043 1.37 1.43 2.233 1.364.383-.06.47.214.226.467-.428.327-.964.317-1.432-.006-.416-.37-1.212-1.166-1.63-1.592-.294-.216-.389-.003-.302.436.078.251.275.516.81.71.367.191.092.457-.183.462-.15.002-.457-.16-.692-.404-.308-.32-.326-.534-.497-1.032-.16-.243-.448-.13-.448.125.138.498.256.588.535.792.266.23-.186.307-.338.212-.44-.273-.6-.627-.748-.948-.106-.232-.414-.12-.271.26.341.905.902 1.261 1.883 1.445.1.016.16.07.125.176-.131.126-.263.24-.395.366.607.162 1.1.254 1.707.417.297-.18.538-.332.836-.512.079-.17.115-.428.555-.246.298-.127.435-.08.6.047-.238.008-.342.067-.436.167-.122.297-.404.325-.692.24-.187.146-.287.258-.475.404l.943-.027c.334-.33.6-.311.838-.053.182.026.26.03.384.233-.196-.074-.32-.096-.404-.015-.354.189-.586.146-.762 0-.342.019-.65.035-.992.056.126.098.298.15.424.25.514-.136.782.047.872.433a.8.8 0 0 1 .071.482.6.6 0 0 0-.276-.365c-.458.107-.63-.065-.655-.317-.22-.166-.553-.203-.774-.37-.257.075-.382.122-.64.198-.093.258-.302.36-.64.293-.404.012-.333.165-.365.286-.107-.175-.104-.345.144-.5.09-.226.29-.329.553-.198.247-.065.312-.158.558-.222-.622-.183-1.064-.224-1.686-.406-.156.135-.28.232-.436.353-.083.045-.162.057-.21 0-.39-.52-.564-.978-.927-1.32-.138-.142-.313-.333-.507-.38-.097-.023-.216-.01-.292.067-.076.076-.135.217-.11.427.036.3.115.396.207.576s.204.292.319.43c.23.276.534.437.714.545.36.216.512.122.79.108.36.037.456.199.162.422a1.2 1.2 0 0 1-.725.114c-.172-.03-.375-.235-.519-.345-.162-.173-.43.032-.247.232.333.365.666.606 1.077.6.432.054.35.277.064.386-.515.197-.981-.17-1.218-.412-.182-.184-.312-.191-.28.094.182.515.43.715.833.74.328-.028.332.205.092.363-.546.348-.942-.245-1.126-.603-.132-.324-.334-.17-.355.097-.003.355.172.646.64 1.01-.358.526-.775 1.06-1.134 1.586L18.914 16.5 20 14.74c.113-.096.495-.511.596-.569.036-.036.058-.06.005-.08-.052-.017-.173-.037-.255-.051.23-.212.428-.28.864-.397-.107-.042-.21-.017-.523-.031.124-.162.402-.411.76-.531-.236-.155-.283-.166-.517-.347a5.3 5.3 0 0 0 1.102-.195c.221-.096.528-.176.677-.179m-.04.437c-.214 0-.347.067-.347.15s.133.151.348.151c.213 0 .349-.074.349-.158 0-.082-.136-.143-.35-.143"/></g><defs><clipPath><path fill="#fff" d="M1 7.5h38v25H1z"/></clipPath></defs></svg>