<svg xmlns="http://www.w3.org/2000/svg" width="40" height="41" fill="none" viewBox="0 0 40 40"><g clip-path="url(#a)"><path fill="#002395" d="M39 1.087H1v38h38z"/><path fill="#FECB00" d="M8.544 1.09h25.175v38z"/><path fill="#fff" d="M5.858 6.531 7.393 1.81l1.533 4.72L4.91 3.613h4.964zM8.994 11.133l1.534-4.72 1.533 4.72-4.016-2.918h4.964zM11.843 15.787l1.534-4.72 1.534 4.72-4.016-2.918h4.964zM14.883 20.348l1.534-4.721 1.534 4.72-4.016-2.917H18.9zM17.639 24.812l1.534-4.72 1.533 4.72-4.016-2.917h4.964zM20.773 29.277l1.535-4.72 1.533 4.72-4.016-2.917h4.964zM23.813 33.742l1.535-4.72 1.533 4.72-4.016-2.917h4.964zM26.663 38.112l1.535-4.72 1.533 4.72-4.016-2.917h4.964z"/></g><defs><clipPath><path fill="#fff" d="M1 1.087h38V39.09H1z"/></clipPath></defs></svg>