<svg xmlns="http://www.w3.org/2000/svg" width="40" height="40" fill="none" viewBox="0 0 40 40"><mask width="38" height="25" x="1" y="8" maskUnits="userSpaceOnUse" style="mask-type:luminance"><path fill="#fff" d="M39 8H1v25h38z"/></mask><g mask="url(#a)"><path fill="#002395" d="M39 8H1v25h38z"/><path fill="#FECB00" d="M8.99 8h25.02v25.02z"/><path fill="#fff" d="m3.09 9.64 1.4-4.3 1.4 4.3-3.66-2.66h4.52zM6.22 12.77l1.4-4.3 1.4 4.3-3.66-2.66h4.52zM9.35 15.9l1.4-4.3 1.4 4.3-3.66-2.66h4.52zM12.48 19.02l1.4-4.3 1.4 4.3-3.66-2.66h4.52zM15.6 22.15l1.4-4.3 1.4 4.3-3.66-2.66h4.52zM18.73 25.28l1.4-4.3 1.4 4.3-3.66-2.66h4.52zM21.86 28.41l1.4-4.3 1.4 4.3L21 25.75h4.52zM24.99 31.54l1.4-4.3 1.4 4.3-3.66-2.66h4.52zM28.12 34.66l1.4-4.3 1.4 4.3L27.26 32h4.52z"/></g></svg>