<svg xmlns="http://www.w3.org/2000/svg" width="40" height="40" fill="none" viewBox="0 0 40 40"><g clip-path="url(#a)"><path fill="#fff" d="M1 7.5h38v25H1z"/><path fill="red" d="M17.467 7.5h5.066v25h-5.066zM1 17.5h38v5H1zM8.343 9.943c.591.077 1.19.077 1.781 0a12.8 12.8 0 0 0 0 5.115 7 7 0 0 0-1.781 0 12.8 12.8 0 0 0 0-5.115"/><path fill="red" d="M11.825 11.622a6.7 6.7 0 0 0 0 1.758 13.3 13.3 0 0 0-5.183 0 6.7 6.7 0 0 0 0-1.758c1.71.338 3.472.338 5.183 0M29.876 9.943c.591.077 1.19.077 1.781 0a12.8 12.8 0 0 0 0 5.115 7 7 0 0 0-1.781 0 12.8 12.8 0 0 0 0-5.115"/><path fill="red" d="M33.358 11.622a6.7 6.7 0 0 0 0 1.758 13.3 13.3 0 0 0-5.183 0 6.7 6.7 0 0 0 0-1.758c1.71.338 3.473.338 5.183 0M8.343 24.943c.59.076 1.19.076 1.781 0a12.8 12.8 0 0 0 0 5.115 7 7 0 0 0-1.781 0 12.8 12.8 0 0 0 0-5.115"/><path fill="red" d="M11.825 26.621a6.7 6.7 0 0 0 0 1.758 13.35 13.35 0 0 0-5.183 0 6.7 6.7 0 0 0 0-1.758c1.71.339 3.472.339 5.183 0M29.876 24.943c.591.076 1.19.076 1.781 0a12.8 12.8 0 0 0 0 5.115 7 7 0 0 0-1.781 0 12.8 12.8 0 0 0 0-5.115"/><path fill="red" d="M33.358 26.621a6.7 6.7 0 0 0 0 1.758 13.35 13.35 0 0 0-5.183 0 6.7 6.7 0 0 0 0-1.758c1.71.339 3.473.339 5.183 0"/></g><path stroke="#D5D5D4" stroke-width=".5" d="M1.25 7.75h37.5v24.5H1.25z"/><defs><clipPath><path fill="#fff" d="M1 7.5h38v25H1z"/></clipPath></defs></svg>