<svg xmlns="http://www.w3.org/2000/svg" width="40" height="40" fill="none" viewBox="0 0 40 40"><g clip-path="url(#a)"><path fill="#fff" d="M39 .538H1v38h38z"/><path fill="#fff" d="M39 1.999H1v35.077h38z"/><path fill="red" d="M24.385 1.999h-8.77v35.077h8.77z"/><path fill="red" d="M39 15.445H1v8.184h38zM9.623 4.425h-2.63v8.477h2.63z"/><path fill="red" d="M12.546 7.494H4.07v2.338h8.477zM9.623 26.114h-2.63v8.477h2.63z"/><path fill="red" d="M12.546 29.183H4.07v2.339h8.477zM32.862 4.425H30.23v8.477h2.63z"/><path fill="red" d="M35.785 7.494h-8.477v2.338h8.477zM32.862 26.114H30.23v8.477h2.63z"/><path fill="red" d="M35.785 29.183h-8.477v2.339h8.477z"/></g><path stroke="#D5D5D4" stroke-width=".5" d="M1.25 2.25h37.5v34.577H1.25z"/><defs><clipPath><path fill="#fff" d="M1 2h38v35.077H1z"/></clipPath></defs></svg>