<svg xmlns="http://www.w3.org/2000/svg" width="40" height="40" fill="none" viewBox="0 0 40 40"><g clip-path="url(#a)"><path fill="#fff" d="M19.573 38.546c-6.11 0-12.221-.01-18.33.019-.543.003-.679-.206-.678-1.01Q.59 19.55.568 1.544C.567.82.659.566 1.195.567q18.364.036 36.727.002c.511 0 .64.196.639.953q-.027 18.054.002 36.108c.001.802-.176.932-.658.93-6.11-.02-12.221-.014-18.33-.014z"/><path fill="#DC1E35" d="M14.816 38.559H10.07c0-5.414-.003-10.829.006-16.244 0-.307-.07-.385-.38-.384-3.041.013-6.082.008-9.123.008v-4.75c3.029 0 6.058-.005 9.087.01.341.002.418-.09.417-.423-.01-5.254-.002-10.508-.018-15.763-.001-.392.113-.455.468-.45 1.297.023 2.596.02 3.894 0 .316-.004.406.062.406.398-.013 5.266-.005 10.533-.018 15.8 0 .361.089.437.442.437 7.628-.012 15.256-.006 22.883-.019.37 0 .438.102.432.447q-.031 1.948-.001 3.894c.005.326-.066.427-.414.426-7.64-.011-15.28-.006-22.921-.017-.336 0-.42.081-.42.42.011 5.402.007 10.804.007 16.208z"/><path fill="#02529C" d="M38.558 38.56H16.893c-.003-4.711-.002-9.421-.015-14.132 0-.333.078-.427.422-.427q10.422.015 20.843 0c.345 0 .42.096.419.427-.01 4.71-.005 9.42-.004 14.131M.57.57C2.92.573 5.269.58 7.618.568c.303-.002.39.068.389.382q-.017 6.897 0 13.794c0 .312-.084.387-.39.385-2.348-.016-4.697-.012-7.044-.015V.571zM7.99 38.559c-2.386 0-4.772-.004-7.16.006-.22 0-.265-.045-.265-.266.008-4.76.006-9.521.006-14.282 2.386-.003 4.773-.003 7.159-.012.21 0 .272.062.272.273q-.01 7.14-.011 14.281M27.726 15.121c-3.487 0-6.973-.004-10.46.007-.31 0-.388-.08-.388-.387q.015-6.9.002-13.8c0-.276.053-.374.358-.373q10.48.014 20.96 0c.291 0 .365.075.364.365q-.015 6.919 0 13.837c0 .307-.1.357-.376.357-3.487-.009-6.974-.006-10.46-.006"/></g><defs><clipPath><path fill="#fff" d="M.565.565h38v38h-38z"/></clipPath></defs></svg>