<svg xmlns="http://www.w3.org/2000/svg" viewBox="0 0 40 40"><defs><clipPath><path fill="none" stroke-width="0" d="M0 0h38v25H0z"/></clipPath></defs><g clip-path="url(#a)"><path fill="#e30613" fill-rule="evenodd" stroke="#e9b528" stroke-width=".95" d="M37.53.62H.48v23.75h37.05z"/></g><path fill="#de6f10" fill-rule="evenodd" d="M19.93 9.38c-.13.07-.21.06-.2.11 0 .05.12.09.12.09s-.12.13-.22.19c-.09.06-.21.1-.21.1s-.04 0-.02.07c.02.06.06.1.09.12s.05.02.05.02-.17.18-.24.23c-.07.06-.11.08-.17.1s-.03.12-.02.17c.01.04.06.1.09.11.03 0 .04.03 0 .09-.03.04-.12.16-.17.23-.04-.06-.14-.18-.17-.23-.04-.06-.03-.08 0-.09.03 0 .08-.07.09-.11s.04-.14-.02-.17a.44.44 0 0 1-.17-.1c-.07-.06-.24-.23-.24-.23s.02 0 .05-.02.07-.06.09-.12-.02-.07-.02-.07-.11-.04-.21-.1c-.09-.06-.22-.19-.22-.19s.12-.04.12-.09-.07-.04-.2-.11-.18-.17-.18-.17.15-.05.23-.21c.03-.05.03-.1.03-.15.25.08.53.11.79.11s.54-.03.79-.11 0 .09.03.14c.08.15.23.21.23.21s-.04.09-.18.17Zm-1.79-1.29s-.11.01-.16 0-.11-.04-.11-.04.01-.01.03-.04c.01-.03.01-.07 0-.14s-.02-.15-.01-.19 0-.09.09-.17c.08-.09.2-.14.2-.14s-.02.03-.05.09-.1.22-.09.37.1.18.13.2c.02.02.01.04-.02.08Zm.49-.75c.13-.12.23-.14.23-.14 0 .14-.03.24-.05.37-.02.15-.01.22.02.29s.11.12.11.12-.03 0-.06.02-.08.05-.15.05-.1-.02-.14-.05-.09-.05-.09-.05.02-.05.02-.11-.04-.14-.04-.2.03-.19.17-.31Zm.66.52c.03-.07.04-.14.02-.29-.02-.13-.04-.23-.05-.37 0 0 .09.02.23.14.13.12.17.25.17.31s-.03.14-.04.2c0 .06.02.11.02.11s-.05.02-.09.05-.07.05-.14.05-.11-.03-.15-.05-.06-.02-.06-.02.08-.04.11-.12Zm.69-.42c-.03-.06-.05-.09-.05-.09s.13.06.2.14c.08.09.07.13.09.17.01.04 0 .12-.01.19s-.01.12 0 .14.03.04.03.04-.06.01-.11.04c-.05.02-.12.04-.16 0-.04-.03-.05-.05-.02-.08.02-.02.11-.05.13-.2a.8.8 0 0 0-.09-.37Zm-2.72 7.29c-.06.12-.23.24-.36.29-.12.05-.26.07-.32.08-.06 0 0 .08 0 .08l.06.09s0 .03-.1.05c-.09.03-.2.05-.29.07-.09.03.03.1.08.13s.04.06.01.09-.13.09-.19.11c-.05.02-.05.05 0 .07s.2.05.2.05l-.09.07c-.09.07-.25.11-.35.12-.1 0-.27.01-.48 0-.21 0-.23-.01-.23-.01s0-.07-.02-.17a.8.8 0 0 0-.13-.32c-.05-.07-.15-.2-.15-.2v-.06c0-.03 0-.07-.02-.13s-.15-.16-.15-.16v-.13c0-.06-.04-.31-.08-.43s-.23-.43-.32-.57c-.09-.15-.14-.37-.17-.54s-.02-.23 0-.27c0-.02.01-.04.02-.05.04.05.08.09.14.13.26.16.77.17.77.17s-.06.02-.24.02-.43-.06-.43-.06v.06c0 .05.01.23.28.37s.56.04.56.04-.02.02-.1.05-.28.07-.28.07c0 .17.14.26.26.29.19.06.41.02.52 0s.05.01-.06.06-.26.05-.26.05c.02.12.26.22.35.24.23.05.39.02.46 0 .07-.03.06 0 .03.03-.04.04-.11.05-.11.12 0 .02 0 .08.34.11.34.02.45-.17.51-.22.06-.06.05-.03.04 0-.01.02-.07.09-.12.16s-.03.14.2.14c.16 0 .27-.18.32-.27s0 .01 0 .02c-.02.05-.06.14-.1.22Zm-3.14-1.84-.1.06s-.04-.08-.05-.11 0-.04 0-.04.06-.01.09-.02h.01c.01.03.03.07.05.1Zm9.21-.59c.11-.03.51-.15.8-.38.28-.23.34-.41.36-.51s.03-.18-.04-.12-.29.23-.44.31-.29.12-.37.14-.15.04-.07 0c.08-.03.33-.12.53-.32s.35-.49.35-.67 0-.17-.07-.12c-.06.05-.26.3-.38.4s-.3.23-.4.28c-.09.05-.23.12-.04 0 .18-.13.53-.42.67-.81.14-.38.12-.61.11-.65 0-.04-.04-.12-.07-.05s-.26.53-.45.73-.14.16-.18.19-.11.09-.02-.02.28-.37.37-.63c.1-.26.12-.52.13-.66 0-.15-.06-.35-.09-.42-.03-.06-.06-.11-.07-.04 0 .07-.16.53-.24.75s-.24.47-.27.52-.12.15-.03-.02.26-.66.29-1.13c.02-.47-.04-.73-.11-.85a.4.4 0 0 0-.12-.17s.01.32-.08.78c-.1.46-.23.7-.23.7s-.06.07-.02-.04c.03-.07.08-.24.11-.51.03-.29.03-.62-.05-.9-.09-.31-.25-.46-.25-.46-.04.44-.04 1-.2 1.46-.03-.03-.07-.08-.09.02-.03.15-.09.43-.29.79s-.28.41-.28.41-.04-.09-.06-.14c-.03-.05-.04-.07-.07 0s-.14.32-.38.6-.38.41-.37.62c0 .21.12.32.26.41.15.1.17.15.15.26s-.15.15-.27.16c-.11 0-.26 0-.31.02-.05.03-.05.1-.11.15-.05.05-.07.08-.12.09h-.04c-.01-.55.2-.8.2-.8l-.6-.7s-.06.03-.09.04c0 0-.01-.02-.02-.03a.46.46 0 0 1-.11-.32c.03 0 .09.02.14.01s.01-.07 0-.12a1 1 0 0 1-.02-.3c.01-.07.02-.1.02-.1s.09.1.14.1.05-.05.06-.11c.01-.09.05-.2.12-.27 0 0 .09.07.2.07s.25-.03.37-.14.11-.14.11-.14.22.08.38.08c.17 0 .34-.02.42-.19s-.02-.33-.04-.36-.07-.05-.07 0 0 .18-.1.24c-.1.07-.18.06-.27.03a.86.86 0 0 0-.38-.05c-.14.02-.15.03-.16.03 0 0 .13-.13.25-.17s.2.01.24.06.08.13.11.01c.03-.11.01-.24-.04-.33a.3.3 0 0 0-.29-.12c-.12.01-.17.03-.17.03s-.06-.18-.22-.21c-.19-.04-.4.03-.57.12 0 0-.13.03-.26 0-.09-.02-.17-.08-.22-.11.02-.05.04-.14.04-.14s.04-.01.08-.03c.04-.01.03-.03.04-.06 0-.03-.07-.09-.07-.09s-.01-.1.12-.17.12-.06.12-.06.08.01.11 0c.03-.02.03-.04.03-.04s.06-.02.08-.05.03-.09 0-.13c-.02-.04-.03-.05-.01-.07s.04-.07.04-.1v-.04s.04-.02.04-.08c0-.07-.04-.09-.06-.1h-.03s0-.04-.04-.09c-.03-.05-.06-.08-.06-.08s.03-.02.01-.06a.11.11 0 0 0-.08-.08h-.06l-.15-.09c-.05-.03-.06-.03-.06-.03s0-.04-.02-.07-.06-.03-.08-.03-.04.01-.04.01l-.25-.06c-.07-.01-.08-.02-.08-.02s-.15-.07-.21-.09a.3.3 0 0 1-.08-.02s.06-.08.07-.16c0-.09-.05-.17-.12-.21-.03-.02-.05-.02-.06-.03v-.06l.11.01v-.19l-.1.01.02-.11h-.24l.02.11h-.11v.18l.12-.02v.07s-.06 0-.09.03a.24.24 0 0 0-.11.2c0 .09.06.16.06.16s-.02 0-.08.02c-.06.01-.21.09-.21.09l-.08.02c-.07.01-.25.06-.25.06s-.02-.01-.04-.01-.06 0-.08.03c-.02.02-.02.07-.02.07s-.01 0-.06.03l-.15.09h-.06c-.03 0-.06.04-.08.08-.01.04.01.06.01.06s-.02.02-.06.08c-.03.05-.04.09-.04.09h-.03c-.02 0-.06.03-.06.1s.04.08.04.08v.04c0 .03.02.08.04.1s0 .03-.01.07c-.02.04-.01.09 0 .13.02.03.08.05.08.05s0 .01.03.04c.03.02.11 0 .11 0s-.01-.01.12.06.12.17.12.17-.08.06-.07.09c0 .03 0 .05.04.06s.08.03.08.03.03.09.04.14c-.05.03-.14.09-.22.11-.13.04-.26 0-.26 0-.17-.09-.38-.16-.57-.12-.16.03-.22.21-.22.21s-.04-.02-.17-.03c-.12-.01-.24.04-.29.12s-.07.21-.04.33c.03.11.07.04.11-.01s.11-.1.24-.06c.12.04.24.16.25.17 0 0-.02-.01-.16-.03-.15-.02-.28.02-.38.05s-.17.03-.27-.03c-.1-.07-.1-.2-.1-.24s-.05-.03-.07 0-.13.19-.04.36c.08.17.26.2.42.19.17 0 .38-.08.38-.08s0 .03.11.14c.12.11.26.14.37.14s.2-.07.2-.07c.07.06.11.18.12.27 0 .06 0 .11.06.11s.14-.09.14-.09 0 .03.02.09 0 .25-.02.3-.06.11 0 .12c.05.01.11-.01.14-.01 0 .13-.03.22-.11.32 0 0-.01.02-.02.02-.03-.01-.06-.03-.09-.04l-.6.7s.21.25.2.8-.03 0-.04 0c-.05 0-.07-.04-.12-.09s-.05-.12-.11-.15c-.05-.03-.19-.02-.31-.02-.11 0-.25-.04-.27-.16-.02-.11 0-.16.15-.26s.26-.2.26-.41-.13-.34-.37-.62-.35-.53-.38-.6-.05-.04-.07 0c-.03.05-.06.14-.06.14s-.08-.05-.28-.41-.26-.64-.29-.79c-.02-.1-.06-.05-.09-.02-.16-.46-.15-1.02-.2-1.46 0 0-.16.16-.25.46-.08.28-.08.61-.05.9.03.28.08.44.11.51.04.11-.02.04-.02.04s-.14-.24-.23-.7c-.1-.46-.08-.78-.08-.78s-.06.05-.12.17c-.06.13-.13.39-.11.85.02.47.2.96.29 1.13s0 .07-.03.02-.19-.3-.27-.52-.23-.68-.24-.75c0-.07-.04-.03-.07.04-.03.06-.09.27-.09.42s.03.41.13.66c.1.26.28.52.37.63s.02.05-.02.02 0 0-.18-.19c-.19-.2-.42-.66-.45-.73s-.06 0-.07.05c0 .04-.03.26.11.65.14.38.49.68.67.81s.05.06-.04 0c-.09-.05-.28-.18-.4-.28s-.32-.35-.38-.4-.07-.06-.07.12.16.47.35.67c.2.2.45.29.53.32s.01.02-.07 0-.22-.06-.37-.14-.37-.25-.44-.31-.06.02-.04.12.08.28.36.51.68.35.8.38c.11.03.03.03.03.03s-.05 0-.28-.06c-.23-.05-.59-.24-.68-.3-.1-.06-.11-.08-.1.04.01.13.15.4.36.52.22.13.6.19.7.2.1 0 .07.02.03.02-.05 0-.16 0-.34-.02-.15-.02-.37-.09-.45-.12 0-.03-.02-.06-.02-.08 0-.05-.03-.04-.05-.03s-.03.02-.08.05-.06 0-.06-.02-.01-.09-.01-.12c0-.04-.02-.04-.05-.03-.02.01-.14.06-.19.08-.04.02 0 .06.02.1s.06.11.06.11l-.15.04c-.04 0-.02.03-.02.06 0 .02.06.15.08.19.01.04.05.01.05.01l.11-.07.04.15s-.05.01-.11.05-.04.09.03.11.15.05.24.21.11.45.16.9.34.68.38.71.02.05.02.05-.04.06-.02.15.09.14.13.15.03.05.03.05-.02.1 0 .27c.02.18.16.38.2.41s.04.05.04.07c0 .01-.03 0-.08.04s-.1.09-.14.15c-.03.06-.02.1-.01.18.01.09.14.16.14.16s-.02 0-.03.07c0 .06.04.13.1.18s.16.07.16.07 0 .05.01.09c0 .04.08.07.12.1.05.03.13.01.17 0 .04-.02.06 0 .09.04.02.04.01.18.01.24s-.03.12-.01.15.07 0 .13-.02c.05-.03.07 0 .12.02.05.03.12.06.14.06s.01-.05.01-.1 0-.14.03-.15c0 0 .09-.01.16-.04.03-.01.07-.03.07-.05 0-.03-.04-.03-.13-.08s-.11-.08-.17-.12-.03-.05-.03-.07.03-.04.04-.06 0-.07 0-.07l.07-.07c.02-.03.05-.07.08-.09.03-.03.08-.15.11-.19s.1-.08.14-.14c.04-.05.16-.14.22-.18.07-.04.24-.13.24-.13s0 .11.04.16c.05.05.1-.04.31-.18.2-.14.35-.19.35-.19s.04.07.1.13c.05.07.1 0 .35-.34.19-.27.45-.52.55-.61.02 0 .04.02.05.02 0 .01 0 .03-.01.04-.02.07-.06.12-.11.21-.05.1-.12.12-.21.25-.08.13-.1.22-.1.36s.07.16.07.16-.12.12-.16.21-.06.27-.06.27-.02 0-.06.1c-.05.09-.13.11-.25.23s-.25.17-.31.21-.05.07-.03.12.1.1.2.13c.1.04.13.02.2.02s.01.05-.01.08c-.03.03-.06.13-.06.24s.09.08.19.07c.1-.02.22-.07.22-.07v.03s-.03.05-.03.14.01.13.04.15.08-.03.11-.04c.04-.01.1-.05.19-.07s.12-.06.12-.06-.02.03-.03.09c0 .06 0 .16.01.21s.05.12.12.18c.06.06.08.03.12-.04.05-.07.14-.16.14-.16s0 .02.07.22c.06.2.27.37.27.37s.2-.17.27-.37c.06-.2.07-.22.07-.22s.09.09.14.16.06.1.12.04q.09-.09.12-.18c.01-.05.02-.15.01-.21 0-.06-.03-.09-.03-.09s.03.04.12.06.15.06.19.07.09.06.11.04c.03-.02.04-.06.04-.15s0-.11-.02-.14v-.03s.11.05.21.07.18.04.19-.07c0-.11-.03-.21-.06-.24s-.08-.08-.01-.08.1.02.2-.02.18-.08.2-.13.03-.08-.03-.12-.19-.09-.31-.21-.2-.13-.25-.23a1 1 0 0 0-.06-.1s-.02-.18-.06-.27-.16-.21-.16-.21.08-.03.07-.16c0-.14-.02-.23-.1-.36s-.16-.16-.21-.25c-.05-.1-.08-.14-.11-.21 0-.01 0-.03-.01-.04.02-.01.05-.02.07-.03.1.09.36.34.55.61.25.34.29.41.35.34.05-.07.1-.13.1-.13s.15.05.35.19.26.23.31.18c.02-.03.03-.07.03-.11 0 0 .12.03.25.08.08.03.17.06.23.09.17.07.19.11.33.22s.34.1.52.04c.19-.06.69-.22.88-.31.2-.09.34-.16.36-.2s.04-.15.04-.19-.04-.1-.06-.11c-.01-.01 0-.04 0-.07s0-.1-.04-.14c-.03-.03-.03-.05-.02-.14 0-.21-.14-.46-.35-.55 0 0 0-.02-.02-.04a.2.2 0 0 1-.04-.03v-.14c0-.03 0-.02.02-.02.01 0 .04.04.07.04s.05-.02.06-.05c0-.04.03-.11.05-.15.01-.04 0-.04-.02-.05-.02 0-.07 0-.09-.02-.02 0-.02 0-.02-.02 0-.01.01-.03.04-.08s0-.05-.03-.06c-.03 0-.16-.05-.2-.06-.04 0-.05.03-.05.04v.11c0 .03-.02.02-.04.01a.2.2 0 0 1-.07-.05c-.03-.02-.04 0-.05.03 0 .03-.04.14-.05.18v.07h.12c.04 0 .02.02.02.02s-.04.07-.06.1c-.01.03-.04.03-.07.03h-.09s-.22 0-.37.13c-.16.12-.2.22-.23.27-.02.06-.05.04-.08.07-.02.02-.09.09-.09.14s.02.07-.05.11-.13.24-.03.34c.09.1.13.2.16.25s0 .07-.02.07-.08-.04-.12-.07l-.35-.27c-.09-.07-.02-.06-.02-.06s.02 0 .08-.02c.05-.02.06-.05 0-.07a1 1 0 0 1-.19-.11c-.03-.03-.04-.06.01-.09s.17-.11.08-.13c-.09-.03-.2-.05-.3-.07-.09-.03-.1-.05-.1-.05l.06-.09s.05-.07 0-.08c-.06 0-.19-.03-.32-.08-.25-.11-.41-.29-.46-.51.05.09.15.26.32.26.22 0 .25-.06.2-.14-.05-.07-.11-.14-.12-.16s-.02-.05.04 0 .17.24.51.22.34-.09.34-.11c0-.06-.07-.07-.11-.12-.02-.02-.03-.05.03-.03.07.03.23.06.46 0 .09-.02.33-.12.35-.24 0 0-.15 0-.26-.05s-.17-.08-.06-.06.33.07.52 0c.11-.04.26-.13.26-.29 0 0-.21-.04-.28-.07a.3.3 0 0 1-.1-.05s.3.09.57-.04c.27-.14.28-.32.28-.37v-.06s-.24.06-.43.06c-.18 0-.24-.02-.24-.02s.51-.01.77-.17.27-.47.27-.47-.29.1-.47.12-.29.02-.34.02-.07-.02.03-.02.49-.07.7-.2c.22-.13.35-.4.36-.52s0-.1-.1-.04-.45.24-.68.3l-.28.06s-.08 0 .03-.03Z"/><path fill="#e30613" fill-rule="evenodd" d="M17.2 9.59a.9.9 0 0 0-.34-.1c-.15-.01-.26 0-.39.04-.09.02-.16.03-.23 0a.32.32 0 0 1-.22-.24s-.1.13 0 .26q.075.105.18.12c.21.04.41-.09.59-.1.17-.01.3.09.3.09s.04.03.09 0c.06-.03.07-.06.02-.09ZM22.06 9.3c-.03.12-.11.21-.22.24-.07.02-.14.02-.23 0a.98.98 0 0 0-.73.06c-.05.03-.04.06.02.09s.1 0 .1 0 .13-.11.3-.09c.17.01.38.14.59.1a.3.3 0 0 0 .18-.12c.1-.14 0-.26 0-.26Z"/><path fill="#e9b528" fill-rule="evenodd" d="M20.73 12.37c0-.42.19-.68.19-.68l-.52-.6c-.5.19-.95.2-1.36 0-.4.21-.86.19-1.36 0l-.52.6s.19.26.19.68-.08.73-.13.93-.09.58.02.85.22.5.68.7c.46.19.71.3.87.43s.24.24.24.24.08-.11.24-.24.4-.24.87-.43c.46-.19.58-.43.68-.7.11-.27.07-.64.02-.85-.05-.2-.13-.51-.13-.93ZM16.73 15.69s-.17.08-.22.09-.07.01-.07.01-.11.1-.2.15-.19.09-.29.1c-.13.01-.49.01-.65 0-.16 0-.26.03-.33.11s-.09.19 0 .28.19.04.22-.01.02-.12 0-.15c-.01-.03.03-.04.07-.04.05 0 .12 0 .19.01s.19.05.25.08c.05.03.02.03-.01.03-.04 0-.08-.02-.14-.05-.07-.02-.12-.04-.16-.04s-.03.02-.02.03c0 .01.03.05.04.07 0 .02-.01.08-.01.08l.02.04.03-.06v-.08c0-.02.04-.02.07.01s.06.07.07.15-.01.13-.01.13.03.03.04.05v.09s.02.01.04-.03.05-.12.05-.15.02-.08.06-.04c.03.04.06.08.06.1v.04s.07-.07.1-.11c.02-.04.08-.1.15-.16s.19-.17.25-.21.21-.12.26-.15.06-.03.06-.11.05-.15.07-.21.02-.08.02-.08Z"/><path fill="#e9b528" fill-rule="evenodd" d="M16.6 15.63h-.05c-.03 0-.09-.02-.11-.03-.02 0-.05-.01-.07.01s-.17.11-.17.11h.25c.09 0 .14-.08.14-.08Z"/><path fill="#e9b528" fill-rule="evenodd" d="M17.3 15.59v-.02l-.03-.07s-.04.02-.08.06c-.05.05-.1.12-.12.15-.04.05-.1.1-.05.02s.07-.12.11-.18.07-.08.06-.08c0 0-.04 0-.14-.02a.5.5 0 0 1-.22-.08c-.05-.03-.13-.07-.13-.07s-.18.07-.24.09c-.07.02-.11.03-.04.06.06.03.12.04.15.06s.13.05.19.05.16 0 .12.04-.08.12-.13.24c-.04.12-.04.23-.04.28v.11s.07-.08.27-.2c.19-.12.27-.16.3-.18.04-.02.05-.02.05-.06 0-.05-.03-.16-.03-.18Z"/><path fill="#e9b528" fill-rule="evenodd" d="m18.05 15-.04-.02c-.02.01-.14.09-.19.17s-.1.08-.04 0a1 1 0 0 1 .13-.17c.02-.01.03-.03.04-.03-.1-.05-.2-.1-.3-.17-.01.03-.04.07-.07.1-.04.04-.13.08-.13.08s.07-.08.1-.13c.02-.04.03-.08.03-.1a1.2 1.2 0 0 1-.2-.19c-.01.05-.05.17-.17.3-.15.17-.46.26-.46.26s-.11.01-.02.03.15.06.32.03.18-.04.2-.04.08 0 0 .03-.28.06-.36.05c-.08 0-.18-.02-.07.03.11.06.15.08.22.08s.09.02.16.02.08-.01.13-.02.08 0 .08.03-.06.07-.06.19c0 .13.01.21.02.24.01.04.04.1.06.13s.03.07.04 0c.02-.07.06-.18.08-.25s.03-.07.03-.11.05-.06.03 0c-.02.07-.04.15-.05.21s-.05.17 0 .08.26-.32.3-.36c.03-.04.06-.08.09-.11s.1-.08.13-.13.12-.13.16-.17c-.06-.02-.12-.05-.18-.08ZM14.04 12.68s-.03-.06-.04-.09c0-.02-.03 0-.03 0s-.05.03-.09.04-.05 0-.05-.02-.01-.09-.02-.13c0-.05-.02-.04-.03-.04a.3.3 0 0 0-.1.04c-.03.02-.02.03-.01.05s.05.1.07.13 0 .04-.02.05q-.03 0-.09.03c-.06.03-.04.02-.03.04 0 .01.03.07.05.1s.03 0 .03 0 .04-.04.08-.06.04-.01.05.02c0 .03.05.17.06.2 0 .03.02.02.04.02s.05-.01.07-.02c.02 0 .03-.05.03-.05s-.08-.15-.1-.18c-.02-.04 0-.05.02-.05s.06 0 .11-.02c.04 0 .03-.03.03-.05ZM14.96 16.63s0-.07-.03-.1a.3.3 0 0 1-.07-.12c-.01-.04.01-.06 0-.09 0-.02-.04-.02-.07 0-.03.03-.08.05-.08.13s.03.17.14.2.11 0 .1-.03ZM15.07 16.59s-.02-.01-.03 0c-.01.02 0 .03.02.08.03.05.05.06.08.08s.01-.02 0-.03v-.04c0-.01-.01-.02-.01-.06s-.05-.03-.05-.03Z"/><path fill="#e9b528" fill-rule="evenodd" d="M15.2 16.96s.04-.04.09-.06.14-.03.17-.04c.03 0 .1-.06.09-.12s-.06-.09-.09-.09-.07 0-.09.01c-.01.02-.03.04-.08.06-.04.01-.05.03-.08.04-.03 0 0 .02-.03.04-.02.02-.05 0-.09-.01-.03-.01-.04-.02-.08-.02h-.17c-.03 0-.02 0-.03.03-.01.02 0 .09.03.12.02.03.1.05.16.06.05.02.08.02.13.03.05 0 .05 0 .07-.03ZM15.7 17.01s.02-.08 0-.11c-.01-.03-.07-.04-.1-.04s-.05 0-.06.01c-.02.01-.04.04-.08.05-.05.01-.08.03-.14.06-.06.02-.08.07-.11.08-.03.02-.08 0-.08 0s-.04-.01-.05 0 0 .03.02.06.07.02.13.04c.05.02.06 0 .08-.01s.04-.05.07-.07c.04-.02.12-.03.16-.03s.11-.02.15-.05ZM15.7 16.82s.04.04.06.01.04-.08.02-.12l-.04-.06s-.03.09-.05.12c-.01.02-.01.03 0 .05ZM15.53 16.54c0-.05-.04-.12-.04-.12s-.01.05-.03.09-.05.07-.05.07.05.01.07.01.04 0 .04-.05ZM15.22 16.65c.06-.01.09-.03.11-.06.02-.02.04-.08.02-.1-.02-.03-.06-.06-.07-.06h-.03s-.02.05-.04.08-.05.05-.05.08c0 .04 0 .07.06.06M15.34 16.39s0-.06-.03-.07-.03-.03-.03-.03v.09s.02.02.03.02.04.02.04 0ZM14.63 14.93s.07 0 .04-.24-.16-.47-.26-.63-.2-.41-.25-.54-.08-.31-.08-.41.04-.14.04-.14.02-.03 0-.04c-.02-.02-.04 0-.07.02-.03.03-.05.07-.06.11-.01.03-.01.05-.01.05s-.05-.01-.13 0q-.12 0-.12.03c0 .02.01.03.07.06s.1.04.13.07c.03.04.11.21.13.3s.07.32.09.5.08.4.17.59c.03.06.18.35.31.29ZM14.78 15.36c-.06.03-.05.26-.03.38s.14.27.18.31.04.04.06.03.03-.01.03-.01.05-.02.09-.05.02-.1.02-.17c0-.06-.06-.19-.15-.34s-.14-.18-.19-.15ZM14.84 15.17c0-.07-.06-.13-.14-.13-.04 0-.07 0-.09.03-.08.07-.03.24.08.24.04 0 .09 0 .11-.03.03-.02.03-.06.03-.1ZM15.93 17.33s-.05-.02-.09-.05a.8.8 0 0 1-.13-.12c-.01-.03-.01-.03-.05-.02s-.1.01-.15.01 0 .05.04.1c.03.05.02.21.02.21v.04c0 .02 0 .04.01.04s.02 0 .05-.04.09-.13.09-.13l.06.01c.05.01.13 0 .17 0 .04-.01.02-.04 0-.05Z"/><path fill="#e9b528" fill-rule="evenodd" d="M15.74 17.45h-.04c-.01.01-.02.04-.02.05v.04c.01.01.03.02.03.02s.02.02.04.03c.02 0 .02-.02.02-.04s.01-.05.01-.08-.02-.03-.04-.04ZM15.2 9.71c0 .13.15.37.22.5.08.13.1.18.09.19a.6.6 0 0 1-.09-.12c-.04-.06-.13-.19-.2-.29s-.18-.34-.19-.36-.02-.04-.05 0c-.04.03-.1.29-.02.47s.21.31.26.38c.05.06.12.16.11.17-.01 0-.03-.02-.09-.08-.06-.07-.17-.18-.24-.26-.06-.07-.13-.2-.16-.25 0-.02-.02-.01-.03 0-.02.02-.06.08-.04.22.02.2.13.32.22.42s.19.19.17.2c-.01.01-.11-.07-.18-.13s-.23-.22-.26-.26c-.04-.04-.09-.02-.08.15 0 .17.19.35.27.44.08.1.18.15.17.17 0 .02-.09-.03-.14-.07s-.25-.16-.28-.19c-.04-.03-.06.02 0 .19.05.16.19.3.28.36.08.06.22.13.21.15 0 .02-.07 0-.15-.04s-.18-.07-.24-.09c-.07-.02-.07.03-.07.03s-.01.14.09.25.22.16.33.18.13.02.12.04c0 .02-.01.02-.04.02s-.13.01-.22.01-.14.02-.14.06 0 .1.14.19.3.11.36.12c.07.01.07.02.05.04-.01.02-.04.02-.15.03-.1.01-.17.05-.18.08s0 .11.09.17c.08.06.19.08.36.07.16-.01.21-.01.21.01 0 .03-.05.04-.13.05s-.15.01-.19.05c-.05.04-.01.12.07.18s.28.06.36.05c.08 0 .21-.04.22-.01 0 .02-.06.05-.15.08-.08.03-.11.05-.13.09s0 .07.1.11.25.04.33 0 .12-.05.13-.04 0 .03-.02.05-.08.07-.17.09c-.08.02-.09.02-.12.09s.05.12.2.13c.15 0 .36-.05.42-.09.07-.04.09-.05.1-.03.01.01 0 .02-.02.05-.03.02-.14.1-.19.11s-.06.05-.06.09-.01.11.12.14.3 0 .45-.1q.075-.045.09-.09c-.01-.14 0-.24.01-.32-.03 0-.08-.01-.14-.03-.08-.03-.11-.11-.13-.15s-.05-.04-.08-.03a.4.4 0 0 1-.11.02c-.05 0-.15-.03-.22-.11-.07-.09-.06-.17-.06-.21s-.07-.01-.1-.01-.13-.01-.22-.07-.09-.14-.1-.18c0-.03-.04-.05-.07-.07-.03-.01-.07-.02-.13-.07s-.08-.15-.08-.18-.04-.04-.16-.1-.11-.19-.11-.25c0-.05.06-.1.06-.12s-.04-.02-.08-.05c-.04-.02-.15-.07-.15-.22s.1-.17.1-.17-.02 0-.06-.03c-.04-.02-.15-.1-.15-.19s.04-.13.07-.15.11-.04.11-.04-.05-.03-.07-.1-.03-.16.02-.22.14-.06.19-.06.09.02.1.01c.02-.01.02-.02 0-.06s-.02-.12 0-.15c.01-.03.02-.09.13-.13.12-.04.24.04.28.06s.02-.03.02-.07-.08-.13-.17-.27-.13-.21-.23-.42-.17-.48-.18-.55-.04-.04-.04-.04-.03.01-.09.17-.07.3-.07.43Z"/><path fill="#e9b528" fill-rule="evenodd" d="M17.27 12.52c-.07 0-.16-.04-.23-.14s-.18-.13-.36-.12c-.18 0-.27-.08-.31-.21-.05-.13 0-.27.19-.36s.27-.19.28-.35c0-.16-.19-.36-.38-.58s-.35-.54-.35-.54-.06.07-.06.15.03.15 0 .17-.04-.03-.15-.08-.2-.06-.27.02 0 .22.06.29.12.12.1.14-.11-.04-.14-.06-.11-.1-.22-.09-.15.04-.16.13.1.17.17.21.1.07.08.08-.04 0-.07-.01a.36.36 0 0 0-.18 0c-.06.02-.15.1-.06.19.08.1.26.13.3.14.04 0 .05 0 .06.02 0 .03-.07.03-.17.03s-.12.1-.11.17.17.15.26.16.12 0 .13.02c0 .02-.01.04-.06.05s-.14.02-.16.1-.02.11.05.18.19.06.23.05c.04 0 .08-.05.11-.01.04.04-.03.06-.09.11-.06.04-.06.12.05.18.1.06.2.04.25.02.04-.01.1-.08.13-.04s-.09.06-.14.12-.03.16.07.22.26.02.29 0 .06-.04.08-.01c.02.02-.01.08-.03.13s-.06.19.09.25.28-.07.31-.1c.02-.02.05-.03.07-.02s.01.03 0 .06c-.02.02-.06.13.05.2.07.05.15.05.19.04.02-.08.05-.17.08-.29 0 0-.06.05-.08.06s-.04.03-.05.02c0 0 .04-.03.05-.05s.04-.04.04-.06 0-.03.04-.05l.02-.02c.02-.08.03-.18.05-.3.01-.08.02-.15.02-.22h-.05ZM14.25 10.32c.16.32.38.5.38.5s-.03-.08-.04-.13 0-.12 0-.12-.06-.07-.16-.23-.16-.39-.16-.39.1.23.17.36c.07.12.16.23.16.23s.03-.11.05-.12c.02 0 .04.01.06.04.02.02.03.02.03.02s-.03-.05-.06-.12l-.06-.09c-.06-.09-.19-.27-.25-.45s-.21-.62-.23-.75-.05-.06-.07.04-.06.23-.04.44c.02.2.07.45.23.77ZM14.46 11.18l.15.1s-.01-.03-.02-.07c0-.04-.01-.12-.01-.12s-.07-.06-.12-.1-.11-.1-.23-.24c-.12-.15-.02-.06.07.05.1.11.28.26.28.26v-.03c0-.03.01-.06.03-.08s0-.03-.1-.11c-.11-.08-.38-.39-.49-.57s-.23-.43-.23-.43-.06.37.16.77.44.53.5.58ZM15.62 13.48c.12-.05.09-.17.09-.17s-.07.02-.14.05-.24.07-.3.08c-.07 0-.07 0-.07-.02 0 0 .05 0 .15-.02s.27-.11.29-.13c.03-.02.03-.02-.02-.03-.04 0-.08-.02-.1-.04-.02-.01-.06 0-.17.03s-.34.06-.51.06-.34-.03-.37-.04c-.03 0-.06 0 .03.15.08.14.38.22.59.22s.41-.11.53-.16ZM15.08 13.19c.21 0 .29-.06.29-.06s0-.01-.03-.05-.02-.12-.02-.12-.05 0-.14.02c-.09.01-.19.03-.3 0-.11-.02-.06-.03.03-.02s.26-.02.32-.04.03-.04 0-.05a.8.8 0 0 1-.14-.08s-.26.03-.5 0-.39-.09-.44-.1c-.05 0-.05.01-.05.01s-.01.02.07.15.25.22.38.25c.14.04.32.07.54.07ZM15.02 12.69s0-.01-.02-.06c-.01-.04.02-.08.02-.08s-.05-.01-.21-.03-.17-.03-.27-.05-.16-.05-.16-.06q0-.015.09.03c.06.02.3.05.4.06s.16.03.18.01c.02-.01.08-.03.08-.03s-.04-.01-.1-.02c-.05 0-.1-.03-.13-.05s-.04-.03-.17-.04-.23-.06-.47-.14c-.23-.08-.41-.19-.45-.22-.05-.04-.04-.01-.03.04s.01.11.13.25.17.2.47.31.63.09.63.09ZM14.15 11.97c.26.18.57.25.63.26.01-.02-.02-.08 0-.12s.05-.05.11-.05.02-.02 0-.02-.02 0-.12-.03-.21-.04-.36-.1c-.14-.05-.19-.09-.18-.1s.07.03.2.08.29.07.37.09.01-.02-.03-.04-.1-.11-.1-.11-.09-.02-.25-.06c-.15-.05-.28-.1-.41-.17-.04-.02-.09-.06-.13-.09-.09-.06-.18-.13-.21-.15-.05-.04-.04 0-.03.02 0 .02.04.13.12.25s.11.16.37.34ZM14.1 11.45c.26.2.48.27.52.28s.03 0 .03-.03c0-.02-.01-.09-.01-.09s-.09-.05-.19-.11-.22-.14-.29-.19c-.08-.05-.03-.05 0-.03.02.02.13.08.23.15s.26.16.26.16 0-.03.03-.06c.02-.02.08-.02.08-.02s-.03-.03-.04-.05c-.02-.03-.1-.05-.2-.1s-.27-.17-.39-.28c-.13-.11-.37-.37-.39-.4q-.03-.03-.03 0c0 .03-.01.05.02.17s.14.38.4.58ZM15.02 9.52c.03.06.06.11.08.15l.05.1v-.06c0-.04-.01-.09 0-.15 0-.03.01-.06.01-.09s-.01-.06-.02-.08c0-.03-.05-.18-.06-.29-.02-.11-.04-.26-.04-.39s.02-.07.02 0 0 .16.03.32c.02.15.09.39.09.39s0-.04.02-.09.05-.11.08-.17c.02-.06.02-.07.02-.07s-.09-.43-.11-.64c-.02-.2-.06-.74-.06-.74-.13.13-.23.48-.25.82-.01.25.03.48.04.58.02.19.06.33.1.43ZM14.72 10.2c0-.1.03-.17.09-.19 0 0-.06-.1-.11-.24-.03-.1-.06-.22-.08-.31-.03-.23-.06-.47 0-.08.07.39.15.53.15.53l.1.16c-.01-.07-.02-.12-.01-.2 0-.08.01-.18.04-.27 0 0-.12-.24-.2-.53s-.12-.56-.12-.71-.01-.21-.01-.21-.12.09-.17.57c-.04.48.08.93.15 1.1.06.17.16.39.16.39ZM16.08 13.83s-.02-.01-.08-.05-.04-.15-.04-.15-.02.01-.06.04q-.06.045-.15.09c-.06.02-.09.04-.13.05s-.03 0 0-.02.04-.03.12-.06.24-.17.24-.17h-.1c-.06 0-.15-.04-.15-.04s-.06.06-.33.17c-.26.11-.48.14-.48.14s.03.13.15.18c.1.05.25.07.53 0s.47-.19.47-.19ZM16.43 14.09c.02-.11-.04-.19-.04-.19s-.01 0-.05.04-.1.1-.21.16-.15.05-.04 0c.11-.06.26-.22.26-.22l-.04-.02s-.11.01-.41.19c-.29.18-.47.18-.47.18s.13.16.49.15.49-.18.51-.29M17.1 13.97s-.04.06-.09.09c-.05.04-.19.06-.19.06s0 .02-.03.05c-.03.04-.09.12-.15.17s-.16.07-.17.06c0-.01.06-.04.12-.07.06-.04.12-.11.16-.15.04-.05-.02-.04-.02-.04h-.14c-.07 0-.06 0-.07.03-.02.03-.05.06-.1.12l-.18.21c-.04.05 0 .06 0 .06s.02.03.18.05c.1.01.2 0 .32-.07q.105-.06.21-.18c.19-.21.18-.38.18-.38ZM17.19 14.4c-.04.05-.06.07-.06.07s.03-.08.05-.12c.01-.02.03-.04.04-.05a.6.6 0 0 1-.06-.19c-.02.06-.07.22-.14.33-.08.13-.16.18-.11.21.05.04.14.04.24 0 .1-.05.13-.14.14-.21-.02-.03-.03-.06-.05-.09-.01 0-.03.02-.05.05M23.17 11.54c.08-.06.23-.19.28-.36.05-.16.03-.22 0-.19-.04.03-.23.15-.28.19s-.13.08-.14.07c0-.02.09-.08.17-.17.08-.1.27-.27.27-.44s-.05-.19-.08-.15l-.26.26c-.06.06-.16.15-.18.13-.01-.01.08-.1.17-.2s.2-.22.22-.42c.02-.14-.02-.2-.04-.22 0 0-.02-.01-.03 0-.03.05-.1.18-.16.25-.07.08-.17.19-.24.26-.06.07-.08.09-.09.08a.7.7 0 0 1 .11-.17c.05-.06.18-.19.26-.38.08-.18.01-.45-.02-.47-.04-.03-.04-.01-.05 0-.01.02-.12.26-.19.36s-.16.24-.2.29c-.04.06-.08.12-.09.12s0-.06.09-.19c.08-.13.22-.37.22-.5s0-.27-.07-.43c-.06-.16-.09-.17-.09-.17s-.03-.03-.04.04-.08.34-.18.55-.14.28-.23.42-.17.23-.17.27-.02.09.02.07.16-.1.28-.06.12.1.13.13.01.12 0 .15c-.02.04-.01.05 0 .06.02.01.06-.01.1-.01s.13 0 .19.06c.05.06.04.15.02.22s-.07.1-.07.1.08.02.11.04.07.06.07.15-.11.17-.15.19l-.06.03s.1.02.1.17-.11.19-.15.22c-.04.02-.08.03-.08.05s.06.06.06.12c0 .05.02.18-.11.25-.12.06-.16.07-.16.1s-.02.13-.08.18-.1.06-.13.07-.06.03-.07.07c0 .03 0 .12-.1.18-.09.06-.18.07-.22.07s-.1-.03-.1.01.01.12-.06.21-.17.11-.22.11-.08-.01-.11-.02-.06-.01-.08.03-.05.12-.13.15c-.06.02-.11.03-.14.03.02.09.02.18.01.32.02.02.04.05.09.09.15.1.31.13.45.1s.12-.1.12-.14 0-.07-.06-.09c-.05-.01-.16-.09-.19-.11s-.04-.03-.02-.05c.01-.01.04 0 .1.03.07.04.27.1.42.09.15 0 .23-.06.2-.13s-.04-.07-.12-.09a.4.4 0 0 1-.17-.09c-.02-.02-.03-.03-.02-.05.01-.01.05 0 .13.04s.22.04.33 0c.1-.04.11-.07.1-.11-.02-.04-.04-.05-.13-.09-.08-.03-.15-.06-.15-.08s.13 0 .22.01c.08 0 .28 0 .36-.05.08-.06.11-.14.07-.18-.05-.04-.11-.04-.19-.05s-.14-.02-.13-.05c0-.03.05-.02.21-.01s.27 0 .36-.07c.08-.06.11-.14.09-.17-.01-.03-.08-.07-.18-.08s-.13 0-.15-.03c-.01-.02-.01-.02.05-.04.07-.01.22-.03.36-.12s.14-.15.14-.19-.05-.06-.14-.06-.19-.01-.22-.01-.04 0-.04-.02.01-.02.12-.04.22-.06.33-.18c.1-.11.09-.25.09-.25s0-.05-.07-.03-.16.05-.24.09-.14.06-.15.04c0-.02.13-.09.21-.15Z"/><path fill="#e9b528" fill-rule="evenodd" d="M22.82 11.16a.36.36 0 0 0-.18 0c-.03.01-.05.02-.07.01s.01-.05.08-.08c.07-.04.18-.12.17-.21s-.05-.12-.16-.13-.18.07-.22.09c-.03.02-.13.08-.14.06-.02-.02.04-.07.1-.14s.13-.21.06-.29-.16-.07-.28-.02c-.11.05-.12.1-.15.08s0-.1 0-.17-.06-.15-.06-.15-.15.31-.35.54c-.19.22-.39.42-.38.58 0 .16.09.26.28.35s.24.24.19.36c-.05.13-.13.22-.31.21-.18 0-.29.02-.36.12s-.16.14-.23.14h-.05c0 .07 0 .15.02.23.02.12.03.21.05.3 0 0 .01.02.02.02.03.02.03.03.04.05 0 .02.03.04.04.06s.06.04.05.05c0 0-.03 0-.05-.02a.3.3 0 0 1-.06-.05l-.02-.02c.03.12.06.21.08.29.04 0 .12.01.19-.04.11-.07.07-.18.05-.2s-.03-.05 0-.06c.02-.01.05 0 .07.02s.16.15.31.1c.15-.06.11-.2.09-.25s-.05-.11-.03-.13.06-.01.08.01.19.07.29 0c.1-.06.12-.16.07-.22s-.17-.07-.14-.12c.03-.04.08.02.13.04.04.01.14.04.25-.02.1-.06.11-.14.05-.18s-.13-.07-.09-.11.08 0 .11.01c.04 0 .16.02.23-.05s.07-.1.05-.18-.11-.09-.16-.1-.07-.02-.06-.05c0-.02.04-.01.13-.02s.25-.09.26-.16-.01-.16-.11-.17c-.1 0-.17 0-.17-.03s.02-.02.06-.02.21-.04.3-.14c.08-.1 0-.17-.06-.19ZM23.46 10.81s.22-.18.38-.5.21-.57.23-.77-.01-.34-.04-.44c-.02-.1-.05-.17-.07-.04s-.17.57-.23.75-.19.35-.25.45l-.06.09c-.04.06-.06.12-.06.12s.02 0 .03-.02c.02-.02.03-.04.06-.04.02 0 .05.12.05.12s.09-.1.16-.23c.07-.12.17-.36.17-.36s-.05.23-.16.39c-.1.16-.16.23-.16.23s.01.06 0 .12c-.01.05-.04.13-.04.13ZM24.3 9.83s-.12.25-.23.43-.38.49-.49.57-.11.08-.1.11c.02.02.03.05.03.08v.03s.19-.15.28-.26c.1-.11.19-.2.07-.05s-.18.2-.23.24-.12.1-.12.1 0 .08-.01.12c0 .04-.02.07-.02.07l.15-.1c.06-.04.28-.17.5-.58.22-.4.16-.77.16-.77ZM23.22 8.51c-.02-.33-.12-.68-.25-.82 0 0-.04.54-.06.74s-.11.64-.11.64 0 .01.02.07.06.12.08.17.02.09.02.09.06-.23.09-.39c.02-.15.03-.25.03-.32s.02-.13.02 0-.02.29-.04.39c-.02.11-.06.26-.06.29 0 .02-.02.05-.02.08s0 .06.01.09v.21l.05-.1c.02-.04.06-.09.08-.15.05-.1.08-.25.1-.43.01-.09.05-.33.04-.58ZM23.52 9.81c.06-.17.19-.63.15-1.1-.04-.48-.17-.57-.17-.57s0 .06-.01.21c0 .16-.05.42-.12.71-.08.29-.2.53-.2.53.02.08.03.19.04.27 0 .08 0 .13-.01.2l.1-.16s.08-.14.15-.53.04-.15 0 .08c-.01.09-.04.22-.08.31-.05.14-.1.24-.1.24.06.02.09.1.09.19l.16-.39ZM23.62 13.27s-.19.04-.37.04-.4-.04-.51-.06c-.11-.03-.16-.05-.17-.03-.02.01-.05.03-.1.04-.04 0-.05 0-.02.03.03.02.2.11.29.13.1.02.15 0 .15.02 0 0 0 .02-.07.02s-.24-.05-.3-.08c-.07-.03-.14-.05-.14-.05s-.03.12.09.17.33.16.53.16c.21 0 .5-.07.59-.22.08-.14.06-.16.03-.15ZM23.96 12.7s-.2.07-.44.1-.5 0-.5 0-.1.07-.14.08-.06.03 0 .05.23.05.32.04.14 0 .03.02-.22 0-.3 0c-.09-.01-.14-.02-.14-.02s0 .07-.02.12c-.03.04-.03.05-.03.05s.08.06.29.06.4-.03.54-.07.3-.12.38-.25.07-.15.07-.15 0-.02-.05-.01ZM24.27 12s-.22.14-.45.22-.34.13-.47.14-.14.02-.17.04-.08.04-.13.05c-.05 0-.1.02-.1.02s.06.02.08.03.08 0 .18-.01.35-.04.4-.06c.06-.02.09-.04.09-.03s-.06.04-.16.06-.11.03-.27.05-.21.03-.21.03.04.03.02.08c-.01.04-.02.06-.02.06s.33.01.63-.09c.3-.11.35-.17.47-.31s.12-.2.13-.25.02-.08-.03-.04ZM24.41 11.36s-.12.09-.21.15c-.05.03-.09.07-.13.09-.13.07-.26.12-.41.17s-.25.06-.25.06-.06.09-.1.11-.11.06-.03.04.24-.04.37-.09.2-.1.2-.08-.04.05-.18.1-.25.07-.36.1c-.1.03-.11.03-.12.03s-.06.01 0 .02c.06 0 .09 0 .11.05.01.04-.02.1 0 .12.07 0 .37-.08.63-.26s.29-.22.37-.34.12-.23.12-.25.02-.05-.03-.02ZM23.43 11.53l.03.06s.16-.09.26-.16.21-.13.23-.15.07-.02 0 .03c-.08.05-.19.13-.29.19s-.19.11-.19.11 0 .07-.01.09-.01.04.03.03c.04-.02.26-.08.52-.28s.37-.46.4-.58.02-.14.02-.17q0-.045-.03 0c-.02.02-.26.29-.39.4s-.3.23-.39.28c-.1.05-.18.07-.2.1s-.04.05-.04.05.05 0 .08.02ZM22.35 13.51s-.08.03-.15.04h-.1s.16.14.24.17.09.04.12.06.04.03 0 .02-.07-.03-.13-.05-.11-.06-.15-.09-.06-.04-.06-.04.02.11-.04.15-.08.05-.08.05.19.12.47.19.42.04.53 0c.13-.05.15-.18.15-.18s-.22-.03-.48-.14-.33-.17-.33-.17ZM21.79 13.87l-.04.02s.16.16.26.22c.11.06.07.06-.04 0s-.17-.12-.21-.16-.05-.04-.05-.04-.06.08-.04.19.15.28.51.29.49-.15.49-.15-.17 0-.47-.18c-.29-.18-.37-.2-.41-.19M21.69 14.28c-.05-.06-.08-.09-.1-.12s0-.04-.07-.03h-.14s-.06 0-.02.04c.04.05.1.12.16.15.06.04.12.06.12.07s-.1-.02-.17-.06c-.06-.05-.12-.13-.15-.17s-.03-.05-.03-.05-.14-.02-.19-.06a.7.7 0 0 1-.09-.09s0 .17.18.38q.105.12.21.18c.11.06.22.08.32.07.16-.02.18-.05.18-.05s.03-.01 0-.06l-.18-.21ZM20.94 14.1c-.02.07-.04.13-.06.19.01.01.02.03.04.05.02.04.05.12.05.12s-.02-.02-.06-.07c-.02-.03-.04-.04-.05-.05-.02.03-.03.06-.05.09.01.07.04.16.14.21s.2.04.24 0c.05-.04-.03-.08-.11-.21-.07-.11-.12-.27-.14-.33M20.85 9.13s.03.07.07.07.07-.03.07-.07-.03-.07-.07-.07-.07.03-.07.07M20.04 9.1s.08.04.12.05a.6.6 0 0 0 .4-.03c.14-.08.26-.13.35-.14.07 0 .11.02.18.03.02 0 .04 0 .05-.02.01-.03 0-.1-.1-.15-.1-.06-.25-.05-.39-.01-.13.04-.21.09-.27.13-.05.04-.12.1-.13.09-.02-.01.03-.04.06-.07s.04-.03.04-.03a.66.66 0 0 1-.43-.13s-.04.19.13.29Z"/><path fill="#e9b528" fill-rule="evenodd" d="M21.53 9.01c-.1-.05-.2-.04-.32 0-.12.05-.18.08-.18.08s.02.1-.06.15c-.07.05-.15.02-.17-.03s-.03-.07-.03-.07-.11.06-.27.09c-.09.02-.25.03-.36 0 0 0-.1.09-.17.15s-.15.1-.15.1 0 .02.04.03c.03.01.04.02.02.05-.02.04-.19.18-.26.23s-.17.09-.17.09.03.06.08.08.06.05.04.08-.19.22-.26.28-.12.07-.15.08c-.03 0-.09.04-.03.11s.21.1.35.05c.15-.04.29-.21.29-.21s-.03.25-.03.36.01.25.03.32.04.1.04.1.1-.06.17-.23.08-.27.08-.32 0-.08.05-.05c.04.03.08.05.1.05h.03s-.03-.12-.03-.22.03-.3.07-.33c.04-.04.05.01.05.04 0 .05.05.11.11.12.02-.14.05-.25.16-.37.02-.02.03-.05.1-.02.1.04.24.07.34.03s.18-.15.16-.16c0 0-.16.08-.28.04s-.18-.08-.11-.15.1-.08.24-.2.25-.17.38-.15c.12.02.15.09.16.11.01.01.06.06.06-.04s-.05-.24-.15-.28ZM20.22 11l-.07-.13s0 .02-.03.09-.1.17-.1.17.06-.01.12-.03.11-.06.11-.06-.01 0-.03-.04"/><path fill="#e9b528" fill-rule="evenodd" d="M19.72 10.62s-.04.1-.13.19-.16.08-.16.08l.08-.05c.07-.05.13-.18.13-.18-.07.04-.24.09-.33.07l-.03.09c-.02.06-.08.16-.12.2-.03.04 0 .05 0 .05s.02.02.23.08.4.03.4.03 0-.02-.04-.16c-.04-.15-.02-.38-.02-.38ZM17.09 9.13s.03.07.07.07.07-.03.07-.07-.03-.07-.07-.07-.07.03-.07.07M17.01 9.01c.07 0 .1-.03.18-.03.09 0 .2.06.35.14.11.05.26.08.4.03.04-.01.08-.03.12-.05.17-.1.13-.29.13-.29a.7.7 0 0 1-.43.13s.01 0 .04.03.07.05.06.07c-.02.01-.08-.05-.13-.09a.7.7 0 0 0-.27-.13.57.57 0 0 0-.39.01c-.1.06-.11.13-.1.15 0 .02.03.02.05.02Z"/><path fill="#e9b528" fill-rule="evenodd" d="M18.9 10.42s-.08-.02-.15-.08-.24-.25-.26-.28-.01-.06.04-.08.08-.08.08-.08-.1-.04-.17-.09-.23-.2-.26-.23-.01-.04.02-.05.04-.03.04-.03-.08-.05-.15-.1c-.07-.06-.17-.15-.17-.15-.11.04-.27.02-.36 0-.16-.03-.27-.09-.27-.09s0 .03-.03.07c-.02.05-.09.08-.17.03-.07-.05-.06-.15-.06-.15s-.06-.04-.18-.08c-.12-.05-.22-.05-.32 0s-.15.18-.15.28.05.06.06.05.03-.09.16-.11c.12-.02.24.04.38.15.14.12.17.12.24.2.07.07.01.11-.11.15s-.27-.04-.28-.04c-.02.01.05.12.16.16.1.04.24.01.34-.03.07-.03.08 0 .1.02.11.12.14.23.16.37.06-.02.1-.08.11-.12 0-.02.01-.07.05-.04.04.04.07.24.07.33s-.03.22-.03.22h.03c.02 0 .05-.02.1-.05.04-.03.05 0 .05.05s.02.15.08.32c.07.17.17.23.17.23s.02-.03.04-.1.03-.2.03-.32-.03-.36-.03-.36.14.17.29.21.29.02.35-.05 0-.1-.03-.11Z"/><path fill="#e9b528" fill-rule="evenodd" d="M17.94 10.87s-.04.1-.07.13c-.02.03-.03.04-.03.04s.04.04.11.06c.06.02.12.03.12.03s-.07-.1-.1-.17-.03-.09-.03-.09M18.82 10.81l-.03-.09a.54.54 0 0 1-.33-.07s.07.14.13.18c.07.05.08.05.08.05s-.07.01-.16-.08-.13-.19-.13-.19.02.24-.02.38-.04.16-.04.16.19.03.4-.03.23-.08.23-.08.03 0 0-.05c-.03-.04-.1-.15-.12-.2ZM18.07 16.13s.13-.02.17-.07.06-.13.09-.17.05-.08.05-.08 0 .07-.05.17c-.04.09-.04.22-.04.28.02.11.09.13.13.11.03-.01.08-.06.12-.13.01-.02.02-.06.04-.08.03-.05.05-.14.07-.14.03 0 0 .07 0 .11-.02.08-.06.21-.07.28 0 .07 0 .21.08.21.07 0 .11-.06.16-.21.04-.15.05-.2.07-.2s.02.1.02.15v.1c.01.08.04.18.06.2.04.03.07.03.07.03s.03 0 .07-.03.07-.26.07-.3 0-.15.02-.15.03.05.07.2.08.22.16.21c.07 0 .08-.14.08-.21s-.04-.2-.07-.28c-.02-.08 0-.08.07.03.02.03.04.07.05.1.04.06.08.1.11.11.04.01.11 0 .13-.11s-.07-.43-.07-.43l.04.05c.03.04.04.12.09.17.04.05.13.08.17.07s.05-.1.02-.25-.17-.23-.26-.35c-.09-.11-.16-.3-.17-.33-.12.06-.23.13-.32.23-.2.21-.24.26-.24.26s-.04-.05-.24-.26c-.1-.1-.2-.17-.32-.23-.01.03-.09.21-.18.32-.04.06-.1.1-.15.15-.05.06-.08.14-.1.22-.03.15-.03.23.02.25Z"/><path fill="#e9b528" fill-rule="evenodd" d="M18.07 16.63c.06-.05.09-.08.09-.08s.04-.03.03.03c-.01.07-.03.2-.02.26s.02.11.09.07.09-.07.13-.11c.03-.04.07-.05.06 0 0 .06-.03.15-.02.26.01.12.07.13.15.03s.12-.19.14-.24.07-.09.07 0c0 .2.04.48.26.56.22-.08.26-.36.26-.56 0-.09.05-.05.07 0s.07.14.14.24c.08.1.13.08.15-.03.01-.12-.01-.2-.02-.26 0-.06.03-.04.06 0s.05.06.13.11c.07.04.08 0 .09-.07.01-.06 0-.2-.02-.26-.01-.07.03-.03.03-.03s.03.03.09.08.14.05.14.05.04-.21-.05-.33l-.12-.16s-.05 0-.09-.02c-.04-.01-.07-.04-.07-.04v.11l.13.13c.02.03.07.08 0 .03s-.13-.1-.13-.1-.01.1-.04.13-.07.03-.09.02h-.02v.03s.06.12.07.17c0 .05 0 .04-.03-.02s-.09-.14-.11-.19c-.03-.04-.06-.07-.06-.02 0 .06-.02.16-.04.19-.02.04-.03.05-.03.05s.04.14.05.17c0 .03 0 .06-.02.02-.02-.03-.09-.17-.09-.17s-.09 0-.11-.03a.7.7 0 0 1-.06-.12s-.04.12-.06.16c-.03.04-.1.08-.1.08v.25c0 .04 0 .05-.02.05s-.02-.02-.02-.05v-.25s-.07-.04-.1-.08a.7.7 0 0 1-.06-.16s-.04.09-.06.12c-.02.02-.11.03-.11.03s-.06.14-.09.17c-.02.03-.03 0-.02-.02 0-.03.05-.17.05-.17s-.01-.01-.03-.05a.6.6 0 0 1-.04-.19c0-.06-.03-.03-.06.02-.03.04-.08.12-.11.19-.03.06-.04.07-.03.02 0-.05.07-.17.07-.17v-.04h-.02c-.02 0-.06 0-.09-.02-.03-.03-.04-.13-.04-.13s-.06.05-.13.1-.02 0 0-.03.13-.13.13-.13v-.11s-.04.03-.07.04c-.04.01-.09.02-.09.02l-.12.16c-.09.12-.05.33-.05.33s.08 0 .14-.05Z"/><path fill="#e9b528" fill-rule="evenodd" d="M17.84 17.33c.05-.03.1-.07.21-.15a.5.5 0 0 0 .16-.16h-.04s-.04-.03-.04-.06v-.17c0-.07-.01-.13-.01-.13s-.05.05-.13.09-.11.02-.11.02l-.02-.08s-.03.07-.08.15-.17.17-.26.24-.19.14-.26.16c-.07.03-.03.06-.03.06s.07.07.26.11.28-.04.33-.08Z"/><path fill="#e9b528" fill-rule="evenodd" d="M18.5 17.26c-.07 0-.11-.03-.12-.11v-.23l-.05.05c-.03.03-.08.04-.08.04s0 .03-.03.07-.06.09-.12.13c-.07.04-.14.09-.19.13s-.11.09-.17.13c-.07.04-.12.09-.15.19-.02.1 0 .13.07.12.08 0 .08 0 .21-.03.12-.03.3-.17.42-.25.13-.08.22-.24.22-.24Z"/><path fill="#e9b528" fill-rule="evenodd" d="M18.84 17.37s-.05-.07-.07-.14l-.06-.22s-.02.05-.06.13c-.04.09-.11.11-.11.11s0 .04-.06.11-.14.14-.23.2c-.09.05-.2.12-.26.21s-.07.18-.04.22.07 0 .13-.03.23-.06.46-.18.31-.41.31-.41Z"/><path fill="#e9b528" fill-rule="evenodd" d="M18.94 17.89c.06-.09.07-.33.07-.33s-.02-.02-.05-.04c-.03-.03-.09-.12-.09-.12s-.04.08-.08.15-.06.1-.15.18-.2.16-.25.24-.02.25.01.31.08.04.13 0c.05-.05.06-.06.15-.13.08-.07.2-.17.26-.26M20.83 17.24c-.07-.03-.17-.1-.26-.16-.09-.07-.22-.16-.26-.24-.05-.08-.08-.15-.08-.15l-.02.08s-.03.02-.11-.02a.6.6 0 0 1-.13-.09s-.02.06-.01.13c0 .07.01.14 0 .17 0 .03-.02.06-.04.06h-.04s.04.09.16.16c.12.08.16.11.21.15.05.03.14.11.33.08s.26-.11.26-.11.04-.03-.03-.06Z"/><path fill="#e9b528" fill-rule="evenodd" d="M20.36 17.46a.8.8 0 0 1-.17-.13c-.05-.04-.13-.09-.19-.13a.3.3 0 0 1-.12-.13c-.03-.04-.03-.07-.03-.07s-.06 0-.08-.04l-.05-.05s.01.18 0 .23c-.01.07-.05.1-.12.11 0 0 .09.16.22.24s.3.22.42.25.13.02.21.03c.08 0 .09-.03.07-.12a.25.25 0 0 0-.15-.19Z"/><path fill="#e9b528" fill-rule="evenodd" d="M19.84 17.56a.7.7 0 0 1-.23-.2c-.06-.07-.06-.11-.06-.11s-.07-.02-.11-.11l-.06-.13s-.04.15-.05.22c-.02.07-.07.14-.07.14s.08.28.31.41c.23.12.4.15.46.18s.1.07.13.03.02-.13-.04-.22-.18-.16-.26-.21Z"/><path fill="#e9b528" fill-rule="evenodd" d="M19.45 17.74a.6.6 0 0 1-.15-.18c-.04-.07-.08-.15-.08-.15s-.06.09-.09.12-.05.04-.05.04.01.23.07.33c.06.09.18.19.27.26.08.07.1.08.15.13s.09.07.13 0c.03-.06.06-.23.01-.31s-.17-.16-.25-.24ZM19.12 18a.25.25 0 0 1-.07-.1l-.07.1c-.06.06-.18.17-.18.17s.01.17.07.26c.05.08.1.15.18.2.08-.05.13-.13.18-.2.06-.09.07-.26.07-.26s-.13-.1-.18-.17"/><path fill="#005d95" fill-rule="evenodd" d="M23.75 15.9c-.05-.01-.07-.03-.07-.03s-.02 0-.04.03-.08.07-.08.07-.09.02-.11.09c-.01.06.03.09.08.08.04 0 .15-.03.2-.09s.05-.09.06-.11c0-.02.01-.03-.04-.04M23.89 15.4c-.03-.14-.12-.32-.3-.4 0 0-.07.23-.09.31-.02.07-.02.07.04.09.06.01.24.05.27.06.04 0 .1.04.08-.05ZM23.05 15.26s.04 0 .05-.07c.01-.06.09-.34.09-.34s-.19 0-.35.07c-.16.08-.23.22-.23.22s.04.02.15.04.25.06.29.07ZM22.62 15.65c-.07-.01-.09-.02-.09-.02s.04.16.11.25.14.13.29.13c.14 0 .25-.08.27-.14s.05-.11.05-.11-.26-.03-.36-.06c-.11-.02-.19-.05-.26-.06Z"/><path fill="#de6f10" fill-rule="evenodd" d="M20.57 12.54c-.07-.4.16-.75.16-.75l-.45-.52c-.34.19-.82.17-1.24-.02-.42.19-.89.22-1.24.02l-.45.52s.23.35.16.75-.21 1.03-.17 1.28c.04.26.22.55.4.71.19.16.46.29.66.36s.39.21.48.28.15.13.15.13.06-.06.15-.13.28-.21.48-.28.47-.2.66-.36.37-.45.4-.71c.04-.26-.11-.89-.17-1.28ZM19.66 10.29c-.07.08-.23.15-.23.15s.06 0 .13-.03c.06-.04.16-.12.18-.15s0-.06 0-.06 0 .02-.07.09ZM19.93 10.44l-.02.34c0 .01 0 .1-.03.12.01 0 .03 0 .04-.04 0-.06.06-.43.06-.43h-.03s-.03-.03-.03.02ZM20.43 9.69s-.1.06-.13.09c-.04.03-.06.03-.09.05s-.02-.06 0-.12.09-.13.14-.19 0-.04-.03-.02c-.02.02-.08.08-.15.19s-.1.35-.1.35.04-.02.08-.05.08-.05.16-.11.12-.1.16-.14-.01-.05-.04-.04ZM18.43 10.29c-.07-.08-.07-.09-.07-.09s-.02.02 0 .06c.02.03.11.11.18.15.06.04.13.05.13.05s-.16-.08-.23-.16ZM18.17 10.78s-.02-.3-.02-.34-.03-.03-.03-.03h-.03s.06.39.06.45c0 .05.03.04.04.04-.02-.01-.03-.1-.03-.12ZM17.77 9.5s-.08-.04-.03.02.12.13.14.19.03.14 0 .12-.06-.02-.1-.05-.1-.08-.13-.09c-.03 0-.08 0-.04.04s.08.09.16.14c.08.06.12.08.16.11s.08.05.08.05-.04-.24-.1-.35a.7.7 0 0 0-.15-.19ZM19.04 16.39v-.05c0-.03 0-.12.01-.16 0-.05-.01-.05-.03-.04-.01 0-.02.04-.02.06v.17c0 .03 0 .03.02.03ZM19.91 15.95c.03.07.04.06.03 0s-.04-.11-.07-.16-.11-.13-.11-.13.02.05.05.09.07.13.1.2M19.58 16.01s.08.17.09.17c0 0-.03-.11-.05-.19-.02-.07-.06-.13-.07-.13v.05s.01.06.02.1ZM19.32 16.22s.03.07.04.07c0 0-.02-.07-.02-.09s0-.06-.03-.11c-.02-.04-.03-.02-.03 0s.03.1.03.1zM18.19 15.95c.03-.07.07-.15.1-.2.03-.04.05-.09.05-.09s-.08.08-.11.13-.05.1-.07.16c-.01.06 0 .07.03 0M18.51 16.01l.02-.08s.01-.04 0-.05c0 0-.04.03-.06.1-.02.08-.06.18-.05.19 0 0 .08-.12.09-.17ZM18.77 16.22l.01-.03s.03-.09.03-.1 0-.04-.03 0c-.02.04-.02.09-.03.11 0 .02-.03.09-.02.09 0 0 .03-.03.04-.07M17.97 17l-.03-.02s-.02.03-.05.06-.06.04-.08.07-.06.07-.11.09c-.05.03-.07.04-.06.05.01 0 .05-.01.05-.01s.02 0 .08-.04.08-.06.12-.09l.1-.1ZM18.25 17.33s.05-.04.04-.06c-.01-.01-.03-.01-.05 0-.02.02-.09.08-.12.11s-.05.04-.08.06-.09.06-.12.07c-.03.02 0 .02 0 .02s.02-.01.05-.02c.03 0 .1-.04.1-.04s.03-.01.07-.04.1-.08.12-.11ZM18.57 17.56s0-.03-.04-.02c-.03.01-.11.1-.16.13-.04.03-.08.04-.12.06s-.04.03-.04.04h.03c.02 0 .07-.04.07-.04h.04c.02 0 .05-.02.1-.06s.09-.06.11-.11ZM18.72 17.85a.6.6 0 0 0-.18.16c-.03.05-.04.09-.03.1 0 0 .04 0 .05-.03.01-.02.04-.05.04-.05s.1-.1.13-.12c.04-.02.09-.09.11-.12.01-.04 0-.06 0-.06s-.06.09-.12.12M20.4 17.21a.4.4 0 0 1-.11-.09c-.02-.03-.06-.04-.08-.07-.03-.03-.05-.06-.05-.06l-.03.02s.06.07.1.1c.04.04.06.06.12.09.06.04.08.04.08.04s.04.02.05.01c.01 0-.01-.02-.06-.05ZM20.18 17.53s-.09-.05-.12-.07-.05-.04-.08-.06c-.03-.03-.09-.09-.12-.11-.02-.02-.04-.02-.05 0-.01.01.01.03.04.06.02.03.08.08.12.11s.07.04.07.04.07.03.1.04.05.02.05.02.03 0 0-.02ZM19.84 17.73s-.08-.03-.12-.06-.12-.12-.16-.13c-.03-.01-.06-.03-.04.02.02.04.06.07.11.11s.08.06.1.06h.04s.05.03.07.04h.03s0-.02-.04-.04ZM19.37 17.85c-.06-.03-.12-.12-.12-.12s-.01.02 0 .06.07.1.11.12a.8.8 0 0 1 .17.17c.01.02.04.04.05.03 0 0 0-.04-.03-.1a.6.6 0 0 0-.18-.16M19.02 18.21s0 .14.03.14.02-.1.03-.14v-.13h-.07v.13Z"/><path fill="#005d95" fill-rule="evenodd" d="M20.52 12.59c-.06-.43.13-.78.13-.78l-.4-.45c-.34.17-.75.13-1.2-.03-.45.16-.86.2-1.2.03l-.4.45s.19.35.13.78-.16.92-.14 1.2v.06h.37s.02-.02.06-.04.05-.03.05-.03 0-.07.05-.09c.04-.02.06-.02.08-.02s.03 0 .05-.03c.02-.02.08-.07.1-.15.03-.07.04-.1.04-.15s.02-.13.02-.13 0-.02-.05 0c-.04.01-.04-.02-.05-.06 0-.04 0-.11.02-.15s.03-.05.03-.05l-.02-.06s-.23.05-.27-.13-.05-.27-.05-.29-.01-.03-.04-.03-.1-.02-.14-.11c-.05-.09-.05-.13-.04-.17s.04-.02.05-.01c0 .01.07.1.1.08.03-.03.01-.03-.02-.1s-.02-.09-.02-.13-.01-.08-.01-.1.02-.04.04-.03c.02 0 .04.03.05.04 0 .01.01.03.03.02s0-.08 0-.1.03-.04.06-.02.05.05.05.07 0 .04.01.04.03-.04.03-.06.02-.06.04-.03.03.07.02.12v.1c-.02.08-.02.11-.02.17s0 .09.03.16.05.16.11.16h.07s.06-.12.11-.14c.05-.03.11-.03.16-.04.05 0 .07-.02.07-.03s-.02-.02-.07-.02c-.06 0-.1-.02-.1-.06s0-.08-.03-.08c-.04 0-.13-.03-.16-.09s-.03-.07-.02-.11c0-.03.05-.1.07-.04.03.06.04.07.07.08s.05.02.04-.03c-.02-.04-.03-.07-.02-.1 0-.03.03-.04.05-.05.03 0 .1-.03.14-.04.04 0 .04-.01.04-.01s0-.03.05-.04c.05-.02.08-.02.12-.02s.06 0 .11-.02q.075-.03.12-.03c.03 0 .05.01.08.03.02.02.02.04.02.06s0 .03.04.03.06 0 .09.01.07.03.05.06c-.03.03-.03.07-.05.07s-.02.02-.02.03-.01.02 0 .03c.02.01.02.02.05.05s.07.05.03.09-.11.07-.11.07-.04.02 0 .05c.05.03.07.08.09.09.02 0 .03.03.05.03.01 0 0 .04 0 .04s-.03.02-.06.03-.07.03-.1.03-.05 0-.04.03.04.06.04.08.01.05.01.05.05.01.1.01h.18c.11-.01.14-.02.24 0 .1.01.12 0 .15.02.03 0 .05.02.05.02s.15 0 .23-.02.1-.07.09-.1 0-.07-.15-.09c-.14-.02-.2-.01-.31-.03s-.28-.08-.31-.22.08-.2.14-.22c.06-.03.18-.07.23-.09.06-.02.16-.05.27-.03s.17.04.21.02c.04-.03.08 0 .07.03 0 .04-.05.12-.17.16s-.27.04-.35.02-.14-.05-.19-.04c-.05.02-.1.08-.05.15s.32.09.39.1c.07 0 .34-.01.41.12.08.13.02.28-.07.31s-.17.05-.23.06h-.07s.03.08.03.11 0 .08.03.11c.03.02.08.04.14.03.06 0 .12.03.13.08 0 .05.02.12.03.22v.19s0 .04-.02.08c-.01.04-.08.18-.08.18h.39v-.06c.02-.29-.08-.77-.14-1.2Z"/><path fill="#618d33" fill-rule="evenodd" d="M17.48 14.04c.08.22.23.44.48.59.33.2.48.17.79.38.32.21.3.24.3.24s-.02-.03.3-.24.46-.18.79-.38c.24-.14.4-.37.48-.59z"/><path fill="#e9b528" fill-rule="evenodd" d="M17.75 12.35s.06.05.12.04c.05 0 .07.03.08.08 0 .04 0 .15.05.24s.17.1.17.1c0-.05.02-.11.04-.16 0 0 .02-.05-.03-.05s-.05-.02-.07-.06c-.03-.05-.08-.17-.1-.24-.01-.08.01-.19.02-.23s.02-.07 0-.08h-.05s.01.04 0 .04-.02-.02-.03-.05c0-.03-.02-.02-.04-.02s-.02.02 0 .04c.01.02 0 .05 0 .05s-.04-.03-.06-.04c-.02 0-.06 0-.06.03 0 .02.02.08.05.11.04.03.04.09.02.12-.01.03-.06.02-.08.01-.01-.01-.03-.02-.05 0s-.03.03 0 .06Z"/><path fill="#e9b528" fill-rule="evenodd" d="m17.73 12.25-.03-.03-.02-.03v.03c0 .03.02.05.02.05zM17.81 11.98s.03-.01.02-.03-.02-.04-.04-.04h-.02s.02.03.02.05 0 .03.03.02ZM17.91 11.9s0 .02.02.02.02-.03.01-.04c0-.02-.02-.03-.02-.03h-.01zM18.05 11.93v-.04zv.02c0 .01.01 0 .01-.02ZM18.27 12.89c.03.06.1-.04.16-.12s.06-.02.05.05c0 .07.02.14.04.18.03.05.05.02.06-.01s.02-.1.04-.13.04 0 .05.02c0 .03.04.09.07.13s.05-.01.06-.06.02-.11.03-.14c0-.03.04 0 .04 0l.06.06c.04.04.05-.02.05-.06v-.11c.01-.01.05.02.1.04.06.03.05-.03.05-.06s-.04-.1-.08-.14-.05-.08-.04-.1.07 0 .1 0 .05 0 .08-.01c.03 0 .03-.03.03-.03s-.02-.03-.06-.06-.06-.06-.1-.07c-.05-.01-.11 0-.11 0s-.02-.03-.03-.01c0 .01-.03.03-.05.05s-.03.02-.04.02 0-.02 0-.02.02-.02.05-.06c.02-.04.03-.08.01-.1s-.06 0-.09 0h-.04c0-.01.03 0 .06-.01.03 0 .05-.04.06-.07s.02-.03.04 0c.02.02.04.01.04 0s.02-.05.04-.08.03-.08.01-.11-.08-.03-.1 0c-.02.02-.04.04-.04.09s-.02.02-.02 0-.02-.04-.01-.06v-.04s0-.04-.05-.05c-.04 0-.1 0-.14.01s-.04.05-.04.05h-.07c-.04 0-.08.02-.11.03-.03 0-.05.01-.05.03v.05h.04c.01 0 0 .02-.01.03-.02 0-.02 0-.02.03s0 .03.03.03.05 0 .1.02c.04.02.05.06.05.08s-.06.05-.09.05-.04 0-.04.03.04.02.04.02.04 0 .11.01c.07 0 .08.02.11.05s0 .03 0 .04c-.01 0-.04.03-.06.04-.02 0-.04.03-.06.03s-.07 0-.17.04-.13.17-.13.17.01 0 .06-.03c.04-.02.1-.05.15-.08s.05.02.03.06c-.03.05.02.04.04.02.01-.01.03-.03.08-.05.05-.03.03.02.03.02s-.01.03-.02.1c0 .07.07 0 .1-.04.03-.05.05 0 .02.05s-.07.09-.1.09-.05-.03-.05-.05v-.08c-.02-.01-.07 0-.1.02-.04.02-.05 0-.05-.01 0-.02.01-.03 0-.04 0-.01-.03 0-.04 0s-.05.03-.12.06-.06.05-.06.1.01.06.04.12ZM18.91 11.81l.04-.02s.03 0 .06-.01c.03 0 .02-.02.02-.03s-.02-.02-.06-.02-.06.02-.08.03c-.02 0-.05.02-.05.02l.02.03c.01.02.04.02.05.01Z"/><path fill="#e9b528" fill-rule="evenodd" d="M19.07 11.97h.03s.03-.01.05-.02c.03 0 .04-.01.05-.04.02-.03-.02-.03-.06-.04s-.07 0-.07.02 0 .04-.02.07 0 .03.02.03ZM19.05 12.01s-.09.06-.11.08c-.02.01 0 .02 0 .02s.01.03.02.05v.07h.03c.03 0 .04-.01.06-.03s.04-.02.08-.03c.03 0 .05-.01.09-.03s-.02-.06-.06-.09a.17.17 0 0 0-.11-.04M18.48 12.15s.05-.02.05-.04-.02-.04-.06-.04c-.11 0-.21-.03-.23-.13 0 0-.04.07.03.14s.18.07.21.07M18.12 13.83s.01.02.02.02h.16s.03-.03.03-.05.02-.08.04-.19.06-.19.08-.23-.02-.06-.03-.09-.03-.08-.03-.1-.04-.02-.06-.02-.02.04-.03.07c0 .03-.02.13-.03.21-.02.08-.11.19-.14.22q-.045.03-.06.03c-.015 0-.06 0-.08.01s-.04.04-.04.07c0 .02.04.04.04.04s.03-.02.04-.03.04-.02.06-.02c.03 0 .03 0 .02.02 0 .01 0 .02.01.05ZM17.87 13.82l-.03.03h.11s0-.02-.01-.03c-.01-.02-.05 0-.07 0"/><path fill="#e9b528" fill-rule="evenodd" d="M18.01 13.82s-.03.02-.04.03h.11v-.04c-.03-.02-.05 0-.07 0ZM19.01 13.77l-.04.02c-.02.01-.02.03-.03.05h.05c0-.01 0-.03.03-.04.02-.02 0-.03-.01-.03M19.1 13.82s0-.03-.02-.03c-.01 0-.03.02-.04.03l-.02.02h.07v-.02ZM19.55 13.29s.03-.03.03-.06 0-.03-.01-.04c-.01 0-.07-.03-.11-.03s-.14.01-.17.03-.05.11-.05.15 0 .05.02.05.03-.03.03-.03.05.06.07.1c.03.04.02.06 0 .09-.01.03-.06.12-.09.13-.04.02-.06 0-.11 0-.04 0-.07 0-.09.03-.02.02 0 .04.01.04s.04 0 .05.02c.01.01 0 .05 0 .07h.21s.06-.07.07-.09c.01-.03.06-.07.08-.09s.02-.03.02-.08-.01-.07-.03-.1-.03-.08-.02-.1c0-.03.05-.06.09-.08Z"/><path fill="#e9b528" fill-rule="evenodd" d="M19.2 12.76s.01.04-.02.05c-.03 0-.06.01-.11 0-.05 0-.05 0-.05.03 0 .02 0 .07-.03.11s-.06.02-.08 0c-.02-.01-.03-.01-.04.02 0 .03-.02.05-.05.08-.02.04-.04.04-.05.04s-.03-.03-.05-.03-.04-.03-.06-.07-.04 0-.05.04c-.02.03-.03.06-.06.05-.03 0-.06-.06-.08-.1-.02-.03-.03-.07-.05-.07-.03 0-.07.06-.1.07s-.04 0-.05 0c-.01-.02-.03 0-.05.05-.02.04 0 .08.03.09s.07-.02.1-.04.05-.02.08-.02.03.05.05.13c.01.08.06.09.06.09s.02.01.05-.05c.04-.06.04-.12.07-.12s.04 0 .07.06c.03.05.06.08.08.05.02-.04.04-.09.06-.11s.04-.02.02.01-.03.07.01.06c.05-.01.24-.09.31-.1l.19-.02c.1 0 .13-.01.17-.01s.04 0 .04-.03-.02-.02-.09-.02-.13 0-.18.02h-.07c0-.01.02-.02.08-.03.06 0 .18-.02.24-.02s.04.02.04.06v.14c0 .04 0 .05.04.11.03.06.15.09.19.11.03.02.03 0 .03-.03s.03-.03.06-.01.08.03.12.04c.04 0 .04.02.04.03v.1c0 .04 0 .05-.01.07-.02.02-.08.09-.08.09s-.03 0-.1.02c-.06.02-.08.05-.09.07 0 .03.01.03.01.05v.03h.02s.01-.02.02-.03c.02-.03.08-.04.12-.02.02.01.02.04.02.05h.15s.07-.13.08-.16c.02-.04.03-.06.03-.11v-.35c0-.05 0-.09-.1-.1-.1 0-.13-.05-.16-.08s-.03-.11-.05-.2c-.03-.09-.09-.11-.21-.13s-.2-.03-.29-.02c-.09 0-.19.02-.25.01-.06 0-.05.01-.03.05Z"/><path fill="#e9b528" fill-rule="evenodd" d="M19.75 13.83s-.02.01-.02.02h.1v-.03c-.02-.02-.04 0-.07 0ZM19.93 13.82s-.03.02-.03.03h.1v-.01c0-.02-.03-.03-.07-.02M17.44 13.88s.01.06.02.1h3.18s.02-.06.02-.1zM19.58 12.37c.1.07.42.07.57.1s.14.14.09.2-.26.07-.29.07c.02.01.05.06.05.06h.09c.06 0 .17-.02.25-.08s.07-.17 0-.23c-.07-.07-.18-.08-.29-.09s-.2-.02-.33-.04-.19-.07-.19-.15.07-.11.12-.13c.05-.01.13-.04.2 0 .07.03.15.03.29.01s.17-.11.17-.11-.02 0-.09.01c-.07 0-.12-.03-.25-.03s-.17.04-.23.07c-.06.02-.22.04-.27.14s0 .15.11.22Z"/><path fill="#de6f10" fill-rule="evenodd" d="M18.74 11.83s-.06.03-.06.06.03.06.06.06.06-.03.06-.06-.03-.06-.06-.06M20.03 11.99c-.08 0-.18.01-.18.01s.02.02.05.01c.03 0 .07 0 .15.01s.13-.02.13-.02-.07 0-.15-.02Z"/><path fill="#e9b528" fill-rule="evenodd" d="M22.58 15.55c.06.01.59.11.63.12.04 0 .08.02.09 0 .01-.01.02-.02.07-.04s.04-.06.04-.06.01-.04.02-.09c0-.04.03-.06.08 0 .05.05.06.13.07.21 0 .08.13.1.18.1s.07 0 .1-.05c.03-.04.04-.13.05-.19 0-.06 0-.05-.06-.07-.06-.01-.33-.08-.38-.09s-.04-.04-.03-.08c0-.03.11-.38.11-.38a.7.7 0 0 0-.31-.09s-.08.35-.09.41c-.01.05-.05.05-.11.04-.06 0-.46-.11-.46-.11l-.03.08c-.03.08-.05.17-.05.21s.02.04.08.06Z"/><path fill="#e9b528" fill-rule="evenodd" d="M23.97 15.87c-.05-.04-.09-.04-.12.02-.03.07-.03.16-.1.23s-.17.14-.27.13c-.1 0-.15-.03-.13-.14s.17-.15.21-.21.03-.13-.03-.17c-.05-.04-.13-.05-.15-.04s-.08.07-.11.15-.05.15-.11.21c-.07.05-.23.11-.37.08-.13-.03-.18-.07-.23-.2s-.11-.34-.13-.37c-.03-.02-.06-.04-.11 0-.06.04-.06.1-.07.15 0 .05 0 .1.06.17s.11.14.14.21c.02.07.08.18 0 .18-.09 0-.13 0-.2-.06-.07-.07-.33-.25-.41-.31-.07-.06-.1-.08-.1-.08-.12 0-.25-.05-.37-.14 0 0 .07.18.08.25s.01.11.01.11.27.14.37.19c.11.05.32.17.42.24.1.06.19.16.37.12s.55-.15.67-.19.45-.12.57-.2.13-.08.15-.16 0-.13-.05-.17ZM23.26 14.6s.03 0 .09-.01c.06 0 .04.05.03.07s-.03.07-.06.11 0 .05.03.06c.02 0 .04 0 .09.02.05.01.04-.02.04-.04v-.15c0-.04.04-.03.05-.02.01 0 .04.02.07.04.03.01.04 0 .04-.02 0-.01.02-.04.03-.08s-.01-.03-.04-.03h-.1c-.04 0-.01-.04-.01-.04s.03-.05.05-.09.01-.04 0-.05c-.02 0-.09-.02-.12-.03-.02 0-.03 0-.03.01v.11c0 .03 0 .04-.04.04s-.06-.02-.09-.05-.04-.02-.04 0c0 .01-.03.1-.03.13 0 .02 0 .02.03.02Z"/><path fill="#e9b528" fill-rule="evenodd" d="M21.23 15.6s.06-.04.12-.04.16-.03.19-.05.09-.03.15-.06.02-.04-.04-.06c-.07-.02-.24-.09-.24-.09s-.09.05-.13.07c-.05.03-.11.07-.22.08-.1.01-.14.02-.14.02s.02.03.06.08c.04.06.06.09.11.18.05.08 0 .03-.05-.02-.02-.03-.08-.1-.12-.15-.04-.04-.08-.06-.08-.06l-.03.07v.02s-.02.14-.03.18c0 .05.01.05.05.06.04.02.11.06.3.18s.27.2.27.2v-.11c0-.06 0-.16-.04-.28a.6.6 0 0 0-.13-.24Z"/><path fill="#e9b528" fill-rule="evenodd" d="M20.77 15.33s.06.02.13.02.09-.02.16-.02.11-.02.22-.08 0-.04-.07-.03c-.08 0-.27-.02-.36-.06-.08-.03-.02-.04 0-.03.02 0 .03.01.2.04s.23 0 .32-.03c.09-.02-.02-.03-.02-.03s-.31-.09-.46-.26a.67.67 0 0 1-.17-.3c-.06.07-.13.13-.2.19 0 .02.02.06.03.1.03.06.1.13.1.13s-.09-.04-.13-.08c-.03-.03-.05-.08-.07-.1-.1.07-.2.13-.3.17.01 0 .03.02.04.04.04.04.08.08.13.17.05.08 0 .08-.04 0a.7.7 0 0 0-.19-.17c-.01 0-.02.01-.04.02-.06.03-.13.05-.18.08.04.03.13.12.16.17s.11.1.13.13c.03.03.05.07.09.11.03.04.24.27.3.36.05.09.02-.02 0-.08s-.03-.14-.05-.21.02-.04.03 0 .02.04.03.11c.02.07.06.18.08.25s.03.04.04 0c.02-.03.05-.09.06-.13s.02-.12.02-.24c0-.13-.06-.18-.06-.19s.03-.03.08-.03ZM21.66 15.6s-.08.03-.11.03h-.05s.06.08.14.08h.25s-.15-.09-.17-.11a.06.06 0 0 0-.07-.01ZM23.46 15.49v.1c0 .02-.02.06 0 .07.03 0 .06.02.07.02.02 0 0-.04 0-.07a.12.12 0 0 0-.05-.09l-.02-.02ZM23.89 15.78s.03.03.04.03.03 0 .03-.02 0-.06-.02-.09-.03-.05-.05 0c-.01.04-.02.07-.01.09ZM22.39 15.49l.06.02v-.12c0-.05.03-.08.01-.08s-.03.01-.04.03-.05.02-.06.08 0 .06.02.06Z"/><path fill="#de6f10" fill-rule="evenodd" d="m16.46 13.56-.11.05s-.03 0-.03.01.04 0 .07 0c.04 0 .09-.04.11-.06.02-.01.05-.03.04-.05 0-.02-.02.02-.07.06ZM16.89 13.78l-.09.07s-.03.02-.05.03c-.03.01-.03.03-.03.03h.03c.03 0 .11-.07.14-.09s.04-.03.03-.04-.02 0-.03 0M15.17 10.74s.03.04.04.04c0 0 0-.02-.02-.04s-.03-.04-.03-.04-.03-.05-.05-.06c-.02-.02-.04-.03-.01.01s.05.07.07.09M15.04 11.02s.04.03.06.05.04.05.05.03c.01-.01-.03-.04-.05-.06s-.03-.04-.06-.06a.2.2 0 0 0-.05-.03s.04.05.06.06ZM15.09 11.48s.08.04.09.03c0-.01 0-.02-.03-.04s-.07-.04-.09-.06-.04-.03-.06-.05-.03-.03-.04-.02c0 0 .04.06.06.07.02 0 .04.03.07.07M15.18 11.85s0-.02-.02-.02h-.06s-.05-.02-.06-.01c0 .01.04.03.06.03s.05.01.06.02c.01 0 .02 0 .02-.01ZM15.22 12.25c-.06 0-.11-.01-.11 0 0 0 .03.02.06.03s.08.01.12.02c.04 0 .04 0 .04-.03 0-.02-.05-.02-.11-.02M15.68 12.69h-.06c-.03 0-.08.02-.12.02h-.14s.05 0 .12.02c.07 0 .12 0 .15-.01.03 0 .05-.02.04-.03ZM15.86 13.01s-.06.02-.09.02-.09.01-.09.01-.03 0-.03.02c0 .01.02 0 .04 0h.1c.05 0 .07-.01.1-.02.03 0 .06-.02.05-.04-.02-.02-.05 0-.08.02ZM16.23 13.24l-.1.07s-.02.01-.05.03-.03.02-.02.03l.04-.02c.02 0 .07-.04.1-.07.03-.02.07-.04.06-.06 0-.02-.01 0-.03.02M15.62 10.18s0 .02.07.09c.06.08.03 0 .01-.02s-.11-.15-.14-.19-.04-.02-.02 0 .08.1.08.1ZM15.49 10.59s-.01-.02-.05-.06-.11-.14-.11-.14-.02-.04-.03-.04c0 0 .02.07.05.1s.07.09.09.11.03.04.04.03ZM15.66 11.34l-.1-.03c-.03 0-.09-.02-.09-.02s-.07-.01-.07 0c0 0 .01.02.05.02s.09.02.13.03c.04 0 .08.02.08 0M15.49 10.93s.08.06.1.07.04.03.06.02c.01-.02-.01-.03-.05-.04l-.06-.03-.04-.02c-.02-.01-.05-.02 0 .01ZM15.89 10.66l-.05-.04s-.04-.03-.04-.02.04.04.06.06.06.08.08.07-.02-.05-.05-.07M15.63 11.72s-.04.01-.06.02c-.03 0-.03.02.02.02s.06-.01.11-.02c.05 0 .06-.01.05-.03 0-.02-.03-.01-.05 0a.3.3 0 0 0-.07.02ZM15.7 12.1h.06c.02 0 .07-.03.1-.04.03 0 .03-.01.03-.03s-.03 0-.07 0c-.04.01-.08.05-.08.05l-.03.02ZM16.19 12.33s.04-.04.03-.05-.02 0-.05.01c-.03.02-.08.06-.08.06s-.03.01-.05.02-.05.03-.04.04c0 .01.05 0 .07-.02s.08-.05.12-.07ZM16.42 12.63s.05-.03.07-.04.03-.05.02-.06c-.02 0-.02.02-.06.04-.03.02-.14.1-.14.1l-.03.01c-.03.01-.02.02 0 .02.03 0 .04 0 .07-.03.03-.02.04-.03.06-.04ZM16.77 12.92s.07-.05.09-.07.05-.04.03-.05-.03 0-.06.03l-.09.09-.04.03c-.03.03 0 .02.01.01s.02-.02.05-.03ZM21.74 13.61s-.06-.02-.11-.05c-.05-.04-.06-.08-.07-.06s.02.04.04.05.07.05.11.06c.04 0 .07.02.07 0s-.03-.01-.03-.01ZM21.35 13.88l-.05-.03s-.08-.06-.09-.07-.02-.02-.03 0c-.01.01 0 .02.03.04s.11.08.14.09h.03s0-.02-.03-.03M22.92 10.74l.07-.09c.03-.04 0-.03-.01-.01-.02.02-.05.06-.05.06s-.01.01-.03.04c-.02.02-.03.03-.02.04 0 0 .03-.02.04-.04M22.95 11.11s.03-.01.05-.03.04-.04.06-.05l.06-.06s-.03.02-.05.03c-.02.02-.04.03-.06.06-.02.02-.06.05-.05.06ZM23.14 11.35s-.02 0-.04.02-.04.03-.06.05-.07.04-.09.06-.04.02-.03.04c0 .01.05 0 .09-.03l.07-.07c.02 0 .07-.06.06-.07M23 11.82h-.06c-.03 0-.02 0-.02.02s.01.02.02.01c.01 0 .04-.01.06-.02.02 0 .07-.02.06-.03 0-.01-.06.01-.06.01ZM22.87 12.25c-.06 0-.11 0-.11.02s0 .03.04.03.09 0 .12-.02c.03-.01.06-.02.06-.03zM22.69 12.71h-.1c-.03 0-.08 0-.12-.02-.03 0-.05-.01-.06 0s0 .02.04.03c.03 0 .08.02.15.01.07 0 .12 0 .12-.02s-.04 0-.04 0ZM22.41 13.03s-.06-.01-.09-.01-.05 0-.09-.02c-.04-.01-.07-.04-.08-.02-.02.02.02.03.05.04.03 0 .06.02.1.02h.09c.03 0 .04.02.04 0s-.03-.02-.03-.02ZM22.01 13.34l-.05-.03s-.08-.05-.1-.07-.03-.03-.03-.02c0 .02.03.04.06.06s.08.06.1.07c.02 0 .04.03.04.02 0 0 0-.02-.02-.03M22.4 10.28c.06-.08.07-.09.07-.09s.06-.08.08-.1.01-.04-.02 0-.12.17-.14.19-.05.09.01.02ZM22.78 10.35l-.03.04-.11.14c-.04.04-.06.05-.05.06 0 0 .02 0 .04-.03.02-.02.06-.08.09-.11s.06-.1.05-.1ZM22.43 11.34s.03.01.08 0c.04 0 .1-.02.14-.03.04 0 .05-.02.05-.02h-.07s-.06.01-.09.02c-.03 0-.1 0-.1.03ZM22.6 10.92l-.04.02s-.02.02-.06.03c-.04.02-.06.03-.05.04.01.02.03 0 .06-.02.02-.01.06-.03.1-.07.05-.04.01-.02 0-.01ZM22.15 10.74s.06-.05.08-.07.07-.05.06-.06c0-.01-.04.02-.04.02s-.02.01-.05.04c-.03.02-.07.06-.05.07M22.4 11.73s.06.02.11.02.04-.01.02-.02c-.03 0-.06-.02-.06-.02s-.05-.01-.07-.02c-.02 0-.04-.01-.05 0 0 .02 0 .02.05.03ZM22.36 12.07s-.05-.04-.08-.05c-.04-.01-.07-.03-.07 0s0 .02.03.03c.03 0 .08.03.1.04.02 0 .06.02.06 0l-.03-.02ZM22.05 12.37l-.05-.02s-.05-.04-.08-.06-.04-.02-.05-.01 0 .03.03.05.09.05.12.07c.02.02.06.03.07.02 0-.01-.02-.03-.04-.04ZM21.81 12.68l-.03-.01s-.11-.07-.14-.1-.04-.05-.06-.04c-.02 0 0 .05.02.06s.06.03.07.04.03.02.06.04.05.02.07.03c.03 0 .04 0 0-.02ZM21.39 12.94l-.04-.03s-.06-.07-.09-.09c-.02-.02-.04-.04-.06-.03s.01.04.03.05c.02.02.06.06.09.07s.04.02.05.03.05.02.01-.01Z"/><path fill="#e9b528" fill-rule="evenodd" d="M19.04 8.83c-.23 0-.5-.03-.65-.08-.05.01-.11.02-.16.04.25.09.45.13.81.13s.56-.04.81-.13c-.05-.01-.11-.02-.16-.04-.15.06-.42.09-.65.08M19.89 8.64s-.12-.09-.15-.1 0-.05 0-.07.12-.05.19-.07.05-.03.05-.03-.04-.04-.28-.07-.66-.02-.66-.02-.42 0-.66.02c-.24.03-.28.07-.28.07s-.01.01.05.03c.07.02.18.05.19.07 0 .02.03.05 0 .07-.03.01-.13.09-.15.1-.02.02-.02.04 0 .04.03 0 .03 0 .11-.02.24-.05.48-.06.72-.07.24 0 .47.02.72.07.08.02.08.02.11.02s.03-.03 0-.04Z"/><path fill="#e9b528" fill-rule="evenodd" d="m18.14 8.43-.1.08.13.06.14-.1-.16-.04ZM19.95 8.43l-.16.04.14.1.13-.06-.1-.08ZM19.61 8.74c-.16-.02-.27-.04-.57-.04s-.41.02-.57.04c.1.04.27.06.57.06s.47-.02.57-.06"/><path fill="#005d95" fill-rule="evenodd" d="M19.28 13.47s-.02-.03-.05 0c-.02.02-.04-.05-.05-.09 0-.04.02-.17.02-.17s-.11.02-.17.04-.11.02-.16.04c-.05.01-.07.02-.1.02h-.12c-.04 0-.04 0-.08.05-.04.04-.05.06-.09.14-.03.08-.04.15-.06.24 0 .06-.02.1-.03.13h.5s.01-.04.02-.05c.01-.03.04-.05.06-.06.02 0 .04 0 .05-.03 0-.02.03-.04.06-.05s.07 0 .11 0c.04.01.06-.02.07-.03.01-.02.02-.04.04-.07s0-.05 0-.05-.02-.01-.04-.04ZM20.07 13.48s0-.03-.02-.04c-.02 0-.05 0-.07-.02-.02-.01-.02.06-.02.06h-.13c-.07 0-.14-.07-.17-.09s-.06-.06-.06-.06-.02.02-.04.03-.03.05-.04.1c0 .04.05.09.05.13s-.05.13-.07.16c-.02.02-.04.07-.05.1h.24s.01-.03.03-.04c.02-.02.07-.03.07-.03v-.03c0-.02.03-.05.09-.07s.13-.03.13-.03.03-.02.05-.06c.02-.03 0-.08 0-.11Z"/><path fill="#e9b528" fill-rule="evenodd" d="M19 6.5h.12l-.01-.12.13.02v-.11l-.13.01.02-.12h-.15l.03.12h-.14v.09l.13-.02v.12ZM19.27 6.68h-.17v-.14h-.09v.14h-.17v.08h.45v-.08Z"/><path fill="#005d95" fill-rule="evenodd" d="M19.05 6.94c.1 0 .18-.06.21-.14h-.43c.03.08.11.14.21.14ZM19.14 6.55v.1h.11s-.06-.08-.11-.1M18.96 6.55s-.09.05-.11.1h.11z"/><path fill="#de6f10" fill-rule="evenodd" d="m19.18 8.37-.13-.06s-.09.04-.13.07c-.05.02-.04.02-.06.05-.01.03 0 .05.02.06.02 0 .17.09.17.09s.15-.07.18-.09c.04-.02.03-.03.02-.06s-.03-.04-.07-.06M19.49 8.33c.07 0 .13.06.13.13s-.06.13-.13.13-.13-.06-.13-.13.06-.13.13-.13M18.6 8.33c.07 0 .13.06.13.13s-.06.13-.13.13-.13-.06-.13-.13.06-.13.13-.13"/><path fill="#e9b528" fill-rule="evenodd" d="m18.9 8.41.15.07.15-.07-.15-.07-.14.07ZM19.49 8.35s-.08.03-.08.08.04.08.08.08.08-.03.08-.08-.04-.08-.08-.08M18.6 8.35s-.08.03-.08.08.04.08.08.08.08-.03.08-.08-.04-.08-.08-.08M18.33 8.02h.08s.01-.06-.02-.09-.06-.05-.08-.07-.02-.03-.02-.03v.08c0 .03.01.08.05.09ZM18.4 8.06s-.02.01-.02.02.01.02.02.02.02-.01.02-.02-.01-.02-.02-.02M18.22 8.06l-.03.04s.03 0 .05.02.05.03.08.03.04-.03.03-.05c0-.02-.02-.04-.06-.05-.04-.02-.05 0-.06.02ZM18.31 8.21c-.08 0-.19-.08-.19-.08-.01.07-.06.11-.13.13s.06.04.14.05h.1c.04 0 .1-.02.12-.04.05-.03.03-.11.03-.11s0 .06-.09.07ZM17.99 8.13s-.08-.04-.11-.04c-.02 0-.05 0-.05.03 0 .04.05.06.08.06.04 0 .06-.01.08-.03.02-.01.02-.02-.01-.03ZM17.73 7.99l-.07-.03s-.02.06-.01.1.04.05.08.05c.03 0 .09-.02.07-.05-.01-.03-.03-.05-.07-.07M17.76 8.15s.03 0 .03.02-.01.02-.03.02-.03 0-.03-.02.01-.02.03-.02M17.84 7.85a.47.47 0 0 1 .08-.38c.1-.15.28-.21.28-.21s0-.01.06-.07.17-.14.17-.14-.14.03-.21.06c0 .05-.04.09-.09.09-.02 0-.04 0-.05-.02-.04 0-.18.09-.22.12 0 .01.01.03.01.05 0 .05-.04.09-.09.09-.02 0-.03 0-.04-.01 0 0 0 .01-.01.02-.03.05-.05.11-.07.15.02.02.04.05.04.08 0 .05-.04.09-.08.09v.06c0 .03.02.05.07.07s.13.11.13.11.04-.07.02-.18Z"/><path fill="#e9b528" fill-rule="evenodd" d="M18.17 7.15s.02-.04 0-.05a.06.06 0 0 0-.06 0c-.02.02-.02.04 0 .05q.03.015.06 0M17.82 7.39s.03-.05 0-.07-.05-.02-.07 0-.03.05 0 .07c.02.02.05.02.07 0M17.67 7.68s-.02-.05-.05-.05-.05.02-.05.05.02.05.05.05.05-.02.05-.05M18.77 6.94s-.08.02-.16.06c.05 0 .09.03.09.08s-.05.09-.1.09-.09-.05-.09-.09v-.03c-.02.01-.05.03-.07.05-.17.11-.21.17-.29.33s-.11.33-.08.43c.04.1.17.12.17.12s-.02-.02-.02-.03V7.8s.03 0 .05.02.04.05.06.07l.06.06s.03-.04.03-.08-.03-.1-.04-.18c0-.08.04-.22.11-.33.08-.11.23-.2.27-.22s.05-.05.05-.07v-.08c0-.05-.04-.05-.08-.04Z"/><path fill="#e9b528" fill-rule="evenodd" d="M18.6 7.12s.06-.03.06-.05-.02-.04-.05-.04-.05.02-.05.05.02.05.05.05ZM18.86 8.12h.11c.02-.01.03-.05 0-.07a.075.075 0 0 0-.09 0c-.02.01-.08.05-.08.05s.01.02.05.04Z"/><path fill="#e9b528" fill-rule="evenodd" d="M18.99 8.17s-.03.04-.07.04-.09 0-.12-.03-.05-.07-.05-.07h-.05s-.02.07-.04.09-.1.02-.14 0c-.03-.03-.07-.06-.07-.05 0 0 0 .03.04.06s.06.05.12.05h.33s.07 0 .09-.04.02-.06.01-.07q0-.015-.03.03ZM18.49 8.11s.08.01.09-.01c.02-.02.02-.03.02-.03s-.05-.02-.07-.03-.04-.03-.06-.02h-.03s0 .06.04.09ZM19.12 8.04s-.02.06 0 .07.07.02.11 0 .05-.04.05-.04-.05-.04-.08-.05a.14.14 0 0 0-.09 0Z"/><path fill="#e9b528" fill-rule="evenodd" d="M19.58 8.19s-.11.02-.14 0c-.02-.02-.04-.09-.04-.09h-.05s-.02.04-.05.07-.08.03-.12.03c-.05 0-.06-.02-.07-.04s-.02-.04-.03-.03c0 0 0 .03.01.07.02.04.08.04.08.04h.33c.06 0 .08-.02.12-.05s.04-.06.04-.06-.04.03-.07.05Z"/><path fill="#e9b528" fill-rule="evenodd" d="m19.55 8.04-.07.03s0 .01.02.03.05.04.09.01.04-.09.04-.09h-.03c-.02 0-.04 0-.06.02ZM19.81 7.93v-.08l-.02.03c-.02.02-.05.04-.08.07s-.02.09-.02.09h.08c.04 0 .05-.06.05-.09ZM19.72 8.08s-.01-.02-.02-.02-.02.01-.02.02.01.02.02.02.02-.01.02-.02M19.78 8.14s.05-.01.08-.03c.02-.02.05-.02.05-.02s-.02-.02-.03-.04c-.01-.01-.02-.03-.06-.02-.04.02-.06.03-.06.05s0 .04.03.05Z"/><path fill="#e9b528" fill-rule="evenodd" d="M19.97 8.13s-.11.09-.19.08c-.08 0-.09-.07-.09-.07s-.01.08.03.11c.03.02.08.03.12.04.04 0 .07.01.1 0 .08-.01.14-.04.14-.04a.17.17 0 0 1-.13-.13ZM20.21 8.09s-.07.03-.11.04c-.03.01-.04.02-.01.03.02.01.04.03.08.03s.08-.02.08-.06-.03-.03-.05-.03ZM20.36 7.99l-.07.07c-.01.03.04.04.07.05.03 0 .06 0 .08-.05.01-.04-.01-.1-.01-.1s-.03 0-.07.03M20.33 8.15s-.03 0-.03.02.01.02.03.02.03 0 .03-.02-.01-.02-.03-.02M20.38 7.7s.02-.07.04-.08c-.02-.05-.04-.1-.07-.15 0 0 0-.01-.01-.02-.01 0-.03.01-.04.01a.09.09 0 0 1-.09-.09c0-.02 0-.04.01-.05A1 1 0 0 0 20 7.2c-.02.01-.03.02-.05.02a.09.09 0 0 1-.09-.09c-.08-.02-.21-.06-.21-.06s.12.08.17.14c.06.06.06.07.06.07s.18.06.28.21.11.27.08.38.01.18.02.18c0 0 .07-.09.13-.11.05-.02.06-.03.07-.07v-.06c-.04 0-.08-.04-.08-.09ZM19.92 7.15s.05.02.06 0c.02-.01.01-.04 0-.05-.02-.02-.05-.02-.06 0-.02.01-.01.04 0 .05"/><path fill="#e9b528" fill-rule="evenodd" d="M20.26 7.39s.05.02.07 0 .01-.05 0-.07a.05.05 0 0 0-.07 0c-.02.02-.01.05 0 .07M20.47 7.63s-.05.02-.05.05.02.05.05.05.05-.02.05-.05-.02-.05-.05-.05M19.24 7.06s0 .05.05.07c.04.02.19.12.27.22.08.11.12.25.11.33 0 .08-.04.13-.04.18s.03.08.03.08.05-.04.06-.06c.02-.02.04-.05.06-.07s.05-.02.05-.02v.08c0 .04.01.05 0 .07 0 .02-.02.03-.02.03s.14-.02.17-.12c.04-.1 0-.27-.08-.43s-.12-.21-.29-.33c-.03-.02-.05-.03-.07-.05v.03c0 .04-.04.09-.09.09s-.1-.05-.1-.09.04-.08.1-.08a.5.5 0 0 0-.16-.06c-.04 0-.09-.01-.08.04v.08ZM19.04 7.84s-.01.05-.03.07-.03.04-.02.07c0 .03.04.04.05.04s.05-.02.05-.04c0-.03 0-.05-.02-.07s-.03-.07-.03-.07M19.05 8.05s-.03.01-.03.03.01.03.03.03.03-.01.03-.03-.01-.03-.03-.03"/><path fill="#e9b528" fill-rule="evenodd" d="M18.95 7.93s.05-.05.07-.09c.02-.03.03-.06.03-.06s.01.03.03.06.07.09.07.09.07-.04.11-.16c.04-.13 0-.27-.03-.41-.02-.15-.03-.4-.03-.4a.307.307 0 0 1-.3 0s-.01.25-.03.4-.07.28-.03.41.11.16.11.16M19.43 7.07s.03.05.06.05.05-.03.05-.05-.02-.05-.05-.05-.05.02-.05.04Z"/><path fill="#de6f10" fill-rule="evenodd" d="M18.25 7.52c.06 0 .11.05.11.11s-.05.11-.11.11-.11-.05-.11-.11.05-.11.11-.11M18.44 7.25s-.11-.02-.14.03c-.04.04-.03.1.01.13a.1.1 0 0 0 .14-.03c.04-.04.03-.1-.01-.13"/><path fill="#e9b528" fill-rule="evenodd" d="M18.25 7.55s-.06.03-.06.06.03.06.06.06.06-.03.06-.06-.03-.06-.06-.06M18.4 7.27s-.06 0-.08.03c-.01.02 0 .05.04.06.07.01.1-.07.04-.09"/><path fill="#de6f10" fill-rule="evenodd" d="M19.04 7.53c-.06 0-.12.05-.12.11s.05.11.12.11.12-.05.12-.11-.05-.11-.12-.11M19.04 7.27c.06 0 .11.05.11.11s-.05.11-.11.11-.11-.05-.11-.11.05-.11.11-.11M19.04 7.03c.06 0 .11.05.11.1s-.05.1-.11.1-.11-.05-.11-.1.05-.1.11-.1M19.83 7.52c-.06 0-.11.05-.11.11s.05.11.11.11.11-.05.11-.11-.05-.11-.11-.11M19.79 7.28s-.1-.06-.14-.03-.05.09-.02.13c.04.04.1.06.14.03s.05-.09.02-.13"/><path fill="#e9b528" fill-rule="evenodd" d="M19.84 7.55s-.06.03-.06.06.03.06.06.06.06-.03.06-.06-.03-.06-.06-.06M19.69 7.27c-.06.02-.03.1.04.09.04 0 .05-.03.04-.06-.01-.02-.05-.04-.08-.03M19.04 7.56s-.06.03-.06.06.03.06.06.06.06-.03.06-.06-.03-.06-.06-.06M19.04 7.42s.06-.03.06-.06-.03-.06-.06-.06-.06.03-.06.06.03.06.06.06M19.04 7.16s.05-.02.05-.05-.02-.05-.05-.05-.05.02-.05.05.02.05.05.05"/><path fill="#de6f10" fill-rule="evenodd" d="M22.68 15.28c-.05 0-.1.04-.1.1s.04.1.1.1.1-.04.1-.1-.04-.1-.1-.1M22.95 15.34c-.05 0-.1.04-.1.1s.04.1.1.1.1-.04.1-.1-.04-.1-.1-.1M23.73 15.51c-.05 0-.1.04-.1.1s.04.1.1.1.1-.04.1-.1-.04-.1-.1-.1M23.22 15.4c-.05 0-.1.04-.1.1s.04.1.1.1.1-.04.1-.1-.04-.1-.1-.1M23.29 15.17c-.05 0-.1.04-.1.1s.04.1.1.1.1-.04.1-.1-.04-.1-.1-.1M23.36 14.93c-.05 0-.1.04-.1.1s.04.1.1.1.1-.04.1-.1-.04-.1-.1-.1"/><path fill="#e9b528" fill-rule="evenodd" d="M22.69 15.32s.05.02.05.05-.02.05-.05.05-.05-.02-.05-.05.02-.05.05-.05M22.96 15.38s-.05.02-.05.05.02.05.05.05.05-.02.05-.05-.02-.05-.05-.05M23.74 15.55s-.05.02-.05.05.02.05.05.05.05-.02.05-.05-.02-.05-.05-.05M23.23 15.44s-.05.02-.05.05.02.05.05.05.05-.02.05-.05-.02-.05-.05-.05M23.3 15.21s-.05.02-.05.05.02.05.05.05.05-.02.05-.05-.02-.05-.05-.05M23.37 14.97s-.05.02-.05.05.02.05.05.05.05-.02.05-.05-.02-.05-.05-.05"/></svg>