<svg xmlns="http://www.w3.org/2000/svg" width="40" height="40" fill="none" viewBox="0 0 40 40"><g clip-path="url(#a)"><path fill="#D82126" d="M1 7.499h38v25H1z"/><path fill="#F8E92E" d="M1 22.499v-5l38 5v-5zm17.1-15h3.8L20 17.321zm3.8 25h-3.8l1.9-9.821zM1 7.499h5.7l15.045 13.879zm0 25h5.7L21.745 18.62zm38-25h-5.7L18.255 21.378zm0 25h-5.7L18.255 18.62z"/></g><path fill="#D82126" d="M20 23.392a3.393 3.393 0 1 0 0-6.785 3.393 3.393 0 0 0 0 6.785"/><path fill="#F8E92E" d="M20 22.714a2.714 2.714 0 1 0 0-5.429 2.714 2.714 0 0 0 0 5.429"/><defs><clipPath><path fill="#fff" d="M1 7.5h38v25H1z"/></clipPath></defs></svg>