<svg xmlns="http://www.w3.org/2000/svg" width="40" height="41" fill="none" viewBox="0 0 40 40"><g clip-path="url(#a)"><path fill="#D82126" d="M1 1.087h38v38H1z"/><path fill="#F8E92E" d="M1 23.887v-7.6l38 7.6v-7.6zm17.1-22.8h3.8L20 16.016zm3.8 38h-3.8L20 24.158zM1 1.087h5.7l15.045 21.095zm0 38h5.7L21.745 17.99zm38-38h-5.7L18.255 22.182zm0 38h-5.7L18.255 17.99z"/></g><path fill="#D82126" d="M20 23.481a3.393 3.393 0 1 0 0-6.786 3.393 3.393 0 0 0 0 6.786"/><path fill="#F8E92E" d="M20 22.803a2.714 2.714 0 1 0 0-5.429 2.714 2.714 0 0 0 0 5.429"/><defs><clipPath><path fill="#fff" d="M1 1.089h38v38H1z"/></clipPath></defs></svg>