<svg xmlns="http://www.w3.org/2000/svg" width="40" height="40" fill="none" viewBox="0 0 40 40"><g clip-path="url(#a)"><path fill="#fff" d="M38.8.716H.85v37.902H38.8z"/><path fill="#00205B" d="M38.837 17.298v4.736q-11.664.002-23.328-.008c-.336 0-.423.08-.42.418.01 5.39.008 10.782.008 16.172H10.35c0-5.403-.003-10.803.008-16.206 0-.307-.072-.386-.381-.384-3.042.013-6.083.008-9.122.008v-4.736c3.052 0 6.107-.006 9.159.008.277 0 .346-.067.346-.344-.01-3.316-.008-6.635-.005-9.952q.002-3.144.008-6.289h4.73q.008.223.009.445c0 5.241.005 10.483-.008 15.724 0 .344.095.416.423.416 7.775-.011 15.55-.008 23.325-.008z"/><path fill="#BA0C2F" d="M38.837 24.107c0 4.734-.002 9.465.008 14.2 0 .277-.069.316-.328.316-7.114-.007-14.23-.005-21.344-.005q-.006-.037-.019-.074c.003-.148.01-.296.01-.444 0-4.525.006-9.047-.007-13.572 0-.362.093-.436.444-.436 6.905.01 13.81.007 20.718.007q.222-.001.444-.01c.027.005.05.01.077.018z"/><path fill="#ECC7CE" d="M38.837 15.298c-.027-.018-.05-.037-.077-.055l.077-.019zM38.76 24.092l.077-.056v.074zM8.287 38.542l.055.076h-.074z"/><path fill="#BA0C2F" d="M8.27 38.618c-2.385 0-4.773-.002-7.158.005-.222 0-.267-.044-.267-.264.008-4.75.005-9.5.005-14.249l.077-.018c2.322.002 4.641.015 6.963 0 .338 0 .4.095.397.407-.014 2.192-.008 4.385-.008 6.577q.001 3.734.01 7.463l-.018.077zM38.837.716v14.508a1 1 0 0 0-.077.019c-.148-.003-.296-.01-.444-.01-6.918 0-13.836-.004-20.754.007-.318 0-.408-.063-.408-.397.014-4.596.008-9.195.01-13.791 0-.111.009-.222.014-.333h21.66zM.85 15.224V.716q3.708 0 7.415.003.01.222.011.444v13.471c0 .149.01.297.013.442q-.004.165-.172.172-3.597-.001-7.196-.005l-.076-.019z"/></g><defs><clipPath><path fill="#fff" d="M.845.716h38v37.907h-38z"/></clipPath></defs></svg>