<svg xmlns="http://www.w3.org/2000/svg" width="40" height="41" fill="none" viewBox="0 0 40 40"><g clip-path="url(#a)"><path fill="#fff" d="M1 1.09h38v38H1z"/><path fill="#0C4076" d="M1 1.09h38v25.332H1z"/><path fill="#C6363C" d="M1 1.09h38v12.666H1z"/></g><path stroke="#D5D5D4" stroke-width=".5" d="M1.25 1.339h37.5v37.5H1.25z"/><path fill="#0C4076" stroke="#21231E" stroke-width=".037" d="M14.572 9.922a.63.63 0 1 0 0-1.259.63.63 0 0 0 0 1.26Z"/><path fill="#EDB92E" stroke="#21231E" stroke-linejoin="round" stroke-width=".037" d="M14.682 7.922a.111.111 0 1 0 0-.222.111.111 0 0 0-.222 0 .111.111 0 0 0 0 .222v.24h-.204a.111.111 0 0 0-.222 0 .111.111 0 1 0 0 .223.111.111 0 0 0 .222 0h.204v.796h.222v-.796h.204a.11.11 0 1 0 .222 0 .111.111 0 0 0 0-.222.111.111 0 0 0-.222 0h-.204z"/><path fill="#EDB92E" stroke="#21231E" stroke-linejoin="round" stroke-width=".037" d="M14.682 8.67a.6.6 0 0 0-.222 0v.63h.222z"/><path fill="#EDB92E" stroke="#21231E" stroke-linejoin="round" stroke-width=".037" d="M15.194 9.18a.6.6 0 0 1 0 .223q-.623-.03-1.245 0a.6.6 0 0 1 0-.222q.622-.03 1.245 0ZM18.312 14.552q.222-.444.408-.666-.63.48-.667-.222-.592.814-1-.149-.704 1-1.148-.074-.74.926-1.333-.074-.593 1-1.334.074-.444 1.074-1.148.074-.407.963-1 .149-.037.704-.666.222.185.222.407.666z"/><path fill="#EDB92E" stroke="#21231E" stroke-linejoin="round" stroke-width=".037" d="m10.83 14.577.223 1.148h7.037l.222-1.148-3.74-.185z"/><path fill="#EDB92E" stroke="#21231E" stroke-linejoin="round" stroke-width=".037" d="M18.683 13.504c-.26.666-.482.666-.519.074.037-.037.03-.141.097-.097.033.023.085-.044.052-.074-.067-.059-.149-.052-.223.023-.018-.112-.092-.149-.185-.112-.037.015-.037.093 0 .09.074-.008.056.059.074.096q-.74.925-.63-.26l-.37-.074q-.63 1.26-.963.111c.037-.037.037-.126.111-.096.037.015.075-.052.03-.089-.089-.074-.178-.037-.252.037-.037-.11-.144-.14-.244-.074-.045.03-.015.108.03.097.088-.023.047.088.103.125-.185.741-1.148.778-.981-.296h-.482c.167 1.074-.796 1.037-.981.296.055-.037.014-.148.103-.126.045.012.074-.066.03-.096-.1-.066-.208-.037-.245.074-.074-.074-.162-.11-.251-.037-.045.037-.008.104.03.09.073-.03.073.058.11.095q-.333 1.149-.963-.11l-.37.073q.111 1.185-.63.26c.019-.037 0-.104.075-.097.036.004.036-.074 0-.089-.093-.037-.167 0-.186.112-.074-.075-.155-.082-.222-.023-.033.03.019.097.052.074.067-.044.06.06.096.097-.037.592-.259.592-.518-.074l-.148.037c0 .148.055.333.148.444.37.445.666.37.685-.185.5.592.907.518.981-.111.408.815 1.111.407 1.13-.074.204.703 1.24.703 1.315-.111.074.814 1.11.814 1.315.11.018.482.722.89 1.13.075.073.63.48.704.98.11.02.556.316.63.686.186a.75.75 0 0 0 .148-.444z"/><path fill="#EDB92E" stroke="#21231E" stroke-linejoin="round" stroke-width=".037" d="M10.83 14.68c-.184.02-.184-.166 0-.184q3.742-.375 7.482 0c.186.018.186.203 0 .185a37.5 37.5 0 0 0-7.481 0ZM14.2 12.163l-.258-.334a8.7 8.7 0 0 0 0-1.963q-.075-.26.148-.148.48.24.963 0 .222-.111.148.148a8.7 8.7 0 0 0 0 1.963l-.26.334z"/><path fill="#EDB92E" stroke="#21231E" stroke-linecap="round" stroke-width=".037" d="m15.424 14.996-.852.426-.852-.426.852-.426z"/><path fill="#EDB92E" stroke="#21231E" stroke-linejoin="round" stroke-width=".037" d="m18.265 10.664 1.022.482.111.444-.404.63.037.518h.33l.548-1.481-.696-.593-1.608-.555z"/><path fill="#EDB92E" stroke="#21231E" stroke-linejoin="round" stroke-width=".037" d="M19.064 12.686q.03-.091.046-.175a.6.6 0 0 0-.022-.301c.109-.156.23-.326.319-.494.063-.12.111-.254.075-.391-.04-.146-.165-.246-.278-.334a2.3 2.3 0 0 0-.497-.276c-.408-.172-.733-.256-.97-.264l.15.143c.443.145.965.336 1.217.532.325.254.317.314-.155.99-.015.022-.049.076-.037.1a.66.66 0 0 1-.005.426c.04.078.1.037.158.044ZM15.976 12.263c-.127-.009-.096.218-.07.268.032.066.062.069.103.008.032-.047.093-.268-.033-.276ZM18.364 12.583c-.12-.039-.144.19-.131.244.016.072.044.081.099.032.041-.038.153-.237.032-.276Z"/><path fill="#fff" stroke="#21231E" stroke-linejoin="round" stroke-width=".037" d="M17.794 10.381a.237.237 0 1 0 0-.474.237.237 0 0 0 0 .474Z"/><path fill="#fff" stroke="#21231E" stroke-linejoin="round" stroke-width=".037" d="M18.238 10.529a.237.237 0 1 0 0-.474.237.237 0 0 0 0 .474Z"/><path fill="#fff" stroke="#21231E" stroke-linejoin="round" stroke-width=".037" d="M18.683 10.678a.237.237 0 1 0 0-.474.237.237 0 0 0 0 .474Z"/><path fill="#fff" stroke="#21231E" stroke-linejoin="round" stroke-width=".037" d="M19.127 10.881a.237.237 0 1 0 0-.474.237.237 0 0 0 0 .474Z"/><path fill="#fff" stroke="#21231E" stroke-linejoin="round" stroke-width=".037" d="M19.536 11.123a.237.237 0 1 0 0-.474.237.237 0 0 0 0 .474ZM19.35 12.789a.237.237 0 1 0 0-.474.237.237 0 0 0 0 .474Z"/><path fill="#fff" stroke="#21231E" stroke-linejoin="round" stroke-width=".037" d="M19.572 12.381a.237.237 0 1 0 0-.474.237.237 0 0 0 0 .474Z"/><path fill="#fff" stroke="#21231E" stroke-linejoin="round" stroke-width=".037" d="M19.757 11.974a.237.237 0 1 0 0-.474.237.237 0 0 0 0 .474ZM19.831 11.493a.237.237 0 1 0 0-.474.237.237 0 0 0 0 .474ZM15.46 15.41a.118.118 0 1 0 0-.237.118.118 0 0 0 0 .237ZM17.276 15.52a.118.118 0 1 0 0-.236.118.118 0 0 0 0 .237ZM17.35 14.967a.119.119 0 1 0 0-.238.119.119 0 0 0 0 .238ZM15.499 14.855a.118.118 0 1 0 0-.237.118.118 0 0 0 0 .237ZM16.046 13.033c.074-.11.215-.63-.082-.648-.296-.018-.222.519-.166.63.074.148.152.163.248.018ZM18.02 13.274c.036.167.1.189.233.07.1-.088.359-.551.074-.644s-.337.44-.308.574Z"/><path fill="#EDB92E" stroke="#21231E" stroke-linejoin="round" stroke-width=".037" d="m15.164 9.96 1.296.037.815.26.222.518-.592 1.148.259.74.778-.666.37-1.37-1-.852-2.111-.148z"/><path fill="#EDB92E" stroke="#21231E" stroke-linejoin="round" stroke-width=".037" d="M15.23 9.879a4.14 4.14 0 0 1 1.938.265c.544.218.491.854-.173 1.737q.09.17.1.412c-.07-.004-.12-.003-.182-.004.048-.107-.006-.238-.066-.33-.04-.06-.048-.05 0-.117.395-.556.657-1.042.503-1.335-.187-.357-.913-.543-2.138-.516l.007-.099zM17.823 10.108l-.068.091c.36.199.508.408.473.619-.006.036-.115.421-.36 1.168q-.249.174-.372.312c.009.01-.026.043-.016.052-.025.114.103.09.189.062a.7.7 0 0 1 .24-.276c.014-.01.068-.036.073-.053.13-.42.262-.809.374-1.17.113-.364-.132-.622-.533-.805Z"/><path fill="#fff" stroke="#21231E" stroke-linejoin="round" stroke-width=".037" d="M15.386 9.826a.237.237 0 1 0 0-.474.237.237 0 0 0 0 .474Z"/><path fill="#fff" stroke="#21231E" stroke-linejoin="round" stroke-width=".037" d="M15.849 9.826a.237.237 0 1 0 0-.474.237.237 0 0 0 0 .474Z"/><path fill="#fff" stroke="#21231E" stroke-linejoin="round" stroke-width=".037" d="M16.312 9.882a.237.237 0 1 0 0-.474.237.237 0 0 0 0 .474Z"/><path fill="#fff" stroke="#21231E" stroke-linejoin="round" stroke-width=".037" d="M16.757 9.973a.237.237 0 1 0 0-.474.237.237 0 0 0 0 .474Z"/><path fill="#fff" stroke="#21231E" stroke-linejoin="round" stroke-width=".037" d="M17.201 10.122a.237.237 0 1 0 0-.474.237.237 0 0 0 0 .474Z"/><path fill="#fff" stroke="#21231E" stroke-linejoin="round" stroke-width=".037" d="M17.609 10.307a.237.237 0 1 0 0-.474.237.237 0 0 0 0 .473Z"/><path fill="#fff" stroke="#21231E" stroke-linejoin="round" stroke-width=".037" d="M17.867 10.604a.237.237 0 1 0 0-.474.237.237 0 0 0 0 .474ZM17.387 12.307a.237.237 0 1 0 0-.473.237.237 0 0 0 0 .473Z"/><path fill="#fff" stroke="#21231E" stroke-linejoin="round" stroke-width=".037" d="M17.571 11.9a.237.237 0 1 0 0-.474.237.237 0 0 0 0 .474Z"/><path fill="#fff" stroke="#21231E" stroke-linejoin="round" stroke-width=".037" d="M17.757 11.493a.237.237 0 1 0 0-.474.237.237 0 0 0 0 .474Z"/><path fill="#fff" stroke="#21231E" stroke-linejoin="round" stroke-width=".037" d="M17.905 11.047a.237.237 0 1 0 0-.473.237.237 0 0 0 0 .473Z"/><path fill="#EDB92E" stroke="#21231E" stroke-linejoin="round" stroke-width=".037" d="m19.164 12.812.013.073q.155.037.265.019c-.123-.123-.214-.149-.278-.092Z"/><path fill="#EDB92E" stroke="#21231E" stroke-linejoin="round" stroke-width=".037" d="M19.201 12.638c-.066.016-.072.027-.1.032-.037.006-.088.004-.122-.027-.142-.086-.146.069-.09.184.04.084.077.192.038.264-.045.085-.035.123-.003.146l.062.04c.038.046.067.038.073-.021.142-.059.131-.209.174-.33.062-.176.287-.218-.032-.288Z"/><path fill="#EDB92E" stroke="#21231E" stroke-linejoin="round" stroke-width=".037" d="M19.127 12.645c-.124.044-.138-.025-.221-.021.033.19.066.289.263.187.109-.057.248.026.275.087.01.022.073-.024.096-.075.097-.213-.248-.237-.413-.178ZM18.69 13.568c-.09-.027-.23.172-.263.168-.044-.114.046-.386.205-.602.108-.035.117-.105.14-.268.007-.048.1-.015.1.068.003.089.01.138-.01.213-.008.03-.004.059.03.086-.17.067-.21.15-.203.335Z"/><path fill="#EDB92E" stroke="#21231E" stroke-linejoin="round" stroke-width=".037" d="M18.771 12.867c.016.037.02.068.024.125a.18.18 0 0 1-.04.12.4.4 0 0 1-.111.093.3.3 0 0 0-.084.11.4.4 0 0 0-.044.147c-.004.133-.03.248-.09.271a.12.12 0 0 1-.085.006c.008-.024.005-.058.026-.09a.3.3 0 0 0 .054-.136c.002-.034.017-.056.004-.122-.008-.043-.036-.059-.03-.098.009-.076.069-.223.156-.223s.128-.01.172-.125c.016-.039.036-.058.049-.078Z"/><path fill="#EDB92E" stroke="#21231E" stroke-linejoin="round" stroke-width=".037" d="M19.097 13.187a.3.3 0 0 0-.08-.042.2.2 0 0 0-.14-.006c-.208.063-.3.432-.072.52q.067.01.127-.124a.7.7 0 0 1 .152-.25c.033-.041.034-.077.013-.098Z"/><path fill="#EDB92E" stroke="#21231E" stroke-linejoin="round" stroke-width=".037" d="M18.993 13.208c-.2-.078-.346.304-.16.377.1.04.11-.086.13-.156.026-.094.222-.146.03-.221ZM14.857 12.109q.15-.28.318-.358c-.155-.487-.191-1.116-.1-1.892.009-.116.038-.166.082-.165.038 0 .062.06.066.193-.028.427-.063.8-.044 1.117.018.283.084.519.157.784.01.037-.016.065-.143.137-.094.054-.153.12-.173.188a.08.08 0 0 0-.054-.005c-.095.028-.134.02-.11 0ZM15.45 12.724c-.059-.037-.07-.027-.089-.051-.024-.031-.024-.082-.017-.13.03-.196-.086-.169-.217-.082-.066.043-.132.144-.189.196s-.103.057-.117.078a5 5 0 0 0 0 .338c.014.021.06.026.117.078s.123.153.188.196c.132.087.249.114.218-.082-.007-.048-.007-.099.017-.13.019-.024.03-.014.088-.05a.26.26 0 0 0 .085-.083c.018-.031.008-.065.008-.098s.01-.067-.008-.098a.26.26 0 0 0-.085-.082Z"/><path fill="#EDB92E" stroke="#21231E" stroke-linejoin="round" stroke-width=".037" d="M15.35 12.452c-.043.018-.09.036-.128.075-.06.057-.021.152.056.245.024.029.035.08.035.132a.2.2 0 0 1-.035.13c-.077.093-.115.188-.056.245.039.038.085.057.127.075a.3.3 0 0 0-.002-.09c-.008-.048-.007-.098.017-.13.018-.023.03-.014.088-.05a.3.3 0 0 0 .084-.083c.02-.031.009-.064.009-.098 0-.033.01-.066-.009-.097a.3.3 0 0 0-.084-.083c-.058-.037-.07-.027-.088-.051-.024-.031-.025-.082-.017-.13a.3.3 0 0 0 .002-.09ZM17.216 12.182c-.05.063-.044.078-.07.095-.035.024-.082.016-.126-.001-.18-.069-.18.074-.128.238.025.08.102.166.136.233.034.066.027.116.042.133l.147.021c.025.005.08.012.144.019.021-.012.037-.06.097-.111s.163-.108.219-.172c.112-.128.172-.252-.005-.248-.044.002-.088-.006-.108-.038-.016-.025-.004-.036-.019-.109a.3.3 0 0 0-.05-.112c-.023-.028-.056-.022-.086-.028-.031-.005-.059-.024-.093-.006a.3.3 0 0 0-.1.086Z"/><path fill="#EDB92E" stroke="#21231E" stroke-linejoin="round" stroke-width=".037" d="M16.935 12.256c.006.053.013.11.04.16.039.076.136.047.24-.026a.18.18 0 0 1 .128-.02c.046.008.088.03.107.06.059.098.13.152.196.097.044-.037.074-.085.102-.129a.2.2 0 0 0-.077-.01c-.044 0-.088-.008-.108-.04-.016-.024-.004-.036-.02-.108a.3.3 0 0 0-.05-.113c-.022-.027-.055-.021-.086-.027s-.058-.024-.092-.007a.3.3 0 0 0-.1.087c-.05.062-.044.077-.07.095-.036.023-.083.015-.127-.002a.2.2 0 0 0-.084-.017ZM17.92 12.968c-.029-.035-.04-.027-.046-.05-.006-.028.01-.072.032-.114.086-.17-.005-.155-.13-.088a.7.7 0 0 0-.105.078c-.037.03-.073.063-.103.085-.062.045-.1.046-.118.064a6 6 0 0 0-.117.31c.004.02.04.024.066.073s.047.136.079.178c.046.062.09.098.123.092s.057-.054.066-.162a.2.2 0 0 1 .054-.112c.022-.02.027-.012.08-.042a.3.3 0 0 0 .087-.069c.023-.026.026-.055.037-.083s.03-.057.026-.084a.14.14 0 0 0-.031-.076Z"/><path fill="#EDB92E" stroke="#21231E" stroke-linejoin="round" stroke-width=".037" d="M17.934 12.694a.3.3 0 0 0-.104.066.17.17 0 0 0-.056.109.4.4 0 0 0 .01.144.3.3 0 0 1-.019.135.4.4 0 0 1-.072.13c-.09.09-.154.186-.13.245.017.04.03.05.056.067.01-.022.036-.042.045-.08a.3.3 0 0 1 .058-.129c.022-.024.027-.05.082-.084.036-.023.066-.013.09-.043.048-.058.11-.199.049-.263-.06-.064-.08-.1-.03-.21.017-.037.016-.064.02-.087ZM16.353 13.153c.047.04.059.033.072.057.017.032.01.08-.005.124-.057.176.05.16.18.093.063-.034.138-.12.196-.162.059-.043.1-.043.116-.06.016-.07.03-.131.035-.16l.033-.162c-.008-.022-.049-.032-.088-.092-.04-.06-.08-.171-.132-.226-.107-.111-.214-.16-.22.055-.001.052-.01.105-.038.133-.022.022-.031.01-.092.04a.3.3 0 0 0-.094.075c-.022.029-.018.064-.023.097s-.02.066-.006.098a.24.24 0 0 0 .066.09Z"/><path fill="#EDB92E" stroke="#21231E" stroke-linejoin="round" stroke-width=".037" d="M16.405 13.416c.04-.013.084-.026.124-.057.062-.048.044-.14-.009-.235-.017-.03-.019-.082-.01-.132s.028-.1.055-.126c.087-.084.14-.176.096-.244-.03-.045-.07-.071-.107-.096a.3.3 0 0 0-.013.095c-.002.051-.011.104-.039.132-.022.023-.03.011-.091.041a.3.3 0 0 0-.094.074c-.023.03-.018.064-.023.098-.005.033-.02.065-.007.098a.24.24 0 0 0 .066.09c.048.04.06.032.073.056.017.032.009.08-.006.124a.3.3 0 0 0-.015.082Z"/><path fill="#EDB92E" stroke="#21231E" stroke-linecap="round" stroke-width=".037" d="m17.287 15.113-.815-.478-.866.374.815.474zM18.269 14.771l-.882.348.728.476c.189-.063.338-.708.154-.825z"/><path fill="#21231E" d="M14.82 12.965q.2.025.355.159-.107-.156-.36-.193zM14.82 12.838a.67.67 0 0 0 .355-.159q-.107.156-.36.192zM19.005 13.138a.27.27 0 0 0 .048-.233q.078.096-.023.244zM17.271 12.9a.9.9 0 0 1 .234-.355q-.167.092-.263.356zM17.164 12.886a.75.75 0 0 0-.06-.404q.116.138.086.411zM17.364 13.182a.34.34 0 0 1 .222.182q-.036-.167-.215-.215zM17.409 13.057a.7.7 0 0 0 .34-.144.57.57 0 0 1-.355.177zM16.953 12.986a.53.53 0 0 1-.289-.2q.067.17.285.233zM16.927 13.105a.6.6 0 0 0-.34.119.46.46 0 0 1 .351-.148z"/><path fill="#C6363C" stroke="#21231E" stroke-width=".037" d="M16.424 15.31c.204.014.377-.09.387-.233s-.147-.27-.351-.284-.377.09-.387.233c-.01.142.147.27.35.284Z"/><path fill="#EDB92E" stroke="#21231E" stroke-linejoin="round" stroke-width=".037" d="M17.224 12.792c-.15-.007-.293.123-.314.283s.083.283.226.285c.142.002.275-.115.303-.27.027-.153-.066-.29-.215-.298Z"/><path fill="#EDB92E" stroke="#21231E" stroke-linejoin="round" stroke-width=".037" d="M17.213 12.872c-.11-.005-.214.09-.23.206-.016.117.059.21.165.211.105.002.204-.086.224-.199.02-.115-.05-.213-.16-.218Z"/><path fill="#0C4076" stroke="#21231E" stroke-width=".037" d="M18.971 13.265c-.097-.038-.23.19-.109.242.082.035.147-.011.174-.08s.004-.135-.065-.162ZM18.239 14.922c-.211-.022-.389.074-.404.215-.015.14.145.266.356.288.14.015.218-.074.233-.214s-.044-.274-.185-.29ZM17.201 12.949c-.068-.003-.133.056-.144.129s.037.132.103.133c.067.002.13-.054.142-.126s-.033-.134-.1-.136Z"/><path fill="#EDB92E" stroke="#21231E" stroke-linejoin="round" stroke-width=".037" d="m10.88 10.663-1.023.482-.11.444.403.63-.037.518h-.33l-.548-1.481.696-.593 1.608-.555z"/><path fill="#EDB92E" stroke="#21231E" stroke-linejoin="round" stroke-width=".037" d="M10.079 12.685a1 1 0 0 1-.046-.175.6.6 0 0 1 .022-.301c-.109-.156-.23-.326-.319-.494-.063-.12-.11-.254-.074-.391.04-.146.164-.246.277-.334.135-.105.315-.197.497-.276.409-.172.733-.256.971-.264l-.15.143c-.443.145-.966.336-1.217.532-.325.254-.317.314.154.99.015.022.05.076.037.1a.66.66 0 0 0 .005.426c-.04.078-.1.037-.157.044ZM13.168 12.26c.127-.008.095.219.07.27-.032.065-.062.067-.104.006-.031-.046-.092-.267.034-.275ZM10.78 12.581c.12-.038.143.19.13.245-.015.071-.044.08-.098.031-.042-.037-.154-.237-.033-.276Z"/><path fill="#fff" stroke="#21231E" stroke-linejoin="round" stroke-width=".037" d="M11.35 10.38a.237.237 0 1 1-.001-.473.237.237 0 0 1 0 .474Z"/><path fill="#fff" stroke="#21231E" stroke-linejoin="round" stroke-width=".037" d="M10.905 10.528a.237.237 0 1 1 0-.474.237.237 0 0 1 0 .474Z"/><path fill="#fff" stroke="#21231E" stroke-linejoin="round" stroke-width=".037" d="M10.46 10.677a.237.237 0 1 1 0-.474.237.237 0 0 1 0 .474Z"/><path fill="#fff" stroke="#21231E" stroke-linejoin="round" stroke-width=".037" d="M10.016 10.881a.237.237 0 1 1 0-.474.237.237 0 0 1 0 .474Z"/><path fill="#fff" stroke="#21231E" stroke-linejoin="round" stroke-width=".037" d="M9.608 11.123a.237.237 0 1 1 0-.474.237.237 0 0 1 0 .474ZM9.794 12.788a.237.237 0 1 1 0-.474.237.237 0 0 1 0 .474Z"/><path fill="#fff" stroke="#21231E" stroke-linejoin="round" stroke-width=".037" d="M9.57 12.38a.237.237 0 1 1 0-.473.237.237 0 0 1 0 .474Z"/><path fill="#fff" stroke="#21231E" stroke-linejoin="round" stroke-width=".037" d="M9.386 11.974a.237.237 0 1 1 0-.474.237.237 0 0 1 0 .473ZM9.312 11.493a.237.237 0 1 1 0-.474.237.237 0 0 1 0 .473ZM13.682 15.41a.118.118 0 1 1 0-.237.118.118 0 0 1 0 .237ZM11.868 15.52a.118.118 0 1 1 0-.236.118.118 0 0 1 0 .237ZM11.794 14.967a.118.118 0 1 1 0-.237.118.118 0 0 1 0 .236ZM13.645 14.855a.118.118 0 1 1 0-.237.118.118 0 0 1 0 .237ZM13.098 13.033c-.075-.111-.215-.63.081-.648s.222.518.167.63c-.075.147-.152.162-.248.018ZM11.124 13.274c-.037.167-.1.189-.233.07-.1-.089-.36-.551-.074-.644.285-.093.337.44.307.574Z"/><path fill="#EDB92E" stroke="#21231E" stroke-linejoin="round" stroke-width=".037" d="m13.979 9.96-1.297.037-.815.26-.222.518.593 1.148-.26.74-.777-.666-.37-1.37 1-.852 2.11-.148z"/><path fill="#EDB92E" stroke="#21231E" stroke-linejoin="round" stroke-width=".037" d="M13.912 9.88a4.14 4.14 0 0 0-1.937.265c-.545.218-.492.854.173 1.737a.9.9 0 0 0-.1.411c.07-.004.12-.002.181-.004-.048-.107.006-.238.067-.33.04-.06.048-.05 0-.117-.395-.555-.657-1.041-.503-1.335.187-.357.913-.543 2.137-.516l-.006-.098zM11.32 10.11l.068.091c-.36.199-.508.408-.473.619.006.036.115.421.359 1.168q.25.174.373.312c-.01.01.026.043.016.051.024.115-.103.091-.19.063a.7.7 0 0 0-.239-.275c-.015-.01-.068-.037-.073-.054-.13-.42-.262-.809-.375-1.17-.113-.364.132-.622.533-.805Z"/><path fill="#fff" stroke="#21231E" stroke-linejoin="round" stroke-width=".037" d="M13.757 9.826a.237.237 0 1 1 0-.474.237.237 0 0 1 0 .474Z"/><path fill="#fff" stroke="#21231E" stroke-linejoin="round" stroke-width=".037" d="M13.294 9.826a.237.237 0 1 1 0-.474.237.237 0 0 1 0 .474Z"/><path fill="#fff" stroke="#21231E" stroke-linejoin="round" stroke-width=".037" d="M12.83 9.882a.237.237 0 1 1 0-.474.237.237 0 0 1 0 .474Z"/><path fill="#fff" stroke="#21231E" stroke-linejoin="round" stroke-width=".037" d="M12.386 9.973a.237.237 0 1 1 0-.473.237.237 0 0 1 0 .473Z"/><path fill="#fff" stroke="#21231E" stroke-linejoin="round" stroke-width=".037" d="M11.942 10.122a.237.237 0 1 1 0-.474.237.237 0 0 1 0 .474Z"/><path fill="#fff" stroke="#21231E" stroke-linejoin="round" stroke-width=".037" d="M11.534 10.307a.237.237 0 1 1 0-.474.237.237 0 0 1 0 .474Z"/><path fill="#fff" stroke="#21231E" stroke-linejoin="round" stroke-width=".037" d="M11.275 10.604a.237.237 0 1 1 0-.474.237.237 0 0 1 0 .474ZM11.757 12.308a.237.237 0 1 1 0-.474.237.237 0 0 1 0 .474Z"/><path fill="#fff" stroke="#21231E" stroke-linejoin="round" stroke-width=".037" d="M11.572 11.9a.237.237 0 1 1 0-.474.237.237 0 0 1 0 .474Z"/><path fill="#fff" stroke="#21231E" stroke-linejoin="round" stroke-width=".037" d="M11.386 11.494a.237.237 0 1 1 0-.474.237.237 0 0 1 0 .473Z"/><path fill="#fff" stroke="#21231E" stroke-linejoin="round" stroke-width=".037" d="M11.238 11.048a.237.237 0 1 1 0-.474.237.237 0 0 1 0 .474Z"/><path fill="#EDB92E" stroke="#21231E" stroke-linejoin="round" stroke-width=".037" d="m9.979 12.81-.014.073a.7.7 0 0 1-.265.019c.123-.122.214-.148.279-.092Z"/><path fill="#EDB92E" stroke="#21231E" stroke-linejoin="round" stroke-width=".037" d="M9.942 12.635c.066.017.072.028.1.033.037.006.088.003.123-.027.142-.086.145.068.09.184-.04.084-.077.192-.04.264.046.084.036.123.005.146l-.063.04c-.038.046-.067.038-.072-.021-.142-.06-.132-.21-.174-.33-.062-.176-.288-.218.031-.289Z"/><path fill="#EDB92E" stroke="#21231E" stroke-linejoin="round" stroke-width=".037" d="M10.016 12.642c.123.044.137-.025.22-.022-.033.19-.066.29-.263.187-.109-.056-.248.026-.274.088-.01.022-.073-.025-.097-.075-.096-.214.248-.238.414-.178ZM10.453 13.566c.09-.028.23.172.263.168.044-.114-.046-.386-.205-.602-.108-.035-.118-.105-.14-.268-.007-.048-.1-.015-.101.068-.002.088-.009.137.01.213.009.03.004.058-.029.086.169.067.21.15.202.335Z"/><path fill="#EDB92E" stroke="#21231E" stroke-linejoin="round" stroke-width=".037" d="M10.371 12.865a.4.4 0 0 0-.023.125.18.18 0 0 0 .04.12.4.4 0 0 0 .111.093c.027.016.06.06.084.11s.043.106.044.146c.003.133.03.249.09.272.039.015.055.012.085.005-.008-.024-.005-.057-.026-.09a.3.3 0 0 1-.054-.135c-.002-.034-.018-.056-.005-.122.009-.043.037-.06.032-.099-.01-.076-.07-.222-.158-.222-.086 0-.127-.01-.172-.125-.015-.04-.035-.058-.048-.078Z"/><path fill="#EDB92E" stroke="#21231E" stroke-linejoin="round" stroke-width=".037" d="M10.046 13.184a.3.3 0 0 1 .079-.042.2.2 0 0 1 .141-.007c.208.063.299.432.071.521q-.067.008-.126-.124a.7.7 0 0 0-.152-.25c-.034-.042-.035-.077-.013-.098Z"/><path fill="#EDB92E" stroke="#21231E" stroke-linejoin="round" stroke-width=".037" d="M10.15 13.206c.2-.078.346.304.16.377-.1.039-.11-.086-.13-.156-.026-.094-.222-.146-.03-.221ZM14.286 12.106q-.15-.279-.318-.357c.155-.487.191-1.117.1-1.893-.01-.115-.038-.165-.082-.165-.039.001-.062.06-.066.194.028.427.063.8.043 1.117-.017.283-.083.518-.156.784-.01.037.015.065.143.137.094.053.153.12.173.188a.08.08 0 0 1 .054-.005c.095.027.134.02.11 0ZM13.694 12.72c.058-.036.069-.027.088-.05.024-.031.024-.082.016-.13-.03-.196.087-.169.218-.082.066.043.132.143.188.196.057.052.104.057.118.078.002.075.002.14.001.169l-.001.17c-.014.02-.061.024-.117.077-.057.052-.123.153-.189.196-.131.087-.248.114-.218-.082.008-.048.008-.099-.016-.13-.019-.024-.03-.014-.088-.05a.26.26 0 0 1-.085-.084c-.019-.03-.009-.064-.009-.097 0-.034-.01-.067.009-.098a.26.26 0 0 1 .085-.083Z"/><path fill="#EDB92E" stroke="#21231E" stroke-linejoin="round" stroke-width=".037" d="M13.794 12.45c.042.017.088.036.127.074.059.058.02.153-.056.245-.024.03-.036.081-.036.132s.013.103.036.13c.077.093.115.189.056.246-.04.038-.085.057-.127.074a.3.3 0 0 1 .002-.089c.007-.048.007-.099-.017-.13-.019-.024-.03-.014-.088-.05a.26.26 0 0 1-.085-.084c-.018-.03-.008-.064-.008-.097 0-.034-.01-.067.008-.098a.3.3 0 0 1 .085-.083c.058-.036.07-.027.088-.05.024-.031.024-.082.017-.13a.3.3 0 0 1-.002-.09ZM11.927 12.18c.05.062.043.077.07.095.035.023.082.015.126-.002.18-.069.18.075.128.239-.026.079-.102.165-.137.233-.033.066-.026.115-.041.132-.065.011-.122.02-.147.022-.025.004-.08.011-.145.018-.02-.012-.037-.059-.096-.11s-.164-.109-.22-.172c-.112-.129-.172-.252.005-.248.045.001.089-.007.108-.039.016-.024.004-.036.02-.108a.26.26 0 0 1 .05-.113c.022-.027.055-.021.086-.027s.059-.024.093-.007a.3.3 0 0 1 .1.087Z"/><path fill="#EDB92E" stroke="#21231E" stroke-linejoin="round" stroke-width=".037" d="M12.209 12.254c-.007.053-.014.11-.04.16-.04.076-.136.046-.24-.026a.18.18 0 0 0-.129-.02c-.046.008-.088.03-.107.06-.059.097-.13.152-.196.096-.044-.037-.074-.084-.102-.128a.2.2 0 0 1 .077-.011c.045 0 .089-.007.108-.039.016-.025.004-.036.02-.108a.3.3 0 0 1 .05-.113c.022-.028.055-.021.086-.027s.058-.024.092-.007a.3.3 0 0 1 .1.087c.05.062.044.077.07.095.036.023.083.015.127-.002a.2.2 0 0 1 .084-.017ZM11.223 12.965c.029-.034.04-.027.045-.049.007-.028-.01-.072-.031-.115-.087-.169.005-.155.13-.088a1 1 0 0 1 .104.078c.037.031.073.064.104.086.062.044.1.046.118.064a6 6 0 0 1 .117.31c-.004.019-.04.024-.066.073s-.047.135-.079.178c-.047.061-.09.098-.123.092s-.057-.055-.066-.162a.2.2 0 0 0-.055-.113c-.021-.02-.026-.012-.079-.041a.3.3 0 0 1-.087-.07c-.023-.025-.027-.054-.038-.083-.01-.028-.028-.056-.026-.084a.14.14 0 0 1 .032-.076Z"/><path fill="#EDB92E" stroke="#21231E" stroke-linejoin="round" stroke-width=".037" d="M11.208 12.692c.037.014.062.03.104.065q.048.042.056.11a.4.4 0 0 1-.01.143.3.3 0 0 0 .02.135.4.4 0 0 0 .072.13c.09.09.154.187.128.246a.12.12 0 0 1-.054.067c-.011-.023-.037-.042-.046-.08a.3.3 0 0 0-.058-.13c-.022-.023-.027-.05-.082-.084-.036-.022-.066-.012-.09-.042-.047-.058-.109-.2-.049-.264.06-.063.081-.1.03-.21-.016-.036-.016-.064-.02-.086ZM12.79 13.152c-.047.04-.06.032-.072.057-.017.031-.01.079.005.123.057.176-.05.161-.18.094-.063-.034-.138-.12-.197-.162s-.099-.043-.115-.06c-.016-.07-.03-.131-.035-.16l-.033-.163c.008-.021.048-.032.088-.09.04-.06.08-.173.132-.227.107-.111.214-.16.22.055.001.052.01.104.038.133.022.022.03.01.091.04q.06.03.094.075c.023.029.018.064.024.097.005.033.02.065.006.098a.24.24 0 0 1-.066.09Z"/><path fill="#EDB92E" stroke="#21231E" stroke-linejoin="round" stroke-width=".037" d="M12.738 13.413c-.04-.012-.084-.025-.124-.057-.062-.047-.044-.14.009-.235.017-.03.019-.082.01-.132a.24.24 0 0 0-.055-.126c-.087-.083-.14-.176-.096-.243.03-.046.07-.072.107-.097a.3.3 0 0 1 .014.095c.001.052.01.104.038.133.022.022.03.01.091.04q.06.03.094.075c.023.029.018.064.023.097s.02.065.007.098a.24.24 0 0 1-.066.09c-.047.04-.06.032-.073.057-.016.031-.008.079.006.123q.016.05.015.082Z"/><path fill="#EDB92E" stroke="#21231E" stroke-linecap="round" stroke-width=".037" d="m11.857 15.11.814-.477.867.374-.815.474zM10.875 14.77l.881.348-.728.476c-.188-.063-.338-.708-.153-.826z"/><path fill="#21231E" d="M14.323 12.964a.67.67 0 0 0-.355.159q.107-.156.36-.193zM14.323 12.837a.67.67 0 0 1-.355-.159q.107.156.36.192zM10.138 13.137a.26.26 0 0 1-.048-.233q-.078.096.022.244zM11.871 12.9a.9.9 0 0 0-.233-.356q.167.093.263.356zM11.979 12.885a.75.75 0 0 1 .06-.404q-.116.138-.086.411zM11.779 13.181a.34.34 0 0 0-.223.182q.038-.168.215-.215zM11.734 13.055a.7.7 0 0 1-.34-.145q.152.156.355.178zM12.19 12.985a.53.53 0 0 0 .289-.2q-.067.17-.285.233zM12.216 13.104a.6.6 0 0 1 .34.119.46.46 0 0 0-.351-.149z"/><path fill="#C6363C" stroke="#21231E" stroke-width=".037" d="M12.72 15.31c-.205.014-.378-.09-.388-.232s.147-.27.351-.285.378.09.388.233-.148.27-.352.284Z"/><path fill="#EDB92E" stroke="#21231E" stroke-linejoin="round" stroke-width=".037" d="M11.92 12.792c.15-.007.293.123.314.283s-.083.283-.226.285-.275-.115-.303-.27c-.027-.153.066-.29.215-.298Z"/><path fill="#EDB92E" stroke="#21231E" stroke-linejoin="round" stroke-width=".037" d="M11.93 12.872c.11-.005.214.09.23.206.016.117-.059.21-.165.211-.105.002-.204-.086-.224-.199-.02-.115.05-.213.16-.218Z"/><path fill="#0C4076" stroke="#21231E" stroke-width=".037" d="M10.172 13.267c.097-.037.23.19.109.242-.082.035-.148-.01-.174-.08-.026-.068-.004-.135.065-.162ZM10.905 14.922c.211-.022.39.074.404.215.015.14-.144.266-.356.289-.14.014-.218-.074-.233-.215-.015-.14.045-.274.185-.289ZM11.942 12.95c.068-.003.133.055.144.129.01.073-.037.132-.104.133-.066.001-.13-.054-.141-.126-.012-.072.033-.134.1-.137Z"/><path fill="#fff" stroke="#21231E" stroke-linejoin="round" stroke-width=".037" d="M14.572 12.011a.237.237 0 1 0 0-.474.237.237 0 0 0 0 .474Z"/><path fill="#fff" stroke="#21231E" stroke-linejoin="round" stroke-width=".037" d="M14.572 11.567a.237.237 0 1 0 0-.474.237.237 0 0 0 0 .473Z"/><path fill="#fff" stroke="#21231E" stroke-linejoin="round" stroke-width=".037" d="M14.572 11.14a.237.237 0 1 0 0-.473.237.237 0 0 0 0 .474ZM14.572 9.937a.237.237 0 1 0 0-.474.237.237 0 0 0 0 .474Z"/><path fill="#fff" stroke="#21231E" stroke-linejoin="round" stroke-width=".037" d="M14.572 10.307a.237.237 0 1 0 0-.474.237.237 0 0 0 0 .473Z"/><path fill="#fff" stroke="#21231E" stroke-linejoin="round" stroke-width=".037" d="M14.572 10.714a.237.237 0 1 0 0-.474.237.237 0 0 0 0 .474Z"/><path fill="#EDB92E" stroke="#21231E" stroke-linejoin="round" stroke-width=".037" d="M14.572 11.922c.033 0 .066-.012.096.007.03.018.06.048.081.085.034.056.023.074.052.089a.2.2 0 0 0 .13.018c.193-.03.17.086.081.219-.044.067-.144.133-.196.189s-.056.104-.078.118h-.333c-.022-.014-.026-.062-.078-.118s-.152-.122-.196-.189c-.089-.133-.111-.248.081-.219q.074.01.13-.018c.03-.015.018-.033.052-.089a.3.3 0 0 1 .081-.085c.03-.019.063-.008.097-.008Z"/><path fill="#21231E" d="M14.63 12.646a.66.66 0 0 1 .163-.355q-.159.107-.196.363zM14.513 12.646a.66.66 0 0 0-.163-.355q.16.107.196.363z"/><path fill="#EDB92E" stroke="#21231E" stroke-linejoin="round" stroke-width=".037" d="M14.571 11.923c.034 0 .067-.011.097.007q.046.03.081.086c.033.055.022.074.052.088q.056.029.13.019a.3.3 0 0 1 .089-.004c-.02.041-.038.093-.075.13-.055.056-.133.015-.244-.06a.23.23 0 0 0-.13-.033.23.23 0 0 0-.13.034c-.11.074-.188.115-.244.059-.037-.037-.055-.089-.074-.13a.3.3 0 0 1 .09.004q.072.01.129-.018c.03-.015.018-.034.051-.09a.3.3 0 0 1 .082-.085c.03-.018.063-.007.096-.007ZM14.572 12.614c.158 0 .286.13.286.288 0 .16-.128.289-.286.289a.287.287 0 0 1-.287-.289c0-.159.129-.288.287-.288ZM18.202 15.756q0-.1-.182-.115a42.3 42.3 0 0 0-6.896 0q-.182.015-.182.115 0 .099.182.114 3.447.282 6.896 0 .181-.015.181-.114Z"/><path fill="#EDB92E" stroke="#21231E" stroke-linejoin="round" stroke-width=".037" d="M14.572 13.186a.285.285 0 1 0 0-.57.285.285 0 0 0 0 .57Z"/><path fill="#EDB92E" stroke="#21231E" stroke-linejoin="round" stroke-width=".037" d="M14.572 13.112a.211.211 0 1 0 0-.422.211.211 0 0 0 0 .422Z"/><path fill="#0C4076" stroke="#21231E" stroke-width=".037" d="M14.572 15.255c.204 0 .37-.116.37-.259s-.166-.259-.37-.259c-.205 0-.37.116-.37.26 0 .142.165.258.37.258ZM14.572 13.037a.137.137 0 1 0 0-.274.137.137 0 0 0 0 .274Z"/><path stroke="#21231E" stroke-linecap="round" stroke-width=".037" d="M12.832 15.886q-.393-.03-.852-.078a36 36 0 0 1 5.185 0q-.459.048-.852.078"/><path fill="#C6363C" stroke="#fff" stroke-width=".093" d="M20.822 15.932v10.175c0 1.667-.741 3.297-1.852 4.482s-2.667 2-4.398 2c-1.732 0-3.287-.815-4.398-2s-1.852-2.815-1.852-4.482V15.932z"/><path fill="#fff" stroke="#21231E" stroke-linejoin="round" stroke-width=".037" d="M14.515 31.987c-.054-.009-.145.003-.214-.051-.091-.072-.055-.363-.047-.547.042-.939.08-2.52.128-4.74a.6.6 0 0 1 .19.004.6.6 0 0 1 .188-.003c.047 2.22.086 3.8.128 4.74.008.183.045.474-.047.546-.069.054-.16.042-.214.051z"/><path fill="#fff" stroke="#21231E" stroke-linejoin="round" stroke-width=".037" d="M13.927 31.96c.055-.003.145.016.218-.032.098-.063.106-.36.114-.544.043-.939.13-2.512.283-4.727a.6.6 0 0 0-.188-.014l-.026-.006c-.353 2.191-.486 3.746-.727 4.683-.034.13-.105.454.006.56.064.06.155.057.208.07l.112.01Z"/><path fill="#fff" stroke="#21231E" stroke-linejoin="round" stroke-width=".037" d="M13.234 31.862c.055 0 .142.029.22-.012.103-.054.099-.351.144-.53.242-.937.375-2.492.728-4.684a.6.6 0 0 0-.186-.031c-.56 2.13-.729 3.633-1.165 4.56-.04.13-.15.47-.045.59.058.065.15.07.201.089l.111.02z"/><path fill="#fff" stroke="#21231E" stroke-linejoin="round" stroke-width=".037" d="M12.54 31.664c.055.006.146.057.227.024.108-.044.125-.36.202-.526.438-.932.606-2.444 1.173-4.59a.6.6 0 0 0-.182-.05c-.05-.023-.04-.034-.118-.046-.66 2.12-.873 3.595-1.495 4.51-.1.148-.174.443-.106.538.051.07.142.085.191.109l.108.03ZM15.216 31.96c-.055-.003-.144.016-.218-.032-.097-.063-.105-.36-.114-.544-.043-.939-.13-2.512-.283-4.727a.6.6 0 0 1 .188-.014l.026-.006c.353 2.191.486 3.746.728 4.683.033.13.105.454-.007.56-.063.06-.155.057-.208.07l-.112.01Z"/><path fill="#fff" stroke="#21231E" stroke-linejoin="round" stroke-width=".037" d="M15.91 31.862c-.055 0-.143.029-.22-.012-.103-.054-.099-.351-.145-.53-.242-.937-.375-2.492-.728-4.684a.6.6 0 0 1 .186-.031c.562 2.13.73 3.633 1.165 4.56.04.13.15.47.045.59-.058.065-.15.07-.2.089l-.112.02z"/><path fill="#fff" stroke="#21231E" stroke-linejoin="round" stroke-width=".037" d="M16.602 31.664c-.054.006-.145.057-.226.024-.108-.044-.125-.36-.203-.526-.437-.932-.605-2.444-1.172-4.59a.6.6 0 0 1 .182-.05c.05-.023.04-.034.118-.046.659 2.12.873 3.595 1.495 4.51.1.148.174.443.106.538-.052.07-.142.085-.191.109l-.109.03ZM12.908 30.064c.05.003.125.033.203-.004.103-.05.17-.336.226-.514.442-.872.845-2.42 1.505-4.572a.5.5 0 0 0-.164-.037.5.5 0 0 0-.162-.043c-.712 2.129-1.031 3.669-1.727 4.517-.115.14-.2.445-.146.534.042.066.124.075.168.095l.097.024Z"/><path fill="#fff" stroke="#21231E" stroke-linejoin="round" stroke-width=".037" d="M13.47 30.174c.05-.002.128.023.202-.02.097-.058.132-.349.166-.53.178-.928.506-2.485.973-4.671a.5.5 0 0 0-.168-.024.5.5 0 0 0-.167-.03c-.55 2.172-.678 3.799-1.199 4.634-.095.152-.148.46-.083.543.048.063.131.065.177.081l.1.017Z"/><path fill="#fff" stroke="#21231E" stroke-linejoin="round" stroke-width=".037" d="M14.044 30.24c.05-.005.13.012.198-.036.09-.066.091-.357.105-.54.07-.939.218-2.515.43-4.728a.5.5 0 0 0-.17-.01.5.5 0 0 0-.168-.017c-.299 2.206-.472 3.804-.66 4.708-.038.18-.095.47-.021.548.055.058.138.054.185.066z"/><path fill="#fff" stroke="#21231E" stroke-linejoin="round" stroke-width=".037" d="M16.235 30.064c-.05.003-.125.033-.203-.004-.103-.05-.171-.336-.226-.514-.442-.872-.845-2.42-1.505-4.572a.5.5 0 0 1 .164-.037.5.5 0 0 1 .162-.043c.711 2.129 1.031 3.669 1.727 4.517.114.14.2.445.145.534-.04.066-.123.075-.167.095l-.097.024Z"/><path fill="#fff" stroke="#21231E" stroke-linejoin="round" stroke-width=".037" d="M15.671 30.174c-.05-.002-.128.023-.2-.02-.098-.058-.133-.349-.168-.53-.177-.928-.506-2.485-.972-4.671a.5.5 0 0 1 .168-.024.5.5 0 0 1 .166-.03c.551 2.172.679 3.799 1.2 4.634.095.152.148.46.083.543-.048.063-.132.065-.177.081l-.1.017Z"/><path fill="#fff" stroke="#21231E" stroke-linejoin="round" stroke-width=".037" d="M15.098 30.24c-.05-.005-.13.012-.198-.036-.09-.066-.09-.357-.104-.54a277 277 0 0 0-.43-4.728.5.5 0 0 1 .169-.01.5.5 0 0 1 .17-.017c.297 2.206.47 3.804.66 4.708.037.18.094.47.02.548-.055.058-.138.054-.186.066l-.1.008Z"/><path fill="#fff" stroke="#21231E" stroke-linejoin="round" stroke-width=".037" d="M14.52 30.258c-.048-.01-.13.002-.192-.052-.082-.072-.05-.363-.042-.546.038-.94.072-2.52.115-4.74a.5.5 0 0 1 .17.003.5.5 0 0 1 .17-.003c.044 2.22.078 3.8.116 4.74.008.183.04.474-.042.546-.062.054-.144.043-.193.052z"/><path fill="#fff" stroke="#21231E" stroke-linejoin="round" stroke-width=".037" d="M13.298 28.772c.038.003.095.033.155-.004.08-.05.131-.336.174-.514.338-.872.646-2.42 1.153-4.572l-.25-.08c-.545 2.13-.79 3.669-1.323 4.517-.088.14-.153.445-.112.534.032.066.095.075.128.095z"/><path fill="#fff" stroke="#21231E" stroke-linejoin="round" stroke-width=".037" d="M13.728 28.882c.039-.001.098.023.154-.02.075-.058.101-.348.128-.53.136-.928.388-2.485.745-4.67l-.256-.055c-.422 2.172-.52 3.8-.919 4.634-.073.152-.113.46-.064.543.037.063.1.065.136.082l.076.016Z"/><path fill="#fff" stroke="#21231E" stroke-linejoin="round" stroke-width=".037" d="M14.168 28.947c.038-.005.1.013.151-.036.07-.065.07-.357.08-.54.055-.938.168-2.514.33-4.727l-.259-.027c-.229 2.206-.361 3.803-.506 4.708-.029.18-.072.47-.016.547.043.06.106.055.143.067l.077.008Z"/><path fill="#fff" stroke="#21231E" stroke-linejoin="round" stroke-width=".037" d="M15.846 28.772c-.038.003-.096.033-.155-.004-.08-.05-.132-.336-.174-.514-.338-.872-.647-2.42-1.153-4.572l.25-.08c.545 2.13.79 3.669 1.323 4.517.088.14.153.445.111.534-.031.066-.094.075-.128.095z"/><path fill="#fff" stroke="#21231E" stroke-linejoin="round" stroke-width=".037" d="M15.415 28.883c-.038-.001-.098.023-.154-.02-.075-.058-.101-.348-.128-.53a359 359 0 0 0-.744-4.671l.256-.054c.421 2.172.519 3.8.918 4.634.073.152.114.46.064.543-.037.063-.1.065-.136.082l-.076.016Z"/><path fill="#fff" stroke="#21231E" stroke-linejoin="round" stroke-width=".037" d="M14.975 28.947c-.038-.005-.1.013-.151-.036-.07-.065-.07-.357-.08-.54-.055-.938-.168-2.514-.33-4.727l.259-.027c.229 2.206.361 3.803.506 4.708.029.18.072.47.016.547-.043.06-.106.055-.143.067l-.077.008Z"/><path fill="#fff" stroke="#21231E" stroke-linejoin="round" stroke-width=".037" d="M14.533 28.966c-.037-.009-.1.002-.148-.052-.063-.072-.038-.362-.033-.546.03-.939.056-2.52.09-4.74h.26q.048 3.33.088 4.74c.006.184.031.475-.032.546-.047.054-.11.043-.148.052z"/><path fill="#fff" stroke="#21231E" stroke-linejoin="round" stroke-width=".037" d="M15.242 26.077c0 .178-.44 2.052-.67 2.052s-.67-1.874-.67-2.052z"/><path fill="#EDB92E" stroke="#21231E" stroke-linejoin="round" stroke-width=".037" d="M17.609 28.402c.01 0 .022.026.025.037.038.111.182.297.293.408.174.174.126.444.015.592-.122.163-.193.341-.219.47a2.2 2.2 0 0 0-.022.579c.011.148.1.218.182.285.04.033-.03.122-.163.222-.015.011-.052.033-.074.111-.004.011-.07.011-.075 0-.022-.078-.059-.1-.074-.111-.133-.1-.203-.189-.163-.222.082-.067.17-.137.182-.285a2.2 2.2 0 0 0-.022-.578 1.2 1.2 0 0 0-.219-.47c-.11-.149-.159-.42.015-.593.111-.111.256-.297.293-.408.003-.01.015-.037.026-.037Z"/><path fill="#EDB92E" stroke="#21231E" stroke-linejoin="round" stroke-width=".037" d="M18.079 30.743c-.296.222-.57-.311-.304-1.022.2-.534 1.16-.312.615.388-.026.034-.063.019-.055-.018.03-.148-.052-.233-.208-.204-.389.074-.404.815.022.648.078-.007.004.152-.07.208ZM17.138 30.743c.297.223.57-.31.304-1.022-.2-.533-1.16-.31-.615.39.026.032.063.018.056-.02-.03-.148.052-.233.207-.203.39.074.404.815-.022.648-.078-.007-.004.152.07.207Z"/><path fill="#EDB92E" stroke="#21231E" stroke-linejoin="round" stroke-width=".037" d="M17.386 30.161a.13.13 0 0 0 0 .26h.445a.13.13 0 1 0 0-.26zM17.834 26.846c.186.408.408.778.63 1.111.111.038.185.093.26.115.073.023.592.015.61-.022.167-.13.426-.018.315.13.074.074-.074.274-.185.185s-.481 0-.593-.037c.038.111.408.174.63.185s.185.222.111.407l-.074.037c-.074.149-.289.104-.296-.037s-.519-.333-.593-.444c.074.222.296.445.408.667.11.11.185.11.037.333l-.26.037c-.222 0-.259-.074-.222-.26.037-.184-.137-.518-.185-.614-.044-.089-.056-.181-.1-.233-.078-.104-.474-.274-.567-.226-.185.096-.315.037-.333-.148.037-.037 0-.297.133-.319.111-.018.163.037.256.111.148.119.23.185.274.174.119-.03-.211-.189-.507-.581-.297-.393-.415-.978.251-.57Z"/><path fill="#EDB92E" stroke="#21231E" stroke-linejoin="round" stroke-width=".037" d="M19.643 28.274c.148-.088.234-.084.291-.02.032.036.072.018.049-.038-.099-.234-.256-.263-.398-.153l-.103.1c.024.034.142.084.16.11ZM17.515 28.065c-.158-.108-.306-.129-.387-.068-.044.033-.088.01-.05-.046.165-.23.356-.242.5-.112.04.042.071.079.102.115a.5.5 0 0 1-.165.111ZM18.757 29.386c-.004-.01.037-.202.1-.262.05.04.107.076.16.13.157.165.157.408-.09.62-.06.052-.088-.003-.064-.063.042-.103-.009-.234-.106-.425ZM19.372 28.88c.146.06.197.138.191.239-.003.056.034.076.055.012.179-.417-.007-.494-.276-.48a.6.6 0 0 0 .03.229Z"/><path stroke="#21231E" stroke-linecap="round" stroke-width=".037" d="M17.397 27.14c.07-.066.145-.137.215-.055.07.081.034.16-.07.267.066-.045.148-.193.222-.09s.008.193-.074.279c.085-.07.152-.178.226-.09.074.09 0 .178-.067.245.074-.06.148-.115.193-.063.066.078.011.13-.06.196.082-.059.138-.118.197-.051.06.066-.019.148-.063.177"/><path fill="#fff" stroke="#21231E" stroke-linejoin="round" stroke-width=".037" d="M17.41 22.143c-.006.321.051 2.465.069 2.768a.86.86 0 0 0 .294.625c.13-.18.209-.422.227-.71.01-.146-.017-2.175-.029-2.592z"/><path fill="#fff" stroke="#21231E" stroke-linejoin="round" stroke-width=".037" d="m18.805 21.617.09 2.947c.03.262-.311 1.818-.497 2.125-.461-.197-.558-1.253-.472-2.282.087-1.028-.014-1.917-.084-2.102z"/><path fill="#fff" stroke="#21231E" stroke-linejoin="round" stroke-width=".037" d="m19.35 22.1-.063 2.949c.015.262-.405 1.798-.607 2.094-.468-.363-.373-1.845-.302-2.293.143-.894.119-1.93.07-2.097z"/><path fill="#fff" stroke="#21231E" stroke-linejoin="round" stroke-width=".037" d="m19.756 22.798-.775-.02c.066.322.013 1.32-.12 2.082-.126.714-.3 2.566.443 3.01.46-.977.11-1.926.342-2.774zM16.795 21.6l.151 2.764c.027.301.167.502.313.616.125-.184.196-.429.206-.717a126 126 0 0 0-.107-2.59zM18.17 19.855c.02.69.032 2.189.028 2.316-.01.288-.123.655-.248.838a.86.86 0 0 1-.313-.615c-.022-.247-.03-1.462-.034-2.071z"/><path fill="#fff" stroke="#21231E" stroke-linejoin="round" stroke-width=".037" d="M17.616 20.3c.014.744.006 1.916.003 2.011-.01.288-.08.533-.206.716a.88.88 0 0 1-.327-.622c-.016-.185-.068-.98-.073-1.59zM18.093 19.793l.527-.76c.107.375.237 3.065.084 3.286-.01.288-.114.532-.239.715-.146-.113-.364-.316-.3-.621.062-.305-.008-2.306-.072-2.62Z"/><path fill="#fff" stroke="#21231E" stroke-linejoin="round" stroke-width=".037" d="m19.174 21.484.036.845c-.01.288-.08.533-.206.717-.146-.113-.331-.314-.312-.616.074-1.165-.054-2.262-.202-3.317l.46-.283z"/><path fill="#fff" stroke="#21231E" stroke-linejoin="round" stroke-width=".037" d="m19.701 22.247-.143.542c-.01.288-.187.526-.312.71a.62.62 0 0 1-.242-.6c.214-1.72.138-2.86-.223-4.262.816.558 1.195 1.733.92 3.61ZM19.66 22.78l.75-.248c.095.749-.052 1.69-.254 2.93-.173 1.065-.082 1.908.05 2.449-.799-.11-1.136-1.14-.736-3.078.105-.507.21-1.155.19-2.052Z"/><path fill="#fff" stroke="#21231E" stroke-linejoin="round" stroke-width=".037" d="M19.37 19.32c.184.899.305 1.958.166 3.12q-.077.647-.277 1.056c.54-.06.885-.587.84-1.506l-.121-2.567z"/><path fill="#fff" stroke="#21231E" stroke-linejoin="round" stroke-width=".037" d="M19.761 19.436c.04.233.18.508.208.805.095.985.095 2.218-.2 3.007.538-.061.724-.55.741-1.47.014-.76.017-1.656-.174-2.69zM18.64 19.216l.498-.058c.091.47.161.803.178.971.033.329-.066.63-.18.855-.184-.111-.269-.353-.346-.691zM17.35 20.275l.442.005c.015.406.026.68.018.823-.014.281-.084.519-.203.697-.135-.112-.262-.31-.282-.603-.02-.295.022-.609.025-.922Z"/><path fill="#fff" stroke="#21231E" stroke-linejoin="round" stroke-width=".037" d="M17.315 20.504c.001.407.003.682-.01.824-.023.28-.102.515-.228.689-.13-.117-.25-.318-.26-.612zM17.8 20.047l.44-.03c.048.403.081.675.086.819.008.28-.042.523-.147.71-.143-.1-.285-.287-.33-.578-.043-.292-.027-.608-.05-.92Z"/><path fill="#fff" stroke="#21231E" stroke-linejoin="round" stroke-width=".037" d="M18.695 19.37c.082.328.194 1.403-.004 1.858-.161-.11-.323-.315-.378-.638-.054-.325-.07-.67-.101-1.018zM16.965 25.818l.73.375c.211.466.41.713.663.932-.366.068-.676-.004-.876-.273-.27-.362-.413-.581-.503-.63z"/><path fill="#fff" stroke="#21231E" stroke-linejoin="round" stroke-width=".037" d="M17.119 26.093c.179.365.3.612.351.745.1.263.127.51.081.724a.83.83 0 0 1-.52-.432z"/><path fill="#fff" stroke="#21231E" stroke-linejoin="round" stroke-width=".037" d="M17.025 26.205c.085.398.143.667.16.81.032.278-.002.525-.099.72a.83.83 0 0 1-.4-.545c-.07-.287-.08-.604-.13-.913z"/><path fill="#fff" stroke="#21231E" stroke-linejoin="round" stroke-width=".037" d="M16.072 26.448c.246.447.325.755.35 1.088.273-.253.4-.545.305-.866-.13-.433-.254-.93-.24-1.031z"/><path fill="#fff" stroke="#21231E" stroke-linejoin="round" stroke-width=".037" d="M16.809 25.287c.158.375.265.628.308.765.084.268.098.516.04.727a.81.81 0 0 1-.52-.437c-.123-.269-.167-.602-.274-.896z"/><path fill="#fff" stroke="#21231E" stroke-linejoin="round" stroke-width=".037" d="M16.764 24.526c.102-.028.238.212.372.352.03.032.066.063.093.102a.9.9 0 0 1 .126.295c.112.498.274.758.477 1.023-.372-.008-.66-.142-.802-.446-.19-.409-.287-.653-.364-.719zM15.651 26.9c-.315.4-.442.692-.52 1.017-.229-.294-.308-.603-.162-.904.539-.62.535-.616.682-.114Z"/><path fill="#fff" stroke="#21231E" stroke-linejoin="round" stroke-width=".037" d="M15.564 26.606c-.315.401-.643.705-.72 1.03-.229-.294-.326-.603-.18-.904z"/><path fill="#fff" stroke="#21231E" stroke-linejoin="round" stroke-width=".037" d="M16.14 26.475c-.316.402-.443.693-.52 1.018-.23-.294-.308-.603-.163-.904z"/><path fill="#EDB92E" stroke="#21231E" stroke-linejoin="round" stroke-width=".037" d="M11.536 28.402c-.011 0-.022.026-.026.037-.037.111-.181.297-.293.408-.174.174-.126.444-.014.592.122.163.192.341.218.47.019.093.045.282.022.579-.01.148-.1.218-.181.285-.04.033.03.122.163.222.015.011.052.033.074.111.004.011.07.011.074 0 .022-.078.06-.1.074-.111.133-.1.204-.189.163-.222-.082-.067-.17-.137-.181-.285a2.2 2.2 0 0 1 .022-.578c.026-.13.096-.308.218-.47.111-.149.16-.42-.015-.593-.11-.111-.255-.297-.292-.408-.004-.01-.015-.037-.026-.037Z"/><path fill="#EDB92E" stroke="#21231E" stroke-linejoin="round" stroke-width=".037" d="M11.065 30.744c.297.222.57-.311.304-1.023-.2-.533-1.16-.31-.615.39.026.033.063.018.056-.02-.03-.147.051-.233.207-.203.389.074.404.815-.022.648-.078-.007-.004.152.07.208ZM12.006 30.744c-.296.222-.57-.311-.303-1.023.2-.533 1.159-.31.615.39-.027.033-.063.018-.056-.02.03-.147-.052-.233-.207-.203-.39.074-.404.815.022.648.078-.007.003.152-.07.208Z"/><path fill="#EDB92E" stroke="#21231E" stroke-linejoin="round" stroke-width=".037" d="M11.758 30.161a.13.13 0 0 1 0 .26h-.444a.13.13 0 1 1 0-.26zM11.31 26.846a8 8 0 0 1-.63 1.111c-.11.038-.185.093-.259.115s-.593.015-.611-.022c-.167-.13-.426-.018-.315.13-.074.074.074.274.185.185s.482 0 .593-.037c-.037.111-.408.174-.63.185s-.185.222-.11.407l.073.037c.074.149.289.104.296-.037s.519-.333.593-.444c-.074.222-.296.445-.407.667-.111.11-.186.11-.037.333l.259.037c.222 0 .26-.074.222-.26-.037-.184.137-.518.185-.614.045-.089.056-.181.1-.233.078-.104.474-.274.567-.226.185.096.315.037.333-.148-.037-.037 0-.297-.133-.319-.111-.018-.163.037-.256.111-.148.119-.23.185-.274.174-.118-.03.211-.189.508-.581.296-.393.415-.978-.252-.57Z"/><path fill="#EDB92E" stroke="#21231E" stroke-linejoin="round" stroke-width=".037" d="M9.502 28.273c-.149-.087-.234-.083-.292-.019-.032.036-.072.018-.048-.038.098-.234.256-.263.397-.154q.058.054.104.1c-.024.035-.142.084-.161.111ZM11.63 28.065c.157-.108.305-.129.386-.068.045.033.089.01.05-.046-.164-.23-.356-.242-.5-.112-.04.042-.07.079-.102.115.05.054.159.116.166.111ZM10.387 29.385c.005-.01-.036-.201-.1-.261-.05.04-.106.075-.159.13-.158.165-.157.408.09.62.06.052.088-.003.063-.063-.042-.103.01-.234.106-.426ZM9.773 28.88c-.147.06-.197.138-.192.239.003.056-.034.076-.054.012-.18-.417.006-.494.275-.48a.6.6 0 0 1-.03.229Z"/><path stroke="#21231E" stroke-linecap="round" stroke-width=".037" d="M11.747 27.14c-.07-.067-.145-.138-.215-.056-.07.081-.033.159.07.267-.066-.045-.148-.193-.222-.09s-.007.193.074.278c-.085-.07-.152-.177-.226-.088-.074.088 0 .177.067.244-.074-.06-.148-.115-.193-.063-.066.078-.01.13.06.196-.082-.059-.138-.118-.197-.052-.059.067.019.148.063.178"/><path fill="#fff" stroke="#21231E" stroke-linejoin="round" stroke-width=".037" d="M11.733 22.142c.007.322-.05 2.465-.068 2.768a.86.86 0 0 1-.294.625c-.13-.18-.208-.422-.227-.71-.01-.146.018-2.174.029-2.592z"/><path fill="#fff" stroke="#21231E" stroke-linejoin="round" stroke-width=".037" d="m10.34 21.617-.091 2.947c-.029.262.312 1.818.498 2.125.46-.197.558-1.253.47-2.281-.086-1.029.015-1.917.086-2.102z"/><path fill="#fff" stroke="#21231E" stroke-linejoin="round" stroke-width=".037" d="m9.794 22.1.063 2.948c-.015.263.406 1.798.607 2.094.467-.362.373-1.844.302-2.293-.143-.894-.118-1.929-.07-2.097z"/><path fill="#fff" stroke="#21231E" stroke-linejoin="round" stroke-width=".037" d="m9.389 22.798.774-.02c-.066.322-.013 1.32.12 2.082.126.714.3 2.566-.443 3.01-.46-.977-.11-1.926-.342-2.774zM12.35 21.6l-.152 2.765a.86.86 0 0 1-.313.616c-.125-.184-.195-.429-.205-.717-.005-.146.083-2.173.107-2.59zM10.974 19.855c-.02.69-.032 2.189-.028 2.316.01.288.123.655.248.838a.86.86 0 0 0 .313-.615c.022-.247.03-1.462.034-2.071z"/><path fill="#fff" stroke="#21231E" stroke-linejoin="round" stroke-width=".037" d="M11.527 20.3a78 78 0 0 0-.002 2.011c.01.288.08.533.205.716a.88.88 0 0 0 .327-.622c.017-.185.069-.98.073-1.59zM11.051 19.792l-.527-.76c-.107.375-.237 3.066-.084 3.286.01.288.114.532.239.716.146-.114.364-.317.3-.622-.062-.304.008-2.306.072-2.62Z"/><path fill="#fff" stroke="#21231E" stroke-linejoin="round" stroke-width=".037" d="m9.97 21.485-.036.845c.01.288.08.532.206.716.146-.113.332-.314.313-.615-.074-1.166.053-2.263.202-3.318l-.462-.283z"/><path fill="#fff" stroke="#21231E" stroke-linejoin="round" stroke-width=".037" d="m9.443 22.247.143.542c.01.288.187.526.312.71a.62.62 0 0 0 .242-.6c-.214-1.72-.138-2.86.223-4.262-.816.558-1.195 1.733-.92 3.61ZM9.484 22.78l-.749-.248c-.095.749.052 1.69.253 2.93.174 1.065.082 1.908-.05 2.449.8-.11 1.137-1.14.736-3.078a8.7 8.7 0 0 1-.19-2.052Z"/><path fill="#fff" stroke="#21231E" stroke-linejoin="round" stroke-width=".037" d="M9.774 19.32c-.183.899-.305 1.958-.166 3.12q.077.647.277 1.056c-.539-.061-.884-.588-.84-1.506l.121-2.567z"/><path fill="#fff" stroke="#21231E" stroke-linejoin="round" stroke-width=".037" d="M9.382 19.436c-.04.233-.179.508-.207.805-.095.985-.096 2.219.2 3.007-.539-.061-.724-.55-.742-1.47-.014-.76-.016-1.656.174-2.69zM10.504 19.216l-.498-.059c-.091.471-.161.804-.178.971-.034.329.066.63.18.855.184-.11.269-.352.346-.691zM11.794 20.275l-.442.005c-.015.406-.026.68-.018.823.014.281.084.519.204.697.134-.112.26-.31.28-.603.02-.295-.021-.609-.024-.922Z"/><path fill="#fff" stroke="#21231E" stroke-linejoin="round" stroke-width=".037" d="M11.829 20.504c-.001.407-.002.682.01.824.024.28.102.515.228.689.13-.117.25-.318.26-.612zM11.345 20.047l-.44-.03c-.048.403-.082.675-.086.819-.009.28.042.523.147.71.143-.1.285-.287.329-.578.044-.292.027-.608.05-.92Z"/><path fill="#fff" stroke="#21231E" stroke-linejoin="round" stroke-width=".037" d="M10.449 19.37c-.083.328-.194 1.403.004 1.858.16-.11.323-.315.377-.638.055-.325.07-.67.102-1.018zM12.18 25.818l-.732.375c-.21.466-.41.713-.662.932.366.068.676-.004.876-.273.27-.362.414-.581.503-.63z"/><path fill="#fff" stroke="#21231E" stroke-linejoin="round" stroke-width=".037" d="M12.025 26.092c-.179.365-.3.611-.351.745-.1.263-.127.51-.081.724a.83.83 0 0 0 .52-.432z"/><path fill="#fff" stroke="#21231E" stroke-linejoin="round" stroke-width=".037" d="M12.12 26.206c-.085.397-.143.666-.16.808-.033.28.001.526.098.722a.83.83 0 0 0 .4-.546c.07-.287.08-.604.13-.913z"/><path fill="#fff" stroke="#21231E" stroke-linejoin="round" stroke-width=".037" d="M13.072 26.448c-.246.447-.325.755-.35 1.088-.272-.253-.4-.545-.304-.866.128-.433.253-.93.239-1.031z"/><path fill="#fff" stroke="#21231E" stroke-linejoin="round" stroke-width=".037" d="M12.335 25.287c-.158.375-.266.628-.309.765-.084.268-.097.516-.039.727a.81.81 0 0 0 .519-.437c.124-.269.168-.602.275-.896z"/><path fill="#fff" stroke="#21231E" stroke-linejoin="round" stroke-width=".037" d="M12.38 24.525c-.102-.027-.239.213-.372.353-.03.032-.066.062-.093.102a.9.9 0 0 0-.126.295 2.35 2.35 0 0 1-.477 1.023c.372-.008.66-.142.802-.446.19-.41.286-.653.364-.719zM13.493 26.9c.315.4.442.692.52 1.017.229-.294.308-.603.162-.904-.539-.62-.535-.616-.682-.114Z"/><path fill="#fff" stroke="#21231E" stroke-linejoin="round" stroke-width=".037" d="M13.58 26.605c.315.401.643.705.72 1.03.229-.294.326-.603.18-.904z"/><path fill="#fff" stroke="#21231E" stroke-linejoin="round" stroke-width=".037" d="M13.004 26.475c.315.402.443.693.52 1.018.229-.294.308-.603.162-.904zM14.572 19.125c-.07-.797-.215-1.352-.56-1.908.16.019.326-.015.249-.4-.226-.052-.312.034-.941-.266-.515-.241-1.27-.33-1.222-.07.096.518.437.888.788 1.151.167.415.575 1.2.293 1.633s-.515.641-.796.819q.093.033.181.052c-.044.059-.407.17-.452.14-.289-.192-.555-.663-.792-.933-.678-.767-1.033-1.366-.896-1.837.151-.522.777-1.093-.026-.992-.804.1-1.478 1.226-1.678 2.525-.074.482-.126.904-.182 1.241.437-.155.634-.315.748-.507q-.078.277-.118.522c.36-.063.607-.245.711-.56.037-.125.085-.236.133-.329q.166.059.426-.004c.067.156.56.708.826 1.111.297.456.748.804.897.826h4.822c.148-.022.6-.37.896-.825.267-.404.76-.956.826-1.112q.26.064.426.004c.048.093.096.204.133.33.104.314.352.496.711.559a5 5 0 0 0-.118-.522c.115.192.311.352.748.507-.056-.337-.107-.76-.181-1.24-.2-1.3-.875-2.427-1.678-2.526-.804-.1-.178.47-.026.992.137.47-.219 1.07-.896 1.837-.238.27-.504.74-.793.933-.044.03-.407-.081-.452-.14q.089-.018.182-.052c-.282-.178-.515-.385-.797-.819-.281-.433.126-1.218.293-1.633.352-.263.692-.633.789-1.152.048-.259-.708-.17-1.223.07-.63.3-.714.215-.94.267-.078.385.089.419.248.4-.344.556-.489 1.111-.56 1.908Z"/><path fill="#EDB92E" stroke="#21231E" stroke-linejoin="round" stroke-width=".037" d="m16.069 17.973.707.104c.548.026.867-.148.937-.5-.204.244-.456.367-.733.3-.37-.089-.604-.17-.69-.148z"/><path fill="#EDB92E" stroke="#21231E" stroke-linejoin="round" stroke-width=".037" d="M17.394 16.544c.615.066.585.462.011 1.037-.118.114-.14.11-.17-.008-.052-.207-.263-.307-.374-.163-.074.096-.063.16-.322.122-.33.278-.593.474-.167.456.17-.008.337.104.581.093-.07.144-.085.163-.125.17-.245.037-.49-.1-.734-.056-.53.097.848-1.433.833-1.492-.037-.148.33-.43.467-.16Z"/><path fill="#21231E" d="m16.517 17.03.08-.082q.06-.075-.068-.2l-.162.069q.05.168.15.212M17.461 16.9a.052.052 0 1 0 0-.104.052.052 0 0 0 0 .103"/><path stroke="#21231E" stroke-linecap="round" stroke-linejoin="round" stroke-width=".037" d="M20.042 23.169c-.03.666-.074 1.185-.204 1.74-.13.556-.148.926-.166 1.482M19.768 23.246c.311-.826.304-2.104.197-2.948-.108-.844-.637-1.952-.83-2.078M17.394 16.542q-.037.185-.311.392M15.743 19.853q.396.444 1.014.233"/><path stroke="#21231E" stroke-linecap="round" stroke-linejoin="round" stroke-width=".037" d="M15.698 19.628q0 .165.174.61-.37-.084-.552-.336"/><path stroke="#21231E" stroke-linecap="round" stroke-linejoin="round" stroke-width=".037" d="M15.37 19.598q-.049.382-.204.592a.8.8 0 0 1-.289-.444M16.157 16.906c.059.115.166.263.296.185.185-.111.218-.252.303-.381"/><path stroke="#21231E" stroke-linecap="round" stroke-linejoin="round" stroke-width=".037" d="M15.983 16.927c.077.004.162-.03.351-.096.19-.067.393-.148.585-.133M15.49 17.142q-.144.045-.359.074"/><path fill="#EDB92E" stroke="#21231E" stroke-linejoin="round" stroke-width=".037" d="m13.075 17.975-.707.104c-.549.026-.867-.148-.937-.5.203.244.455.367.733.3.37-.089.604-.17.689-.148z"/><path fill="#EDB92E" stroke="#21231E" stroke-linejoin="round" stroke-width=".037" d="M11.75 16.545c-.615.067-.586.463-.012 1.037.119.115.141.111.17-.007.053-.208.264-.308.375-.163.074.096.063.16.322.122.33.278.593.474.167.456-.17-.008-.337.103-.582.092.07.145.085.163.126.17.245.038.489-.1.733-.055.53.096-.848-1.433-.833-1.492.037-.149-.33-.43-.466-.16Z"/><path fill="#21231E" d="m12.627 17.028-.081-.081q-.06-.075.069-.2l.162.069q-.05.168-.15.212M11.682 16.898a.052.052 0 1 1 0-.104.052.052 0 0 1 0 .104"/><path stroke="#21231E" stroke-linecap="round" stroke-linejoin="round" stroke-width=".037" d="M9.102 23.172c.03.666.074 1.185.203 1.74.13.556.148.927.167 1.482M9.375 23.25c-.311-.827-.304-2.104-.196-2.949s.637-1.952.83-2.078M11.75 16.545q.036.185.31.392M13.401 19.857q-.396.444-1.015.233"/><path stroke="#21231E" stroke-linecap="round" stroke-linejoin="round" stroke-width=".037" d="M13.446 19.63q0 .168-.174.612.37-.086.551-.337"/><path stroke="#21231E" stroke-linecap="round" stroke-linejoin="round" stroke-width=".037" d="M13.774 19.601q.048.382.204.593a.8.8 0 0 0 .289-.445M12.987 16.91c-.06.114-.167.262-.296.184-.185-.11-.219-.252-.304-.381"/><path stroke="#21231E" stroke-linecap="round" stroke-linejoin="round" stroke-width=".037" d="M13.161 16.93c-.078.004-.163-.03-.352-.096-.189-.067-.392-.148-.585-.133M13.653 17.145q.145.045.36.074"/><path fill="#fff" d="M14.242 19.54q.03.435.33.823.303-.39.33-.822"/><path stroke="#21231E" stroke-linejoin="round" stroke-width=".037" d="M14.242 19.54q.03.435.33.823.303-.39.33-.822"/><path fill="#C6363C" stroke="#21231E" stroke-width=".093" d="M17.072 20.404v4.018c0 .718-.297 1.374-.741 1.844s-1.093.804-1.76.804c-.666 0-1.314-.333-1.759-.804a2.7 2.7 0 0 1-.74-1.844v-4.018z"/><path fill="#fff" stroke="#21231E" stroke-linecap="round" stroke-width=".037" d="M17.053 22.866v1.037h-1.982v3.074a2.3 2.3 0 0 1-1 0v-3.074H12.09v-1.037h1.982v-2.444h1v2.444z"/><path fill="#fff" stroke="#21231E" stroke-linejoin="round" stroke-width=".037" d="M15.424 24.33c.296-.112 1.11-.371 1.11.277 0 .311-.377.515-.48.24-.053-.136.003-.225.08-.255.078-.03.164.037.142.137.325-.174-.308-.53-.575-.063-.074.13.137.282.137.385s-.21.256-.137.386c.267.466.9.11.575-.063.022.1-.064.166-.141.137-.078-.03-.134-.119-.082-.256.104-.274.482-.07.482.24 0 .649-.815.39-1.111.279zM13.72 20.995c-.297-.11-1.112-.37-1.112.278 0 .311.378.515.482.24.052-.136-.004-.225-.082-.255-.077-.03-.163.037-.14.137-.326-.174.307-.53.574-.063.074.13-.137.282-.137.386 0 .103.21.255.137.385-.267.466-.9.11-.574-.063-.023.1.063.166.14.137.078-.03.134-.119.082-.256-.104-.274-.482-.07-.482.24 0 .649.815.39 1.111.279zM15.424 20.995c.296-.11 1.111-.37 1.111.278 0 .311-.378.515-.481.24-.052-.136.004-.225.081-.255.078-.03.163.037.141.137.326-.174-.307-.53-.574-.063-.074.13.137.282.137.386 0 .103-.211.255-.137.385.267.466.9.11.574-.063.022.1-.063.166-.14.137-.078-.03-.134-.119-.082-.256.104-.274.481-.07.481.24 0 .649-.815.39-1.11.279zM13.72 24.33c-.296-.112-1.111-.371-1.111.277 0 .311.378.515.481.24.052-.136-.003-.225-.081-.255s-.163.037-.14.137c-.327-.174.306-.53.573-.063.074.13-.137.282-.137.385s.211.256.137.386c-.267.466-.9.11-.574-.063-.022.1.063.166.14.137.079-.03.134-.119.082-.256-.103-.274-.481-.07-.481.24 0 .649.815.39 1.11.279z"/><defs><clipPath><path fill="#fff" d="M1 1.089h38v38H1z"/></clipPath></defs></svg>