<svg xmlns="http://www.w3.org/2000/svg" width="40" height="40" fill="none" viewBox="0 0 40 40"><g clip-path="url(#a)"><path fill="#fff" d="M1 7.5h38v25H1z"/><path fill="#0C4076" d="M1 7.5h38v16.667H1z"/><path fill="#C6363C" d="M1 7.5h38v8.334H1z"/><path fill="#0C4076" stroke="#21231E" stroke-width=".028" d="M14.572 11.362a.475.475 0 0 0 .478-.473.476.476 0 0 0-.478-.472.476.476 0 0 0-.479.473c0 .26.214.472.479.472Z"/><path fill="#EDB92E" stroke="#21231E" stroke-linejoin="round" stroke-width=".028" d="M14.656 9.862a.09.09 0 0 0 .06-.025.083.083 0 0 0-.06-.142.08.08 0 0 0-.025-.059.085.085 0 0 0-.12 0 .08.08 0 0 0-.024.06.09.09 0 0 0-.06.024.083.083 0 0 0 .06.142v.18h-.155a.08.08 0 0 0-.025-.059.085.085 0 0 0-.119 0 .08.08 0 0 0-.025.06.09.09 0 0 0-.06.024.083.083 0 0 0 0 .118.09.09 0 0 0 .06.024.083.083 0 0 0 .085.083.083.083 0 0 0 .085-.083h.154v.597h.169v-.597h.155a.083.083 0 0 0 .084.083.083.083 0 0 0 .084-.083.09.09 0 0 0 .06-.024.083.083 0 0 0 0-.118.09.09 0 0 0-.06-.025.08.08 0 0 0-.024-.059.085.085 0 0 0-.12 0 .08.08 0 0 0-.024.06h-.155z"/><path fill="#EDB92E" stroke="#21231E" stroke-linejoin="round" stroke-width=".028" d="M14.656 10.423a.5.5 0 0 0-.169 0v.472h.169z"/><path fill="#EDB92E" stroke="#21231E" stroke-linejoin="round" stroke-width=".028" d="M15.044 10.806q.015.083 0 .167a10 10 0 0 0-.945 0 .5.5 0 0 1 0-.167q.473-.021.945 0ZM17.414 14.834q.17-.333.31-.5-.479.36-.507-.166-.45.61-.76-.112-.534.75-.872-.055-.563.694-1.014-.056-.45.75-1.013.056-.337.805-.873.055-.31.723-.76.112-.027.527-.506.166.14.167.31.5z"/><path fill="#EDB92E" stroke="#21231E" stroke-linejoin="round" stroke-width=".028" d="m11.729 14.854.168.86h5.349l.168-.86-2.843-.14z"/><path fill="#EDB92E" stroke="#21231E" stroke-linejoin="round" stroke-width=".028" d="M17.696 14.048c-.197.5-.366.5-.394.055.028-.027.022-.105.073-.072.025.017.065-.033.04-.055-.051-.045-.113-.04-.17.016-.014-.083-.07-.11-.14-.083-.028.011-.028.07 0 .067.056-.006.042.044.056.072q-.563.694-.478-.195l-.282-.055q-.478.944-.732.083c.028-.028.028-.094.085-.072.028.011.056-.039.022-.067-.067-.055-.135-.028-.191.028-.028-.083-.11-.105-.186-.056-.034.023-.011.081.023.073.067-.017.036.066.078.094-.14.556-.872.583-.746-.222h-.365c.126.805-.606.778-.746.222.042-.028.01-.111.078-.094.034.008.057-.05.023-.073-.076-.05-.158-.027-.186.056-.056-.056-.124-.083-.191-.028-.034.028-.006.078.022.067.056-.022.056.044.085.072q-.254.861-.732-.083l-.282.055q.085.89-.478.195c.014-.028 0-.078.056-.072.028.002.028-.056 0-.067-.07-.028-.127 0-.14.083-.057-.055-.119-.06-.17-.016-.025.022.015.072.04.055.05-.033.045.045.073.072-.028.445-.197.445-.394-.055l-.113.028c0 .11.043.25.113.333.282.333.507.278.52-.139.38.444.69.389.747-.083.31.61.844.305.858-.056.155.528.943.528 1-.083.056.61.844.61.999.083.014.361.549.667.858.056.056.472.366.527.746.083.014.417.24.472.52.139a.56.56 0 0 0 .113-.333z"/><path fill="#EDB92E" stroke="#21231E" stroke-linejoin="round" stroke-width=".028" d="M11.729 14.931c-.141.014-.141-.125 0-.139a29 29 0 0 1 5.685 0c.141.014.141.153 0 .14a29 29 0 0 0-5.686 0ZM14.29 13.042l-.197-.25a6.4 6.4 0 0 0 0-1.472q-.057-.195.113-.11.365.18.731 0 .169-.085.113.11a6.4 6.4 0 0 0 0 1.472l-.197.25z"/><path fill="#EDB92E" stroke="#21231E" stroke-linecap="round" stroke-width=".028" d="m15.219 15.167-.647.32-.648-.32.648-.32z"/><path fill="#EDB92E" stroke="#21231E" stroke-linejoin="round" stroke-width=".028" d="m17.378 11.918.777.361.084.333-.307.473.029.388h.25l.417-1.11-.53-.445-1.221-.417z"/><path fill="#EDB92E" stroke="#21231E" stroke-linejoin="round" stroke-width=".028" d="M17.986 13.435a1 1 0 0 0 .034-.132.44.44 0 0 0-.016-.226c.083-.117.175-.244.242-.37.048-.09.085-.19.057-.294-.03-.11-.125-.184-.21-.25a1.8 1.8 0 0 0-.379-.207c-.31-.129-.557-.192-.738-.198l.115.107c.336.109.733.252.925.4.247.19.24.235-.118.742-.011.016-.037.057-.028.075a.5.5 0 0 1-.004.319c.031.058.076.028.12.034ZM15.638 13.116c-.096-.006-.072.164-.053.202.025.05.048.051.079.005.024-.035.07-.2-.026-.207ZM17.454 13.357c-.092-.03-.11.141-.1.183.012.054.034.06.075.024.032-.029.117-.178.025-.207Z"/><path fill="#fff" stroke="#21231E" stroke-linejoin="round" stroke-width=".028" d="M17.02 11.706c.1 0 .18-.08.18-.178a.18.18 0 0 0-.18-.178c-.1 0-.18.08-.18.178s.08.178.18.178Z"/><path fill="#fff" stroke="#21231E" stroke-linejoin="round" stroke-width=".028" d="M17.358 11.817c.1 0 .18-.08.18-.178a.18.18 0 0 0-.18-.178c-.1 0-.18.08-.18.178s.08.178.18.178Z"/><path fill="#fff" stroke="#21231E" stroke-linejoin="round" stroke-width=".028" d="M17.696 11.928c.1 0 .18-.08.18-.178a.18.18 0 0 0-.18-.178c-.1 0-.18.08-.18.178s.08.178.18.178ZM18.034 12.08c.099 0 .18-.079.18-.177a.18.18 0 0 0-.18-.178c-.1 0-.18.08-.18.178s.08.178.18.178Z"/><path fill="#fff" stroke="#21231E" stroke-linejoin="round" stroke-width=".028" d="M18.343 12.261c.1 0 .18-.08.18-.177a.18.18 0 0 0-.18-.178c-.1 0-.18.08-.18.178s.08.177.18.177ZM18.202 13.511c.1 0 .18-.08.18-.177a.18.18 0 0 0-.18-.178c-.1 0-.18.08-.18.178s.08.177.18.177Z"/><path fill="#fff" stroke="#21231E" stroke-linejoin="round" stroke-width=".028" d="M18.371 13.206c.1 0 .18-.08.18-.178a.18.18 0 0 0-.18-.178c-.1 0-.18.08-.18.178s.08.178.18.178Z"/><path fill="#fff" stroke="#21231E" stroke-linejoin="round" stroke-width=".028" d="M18.512 12.9c.1 0 .18-.08.18-.178a.18.18 0 0 0-.18-.177c-.1 0-.18.08-.18.177 0 .099.08.178.18.178ZM18.568 12.539c.1 0 .18-.08.18-.178a.18.18 0 0 0-.18-.178c-.1 0-.18.08-.18.178s.08.178.18.178ZM15.247 15.478a.09.09 0 1 0 0-.178.09.09 0 0 0-.09.089c0 .049.04.089.09.089ZM16.626 15.561c.05 0 .09-.04.09-.089a.09.09 0 0 0-.09-.089.09.09 0 0 0-.09.09c0 .048.04.088.09.088ZM16.682 15.145a.09.09 0 1 0 0-.178.09.09 0 0 0-.09.089c0 .049.04.089.09.089ZM15.275 15.061c.05 0 .09-.04.09-.089a.09.09 0 0 0-.09-.089.09.09 0 0 0-.09.09c0 .048.04.088.09.088ZM15.691 13.694c.057-.083.164-.472-.062-.486-.225-.014-.168.39-.126.473.056.11.115.122.188.013ZM17.192 13.875c.028.125.076.142.177.053.076-.067.273-.414.056-.483-.216-.07-.256.33-.233.43Z"/><path fill="#EDB92E" stroke="#21231E" stroke-linejoin="round" stroke-width=".028" d="m15.022 11.39.985.028.619.194.169.389-.45.861.197.556.59-.5.282-1.028-.76-.639-1.604-.111z"/><path fill="#EDB92E" stroke="#21231E" stroke-linejoin="round" stroke-width=".028" d="M15.072 11.329c.485-.044.981.005 1.472.199.414.163.374.64-.13 1.302a.7.7 0 0 1 .075.309c-.054-.003-.091-.002-.138-.003.036-.08-.005-.178-.05-.247-.03-.046-.037-.038 0-.088.3-.417.499-.781.382-1.001-.143-.268-.694-.408-1.625-.387l.005-.074zM17.043 11.501l-.052.068c.273.15.386.306.36.464-.005.027-.088.316-.274.877a1.7 1.7 0 0 0-.283.233c.007.008-.02.032-.012.04-.02.085.078.067.143.046a.54.54 0 0 1 .183-.207c.01-.007.051-.027.055-.04.1-.315.2-.606.285-.878.086-.273-.1-.466-.405-.603Z"/><path fill="#fff" stroke="#21231E" stroke-linejoin="round" stroke-width=".028" d="M15.19 11.29c.1 0 .18-.08.18-.178a.18.18 0 0 0-.18-.177c-.099 0-.18.08-.18.177 0 .098.081.178.18.178Z"/><path fill="#fff" stroke="#21231E" stroke-linejoin="round" stroke-width=".028" d="M15.543 11.29c.099 0 .18-.08.18-.178a.18.18 0 0 0-.18-.177c-.1 0-.18.08-.18.177 0 .098.08.178.18.178Z"/><path fill="#fff" stroke="#21231E" stroke-linejoin="round" stroke-width=".028" d="M15.894 11.332c.1 0 .18-.08.18-.178a.18.18 0 0 0-.18-.178c-.1 0-.18.08-.18.178s.08.178.18.178Z"/><path fill="#fff" stroke="#21231E" stroke-linejoin="round" stroke-width=".028" d="M16.232 11.401c.1 0 .18-.08.18-.178a.18.18 0 0 0-.18-.177c-.1 0-.18.08-.18.177 0 .098.08.178.18.178Z"/><path fill="#fff" stroke="#21231E" stroke-linejoin="round" stroke-width=".028" d="M16.57 11.512c.1 0 .18-.08.18-.178a.18.18 0 0 0-.18-.177c-.1 0-.18.08-.18.178s.08.177.18.177Z"/><path fill="#fff" stroke="#21231E" stroke-linejoin="round" stroke-width=".028" d="M16.88 11.651c.1 0 .18-.08.18-.178a.18.18 0 0 0-.18-.177c-.1 0-.18.08-.18.177 0 .098.08.178.18.178Z"/><path fill="#fff" stroke="#21231E" stroke-linejoin="round" stroke-width=".028" d="M17.077 11.873c.099 0 .18-.08.18-.177a.18.18 0 0 0-.18-.178c-.1 0-.18.08-.18.178s.08.177.18.177ZM16.71 13.151c.1 0 .18-.08.18-.178a.18.18 0 0 0-.18-.177c-.099 0-.18.08-.18.177 0 .098.081.178.18.178Z"/><path fill="#fff" stroke="#21231E" stroke-linejoin="round" stroke-width=".028" d="M16.851 12.846c.1 0 .18-.08.18-.178a.18.18 0 0 0-.18-.178c-.099 0-.18.08-.18.178s.081.178.18.178Z"/><path fill="#fff" stroke="#21231E" stroke-linejoin="round" stroke-width=".028" d="M16.992 12.54c.1 0 .18-.08.18-.178a.18.18 0 0 0-.18-.177c-.1 0-.18.08-.18.177 0 .098.08.178.18.178Z"/><path fill="#fff" stroke="#21231E" stroke-linejoin="round" stroke-width=".028" d="M17.105 12.207c.1 0 .18-.08.18-.178a.18.18 0 0 0-.18-.178c-.1 0-.18.08-.18.178s.08.178.18.178Z"/><path fill="#EDB92E" stroke="#21231E" stroke-linejoin="round" stroke-width=".028" d="m18.062 13.529.01.055a.5.5 0 0 0 .201.014c-.093-.092-.163-.111-.211-.069Z"/><path fill="#EDB92E" stroke="#21231E" stroke-linejoin="round" stroke-width=".028" d="M18.09 13.398c-.05.012-.055.02-.076.024-.029.005-.067.003-.093-.02-.108-.064-.11.052-.069.139.03.063.059.143.03.197-.035.064-.027.093-.003.11l.047.03q.047.051.056-.016c.107-.044.1-.156.132-.247.047-.132.218-.164-.024-.217Z"/><path fill="#EDB92E" stroke="#21231E" stroke-linejoin="round" stroke-width=".028" d="M18.034 13.404c-.094.033-.105-.019-.168-.016.025.143.05.217.2.14.083-.042.188.02.209.066.007.016.055-.018.073-.057.073-.16-.189-.178-.314-.133ZM17.701 14.096c-.068-.021-.174.128-.2.126-.033-.086.035-.29.156-.452.082-.026.09-.079.107-.2.005-.037.075-.012.077.05.001.066.006.103-.009.16-.006.022-.002.044.023.064-.128.05-.16.112-.154.252Z"/><path fill="#EDB92E" stroke="#21231E" stroke-linejoin="round" stroke-width=".028" d="M17.763 13.57a.3.3 0 0 1 .018.094.13.13 0 0 1-.03.09.3.3 0 0 1-.085.07.2.2 0 0 0-.064.083.3.3 0 0 0-.033.11c-.003.099-.022.186-.068.203a.1.1 0 0 1-.065.004c.006-.018.004-.043.02-.068a.2.2 0 0 0 .04-.101c.002-.025.014-.042.004-.092-.006-.032-.027-.044-.023-.073.007-.058.052-.168.12-.168.065 0 .096-.007.13-.093.011-.03.027-.044.036-.058Z"/><path fill="#EDB92E" stroke="#21231E" stroke-linejoin="round" stroke-width=".028" d="M18.01 13.81a.3.3 0 0 0-.059-.032.16.16 0 0 0-.107-.005c-.158.047-.227.324-.054.39q.05.007.096-.092a.5.5 0 0 1 .115-.188c.026-.031.026-.058.01-.074Z"/><path fill="#EDB92E" stroke="#21231E" stroke-linejoin="round" stroke-width=".028" d="M17.932 13.826c-.152-.058-.263.229-.121.283.076.03.083-.065.098-.117.02-.07.169-.11.023-.166ZM14.788 13.001q.114-.21.242-.268-.178-.546-.076-1.42c.007-.086.029-.124.062-.123.03 0 .047.045.05.145-.021.32-.047.6-.033.838.014.212.064.389.12.588.007.027-.012.049-.11.103q-.107.062-.13.14a.06.06 0 0 0-.042-.003c-.072.02-.102.015-.083 0ZM15.238 13.462c-.044-.027-.052-.02-.066-.038-.019-.023-.019-.061-.013-.097.023-.147-.066-.127-.166-.062-.05.033-.1.108-.143.147-.043.04-.078.043-.089.059a4 4 0 0 0 0 .254c.01.015.046.018.09.058.042.04.092.115.142.147.1.065.189.085.166-.061-.006-.037-.006-.075.013-.098.014-.018.022-.01.066-.038a.2.2 0 0 0 .065-.062c.014-.023.006-.048.006-.073s.008-.05-.006-.074a.2.2 0 0 0-.065-.062Z"/><path fill="#EDB92E" stroke="#21231E" stroke-linejoin="round" stroke-width=".028" d="M15.163 13.26c-.033.012-.068.026-.097.055-.045.043-.016.115.042.184.018.022.027.06.027.099 0 .038-.01.076-.027.098-.058.069-.087.14-.042.184.03.028.064.042.096.055a.2.2 0 0 0-.001-.067c-.006-.036-.006-.074.013-.097.014-.018.022-.01.066-.038a.2.2 0 0 0 .065-.062c.014-.023.006-.048.006-.073 0-.026.008-.05-.006-.074a.2.2 0 0 0-.065-.062c-.044-.027-.052-.02-.066-.038-.019-.023-.019-.061-.013-.098a.2.2 0 0 0 .002-.066ZM16.581 13.057c-.037.046-.033.058-.053.071-.027.018-.062.011-.096-.001-.137-.052-.137.055-.097.178.02.06.078.125.104.175s.02.087.031.1a3 3 0 0 0 .222.03c.016-.01.028-.044.073-.083.046-.04.124-.081.166-.129.086-.096.132-.19-.003-.186-.034.001-.067-.005-.082-.029-.012-.018-.003-.027-.015-.081a.2.2 0 0 0-.037-.085c-.018-.02-.043-.016-.066-.02-.024-.005-.045-.018-.07-.005a.2.2 0 0 0-.077.065Z"/><path fill="#EDB92E" stroke="#21231E" stroke-linejoin="round" stroke-width=".028" d="M16.367 13.112c.005.04.01.082.03.12.03.057.104.035.183-.02a.14.14 0 0 1 .098-.014c.035.006.067.022.08.044.046.074.1.115.15.073.034-.028.056-.064.077-.096a.14.14 0 0 0-.058-.009c-.034.001-.067-.005-.082-.029-.012-.018-.003-.027-.015-.08a.2.2 0 0 0-.038-.085c-.017-.021-.042-.017-.065-.02-.024-.005-.045-.019-.071-.006a.2.2 0 0 0-.076.065c-.038.047-.033.058-.053.072-.027.017-.063.01-.096-.002a.2.2 0 0 0-.064-.013ZM17.116 13.646c-.022-.027-.03-.02-.035-.037-.005-.021.008-.055.024-.086.066-.127-.004-.117-.098-.067a.5.5 0 0 0-.08.059c-.028.023-.055.048-.079.064-.046.034-.075.034-.09.048a4 4 0 0 0-.088.232c.003.015.03.019.05.055s.036.102.06.134c.035.046.068.073.093.069.026-.005.044-.041.05-.122a.14.14 0 0 1 .042-.084c.016-.015.02-.009.06-.031a.3.3 0 0 0 .067-.052c.017-.02.02-.041.028-.062.008-.022.022-.043.02-.063a.1.1 0 0 0-.024-.057Z"/><path fill="#EDB92E" stroke="#21231E" stroke-linejoin="round" stroke-width=".028" d="M17.127 13.44a.3.3 0 0 0-.079.049.13.13 0 0 0-.042.082.3.3 0 0 0 .008.108.2.2 0 0 1-.015.101.3.3 0 0 1-.055.097c-.069.068-.117.14-.098.185.012.029.022.037.042.05.008-.017.027-.032.034-.06a.2.2 0 0 1 .044-.097c.017-.018.02-.037.063-.063.027-.017.05-.01.068-.032.036-.043.083-.15.037-.198-.045-.048-.061-.075-.023-.157.013-.028.012-.048.016-.065ZM15.925 13.785c.036.03.045.024.055.043.013.023.007.059-.004.092-.043.132.038.12.136.07.05-.025.106-.09.15-.122.045-.032.076-.032.088-.045a4 4 0 0 0 .052-.241c-.007-.017-.037-.024-.067-.069-.03-.044-.061-.128-.1-.17-.082-.083-.163-.119-.167.042-.002.039-.009.078-.03.1-.016.016-.023.008-.07.03a.2.2 0 0 0-.07.056c-.018.022-.014.048-.018.073s-.015.049-.005.073q.015.037.05.067Z"/><path fill="#EDB92E" stroke="#21231E" stroke-linejoin="round" stroke-width=".028" d="M15.965 13.982c.03-.01.064-.02.094-.043.047-.036.034-.105-.007-.176-.013-.023-.014-.062-.007-.1a.2.2 0 0 1 .041-.094c.067-.062.107-.132.073-.183-.022-.033-.053-.053-.08-.072a.2.2 0 0 0-.011.071c-.001.04-.008.079-.03.1-.016.017-.023.008-.069.03a.2.2 0 0 0-.071.056c-.018.022-.014.048-.018.073s-.015.049-.005.073q.015.037.05.068c.036.03.046.024.056.043.012.023.006.059-.005.092a.2.2 0 0 0-.011.062Z"/><path fill="#EDB92E" stroke="#21231E" stroke-linecap="round" stroke-width=".028" d="m16.635 15.253-.62-.358-.658.28.62.356zM17.38 14.998l-.67.26.554.358c.143-.048.257-.531.117-.62z"/><path fill="#21231E" d="M14.76 13.642a.5.5 0 0 1 .27.12q-.081-.117-.273-.145zM14.76 13.548a.5.5 0 0 0 .27-.12q-.081.117-.273.145zM17.94 13.773a.2.2 0 0 0 .037-.175q.06.072-.017.183zM16.623 13.595a.7.7 0 0 1 .177-.267q-.125.069-.2.267zM16.542 13.584a.55.55 0 0 0-.045-.303q.087.103.064.308zM16.694 13.806q.115.03.169.136-.03-.125-.164-.161zM16.728 13.712a.5.5 0 0 0 .258-.109.44.44 0 0 1-.27.134zM16.381 13.659a.4.4 0 0 1-.22-.15q.051.127.217.175zM16.362 13.748a.46.46 0 0 0-.26.088.35.35 0 0 1 .268-.11z"/><path fill="#C6363C" stroke="#21231E" stroke-width=".028" d="M15.979 15.403c.155.01.287-.067.294-.175s-.111-.202-.267-.213c-.155-.01-.286.068-.294.175s.112.202.267.213Z"/><path fill="#EDB92E" stroke="#21231E" stroke-linejoin="round" stroke-width=".028" d="M16.587 13.515c-.114-.006-.223.092-.24.212-.015.12.064.213.173.214s.21-.087.23-.202-.05-.219-.163-.224Z"/><path fill="#EDB92E" stroke="#21231E" stroke-linejoin="round" stroke-width=".028" d="M16.578 13.573c-.083-.003-.162.067-.174.155s.044.157.125.158c.08.002.155-.065.17-.15.015-.086-.038-.16-.12-.163Z"/><path fill="#0C4076" stroke="#21231E" stroke-width=".028" d="M17.915 13.87c-.074-.03-.176.142-.083.18.063.027.112-.008.132-.06.02-.05.003-.1-.049-.12ZM17.358 15.112c-.16-.017-.296.055-.307.16s.11.2.27.217c.107.011.166-.055.177-.16.012-.106-.033-.206-.14-.217ZM16.57 13.631c-.052-.002-.102.042-.11.097s.028.1.079.1c.05.001.098-.04.107-.094.01-.054-.024-.1-.076-.103Z"/><path fill="#EDB92E" stroke="#21231E" stroke-linejoin="round" stroke-width=".028" d="m11.765 11.917-.777.361-.085.334.307.472-.028.389h-.25l-.417-1.111.53-.445 1.22-.416z"/><path fill="#EDB92E" stroke="#21231E" stroke-linejoin="round" stroke-width=".028" d="M11.157 13.434a1 1 0 0 1-.035-.131.44.44 0 0 1 .017-.227c-.083-.117-.176-.244-.243-.37-.047-.09-.084-.19-.056-.293.03-.11.125-.185.21-.25.103-.08.24-.149.378-.208q.466-.191.738-.197l-.114.106c-.337.109-.734.252-.925.4-.247.19-.241.235.117.743.012.016.038.056.029.074a.5.5 0 0 0 .003.32c-.03.058-.075.027-.12.033ZM13.504 13.116c.096-.007.073.163.054.201-.025.05-.048.051-.08.006-.023-.036-.07-.2.026-.207ZM11.689 13.356c.092-.03.11.142.1.183-.012.054-.034.06-.076.024-.031-.029-.116-.178-.024-.207Z"/><path fill="#fff" stroke="#21231E" stroke-linejoin="round" stroke-width=".028" d="M12.122 11.706c-.1 0-.18-.08-.18-.178s.08-.178.18-.178.18.08.18.178-.08.178-.18.178Z"/><path fill="#fff" stroke="#21231E" stroke-linejoin="round" stroke-width=".028" d="M11.785 11.817c-.1 0-.18-.08-.18-.178s.08-.178.18-.178.18.08.18.178-.08.178-.18.178Z"/><path fill="#fff" stroke="#21231E" stroke-linejoin="round" stroke-width=".028" d="M11.447 11.928c-.1 0-.18-.08-.18-.178s.08-.178.18-.178.18.08.18.178-.08.178-.18.178ZM11.109 12.08c-.1 0-.18-.079-.18-.177s.08-.178.18-.178.18.08.18.178-.08.178-.18.178Z"/><path fill="#fff" stroke="#21231E" stroke-linejoin="round" stroke-width=".028" d="M10.8 12.261c-.1 0-.18-.08-.18-.177 0-.099.08-.178.18-.178s.18.08.18.178-.081.177-.18.177ZM10.94 13.511c-.1 0-.18-.08-.18-.177 0-.099.08-.178.18-.178s.18.08.18.178-.08.177-.18.177Z"/><path fill="#fff" stroke="#21231E" stroke-linejoin="round" stroke-width=".028" d="M10.771 13.206c-.1 0-.18-.08-.18-.178s.08-.178.18-.178.18.08.18.178-.08.178-.18.178Z"/><path fill="#fff" stroke="#21231E" stroke-linejoin="round" stroke-width=".028" d="M10.63 12.9c-.099 0-.18-.08-.18-.178s.081-.177.18-.177c.1 0 .18.08.18.177 0 .099-.08.178-.18.178ZM10.574 12.539c-.1 0-.18-.08-.18-.178s.08-.178.18-.178.18.08.18.178-.08.178-.18.178ZM13.896 15.478a.09.09 0 0 1-.09-.09c0-.048.04-.088.09-.088s.09.04.09.089a.09.09 0 0 1-.09.089ZM12.516 15.561a.09.09 0 0 1-.09-.089c0-.049.04-.089.09-.089s.09.04.09.09a.09.09 0 0 1-.09.088ZM12.46 15.145a.09.09 0 0 1-.09-.09c0-.048.04-.088.09-.088s.09.04.09.089a.09.09 0 0 1-.09.089ZM13.867 15.061a.09.09 0 0 1-.09-.089c0-.049.04-.089.09-.089s.09.04.09.09a.09.09 0 0 1-.09.088ZM13.451 13.694c-.056-.083-.163-.472.062-.486s.169.39.127.473c-.057.11-.116.122-.189.013ZM11.95 13.875c-.027.125-.075.142-.177.053-.076-.067-.273-.414-.056-.483.217-.07.256.33.234.43Z"/><path fill="#EDB92E" stroke="#21231E" stroke-linejoin="round" stroke-width=".028" d="m14.12 11.39-.984.027-.62.195-.168.389.45.86-.197.556-.591-.5-.282-1.027.76-.64 1.605-.11z"/><path fill="#EDB92E" stroke="#21231E" stroke-linejoin="round" stroke-width=".028" d="M14.07 11.329a3.2 3.2 0 0 0-1.472.199c-.414.163-.373.64.131 1.302a.7.7 0 0 0-.075.309c.053-.003.09-.002.138-.003-.037-.08.004-.178.05-.248.03-.045.037-.037 0-.087-.3-.417-.5-.781-.382-1.002.142-.268.694-.407 1.624-.386l-.005-.075zM12.1 11.5l.052.069c-.273.149-.386.306-.36.464.005.027.088.316.273.876q.19.13.284.234c-.007.007.02.032.012.039.018.085-.079.068-.144.047a.54.54 0 0 0-.182-.207c-.011-.008-.052-.027-.056-.04-.1-.315-.199-.607-.284-.878-.086-.273.1-.466.405-.603Z"/><path fill="#fff" stroke="#21231E" stroke-linejoin="round" stroke-width=".028" d="M13.952 11.29c-.1 0-.18-.08-.18-.178s.08-.177.18-.177.18.08.18.177c0 .098-.08.178-.18.178Z"/><path fill="#fff" stroke="#21231E" stroke-linejoin="round" stroke-width=".028" d="M13.6 11.29c-.1 0-.18-.08-.18-.178s.08-.177.18-.177.18.08.18.177c0 .098-.08.178-.18.178Z"/><path fill="#fff" stroke="#21231E" stroke-linejoin="round" stroke-width=".028" d="M13.248 11.332c-.1 0-.18-.08-.18-.178s.08-.178.18-.178.18.08.18.178-.08.178-.18.178Z"/><path fill="#fff" stroke="#21231E" stroke-linejoin="round" stroke-width=".028" d="M12.91 11.401c-.099 0-.18-.08-.18-.178s.081-.177.18-.177c.1 0 .18.08.18.177 0 .098-.08.178-.18.178Z"/><path fill="#fff" stroke="#21231E" stroke-linejoin="round" stroke-width=".028" d="M12.573 11.512c-.1 0-.18-.08-.18-.178s.08-.177.18-.177.18.08.18.178-.08.177-.18.177Z"/><path fill="#fff" stroke="#21231E" stroke-linejoin="round" stroke-width=".028" d="M12.263 11.651c-.1 0-.18-.08-.18-.178s.08-.177.18-.177.18.08.18.177c0 .098-.08.178-.18.178Z"/><path fill="#fff" stroke="#21231E" stroke-linejoin="round" stroke-width=".028" d="M12.066 11.873c-.1 0-.18-.08-.18-.177 0-.099.08-.178.18-.178s.18.08.18.178-.08.177-.18.177ZM12.432 13.151c-.1 0-.18-.08-.18-.178s.08-.177.18-.177.18.08.18.177c0 .098-.08.178-.18.178Z"/><path fill="#fff" stroke="#21231E" stroke-linejoin="round" stroke-width=".028" d="M12.291 12.846c-.1 0-.18-.08-.18-.178s.08-.178.18-.178.18.08.18.178-.08.178-.18.178Z"/><path fill="#fff" stroke="#21231E" stroke-linejoin="round" stroke-width=".028" d="M12.15 12.54c-.099 0-.18-.08-.18-.178s.081-.177.18-.177c.1 0 .18.08.18.177 0 .098-.08.178-.18.178Z"/><path fill="#fff" stroke="#21231E" stroke-linejoin="round" stroke-width=".028" d="M12.038 12.207c-.1 0-.18-.08-.18-.178s.08-.178.18-.178.18.08.18.178-.08.178-.18.178Z"/><path fill="#EDB92E" stroke="#21231E" stroke-linejoin="round" stroke-width=".028" d="m11.081 13.528-.01.055a.5.5 0 0 1-.201.014c.093-.092.162-.111.211-.069Z"/><path fill="#EDB92E" stroke="#21231E" stroke-linejoin="round" stroke-width=".028" d="M11.053 13.398c.05.012.054.02.076.024.028.005.066.003.093-.02.108-.065.11.051.068.138-.03.063-.058.144-.03.197.035.064.028.093.004.11l-.047.03c-.03.035-.052.029-.056-.016-.108-.044-.1-.156-.132-.247-.047-.132-.219-.163.024-.216Z"/><path fill="#EDB92E" stroke="#21231E" stroke-linejoin="round" stroke-width=".028" d="M11.11 13.403c.093.033.104-.018.167-.016-.025.143-.05.217-.2.14-.083-.042-.189.02-.209.066-.007.017-.055-.018-.073-.056-.073-.16.188-.179.314-.134ZM11.441 14.095c.068-.02.175.129.2.126.034-.085-.035-.29-.156-.451-.082-.027-.09-.08-.106-.201-.005-.037-.076-.012-.077.05-.001.067-.006.104.008.16.006.023.003.044-.022.064.128.05.16.113.153.252Z"/><path fill="#EDB92E" stroke="#21231E" stroke-linejoin="round" stroke-width=".028" d="M11.38 13.57a.3.3 0 0 0-.019.093.13.13 0 0 0 .031.09.3.3 0 0 0 .085.07c.02.012.044.045.063.083.02.037.033.08.034.11.002.1.022.186.068.203a.1.1 0 0 0 .065.004c-.007-.018-.004-.043-.02-.068a.2.2 0 0 1-.041-.101c-.002-.025-.013-.042-.004-.091.007-.032.028-.044.024-.074-.007-.057-.053-.167-.12-.167-.065 0-.096-.007-.13-.094-.012-.03-.027-.043-.037-.058Z"/><path fill="#EDB92E" stroke="#21231E" stroke-linejoin="round" stroke-width=".028" d="M11.132 13.809a.2.2 0 0 1 .06-.032.16.16 0 0 1 .107-.005c.158.048.227.325.054.391q-.051.007-.096-.093a.5.5 0 0 0-.116-.187q-.036-.049-.01-.074Z"/><path fill="#EDB92E" stroke="#21231E" stroke-linejoin="round" stroke-width=".028" d="M11.21 13.825c.152-.058.264.229.122.283-.076.03-.083-.064-.098-.117-.02-.07-.17-.11-.023-.166ZM14.355 13q-.114-.21-.242-.268.178-.547.076-1.419c-.007-.087-.029-.124-.062-.124-.03 0-.048.045-.05.145.02.32.047.6.032.838-.013.212-.063.389-.119.588-.008.028.012.05.109.103.071.04.116.09.131.14a.06.06 0 0 1 .042-.003c.071.02.102.015.083 0ZM13.904 13.462c.044-.028.053-.02.067-.039.018-.023.018-.06.013-.097-.023-.147.066-.126.165-.062.05.033.1.108.144.148.042.039.078.042.089.058a4 4 0 0 1 0 .254c-.011.015-.047.019-.09.058s-.093.115-.143.147c-.1.065-.188.086-.165-.061.005-.037.005-.074-.013-.098-.014-.018-.023-.01-.067-.038a.2.2 0 0 1-.064-.062c-.014-.023-.007-.048-.007-.073s-.007-.05.007-.073a.2.2 0 0 1 .064-.062Z"/><path fill="#EDB92E" stroke="#21231E" stroke-linejoin="round" stroke-width=".028" d="M13.98 13.259c.032.013.067.027.097.055.045.043.016.115-.042.184a.16.16 0 0 0-.027.099c0 .039.009.077.027.098.058.07.087.14.042.184-.03.028-.065.042-.097.056a.2.2 0 0 1 .002-.067c.006-.037.006-.075-.013-.098-.014-.018-.022-.01-.067-.038a.2.2 0 0 1-.064-.062c-.014-.023-.006-.048-.006-.073s-.008-.05.006-.073a.2.2 0 0 1 .064-.063c.045-.027.053-.02.067-.038.019-.023.019-.061.013-.097a.2.2 0 0 1-.002-.067ZM12.562 13.056c.037.047.033.058.053.072.026.017.062.01.095-.002.137-.051.137.056.098.179-.02.06-.078.124-.104.175s-.02.086-.032.1a3 3 0 0 1-.221.029c-.016-.009-.028-.044-.074-.083-.045-.039-.124-.081-.166-.129-.085-.096-.131-.189.004-.186.033.001.067-.005.082-.029.012-.018.003-.027.014-.08a.2.2 0 0 1 .038-.085c.017-.021.043-.017.066-.02.023-.005.045-.019.07-.006a.2.2 0 0 1 .077.065Z"/><path fill="#EDB92E" stroke="#21231E" stroke-linejoin="round" stroke-width=".028" d="M12.776 13.111c-.005.04-.01.082-.03.12-.03.057-.104.035-.183-.019a.14.14 0 0 0-.098-.015c-.035.006-.067.022-.08.045-.046.073-.1.114-.15.072-.034-.027-.057-.063-.078-.096a.14.14 0 0 1 .059-.008c.034 0 .067-.006.082-.03.012-.018.003-.026.015-.08a.2.2 0 0 1 .037-.085c.018-.021.043-.016.066-.02.024-.005.045-.019.07-.006a.2.2 0 0 1 .077.065c.037.047.033.058.053.072.027.017.063.01.096-.002a.2.2 0 0 1 .063-.013ZM12.027 13.645c.022-.026.03-.02.034-.037.005-.021-.007-.055-.024-.086-.065-.127.004-.116.1-.066a.5.5 0 0 1 .079.058c.028.024.055.048.078.064.047.034.076.035.09.048a4 4 0 0 1 .089.233c-.003.014-.03.018-.05.055-.02.036-.036.101-.06.133-.036.046-.068.074-.094.07-.025-.005-.043-.042-.05-.123a.14.14 0 0 0-.041-.084c-.017-.015-.02-.009-.06-.031a.3.3 0 0 1-.067-.052c-.017-.02-.02-.04-.028-.062s-.022-.043-.02-.063q.003-.03.024-.057Z"/><path fill="#EDB92E" stroke="#21231E" stroke-linejoin="round" stroke-width=".028" d="M12.016 13.44a.3.3 0 0 1 .078.048c.025.02.038.05.043.082a.3.3 0 0 1-.008.108.2.2 0 0 0 .015.101.3.3 0 0 0 .055.098c.069.068.117.14.098.184a.1.1 0 0 1-.042.05c-.008-.017-.028-.032-.034-.06a.2.2 0 0 0-.044-.097c-.017-.017-.021-.037-.063-.063-.027-.017-.05-.01-.069-.032-.035-.043-.082-.15-.036-.198.045-.047.06-.074.023-.156-.013-.028-.013-.049-.017-.066ZM13.218 13.784c-.036.03-.046.024-.056.043-.012.023-.006.059.005.092.043.133-.039.12-.137.07-.048-.025-.105-.089-.15-.121-.044-.033-.075-.032-.087-.046a4 4 0 0 1-.052-.241c.006-.016.037-.024.067-.068s.06-.13.1-.17c.081-.084.163-.12.167.041.001.04.008.079.03.1.016.017.023.008.069.03q.045.023.071.056c.018.022.014.048.018.073s.015.049.005.073a.2.2 0 0 1-.05.068Z"/><path fill="#EDB92E" stroke="#21231E" stroke-linejoin="round" stroke-width=".028" d="M13.178 13.98c-.03-.008-.064-.018-.095-.042-.046-.035-.033-.105.007-.176.013-.023.015-.062.008-.1a.2.2 0 0 0-.042-.093c-.066-.063-.106-.132-.073-.183.023-.034.053-.054.081-.072q.01.025.01.07c.002.04.009.079.03.1.017.017.023.008.07.03q.046.023.07.056c.018.022.015.048.018.073.004.025.015.05.005.074a.2.2 0 0 1-.05.067c-.036.03-.045.024-.055.043-.013.024-.007.06.004.093a.2.2 0 0 1 .012.06Z"/><path fill="#EDB92E" stroke="#21231E" stroke-linecap="round" stroke-width=".028" d="m12.508 15.253.619-.358.659.28-.62.356zM11.762 14.998l.67.26-.553.358c-.144-.048-.257-.531-.117-.62z"/><path fill="#21231E" d="M14.383 13.642a.5.5 0 0 0-.27.12q.081-.117.272-.145zM14.383 13.548a.5.5 0 0 1-.27-.12q.081.117.272.145zM11.202 13.773a.2.2 0 0 1-.037-.175q-.059.073.017.183zM12.52 13.595a.7.7 0 0 0-.178-.267q.126.07.2.267zM12.6 13.584a.55.55 0 0 1 .046-.303q-.087.104-.065.308zM12.449 13.806a.25.25 0 0 0-.17.136q.03-.125.164-.16zM12.415 13.712a.5.5 0 0 1-.259-.108.44.44 0 0 0 .27.133zM12.761 13.659a.4.4 0 0 0 .22-.15q-.05.127-.217.175zM12.781 13.748q.135.002.259.089a.35.35 0 0 0-.267-.111z"/><path fill="#C6363C" stroke="#21231E" stroke-width=".028" d="M13.164 15.403c-.155.01-.287-.068-.295-.175s.112-.202.267-.213.287.067.295.175c.007.107-.112.202-.267.213Z"/><path fill="#EDB92E" stroke="#21231E" stroke-linejoin="round" stroke-width=".028" d="M12.556 13.515c.113-.006.223.092.239.212s-.063.212-.172.213-.21-.086-.23-.201.05-.219.163-.224Z"/><path fill="#EDB92E" stroke="#21231E" stroke-linejoin="round" stroke-width=".028" d="M12.564 13.573c.083-.004.163.067.175.155.012.087-.045.156-.126.158-.08.001-.155-.065-.17-.15-.014-.086.039-.16.121-.163Z"/><path fill="#0C4076" stroke="#21231E" stroke-width=".028" d="M11.227 13.87c.074-.029.176.142.083.181-.062.026-.112-.008-.132-.06-.02-.051-.003-.101.05-.121ZM11.785 15.112c.16-.016.295.056.306.161s-.11.2-.27.217c-.107.011-.166-.056-.177-.161s.034-.206.14-.217ZM12.573 13.632c.051-.002.1.042.109.097.008.054-.028.099-.079.1-.05 0-.098-.04-.107-.095-.01-.054.025-.1.076-.102Z"/><path fill="#fff" stroke="#21231E" stroke-linejoin="round" stroke-width=".028" d="M14.571 12.928c.1 0 .18-.08.18-.178a.18.18 0 0 0-.18-.178c-.1 0-.18.08-.18.178s.08.178.18.178Z"/><path fill="#fff" stroke="#21231E" stroke-linejoin="round" stroke-width=".028" d="M14.571 12.595c.1 0 .18-.08.18-.178a.18.18 0 0 0-.18-.178c-.099 0-.18.08-.18.178s.081.178.18.178Z"/><path fill="#fff" stroke="#21231E" stroke-linejoin="round" stroke-width=".028" d="M14.571 12.275c.1 0 .18-.08.18-.177a.18.18 0 0 0-.18-.178c-.1 0-.18.08-.18.178s.08.177.18.177ZM14.572 11.373c.099 0 .18-.08.18-.178a.18.18 0 0 0-.18-.178c-.1 0-.18.08-.18.178s.08.178.18.178Z"/><path fill="#fff" stroke="#21231E" stroke-linejoin="round" stroke-width=".028" d="M14.571 11.65c.1 0 .18-.08.18-.177a.18.18 0 0 0-.18-.178c-.099 0-.18.08-.18.178s.081.177.18.177Z"/><path fill="#fff" stroke="#21231E" stroke-linejoin="round" stroke-width=".028" d="M14.571 11.956c.1 0 .18-.08.18-.178a.18.18 0 0 0-.18-.178c-.099 0-.18.08-.18.178s.081.178.18.178Z"/><path fill="#EDB92E" stroke="#21231E" stroke-linejoin="round" stroke-width=".028" d="M14.572 12.861c.025 0 .05-.008.073.006a.2.2 0 0 1 .062.064c.025.042.016.055.039.067q.043.02.098.013c.147-.022.13.064.062.164-.033.05-.11.1-.149.142-.04.042-.042.078-.059.089h-.253c-.017-.011-.02-.047-.06-.09-.039-.04-.115-.09-.149-.14-.067-.1-.084-.187.062-.165q.056.008.099-.013c.022-.012.014-.025.04-.067a.2.2 0 0 1 .061-.064c.023-.014.048-.006.074-.006Z"/><path fill="#21231E" d="M14.617 13.406a.5.5 0 0 1 .123-.267q-.12.081-.149.273zM14.527 13.406a.5.5 0 0 0-.124-.267q.12.081.149.273z"/><path fill="#EDB92E" stroke="#21231E" stroke-linejoin="round" stroke-width=".028" d="M14.571 12.862c.026 0 .051-.008.074.005a.2.2 0 0 1 .061.064c.026.042.017.056.04.067q.043.022.098.014a.2.2 0 0 1 .068-.003c-.014.03-.028.07-.056.097-.043.042-.102.011-.186-.044a.2.2 0 0 0-.099-.025.2.2 0 0 0-.098.025c-.085.055-.144.086-.186.044-.028-.027-.042-.066-.056-.097a.2.2 0 0 1 .067.003q.056.007.099-.014c.022-.011.014-.025.04-.067a.2.2 0 0 1 .061-.064c.023-.014.048-.005.073-.005ZM14.571 13.38c.12 0 .218.097.218.216 0 .12-.098.217-.218.217a.217.217 0 0 1-.217-.217c0-.119.097-.216.217-.216ZM17.33 15.737q0-.075-.138-.086a32.6 32.6 0 0 0-5.241 0q-.138.01-.138.086 0 .075.138.086 2.62.21 5.24 0 .14-.011.139-.086Z"/><path fill="#EDB92E" stroke="#21231E" stroke-linejoin="round" stroke-width=".028" d="M14.571 13.809c.12 0 .217-.096.217-.214a.215.215 0 0 0-.217-.214.215.215 0 0 0-.216.214c0 .118.097.214.216.214Z"/><path fill="#EDB92E" stroke="#21231E" stroke-linejoin="round" stroke-width=".028" d="M14.571 13.753a.16.16 0 0 0 .16-.158.16.16 0 0 0-.16-.158.16.16 0 0 0-.16.158.16.16 0 0 0 .16.158Z"/><path fill="#0C4076" stroke="#21231E" stroke-width=".028" d="M14.571 15.361c.156 0 .282-.087.282-.194s-.126-.195-.282-.195-.281.087-.281.195c0 .107.126.194.281.194ZM14.572 13.697a.103.103 0 0 0 .104-.102.103.103 0 0 0-.104-.103.104.104 0 0 0-.105.103c0 .056.047.102.104.102Z"/><path stroke="#21231E" stroke-linecap="round" stroke-width=".028" d="M13.249 15.834a23 23 0 0 1-.648-.059 28 28 0 0 1 3.94 0q-.348.037-.647.059"/><path fill="#C6363C" stroke="#fff" stroke-width=".07" d="M19.322 15.869V23.5c0 1.25-.563 2.472-1.408 3.36-.844.89-2.027 1.5-3.343 1.5s-2.498-.61-3.342-1.5c-.844-.888-1.407-2.11-1.407-3.36v-7.632z"/><path fill="#fff" stroke="#21231E" stroke-linejoin="round" stroke-width=".028" d="M14.529 27.911c-.041-.007-.11.002-.163-.039-.07-.053-.042-.271-.036-.41q.046-1.057.098-3.554a.5.5 0 0 1 .143.002.5.5 0 0 1 .144-.002c.036 1.665.065 2.85.097 3.555.006.138.034.355-.035.41-.053.04-.122.031-.163.038z"/><path fill="#fff" stroke="#21231E" stroke-linejoin="round" stroke-width=".028" d="M14.081 27.89c.042-.002.11.013.166-.023.074-.048.08-.27.086-.408.033-.705.1-1.884.216-3.546a.5.5 0 0 0-.143-.01l-.02-.005c-.268 1.643-.37 2.81-.553 3.513-.025.097-.08.34.005.42.048.044.118.042.158.052l.085.008Z"/><path fill="#fff" stroke="#21231E" stroke-linejoin="round" stroke-width=".028" d="M13.555 27.817c.042 0 .108.021.167-.01.078-.04.075-.263.11-.396.184-.704.285-1.87.553-3.514a.5.5 0 0 0-.141-.023c-.426 1.598-.554 2.724-.885 3.42-.031.097-.114.353-.035.442.044.05.114.053.153.067l.084.015z"/><path fill="#fff" stroke="#21231E" stroke-linejoin="round" stroke-width=".028" d="M13.028 27.669c.041.005.11.043.172.018.082-.033.095-.27.154-.395.332-.699.46-1.833.891-3.443a.5.5 0 0 0-.138-.037c-.038-.017-.03-.025-.09-.034-.5 1.59-.664 2.696-1.136 3.382-.076.111-.132.333-.08.404.038.053.107.064.145.081l.082.024ZM15.061 27.89c-.041-.002-.11.013-.165-.023-.075-.048-.08-.27-.087-.408a158 158 0 0 0-.215-3.546.5.5 0 0 1 .143-.01l.02-.005c.268 1.643.369 2.81.552 3.513.026.097.08.34-.004.42-.049.044-.118.042-.159.052l-.085.008Z"/><path fill="#fff" stroke="#21231E" stroke-linejoin="round" stroke-width=".028" d="M15.588 27.817c-.042 0-.108.021-.167-.01-.078-.04-.075-.263-.11-.396-.184-.704-.285-1.87-.553-3.514a.5.5 0 0 1 .141-.023c.427 1.598.555 2.724.886 3.42.03.097.114.353.034.442-.044.05-.114.053-.153.067l-.084.015z"/><path fill="#fff" stroke="#21231E" stroke-linejoin="round" stroke-width=".028" d="M16.115 27.669c-.041.005-.11.043-.172.018-.082-.033-.095-.27-.154-.395-.333-.699-.46-1.833-.891-3.443a.5.5 0 0 1 .138-.037c.037-.017.03-.025.09-.034.5 1.59.663 2.696 1.136 3.382.076.111.132.333.08.404-.039.053-.107.064-.145.081l-.082.024ZM13.307 26.468c.038.002.095.025.154-.003.079-.037.13-.252.173-.385.335-.654.641-1.815 1.143-3.43a.4.4 0 0 0-.124-.027.4.4 0 0 0-.124-.033c-.54 1.598-.783 2.752-1.312 3.388-.087.105-.152.334-.11.4.03.05.093.057.126.072l.074.018Z"/><path fill="#fff" stroke="#21231E" stroke-linejoin="round" stroke-width=".028" d="M13.735 26.55c.038 0 .097.018.153-.014.074-.043.1-.261.127-.397.135-.696.384-1.864.738-3.504a.4.4 0 0 0-.127-.018.4.4 0 0 0-.127-.022c-.418 1.63-.515 2.85-.91 3.476-.073.114-.114.344-.064.407.037.047.1.048.135.06l.075.013Z"/><path fill="#fff" stroke="#21231E" stroke-linejoin="round" stroke-width=".028" d="M14.17 26.6c.038-.004.1.01.151-.027.069-.049.07-.268.08-.405.053-.704.165-1.886.327-3.546a.4.4 0 0 0-.13-.008.4.4 0 0 0-.128-.012c-.226 1.654-.358 2.853-.502 3.531-.028.136-.072.352-.015.41.042.045.105.041.14.05z"/><path fill="#fff" stroke="#21231E" stroke-linejoin="round" stroke-width=".028" d="M15.835 26.468c-.037.002-.094.025-.154-.003-.078-.037-.13-.252-.172-.385-.335-.654-.641-1.815-1.144-3.43a.4.4 0 0 1 .125-.028.4.4 0 0 1 .123-.032c.541 1.597.784 2.752 1.313 3.388.087.105.152.334.11.4-.03.05-.094.057-.127.072l-.074.018Z"/><path fill="#fff" stroke="#21231E" stroke-linejoin="round" stroke-width=".028" d="M15.408 26.55c-.038 0-.098.018-.153-.014-.074-.043-.1-.261-.127-.397-.135-.696-.384-1.864-.739-3.504a.4.4 0 0 1 .128-.018.4.4 0 0 1 .126-.022c.419 1.63.516 2.85.912 3.476.072.114.112.344.063.407-.037.047-.1.048-.135.06l-.075.013Z"/><path fill="#fff" stroke="#21231E" stroke-linejoin="round" stroke-width=".028" d="M14.972 26.6c-.038-.004-.099.01-.15-.027-.07-.049-.07-.268-.08-.405-.054-.704-.166-1.886-.327-3.546a.4.4 0 0 1 .129-.008.4.4 0 0 1 .128-.012c.227 1.654.359 2.853.502 3.531.029.136.072.352.016.41-.042.045-.105.041-.141.05l-.077.007Z"/><path fill="#fff" stroke="#21231E" stroke-linejoin="round" stroke-width=".028" d="M14.533 26.614c-.037-.007-.1.002-.147-.039-.062-.054-.038-.272-.032-.41.029-.704.055-1.89.088-3.555a.4.4 0 0 1 .13.003.4.4 0 0 1 .129-.003q.046 2.498.088 3.555c.005.138.03.356-.033.41-.047.04-.11.032-.146.039z"/><path fill="#fff" stroke="#21231E" stroke-linejoin="round" stroke-width=".028" d="M13.603 25.5c.03.002.073.024.118-.003.06-.038.1-.252.132-.386.257-.654.492-1.815.876-3.429l-.19-.06c-.414 1.597-.6 2.752-1.005 3.388-.067.105-.117.334-.085.4.024.05.072.056.098.071z"/><path fill="#fff" stroke="#21231E" stroke-linejoin="round" stroke-width=".028" d="M13.93 25.583c.03-.001.075.017.118-.015.057-.044.077-.261.097-.398q.156-1.044.566-3.503l-.195-.04c-.32 1.629-.395 2.849-.698 3.475-.055.114-.086.345-.048.408.028.047.076.048.103.06l.058.013Z"/><path fill="#fff" stroke="#21231E" stroke-linejoin="round" stroke-width=".028" d="M14.264 25.632c.03-.004.076.01.116-.027.052-.05.053-.268.06-.406q.064-1.055.251-3.545l-.197-.02c-.174 1.654-.275 2.852-.384 3.531-.022.135-.055.352-.012.41.032.044.08.04.108.05q.03.005.059.006Z"/><path fill="#fff" stroke="#21231E" stroke-linejoin="round" stroke-width=".028" d="M15.54 25.5c-.03.002-.073.024-.118-.003-.06-.038-.1-.252-.132-.386-.257-.654-.492-1.815-.876-3.429l.19-.06c.414 1.597.6 2.752 1.005 3.388.067.105.116.334.085.4-.024.05-.073.056-.098.071z"/><path fill="#fff" stroke="#21231E" stroke-linejoin="round" stroke-width=".028" d="M15.212 25.583c-.03-.001-.075.017-.117-.015-.057-.044-.077-.261-.097-.398q-.158-1.044-.566-3.503l.194-.04c.321 1.629.395 2.849.699 3.475.055.114.086.345.048.408-.028.047-.076.048-.103.06l-.058.013Z"/><path fill="#fff" stroke="#21231E" stroke-linejoin="round" stroke-width=".028" d="M14.878 25.632c-.029-.004-.075.01-.115-.027-.053-.05-.053-.268-.061-.406q-.063-1.055-.25-3.545l.197-.02c.173 1.654.274 2.852.384 3.531.022.135.055.352.012.41-.032.044-.08.04-.108.05l-.06.006z"/><path fill="#fff" stroke="#21231E" stroke-linejoin="round" stroke-width=".028" d="M14.542 25.646c-.028-.007-.076.001-.112-.04-.049-.053-.03-.271-.025-.409q.031-1.057.067-3.555h.198q.036 2.498.068 3.555c.004.138.023.356-.025.41-.036.04-.084.032-.112.038z"/><path fill="#fff" stroke="#21231E" stroke-linejoin="round" stroke-width=".028" d="M15.081 23.478c0 .133-.335 1.539-.51 1.539-.174 0-.509-1.406-.509-1.539z"/><path fill="#EDB92E" stroke="#21231E" stroke-linejoin="round" stroke-width=".028" d="M16.88 25.222c.008 0 .017.02.02.028.027.084.137.222.222.306.132.13.095.333.01.444a.9.9 0 0 0-.165.353c-.014.07-.034.211-.017.433.008.111.076.164.138.214.03.025-.023.092-.124.167-.011.008-.04.025-.056.083-.003.009-.054.009-.056 0-.017-.058-.046-.075-.057-.083-.101-.075-.155-.142-.124-.167.062-.05.13-.103.138-.214a1.6 1.6 0 0 0-.017-.433.9.9 0 0 0-.166-.353c-.084-.11-.12-.314.011-.444.085-.084.195-.223.223-.306.003-.008.011-.028.02-.028Z"/><path fill="#EDB92E" stroke="#21231E" stroke-linejoin="round" stroke-width=".028" d="M17.237 26.978c-.225.166-.433-.234-.23-.767.151-.4.88-.233.467.292-.02.025-.048.014-.043-.014.023-.111-.04-.175-.157-.153-.296.056-.307.611.017.486.059-.005.002.114-.054.156ZM16.522 26.978c.225.166.434-.234.231-.767-.152-.4-.881-.233-.467.292.02.025.048.014.042-.014-.023-.111.04-.175.158-.153.295.056.306.611-.017.486-.06-.005-.003.114.053.156Z"/><path fill="#EDB92E" stroke="#21231E" stroke-linejoin="round" stroke-width=".028" d="M16.71 26.542a.1.1 0 0 0-.069.028.097.097 0 0 0 .07.166h.337a.1.1 0 0 0 .07-.028.097.097 0 0 0-.07-.166zM17.051 24.056c.141.305.31.583.479.833.084.028.14.07.197.086.056.017.45.011.464-.016.127-.098.324-.014.24.097.056.055-.057.205-.141.139-.085-.067-.366 0-.45-.028.028.083.31.13.478.139.169.008.14.166.084.305l-.056.028c-.056.111-.22.078-.225-.028-.006-.105-.394-.25-.45-.333.056.167.225.333.31.5.084.083.14.083.027.25l-.197.028c-.169 0-.197-.056-.169-.195.029-.139-.104-.389-.14-.46-.034-.067-.043-.137-.076-.176-.06-.078-.36-.205-.431-.17-.14.073-.24.029-.253-.11.028-.028 0-.223.101-.24.084-.013.124.029.194.084.113.089.175.139.209.13.09-.021-.16-.141-.386-.435-.225-.295-.315-.734.191-.428Z"/><path fill="#EDB92E" stroke="#21231E" stroke-linejoin="round" stroke-width=".028" d="M18.426 25.126c.112-.065.177-.062.221-.014.024.027.055.013.037-.029-.075-.175-.195-.197-.302-.115l-.079.075c.018.026.108.063.122.083ZM16.808 24.97c-.12-.081-.232-.097-.294-.052-.033.025-.067.007-.037-.034.124-.173.27-.182.38-.084.03.032.053.059.077.086a.4.4 0 0 1-.126.084ZM17.753 25.96c-.004-.007.027-.151.076-.196.038.03.08.056.12.098.12.123.12.306-.068.464-.046.04-.067-.002-.048-.047.032-.077-.007-.175-.08-.32ZM18.22 25.58c.11.046.15.104.145.18-.002.042.026.058.042.009.136-.312-.006-.37-.21-.36a.4.4 0 0 0 .023.172Z"/><path stroke="#21231E" stroke-linecap="round" stroke-width=".028" d="M16.72 24.275c.053-.05.109-.103.163-.041.053.06.025.119-.054.2.05-.034.113-.145.169-.067s.005.144-.056.208c.064-.053.115-.133.171-.066.057.066 0 .133-.05.183.056-.045.112-.086.146-.047.05.058.009.097-.045.147.062-.045.104-.089.15-.039.044.05-.015.111-.049.133"/><path fill="#fff" stroke="#21231E" stroke-linejoin="round" stroke-width=".028" d="M16.73 20.528c-.006.24.037 1.849.05 2.076a.64.64 0 0 0 .224.469 1 1 0 0 0 .173-.532c.007-.11-.013-1.632-.022-1.945z"/><path fill="#fff" stroke="#21231E" stroke-linejoin="round" stroke-width=".028" d="m17.788 20.134.07 2.21c.021.197-.238 1.364-.38 1.594-.35-.147-.423-.94-.357-1.71.066-.772-.011-1.438-.065-1.577z"/><path fill="#fff" stroke="#21231E" stroke-linejoin="round" stroke-width=".028" d="m18.203 20.496-.047 2.211c.01.197-.309 1.348-.462 1.57-.355-.271-.284-1.383-.23-1.72.109-.67.09-1.446.053-1.572z"/><path fill="#fff" stroke="#21231E" stroke-linejoin="round" stroke-width=".028" d="m18.511 21.02-.589-.015c.05.24.01.99-.091 1.561-.095.536-.228 1.924.337 2.258.35-.733.083-1.445.26-2.081zM16.26 20.122l.116 2.073a.64.64 0 0 0 .238.462 1 1 0 0 0 .156-.538c.004-.11-.064-1.63-.082-1.942zM17.306 18.812c.016.518.025 1.642.022 1.737-.008.216-.094.491-.19.63a.64.64 0 0 1-.237-.462c-.017-.186-.023-1.097-.026-1.554z"/><path fill="#fff" stroke="#21231E" stroke-linejoin="round" stroke-width=".028" d="M16.886 19.146c.01.558.004 1.437.002 1.509-.008.216-.062.4-.157.537a.66.66 0 0 1-.248-.467 19 19 0 0 1-.056-1.192zM17.247 18.765l.401-.57c.081.282.18 2.3.064 2.465a1 1 0 0 1-.182.536c-.11-.085-.276-.237-.228-.466.048-.228-.006-1.73-.055-1.965Z"/><path fill="#fff" stroke="#21231E" stroke-linejoin="round" stroke-width=".028" d="m18.07 20.035.026.633a1 1 0 0 1-.156.538c-.11-.085-.252-.236-.238-.462.057-.874-.04-1.697-.153-2.488l.35-.212z"/><path fill="#fff" stroke="#21231E" stroke-linejoin="round" stroke-width=".028" d="m18.47 20.606-.108.407c-.008.216-.143.394-.238.532a.46.46 0 0 1-.184-.45c.163-1.29.105-2.144-.17-3.196.62.418.908 1.3.7 2.707ZM18.438 21.006l.57-.186c.072.561-.04 1.267-.193 2.197-.131.8-.062 1.431.038 1.837-.607-.082-.864-.855-.559-2.308.08-.38.16-.867.144-1.54Z"/><path fill="#fff" stroke="#21231E" stroke-linejoin="round" stroke-width=".028" d="M18.218 18.41c.14.675.232 1.47.126 2.34q-.06.486-.21.793c.41-.046.672-.44.638-1.13l-.092-1.925z"/><path fill="#fff" stroke="#21231E" stroke-linejoin="round" stroke-width=".028" d="M18.515 18.498c.031.175.136.38.158.604.072.738.073 1.663-.152 2.255.41-.046.55-.413.563-1.102.011-.57.013-1.242-.132-2.019zM17.664 18.333l.378-.044c.07.353.122.602.135.728.026.247-.05.473-.137.641-.14-.083-.204-.264-.263-.518zM16.683 19.127l.335.004c.012.304.02.51.015.617-.011.21-.064.39-.155.522a.63.63 0 0 1-.214-.451c-.015-.222.017-.457.019-.692Z"/><path fill="#fff" stroke="#21231E" stroke-linejoin="round" stroke-width=".028" d="M16.656 19.3c.001.304.002.51-.007.617-.018.21-.078.387-.173.517a.63.63 0 0 1-.198-.46zM17.024 18.956l.335-.023c.037.302.062.507.065.614.007.211-.032.393-.111.533a.63.63 0 0 1-.25-.433c-.034-.22-.021-.456-.039-.69Z"/><path fill="#fff" stroke="#21231E" stroke-linejoin="round" stroke-width=".028" d="M17.705 18.45c.063.244.148 1.051-.003 1.392a.7.7 0 0 1-.287-.479c-.041-.243-.053-.502-.077-.763zM16.39 23.286l.556.281c.16.35.311.535.503.699-.278.05-.514-.003-.665-.205-.205-.271-.315-.436-.383-.472z"/><path fill="#fff" stroke="#21231E" stroke-linejoin="round" stroke-width=".028" d="M16.507 23.491c.136.274.229.459.267.559a.96.96 0 0 1 .062.543.63.63 0 0 1-.396-.324z"/><path fill="#fff" stroke="#21231E" stroke-linejoin="round" stroke-width=".028" d="M16.436 23.575c.064.298.108.5.12.607a.96.96 0 0 1-.074.54.62.62 0 0 1-.303-.409c-.054-.215-.06-.452-.099-.684z"/><path fill="#fff" stroke="#21231E" stroke-linejoin="round" stroke-width=".028" d="M15.711 23.757c.188.335.248.566.266.816.208-.19.305-.409.232-.65-.098-.324-.193-.697-.182-.773z"/><path fill="#fff" stroke="#21231E" stroke-linejoin="round" stroke-width=".028" d="M16.272 22.886c.12.28.202.47.234.573a.96.96 0 0 1 .03.545.62.62 0 0 1-.394-.327c-.094-.202-.128-.452-.21-.672z"/><path fill="#fff" stroke="#21231E" stroke-linejoin="round" stroke-width=".028" d="M16.238 22.315c.078-.02.181.16.282.264q.038.034.071.077a.6.6 0 0 1 .096.221c.085.374.208.568.363.767-.283-.006-.503-.106-.61-.334-.145-.307-.218-.49-.277-.54zM15.392 24.096c-.24.3-.337.52-.395.763-.174-.22-.234-.452-.124-.678.41-.465.407-.462.519-.085Z"/><path fill="#fff" stroke="#21231E" stroke-linejoin="round" stroke-width=".028" d="M15.325 23.876c-.24.3-.488.528-.546.772-.175-.22-.249-.452-.138-.678z"/><path fill="#fff" stroke="#21231E" stroke-linejoin="round" stroke-width=".028" d="M15.763 23.778c-.24.301-.336.52-.395.763-.174-.22-.234-.452-.123-.678z"/><path fill="#EDB92E" stroke="#21231E" stroke-linejoin="round" stroke-width=".028" d="M12.264 25.222c-.009 0-.017.02-.02.028-.028.084-.138.222-.223.306-.132.13-.095.333-.01.444a.9.9 0 0 1 .165.353c.014.07.034.211.017.433-.008.111-.076.164-.138.214-.03.025.023.092.124.167.011.008.04.025.056.083.003.009.054.009.057 0 .017-.058.045-.075.056-.083.101-.075.155-.142.124-.167-.062-.05-.13-.103-.138-.214a1.6 1.6 0 0 1 .017-.433.9.9 0 0 1 .166-.353c.084-.11.12-.314-.011-.444-.085-.084-.195-.223-.223-.306-.002-.008-.011-.028-.02-.028Z"/><path fill="#EDB92E" stroke="#21231E" stroke-linejoin="round" stroke-width=".028" d="M11.906 26.978c.225.167.434-.233.23-.767-.151-.4-.88-.233-.466.292.02.025.047.014.042-.014-.023-.11.04-.175.158-.152.295.055.306.61-.017.486-.06-.006-.003.113.053.155ZM12.621 26.978c-.225.166-.433-.234-.23-.767.151-.4.88-.233.467.292-.02.025-.048.014-.043-.014.023-.111-.04-.175-.157-.153-.296.056-.307.611.017.486.059-.005.002.114-.054.156Z"/><path fill="#EDB92E" stroke="#21231E" stroke-linejoin="round" stroke-width=".028" d="M12.433 26.542a.1.1 0 0 1 .07.028.097.097 0 0 1 0 .138.1.1 0 0 1-.07.028h-.338a.097.097 0 1 1 0-.194zM12.092 24.056c-.14.305-.31.583-.479.833-.084.028-.14.07-.197.086-.056.017-.45.011-.464-.016-.127-.098-.324-.014-.24.097-.056.055.057.205.141.139.085-.067.366 0 .45-.028-.027.083-.309.13-.478.139-.169.008-.14.166-.084.305l.056.028c.056.111.22.078.225-.028.006-.105.394-.25.45-.333-.056.167-.224.333-.309.5-.084.083-.14.083-.028.25l.197.028c.169 0 .197-.056.169-.195s.104-.389.14-.46c.034-.067.043-.137.077-.176.059-.078.36-.205.43-.17.141.073.24.029.254-.11-.029-.028 0-.223-.102-.24-.084-.013-.124.029-.194.084-.113.089-.175.139-.208.13-.09-.021.16-.141.385-.435.226-.295.316-.734-.191-.428Z"/><path fill="#EDB92E" stroke="#21231E" stroke-linejoin="round" stroke-width=".028" d="M10.718 25.126c-.113-.065-.178-.062-.222-.014-.024.027-.055.013-.037-.029.075-.175.195-.197.303-.115l.078.075c-.018.026-.108.063-.122.083ZM12.335 24.97c.12-.081.232-.097.294-.052.034.025.067.007.037-.034-.124-.173-.27-.182-.38-.084q-.043.047-.077.086c.038.04.121.087.126.084ZM11.39 25.96c.004-.007-.027-.151-.076-.196-.038.03-.08.056-.12.098-.12.123-.12.306.068.464.046.04.067-.002.048-.047-.032-.077.007-.175.08-.32ZM10.924 25.58c-.112.046-.15.104-.146.18.002.042-.026.058-.041.009-.136-.312.005-.37.209-.36a.4.4 0 0 1-.022.172Z"/><path stroke="#21231E" stroke-linecap="round" stroke-width=".028" d="M12.424 24.275c-.054-.05-.11-.103-.163-.041-.054.06-.026.119.053.2-.05-.034-.113-.145-.169-.067s-.005.144.056.208c-.064-.053-.115-.133-.171-.066-.056.066 0 .133.05.183-.056-.045-.112-.086-.146-.047-.05.058-.008.097.045.147-.062-.045-.104-.089-.15-.039-.044.05.015.111.049.133"/><path fill="#fff" stroke="#21231E" stroke-linejoin="round" stroke-width=".028" d="M12.414 20.528c.005.24-.038 1.849-.052 2.076a.64.64 0 0 1-.223.469 1 1 0 0 1-.173-.532c-.007-.11.014-1.632.022-1.945z"/><path fill="#fff" stroke="#21231E" stroke-linejoin="round" stroke-width=".028" d="m11.355 20.134-.069 2.21c-.022.197.237 1.364.378 1.594.35-.147.424-.94.358-1.71-.065-.772.011-1.438.065-1.577z"/><path fill="#fff" stroke="#21231E" stroke-linejoin="round" stroke-width=".028" d="m10.94 20.496.048 2.211c-.012.197.308 1.348.462 1.57.355-.271.283-1.383.229-1.72-.109-.67-.09-1.446-.053-1.572z"/><path fill="#fff" stroke="#21231E" stroke-linejoin="round" stroke-width=".028" d="m10.632 21.02.589-.015c-.05.24-.01.99.091 1.561.096.536.229 1.924-.336 2.258-.35-.733-.084-1.445-.26-2.081zM12.883 20.122l-.116 2.073a.64.64 0 0 1-.237.462 1 1 0 0 1-.157-.538c-.003-.11.064-1.63.082-1.942zM11.837 18.812a71 71 0 0 0-.021 1.737c.007.216.093.491.188.63a.64.64 0 0 0 .238-.462c.017-.186.023-1.097.026-1.554z"/><path fill="#fff" stroke="#21231E" stroke-linejoin="round" stroke-width=".028" d="M12.258 19.146c-.01.558-.005 1.437-.002 1.509a1 1 0 0 0 .156.537.66.66 0 0 0 .248-.467c.013-.139.052-.735.056-1.192zM11.896 18.765l-.401-.57c-.081.282-.18 2.3-.064 2.465.008.216.087.399.182.536.11-.085.276-.237.228-.466-.047-.228.006-1.73.055-1.965Z"/><path fill="#fff" stroke="#21231E" stroke-linejoin="round" stroke-width=".028" d="m11.074 20.035-.027.633c.007.216.06.4.156.538.11-.085.252-.236.238-.462-.057-.874.04-1.697.153-2.488l-.35-.212z"/><path fill="#fff" stroke="#21231E" stroke-linejoin="round" stroke-width=".028" d="m10.673 20.606.109.407c.007.216.142.394.237.532a.46.46 0 0 0 .184-.45c-.163-1.29-.105-2.144.17-3.196-.62.418-.908 1.3-.7 2.707ZM10.705 21.006l-.57-.186c-.072.561.04 1.267.193 2.197.131.8.062 1.431-.038 1.837.607-.082.864-.855.56-2.308-.08-.38-.16-.867-.145-1.54Z"/><path fill="#fff" stroke="#21231E" stroke-linejoin="round" stroke-width=".028" d="M10.925 18.41c-.14.675-.232 1.47-.126 2.34q.06.486.21.793c-.41-.046-.672-.44-.638-1.13l.092-1.925z"/><path fill="#fff" stroke="#21231E" stroke-linejoin="round" stroke-width=".028" d="M10.628 18.498c-.03.175-.136.38-.158.604-.072.738-.072 1.663.152 2.255-.41-.046-.55-.413-.563-1.102-.011-.57-.013-1.242.132-2.019zM11.48 18.333l-.379-.044c-.07.353-.122.602-.135.728-.025.247.05.473.137.641.14-.083.204-.264.263-.518zM12.46 19.127l-.335.004c-.012.304-.02.51-.014.617.01.21.063.39.154.522a.63.63 0 0 0 .214-.451c.015-.222-.016-.457-.018-.692Z"/><path fill="#fff" stroke="#21231E" stroke-linejoin="round" stroke-width=".028" d="M12.487 19.3c0 .304-.002.51.007.617.018.21.078.387.174.517a.63.63 0 0 0 .197-.46zM12.119 18.956l-.335-.023c-.037.302-.062.507-.065.614-.007.211.032.393.112.533a.63.63 0 0 0 .25-.433c.033-.22.02-.456.038-.69Z"/><path fill="#fff" stroke="#21231E" stroke-linejoin="round" stroke-width=".028" d="M11.438 18.45c-.063.244-.147 1.051.003 1.392a.7.7 0 0 0 .287-.479c.041-.243.054-.502.077-.763zM12.753 23.286l-.556.281c-.16.35-.311.535-.503.699.278.05.514-.003.665-.205.205-.271.315-.436.383-.472z"/><path fill="#fff" stroke="#21231E" stroke-linejoin="round" stroke-width=".028" d="M12.636 23.491c-.136.274-.229.459-.267.559a.96.96 0 0 0-.062.543.63.63 0 0 0 .396-.324z"/><path fill="#fff" stroke="#21231E" stroke-linejoin="round" stroke-width=".028" d="M12.707 23.575c-.064.298-.108.5-.12.606a.96.96 0 0 0 .074.541.62.62 0 0 0 .303-.409c.054-.215.061-.453.1-.685z"/><path fill="#fff" stroke="#21231E" stroke-linejoin="round" stroke-width=".028" d="M13.432 23.757c-.187.335-.248.566-.266.816-.207-.19-.304-.409-.232-.65.098-.324.193-.697.182-.773z"/><path fill="#fff" stroke="#21231E" stroke-linejoin="round" stroke-width=".028" d="M12.871 22.886c-.12.28-.201.47-.234.573a.96.96 0 0 0-.03.545.62.62 0 0 0 .394-.327c.094-.202.128-.452.21-.672z"/><path fill="#fff" stroke="#21231E" stroke-linejoin="round" stroke-width=".028" d="M12.906 22.315c-.078-.021-.182.159-.283.264-.024.024-.05.047-.07.077a.6.6 0 0 0-.097.22 1.75 1.75 0 0 1-.362.768c.282-.006.502-.106.61-.334.144-.307.217-.49.276-.54zM13.752 24.096c.239.3.336.52.394.763.174-.22.234-.452.124-.678-.41-.465-.407-.462-.518-.085Z"/><path fill="#fff" stroke="#21231E" stroke-linejoin="round" stroke-width=".028" d="M13.818 23.876c.24.3.488.528.546.772.175-.22.249-.452.138-.678z"/><path fill="#fff" stroke="#21231E" stroke-linejoin="round" stroke-width=".028" d="M13.38 23.778c.24.301.337.52.395.763.174-.22.234-.452.124-.678zM14.571 18.265c-.053-.598-.163-1.014-.425-1.43.121.013.248-.012.189-.3-.172-.04-.236.024-.715-.2-.391-.181-.965-.248-.929-.054.073.39.332.667.6.864.126.311.436.9.222 1.225s-.391.48-.605.614q.071.026.138.039c-.034.044-.31.128-.344.105-.22-.144-.422-.497-.602-.7-.515-.575-.785-1.024-.681-1.377.115-.392.591-.82-.02-.745-.61.075-1.123.92-1.275 1.895-.056.36-.096.677-.138.93.332-.116.481-.236.569-.38q-.06.209-.09.391c.273-.047.461-.183.54-.419.028-.095.065-.178.101-.247q.127.044.324-.003c.05.117.425.53.628.833.225.342.568.603.681.62h3.665c.113-.017.456-.278.681-.62.203-.303.577-.716.628-.833q.197.047.323.003c.037.07.074.152.102.247.079.236.267.372.54.42a4 4 0 0 0-.09-.392c.087.144.237.264.569.38-.042-.253-.082-.57-.138-.93-.152-.975-.664-1.82-1.275-1.895s-.135.353-.02.745c.104.353-.166.803-.681 1.378-.18.202-.383.555-.602.7-.034.022-.31-.062-.344-.106a1 1 0 0 0 .138-.039c-.214-.133-.391-.289-.605-.614s.095-.914.222-1.225c.268-.197.527-.475.6-.864.036-.194-.538-.127-.93.053-.478.225-.542.161-.714.2-.06.289.067.314.188.3-.261.417-.371.833-.425 1.43Z"/><path fill="#EDB92E" stroke="#21231E" stroke-linejoin="round" stroke-width=".028" d="m15.709 17.4.537.078c.417.02.659-.111.713-.375-.155.183-.347.275-.558.225-.281-.067-.459-.128-.523-.111z"/><path fill="#EDB92E" stroke="#21231E" stroke-linejoin="round" stroke-width=".028" d="M16.717 16.328c.467.05.444.347.008.778-.09.086-.107.083-.13-.006-.039-.155-.2-.23-.284-.122-.056.072-.048.12-.245.092-.25.208-.45.355-.126.341.13-.005.256.078.441.07-.053.108-.064.122-.095.128-.186.027-.372-.075-.558-.042-.402.072.645-1.075.634-1.12-.028-.11.25-.322.355-.119Z"/><path fill="#21231E" d="m16.05 16.692.061-.06q.045-.057-.052-.15l-.123.051q.038.126.114.16M16.767 16.595a.04.04 0 0 0 .04-.039.04.04 0 0 0-.04-.039.04.04 0 0 0-.039.04.04.04 0 0 0 .04.038"/><path stroke="#21231E" stroke-linecap="round" stroke-linejoin="round" stroke-width=".028" d="M18.729 21.298c-.023.5-.056.889-.155 1.305-.098.417-.112.695-.127 1.111M18.52 21.356c.237-.62.232-1.578.15-2.211-.082-.634-.484-1.464-.63-1.559M16.716 16.328q-.027.139-.236.294M15.461 18.812q.3.333.771.174"/><path stroke="#21231E" stroke-linecap="round" stroke-linejoin="round" stroke-width=".028" d="M15.427 18.642q0 .125.132.458a.68.68 0 0 1-.419-.253M15.178 18.62a.94.94 0 0 1-.155.444.6.6 0 0 1-.22-.333M15.776 16.6c.045.086.127.197.225.14.141-.084.166-.19.231-.287"/><path stroke="#21231E" stroke-linecap="round" stroke-linejoin="round" stroke-width=".028" d="M15.644 16.617c.06.003.124-.022.267-.072s.299-.111.445-.1M15.27 16.778a2 2 0 0 1-.273.056"/><path fill="#EDB92E" stroke="#21231E" stroke-linejoin="round" stroke-width=".028" d="m13.434 17.402-.537.077c-.417.02-.659-.11-.713-.375.155.184.347.275.558.225.281-.066.459-.128.523-.11z"/><path fill="#EDB92E" stroke="#21231E" stroke-linejoin="round" stroke-width=".028" d="M12.427 16.33c-.468.05-.445.347-.009.777.09.086.107.083.13-.005.04-.156.2-.231.284-.123.056.073.048.12.245.092.25.208.45.355.127.342-.13-.006-.257.077-.442.069.053.108.064.122.095.128.186.028.372-.075.558-.042.402.072-.645-1.075-.634-1.12.028-.11-.25-.322-.354-.119Z"/><path fill="#21231E" d="m13.094 16.692-.062-.061q-.045-.057.052-.15l.124.051q-.039.127-.114.16M12.376 16.595a.04.04 0 0 1-.04-.04.04.04 0 0 1 .04-.038.04.04 0 0 1 .04.039.04.04 0 0 1-.04.039"/><path stroke="#21231E" stroke-linecap="round" stroke-linejoin="round" stroke-width=".028" d="M10.414 21.299c.023.5.057.889.155 1.305.099.417.113.695.127 1.111M10.623 21.357c-.237-.62-.231-1.578-.15-2.211s.484-1.464.63-1.558M12.427 16.33q.028.138.236.294M13.682 18.813q-.3.333-.771.175"/><path stroke="#21231E" stroke-linecap="round" stroke-linejoin="round" stroke-width=".028" d="M13.716 18.643q0 .125-.132.458a.68.68 0 0 0 .42-.252"/><path stroke="#21231E" stroke-linecap="round" stroke-linejoin="round" stroke-width=".028" d="M13.966 18.621q.036.286.154.444a.6.6 0 0 0 .22-.333M13.367 16.602c-.045.086-.127.197-.225.138-.14-.083-.166-.188-.23-.286"/><path stroke="#21231E" stroke-linecap="round" stroke-linejoin="round" stroke-width=".028" d="M13.5 16.618c-.06.003-.125-.022-.268-.072s-.298-.111-.445-.1M13.874 16.78q.11.032.273.056"/><path fill="#fff" d="M14.321 18.575q.022.325.25.617.232-.292.25-.617"/><path stroke="#21231E" stroke-linejoin="round" stroke-width=".028" d="M14.321 18.575q.022.325.25.617.232-.292.25-.617"/><path fill="#C6363C" stroke="#21231E" stroke-width=".07" d="M16.471 19.223v3.014c0 .539-.225 1.03-.562 1.383s-.83.603-1.338.603c-.506 0-.999-.25-1.337-.603a2 2 0 0 1-.563-1.383v-3.014z"/><path fill="#fff" stroke="#21231E" stroke-linecap="round" stroke-width=".028" d="M16.457 21.07v.778h-1.506v2.306a1.76 1.76 0 0 1-.76 0v-2.306h-1.506v-.778h1.506v-1.833h.76v1.833z"/><path fill="#fff" stroke="#21231E" stroke-linejoin="round" stroke-width=".028" d="M15.219 22.167c.225-.083.844-.278.844.208 0 .234-.287.387-.366.18-.039-.102.003-.168.062-.19.06-.023.124.027.107.102.248-.13-.233-.397-.436-.047-.056.097.104.21.104.289s-.16.191-.104.289c.203.35.684.083.436-.048.017.075-.047.125-.107.103-.059-.022-.101-.089-.062-.192.08-.205.366-.052.366.181 0 .486-.619.292-.844.208zM13.924 19.667c-.225-.083-.844-.277-.844.209 0 .233.287.386.366.18.039-.103-.003-.17-.062-.192-.06-.022-.124.028-.107.103-.248-.13.233-.397.436-.047.056.097-.104.211-.104.289s.16.192.104.289c-.203.35-.684.083-.436-.047-.017.075.048.125.107.102.059-.022.101-.088.062-.191-.08-.206-.366-.053-.366.18 0 .486.619.292.844.209zM15.219 19.667c.225-.083.844-.277.844.209 0 .233-.287.386-.366.18-.039-.103.003-.17.062-.192.06-.022.124.028.107.103.248-.13-.233-.397-.436-.047-.056.097.104.211.104.289s-.16.192-.104.289c.203.35.684.083.436-.047.017.075-.047.125-.107.102-.059-.022-.101-.088-.062-.191.08-.206.366-.053.366.18 0 .486-.619.292-.844.209zM13.924 22.167c-.225-.083-.844-.278-.844.208 0 .234.287.387.366.18.039-.102-.003-.168-.062-.19-.06-.023-.124.027-.107.102-.248-.13.233-.397.436-.047.056.097-.104.21-.104.289s.16.191.104.289c-.203.35-.684.083-.436-.048-.017.075.048.125.107.103s.101-.089.062-.192c-.08-.205-.366-.052-.366.181 0 .486.619.292.844.208z"/></g><path stroke="#D5D5D4" stroke-width=".5" d="M1.25 7.75h37.5v24.5H1.25z"/><defs><clipPath><path fill="#fff" d="M1 7.5h38v25H1z"/></clipPath></defs></svg>