<svg xmlns="http://www.w3.org/2000/svg" width="48" height="48" fill="none" viewBox="0 0 48 48"><path fill="#fff" d="M23.55 30.75a6.56 6.56 0 0 0 4.68 1.95c1.77 0 3.42-.69 4.68-1.95l10.56-10.56a6.627 6.627 0 0 0 0-9.36l-2.1-2.1a6.627 6.627 0 0 0-9.36 0l-5.28 5.28 2.97 2.97 5.28-5.28c.93-.93 2.49-.93 3.42 0l2.1 2.1c.93.93.93 2.49 0 3.42L29.94 27.78c-.93.9-2.52.9-3.42 0l-3.15-3.15-2.97 2.97z"/><path fill="#fff" d="M6.6 39.27c1.29 1.29 3 1.92 4.68 1.92 1.71 0 3.39-.63 4.68-1.92l5.31-5.31-2.97-2.97-5.31 5.31c-.96.96-2.49.93-3.42 0l-2.1-2.1c-.93-.96-.93-2.49 0-3.42l10.56-10.56c.96-.96 2.49-.93 3.42 0l3.18 3.18 2.97-2.97-3.18-3.18a6.627 6.627 0 0 0-9.36 0L4.5 27.81a6.627 6.627 0 0 0 0 9.36z"/></svg>