<svg xmlns="http://www.w3.org/2000/svg" width="48" height="48" viewBox="0 0 48 48"><g fill="none" fill-rule="evenodd"><path fill="#1877F2" d="M46 24.134C46 11.911 36.15 2 24 2S2 11.91 2 24.134C2 35.182 10.045 44.34 20.563 46V30.532h-5.586v-6.398h5.586v-4.876c0-5.548 3.284-8.612 8.309-8.612 2.407 0 4.925.432 4.925.432v5.448h-2.775c-2.732 0-3.584 1.705-3.584 3.457v4.151h6.1l-.973 6.398h-5.127V46C37.954 44.339 46 35.182 46 24.134"/><path fill="#FFF" d="m32.756 30.539.984-6.287h-6.16v-4.079c0-1.72.862-3.396 3.62-3.396H34v-5.353S31.458 11 29.028 11c-5.073 0-8.39 3.01-8.39 8.461v4.791H15v6.287h5.639v15.197q1.698.263 3.47.264 1.774-.002 3.47-.264V30.54z"/></g></svg>