<svg xmlns="http://www.w3.org/2000/svg" width="48" height="48" viewBox="0 0 48 48"><g fill="none" fill-rule="evenodd"><path fill="#FF577A" d="M35.054 2H11.251C7.965 2 7 4.436 7 5.97v37.3c0 1.847.943 2.367 1.472 2.577.53.212 1.891.347 2.866-.603 0 0 11.296-12.998 11.479-13.198s.29-.203.396-.203l7.201.003c1.933 0 3.517-1.248 3.93-3.199 0 0 4.199-20.134 4.585-22.013C39.353 4.586 37.855 2 35.054 2"/><path fill="#FFF" fill-rule="nonzero" d="m33.97 8.511-1.08 5.117a1.33 1.33 0 0 1-1.29 1.044h-9.5c-1.045 0-1.904.844-1.904 1.879v1.128c0 1.032.859 1.878 1.903 1.878h8.08c.734 0 1.358.69 1.199 1.47-.163.78-.983 4.781-1.073 5.211a1.34 1.34 0 0 1-1.293 1.004l-6.626.003c-1.336.041-1.625.048-2.41 1.013-.787.966-7.843 9.69-7.843 9.69-.071.084-.133.06-.133-.03V8.258C12 7.571 12.582 7 13.274 7h19.51c.708 0 1.365.655 1.186 1.511"/></g></svg>