<svg xmlns="http://www.w3.org/2000/svg" width="48" height="48" viewBox="0 0 48 48"><path fill="#FFF" fill-rule="evenodd" d="M35.054 2c2.801 0 4.299 2.586 3.875 4.634-.386 1.88-4.584 22.013-4.584 22.013-.414 1.951-1.998 3.199-3.93 3.199l-2.548-.001h-2.253l-.23-.001H23.6l-.107-.001h-.28c-.106 0-.214.003-.396.203l-.046.052c-.382.435-3 3.445-5.635 6.475l-.51.586-5.288 6.085c-.975.95-2.336.815-2.866.603-.53-.21-1.472-.73-1.472-2.578V5.97C7 4.437 7.965 2 11.251 2Zm-2.27 5h-19.51C12.582 7 12 7.571 12 8.258v29.66c0 .09.062.114.133.03l.026-.032.077-.095 3.523-4.355.6-.742c1.665-2.057 3.265-4.035 3.616-4.466.786-.965 1.075-.972 2.41-1.013h1.784l.238-.001h2.055l.254-.001h2.296a1.34 1.34 0 0 0 1.293-1.005l.483-2.347.105-.512c.21-1.023.412-2.006.485-2.352.159-.78-.465-1.47-1.199-1.47H22.1c-1.044 0-1.903-.846-1.903-1.878v-1.128c0-1.035.859-1.88 1.903-1.88h9.5a1.33 1.33 0 0 0 1.292-1.043l1.08-5.117A1.232 1.232 0 0 0 32.783 7"/></svg>