<svg xmlns="http://www.w3.org/2000/svg" width="48" height="48" fill="none" viewBox="0 0 48 48"><path fill="#4285F4" d="M5 41h7V24.004L2 16.506v21.495C2 39.66 3.345 41 5 41"/><path fill="#34A853" d="M36 41h7c1.66 0 3-1.345 3-3V16.507l-10 7.498"/><path fill="#FBBC04" d="M36 11.008v12.996l10-7.498v-3.999c0-3.709-4.235-5.823-7.2-3.599"/><path fill="#EA4335" d="M12 24.004V11.008l12 8.997 12-8.997v12.996l-12 8.998"/><path fill="#C5221F" d="M2 12.507v4l10 7.497V11.008l-2.8-2.1c-2.97-2.224-7.2-.11-7.2 3.6"/></svg>