<svg xmlns="http://www.w3.org/2000/svg" width="48" height="48" fill="none" viewBox="0 0 48 48"><path fill="#000" d="M14.889 2.154c-2.341.11-3.94.484-5.337 1.033A10.8 10.8 0 0 0 5.66 5.731a10.8 10.8 0 0 0-2.53 3.9c-.542 1.4-.91 3-1.012 5.342-.104 2.342-.127 3.095-.115 9.07s.038 6.722.151 9.07c.112 2.34.484 3.938 1.033 5.336a10.8 10.8 0 0 0 2.545 3.892c1.224 1.22 2.45 1.969 3.902 2.53 1.4.54 3 .909 5.341 1.011 2.342.103 3.096.127 9.068.115 5.973-.011 6.725-.038 9.071-.149s3.936-.486 5.335-1.032c1.446-.566 2.672-1.32 3.892-2.546a10.8 10.8 0 0 0 2.529-3.901c.542-1.4.91-3 1.012-5.34.102-2.348.126-3.098.115-9.071-.011-5.974-.038-6.723-.15-9.069s-.484-3.939-1.032-5.338c-.566-1.446-1.32-2.67-2.544-3.892-1.224-1.22-2.453-1.97-3.902-2.529-1.4-.541-3-.91-5.341-1.012-2.342-.1-3.095-.127-9.07-.115s-6.723.037-9.07.151m.257 39.77c-2.145-.093-3.31-.449-4.086-.747-1.028-.396-1.76-.875-2.534-1.641s-1.249-1.5-1.65-2.526c-.301-.777-.664-1.94-.765-4.085-.109-2.318-.132-3.014-.144-8.888-.013-5.874.01-6.569.111-8.888.091-2.143.45-3.31.748-4.085a6.8 6.8 0 0 1 1.64-2.533c.769-.773 1.501-1.25 2.528-1.65.775-.303 1.938-.663 4.082-.765 2.32-.11 3.016-.132 8.888-.145 5.873-.013 6.57.01 8.891.111 2.143.094 3.31.449 4.085.748 1.028.396 1.76.872 2.533 1.641.773.77 1.25 1.5 1.65 2.528.304.773.664 1.936.765 4.081.11 2.32.135 3.016.146 8.888s-.01 6.57-.112 8.888c-.094 2.145-.45 3.31-.748 4.087a6.8 6.8 0 0 1-1.642 2.533c-.768.773-1.5 1.249-2.526 1.65-.775.302-1.94.663-4.082.765-2.32.11-3.015.132-8.89.145s-6.568-.011-8.888-.111M33.08 12.242a2.64 2.64 0 1 0 5.282-.01 2.64 2.64 0 0 0-5.282.01m-20.376 11.78c.012 6.24 5.08 11.285 11.317 11.274 6.238-.012 11.288-5.079 11.276-11.318-.012-6.24-5.08-11.287-11.319-11.275s-11.286 5.08-11.274 11.319m3.963-.008a7.333 7.333 0 1 1 14.666-.03 7.333 7.333 0 0 1-14.666.03"/></svg>