<svg xmlns="http://www.w3.org/2000/svg" viewBox="0 0 48 48"><defs><mask width="44" height="44" x="2" y="2" maskUnits="userSpaceOnUse"/></defs><path d="M0 0h48v48H0z" fill="none"/><g><g mask="url(#mask)"><path d="M24 2c-5.97 0-6.72.03-9.07.13-2.34.11-3.94.48-5.34 1.02-1.45.56-2.67 1.31-3.9 2.54a10.8 10.8 0 0 0-2.54 3.9c-.54 1.4-.92 3-1.02 5.34C2.02 17.28 2 18.03 2 24s.03 6.72.13 9.07c.11 2.34.48 3.94 1.02 5.34.56 1.45 1.31 2.67 2.54 3.9a10.8 10.8 0 0 0 3.9 2.54c1.4.54 3 .92 5.34 1.02 2.35.11 3.1.13 9.07.13s6.72-.03 9.07-.13c2.34-.11 3.94-.48 5.34-1.02 1.45-.56 2.67-1.31 3.9-2.54a10.8 10.8 0 0 0 2.54-3.9c.54-1.4.92-3 1.02-5.34.11-2.35.13-3.1.13-9.07s-.03-6.72-.13-9.07c-.11-2.34-.48-3.94-1.02-5.34-.56-1.45-1.31-2.67-2.54-3.9a10.8 10.8 0 0 0-3.9-2.54c-1.4-.54-3-.92-5.34-1.02C30.72 2.02 29.97 2 24 2m0 3.96c5.87 0 6.57.02 8.89.13 2.15.1 3.31.46 4.09.76 1.03.4 1.76.88 2.53 1.65s1.25 1.5 1.65 2.53c.3.78.66 1.94.76 4.09.11 2.32.13 3.02.13 8.89s-.02 6.57-.13 8.89c-.1 2.15-.46 3.31-.76 4.09-.4 1.03-.88 1.76-1.65 2.53s-1.5 1.25-2.53 1.65c-.78.3-1.94.66-4.09.76-2.32.11-3.02.13-8.89.13s-6.57-.02-8.89-.13c-2.14-.1-3.31-.46-4.09-.76-1.03-.4-1.76-.88-2.53-1.65s-1.25-1.5-1.65-2.53c-.3-.78-.66-1.94-.76-4.09-.11-2.32-.13-3.02-.13-8.89s.02-6.57.13-8.89c.1-2.15.46-3.31.76-4.09.4-1.03.88-1.76 1.65-2.53s1.5-1.25 2.53-1.65c.78-.3 1.94-.66 4.09-.76 2.32-.11 3.02-.13 8.89-.13" fill="#fff" fill-rule="evenodd"/><path d="M24.5 31.96a7.46 7.46 0 1 1 0-14.92 7.46 7.46 0 0 1 0 14.92m0-18.96C18.15 13 13 18.15 13 24.5S18.15 36 24.5 36 36 30.85 36 24.5 30.85 13 24.5 13" fill="#fff" fill-rule="evenodd"/><path d="M38 12.5a2.5 2.5 0 0 1-5 0 2.5 2.5 0 0 1 5 0" fill="#fff" fill-rule="evenodd"/></g></g></svg>