<svg xmlns="http://www.w3.org/2000/svg" width="48" height="48" data-name="Layer 1" viewBox="0 0 48 48"><path d="M46 23.96c-.01-5.97-.04-6.72-.15-9.07s-.48-3.94-1.03-5.34c-.57-1.45-1.32-2.67-2.54-3.89s-2.45-1.97-3.9-2.53c-1.4-.54-3-.91-5.34-1.01s-3.1-.13-9.07-.12-6.72.04-9.07.15c-2.34.11-3.94.48-5.34 1.03-1.45.56-2.67 1.32-3.89 2.54S3.7 8.17 3.14 9.62c-.54 1.4-.91 3-1.01 5.34s-.13 3.09-.11 9.07c.01 5.97.04 6.72.15 9.07.11 2.34.48 3.94 1.03 5.34.56 1.45 1.32 2.67 2.54 3.89s2.45 1.97 3.9 2.53c1.4.54 3 .91 5.34 1.01s3.1.13 9.07.11c5.97-.01 6.72-.04 9.07-.15s3.94-.49 5.33-1.03c1.45-.57 2.67-1.32 3.89-2.54s1.97-2.45 2.53-3.9c.54-1.4.91-3 1.01-5.34.1-2.35.13-3.1.12-9.07Zm-4.07 8.9c-.09 2.14-.45 3.31-.75 4.09-.4 1.03-.87 1.76-1.64 2.53s-1.5 1.25-2.53 1.65c-.77.3-1.94.66-4.08.77-2.32.11-3.02.13-8.89.14s-6.57-.01-8.89-.11c-2.15-.09-3.31-.45-4.09-.75-1.03-.4-1.76-.87-2.53-1.64s-1.25-1.5-1.65-2.53c-.3-.78-.66-1.94-.76-4.08-.11-2.32-.13-3.01-.14-8.89-.01-5.87 0-6.57.11-8.89.09-2.14.45-3.31.75-4.08.4-1.03.87-1.76 1.64-2.53s1.5-1.25 2.53-1.65c.78-.3 1.94-.66 4.08-.76 2.32-.11 3.02-.13 8.89-.14s6.57 0 8.89.11c2.14.09 3.31.45 4.08.75 1.03.4 1.76.87 2.53 1.64s1.25 1.5 1.65 2.53c.3.77.66 1.94.76 4.08.11 2.32.14 3.02.15 8.89s-.01 6.57-.11 8.89Z"/><path d="M23.98 12.7c-6.24.01-11.29 5.08-11.27 11.32.01 6.24 5.08 11.29 11.32 11.27 6.24-.01 11.29-5.08 11.28-11.32S30.23 12.68 23.99 12.7Zm6.8 14.09a7.36 7.36 0 0 1-2.69 3.3c-1.2.81-2.62 1.24-4.07 1.24-.96 0-1.92-.19-2.81-.55s-1.7-.91-2.38-1.58a7.36 7.36 0 0 1-2.15-5.19c0-1.45.42-2.87 1.23-4.08.8-1.21 1.95-2.15 3.29-2.71a7.325 7.325 0 0 1 8 1.57 7.26 7.26 0 0 1 2.01 3.75c.29 1.42.14 2.9-.41 4.24ZM37.18 10.04c-.43-.29-.95-.44-1.47-.44-.7 0-1.37.28-1.86.78s-.77 1.17-.77 1.87a2.636 2.636 0 0 0 1.64 2.44c.48.2 1.01.25 1.53.15.51-.1.98-.36 1.35-.73s.62-.84.72-1.35.05-1.04-.15-1.53c-.2-.48-.54-.89-.97-1.18Z"/></svg>