<svg xmlns="http://www.w3.org/2000/svg" width="48" height="48" viewBox="0 0 48 48"><g fill="none" fill-rule="nonzero"><path fill="#0A66C2" d="M42.74 2.003H5.247A3.21 3.21 0 0 0 2 5.175v37.65A3.213 3.213 0 0 0 5.247 46H42.74A3.22 3.22 0 0 0 46 42.825V5.172A3.22 3.22 0 0 0 42.74 2"/><path fill="#FFF" d="M31.295 17.778c6.506 0 7.705 4.286 7.705 9.863L38.997 39H32.58V28.6c-.01-2.345-.193-5.161-3.338-5.161-3.266 0-3.83 2.496-3.854 5.129v10.431h-6.42V18.293h6.162v2.83h.087a6.75 6.75 0 0 1 6.08-3.345m-16.36.515V39H8.509V18.293zM11.725 8a3.73 3.73 0 0 1 3.724 3.73c0 .99-.392 1.94-1.09 2.64a3.72 3.72 0 0 1-2.634 1.093A3.73 3.73 0 0 1 8 11.732 3.73 3.73 0 0 1 11.724 8"/></g></svg>