<svg xmlns="http://www.w3.org/2000/svg" width="48" height="48" viewBox="0 0 48 48"><path fill="#FFF" fill-rule="evenodd" d="M42.74 2A3.218 3.218 0 0 1 46 5.172v37.653A3.22 3.22 0 0 1 42.74 46H5.247A3.213 3.213 0 0 1 2 42.825V5.175a3.21 3.21 0 0 1 3.247-3.172H42.74ZM31.295 17.778a6.75 6.75 0 0 0-6.08 3.345h-.086v-2.83h-6.161v20.706h6.418l.001-10.431c.024-2.633.588-5.13 3.854-5.13 3.145 0 3.327 2.817 3.337 5.161V39h6.42L39 27.64c0-5.576-1.2-9.862-7.705-9.862Zm-16.36.515H8.509V39h6.426V18.293ZM11.725 8A3.728 3.728 0 0 0 8 11.732a3.728 3.728 0 0 0 3.725 3.73c.988 0 1.936-.393 2.634-1.093a3.735 3.735 0 0 0 1.09-2.638A3.728 3.728 0 0 0 11.724 8Z"/></svg>