<svg xmlns="http://www.w3.org/2000/svg" width="48" height="48" fill="none" viewBox="0 0 48 48"><path fill="#fff" fill-rule="evenodd" d="M33.517 36.582c6.024-.724 11.272-4.421 11.919-7.808.913-4.614.962-10.957.975-12.601.002-.263.003-.406.007-.403 0-10.418-6.825-13.47-6.825-13.47C36.154.725 30.234.053 24.107 0h-.155c-6.127.052-12.048.724-15.46 2.3 0 0-6.825 3.052-6.825 13.47q-.001.978-.008 2.051c-.01 1.897-.023 4 .034 6.196.232 10.16 1.861 20.217 11.22 22.725 4.343 1.137 8.066 1.37 11.065 1.215 5.455-.31 8.505-1.939 8.505-1.939l-.18-3.956s-3.879 1.241-8.248 1.086c-4.317-.155-8.893-.49-9.591-5.79a9.3 9.3 0 0 1-.104-1.5s4.266 1.034 9.644 1.293c3.265.154 6.35-.203 9.461-.563zm4.854-7.394V16.572c0-2.586-.647-4.628-1.99-6.127-1.371-1.526-3.155-2.301-5.352-2.301-2.56 0-4.499.982-5.766 2.947l-1.24 2.094-1.241-2.094c-1.267-1.965-3.206-2.947-5.766-2.947-2.223 0-3.981.775-5.351 2.3-1.319 1.5-1.965 3.542-1.965 6.128v12.564h5.015V16.908c0-2.56 1.086-3.878 3.258-3.878 2.378 0 3.593 1.55 3.593 4.627v6.722h4.964v-6.696c0-3.076 1.19-4.627 3.594-4.627q3.257 0 3.257 3.877v12.255z" clip-rule="evenodd"/></svg>