<svg xmlns="http://www.w3.org/2000/svg" width="48" height="48" fill="none" viewBox="0 0 48 48"><path fill="#2B90D9" d="M45.436 28.774c-.647 3.387-5.895 7.084-11.919 7.808-3.128.362-6.23.724-9.513.569-5.378-.26-9.644-1.293-9.644-1.293 0 .517.026 1.034.104 1.5.698 5.3 5.274 5.635 9.591 5.79 4.37.155 8.247-1.086 8.247-1.086l.181 3.956s-3.05 1.629-8.505 1.939c-3 .155-6.722-.078-11.065-1.215-9.359-2.508-10.988-12.565-11.22-22.725-.078-3.024-.026-5.868-.026-8.247C1.667 5.352 8.492 2.3 8.492 2.3 11.904.725 17.825.053 23.952 0h.155c6.127.052 12.047.724 15.486 2.3 0 0 6.825 3.052 6.825 13.47-.026-.026.078 7.653-.982 13.004"/><path fill="#fff" d="M38.37 16.572v12.616h-4.989V16.934q0-3.878-3.257-3.878c-2.405 0-3.594 1.55-3.594 4.627v6.696h-4.964v-6.722c0-3.076-1.215-4.627-3.593-4.627-2.172 0-3.258 1.318-3.258 3.878v12.228H9.7V16.572c0-2.586.646-4.628 1.965-6.127 1.37-1.526 3.128-2.301 5.351-2.301 2.56 0 4.499.982 5.766 2.947l1.24 2.094 1.241-2.094c1.267-1.965 3.206-2.947 5.765-2.947 2.198 0 3.982.775 5.352 2.3 1.344 1.5 1.99 3.542 1.99 6.128"/></svg>