<svg xmlns="http://www.w3.org/2000/svg" width="48" height="48" fill="none" viewBox="0 0 48 48"><path fill="#fff" d="M24 2C11.607 2 2 11.078 2 23.34c0 6.414 2.628 11.956 6.91 15.784.358.322.575.772.59 1.255l.12 3.913a1.76 1.76 0 0 0 2.47 1.556l4.367-1.928c.37-.163.785-.193 1.174-.086 2.007.552 4.143.846 6.369.846 12.393 0 22-9.078 22-21.34S36.393 2 24 2m13.211 16.42-6.462 10.252a3.3 3.3 0 0 1-4.772.88l-5.14-3.854a1.32 1.32 0 0 0-1.59.004l-6.942 5.269c-.927.703-2.136-.406-1.516-1.39l6.463-10.253a3.3 3.3 0 0 1 4.771-.88l5.14 3.854a1.32 1.32 0 0 0 1.59-.004l6.942-5.269c.926-.703 2.136.406 1.515 1.39z"/><path fill="#fff" d="M24 2C11.607 2 2 11.078 2 23.34c0 6.414 2.628 11.956 6.91 15.784.358.322.575.772.59 1.255l.12 3.913a1.76 1.76 0 0 0 2.47 1.556l4.367-1.928c.37-.163.785-.193 1.174-.086 2.007.552 4.143.846 6.369.846 12.393 0 22-9.078 22-21.34S36.393 2 24 2m13.211 16.42-6.462 10.252a3.3 3.3 0 0 1-4.772.88l-5.14-3.854a1.32 1.32 0 0 0-1.59.004l-6.942 5.269c-.927.703-2.136-.406-1.516-1.39l6.463-10.253a3.3 3.3 0 0 1 4.771-.88l5.14 3.854a1.32 1.32 0 0 0 1.59-.004l6.942-5.269c.926-.703 2.136.406 1.515 1.39z"/></svg>