<svg xmlns="http://www.w3.org/2000/svg" width="48" height="48" fill="none" viewBox="0 0 48 48"><path fill="#FC0" d="M27.489 25.17c-2.104 1.546-4.066 2.86-4.066 3.087 0 .63 6.484 2.272 12.269 1.854.024-.156.242-.365.223-.355l9.832-10.05a.88.88 0 0 0 .228-.82c-.052-.185-.228-.408-.608-.474-.38-.071-13.48-2.575-13.48-2.575s-.195-.043-.366-.128c-.166-.086-.227-.309-.227-.309S24.819 3.786 24.639 3.445c-.342-.607-.94-.579-1.278 0-.18.341-6.655 11.955-6.655 11.955s-.066.223-.227.309a1.8 1.8 0 0 1-.366.128s-13.1 2.504-13.48 2.565c-.38.072-.551.294-.608.475a.87.87 0 0 0 .228.82l9.832 10.054s.128.142.214.313c.028.185.004.384.004.384s-2.175 13.26-2.232 13.64a.84.84 0 0 0 .294.787c.152.114.423.194.765.023.352-.17 12.492-5.97 12.492-5.97s.18-.081.37-.11c.186-.033.367.11.367.11s12.145 5.8 12.492 5.97c.689.337 1.135-.223 1.069-.81l-1.715-10.391c1.61-.996 2.612-1.902 3.396-3.206-6.522 2.461-15.75 3.965-23.635 3.39-2.185-.146-3.25-.782-1.273-2.323 1.748-1.314 3.496-2.632 5.243-3.941 2.356-1.774 6.527-4.53 6.527-5.008 0-.517-3.933-1.423-7.4-1.423s-4.176.237-5.159.308c-.898.057-1.41.005-1.477-.256-.11-.45.337-.706 1.083-1.038 1.297-.579 3.41-1.086 3.638-1.143.357-.1 5.653-1.48 10.303-.982 2.413.252 5.951 1.224 5.951 2.333 0 .631-3.158 2.741-5.918 4.757z"/></svg>