<svg xmlns="http://www.w3.org/2000/svg" width="48" height="48" fill="none" viewBox="0 0 48 48"><g fill-rule="evenodd" clip-rule="evenodd"><path fill="#FF4500" d="M46 24c0 12.15-9.85 22-22 22S2 36.15 2 24 11.85 2 24 2s22 9.85 22 22"/><path fill="#fff" d="M28.484 28.79a2.277 2.277 0 0 1-2.267-2.28 2.277 2.277 0 0 1 2.267-2.282 2.276 2.276 0 0 1 2.266 2.281 2.276 2.276 0 0 1-2.266 2.281m.398 3.746c-1.547 1.555-4.51 1.675-5.383 1.675s-3.836-.12-5.381-1.676a.59.59 0 0 1 0-.835.584.584 0 0 1 .83 0c.976.981 3.06 1.33 4.551 1.33 1.49 0 3.577-.349 4.554-1.33a.584.584 0 0 1 .83 0 .594.594 0 0 1 0 .836m-12.638-6.027a2.277 2.277 0 0 1 2.267-2.281 2.276 2.276 0 0 1 2.265 2.281 2.275 2.275 0 0 1-2.265 2.28 2.276 2.276 0 0 1-2.267-2.28M38 24.228a3.183 3.183 0 0 0-3.173-3.193 3.15 3.15 0 0 0-2.2.895c-2.171-1.574-5.16-2.592-8.487-2.708l1.444-6.844 4.724 1.01a2.27 2.27 0 0 0 2.256 2.173 2.274 2.274 0 0 0 2.266-2.281A2.273 2.273 0 0 0 32.564 11c-.89 0-1.654.52-2.024 1.273l-5.274-1.13a.57.57 0 0 0-.672.44l-1.614 7.636c-3.377.095-6.414 1.113-8.612 2.706a3.15 3.15 0 0 0-2.195-.89A3.183 3.183 0 0 0 9 24.228c0 1.297.771 2.412 1.876 2.912q-.076.476-.077.965C10.8 33.018 16.483 37 23.493 37s12.694-3.982 12.694-8.895q0-.486-.075-.96A3.19 3.19 0 0 0 38 24.228"/></g></svg>