<svg xmlns="http://www.w3.org/2000/svg" width="48" height="48" viewBox="0 0 48 48"><path fill-rule="evenodd" d="M24 46c12.15 0 22-9.85 22-22S36.15 2 24 2 2 11.85 2 24s9.85 22 22 22Zm2.217-19.49a2.277 2.277 0 0 0 2.267 2.28 2.276 2.276 0 0 0 2.266-2.28 2.276 2.276 0 0 0-2.266-2.282 2.277 2.277 0 0 0-2.267 2.281Zm-2.718 7.701c.872 0 3.836-.12 5.383-1.675a.594.594 0 0 0 .002-.836.584.584 0 0 0-.831 0c-.977.981-3.063 1.33-4.554 1.33-1.49 0-3.575-.349-4.55-1.33a.584.584 0 0 0-.831 0 .591.591 0 0 0 0 .835c1.545 1.556 4.508 1.676 5.381 1.676Zm-4.988-9.983a2.277 2.277 0 0 0-2.267 2.281 2.276 2.276 0 0 0 2.267 2.28 2.275 2.275 0 0 0 2.265-2.28 2.276 2.276 0 0 0-2.265-2.281Zm16.316-3.193A3.183 3.183 0 0 1 38 24.228a3.192 3.192 0 0 1-1.888 2.917c.05.315.075.637.075.96 0 4.913-5.683 8.895-12.694 8.895-7.01 0-12.694-3.982-12.694-8.895 0-.326.027-.649.077-.965A3.194 3.194 0 0 1 9 24.228a3.183 3.183 0 0 1 3.173-3.193c.853 0 1.625.34 2.195.89 2.198-1.593 5.235-2.611 8.612-2.706l1.614-7.636a.57.57 0 0 1 .672-.44l5.274 1.13A2.254 2.254 0 0 1 32.564 11a2.273 2.273 0 0 1 2.266 2.28 2.274 2.274 0 0 1-2.266 2.281c-1.216 0-2.2-.965-2.256-2.173l-4.724-1.01-1.444 6.844c3.328.116 6.316 1.134 8.486 2.708a3.15 3.15 0 0 1 2.201-.895Z" clip-rule="evenodd"/></svg>