<svg xmlns="http://www.w3.org/2000/svg" width="48" height="48" viewBox="0 0 48 48"><path fill="#FFF" fill-rule="evenodd" d="M14.304 2c2.22 0 4.304.586 6.1 1.617A20.7 20.7 0 0 1 24 3.305c11.428 0 20.694 9.266 20.694 20.694a21 21 0 0 1-.312 3.595 12.25 12.25 0 0 1 1.618 6.1C46 40.491 40.49 46 33.694 46c-2.22 0-4.302-.586-6.1-1.617a21 21 0 0 1-3.594.313c-11.429 0-20.695-9.268-20.695-20.697q.002-1.84.312-3.593A12.2 12.2 0 0 1 2 14.306C2 7.51 7.508 2 14.304 2m8.827 9c-4.854 0-9.947 1.991-9.947 7.497 0 2.652.911 5.513 6.114 6.82l6.46 1.618c1.953.484 2.531 1.592 2.531 2.588 0 1.655-1.738 3.42-4.706 3.42-5.798 0-4.989-4.608-8.097-4.608-1.396 0-2.486.948-2.486 2.325C13 33.345 16.318 37 23.583 37 30.493 37 34 33.546 34 29.071c0-2.89-1.4-5.924-6.638-7.094l-4.781-1.065c-1.818-.416-3.87-1-3.87-2.72 0-1.725 1.399-2.952 4.051-2.952 5.343 0 4.901 3.688 7.554 3.688 1.397 0 2.599-.77 2.599-2.186C32.915 13.437 27.6 11 23.13 11"/></svg>