<svg xmlns="http://www.w3.org/2000/svg" width="48" height="48" viewBox="0 0 48 48"><g fill="none" fill-rule="evenodd"><path fill="#0078D7" d="M44.382 27.594a21 21 0 0 0 .312-3.595c0-11.428-9.266-20.694-20.694-20.694q-1.843.002-3.595.312A12.2 12.2 0 0 0 14.305 2C7.507 2 2 7.51 2 14.305c0 2.22.586 4.303 1.617 6.101a20.6 20.6 0 0 0-.312 3.593c0 11.43 9.266 20.697 20.695 20.697 1.226 0 2.428-.108 3.594-.313a12.2 12.2 0 0 0 6.1 1.617C40.489 46 46 40.49 46 33.694c0-2.22-.59-4.302-1.618-6.1"/><path fill="#FFF" fill-rule="nonzero" d="M23.583 37C16.318 37 13 33.345 13 30.66c0-1.377 1.09-2.325 2.486-2.325 3.108 0 2.299 4.608 8.097 4.608 2.968 0 4.706-1.765 4.706-3.42 0-.996-.578-2.104-2.532-2.588l-6.459-1.619c-5.203-1.306-6.114-4.167-6.114-6.819 0-5.506 5.093-7.497 9.947-7.497 4.47 0 9.784 2.437 9.784 5.742 0 1.415-1.202 2.186-2.599 2.186-2.653 0-2.21-3.688-7.554-3.688-2.652 0-4.051 1.227-4.051 2.952 0 1.72 2.052 2.304 3.87 2.72l4.78 1.065C32.6 23.147 34 26.181 34 29.071 34 33.546 30.493 37 23.583 37"/></g></svg>