<svg xmlns="http://www.w3.org/2000/svg" width="48" height="48" fill="none" viewBox="0 0 48 48"><path fill="#fff" d="M23.98 2h16.112c3.492 0 5.876 2.297 5.887 5.785q.042 12.1 0 24.203c-.011 3.488-2.395 5.78-5.89 5.78-3.668 0-7.339.005-11.007-.006-.386 0-.686.1-.994.335a2990 2990 0 0 1-9.737 7.366 3.5 3.5 0 0 1-.57.377c-.987.47-2.001-.14-2.008-1.228-.014-2.084-.019-4.168.007-6.251.006-.484-.145-.606-.613-.601-2.446.02-4.894.011-7.34.009C4.348 37.764 2 35.417 2 31.936V7.792C2 4.364 4.368 2.002 7.81 2zm.013 16.883c-.144-.18-.255-.305-.355-.44-.859-1.148-1.7-2.31-2.572-3.445-.588-.767-1.567-.836-2.194-.188-.344.355-.417.798-.417 1.268q0 3.844.002 7.686c0 .17.011.344.044.512.14.718.656 1.14 1.37 1.128.72-.011 1.206-.438 1.341-1.163.097-.512.055-1.028.058-1.544.007-.829 0-1.66 0-2.488.546.528.957 1.09 1.374 1.65.808 1.085 1.87 1.08 2.675-.01.425-.575.847-1.153 1.292-1.76.156.237.099.432.099.614.006 1.09-.023 2.18.013 3.267.04 1.189 1.157 1.806 2.148 1.221.557-.328.647-.883.651-1.441.016-2.561.01-5.124.003-7.685 0-.21-.035-.42-.085-.622-.253-1.008-1.49-1.407-2.28-.73-.173.147-.308.337-.446.521-.901 1.205-1.799 2.412-2.723 3.651zm-11.726 6.526c1.218.018 2.161-.333 2.992-.948 1.714-1.271 1.473-4.135-.418-5.122a11 11 0 0 0-2.177-.858c-.493-.135-.966-.353-1.445-.54-.129-.047-.25-.114-.25-.277 0-.165.137-.22.256-.273.407-.183.838-.282 1.283-.227.642.078 1.282.188 1.925.27a1.436 1.436 0 0 0 1.558-.993c.165-.525-.186-1.202-.762-1.512-.45-.243-.95-.278-1.432-.386-1.47-.328-2.865-.188-4.196.592-1.806 1.058-1.946 3.927-.197 4.952.805.473 1.647.88 2.576 1.079.482.103.952.28 1.381.537.356.213.32.464.003.659-.423.259-.897.328-1.382.209-.702-.175-1.394-.395-2.101-.554-.805-.18-1.549.225-1.755.918-.193.648.149 1.391.867 1.673 1.101.434 2.237.764 3.272.799zm23.652.007c.624.01 1.214-.13 1.79-.353 1.34-.519 2.053-1.517 2.085-2.93.03-1.366-.629-2.348-1.872-2.959-.863-.422-1.797-.633-2.68-.989-.314-.128-.883-.133-.833-.532.055-.43.622-.42 1.005-.475.714-.101 1.4.128 2.095.243.752.122 1.36-.282 1.558-1.023.174-.66-.15-1.325-.85-1.552-1.692-.546-3.37-.746-5.038.19-1.09.613-1.62 1.538-1.612 2.706.004 1.2.553 2.176 1.725 2.678q.762.327 1.542.608c.61.218 1.232.404 1.84.622.153.055.33.159.337.356.007.223-.168.333-.342.415-.466.225-.957.225-1.457.159-.67-.09-1.269-.406-1.913-.567a1.406 1.406 0 0 0-1.684.934c-.225.704.05 1.299.766 1.638 1.122.533 2.317.744 3.542.826z"/></svg>