<svg xmlns="http://www.w3.org/2000/svg" viewBox="0 0 48 48"><defs><mask width="44" height="44" x="2" y="2" maskUnits="userSpaceOnUse"/></defs><path d="M0 0h48v48H0z" fill="none"/><g mask="url(#a)"><path d="M24 2C11.85 2 2 11.85 2 24s9.85 22 22 22 22-9.85 22-22S36.15 2 24 2" fill="#1ed760" fill-rule="evenodd"/><path d="M36.92 21.96c-7.02-4.26-18.6-4.65-25.3-2.58-1.08.34-2.21-.29-2.54-1.39s.28-2.26 1.36-2.6C18.13 13 30.92 13.46 39 18.37c.97.59 1.29 1.87.71 2.85-.57.99-1.82 1.31-2.79.73Zm-.23 6.31a1.68 1.68 0 0 1-2.34.57c-5.85-3.68-14.77-4.74-21.7-2.59-.9.28-1.85-.24-2.12-1.16s.24-1.89 1.13-2.17c7.91-2.45 17.74-1.27 24.46 2.96.8.5 1.05 1.57.56 2.39Zm-4.53 6.53c.64.4 1.48.19 1.87-.46.39-.66.19-1.51-.45-1.91-5.74-3.59-12.85-4.42-21.15-2.48-.73.17-1.19.92-1.02 1.66.17.75.89 1.21 1.62 1.04 7.58-1.77 14.02-1.05 19.13 2.15" fill-rule="evenodd" fill="#fff"/></g></svg>