<svg xmlns="http://www.w3.org/2000/svg" width="48" height="48" viewBox="0 0 48 48"><path fill="#FFF" fill-rule="evenodd" d="M24 2c12.15 0 22 9.85 22 22s-9.85 22-22 22S2 36.15 2 24 11.85 2 24 2m9.58 30.424c-5.74-3.585-12.854-4.419-21.148-2.48-.733.17-1.189.915-1.021 1.662.167.746.894 1.215 1.625 1.044 7.58-1.771 14.015-1.05 19.128 2.147.64.4 1.475.192 1.866-.462.39-.656.19-1.51-.45-1.91m2.557-6.54c-6.723-4.222-16.553-5.409-24.46-2.956-.898.278-1.404 1.247-1.133 2.165a1.695 1.695 0 0 0 2.119 1.156c6.923-2.15 15.844-1.082 21.696 2.594a1.676 1.676 0 0 0 2.335-.572 1.76 1.76 0 0 0-.557-2.386m2.865-7.506c-8.079-4.905-20.864-5.365-28.556-2.977-1.078.333-1.683 1.495-1.358 2.596.326 1.1 1.464 1.722 2.54 1.387 6.7-2.079 18.278-1.686 25.296 2.576.965.587 2.216.26 2.79-.728.575-.988.256-2.265-.712-2.854"/></svg>