<svg xmlns="http://www.w3.org/2000/svg" width="48" height="48" fill="none" viewBox="0 0 48 48"><circle cx="24" cy="24" r="22" fill="#27A6E6"/><path fill="#fff" d="m11.157 23.74 14.815-6.03c1.452-.634 6.403-2.681 6.403-2.681s2.27-.893 2.084 1.266c-.074.893-.558 4.02-1.08 7.37l-1.6 9.976s-.111 1.452-1.191 1.713c-1.08.26-2.866-.894-3.164-1.154-.26-.186-4.765-3.053-6.403-4.467-.447-.373-.968-1.154.075-2.048 2.27-2.084 5.025-4.69 6.663-6.365.744-.745 1.526-2.531-1.638-.372l-8.971 6.03s-1.005.633-2.941.075a84 84 0 0 1-4.132-1.34s-1.526-.968 1.08-1.973"/></svg>