<svg xmlns="http://www.w3.org/2000/svg" width="48" height="48" fill="none" viewBox="0 0 48 48"><path d="M0 0h48v48H0z"/><path fill="#fff" fill-rule="evenodd" d="M46 24c0 12.15-9.85 22-22 22S2 36.15 2 24 11.85 2 24 2s22 9.85 22 22m-20.028-6.29-14.816 6.03c-2.605 1.005-1.079 1.973-1.079 1.973s2.196.781 4.132 1.34c1.936.558 2.94-.075 2.94-.075l8.972-6.03c3.164-2.16 2.382-.373 1.638.372-1.638 1.675-4.393 4.28-6.663 6.365-1.043.894-.521 1.675-.075 2.048 1.348 1.164 4.636 3.31 5.904 4.138.273.179.453.296.499.329.298.26 2.085 1.414 3.164 1.154s1.191-1.713 1.191-1.713l1.6-9.976c.522-3.35 1.006-6.477 1.08-7.37.186-2.16-2.084-1.266-2.084-1.266s-4.951 2.047-6.403 2.68" clip-rule="evenodd"/></svg>