<svg xmlns="http://www.w3.org/2000/svg" width="48" height="48" fill="none" viewBox="0 0 48 48"><path fill="#26324B" fill-rule="evenodd" d="M40.02 3.27c2.52.66 4.47 2.85 4.89 5.37h-.03c.03.21.06.45.09.69v29.46c-.03.21-.06.45-.09.69-.24 1.44-.9 2.67-1.95 3.69-1.32 1.29-2.94 1.92-4.8 1.92H9.63q-1.305 0-2.52-.54C4.59 43.44 3 41.04 3 38.28V9.9c0-.51.03-.99.15-1.47q.675-2.97 3.33-4.5c.96-.54 1.98-.81 3.09-.87h29.19c.42.03.84.09 1.26.21M17.67 34.89c-1.47-1.02-2.52-2.37-3.24-3.99l.03.18c-.81-1.8-1.17-3.66-1.23-5.61-.06-1.62 0-3.21.27-4.8.21-1.23.51-2.43 1.02-3.57 1.11-2.55 2.97-4.29 5.64-5.13 1.11-.36 2.28-.54 3.45-.54 1.41-.03 2.79.06 4.17.39 2.01.51 3.72 1.56 5.01 3.21.9 1.14 1.53 2.46 2.01 3.84q.014.03.023.06c.014.04.027.08.067.12.435-.12.87-.232 1.305-.345q.653-.166 1.305-.345c-.15-.48-.3-.96-.48-1.41-.66-1.68-1.56-3.21-2.79-4.53-1.59-1.65-3.51-2.73-5.7-3.3-1.35-.36-2.73-.51-4.11-.51-2.04-.03-4.02.24-5.94.99a11.34 11.34 0 0 0-4.98 3.72c-1.14 1.5-1.89 3.21-2.37 5.04a22.6 22.6 0 0 0-.63 4.5c-.09 1.95 0 3.9.39 5.82.3 1.53.78 2.97 1.5 4.35.96 1.8 2.25 3.3 3.99 4.41 2.04 1.32 4.32 1.95 6.75 2.1 1.29.06 2.58 0 3.84-.21 1.35-.21 2.61-.6 3.81-1.2 1.5-.75 2.76-1.74 3.72-3.09 1.02-1.41 1.56-2.97 1.68-4.68q.135-1.665-.45-3.24c-.6-1.56-1.68-2.73-3.09-3.63-.48-.3-.99-.57-1.5-.78-.03-.33-.06-.66-.12-.99-.15-.99-.39-1.92-.87-2.79q-1.395-2.52-4.23-3.06c-1.2-.21-2.4-.15-3.57.12-1.65.36-2.91 1.29-3.87 2.67.75.54 1.5 1.05 2.25 1.56q.067-.069.135-.15c.045-.052.09-.105.135-.15.54-.63 1.2-1.08 2.01-1.23.66-.12 1.32-.18 1.98-.12 1.5.12 2.76 1.17 3.12 2.64.06.21.09.42.06.66l-.203-.034c-.153-.027-.312-.056-.457-.056-.78-.09-1.53-.12-2.31-.12-1.47 0-2.91.24-4.23.93-.75.39-1.38.87-1.89 1.56-.6.81-.9 1.74-.93 2.76-.06.99.18 1.92.75 2.73.93 1.35 2.28 2.1 3.9 2.4 1.05.18 2.1.12 3.12-.12 1.56-.36 2.79-1.17 3.69-2.49.6-.9.99-1.86 1.23-2.91l.18-.81c.09.03.18.06.24.12.96.66 1.65 1.5 1.98 2.61.42 1.35.27 2.64-.33 3.9-.63 1.29-1.62 2.22-2.85 2.94-1.38.78-2.85 1.17-4.41 1.35-1.35.15-2.7.12-4.02-.12-1.41-.27-2.76-.78-3.96-1.62m4.77-10.05c.57-.24 1.17-.36 1.77-.42h-.03c1.02-.09 2.07-.09 3.09.06q.495.045.99.18c-.09 1.05-.24 2.07-.78 3-.45.84-1.14 1.35-2.07 1.56-.84.21-1.71.24-2.55 0-.39-.12-.78-.3-1.14-.54-.66-.48-.9-1.14-.81-1.95.12-.93.69-1.53 1.53-1.89" clip-rule="evenodd"/></svg>