<svg xmlns="http://www.w3.org/2000/svg" width="48" height="48" viewBox="0 0 48 48"><path fill="#FFF" fill-rule="evenodd" d="M15.838 42c16.605 0 25.685-13.85 25.685-25.858 0-.393-.008-.785-.026-1.175A18.422 18.422 0 0 0 46 10.262a17.863 17.863 0 0 1-5.184 1.43 9.107 9.107 0 0 0 3.97-5.026 18.01 18.01 0 0 1-5.733 2.205A8.997 8.997 0 0 0 32.465 6c-4.986 0-9.03 4.071-9.03 9.088 0 .712.08 1.406.235 2.072-7.503-.38-14.156-3.997-18.608-9.495a9.105 9.105 0 0 0-1.222 4.567 9.095 9.095 0 0 0 4.018 7.565 8.92 8.92 0 0 1-4.09-1.137l-.001.117c0 4.4 3.111 8.075 7.242 8.909a8.895 8.895 0 0 1-4.077.155c1.15 3.611 4.481 6.238 8.433 6.313a18.044 18.044 0 0 1-11.212 3.89c-.727 0-1.446-.043-2.153-.126A25.436 25.436 0 0 0 15.838 42"/></svg>