<svg xmlns="http://www.w3.org/2000/svg" width="48" height="48" fill="none" viewBox="0 0 48 48"><path fill="#fff" d="M22.7 23.35c-2.303.865-4.602 1.746-6.913 2.593-3.115 1.141-6.252 2.221-9.502 2.926-.567.123-1.153.186-1.733.216-.856.044-1.501-.437-1.852-1.296-1.27-3.123-.764-6.02 1.137-8.724 1.747-2.483 4.204-4.07 6.88-5.354 2.012-.966 4.138-1.624 6.32-2.05a36.2 36.2 0 0 1 9.903-.538c2.608.21 5.156.677 7.63 1.514 3.335 1.128 6.39 2.742 8.786 5.405 1.855 2.061 2.882 4.46 2.597 7.26-.23 2.264-1.304 4.177-2.866 5.813-2.288 2.397-5.124 3.898-8.206 4.982-2.874 1.011-5.83 1.526-8.883 1.677-3.478.173-6.902-.054-10.272-.89-2.196-.547-4.368-1.213-6.284-2.495-.038-.024-.078-.044-.115-.07-1.254-.85-1.314-1.508-.214-2.554 1.74-1.654 3.81-2.836 5.847-4.06 2.385-1.433 4.839-2.744 7.318-4.005.157-.08.31-.169.466-.254z"/></svg>