<svg xmlns="http://www.w3.org/2000/svg" width="48" height="48" fill="none" viewBox="0 0 48 48"><path fill="#fff" d="M20.49 38.94c-7.29.72-13.57-2.57-14.05-7.33-.47-4.77 5.05-9.22 12.33-9.94 7.29-.72 13.57 2.57 14.04 7.33.48 4.77-5.05 9.22-12.32 9.94m14.56-15.83c-.62-.19-1.04-.31-.72-1.12.7-1.76.78-3.28.01-4.37-1.43-2.03-5.34-1.93-9.82-.05 0 0-1.41.61-1.04-.5.69-2.21.58-4.06-.49-5.13-2.43-2.43-8.89.09-14.44 5.62C4.41 21.69 2 26.08 2 29.88c0 7.25 9.33 11.67 18.46 11.67 11.97 0 19.92-6.93 19.92-12.44 0-3.33-2.81-5.22-5.33-6M43 9.83c-2.89-3.2-7.15-4.41-11.08-3.58a1.67 1.67 0 0 0-1.29 1.99c.19.91 1.09 1.48 2 1.29 2.8-.59 5.83.27 7.88 2.54a8.24 8.24 0 0 1 1.73 8.08c-.29.88.2 1.83 1.09 2.11s1.83-.2 2.12-1.08c1.24-3.81.46-8.17-2.43-11.36"/><path fill="#fff" d="M38.56 13.83a5.67 5.67 0 0 0-5.4-1.74c-.78.16-1.28.94-1.12 1.72.17.78.94 1.28 1.72 1.11.94-.2 1.95.09 2.64.85s.87 1.8.58 2.71c-.24.76.17 1.57.94 1.82.77.24 1.58-.17 1.83-.93.6-1.86.22-3.98-1.18-5.53M20.89 30.31c-.26.44-.82.64-1.26.46s-.57-.67-.32-1.09c.26-.42.8-.63 1.23-.46.44.16.59.65.35 1.09m-2.33 2.97c-.7 1.12-2.22 1.61-3.35 1.1-1.12-.51-1.45-1.81-.75-2.91.7-1.09 2.16-1.57 3.28-1.1 1.14.49 1.51 1.78.81 2.91m2.65-7.93c-3.47-.9-7.38.82-8.89 3.87-1.54 3.11-.05 6.56 3.45 7.68 3.63 1.17 7.9-.62 9.39-3.97 1.47-3.28-.36-6.65-3.95-7.58"/></svg>