<svg xmlns="http://www.w3.org/2000/svg" width="48" height="48" fill="none" viewBox="0 0 48 48"><path fill="#fff" d="M5.236 30.444c0 5.11 6.672 9.252 14.898 9.252s14.898-4.142 14.898-9.252-6.672-9.252-14.898-9.252-14.898 4.142-14.898 9.252"/><path fill="#E6162D" d="M20.486 38.944c-7.286.72-13.575-2.568-14.048-7.332-.473-4.771 5.052-9.216 12.33-9.936 7.285-.72 13.574 2.567 14.041 7.332.48 4.77-5.045 9.222-12.323 9.936M35.05 23.11c-.62-.188-1.045-.309-.723-1.12.704-1.763.778-3.283.013-4.372-1.427-2.034-5.336-1.925-9.817-.055 0 0-1.409.612-1.044-.497.686-2.21.582-4.056-.486-5.128-2.428-2.427-8.894.092-14.437 5.62C4.41 21.693 2 26.083 2 29.88c0 7.253 9.33 11.667 18.456 11.667 11.965 0 19.924-6.933 19.924-12.437.007-3.329-2.805-5.219-5.33-6"/><path fill="#F93" d="M42.998 9.834c-2.89-3.197-7.152-4.414-11.085-3.578a1.68 1.68 0 1 0 .703 3.282 8.29 8.29 0 0 1 7.88 2.543 8.24 8.24 0 0 1 1.731 8.076c-.285.884.2 1.828 1.088 2.113.886.285 1.833-.2 2.118-1.078v-.006A11.56 11.56 0 0 0 43 9.834"/><path fill="#F93" d="M38.56 13.83a5.66 5.66 0 0 0-5.398-1.737 1.45 1.45 0 0 0-1.117 1.72c.17.78.94 1.277 1.718 1.108.936-.2 1.955.09 2.642.848a2.76 2.76 0 0 1 .577 2.706 1.45 1.45 0 0 0 2.762.889 5.64 5.64 0 0 0-1.183-5.534"/><path fill="#000" d="M20.887 30.31c-.256.436-.82.642-1.258.46-.437-.176-.57-.666-.322-1.09.256-.424.796-.63 1.226-.46.437.158.595.648.352 1.09m-2.325 2.968c-.704 1.12-2.217 1.61-3.351 1.095-1.117-.508-1.452-1.81-.746-2.906.698-1.09 2.155-1.574 3.284-1.102 1.14.491 1.505 1.78.814 2.913m2.647-7.932c-3.466-.902-7.382.823-8.888 3.87-1.537 3.105-.049 6.556 3.449 7.682 3.63 1.17 7.904-.623 9.391-3.971 1.47-3.282-.364-6.654-3.952-7.58"/></svg>