<svg xmlns="http://www.w3.org/2000/svg" width="48" height="48" fill="none" viewBox="0 0 48 48"><path fill="#fff" fill-rule="evenodd" d="M39.307 8.394A21.57 21.57 0 0 0 23.927 2C11.94 2 2.187 11.78 2.182 23.802c-.002 3.842 1 7.593 2.903 10.9L2 46l11.526-3.031a21.66 21.66 0 0 0 10.391 2.653h.01c11.983 0 21.739-9.78 21.742-21.802.003-5.826-2.257-11.303-6.362-15.424zM23.927 41.94h-.008c-3.242 0-6.422-.875-9.198-2.527l-.66-.393-6.84 1.8 1.826-6.688-.43-.686A18.1 18.1 0 0 1 5.854 23.8c.003-9.991 8.111-18.12 18.08-18.12a17.93 17.93 0 0 1 12.777 5.315 18.04 18.04 0 0 1 5.288 12.82c-.005 9.993-8.112 18.121-18.072 18.121zm9.913-13.571c-.544-.273-3.215-1.59-3.713-1.772-.499-.183-.86-.273-1.222.272-.361.546-1.403 1.774-1.72 2.136-.317.364-.634.409-1.177.136s-2.293-.848-4.369-2.704c-1.614-1.445-2.705-3.228-3.023-3.774-.317-.546-.034-.84.238-1.112.244-.244.543-.636.815-.954s.361-.547.543-.91.091-.68-.044-.954c-.136-.272-1.222-2.954-1.676-4.044-.441-1.062-.889-.919-1.221-.936-.317-.016-.68-.018-1.042-.018-.363 0-.951.136-1.45.681-.498.546-1.902 1.864-1.902 4.544 0 2.681 1.947 5.272 2.219 5.637s3.832 5.866 9.28 8.226c1.296.562 2.31.897 3.099 1.148 1.301.415 2.485.357 3.422.217 1.043-.157 3.214-1.319 3.667-2.59.452-1.273.452-2.364.316-2.592-.135-.227-.498-.363-1.041-.636v-.002" clip-rule="evenodd"/></svg>