<svg xmlns="http://www.w3.org/2000/svg" width="48" height="48" fill="none" viewBox="0 0 48 48"><path fill="#fff" d="M32.12 36.46c-.52 0-.88.35-.88.86s.37.89.87.89c.53 0 .88-.35.88-.91 0-.57-.29-.84-.87-.84M17.15 36.46c-.57 0-.85.28-.85.85 0 .5.44.98.92.97.41 0 .92-.56.91-1.01 0-.49-.39-.81-.97-.82zM13.71 15.3c3.03 1.49 6.07 2.96 9.07 4.51.84.44 1.47.47 2.34.02 1.5-.77 3-1.55 4.53-2.27 1.62-.76 3.19-1.6 4.8-2.38.19-.09.3-.23.29-.46-.02-.47-.03-.95 0-1.42.03-.39-.1-.48-.48-.48-3.42.01-6.84 0-10.26 0H13.65c-.3 0-.4.09-.39.39.02.46.04.92 0 1.37-.03.38.12.55.45.71z"/><path fill="#fff" d="M45.99 2.19c.03-.16-.03-.2-.19-.19-.4.02-.79 0-1.19 0H2.4c-.33 0-.4.07-.4.4.01 13.98 0 27.96 0 41.94 0 .41.03.83 0 1.24-.03.35.08.42.42.42 14.38-.01 28.77-.01 43.15 0 .34 0 .42-.08.42-.42-.01-14.39 0-28.77 0-43.16 0-.08-.01-.16 0-.23M11.26 25.76c0-4.42.01-8.84.02-13.25 0-.17-.01-.34.07-.49.26-.84.87-1.1 1.7-1.1 3.14.02 6.28 0 9.41 0 .18 0 .36-.02.55-.03 3.51 0 7.02.01 10.53.02.55 0 1.1-.01 1.65 0 .9.03 1.46.57 1.46 1.47 0 4.5.02 9 0 13.5 0 .89-.23 1.48-1.51 1.48-7.35-.01-14.71 0-22.06 0-.17 0-.34 0-.5.01-.66-.08-1-.51-1.2-1.09-.12-.16-.09-.35-.09-.53zm1.46 15.02c-.12.3-.27.5-.66.45s-.79-.01-1.22-.01c.17-.42.28-.82.49-1.17.19-.32.18-.58.04-.91-.44-.97-.85-1.95-1.28-2.92-.04-.07-.07-.15-.11-.23 0-.03-.01-.06-.02-.09-.07-.16-.13-.34-.21-.49-.14-.26-.05-.36.22-.34.3 0 .61.04.91 0 .39-.05.53.16.64.46.21.58.43 1.15.63 1.73.04.12.08.26.21.25.06 0 .12-.15.16-.24.25-.63.51-1.25.72-1.9.08-.24.19-.31.41-.3.44.01.88 0 1.35 0-.35 1.2-.92 2.25-1.37 3.35-.32.78-.62 1.56-.93 2.34zm6.87-1.31c-.41 0-.82.01-1.23.02h-.04c-.38-.38-.69 0-1.04.08-.88.19-1.66-.17-2.16-.97-.75-1.18-.32-2.9.91-3.45.56-.26 1.14-.23 1.7.03.16.08.27.2.38-.06.03-.09 1.35-.1 1.44-.03.13.1.08.25.08.38 0 1.31.01 2.62.02 3.93.03.04.01.06-.03.08zm4.84-.22c0 .22-.08.3-.29.3-.34 0-.67-.01-1.01 0-.25.01-.31-.11-.31-.33 0-.69.01-1.37 0-2.06-.01-.53-.17-.71-.56-.7-.38 0-.54.21-.54.73 0 .64-.03 1.28 0 1.92.02.38-.12.49-.47.44-.37-.05-.76.07-1.13-.07-.09-.15-.07-.33-.07-.49V33.6c0-.18-.05-.37.12-.51h.41c.75 0 1.12.38 1.12 1.14v1.14c.39-.23.74-.37 1.16-.39.91-.04 1.37.72 1.48 1.31.18.98.05 1.97.08 2.96zm4.99-1.8c-.04.89-1.03 2.28-2.4 2.12-1.28.14-2.3-1.08-2.29-1.99.02-1.6.8-2.54 2.07-2.6 1.72-.09 2.68 1.04 2.62 2.47m2.65 2.12c-1.3 0-2.44-1.08-2.36-2.3.1-1.5 1.04-2.31 2.47-2.35s2.26 1.13 2.29 2.49c.02 1.03-1.22 2.37-2.4 2.17zm3.73.09c-.54 0-1.08-.42-1.07-1.07 0-.6.4-1.02 1-1.03.72.06 1.11.34 1.1 1 0 .54-.51 1.1-1.03 1.1m1.48-2.75c-.04.1-.08.24-.23.25h-1.73c.52-1.29 1.02-2.51 1.51-3.74.1-.26.23-.36.53-.34.47.03.94 0 1.47 0-.53 1.31-1.03 2.57-1.54 3.83z"/><path fill="#fff" d="M27.1 36.46c-.52 0-.91.38-.9.89.01.47.4.86.86.86.56 0 .88-.34.89-.95 0-.54-.27-.8-.85-.8M20.16 34.8c0-.57.01-1.14.02-1.71-.17.14-.12.34-.12.51v5.39c0 .16-.03.34.07.49 0-.99 0-1.98.01-2.97 0-.57 0-1.14.01-1.71zM19.59 39.47s.05-.04.03-.08c-.02.02-.03.05-.03.08M11.36 16.31c0-1.43-.01-2.87-.02-4.3-.08.16-.07.33-.07.49 0 4.42-.01 8.84-.02 13.25 0 .18-.03.37.09.53V16.3zM9.99 36h-.01c.03.07.07.15.11.23v-.02c0-.09-.02-.17-.1-.23z"/></svg>