<svg xmlns="http://www.w3.org/2000/svg" width="48" height="48" fill="none" viewBox="0 0 48 48"><path fill="#6619DF" d="M32.116 36.457c-.516 0-.879.354-.882.861a.86.86 0 0 0 .874.89c.534.003.883-.356.88-.908-.003-.568-.286-.842-.872-.842M17.153 36.461c-.571-.002-.853.28-.855.852-.001.502.444.975.916.971.414-.003.92-.56.912-1.006-.009-.494-.392-.815-.973-.817M13.714 15.298c3.03 1.487 6.071 2.956 9.066 4.513.844.439 1.468.47 2.34.018 1.495-.774 2.998-1.55 4.527-2.265 1.616-.756 3.192-1.604 4.8-2.383.193-.094.295-.226.286-.462-.018-.472-.03-.948.003-1.42.028-.384-.102-.478-.48-.476-3.419.015-6.838.01-10.256.01h-6.455c-1.297 0-2.594.007-3.891-.007-.3-.004-.4.087-.385.388.024.457.037.919-.004 1.373-.033.381.124.55.45.71z"/><path fill="#6619DF" d="M45.993 2.193c.029-.16-.026-.196-.187-.19-.396.016-.793.005-1.19.005C30.545 2.01 16.473 2.01 2.402 2c-.33 0-.398.068-.398.398.01 13.98.009 27.963.009 41.944 0 .412.026.826-.008 1.236-.03.347.077.422.42.422q21.577-.015 43.153 0c.344 0 .42-.077.42-.421-.01-14.386-.007-28.772-.007-43.157 0-.076-.011-.156.002-.23M11.26 25.758q.007-6.626.016-13.253c0-.167-.014-.337.065-.493.26-.84.866-1.1 1.696-1.096 3.138.018 6.276.01 9.415.008.181 0 .364-.016.546-.025l10.527.02c.549 0 1.099-.013 1.648.004.902.026 1.459.569 1.46 1.468.01 4.502.02 9.004-.009 13.504-.005.891-.225 1.485-1.51 1.482-7.354-.015-14.708-.007-22.063-.006-.167 0-.335.007-.503.01-.659-.08-1.003-.506-1.197-1.094-.124-.16-.09-.349-.09-.53m1.463 15.021c-.118.3-.268.502-.659.451-.389-.05-.788-.01-1.223-.01.172-.423.284-.823.488-1.17.187-.32.184-.585.038-.908-.436-.968-.852-1.945-1.276-2.919v.012l-.105-.244.01.006-.02-.087c-.069-.164-.126-.336-.21-.492-.14-.261-.053-.359.22-.345.305.005.615.045.914.004.391-.054.533.162.643.464.21.579.431 1.153.633 1.733.042.122.076.258.21.25.059-.004.122-.152.158-.244.247-.63.51-1.255.72-1.898.079-.244.186-.306.413-.3.438.011.876.004 1.35.004-.351 1.196-.925 2.249-1.374 3.35-.317.778-.62 1.56-.928 2.341zm6.866-1.309-1.234.018c-.015 0-.038.006-.045-.001-.381-.383-.693.002-1.043.077-.876.187-1.656-.173-2.164-.971-.75-1.18-.32-2.897.906-3.453.561-.256 1.143-.235 1.7.035.161.078.272.2.377-.064.035-.087 1.35-.096 1.436-.03.134.102.08.252.082.382.008 1.31.01 2.621.015 3.931q.038.059-.03.076m4.843-.22c.007.216-.078.302-.295.295-.335-.01-.67-.013-1.006.002-.252.011-.308-.109-.305-.332.007-.686.01-1.373-.003-2.058-.01-.528-.167-.709-.563-.702-.379.008-.537.211-.544.725-.007.641-.026 1.283.005 1.922.018.378-.12.487-.468.444-.373-.046-.758.074-1.126-.067-.094-.154-.067-.326-.067-.49q-.006-2.697-.004-5.393c0-.176-.052-.37.118-.511h.411q1.121 0 1.121 1.146v1.136c.388-.228.741-.37 1.162-.388.913-.039 1.372.721 1.481 1.31.183.977.05 1.974.083 2.961m4.99-1.798c-.037.887-1.033 2.281-2.4 2.12-1.283.135-2.304-1.085-2.29-1.986.023-1.6.802-2.538 2.067-2.604 1.716-.09 2.679 1.04 2.622 2.47m2.646 2.12c-1.301-.005-2.44-1.082-2.36-2.3.099-1.504 1.042-2.312 2.467-2.356 1.427-.044 2.262 1.134 2.288 2.49.019 1.03-1.221 2.37-2.395 2.166m3.73.087c-.543-.003-1.075-.424-1.069-1.069.007-.605.405-1.023.998-1.026.724.06 1.112.336 1.1.998-.008.539-.508 1.1-1.029 1.097m1.483-2.746c-.042.104-.076.244-.227.246-.572.005-1.145.002-1.734.002.52-1.288 1.023-2.51 1.507-3.74.102-.26.234-.363.526-.343.47.03.942.008 1.472.008-.529 1.312-1.034 2.571-1.544 3.827"/><path fill="#6619DF" d="M27.099 36.458c-.525-.002-.913.38-.9.888.01.47.403.862.862.86.564-.003.883-.344.885-.949.002-.54-.268-.795-.848-.798"/><path fill="#fff" d="M11.35 26.288c.195.59.539 1.014 1.198 1.094.168-.003.336-.01.503-.01 7.355 0 14.71-.009 22.063.006 1.285.003 1.504-.59 1.51-1.482.029-4.501.018-9.003.01-13.504-.002-.9-.558-1.442-1.46-1.468-.55-.017-1.1-.003-1.65-.004l-10.526-.02c-.182.009-.364.025-.546.025-3.139 0-6.277.01-9.415-.008-.83-.004-1.437.257-1.696 1.096.006 1.433.02 2.867.02 4.3q-.002 4.987-.01 9.975m1.915-11.7c.04-.455.027-.916.004-1.373-.016-.301.084-.392.385-.388 1.297.014 2.594.006 3.891.006H24c3.418 0 6.837.006 10.256-.01.378 0 .508.093.48.478a13 13 0 0 0-.003 1.418c.01.236-.092.37-.287.463-1.607.779-3.184 1.626-4.8 2.383-1.53.717-3.03 1.49-4.526 2.265-.872.452-1.496.42-2.34-.018-2.995-1.557-6.035-3.027-9.066-4.514-.325-.16-.482-.33-.449-.71M24.349 36.29c-.11-.588-.569-1.348-1.482-1.309-.422.019-.774.16-1.161.388v-1.136q0-1.146-1.121-1.145l-.412-.001-.016 1.712q-.009.856-.015 1.712-.009 1.485-.015 2.97c.369.142.753.022 1.126.068.348.043.487-.066.468-.444-.03-.64-.012-1.281-.004-1.922.005-.514.165-.718.543-.725.396-.007.554.174.563.702.013.685.01 1.372.003 2.058-.003.222.053.343.305.332a14 14 0 0 1 1.007-.002c.216.007.301-.08.294-.295-.033-.988.1-1.984-.083-2.962M19.603 35.465c0-.13.052-.28-.082-.382-.085-.065-1.401-.057-1.436.03-.105.264-.215.142-.377.064-.556-.27-1.137-.29-1.7-.035-1.226.556-1.657 2.272-.906 3.453.508.797 1.288 1.158 2.164.97.35-.074.662-.459 1.044-.076.007.007.029 0 .044 0l1.234-.017a.08.08 0 0 1 .03-.076c-.005-1.31-.007-2.621-.015-3.931m-2.389 2.82c-.472.003-.917-.47-.916-.972.002-.573.284-.854.855-.852.58.002.964.323.972.817.009.445-.497 1.003-.912 1.006zM13.676 35.085c-.228-.005-.335.057-.415.3-.21.642-.472 1.268-.718 1.897-.036.093-.1.24-.159.244-.134.008-.167-.126-.21-.25-.202-.58-.422-1.154-.632-1.732-.11-.302-.252-.518-.644-.464-.298.04-.607 0-.913-.004-.274-.014-.36.083-.22.344.083.157.14.328.21.493l.019.087c.078.055.1.135.097.225.423.974.84 1.951 1.276 2.919.145.323.148.588-.039.907-.203.348-.317.748-.487 1.17.433 0 .834-.04 1.222.011.392.051.542-.151.66-.45.308-.782.61-1.565.927-2.342.45-1.103 1.023-2.155 1.374-3.35-.474 0-.91.008-1.35-.004zM32.175 34.917c-1.425.044-2.368.852-2.467 2.355-.08 1.22 1.058 2.296 2.36 2.3 1.174.204 2.413-1.137 2.394-2.165-.026-1.357-.86-2.534-2.288-2.49m-.066 3.29a.857.857 0 0 1-.874-.89c.002-.507.365-.86.882-.86.586 0 .87.273.872.84.003.553-.345.912-.88.908zM26.798 34.984c-1.265.066-2.043 1.004-2.067 2.603-.014.902 1.007 2.122 2.29 1.986 1.367.162 2.364-1.232 2.4-2.12.056-1.43-.906-2.559-2.623-2.469m.263 3.221c-.46.002-.852-.39-.863-.86-.012-.507.377-.89.9-.888.58.003.85.258.848.799-.001.605-.32.947-.885.948zM37.352 33.08c-.291-.02-.423.083-.526.343-.485 1.23-.986 2.452-1.507 3.74.59 0 1.161.003 1.734-.002.15 0 .185-.142.228-.246.51-1.256 1.015-2.515 1.543-3.827-.53 0-1.002.023-1.472-.009M35.726 37.566c-.594.003-.99.421-.997 1.026-.007.645.525 1.066 1.069 1.069.52.003 1.02-.558 1.03-1.097.01-.662-.378-.939-1.102-.998"/><path fill="#6619DF" d="m20.156 34.798.016-1.712c-.17.14-.116.335-.117.511q-.002 2.696.003 5.392c0 .165-.026.337.067.49q.006-1.485.015-2.97l.015-1.712zM19.588 39.472q.067-.018.03-.076a.08.08 0 0 0-.03.076M11.36 16.313c0-1.434-.012-2.868-.02-4.3-.078.156-.064.326-.064.493q-.01 6.627-.016 13.253c0 .18-.032.368.092.529.004-3.325.01-6.65.01-9.975zM9.994 35.999l.002.006-.01-.013.105.244-.002-.017.002.005c.004-.09-.018-.171-.097-.225"/><path fill="#6619DF" d="M10.091 36.236v-.011l-.001-.006zM9.994 35.999l-.009-.007.011.014z"/></svg>