<svg xmlns="http://www.w3.org/2000/svg" viewBox="0 0 48 48"><path fill="#407ec0" fill-rule="evenodd" d="M45.16 15.94c-.17-.65-.83-1.03-1.48-.86l-18.94 5.11v7.68l18.91 5.26c.65.18 1.31-.2 1.48-.85.38-1.46.95-4.27.95-8.17s-.54-6.71-.91-8.17Z"/><path fill="#2a66b1" fill-rule="evenodd" d="M24.73 27.88v5.29c0 1.01-.82 1.83-1.83 1.83h-1.73l9.68 9.61c.57.56 1.49.52 2.01-.09 1.89-2.24 5.91-7.51 6.76-12.5z"/><path fill="#34a5dd" fill-rule="evenodd" d="m24.73 20.19 14.92-4.02C38 9.72 34.27 5.16 32.59 3.37c-.45-.48-1.2-.49-1.67-.02L21 13.27h1.89c1.01 0 1.83.82 1.83 1.83v5.1Z"/><path fill="#03529a" fill-rule="evenodd" d="M22.9 34.99H4.83A1.83 1.83 0 0 1 3 33.16V15.09c0-1.01.82-1.83 1.83-1.83H22.9c1.01 0 1.83.82 1.83 1.83v18.07c0 1.01-.82 1.83-1.83 1.83"/><path fill="#fff" fill-rule="evenodd" d="M18.02 18.28c-.52-.28-1.16-.09-1.44.43l-2.66 4.97-2.77-4.97a1.06 1.06 0 0 0-1.44-.43c-.52.28-.71.93-.43 1.44l3.34 6.07v3.13c0 .65.53 1.18 1.18 1.18s1.18-.53 1.18-1.18v-2.9l3.46-6.3c.28-.52.09-1.16-.43-1.44Z"/></svg>