<svg xmlns="http://www.w3.org/2000/svg" width="48" height="48" viewBox="0 0 48 48"><path fill="#FFF" fill-rule="evenodd" d="M24.226 9h.097l.384.002c1.401.008 4.689.038 8.022.161l.714.028c3.212.133 6.344.357 7.747.736a5.53 5.53 0 0 1 3.89 3.914c.343 1.287.558 3.094.693 4.856l.04.554c.162 2.389.184 4.58.187 5.121v.256c-.006.98-.072 7.349-.92 10.53a5.53 5.53 0 0 1-3.89 3.917c-1.403.378-4.535.602-7.747.734l-.714.028c-3.571.132-7.09.157-8.293.162h-.872c-1.203-.005-4.722-.03-8.293-.162l-.714-.028c-3.212-.132-6.344-.356-7.747-.734a5.53 5.53 0 0 1-3.891-3.916c-.793-2.979-.902-8.752-.917-10.28l-.001-.182v-.395l.001-.18c.015-1.53.124-7.3.917-10.28a5.53 5.53 0 0 1 3.89-3.915c1.404-.38 4.536-.603 7.748-.736l.714-.028c3.333-.123 6.62-.153 8.022-.16L23.677 9h.097ZM19.5 17.958v13.085L31 24.5z"/></svg>