<svg xmlns="http://www.w3.org/2000/svg" width="48" height="48" viewBox="0 0 48 48"><path fill-rule="evenodd" d="M31.5 18c0 4.14-3.36 7.5-7.5 7.5s-7.5-3.36-7.5-7.5 3.36-7.5 7.5-7.5 7.5 3.36 7.5 7.5m-3 0c0-2.49-2.01-4.5-4.5-4.5s-4.5 2.01-4.5 4.5 2.01 4.5 4.5 4.5 4.5-2.01 4.5-4.5" clip-rule="evenodd"/><path fill-rule="evenodd" d="M15 16.53H9v3h6zM33 16.53h6v3h-6z"/><path fill-rule="evenodd" d="M3 30V6h42v24zM6 9v18h36V9z" clip-rule="evenodd"/><path fill-rule="evenodd" d="M6 32.97v3h36v-3zM9 42v-3h30v3z"/></svg>