<svg xmlns="http://www.w3.org/2000/svg" width="48" height="48" viewBox="0 0 48 48"><path d="M30 14c8.833 0 16-2.69 16-6s-7.167-6-16-6-16 2.69-16 6 7.167 6 16 6Zm8 8c4.48-.928 8-1.912 8-4v-4c-2.651 2.157-7.206 3.317-12 3.592 2.203 1.23 3.343 2.371 4 4.408Zm-20 8c7 0 16-2.488 16-7 0-4.512-8-7-16-7S2 18.488 2 23c0 4.512 9 7 16 7Zm20 0c4.775-.905 8-2.067 8-4v-4c-1 2-6 4-8 4v4Zm-20 8c8.833 0 16-2.946 16-6v-4c-3.442 2.941-9.742 4.464-16 4.464-6.258 0-12.558-1.523-16-4.464v4c0 3.054 7.167 6 16 6Zm0 8c8.833 0 16-2.69 16-5.998V36c-3.442 2.727-9.733 4.002-16 4.002-6.267 0-12.558-1.275-16-4.002v4.002C2 43.31 9.167 46 18 46Z"/></svg>