<svg xmlns="http://www.w3.org/2000/svg" viewBox="0 0 48 48"><path d="M0 0h48v48H0z" fill="none"/><path d="m26.7 24 5.3 5.32L29.31 32l-5.3-5.32-5.32 5.29L16 29.29 21.32 24 16 18.71l2.69-2.68 5.46 5.26L29.31 16 32 18.68 26.7 24Zm4.31-16.58c2.12.89 4.05 2.19 5.72 3.85a17.75 17.75 0 0 1 3.85 5.72C41.52 19.21 42 21.57 42 24s-.48 4.79-1.42 7.01a17.82 17.82 0 0 1-3.85 5.71 17.858 17.858 0 0 1-5.72 3.85c-2.22.94-4.58 1.42-7.01 1.42s-4.8-.48-7.01-1.42a17.97 17.97 0 0 1-5.72-3.85 17.926 17.926 0 0 1-3.85-5.71C6.48 28.79 6 26.43 6 24s.48-4.79 1.42-7.01c.89-2.13 2.19-4.05 3.85-5.72s3.58-2.95 5.72-3.85C19.21 6.48 21.57 6 24 6s4.79.48 7.01 1.42Zm1.56-3.68c2.6 1.09 4.95 2.68 6.99 4.71 2.02 2.02 3.61 4.36 4.71 6.98 1.15 2.71 1.74 5.59 1.74 8.57s-.59 5.86-1.74 8.57a21.73 21.73 0 0 1-4.71 6.98 21.878 21.878 0 0 1-6.99 4.71c-2.71 1.15-5.59 1.73-8.57 1.73s-5.86-.59-8.57-1.73a21.73 21.73 0 0 1-6.98-4.71 21.946 21.946 0 0 1-4.71-6.98C2.59 29.86 2.01 26.98 2.01 24s.59-5.86 1.73-8.57a21.73 21.73 0 0 1 4.71-6.98c2.02-2.02 4.38-3.61 6.98-4.71C18.14 2.59 21.02 2 24 2s5.86.59 8.57 1.74Z" fill-rule="evenodd"/></svg>