<svg xmlns="http://www.w3.org/2000/svg" xml:space="preserve" viewBox="0 0 48 48"><path fill-rule="evenodd" d="M39 10.4H18c-1.7 0-3 1.4-3 3.1v28.3c0 1.7 1.3 3.1 3 3.1h10.8c.8 0 1.6-.3 2.1-.9l10.2-10.7c.6-.6.9-1.4.9-2.2V13.5c0-1.7-1.3-3.1-3-3.1m-9 30.2V33h7.3zM18.1 42s-.1 0-.1-.2V13.4h21V30h-9c-1.7 0-3 1.3-3 3v9" clip-rule="evenodd"/><path fill-rule="evenodd" d="M7.4 33.1 5.9 9.8c-.1-1.2.3-2.4 1.1-3.3S8.9 5.1 10.1 5l19.8-1.9.3 3L10.3 8c-.4 0-.8.2-1.1.5-.2.3-.3.7-.3 1.1l1.5 23.3z" clip-rule="evenodd"/></svg>