<svg xmlns="http://www.w3.org/2000/svg" width="48" height="48" viewBox="0 0 48 48"><path fill-rule="evenodd" d="M40.5 18c0-1.8-.81-3.39-2.07-4.5 1.26-1.11 2.07-2.7 2.07-4.5 0-3.3-2.7-6-6-6h-21c-3.3 0-6 2.7-6 6 0 1.8.81 3.39 2.07 4.5C8.31 14.61 7.5 16.2 7.5 18s.81 3.39 2.07 4.5C8.31 23.61 7.5 25.2 7.5 27c0 3.3 2.7 6 6 6h9v2.82a4.9 4.9 0 0 0-3.21 3.21H9v3h10.29c.63 2.01 2.49 3.48 4.71 3.48s4.08-1.47 4.71-3.48H39v-3H28.71a4.9 4.9 0 0 0-3.21-3.21V33h9c3.3 0 6-2.7 6-6 0-1.8-.81-3.39-2.07-4.5 1.26-1.11 2.07-2.7 2.07-4.5M24 42.48c-1.08 0-1.98-.87-1.98-1.98s.87-1.98 1.98-1.98 1.98.87 1.98 1.98-.87 1.98-1.98 1.98M10.5 8.97c0-1.65 1.35-3 3-3h21c1.65 0 3 1.35 3 3s-1.35 3-3 3h-21c-1.65 0-3-1.35-3-3m27 18c0 1.65-1.35 3-3 3h-21c-1.65 0-3-1.35-3-3s1.32-2.97 2.97-3h21.06c1.65 0 2.97 1.35 2.97 3m-3-6H13.47c-1.65 0-2.97-1.35-2.97-3s1.35-3 3-3h21c1.65 0 3 1.35 3 3s-1.32 2.97-2.97 3z" clip-rule="evenodd"/></svg>