<svg xmlns="http://www.w3.org/2000/svg" width="48" height="48" viewBox="0 0 48 48"><path fill-rule="evenodd" d="M31.77 13.5H18.63L14.28 18H6v-3h7.02l4.35-4.5h14.4c.66-2.16 2.64-3.75 5.01-3.75 2.88 0 5.25 2.37 5.25 5.25s-2.37 5.25-5.25 5.25c-2.37 0-4.35-1.59-5.01-3.75m7.26-1.5c0-1.23-1.02-2.25-2.25-2.25s-2.25 1.02-2.25 2.25 1.02 2.25 2.25 2.25 2.25-1.02 2.25-2.25M31.77 34.5c.66-2.16 2.64-3.75 5.01-3.75 2.88 0 5.25 2.37 5.25 5.25s-2.37 5.25-5.25 5.25c-2.37 0-4.35-1.59-5.01-3.75H20.04l-2.82-6H6v-3h11.19l2.79-6.03h5.76c.63-2.16 2.64-3.78 5.01-3.78 2.88 0 5.25 2.37 5.25 5.25s-2.37 5.25-5.25 5.25c-2.34 0-4.32-1.59-4.98-3.72h-3.84l-2.1 4.56 2.1 4.47zm1.29-10.59c0-1.23-1.02-2.25-2.25-2.25s-2.25 1.02-2.25 2.25 1.02 2.25 2.25 2.25 2.25-1.02 2.25-2.25M34.53 36c0 1.23 1.02 2.25 2.25 2.25s2.25-1.02 2.25-2.25-1.02-2.25-2.25-2.25-2.25 1.02-2.25 2.25" clip-rule="evenodd"/></svg>