<svg xmlns="http://www.w3.org/2000/svg" width="48" height="48" viewBox="0 0 48 48"><path fill-rule="evenodd" d="m39.54 6.81 4.53 4.53c.51.54.81 1.26.81 1.98s-.3 1.44-.81 1.95L25.98 33.36c-.33.33-.69.57-1.11.69l-7.47 1.8c-.15.09-.3.09-.48.09-.48 0-.99-.18-1.38-.57-.51-.51-.69-1.29-.48-1.98l1.74-7.26c.15-.51.39-.93.72-1.23L35.61 6.81a2.79 2.79 0 0 1 3.93 0M18.36 32.58l5.73-1.38 12.45-12.54-4.26-4.26-12.63 12.63zm19.2-23.49-3.18 3.18 4.26 4.26v.03l3.18-3.21z" clip-rule="evenodd"/><path fill-rule="evenodd" d="M9 41.94h30v-15h3v15c0 1.65-1.35 3-3 3H9c-1.65 0-3-1.35-3-3v-30c0-1.65 1.35-3 3-3h15.03v3H9z"/></svg>