<svg xmlns="http://www.w3.org/2000/svg" width="48" height="48" viewBox="0 0 48 48"><path fill-rule="evenodd" d="M38.85 31.29 27.6 24.81c-.6.54-1.32.96-2.1 1.2v15.96H33v3H15v-3h7.5V26.01c-.81-.24-1.5-.66-2.1-1.2L9.15 31.29l-1.5-2.61L18.9 22.2c-.09-.39-.15-.78-.15-1.2 0-2.37 1.59-4.35 3.75-5.01V3h3v12.99c2.16.66 3.75 2.64 3.75 5.01 0 .42-.06.81-.15 1.2l11.25 6.48zM24 18.75c-1.23 0-2.25 1.02-2.25 2.25s1.02 2.25 2.25 2.25 2.25-1.02 2.25-2.25-1.02-2.25-2.25-2.25" clip-rule="evenodd"/><path fill-rule="evenodd" d="M17.67 10.23c-5.07 1.29-8.16 6.45-6.87 11.52l-2.91.72C6.21 15.81 10.29 9 16.95 7.32z"/></svg>