<svg xmlns="http://www.w3.org/2000/svg" width="48" height="48" viewBox="0 0 48 48"><path d="M24 2A22 22 0 0 0 2 24a22 22 0 0 0 22 22 22 22 0 0 0 22-22A22 22 0 0 0 24 2zm1.773 12c1.624 0 3.035.464 4.227 1l-.852 3.455c-.819-.748-2.011-1.113-3.591-1.113C23.98 17.342 21 18 20 21h9l-1 2h-8a40.795 40.795 0 0 0 0 2h8l-1 2h-7c1 3 3.92 3.656 5.467 3.656 1.855 0 3.435-.624 4.533-1.656v4c-1.254.562-2.816 1-4.49 1-2.816 0-5.702-1.237-7.51-3-1.24-1.197-1.598-2.21-2-4h-2l1-2h1a45.931 45.931 0 0 1 0-2h-2l1-2h1c.402-1.75 1.389-3.163 2.596-4.334C20.422 14.89 22.802 14 25.773 14z"/></svg>