<svg xmlns="http://www.w3.org/2000/svg" width="48" height="48" viewBox="0 0 48 48"><path d="M21.548 41H4.952V18h37.096v7H44V7h-5.858v1.8c0 2.26-2.394 4.2-4.88 4.2-2.488 0-4.892-1.937-4.892-4.2V7h-9.752v1.8c0 2.26-2.394 4.2-4.88 4.2-2.488 0-4.892-1.937-4.892-4.2V7H3v36h18.548v-2Z"/><path d="M11 8.334V3h6v5.334C17 9.8 15.84 11 14 11s-3-1.097-3-2.666ZM30 8.334V3h6v5.334C36 9.944 34.657 11 32.997 11 31.337 11 30 9.944 30 8.334ZM44 40v6H25V27h6v2h-4v15h15v-4z"/><path d="M44 27v8h-2.036L42 30.5 35.5 37 34 35.5l6.5-6.5H36v-2zM22 34h-5v5h5zM22 27h-5v5h5zM13 34H8v5h5zM13 27H8v5h5zM39 20h-5v5h5zM30 20h-5v5h5zM22 20h-5v5h5zM13 20H8v5h5z"/></svg>