<svg xmlns="http://www.w3.org/2000/svg" width="48" height="48" viewBox="0 0 48 48"><path fill-rule="evenodd" d="M28.65 12.39c-1.26-1.05-3.06-1.56-5.31-1.56-1.68 0-3.6.48-5.7 1.44l-.27.12.09.27.84 2.13.12.3.3-.15c1.8-.84 3.3-1.26 4.44-1.26q1.89 0 2.97.9c.72.6 1.05 1.44 1.05 2.58 0 .69-.18 1.35-.48 1.95-.33.6-.87 1.23-1.59 1.83l-2.31 2.04c-1.35 1.2-2.04 2.88-2.04 4.98v1.29h3v-1.26c0-.63.06-1.17.21-1.56.15-.42.33-.75.57-1.05s.93-.9 2.04-1.83c2.67-2.22 4.02-4.41 4.02-6.51s-.66-3.6-1.92-4.65zM22.53 32.37q-.9 0-1.53.63c-.42.42-.63.93-.63 1.56q0 .945.63 1.62c.42.45.93.69 1.53.69s1.14-.24 1.56-.69q.63-.675.63-1.62c0-.63-.21-1.14-.63-1.56s-.93-.63-1.56-.63"/><path fill-rule="evenodd" d="M6 3h36c1.65 0 3 1.35 3 3v36c0 1.65-1.35 3-3 3H6c-1.65 0-3-1.35-3-3V6c0-1.65 1.35-3 3-3m36 39V6H6v36z" clip-rule="evenodd"/></svg>