<svg xmlns="http://www.w3.org/2000/svg" viewBox="0 0 48 48"><path d="M0 0h48v48H0z" fill="none"/><path d="M20 31c0-3.46 1.24-4.41 1.8-5.55.56-1.14 1.92-2.31 3.61-3.7 1.72-1.39 2.76-2.34 3.07-2.75.53-.7.65-1.45.65-2.28 0-2.91-2.93-4.36-4.4-4.36s-5.87 0-6.34 5.38l-5.39-.7c.16-2.5 1.22-4.65 3.2-6.39 1.97-1.77 4.54-2.66 7.77-2.66s6.05.89 8.02 2.69C34 12.45 35 14.51 35 16.88c0 1.3-.38 2.53-1.1 3.7-.75 1.17-2.32 2.75-4.7 4.77-1.25 1.04-2.01 1.87-2.32 2.5-.28.63-.88 1.42-.88 3.14h-6Zm0 9v-6h6v6h-6Z" fill-rule="evenodd"/></svg>