<svg xmlns="http://www.w3.org/2000/svg" width="48" height="48" viewBox="0 0 48 48"><path fill-rule="evenodd" d="M33 11.7H15v2.1h18zM15 16.68h18v2.1H15z"/><path fill-rule="evenodd" d="M36 3H12c-1.65 0-3 1.35-3 3v36c0 1.65 1.35 3 3 3h13.77c.81 0 1.56-.33 2.13-.87L38.13 33.9c.57-.57.87-1.32.87-2.13V6c0-1.65-1.35-3-3-3M11.1 42V6c0-.51.39-.9.9-.9h24c.51 0 .9.39.9.9v25.14h-8.31c-1.98 0-3.6 1.62-3.6 3.63v8.13H12.03c-.51 0-.9-.39-.9-.9zm15.99-.06v-7.17c0-.84.66-1.53 1.5-1.53h7.2z" clip-rule="evenodd"/></svg>