<svg xmlns="http://www.w3.org/2000/svg" viewBox="0 0 48 48"><path fill-rule="evenodd" d="M45 24c0-11.6-9.4-21-21-21S3 12.4 3 24c0 11 8.4 20 19.2 20.9.6.1 1.2.1 1.8.1s1.2 0 1.8-.1C36.5 44 45 35 45 24M24.6 42h-1.2c-1.9-1.8-5.1-6.4-5.4-16.5h12c-.3 10.1-3.4 14.6-5.4 16.5m17.3-19.5H33c-.2-7.8-2-12.7-3.9-15.8 7 2.1 12.2 8.3 12.8 15.8M24.7 6c1.9 1.8 5 6.3 5.3 16.5H18c.3-10.1 3.4-14.6 5.3-16.5zm-5.8.8c-1.9 3.1-3.7 8-3.9 15.7H6.1C6.7 15 11.9 8.8 18.9 6.8M6.1 25.5H15c.2 7.8 2.1 12.8 4 15.8C12 39.2 6.7 33 6.1 25.5M29 41.3c1.9-3 3.8-8 4-15.8h8.9C41.3 33 36 39.2 29 41.3"/></svg>