<svg xmlns="http://www.w3.org/2000/svg" width="48" height="48" viewBox="0 0 48 48"><path d="M2 24c0 12.144 9.834 22 21.978 22C36.144 46 46 36.144 46 24S36.144 2 23.978 2C11.834 2 2 11.856 2 24Zm38-8h-7c-.704-2.75-1.982-6.19-3.302-8.632C33.746 8.754 40 16 40 16ZM24 6c1.826 2.64 4 7 4 10h-8c0-3 4-10 4-10ZM6.4 24c0-1.518.22-2.992.572-4.4h7.436c-.176 1.452-.308 2.904-.308 4.4 0 1.496.132 2.948.308 4.4H6.972C6.62 26.992 6.4 25.518 6.4 24ZM8 32h7c.704 2.75 1.982 6.19 3.302 8.632C14.254 39.246 8 32 8 32Zm7-16H8c2.112-3.652 6.254-7.246 10.302-8.632C16.982 9.81 15 16 15 16Zm9 26c-1.826-2.64-4-7-4-10h8c0 3-4 10-4 10Zm-5.148-13.6c-.198-1.452-.352-2.904-.352-4.4 0-1.496.154-2.97.352-4.4h10.296c.198 1.43.352 2.904.352 4.4 0 1.496-.154 2.948-.352 4.4H18.852ZM33 32h7c-2.112 3.63-6.254 7.246-10.302 8.632C31.018 38.19 32.296 34.75 33 32Zm.9-8c0-1.496-.132-2.948-.308-4.4h7.436c.352 1.408.572 2.882.572 4.4 0 1.518-.22 2.992-.572 4.4h-7.436c.176-1.452.308-2.904.308-4.4Z"/></svg>