<svg xmlns="http://www.w3.org/2000/svg" width="48" height="48" viewBox="0 0 48 48"><path fill-rule="evenodd" d="M4.543 32.97 3.013 9.66c-.09-1.2.3-2.34 1.08-3.27.78-.9 1.89-1.44 3.09-1.53L26.983 3l.27 3-19.83 1.86c-.87.06-1.5.78-1.44 1.59l1.56 23.34-3 .21z"/><path fill-rule="evenodd" d="M25.573 26.85c2.49 0 4.5-2.01 4.5-4.5s-2.01-4.5-4.5-4.5-4.5 2.01-4.5 4.5 2.01 4.5 4.5 4.5m0-6.45c1.08 0 1.95.87 1.95 1.95s-.87 1.95-1.95 1.95-1.95-.87-1.95-1.95.87-1.95 1.95-1.95" clip-rule="evenodd"/><path fill-rule="evenodd" d="M15.103 11.88h27c1.65 0 3 1.35 3 3v27c0 1.65-1.35 3-3 3h-27c-1.65 0-3-1.35-3-3v-27c0-1.65 1.35-3 3-3m0 30h27v-8.4l-6.06-6.54-8.58 8.25c-1.05 1.05-2.82 1.11-3.96.06L21.043 33l-5.94 6.45zm26.97-12.872.03.032h-.03zm-3.84-4.138 3.84 4.138V14.85h-27v20.22l3.93-4.17c1.11-1.17 2.88-1.2 4.05-.15l2.46 2.25 8.61-8.22c.51-.51 1.2-.84 2.04-.81.78.03 1.53.33 2.07.9" clip-rule="evenodd"/></svg>