<svg xmlns="http://www.w3.org/2000/svg" width="48" height="48" viewBox="0 0 48 48"><path fill-rule="evenodd" d="M21.038 25.5a3 3 0 1 1-6 0 3 3 0 0 1 6 0M27.038 28.5a3 3 0 1 0 0-6 3 3 0 0 0 0 6M39.038 25.5a3 3 0 1 1-6 0 3 3 0 0 1 6 0"/><path fill-rule="evenodd" d="M11.918 12h30.24c1.62 0 2.91 1.35 2.91 3v21c0 1.65-1.32 3-2.91 3h-30.21c-1.62 0-2.91-1.35-2.91-3v-3.87l-5.49-5.34c-.72-.75-.72-1.83-.06-2.52l5.58-5.4-.06-3.87c0-1.65 1.32-3 2.91-3m.12 24h30l.03.06v-21h-30.12l.09 3.87c0 .78-.3 1.5-.81 2.07l-4.68 4.53 4.62 4.47c.57.6.87 1.35.87 2.13z" clip-rule="evenodd"/></svg>