<svg xmlns="http://www.w3.org/2000/svg" width="48" height="48" viewBox="0 0 48 48"><path fill-rule="evenodd" d="m11.415 10.875.015.015v-.03zM11.415 10.875 9.3 8.76c-8.4 8.4-8.4 22.08 0 30.48l2.13-2.13c-7.225-7.225-7.23-19.004-.015-26.235M36.57 10.89l2.13-2.13v.03c8.4 8.4 8.4 22.08 0 30.48l-2.13-2.13c7.23-7.23 7.23-19.02 0-26.25"/><path fill-rule="evenodd" d="m33.75 14.85-2.13 2.13c3.87 3.87 3.87 10.2 0 14.1l2.13 2.13c5.04-5.04 5.04-13.26 0-18.33zM21.03 21.03a4.183 4.183 0 0 0 0 5.94c.78.78 1.86 1.23 2.97 1.23s2.19-.45 2.97-1.23a4.183 4.183 0 0 0 0-5.94c-1.59-1.59-4.35-1.59-5.94 0M14.22 14.85c-5.04 5.04-5.04 13.26 0 18.33l2.13-2.13c-3.87-3.87-3.87-10.2 0-14.1l-2.13-2.13z"/></svg>