<svg xmlns="http://www.w3.org/2000/svg" width="48" height="48" viewBox="0 0 48 48"><path d="M45.241 26.036a2.503 2.503 0 0 1-.02 3.61L29.258 45l-8.192-7.965a2.503 2.503 0 0 1 0-3.61 2.678 2.678 0 0 1 3.713 0l4.5 4.374 12.25-11.783a2.678 2.678 0 0 1 3.712.02ZM18.983 3C28.384 3 36 10.616 36 20c0 5.662-2.773 10.68-7.038 13.771-.324-2.612-2.689-4.658-5.598-4.766L23.12 29h-7.24l-.231.004c-3.062.108-5.523 2.361-5.644 5.165l-.005.217v.044C5.195 31.426 2 26.085 2 20 2 10.616 9.599 3 18.983 3Zm.517 11a6.5 6.5 0 1 0 0 13 6.5 6.5 0 0 0 0-13Z"/></svg>