<svg xmlns="http://www.w3.org/2000/svg" width="48" height="48" viewBox="0 0 48 48"><path fill-rule="evenodd" d="m6.013 9.66 1.56 23.31V33l3-.21-1.56-23.34c-.03-.39.09-.78.36-1.08.24-.3.6-.51 1.05-.51L30.253 6l-.27-3-19.8 1.86c-1.2.09-2.31.63-3.09 1.53-.78.93-1.17 2.07-1.08 3.27"/><path fill-rule="evenodd" d="M18.133 10.26h21c1.65 0 3 1.41 3 3.15v17.55c0 .84-.3 1.62-.87 2.22l-10.23 10.74c-.57.6-1.32.93-2.13.93h-10.77c-1.65 0-3-1.41-3-3.15V13.41c0-1.74 1.35-3.15 3-3.15m12 22.59v7.68l7.32-7.68zm-12 8.85c0 .12.06.15.06.15h8.91v-9c0-1.65 1.35-3 3-3h9V13.41c0-.09-.03-.15-.03-.15h-20.94c.03.03 0 .15 0 .15z" clip-rule="evenodd"/></svg>