<svg xmlns="http://www.w3.org/2000/svg" width="48" height="48" viewBox="0 0 48 48"><path fill-rule="evenodd" d="M40.5 28.5h-4.89l-8.16-9H30c.81 0 1.5-.66 1.5-1.5V9c0-.84-.69-1.5-1.5-1.5H18c-.84 0-1.5.66-1.5 1.5v9c0 .84.66 1.5 1.5 1.5h2.55l-8.16 9H7.5c-.84 0-1.5.66-1.5 1.5v9c0 .81.66 1.5 1.5 1.5h12c.84 0 1.5-.69 1.5-1.5v-9c0-.84-.66-1.5-1.5-1.5h-3.03L24 20.16l7.53 8.34H28.5c-.84 0-1.5.66-1.5 1.5v9c0 .84.66 1.5 1.5 1.5h12c.84 0 1.5-.66 1.5-1.5v-9c0-.84-.66-1.5-1.5-1.5m-21-12v-6h9v6zm-1.5 15v6H9v-6zm21 6h-9v-6h9z" clip-rule="evenodd"/></svg>