<svg xmlns="http://www.w3.org/2000/svg" width="48" height="48" viewBox="0 0 48 48"><path fill-rule="evenodd" d="M27.51 22.5H9.99v3h17.52zM24 28.5H9.99v3H24z"/><path fill-rule="evenodd" d="m38.52 3.78 5.88 8.85.03-.03c.39.57.6 1.26.6 1.95v26.97c0 1.95-1.59 3.51-3.51 3.51H6.51C4.56 45.03 3 43.44 3 41.52V14.58c0-.69.21-1.38.6-1.95l5.88-8.85c.33-.48.87-.78 1.47-.78h26.1c.6 0 1.14.3 1.47.78m2.88 9.72L36.39 6H25.5v7.5zM22.5 6H11.61L6.6 13.5h15.9zm18.99 36c.3 0 .51-.24.51-.51V16.5H6v24.99c0 .3.24.51.51.51z" clip-rule="evenodd"/></svg>