<svg xmlns="http://www.w3.org/2000/svg" width="48" height="48" viewBox="0 0 48 48"><g fill-rule="evenodd"><path d="M31.011 7.42a17.808 17.808 0 0 1 5.715 3.854 17.817 17.817 0 0 1 3.854 5.715A17.877 17.877 0 0 1 42 24c0 2.435-.48 4.793-1.42 7.013a17.86 17.86 0 0 1-3.854 5.715A17.945 17.945 0 0 1 24 42c-2.435 0-4.795-.479-7.013-1.418a17.84 17.84 0 0 1-5.715-3.854 17.933 17.933 0 0 1-3.854-5.715A17.886 17.886 0 0 1 6 24c0-2.434.479-4.793 1.418-7.011a17.817 17.817 0 0 1 3.854-5.715 17.932 17.932 0 0 1 5.715-3.854A17.85 17.85 0 0 1 24 6c2.434 0 4.793.479 7.011 1.42Zm1.558-3.684a21.764 21.764 0 0 1 6.985 4.71 21.772 21.772 0 0 1 4.71 6.985A21.85 21.85 0 0 1 46 24.001c0 2.976-.587 5.858-1.736 8.57a21.826 21.826 0 0 1-4.71 6.985 21.926 21.926 0 0 1-6.985 4.71A21.848 21.848 0 0 1 24 46c-2.977 0-5.86-.585-8.571-1.734a21.796 21.796 0 0 1-6.985-4.71 21.917 21.917 0 0 1-4.71-6.985A21.862 21.862 0 0 1 2 24.001c0-2.975.585-5.86 1.734-8.57a21.776 21.776 0 0 1 4.71-6.985 21.916 21.916 0 0 1 6.985-4.71A21.815 21.815 0 0 1 24 2c2.974 0 5.859.585 8.569 1.736Z"/><path d="M36.726 11.274a17.808 17.808 0 0 0-5.715-3.854A17.847 17.847 0 0 0 24.001 6a17.85 17.85 0 0 0-7.014 1.42c-2.133.902-4.06 2.2-5.715 3.854a17.817 17.817 0 0 0-3.854 5.715A17.877 17.877 0 0 0 6 24c0 2.435.479 4.793 1.418 7.013.902 2.133 2.2 4.06 3.854 5.715a17.84 17.84 0 0 0 5.715 3.854A17.878 17.878 0 0 0 24 42a17.945 17.945 0 0 0 12.726-5.272 17.86 17.86 0 0 0 3.854-5.715C41.52 28.793 42 26.435 42 24c0-2.434-.48-4.793-1.42-7.011a17.817 17.817 0 0 0-3.854-5.715Zm2.828-2.828a21.764 21.764 0 0 0-6.985-4.71A21.812 21.812 0 0 0 24 2c-2.977 0-5.86.585-8.571 1.736a21.916 21.916 0 0 0-6.985 4.71 21.776 21.776 0 0 0-4.71 6.985A21.85 21.85 0 0 0 2 24.001c0 2.976.585 5.858 1.734 8.57a21.917 21.917 0 0 0 4.71 6.985 21.796 21.796 0 0 0 6.985 4.71A21.852 21.852 0 0 0 24 46c2.974 0 5.859-.585 8.569-1.734a21.926 21.926 0 0 0 6.985-4.71 21.826 21.826 0 0 0 4.71-6.985A21.863 21.863 0 0 0 46 24.001a21.85 21.85 0 0 0-1.736-8.57 21.772 21.772 0 0 0-4.71-6.985Z"/><path d="M18 33V15l16 9z"/></g></svg>