<svg xmlns="http://www.w3.org/2000/svg" width="48" height="48" viewBox="0 0 48 48"><path d="M39.554 8.446a21.764 21.764 0 0 0-6.985-4.71A21.813 21.813 0 0 0 24 2c-2.977 0-5.86.585-8.571 1.736a21.917 21.917 0 0 0-6.985 4.71 21.776 21.776 0 0 0-4.71 6.985A21.85 21.85 0 0 0 2 24c0 2.977.585 5.859 1.734 8.571a21.917 21.917 0 0 0 4.71 6.985 21.8 21.8 0 0 0 6.985 4.71A21.852 21.852 0 0 0 24 46a21.85 21.85 0 0 0 8.569-1.734 21.929 21.929 0 0 0 6.985-4.71 21.824 21.824 0 0 0 4.71-6.985A21.862 21.862 0 0 0 46 24c0-2.974-.587-5.859-1.736-8.569a21.772 21.772 0 0 0-4.71-6.985ZM18 33V15l16 9-16 9Z"/></svg>