<svg xmlns="http://www.w3.org/2000/svg" width="48" height="48" viewBox="0 0 48 48"><path fill-rule="evenodd" d="M10.5 9.21V3h-3v6.21C4.92 9.87 3 12.21 3 15s1.92 5.13 4.5 5.79V45h3V20.79c2.58-.66 4.5-3 4.5-5.79s-1.92-5.13-4.5-5.79m0 8.37c-.45.27-.96.42-1.5.42s-1.05-.15-1.5-.42C6.6 17.07 6 16.11 6 15s.6-2.07 1.5-2.58c.45-.27.96-.42 1.5-.42s1.05.15 1.5.42c.9.51 1.5 1.47 1.5 2.58s-.6 2.07-1.5 2.58M40.5 27.21V3h-3v24.21c-2.58.66-4.5 3-4.5 5.79s1.92 5.13 4.5 5.79V45h3v-6.21c2.58-.66 4.5-3 4.5-5.79s-1.92-5.13-4.5-5.79m0 8.37c-.45.27-.96.42-1.5.42s-1.05-.15-1.5-.42c-.9-.51-1.5-1.47-1.5-2.58s.6-2.07 1.5-2.58c.45-.27.96-.42 1.5-.42s1.05.15 1.5.42c.9.51 1.5 1.47 1.5 2.58s-.6 2.07-1.5 2.58M25.5 3v15.21c2.58.66 4.5 3 4.5 5.79s-1.92 5.13-4.5 5.79V45h-3V29.79c-2.58-.66-4.5-3-4.5-5.79s1.92-5.13 4.5-5.79V3zM24 27c.54 0 1.05-.15 1.5-.42.9-.51 1.5-1.47 1.5-2.58s-.6-2.07-1.5-2.58c-.45-.27-.96-.42-1.5-.42s-1.05.15-1.5.42c-.9.51-1.5 1.47-1.5 2.58s.6 2.07 1.5 2.58c.45.27.96.42 1.5.42" clip-rule="evenodd"/></svg>