<svg xmlns="http://www.w3.org/2000/svg" width="48" height="48" viewBox="0 0 48 48"><path fill-rule="evenodd" d="M12.93 9c-1.32 0-2.64.09-3.9.3v5.28c1.26-.27 2.58-.39 3.9-.39 5.58 0 10.8 2.16 14.76 6.12 3.93 3.93 6.09 9.18 6.09 14.76 0 1.32-.12 2.64-.39 3.9h5.28c.21-1.26.3-2.58.3-3.9 0-14.4-11.67-26.1-26.07-26.1z"/><path fill-rule="evenodd" d="M12.93 20.25c-1.35 0-2.67.18-3.9.54v5.49a9.53 9.53 0 0 1 10.68 1.98c1.8 1.8 2.82 4.26 2.82 6.81 0 1.35-.3 2.7-.84 3.9h5.49c.39-1.23.54-2.58.54-3.93 0-8.19-6.66-14.82-14.82-14.82z"/><path fill-rule="evenodd" d="M12.93 31.17c2.16 0 3.9 1.74 3.9 3.9s-1.74 3.9-3.9 3.9c-1.08 0-2.07-.42-2.76-1.14s-1.14-1.68-1.14-2.76c0-2.16 1.74-3.9 3.9-3.9M.09 37.14H0v-.36s.03.24.09.36M11.22 48c-.12 0-.36-.09-.36-.09V48z"/></svg>