<svg xmlns="http://www.w3.org/2000/svg" width="48" height="48" viewBox="0 0 48 48"><path fill-rule="evenodd" d="M15.473 26.003c.33 1.74 1.2 3.36 2.46 4.62h.06c.81.84 1.8 1.53 2.91 1.98 1.08.45 2.25.69 3.45.69 1.17 0 2.34-.24 3.45-.69 1.08-.45 2.07-1.14 2.91-1.98 1.26-1.26 2.1-2.88 2.46-4.62.36-1.77.18-3.57-.51-5.22a9.16 9.16 0 0 0-3.33-4.05 8.96 8.96 0 0 0-5.01-1.53c-1.77 0-3.54.54-5.01 1.53-1.5.99-2.64 2.4-3.33 4.05a8.9 8.9 0 0 0-.51 5.22m11.16-7.38c.75.33 1.41.78 1.95 1.35.57.57 1.05 1.23 1.35 1.95.33.72.48 1.5.48 2.31 0 .78-.18 1.59-.48 2.31-.33.75-.78 1.41-1.35 1.95-.57.57-1.23 1.05-1.95 1.35-.72.33-1.5.48-2.31.48-.78 0-1.59-.18-2.31-.48-.75-.33-1.41-.78-1.95-1.35-.57-.57-1.05-1.23-1.35-1.95-.33-.72-.48-1.5-.48-2.31 0-.78.18-1.59.48-2.31.33-.75.78-1.41 1.35-1.95.57-.57 1.23-1.05 1.95-1.35.72-.33 1.53-.48 2.31-.48s1.59.18 2.31.48" clip-rule="evenodd"/><path fill-rule="evenodd" d="M35.213 36.773v.03l.18 3.84c.03.69-.15 1.38-.57 1.95-.42.54-1.02.96-1.68 1.14l-6.69 1.83c-.51.15-1.05.15-1.56 0s-.99-.42-1.35-.78c-.24-.21-.42-.48-.57-.78l-1.71-3.45c-.72-.15-1.47-.36-2.19-.6l-3.21 2.13c-.6.39-1.32.57-2.01.48-.69-.06-1.35-.39-1.83-.9l-5.01-5.01c-.51-.48-.81-1.14-.9-1.83-.09-.72.09-1.41.48-2.01l2.13-3.21c-.24-.72-.45-1.44-.6-2.19l-3.45-1.71c-.27-.15-.54-.33-.78-.57-.39-.39-.63-.84-.78-1.35a2.76 2.76 0 0 1 0-1.56l1.74-6.75c.18-.69.6-1.29 1.17-1.71s1.26-.63 1.98-.57l3.81.21 1.62-1.62-.18-3.84c-.03-.69.15-1.38.57-1.95.42-.54 1.02-.96 1.68-1.14l6.75-1.74a2.76 2.76 0 0 1 1.56 0c.51.15.99.42 1.35.78.27.21.48.48.63.75l1.62 3.45c.72.15 1.47.36 2.19.6l3.21-2.13c.6-.39 1.32-.57 2.01-.48.69.06 1.35.39 1.83.9l4.98 4.98c.51.48.81 1.14.9 1.83.09.72-.09 1.41-.48 2.01l-2.13 3.21c.24.72.45 1.44.6 2.19l3.45 1.71c.27.15.54.33.78.57.39.39.63.84.78 1.35s.15 1.05 0 1.56l-1.74 6.75c-.18.69-.57 1.29-1.14 1.71s-1.26.6-1.98.57l-3.84-.27zm-12 .9 2.4 4.89 6.75-1.74-.27-5.52c1.29-.9 2.43-2.04 3.33-3.33l5.46.33 1.74-6.75-4.86-2.46c-.15-1.56-.54-3.09-1.2-4.53l3.03-4.53-5.01-5.01-4.56 3.06a13.3 13.3 0 0 0-4.56-1.2l-2.4-4.89-6.75 1.74.27 5.52c-1.29.9-2.43 2.04-3.33 3.33l-5.46-.33-1.74 6.75 4.86 2.46c.15 1.56.54 3.09 1.2 4.53l-3.03 4.53 5.01 5.01 4.56-3.06c1.44.66 2.97 1.08 4.56 1.2" clip-rule="evenodd"/></svg>