<svg xmlns="http://www.w3.org/2000/svg" width="48" height="48" viewBox="0 0 48 48"><path fill-rule="evenodd" d="M34.5 30c-2.34 0-4.41 1.11-5.79 2.79L17.67 26.1c.21-.66.33-1.38.33-2.1s-.12-1.38-.3-2.01l11.07-6.69c1.38 1.65 3.42 2.7 5.73 2.7 4.14 0 7.5-3.36 7.5-7.5S38.64 3 34.5 3 27 6.36 27 10.5c0 .75.15 1.47.36 2.16l-11.04 6.69c-1.38-1.71-3.45-2.82-5.82-2.82-4.14 0-7.5 3.36-7.5 7.5s3.36 7.5 7.5 7.5c2.34 0 4.38-1.08 5.76-2.73l11.07 6.69c-.18.66-.33 1.32-.33 2.04 0 4.14 3.36 7.5 7.5 7.5s7.5-3.36 7.5-7.5-3.36-7.5-7.5-7.5zm0-24c2.49 0 4.5 2.01 4.5 4.5S36.99 15 34.5 15 30 12.99 30 10.5 32.01 6 34.5 6m-24 22.5C8.01 28.5 6 26.49 6 24s2.01-4.5 4.5-4.5S15 21.51 15 24s-2.01 4.5-4.5 4.5m24 13.5c-2.49 0-4.5-2.01-4.5-4.5s2.01-4.5 4.5-4.5 4.5 2.01 4.5 4.5-2.01 4.5-4.5 4.5" clip-rule="evenodd"/></svg>