<svg xmlns="http://www.w3.org/2000/svg" width="48" height="48" viewBox="0 0 48 48"><path fill-rule="evenodd" d="M25.5 6h-3v9h3zM25.5 33h-3v9h3zM13.7 9.143l2.599-1.5 4.499 7.796-2.599 1.499zM29.818 31.063l-2.598 1.5 4.498 7.794 2.599-1.5zM7.652 16.312l1.5-2.598 7.795 4.5-1.5 2.598zM32.543 27.199l-1.5 2.598 7.794 4.5 1.5-2.598zM6 22.5h9v3H6zM42 22.5h-9v3h9zM7.64 31.691l7.795-4.5 1.5 2.598-7.794 4.5zM38.847 13.685l-7.792 4.503 1.5 2.597 7.793-4.503zM13.704 38.842l4.498-7.795 2.599 1.5-4.499 7.795z"/></svg>