<svg xmlns="http://www.w3.org/2000/svg" width="48" height="48" viewBox="0 0 48 48"><path d="m29.133 36.281 2.495 8.497-4.109 1.207-2.495-8.497 4.11-1.207Zm-11.266 0 4.109 1.207-2.495 8.497-4.11-1.207 2.496-8.497Zm16.635-5.061 6.693 5.799-2.805 3.237-6.692-5.8 2.804-3.236Zm-22.004 0 2.804 3.236-6.692 5.8-2.805-3.237 6.693-5.8Zm23.88-7.31 8.766 1.26-.61 4.24-8.765-1.26.61-4.24Zm-25.756 0 .61 4.24-8.766 1.26-.61-4.24 8.766-1.26ZM42.22 12.994 44 16.89l-8.056 3.679-1.779-3.896 8.056-3.679Zm-37.442 0 8.056 3.68-1.78 3.895L3 16.89l1.78-3.896Zm28.575-8.637 3.603 2.315-4.788 7.45-3.603-2.315 4.788-7.45Zm-19.708 0 4.788 7.45-3.603 2.315-4.788-7.45 3.603-2.315ZM25 2v9h-4V2h4Z"/></svg>