<svg xmlns="http://www.w3.org/2000/svg" width="48" height="48" viewBox="0 0 48 48"><path fill-rule="evenodd" d="M27.21 45.09h.016-.03zM15.016 15.03a3.75 3.75 0 0 1 5.31 0h-.03a3.75 3.75 0 0 1 0 5.31c-.72.75-1.68 1.11-2.64 1.11s-1.92-.39-2.64-1.11a3.75 3.75 0 0 1 0-5.31"/><path fill-rule="evenodd" d="M25.216 44.28c.536.537 1.25.807 1.994.81a3.05 3.05 0 0 0 2.146-.9l14.85-14.85c.57-.57.9-1.38.9-2.16 0-.75-.3-1.47-.84-2.01L22.906 3.81c-1.14-1.11-3-1.08-4.17.09l-2.7 2.76-7.77-.12c-.93.03-1.71.81-1.74 1.83l.09 7.65-2.73 2.73c-1.14 1.17-1.2 3.03-.06 4.17zM9.676 15.99l-.12-6.45 6.54.12c.78-.03 1.5-.36 2.04-.9l2.67-2.82 21.3 21.27-14.85 14.85-21.21-21.21 2.73-2.73c.54-.57.9-1.29.9-2.13" clip-rule="evenodd"/></svg>