<svg xmlns="http://www.w3.org/2000/svg" xml:space="preserve" width="40" height="40" baseProfile="tiny" overflow="visible" version="1.2" viewBox="0 0 40 40"><path fill="red" fill-rule="evenodd" d="M1 13.9h38V.9H1v13z"/><path fill="#FFFFFE" fill-rule="evenodd" d="M1 26.3h38V13.9H1v12.4z"/><path fill="#171796" fill-rule="evenodd" d="M1 38.9h38v-13H1v13z"/><path fill="red" d="M20 30c4.1 0 7.4-3.4 7.4-7.4v-8.8H12.6v8.8c0 4.1 3.3 7.4 7.4 7.4z"/><path fill="#FFF" d="M20 29.9c4 0 7.3-3.3 7.3-7.3v-8.7H12.7v8.7c0 4 3.3 7.3 7.3 7.3z"/><path fill="red" d="M15.8 14.2H13v3.1h2.8v-3.1zM15.8 20.3h2.8v-3.1h-2.8v3.1zM13 22.6v.8h2.8v-3.1H13v2.3zM21.4 20.3h-2.8v3.1h2.8v-3.1zM21.4 26.5h2.8v-3.1h-2.8v3.1zM24.2 28.2c.6-.5 1.2-1 1.6-1.7h-1.6v1.7z"/><path fill="red" d="M15.8 26.5h2.8v-3.1h-2.8v3.1zM14.2 26.5c.4.6 1 1.2 1.6 1.7v-1.7h-1.6zM20.5 29.6c.3 0 .6-.1.9-.1v-3h-2.8v3c.3.1.6.1.9.1h1zM27 23.4V20.3h-2.8v3.1H27zM21.4 20.3h2.8v-3.1h-2.8v3.1zM21.4 14.2h-2.8v3.1h2.8v-3.1zM27 17.3v-3.1h-2.8v3.1H27z"/><path fill="#FFF" d="m27.2 13.7 1.7-4-1.3-2.1-2.2.8-1.5-1.8-2 1.2L20 6.3l-1.8 1.5-2-1.2-1.5 1.8-2.2-.8-1.3 2.1 1.7 4c2.2-1 4.6-1.5 7.2-1.5 2.5-.1 4.9.5 7.1 1.5z"/><path fill="#0093DD" d="m14.7 8.6-2.2-.8-1.2 2 .5 1.1 1.2 2.7c.9-.4 1.8-.7 2.8-1l-1.1-4z"/><path fill="#FFF" stroke="#000" stroke-miterlimit="10" stroke-width=".022" d="M14.5 10.5c.1.1.1.3.1.5 0 .6-.5 1.1-1.1 1.1-.5 0-1-.4-1-.9.2.3.5.5.9.5.6 0 1.1-.5 1.1-1.1v-.1z"/><path fill="#F7DB17" d="m13.1 9.6.3.2.3-.1-.6-.1z"/><path fill="#F7DB17" d="m13.1 9.6.6.1-.3-.2-.3.1zM12.4 9.4l.6.1-.3-.2-.3.1z"/><path fill="#F7DB17" d="m13.1 9.6-.6-.1.3.2.3-.1zM13.1 9.5l.4-.5-.3.1-.1.4z"/><path fill="#F7DB17" d="m12.7 10 .4-.5-.3.1-.1.4zM13.1 9.6l-.4.5.3-.2.1-.3zM13.5 9.1l-.4.5.3-.1.1-.4zM13.1 9.5l-.2-.6-.1.4.3.2zM13.3 10.2l-.2-.6-.1.3.3.3z"/><path fill="#F7DB17" d="m13.1 9.6.2.6.1-.4-.3-.2zM12.9 8.9l.2.6.1-.4-.3-.2z"/><path fill="#171796" d="m18.2 8-2-1.2-1.5 1.7 1 4c.9-.2 1.9-.4 2.9-.5l-.4-4z"/><path fill="red" d="M15.4 11.5c1-.3 2-.4 3-.5l-.1-1c-1.1.1-2.2.3-3.2.5l.3 1zM14.9 9.5c1.1-.2 2.2-.4 3.4-.5l-.1-1c-1.2.1-2.4.3-3.5.6l.2.9z"/><path fill="#0093DD" d="M21.8 8 20 6.5 18.2 8l.3 4.1c.5 0 1-.1 1.5-.1s1 0 1.5.1l.3-4.1z"/><path d="M20 9.8c0 .1-.1.1-.1.1v.1s-.1 0-.1.1c0-.1-.1-.1-.2-.1 0 0 0-.1-.1-.1h-.1c.1.1.1.2.2.2v.1h-.2c0 .1 0 .2.1.3h-.1c0 .1.1.1.2.1l-.1.1v.1h.2v.2h.1v.2h.2v.1l.1-.1v.1l.1-.1s.1 0 .1.1v-.1h.2V11h.1v-.2h.2v-.1s0-.1-.1-.1c.1 0 .1-.1.2-.1h-.1c.1-.1.1-.2.1-.3h-.2v-.1c.1-.1.1-.2.1-.2h-.1s-.1 0-.1.1c-.1 0-.1 0-.2.1 0 0 0-.1-.1-.1v-.1c-.2 0-.3-.1-.3-.1z"/><path fill="#F7DB17" d="M20.5 10.1c0-.1 0 0 0 0-.1 0-.1 0 0 0zM19.5 10.1c0-.1.1 0 0 0 .1 0 .1 0 0 0zM20.4 10.2zM19.6 10.2zM20.4 10.2h-.8.8z"/><path fill="#F7DB17" d="M19.6 10.2h.8v-.1l.1-.1h-.1c-.1 0-.1 0-.1.1-.1 0-.1 0-.1.1 0 0 0-.1 0 0l-.1-.1-.1.1c0-.1-.1-.1-.1-.1s0-.1-.1-.1h-.1l-.1.2-.1-.2s.1 0 .1.2c0-.1 0-.1 0 0 0-.1 0-.1 0 0zM20.4 10.3c0 .1 0 .1 0 0-.1.1-.1.1 0 0-.1.1-.1.1 0 0-.1.1 0 .1 0 0 0 0-.1 0 0 0H19.4v.1-.1.1l.1.1h-.1v-.1c0 .1 0 .2.1.2v.1h-.2.1-.1c0 .1.1.1.2.1h.1-.1s-.1 0-.1.1h.2-.2v.1h.2v.1-.1l.1-.1h-.1v.1l.1-.1h.1-.1l-.1.1h.1v.1-.1h.2v.2-.2V11.3v-.2.2s.1 0 .1-.1v-.1.2-.2h.2v.1-.2h.1s0-.1-.1-.1h-.1.1l.1.1v-.1h-.1l.1.1v.1-.1h.2v-.1h-.2.2c0-.1 0-.1-.1-.1.1 0 .1-.1.2-.1h-.1.1-.2v-.1c.1-.1.1-.1.1-.2v.1h-.1c.1-.1.1-.1 0-.2.1.1.1.1 0 0 .1 0 .1 0 0 0h.1c0 .1 0 .1-.1 0l.1.1v-.1h-.1c.1 0 0 0 0 0zM20.4 10.3h-.8.8z"/><path fill="#F7DB17" fill-rule="evenodd" d="M19.6 10.3h.8-.4c-.1-.1-.3-.1-.4 0 0-.1 0-.1 0 0 0-.1 0-.1 0 0 0-.1 0 0 0 0zm.6-.1zm0 0zm-.2 0zm0 0zm-.2 0zm0 0z"/><path d="M20 10.1c0-.1 0-.1 0 0 0-.1 0-.1 0 0-.1-.1-.1-.1 0 0 0-.1 0-.1 0 0V10v.1c0-.1.1-.1 0 0 .1-.1.1-.1 0 0 .1-.1 0-.1 0 0 0-.1 0-.1 0 0zm0-.1zM20.2 11h-.1.1zm0-.1-.1.1.1-.1zm-.4 0 .1.1-.1-.1zm0 .1h.1-.1zm.1.1h.1V11h-.1v-.1.1h.2-.1.1-.1c0 .1 0 .1-.1.1zm0 0c.1 0 .1 0 0 0 .1 0 .1 0 0 0zM20.1 10.5l.1-.1c0 .1 0 .1-.1.1zm-.2 0c-.1-.1-.1-.1-.2-.1.1 0 .1 0 .2.1.1 0 .1 0 0 0 .1 0 0 0 0 0zm0 .2s.1 0 0 0c.1-.1.1-.1 0 0 .1 0 .1 0 0 0 .1 0 .1 0 0 0zm.1-.3c0 .1 0 .1 0 0v.2h.2c-.2-.1-.2-.1-.2-.2 0 .1 0 .1 0 0zm-.1.2c-.1 0-.1-.1-.1-.1 0 .1 0 .1.1.1-.1 0 0 0 0 0zm.2-.2c-.1 0-.1 0 0 0-.1.1-.1.1 0 0v.1h.2v-.1c-.3.1-.3.1-.2 0-.1.1-.1.1 0 0-.1 0-.1 0 0 0-.1 0-.1 0 0 0zm.1.1c-.1 0-.1 0-.1.1v.1c0-.1 0-.1.1-.2 0 .1 0 .1 0 0 0 .1 0 .1 0 0 0 .1 0 .1 0 0 0 .1 0 0 0 0z"/><path fill-rule="evenodd" d="M20.2 10.6c-.1 0-.1 0 0 0-.1 0-.1 0 0 0zm0 0s-.1 0 0 0c-.1 0 0 0 0 0zm0 0zm-.4 0c.1 0 .1 0 0 0 .1 0 .1 0 0 0zm0 0c.1 0 .1 0 0 0 .1 0 .1 0 0 0zm0 0c.1 0 .1 0 0 0 .1 0 .1 0 0 0z"/><path d="M19.2 8c0 .1-.1.1-.1.1v.1s-.1 0-.1.1c0-.1-.1-.1-.2-.1 0 0 0-.1-.1-.1h-.1c.1.1.1.2.2.2v.1h-.2c0 .1 0 .2.1.3h-.1c0 .1.1.1.2.1l-.1.1V9h.2v.2h.1v.2h.2v.1l.1-.1v.1l.1-.1s.1 0 .1.1v-.1h.2v-.2h.1V9h.2v-.1s0-.1-.1-.1c.1 0 .1-.1.1-.2h-.1c.1-.1.1-.2.1-.3h-.2v-.1c0-.1.1-.2.1-.3h-.1s-.1 0-.1.1c-.1 0-.1 0-.2.1 0 0 0-.1-.1-.1v-.1c-.1.1-.2.1-.2.1zM20.8 8s-.1 0-.1.1v.1s-.1 0-.1.1c0-.1-.1-.1-.2-.1 0 0 0-.1-.1-.1h-.1c0 .1.1.2.1.3v.1h-.2c0 .1 0 .2.1.3h-.1c0 .1.1.1.1.2l-.1.1v.1h.2v.2h.1v.2h.2v.1l.1-.1v.1l.1-.1s.1 0 .1.1v-.1h.2v-.2h.1v-.2h.2v-.1s0-.1-.1-.1c.1 0 .1-.1.2-.1h-.1c.1-.1.1-.2.1-.3h-.2v-.1c.1-.1.1-.2.2-.2h-.1s-.1 0-.1.1c-.1 0-.1 0-.2.1 0 0 0-.1-.1-.1v-.1c-.1-.2-.1-.3-.2-.3z"/><path fill="#171796" d="m25.4 8.6-1.5-1.7-2 1.2-.4 3.9c1 .1 1.9.2 2.9.5l1-3.9z"/><path d="M22.2 8.8H22.5s.1 0 .1-.1l.1-.1c.1 0 .1-.1.2-.1h.2c.1 0 .1 0 .2.1.1 0 .1.1.2.1s.1.1.2.1H24s.1 0 0 0c-.3.2-.5 0-.6 0 .1 0 .1.1.2.1.1.1.1.1.3.2.1 0 .2.1.3.1h.1c-.1 0-.1.1-.2.1s-.3 0-.4-.1c-.1-.1-.2-.1-.3-.2h-.5H23.2v.1l-.1.1c-.1.1-.1 0-.1 0V9.5l.1.1s.1 0 .1.1h.2c.1 0 .1 0 .2.1h.4s.1 0 .1.1h.5s.1 0 .1.1l-.1.1v.1c0 .1 0 .1-.1.1h-.2c0 .1 0 .1-.1.1v.1s.1.1 0 .1V10.9l-.1.1c0 .1-.1.1-.1.2 0 0 0 .1-.1.1v.1l-.1.1h-.2v-.1s-.1 0-.1-.1h.1c0-.1 0-.1.1-.1l.1-.1s0-.1.1-.1v-.1h-.2l-.1.1h-.1c-.1 0-.1.1-.2.1V11.4h-.2v-.1l.1-.1h.1s0-.1.1-.1V11c-.1.1-.1 0-.1 0H23v.2s0 .1-.1.1V11.6h-.2.1s0-.1.1-.1c0 0 0-.1.1-.1V11c0 .1 0 .1-.1.1V11.4h-.2s-.1 0-.1-.1c-.1 0-.1-.1 0-.1s.1-.1.1-.1c0-.1 0-.1.1-.1V10.7c-.1 0 0 0 0-.1v-.2c-.1 0-.1 0 0-.1l.1-.1v-.1s0-.1.1-.1v-.1c-.1 0-.1 0 0-.1v-.1h-.2v-.1c-.1 0-.1-.1 0-.1v-.1c0-.1.1-.1.1-.1h-.1v-.1c-.6-.3-.6-.3-.6-.4z"/><path fill="#F7DB17" d="M23.5 10.7s0 .1 0 0c0 0-.1.1 0 0l-.1.1c-.1 0-.1.1-.1.1v.2h-.1.1c0 .1-.1 0-.2 0h.1l.1-.1.1-.1c0-.1 0-.1.1-.1V10.5v.1h.1l.1-.1v.2-.1h.1c-.3 0-.3 0-.3.1z"/><path fill="#F7DB17" d="M22.3 10s0-.1 0 0l.1-.1-.1.1c.1 0 0 0 0 0 .1.1.1.1 0 0 .1 0 .1 0 0 0h.1-.1c.1 0 .1 0 0 0 .1.1.1.1 0 0 0 .1 0 .1.1.1v.5c-.1 0 0 .1 0 .1 0 .1-.1.1-.2.1 0 0 .1 0 0 0h.2v-.1s0-.1.1-.1v-.1s0-.1.1-.1h.1V10 10.7s0 .1-.1.1l-.1.1h-.1v.1h.2V10.7s0-.1.1-.1v-.1h.2v-.2.2l.1-.1.1-.1-.1.1-.1.1s0-.1.1-.1h.1v-.1.1H23s0 .1-.1.1v.1h.1l.1-.1v.1h.1v.2h.1c0 .1-.1.2-.2.2 0 0-.1 0-.1.1h-.1.1v.1h.2s.1 0 .1-.1c-.1 0 0 0 0 0s.1 0 .1-.1.1-.1.1-.2l.1-.1v-.4l-.1-.1h.1v-.1h.1V10h.1v-.1h.1-.4v.1-.2h-.2s0 .1.1.1v.1-.1s0-.1-.1-.1v.1h-.1v.2-.2.2-.2l-.1-.1v.1-.1H23v.1-.2h-.1v.2V9.6s0-.1-.1-.1v.2V9.4h-.2.4-.2.2-.5H22.8v-.1l-.1-.1h-.2v.1-.1H22.2h.1v.1h-.1.4-.1s-.1 0-.1.1l-.1.1h-.1v.1l-.1.1v.1h.1c.1-.1.1 0 0 0l-.1.1v.1h.1V9.7 10s.1 0 .1-.1c0 0 0-.1.1-.1v.1-.1l-.1.1h.1-.1l-.1.1h.1-.1c.2-.1.2-.1.1 0 0-.1 0 0 0 0zM22.3 9c0-.1 0-.1 0 0l-.1-.1c.1 0 .1 0 .1.1 0-.1 0-.1 0 0 0-.1 0-.1 0 0 0-.1 0-.1 0 0 0-.1 0-.1 0 0 0-.1 0-.1-.1-.1H22.5s-.1 0-.2.1c.1-.1.1-.1 0 0 0-.1 0 0 0 0z"/><path d="M23.6 10.7c-.1 0 0 0 0 0zM23.7 11s0 .1 0 0c0 .1 0 .1 0 0 0 .1 0 .1 0 0 0 .1 0 .1 0 0 0 .1 0 .1 0 0 0 .1 0 0 0 0zM23.8 10.9zM23.8 10.9s0 .1 0 0c-.1.1-.1.1 0 0-.1.1-.1.1 0 0-.1 0 0 0 0 0zM23.9 10.8zM24 10.8c-.1.1-.1.1 0 0-.1.1-.1.1 0 0-.1 0-.1 0 0 0zM23.9 10.3v.1c.1 0 .1 0 0-.1.1.1.1.1 0 0 .1.1.1 0 0 0 .1 0 .1 0 0 0 .1 0 .1 0 0 0 .1 0 .1 0 0 0 .1 0 .1 0 0 0 .1 0 .1.1 0 0v.2c.1-.1.1-.1 0-.2zM23.9 10.4zM23.9 10.5v.1-.1c0 .1 0 .1 0 0 0 .1 0 .1 0 0v.1-.1c-.1 0-.1 0 0 0zM23.9 10.5s0 .1 0 0c0 .1 0 .1 0 0 0 .1 0 .1 0 0 0 .1 0 .1 0 0 0 .1 0 .1 0 0 0 .1 0 0 0 0zM24 10.5c0 .1 0 .1 0 0v.1-.1c0 .1 0 .1 0 0zM24.1 10.4s-.1 0 0 0c-.1 0-.1 0 0 0-.1 0-.1 0 0 0-.1 0-.1 0 0 0-.1 0-.1 0 0 0-.1 0-.1 0 0 0-.1 0-.1 0 0 0zM24 10.2zM24 10c0 .1 0 .1 0 0v.1-.1c0 .1 0 .1 0 0zM23.9 10c.1 0 .1.1.1.1v.1s0 .1-.1.1v-.2.2s.1 0 .1-.1v-.1s-.1 0-.1-.1zM24.3 9.9zM24.2 9.9zM24 9.9c.1 0 .1.1 0 0 .1.1.1.1 0 0 .1.1.1.1 0 0 .1.1.1.1 0 0 .1.1.1.1 0 0 .1.1.1 0 0 0zM23.6 10zM23.7 9.9c0 .1 0 .1 0 0 0 .1 0 .1 0 0 0 0-.1 0 0 0-.1 0-.1 0 0 0zM23.8 10.1c0-.1 0 0 0 0zM23.9 9.9zM23.5 9.9s0 .1 0 0c0 .1 0 .1 0 0 0 .1 0 .1 0 0v.1-.1c0 .1 0 .1 0 0 0 .1 0 .1 0 0 0 .1 0 0 0 0zM23.6 10.1c.1 0 .1 0 0 0v.2l.1.1v-.1c0-.1 0-.1-.1-.2.1.1.1.1.1 0v.2s-.1 0-.1-.1v-.1c.1 0 .1 0 0 0zM23.6 10.2v.1c-.1 0-.1 0 0-.1 0 .1 0 .1 0 0 0 .1 0 .1 0 0v.1-.1c0 .1 0 .1 0 0v.1c-.1 0-.1-.1 0-.1zM23.5 10.2zM23.4 10.1v.2h-.1v-.2c.1.1.1.1.1 0s0-.1 0 0zM23.6 10.3c0 .1 0 .1 0 0v.2-.2c-.1.1-.1.1 0 0-.1.1-.1.1 0 0v.2-.2c0 .1 0 .1 0 0 0 .1 0 0 0 0zM23.7 10.3c0 .1 0 .1 0 0 0 .1 0 .1 0 0 0 .1 0 0 0 0zM23.8 10.4v.1c-.1-.1-.1-.1 0-.1zM23.8 10.7zM23.8 10.6c-.1 0-.1 0 0 0-.1 0 0 0 0 0zM23.7 10.6zM23.6 10.5c0 .1 0 .1 0 0 0 .1 0 .1 0 0 0 .1 0 .1 0 0 0 .1 0 .1 0 0zM23.5 10.7c-.1 0-.1 0 0 0-.1 0-.1 0 0 0-.1 0-.1 0 0 0-.1 0 0 0 0 0zM23.1 11c0 .1 0 .1 0 0 0 .1 0 .1 0 0 0 .1 0 .1 0 0 0 .1 0 .1 0 0 0 .1 0 .1 0 0zM23.1 11zM23.2 11zM23.3 10.7zM23.4 9.8s0 .1 0 0c0 .1 0 .1 0 0 0 .1 0 .1 0 0 0 .1 0 .1 0 0 0 .1 0 .1 0 0zM23.3 9.8s.1 0 0 0c.1 0 .1 0 0 0 .1 0 .1 0 0 0zM23.2 9.9s0-.1 0 0c0-.1 0-.1 0 0 0-.1 0-.1 0 0 0-.1 0-.1 0 0zM23.4 10.1c-.1 0-.1 0 0 0-.1 0-.1 0 0 0z"/><path d="M23.2 9.9c0 .1 0 .1 0 0l.1.1-.1-.1c.1.1.1.1 0 0h.1v.2-.2c0 .1 0 .1-.1 0l.1.1c-.1.1-.1.1-.1-.1 0 .1 0 .1 0 0 0 .1 0 .1 0 0zM23.3 10.3s0 .1 0 0c0 .1 0 .1 0 0 0 .1 0 .1 0 0 0 .1 0 .1 0 0 0 .1 0 .1 0 0 0 .1 0 0 0 0zM23.1 10.4zM23.3 10.2c-.1.1-.1.1 0 0l-.1.1v.1-.1l.1-.1c-.1.1-.1.1 0 0zM23.2 10.2l-.1.1c.1 0 .1 0 .1-.1s0-.1 0 0c0-.1 0-.1 0 0zM23 10.2c0 .1 0 .1 0 0 0 .1 0 .1-.1.1.1.1.1 0 .1-.1 0 .1 0 .1 0 0zM22.8 10.4zM22.7 10.4v.1c.1 0 .1 0 0-.1.1.1.1.1 0 0 .1.1.1.1 0 0l.1.1c-.1 0-.1 0-.1-.1zM22.7 10.7c0-.1 0-.1 0 0zM22.7 10.8zM22.6 11s0-.1 0 0c.1-.1.1-.1 0 0 .1-.1.1-.1 0 0 .1-.1.1-.1 0 0 .1-.1.1-.1 0 0zM22.5 10.4c0 .1 0 .1 0 0 0 .1 0 .1 0 0zM22.4 10.8zM22.8 10.2v.2-.2c-.1 0 0 0 0 0zM22.7 10.1V10.4 10.1zM22.6 10.3c0 .1 0 .1 0 0 0 .1 0 .1 0 0 0 .1 0 .1 0 0 0 .1 0 .1 0 0-.1 0-.1 0 0 0zM22.5 10.3c0 .1 0 .1 0 0 0 .1 0 .1 0 0 0 .1 0 .1 0 0 0 .1 0 .1 0 0zM22.9 9.6v.1c.1 0 0 0 0-.1zM22.9 9.7v.1-.1zM22.6 9.7v.4-.2c0-.1-.1-.1 0-.2zM22.9 9.6c0 .1-.1.1-.1.1v.1-.1c0-.1 0-.1.1-.1-.1 0 0 0 0 0s0-.1 0 0c0-.1 0-.1 0 0z"/><path d="M22.6 9.6v.2-.1c-.1 0-.1 0 0-.1 0 .1 0 0 0 0zM22.7 9.6s.1 0 0 0c.1 0 .1 0 0 0z"/><path d="M22.7 9.5s0 .1 0 0c0 .1 0 .1 0 0 0 .1 0 .1 0 0v.2-.2c-.1.1-.1.2-.1.2v.1-.1l.1-.2c0 .1 0 .1 0 0 0 .1 0 0 0 0z"/><path d="M22.7 9.5c0 .1 0 .1 0 0v.1c-.1 0-.1 0 0-.1 0 .1 0 0 0 0zM23.1 10s.1 0 0 0c.1 0 .1 0 0 0 .1 0 .1 0 0 0 .1 0 .1 0 0 0 .1 0 .1 0 0 0zM23.1 10.1s.1 0 0 0v.1-.1z"/><path d="M23.1 10c.1.1.1.2.1.2-.1-.1-.1-.1-.1-.2-.1 0-.1 0 0 0-.1 0 0 0 0 0zM23 10.1c0 .1 0 .1 0 0 0 .1-.1.1-.1.1V10v.2c.1 0 .1 0 .1-.1 0 .1 0 .1 0 0zM22.8 10.1v.1-.1zM22.7 10.1c0 .1 0 .1 0 0-.1.1-.1.1 0 0-.1 0-.1 0 0 0zM22.7 10c0 .1 0 .1 0 0 0 .1 0 .1 0 0 0 .1 0 .1 0 0 0 .1 0 .1 0 0zM22.6 10.3V10 10.3c0-.1 0-.1 0 0zM22.5 10.2zM22.9 9.9s0 .1 0 0v.1-.1c0 .1 0 0 0 0zM23 9.8s0 .1 0 0v.1-.1c0 .1-.1.1 0 0-.1.1-.1.1 0 0-.1 0-.1 0 0 0-.1.1 0 .1 0 0v.1-.1c0 .1 0 0 0 0zM23 9.7c.1 0 .1.1 0 0v.1c.1 0 .1 0 0-.1.1.1 0 0 0 0zM22.9 9.7s-.1 0 0 0c-.1.1-.1.1 0 0-.1.1-.1.1 0 0-.1.1-.1.1 0 0-.1.1-.1.1 0 0-.1 0-.1 0 0 0zM22.5 9.9c0 .1 0 .1 0 0 0 .1-.1.1-.1.1 0 .1.1 0 .1-.1 0 .1 0 .1 0 0zM22.5 9.8s0 .1 0 0c0 .1 0 .1 0 0 0 .1 0 .1 0 0 0 .1 0 .1 0 0 0 .1 0 .1 0 0 0 .1 0 0 0 0zM22.7 9.8s0 .1 0 0c0 .1 0 .1 0 0 0 .1 0 .1 0 0 0 .1 0 .1 0 0zM22.8 9.7V10 9.7zM22.4 9.1c.1-.1.1-.1 0 0h.2-.2c.1 0 .1 0 0 0 .1 0 .1 0 0 0 .1 0 .1 0 0 0h.2c0-.1-.1-.1-.2 0 .1-.1.1-.1 0 0zM22.5 9c0 .1 0 .1 0 0 0 .1 0 .1 0 0zM22.7 9.2s0-.1 0 0c0-.1 0-.1 0 0 0-.1 0-.1 0 0 0-.1 0-.1 0 0 0-.1 0-.1 0 0zM23 9c0 .1 0 .1 0 0 0 .1 0 .1 0 0 0 .1 0 .1 0 0 0 .1 0 .1 0 0 0 .1 0 .1 0 0zM22.8 9.1c0-.1 0-.1 0 0 0-.1 0-.1 0 0 .1-.1.1-.1 0 0 .1-.1.1-.1 0 0 0-.1 0-.1 0 0 0-.1 0-.1 0 0zM22.8 9.1s0-.1 0 0c0-.1 0-.1 0 0zM22.5 9.2zM22.6 9.2zM22.6 9.1c-.1 0-.1 0 0 0zM22.6 9zM22.5 9zM22.5 9c-.1 0-.1 0 0 0-.1 0-.1 0 0 0-.1 0-.1 0 0 0zM22.4 9s0 .1 0 0c0 .1 0 .1 0 0 0 .1 0 .1 0 0zM22.4 9.1zM22.3 9.1s0 .1 0 0c0 .1 0 0 0 0zM22.4 9.2s0 .1 0 0c0 .1 0 .1 0 0 0 .1 0 .1 0 0 0 .1 0 .1 0 0 0 .1 0 .1 0 0 0 .1 0 0 0 0zM22.4 9.2zM22.3 8.8c.1.1.1.1 0 0 .1.1.1.1 0 0 .1.1.1.1 0 0 .1.1.1.1 0 0 0 .1 0 .1 0 0zM22.7 9.4c.1 0 .1 0 0 0v.1-.1z"/><path d="M22.6 9.5s.1-.1 0 0c.1-.1.1-.1.1-.2v-.1.1c0 .1 0 .1-.1.2.1 0 .1 0 0 0zM22.4 9.5c.1 0 .1 0 0 0 .1 0 .1-.1 0 0 .1 0 .1 0 0 0 .1 0 .1 0 0 0 .1 0 0 0 0 0z"/><path d="M22.4 9.5c0-.1 0-.1 0 0 .1-.1.1-.1 0 0 .1-.1.1-.1 0 0 0-.1 0 0 0 0zM22.6 9.3zM22.5 9.3zM24.4 9.8c0 .1 0 .1 0 0 0 .1 0 .1 0 0 0 .1 0 .1 0 0 0 .1 0 .1 0 0 0 .1 0 .1 0 0zM22.3 10.8c0 .1 0 .1 0 0 0 .1 0 .1 0 0 0 .1 0 .1 0 0 0 .1 0 .1 0 0 0 .1 0 .1 0 0 0 .1 0 .1 0 0z"/><path fill="red" d="M23.9 8.9h.1c0 .1-.1.1-.1 0 0 .1 0 .1 0 0z"/><path fill="red" d="M23.8 8.9c.1 0 .1 0 0 0h.1c0 .1 0 .1-.1 0 .1.1.1.1 0 0 0 .1 0 .1 0 0 0 .1 0 .1 0 0 0 .1 0 .1 0 0 0 .1 0 .1 0 0zM22.9 8.7h.2v.1-.1h.2v-.1s.1 0 .1.1h.2c-.1 0-.2-.1-.3-.1 0 0-.1 0-.1-.1h-.1c0 .3-.1.3-.2.2.1.1.1.1 0 0 .1 0 .1 0 0 0 .1 0 .1 0 0 0z"/><path fill="red" d="M22.8 8.7H23.1v.1H23c-.1 0-.1 0-.2-.1 0 .1 0 0 0 0z"/><path fill="red" d="M23.3 9c-.1-.1-.2-.1-.3-.1v-.1l-.1-.1h.2v.2l.1-.1v-.1s.1 0 .1.1c0 0 .1 0 .1.1.1.1 0 .1-.1.1.1 0 .1 0 0 0 .1 0 0 0 0 0zM23.5 9.2l-.1-.1h.1V9s.1 0 .1.1l-.1.1c.1-.1.1-.1 0 0 .1-.1.1-.1 0 0 .1-.1.1-.1 0 0 .1-.1.1-.1 0 0 .1-.1 0-.1 0 0 0-.1 0-.1 0 0zM23.7 9.3s-.1-.1 0 0c-.1 0-.1-.1-.2-.1h.1c.1-.1.1 0 .1.1l.1-.1-.1.1z"/><path fill="red" d="M23.9 9.3c-.1 0-.1 0-.2-.1 0 .1.1.1.2.1l-.1-.1s.1 0 .1.1zM24.2 9.3s.1 0 0 0c-.1.1-.2.1-.4 0h.4zM23.5 11.2c-.1 0-.1.1-.1.1l.1-.1c-.1.1-.1.1 0 0 0 .1 0 .1-.1.1h.2s.1 0 .1-.1h-.2zM22.3 10.8c-.1.1-.1.1 0 0l-.1.1c-.1 0 0 0 .1-.1-.1 0 0 .1-.1.1h.2v-.1h-.1zM23.1 11.1s-.1 0 0 0c-.1 0 0 0 0 0s0 .1 0 0c0 .1-.1.1-.1.1-.1-.1 0-.1.1-.1-.1 0-.1 0 0 0-.1 0-.1 0 0 0H23h.1c-.1 0-.1 0 0 0-.1 0-.1 0 0 0zM22.5 11.1c-.1 0-.1 0 0 0l-.1.1.1-.1v.1h.2v-.1h-.2c.1 0 .1 0 0 0zM22.7 9s.1 0 0 0H23v-.1l-.1-.1h-.2v.1-.1H22.4h.1c.2.1.3.1.2.2.1-.1.1-.1 0 0 .1-.1.1-.1 0 0 0-.1 0-.1 0 0 0-.1-.1-.1-.1-.1l.1.1zm-.2-.1s.1 0 0 0l.1-.1h.2-.1s-.1 0-.1.1h-.1z"/><path fill="#0093DD" d="m27.1 13.5 1.7-3.8-1.2-2-2.2.8-1 4c.9.3 1.8.6 2.7 1z"/><path fill="#FFF" d="M25 10c1.1.3 2.1.6 3.2 1.1l-.6 1.4c-.9-.4-1.9-.8-2.9-1L25 10z"/><path fill="red" d="m27.6 12.3.4-1c-1-.4-2-.8-3.1-1.1l-.3 1c1.1.3 2.1.7 3 1.1z"/><path d="M25.2 11c.1 0 .1 0 0 0h.2l-.1-.1h-.1s0-.1 0 0h.4s.1 0 .1.1h.2c.1 0 .2 0 .4.2.1 0 .2.1.3.1h.1c.2 0 .4 0 .5.1.1 0 .1 0 .2.1h.1c.1 0 .1 0 .2.1.1 0 .2 0 .2.1v.1c0 .1-.1.1-.1 0-.1 0-.1 0-.2-.1-.1 0-.1-.1-.2-.1h-.2v.2s0 .1.1.1h.1v.2l-.1.1h-.1s0-.1.1-.1V12h-.1s-.1-.1-.2-.1-.1 0-.1-.1h-.5v-.1h.2-.1c-.1-.1-.2-.1-.2 0h-.4H26.2s-.1 0-.1-.1h-.4c-.4-.5-.4-.5-.5-.6.1.1 0 .1 0 0 0 .1 0 .1 0 0h-.1.1z"/><path fill="#FFF" d="M26.5 11.4h-.2c-.1 0-.1-.1-.2-.1h.2s.1 0 .2.1c0-.1 0-.1 0 0 0 0 .1 0 0 0h.1-.1z"/><path d="m26.6 8.5.1.4-.3.3.4.1.1.4.3-.3.4.1-.1-.4.3-.1-.4-.1-.1-.4-.3.2-.4-.2z"/><path fill="#F7DB17" d="m26.4 9.2.3-.2.3.1-.6.1zM27.1 9.1l.3-.2.3.1-.6.1z"/><path fill="#F7DB17" d="m27.7 9-.3.2-.3-.1.6-.1z"/><path fill="#F7DB17" d="m27.1 9.1-.3.2-.3-.1.6-.1zM26.6 8.6l.4.1.1.4-.5-.5zM27.1 9.1l.3.1.1.4-.4-.5z"/><path fill="#F7DB17" d="m27.5 9.6-.3-.1-.1-.4.4.5zM27.1 9.1l-.3-.1-.1-.4.4.5zM27.3 8.5l.1.4-.3.2.2-.6z"/><path fill="#F7DB17" d="m27.1 9.1.1.4-.3.2.2-.6zM26.9 9.7l-.1-.4.3-.2-.2.6zM27.1 9.1l-.1-.4.3-.2-.2.6z"/><path d="M13.6 9h-.1v.4l.3.3-.4.1-.1.4-.3-.2-.4.1.1-.4-.3-.3.4-.1.1-.4.3.3.3-.2z"/><g fill="#F7DB17"><path d="M19.7 8.2s-.1 0 0 0c-.1 0-.1.1 0 0-.1.1 0 .1 0 0zM18.7 8.2c.1.1.1.1 0 0 0 .1 0 .1 0 0 0 .1 0 0 0 0zM19.6 8.4zM18.8 8.4zM19.6 8.3h-.8.8z"/><path d="M18.8 8.3h.8v-.1l.1-.1s-.1 0-.1.1c-.1 0-.1 0-.1.1-.1 0-.1 0-.1.1 0 0 0-.1 0 0l-.1-.1-.1.1c0-.1-.1-.1-.1-.1l-.1-.1h-.1l-.1.1-.1-.1.1.1s-.1 0 0 0zM19.6 8.5c-.1 0-.1 0 0 0-.1 0-.1 0 0 0-.1 0 0 0 0 0s-.1 0 0 0H18.6v.1-.1.1l.1.1h-.1v-.1c0 .1 0 .2.1.2h-.2.1-.1c0 .1.1.1.2.1h.1-.1s-.1 0-.1.1h.2-.1l-.1.1v.1h.2v.1-.1l.1-.1h-.1v.1l.1-.1h.1-.1l-.1.1h.1v.1-.1h.2v.2-.2V9.5v-.2.2l.1-.1v-.1.2-.2H19.5v-.2h.1l-.1-.1h-.1.1l.1.1V9h-.1.1v.1V9h.1-.1.2v-.1h-.2.2c0-.1 0-.1-.1-.1.1 0 .1-.1.2-.1h-.1.1-.2v-.1c0-.1.1-.1.1-.2v.1h-.1c0 .1 0 .1-.1 0 .1 0 .1 0 0 0 .1 0 .1 0 0 0h.1-.1l.1.1v-.1h-.1c.1-.1 0 0 0 0z"/><path d="M19.6 8.4h-.8.8c0 .1 0 0 0 0z"/><path fill-rule="evenodd" d="M18.8 8.5h.8-.4c-.1-.2-.3-.1-.4 0 0-.1 0-.1 0 0 0-.1 0-.1 0 0 0-.1 0-.1 0 0 0-.1 0-.1 0 0zm.6-.1zm0 0zm-.2 0zm0 0zm-.2 0zm0 0z"/></g><path d="M19.2 8.2c-.1 0-.1 0 0 0-.1 0 0-.1 0 0v-.1.1c0-.1 0-.1 0 0 .1-.1.1 0 0 0zm0 0c0-.1 0-.1 0 0 0-.1 0-.1 0 0 0-.1 0-.1 0 0 0-.1 0 0 0 0zM19.4 9.2h-.1.1c0-.1 0-.1 0 0zm0-.1-.1.1.1-.1zm-.3 0 .1.1-.1-.1c-.1 0-.1 0 0 0-.1 0-.1 0 0 0zm0 .1h.1-.1zm0 0s.1 0 0 0h.1v-.1h-.1V9v.1h.2-.1v.1h.1-.2c.1.1 0 .1 0 0zm.1.1c.1 0 .1 0 0 0 .1 0 .1 0 0 0zM19.3 8.7s0-.1 0 0l.1-.1-.1.1zm-.1 0c-.1 0-.1 0 0 0l-.2-.1.2.1c-.1-.1-.1 0 0 0zm-.1.2c.1-.1.1-.1 0 0 .1-.1.1-.1 0 0 .1-.1.1-.1 0 0 .1-.1.1-.1 0 0zm.1-.3v.2h.2c-.2-.1-.2-.1-.2-.2zm-.1.2c0-.1 0-.1 0 0H19h.1zm.2-.2c-.1 0-.1 0 0 0-.1 0-.1 0 0 0v.1h.2v-.1c-.3.1-.3.1-.2 0-.1 0-.1 0 0 0-.1 0-.1 0 0 0-.1 0-.1 0 0 0zm.1.1c-.1 0-.1 0-.1.1v.1c0-.1 0-.1.1-.2 0 .1 0 .1 0 0 0 .1 0 .1 0 0z"/><path fill-rule="evenodd" d="M19.4 8.7s-.1 0 0 0c-.1.1 0 .1 0 0 0 .1 0 .1 0 0zm0 0s-.1 0 0 0c0 .1 0 .1 0 0 0 .1 0 .1 0 0zm0 0c0 .1 0 .1 0 0 0 .1 0 .1 0 0zm-.3 0c0 .1 0 .1 0 0-.1.1-.1.1 0 0-.1 0-.1 0 0 0zm0 0c0 .1 0 .1 0 0-.1.1-.1.1 0 0-.1 0-.1 0 0 0zm0 0s0 .1 0 0c0 .1 0 .1 0 0-.1.1-.1.1 0 0-.1.1-.1 0 0 0z"/><g fill="#F7DB17"><path d="M21.3 8.2c-.1.1-.1.1 0 0 0 .1 0 .1 0 0 0 .1 0 .1 0 0 0 .1 0 0 0 0zM20.3 8.2c.1 0 .1 0 0 0 .1 0 .1.1 0 0 .1.1 0 .1 0 0zM21.2 8.4zM20.4 8.4zM21.2 8.3h-.8.8c0 .1 0 0 0 0z"/><path d="M20.4 8.3h.8v-.1l.1-.1h-.1c-.1 0-.1 0-.1.1-.1 0-.1 0-.1.1 0 0 0-.1 0 0l-.1-.1-.1.1c0-.1-.1-.1-.1-.1s0-.1-.1-.1c0 0-.1 0-.1-.1l.1.1c-.2.1-.2.1-.2.2 0-.1 0 0 0 0zM21.2 8.5s0 .1 0 0c-.1.1-.1.1 0 0-.1.1-.1.1 0 0-.1 0 0 0 0 0s-.1 0 0 0H20.2v.1-.1.1l.1.1h-.1v-.1c0 .1 0 .2.1.2v.1h-.2.1-.1c0 .1.1.1.2.1 0 0-.1 0-.1.1h.2-.2v.1h.2-.1.1v.1-.1h.1-.1v.1l.1-.1h.1-.1l-.1.1h.1v.1H20.8v.2-.2V9.7v-.2.2s.1 0 .1-.1v-.1.2-.2h.2v.1-.2h.1s0-.1-.1-.1H21h.1l.1.1v-.1h-.1l.1.1v.1-.1h.2v-.1l-.1-.1h-.1.2c0-.1 0-.1-.1-.1.1 0 .1-.1.2-.1h-.1.1-.2c.1-.1.1-.1.1-.2v.1h-.1c0-.3 0-.3-.1-.4.1.1.1 0 0 0 .1 0 .1 0 0 0h.1s0 .1-.1 0l.1.1v-.1h-.1c.1 0 0 0 0 0zM21.2 8.5h-.8.8z"/><path fill-rule="evenodd" d="M20.4 8.4h.8-.4c-.1-.1-.3-.1-.4 0 0 0 .1 0 0 0 .1 0 0 0 0 0zm.6 0zm0 0zm-.2 0zm0 0zm-.2 0zm0 0z"/></g><path d="M20.8 8.2c0-.1 0-.1 0 0v-.1.1c.1-.1.1-.1 0 0 .1 0 .1 0 0 0 .1 0 .1 0 0 0zm0 0c.1 0 .1 0 0 0 .1-.1 0-.1 0 0 0-.1 0-.1 0 0 0-.1 0-.1 0 0 0-.1 0 0 0 0zM20.9 9.2h-.1.1zm.1-.1-.1.1.1-.1zm-.4 0 .1.1-.1-.1zm0 0c.1.1.1.1 0 0 .1.1.1.1 0 0 0 .1 0 .1 0 0zm.1.1h.1v-.1h-.1V9v.1h.2-.1v.1h.1-.2c0 .1 0 0 0 0s-.1 0 0 0zm0 .1c.1 0 .1 0 0 0 .1 0 .1 0 0 0zM20.9 8.7s0-.1 0 0l.1-.1-.1.1zm-.2 0s0-.1 0 0l-.1-.1.1.1c0-.1 0 0 0 0 .1 0 .1 0 0 0zm0 .2c0-.1 0-.1 0 0 .1-.1.1-.1 0 0 .1-.1.1-.1 0 0 .1-.1 0-.1 0 0zm.1-.3v.2h.2c-.2-.1-.2-.1-.2-.2zm-.1.2c0-.1 0-.1 0 0-.1 0-.1-.1-.1-.1 0 .1 0 .1.1.1-.1 0-.1 0 0 0zm.2-.2c-.1 0-.1 0 0 0-.1 0-.1 0 0 0v.1h.2v-.1c-.3.1-.3.1-.2 0-.1 0-.1 0 0 0-.1 0-.1 0 0 0-.1 0-.1 0 0 0zm.1.1h-.1v.1l.1-.1c0 .1 0 .1 0 0 0 .1 0 .1 0 0 0 .1 0 0 0 0z"/><path fill-rule="evenodd" d="M21 8.7c-.1 0-.1 0 0 0-.1.1-.1.1 0 0 0 .1 0 .1 0 0zm0 0c-.1 0-.1 0 0 0-.1.1-.1.1 0 0 0 .1 0 .1 0 0zm0 0s-.1.1 0 0c-.1.1 0 .1 0 0 0 .1 0 .1 0 0 0 .1 0 0 0 0zm-.4 0c.1 0 .1 0 0 0 .1.1.1.1 0 0 0 .1 0 .1 0 0zm0 0c.1 0 .1 0 0 0 .1.1.1.1 0 0 0 .1 0 .1 0 0zm0 0c.1 0 .1 0 0 0 .1.1.1.1 0 0 0 .1 0 .1 0 0z"/></svg>