<svg xmlns="http://www.w3.org/2000/svg" xml:space="preserve" width="40" height="40" baseProfile="tiny" overflow="visible" version="1.2" viewBox="0 0 40 40"><path fill="red" fill-rule="evenodd" d="M1 15.6h38V7.5H1v8.1z"/><path fill="#FFFFFE" fill-rule="evenodd" d="M1 24.5h38v-9H1v9z"/><path fill="#171796" fill-rule="evenodd" d="M1 32.5h38v-8H1v8z"/><path fill="red" d="M20 25.3c2.5 0 4.6-2.1 4.6-4.6v-5.5h-9.2v5.5c0 2.6 2.1 4.6 4.6 4.6z"/><path fill="#FFF" d="M20 25.2c2.5 0 4.5-2 4.5-4.5v-5.4h-9v5.4c0 2.5 2 4.5 4.5 4.5z"/><path fill="red" d="M17.4 15.5h-1.7v1.9h1.7v-1.9zM17.4 19.3h1.7v-1.9h-1.7v1.9zM15.7 20.7v.5h1.7v-1.9h-1.7v1.4zM20.9 19.3h-1.7v1.9h1.7v-1.9zM20.9 23.1h1.7v-1.9h-1.7v1.9zM22.6 24.2c.4-.3.7-.6 1-1h-1v1zM17.4 23.1h1.7v-1.9h-1.7v1.9zM16.4 23.1c.3.4.6.8 1 1v-1h-1zM20.3 25.1c.2 0 .4 0 .6-.1v-1.8h-1.7V25c.2 0 .4.1.6.1h.5zM24.3 21.2v-1.9h-1.7v1.9h1.7zM20.9 19.3h1.7v-1.9h-1.7v1.9zM20.9 15.5h-1.7v1.9h1.7v-1.9zM24.3 17.4v-1.9h-1.7v1.9h1.7z"/><path fill="#FFF" d="m24.4 15.2 1.1-2.4-.8-1.3-1.4.5-1-1.1-1.3.7-1-.9-1.1.9-1.3-.7-1 1.1-1.4-.5-.8 1.3 1.1 2.4c1.4-.6 2.9-1 4.4-1 1.7.1 3.2.4 4.5 1z"/><path fill="#0093DD" d="m16.7 12.1-1.3-.5-.8 1.2.3.7.7 1.7c.5-.2 1.1-.4 1.7-.6l-.6-2.5z"/><path fill="#FFF" stroke="#000" stroke-miterlimit="10" stroke-width=".014" d="M16.6 13.3c0 .1.1.2.1.3 0 .4-.3.7-.7.7-.3 0-.6-.2-.6-.5.1.2.3.3.6.3.4 0 .7-.3.7-.7l-.1-.1z"/><path fill="#F7DB17" d="m15.8 12.7.2.1.2-.1h-.4z"/><path fill="#F7DB17" d="m15.8 12.7.4.1-.2-.2-.2.1zM15.3 12.6l.4.1-.2-.1h-.2zM15.7 12.7l-.4-.1.2.1h.2z"/><path fill="#F7DB17" d="m15.7 12.7.3-.3-.2.1-.1.2zM15.5 13l.3-.3-.2.1-.1.2z"/><path fill="#F7DB17" d="m15.7 12.7-.2.3.2-.1v-.2zM16 12.4l-.3.3.2-.1.1-.2zM15.7 12.7l-.1-.4v.2l.1.2zM15.9 13.1l-.1-.4v.2l.1.2z"/><path fill="#F7DB17" d="m15.7 12.7.1.4v-.2l-.1-.2zM15.6 12.3l.1.4v-.2l-.1-.2z"/><path fill="#171796" d="m18.9 11.7-1.3-.7-.9 1.1.6 2.4 1.8-.3-.2-2.5z"/><path fill="red" d="M17.2 13.9c.6-.2 1.2-.3 1.9-.3L19 13c-.7.1-1.3.2-2 .3l.2.6zM16.9 12.7c.7-.2 1.4-.3 2.1-.3l-.1-.6c-.7.1-1.5.2-2.2.4l.2.5z"/><path fill="#0093DD" d="m21.1 11.7-1.1-.9-1.1.9.2 2.5h1.8l.2-2.5z"/><path d="M20 12.8c0 .1-.1.1 0 0l-.1.1v.1s-.1-.1-.1 0h-.2c0 .1.1.1.1.2h-.1c0 .1 0 .1.1.2h-.1s0 .1.1.1v.2h.1v.1h.2v.1l.1-.1s.1 0 .1-.1l.1.1v-.1h.2v-.1h.1v-.2c.1 0 .1-.1.1-.1h-.1c.1-.1.1-.1.1-.2h-.1c0-.1.1-.1.1-.2h-.2v-.1c-.4.1-.4.1-.5 0 .1.1 0 .1 0 0z"/><path fill="#F7DB17" d="M20.3 13zM19.7 13zM20.2 13.1zM19.8 13.1zM20.3 13.1h-.6.6zM19.7 13.1h.6l.1-.1h-.2l-.1-.1s0 .1-.1.1-.2 0-.3.1c.1-.1.1-.1 0 0V13h-.1l.1.1c0-.1 0-.1 0 0 0-.1 0-.1 0 0 0-.1 0-.1 0 0 0-.1 0-.1 0 0zM20.2 13.2H19.9s0 .1.1.1h-.1l.1.1-.1.1h.2v.1h.1v.2-.2h.1v-.1h.2s0-.1-.1-.1c0 0 .1 0 .1-.1h-.1s0-.1.1-.1h-.3c.1 0 .1 0 0 0 .1 0 .1.1 0 0 .1.1.1.1 0 0 .1 0 .1 0 0 0 .1 0 .1 0 0 0 .1 0 .1 0 0 0 .1 0 .1 0 0 0 .1 0 .1 0 0 0 .1 0 .1 0 0 0 .1 0 .1 0 0 0 .1 0 .1 0 0 0 .1 0 .1 0 0 0h.1c.1-.1 0-.1-.1 0 .1 0 .1 0 0 0z"/><path fill="#F7DB17" d="M20.2 13.1h-.4.4c0 .1 0 0 0 0z"/><path fill="#F7DB17" fill-rule="evenodd" d="M19.8 13.1h.4-.4zm.3 0zm0 0zm-.1 0zm0 0zm-.1 0zm0 0z"/><path d="M20 13c0-.1 0-.1 0 0 0-.1 0-.1 0 0 0-.1 0-.1 0 0 0-.1 0 0 0 0zm0 0c0-.1 0-.1 0 0 0-.1 0-.1 0 0zM20.1 13.6c-.1 0-.1 0 0 0-.1 0-.1 0 0 0zm0-.1c-.1.1-.1.1 0 0-.1.1-.1.1 0 0zm-.2 0c.1.1.1.1 0 0 .1.1.1.1 0 0zm0 .1c.1 0 .1 0 0 0 .1 0 .1 0 0 0zm0 0s.1 0 0 0c.1 0 .1 0 0 0 .1 0 .1 0 0 0 0-.1 0-.1 0 0v-.1.1c0-.1 0-.1 0 0 .1-.1.1-.1 0 0l.1-.1c0 .1 0 .1-.1.1.1 0 .1 0 0 0 .1 0 .1 0 0 0h.1-.1c.1 0 .1 0 0 0 .1 0 .1 0 0 0 .1 0 0 0 0 0zm.1 0c0 .1 0 .1 0 0 0 .1 0 .1 0 0zM20 13.3c.1 0 .1 0 0 0 .1-.1.1-.1 0 0 .1-.1.1-.1 0 0 .1 0 .1 0 0 0 .1 0 .1 0 0 0 .1 0 .1 0 0 0zm0 0s-.1 0 0 0c-.1 0-.1-.1 0 0-.1-.1-.1-.1 0 0-.1-.1-.1-.1 0 0-.1-.1-.1-.1 0 0-.1 0 0 0 0 0zm-.1.1s.1 0 0 0c.1 0 .1 0 0 0 .1 0 .1 0 0 0 .1 0 .1 0 0 0 .1 0 .1 0 0 0 .1 0 .1 0 0 0zm.1-.2s0 .1 0 0c0 .1 0 .1 0 0v.1c-.1 0-.1 0 0-.1-.1.1-.1.1 0 .1v-.1c0 .1 0 .1 0 0 0 .1 0 0 0 0zm-.1.1s0 .1 0 0c0 .1 0 .1 0 0 0 .1 0 .1 0 0 0 .1 0 0 0 0zm.1-.1s0 .1 0 0c0 .1 0 .1 0 0v.1c.1 0 .1 0 0-.1l.1.1c-.1 0-.1 0-.1-.1 0 .1 0 .1 0 0 0 .1 0 0 0 0zm.1.1s0 .1 0 0c0 .1 0 .1 0 0 0 .1 0 .1 0 0 0 .1 0 0 0 0z"/><path fill-rule="evenodd" d="M20.1 13.3s0 .1 0 0c0 .1 0 0 0 0zm0 0zm0 0zm-.2 0s0 .1 0 0c0 .1 0 0 0 0zm0 0zm0 0z"/><path d="M19.5 11.7s-.1.1 0 0l-.1.1v.1s-.1-.1-.1 0h-.2l.1.1h-.1c0 .1 0 .1.1.2h-.1s0 .1.1.1v.2h.1v.1h.2v.1l.1-.1s.1 0 .1-.1l.1.1v-.1h.2v-.1h.1v-.2c.1 0 .1-.1.1-.1h-.1c0-.1.1-.1.1-.2h-.1c0-.1.1-.1.1-.2H20s0-.1 0 0c-.4.1-.4.1-.5 0 .1.1 0 0 0 0z"/><path fill="#F7DB17" d="M19.8 11.9zM19.2 11.9zM19.7 12zM19.3 12zM19.8 11.9h-.6.6zM19.2 11.9h.6v-.1h-.2l-.1-.1s0 .1-.1.1c0 .1-.1 0-.2.1.1 0 .1 0 0 0v-.1h-.1l.1.1zM19.8 12c-.1 0-.1 0 0 0-.1 0-.1.1 0 0-.1.1-.1.1 0 0-.1.1-.1.1 0 0-.1.1-.1 0 0 0-.1 0-.1 0 0 0-.1 0-.1 0 0 0-.1 0-.1 0 0 0-.1 0-.1 0 0 0-.1.1-.1.1 0 0-.1.1-.1 0 0 0-.1 0-.1 0 0 0-.1 0-.1 0 0 0H19.5s0 .1.1.1h-.1l.1.1v.1h.2v.1h.1v.2-.2h.1v-.1h.2s0-.1-.1-.1c0 0 .1 0 .1-.1h-.1V12h-.3c0 .1 0 .1 0 0 0 .1 0 .1 0 0 0 .1 0 .1 0 0 0 .1 0 .1 0 0 0 .1 0 0 0 0s0 .1 0 0c0 .1 0 .1 0 0 0 .1 0 .1 0 0 0 .1 0 .1 0 0h.1-.1zM19.7 12h-.4.4s.1 0 0 0z"/><path fill="#F7DB17" fill-rule="evenodd" d="M19.3 12h.4-.3c0-.1-.1 0-.1 0zm.3 0zm0 0zm-.1 0zm0 0zm-.1 0zm0 0z"/><path d="M19.5 11.9c0-.1 0-.1 0 0 0-.1 0-.1 0 0 0-.1 0-.1 0 0 0-.1 0-.1 0 0 0-.1 0-.1 0 0 0-.1 0-.1 0 0 0-.1 0-.1 0 0 0-.1 0-.1 0 0 0-.1 0-.1 0 0 0-.1 0 0 0 0zm0 0c0-.1 0-.1 0 0 0-.1 0-.1 0 0 0-.1 0-.1 0 0 0-.1 0-.1 0 0 0-.1 0-.1 0 0 0-.1 0-.1 0 0 0-.1 0-.1 0 0 0-.1 0-.1 0 0zM19.6 12.4c0 .1 0 .1 0 0 0 .1 0 .1 0 0zm0 0s0 .1 0 0zm-.2 0c.1 0 .1 0 0 0 .1.1.1.1 0 0zm0 0c.1.1.1.1 0 0 .1.1.1.1 0 0 0 .1 0 .1 0 0zm.1.1c0-.1 0-.1 0 0 0-.1 0-.1 0 0v-.1.1c0-.1 0-.1 0 0 0-.1 0-.1 0 0 0-.1 0-.1 0 0l.1-.1c-.1 0-.1 0-.1.1h.1-.1c-.1 0-.1 0 0 0-.1 0-.1 0 0 0zm0 0zM19.5 12.2c.1-.1.1-.1 0 0 .1-.1.1-.1 0 0 .1-.1.1-.1 0 0 .1-.1.1-.1 0 0 .1-.1.1-.1 0 0 .1-.1.1-.1 0 0 .1 0 .1 0 0 0zm0 0s-.1-.1 0 0c-.1-.1-.1-.1 0 0h-.1c0-.1 0-.1.1 0-.1-.1-.1-.1 0 0-.1-.1 0-.1 0 0zm0 .1c0-.1 0-.1 0 0 0-.1 0-.1 0 0 0-.1 0-.1 0 0 0-.1 0 0 0 0zm0-.2s0 .1 0 0v.1c-.1 0-.1 0 0-.1-.1.1 0 .1 0 .1v-.1c0 .1 0 0 0 0zm0 .1c-.1 0-.1 0 0 0-.1 0-.1 0 0 0-.1 0-.1 0 0 0-.1 0-.1 0 0 0-.1 0-.1 0 0 0-.1 0-.1 0 0 0-.1 0-.1 0 0 0zm0-.1s0 .1 0 0v.1c.1 0 .1 0 0-.1l.1.1c-.1 0-.1 0-.1-.1 0 .1 0 0 0 0zm.2.1c-.1 0-.1 0 0 0-.1 0-.1 0 0 0-.1 0-.1 0 0 0-.1 0-.1 0 0 0-.1 0-.1 0 0 0-.1 0-.1 0 0 0-.1 0-.1 0 0 0-.1 0-.1 0 0 0-.1 0 0 0 0 0z"/><path fill-rule="evenodd" d="M19.6 12.2zm0 0zm0 0zm-.2 0zm0 0zm0 0z"/><path d="M20.5 11.7s0 .1 0 0l-.1.1s-.1-.1-.1 0h-.1c0 .1.1.1.1.2h-.1c0 .1 0 .1.1.2h-.1s0 .1.1.1v.2h.1v.1h.2v.1l.1-.1s.1 0 .1-.1v.1-.1h.2v-.1h.1v-.2c.1 0 .1-.1.1-.1h-.1c.1-.1.1-.1.1-.2h-.1l.1-.1H20.9v-.1c-.3.1-.3.1-.4 0 .1.1 0 0 0 0z"/><path fill="#F7DB17" d="M20.8 11.9zM20.2 11.9zM20.7 12zM20.3 12zM20.8 11.9h-.6.6c0 .1 0 0 0 0zM20.2 11.9h.6l.1-.1h-.2l-.1-.1s0 .1-.1.1c-.1.1-.2 0-.3.1.1 0 .1 0 0 0v-.1h-.1l.1.1c0-.1 0 0 0 0zM20.7 12s0 .1 0 0c0 .1 0 .1 0 0 0 .1 0 .1 0 0 0 .1 0 .1 0 0 0 .1 0 .1 0 0 0 .1 0 0 0 0 0 .1 0 .1 0 0 0 .1 0 .1 0 0-.1.1-.1.1 0 0 0 .1 0 0 0 0H20.4v.1h-.1s0 .1.1.1l-.1.1h.2v.1h.1v.2-.2h.1v-.1h.2v-.1s.1 0 .1-.1h-.1l.1-.1c-.2.1-.2.1-.3 0 .1.1.1.1 0 0 .1.1.1.1 0 0 .1.1.1.1 0 0 .1.1.1.1 0 0 .1.1.1.1 0 0 .1 0 .1 0 0 0 .1 0 .1 0 0 0 .1.1.1.1 0 0 .1.1.1.1 0 0 .1.1.1.1 0 0 .1.1.1.1 0 0 .1.1.1.1 0 0h.1-.1c.1 0 .1 0 0 0zM20.7 12h-.4.4z"/><path fill="#F7DB17" fill-rule="evenodd" d="M20.3 12h.4-.3c0-.1-.1-.1-.1 0zm.3 0zm0 0zm-.1 0zm0 0zm-.1 0zm0 0z"/><path d="M20.5 11.9c0-.1 0-.1 0 0 0-.1 0-.1 0 0 0-.1 0-.1 0 0 0-.1 0-.1 0 0 0-.1 0-.1 0 0 0-.1 0-.1 0 0 0-.1 0-.1 0 0 0-.1 0-.1 0 0 0-.1 0-.1 0 0zm0 0c0-.1 0-.1 0 0 0-.1 0-.1 0 0 0-.1 0-.1 0 0 0-.1 0-.1 0 0 0-.1 0-.1 0 0 0-.1 0-.1 0 0 0-.1 0-.1 0 0 0-.1 0-.1 0 0zM20.6 12.5c-.1 0-.1 0 0 0-.1 0-.1 0 0 0 0-.1 0-.1 0 0zm0-.1c-.1.1-.1.1 0 0-.1 0-.1 0 0 0zm-.2 0c0 .1 0 0 0 0zm0 0c0 .1 0 .1 0 0 0 .1 0 .1 0 0zm0 .1c.1 0 .1 0 0 0 .1-.1 0-.1 0 0 0-.1 0-.1 0 0v-.1.1c0-.1 0-.1 0 0 .1-.1.1-.1 0 0l.1-.1-.1.1c.1 0 .1 0 0 0 .1 0 .1 0 0 0h.1-.1c.1 0 .1 0 0 0 .1 0 .1 0 0 0zm0 0c.1 0 .1 0 0 0 .1 0 .1 0 0 0zM20.5 12.2c0-.1.1-.1 0 0 .1-.1.1-.1 0 0 .1-.1.1-.1 0 0 .1-.1.1-.1 0 0 .1-.1.1-.1 0 0 .1-.1.1 0 0 0zm0 0c-.1-.1-.1-.1 0 0-.1-.1-.1-.1 0 0-.1-.1-.1-.1 0 0-.1-.1-.1-.1 0 0-.1-.1-.1-.1 0 0-.1-.1-.1-.1 0 0zm-.1.1c.1-.1.1-.1 0 0 .1-.1.1-.1 0 0 .1-.1.1-.1 0 0 .1-.1.1 0 0 0zm.1-.2s0 .1 0 0v.1c-.1 0-.1 0 0-.1-.1.1-.1.1 0 .1v-.1c0 .1 0 0 0 0zm-.1.1zm.1-.1s0 .1 0 0v.1c.1 0 .1 0 0-.1l.1.1c-.1 0-.1 0-.1-.1 0 .1 0 0 0 0zm.1.1z"/><path fill-rule="evenodd" d="M20.6 12.2zm0 0zm0 0zm-.2 0zm0 0zm0 0z"/><path fill="#171796" d="m23.3 12.1-.9-1.1-1.2.7-.2 2.5 1.8.3.5-2.4z"/><path d="M21.4 12.2h.7s.1 0 .1.1h.2c-.2.1-.3 0-.4 0l.1.1s.1.1.2.1H22.6h-.1c-.1 0-.2 0-.3-.1-.1 0-.1-.1-.2-.1s-.1-.1-.1-.1h-.1.1-.2v.1h.1s.1 0 .1.1h.7-.1v.6s-.1 0-.1.1c0 0 0 .1-.1.1v.1h-.2s0-.1.1-.1l.1-.1V13h-.1l-.1.1v.1H22l.1-.1v-.2H21.8v.4V13v.2h-.1s.1 0 .1-.1V12.8l.1-.1v-.2s-.1 0 0-.1c0 0 0-.1.1-.1-.6 0-.6 0-.6-.1 0 .1 0 .1 0 0-.1.1 0 0 0 0z"/><path fill="#F7DB17" d="M22.2 13.4c-.1 0-.1 0 0 0-.1.1-.1.1 0 0-.1.1-.1.1 0 0l-.1.1s0-.1.1-.1c-.1 0-.1 0 0 0h-.1l-.1.1h-.1l.1-.1v-.2l.2.2c-.1-.1-.1 0-.1 0h.1c-.1 0-.1 0 0 0-.1-.1-.1-.1 0 0-.1-.1-.1-.1 0 0-.1-.1-.1-.1 0 0 0-.1 0-.1 0 0zM21.4 13c0-.1 0-.1 0 0 .1-.1.1-.1 0 0 .1-.1.1-.1 0 0 .1-.1.1-.1 0 0 .1-.1.1-.1 0 0 0-.1 0-.1 0 0 .1 0 .1 0 0 0 .1 0 .1 0 0 0 .1 0 .1 0 0 0 .1 0 .1 0 0 0 .1-.1.1-.1 0 0 .1-.1.1-.1 0 0 .1-.1.1-.1 0 0 .1-.1.1-.1 0 0 .1 0 .1 0 0 0 .1 0 .1 0 0 0 .1 0 .1 0 0 0 .1 0 .1 0 0 0 .1 0 .1 0 0 0 .1 0 0 0 0 0v.1c.1 0 .1 0 0-.1l.1.1c0-.1 0-.1-.1-.1l.1.1v.2l-.1.1h.1V13v.2h.1V13h.1v-.1.1-.1.2c0 .1-.1.1-.1.1v.1h-.1.2v-.1l.1-.1s.1 0 .1-.1v-.2H21.6v.2-.2h-.1v.1-.1h-.1.2-.2.2H21.3h.1-.1l-.1.1s-.1 0-.1.1v.1s-.1 0-.1.1c.5-.3.4-.3.4-.2 0-.1 0-.1 0 0zM21.4 12.3c0-.1 0-.1 0 0 0-.1 0-.1 0 0 0-.1 0 0 0 0 0-.1 0-.1 0 0 0-.1 0-.1 0 0 0-.1 0-.1 0 0 .1 0 .1 0 0 0 .1 0 .1 0 0 0 .1 0 .1 0 0 0z"/><path d="M22.2 13.4zM22.3 13.6zM22.4 13.5zM22.3 13.5s0 .1 0 0c0 .1 0 .1 0 0 0 .1 0 .1 0 0 0 .1 0 0 0 0zM22.4 13.4s0 .1 0 0c0 .1 0 .1 0 0 0 .1 0 .1 0 0 0 .1 0 .1 0 0 0 .1 0 .1 0 0zM22.4 13.5c0-.1 0-.1 0 0 0-.1 0-.1 0 0zM22.4 13.2c.1 0 .1 0 0 0 .1 0 .1 0 0 0 .1 0 .1-.1 0 0 .1-.1.1-.1 0 0 .1-.1.1-.1 0 0 .1-.1.1 0 0 0 .1 0 .1 0 0 0 .1 0 0 0 0 0 0 .1 0 .1 0 0zM22.4 13.2zM22.4 13.3c0 .1 0 .1 0 0zM22.4 13.3c0 .1 0 .1 0 0 0 .1 0 .1 0 0zM22.5 13.3s0 .1 0 0v.1-.1c0 .1 0 0 0 0zM22.5 13.2zM22.5 13.1zM22.5 13s0 .1 0 0c0 .1 0 .1 0 0 0 .1 0 .1 0 0 0 .1 0 0 0 0zM22.4 12.9c0 .1 0 .1 0 0 0 .1 0 .1 0 0 0 .1 0 .1 0 0 0 .1 0 .1 0 0v.2-.2c0 .1 0 .1 0 0 0 .1 0 .1 0 0 0 .1 0 .1 0 0 0 .1 0 .1 0 0 0 .1 0 .1 0 0zM22.6 12.9zM22.6 12.9zM22.5 12.9c0 .1 0 .1 0 0 0 .1 0 .1 0 0 0 .1 0 .1 0 0 0 .1 0 .1 0 0zM22.2 13s0-.1 0 0zM22.3 12.9s-.1 0 0 0c-.1 0-.1 0 0 0zM22.4 13zM22.4 12.9zM22.1 12.9c0 .1 0 .1 0 0 .1.1.1.1 0 0 .1.1.1.1 0 0 .1.1.1.1 0 0 .1.1.1.1 0 0 .1.1.1.1 0 0 .1.1 0 .1 0 0 0 .1 0 .1 0 0zM22.2 13c.1 0 .1 0 0 0 .1 0 .1.1 0 0v.1c.1 0 .1 0 0-.1.1.1.1.1 0 0 .1 0 .1 0 0 0 .1 0 .1 0 0 0 .1 0 .1 0 0 0 .1 0 .1 0 0 0 .1 0 .1 0 0 0 .1 0 .1 0 0 0 .1.1.1.1 0 0 0 .1.1.1.1.1-.1 0-.1 0-.1-.1.1.1.1 0 0 0zM22.2 13.1zM22.1 13.1z"/><path d="M22.1 13c0 .1 0 .1 0 0v.1-.1c.1.1.1.1 0 0 .1.1.1.1 0 0v.1-.1c0 .1 0 .1 0 0zM22.2 13.2v.1-.1s0 .1 0 0c0 .1 0 0 0 0zM22.3 13.2zM22.3 13.2c0 .1 0 .1 0 0 0 .1 0 .1 0 0zM22.4 13.4zM22.3 13.3s0 .1 0 0c0 .1 0 .1 0 0 0 .1 0 .1 0 0 0 .1 0 0 0 0zM22.3 13.3zM22.2 13.3zM22.1 13.4zM21.9 13.6zM21.9 13.6zM22 13.6zM22.1 13.4zM22.1 12.9zM22.1 12.8c0 .1 0 .1 0 0 0 .1 0 .1 0 0 0 .1 0 .1 0 0 0 .1 0 .1 0 0zM22 12.9zM22.1 13zM22 12.9s0 .1 0 0c0 .1 0 .1 0 0 0 .1 0 .1 0 0 0 .1 0 .1 0 0 0 .1 0 .1 0 0 0 .1 0 .1 0 0 0 .1 0 0 0 0 .1 0 .1 0 0 0 .1 0 .1 0 .1.1l-.1-.1c.1 0 .1 0 0 0 0 0 0 .1 0 0 0 .1 0 .1 0 0 0 .1 0 .1 0 0 0 .1 0 .1 0 0v.1-.1c0 .1 0 .1 0 0zM22 13.2zM21.9 13.2zM22 13.1c0 .1 0 .1 0 0v.1-.1c0 .1 0 .1 0 0zM22 13.1c0 .1-.1.1-.1.1s0-.1.1-.1c-.1 0 0 0 0 0zM21.9 13.1s0 .1 0 0c0 .1-.1.1 0 0-.1.1-.1.1 0 0-.1.1-.1.1 0 0-.1.1 0 .1 0 0 0 .1 0 0 0 0zM21.7 13.2zM21.7 13.2s0 .1 0 0c0 .1 0 .1 0 0v.1-.1c0 .1 0 .1 0 0 0 .1 0 .1 0 0 0 .1 0 .1 0 0 0 .1 0 .1 0 0v.1-.1c0 .1 0 .1 0 0 0 .1 0 0 0 0zM21.7 13.4zM21.7 13.5s0-.1 0 0c0-.1 0-.1 0 0 0-.1 0-.1 0 0 0-.1 0 0 0 0zM21.6 13.6c0-.1 0-.1 0 0 0-.1 0-.1 0 0 0-.1 0-.1 0 0 0-.1 0-.1 0 0zM21.6 13.2zM21.5 13.5c0-.1 0-.1 0 0 0-.1 0-.1 0 0zM21.7 13.1v.1-.1c0 .1 0 0 0 0s0 .1 0 0v.1-.1zM21.7 13c0 .1 0 .1 0 0v.1-.1c0 .1 0 .1 0 0 0 .1 0 0 0 0zM21.6 13.2zM21.5 13.1s0 .1 0 0c0 .1 0 .1 0 0 0 .1 0 .1 0 0 0 .1 0 .1 0 0 0 .1 0 .1 0 0 0 .1 0 .1 0 0 0 .1 0 .1 0 0 0 .1 0 .1 0 0 0 .1 0 .1 0 0 0 .1 0 0 0 0zM21.8 12.7c0 .1 0 .1 0 0 0 .1 0 .1 0 0 0 .1 0 .1 0 0 0 .1 0 .1 0 0zM21.8 12.8zM21.6 12.8v.1-.1zM21.8 12.7c-.1 0-.1 0 0 0v.1c-.1 0-.1 0 0-.1-.1 0-.1 0 0 0zM21.6 12.7s0 .1 0 0c0 .1 0 .1 0 0v.1c-.1 0-.1 0 0-.1 0 .1 0 .1 0 0 0 .1 0 0 0 0zM21.7 12.7z"/><path d="M21.7 12.7s0 .1 0 0v.1-.1c0 .1 0 .1 0 0l-.1.1v.1-.1l.1-.1zM21.7 12.6s0 .1 0 0c0 .1 0 .1 0 0-.1.1-.1.1 0 0-.1.1-.1.1 0 0-.1.1-.1.1 0 0-.1.1-.1.1 0 0-.1.1-.1.1 0 0-.1.1-.1.1 0 0 0 .1 0 .1 0 0zM21.9 12.9s0 .1 0 0c0 .1 0 .1 0 0 0 .1 0 .1 0 0 0 .1 0 .1 0 0 0 .1 0 .1 0 0 0 .1 0 .1 0 0zM21.9 13s0 .1 0 0c0 .1 0 .1 0 0 0 .1 0 .1 0 0 0 .1 0 .1 0 0 0 .1 0 .1 0 0 0 .1 0 .1 0 0 0 .1 0 .1 0 0 0 .1 0 0 0 0zM21.9 12.9c0 .1 0 .1 0 0v.1-.1c0 .1 0 .1 0 0 0 .1 0 .1 0 0zM21.9 13.1s-.1 0 0 0c-.1 0-.1 0 0 0l-.1.1s0-.1.1-.1c-.1 0-.1 0 0 0-.1 0-.1 0 0 0-.1 0-.1-.1 0 0-.1-.1-.1-.1 0 0-.1-.1-.1-.1 0 0-.1-.1-.1-.1 0 0-.1-.1-.1-.1 0 0-.1-.1-.1-.1 0 0-.1-.1-.1-.1 0 0-.1-.1-.1 0 0 0-.1 0-.1 0 0 0-.1 0-.1 0 0 0-.1 0-.1 0 0 0-.1 0-.1 0 0 0-.1 0-.1 0 0 0-.1 0-.1 0 0 0 0-.1 0-.1 0 0zM21.7 13c0 .1 0 .1 0 0 0 .1 0 .1 0 0 0 .1 0 .1 0 0 0 .1 0 .1 0 0zM21.6 13c0 .1 0 .1 0 0 0 .1 0 .1 0 0zM21.7 13c-.1 0-.1 0 0 0-.1 0-.1 0 0 0zM21.6 13.1V13v.1zM21.5 13.1zM21.8 12.9c0 .1 0 .1 0 0 0 .1 0 .1 0 0 0 .1 0 .1 0 0 0 .1 0 .1 0 0zM21.8 12.9zM21.9 12.8s0 .1 0 0v.1-.1c0 .1 0 .1 0 0zM21.8 12.8s-.1 0 0 0c-.1 0-.1 0 0 0zM21.6 12.9c0 .1-.1.1 0 0-.1.1-.1.1 0 0-.1.1-.1.1 0 0-.1.1-.1.1 0 0-.1.1-.1.1 0 0-.1.1-.1.1 0 0-.1 0-.1 0 0 0zM21.5 12.9zM21.7 12.8c0 .1 0 .1 0 0 0 .1 0 .1 0 0 0 .1 0 .1 0 0 0 .1 0 .1 0 0 0 .1 0 0 0 0zM21.7 12.8v.2-.2zM21.5 12.4h.1-.1c.1 0 .1 0 0 0 .1 0 .1 0 0 0zM21.6 12.4c-.1 0-.1 0 0 0-.1 0-.1 0 0 0zM21.6 12.5c0-.1.1-.1 0 0 .1-.1.1-.1 0 0 .1-.1.1-.1 0 0 .1-.1.1-.1 0 0 .1-.1.1-.1 0 0 .1-.1.1 0 0 0zM21.8 12.4c.1 0 .1 0 0 0zM21.7 12.4s.1 0 0 0c.1 0 .1 0 0 0 .1 0 .1 0 0 0 .1 0 0 0 0 0zM21.7 12.4c.1 0 .1 0 0 0 .1 0 .1 0 0 0zM21.6 12.5c-.1 0-.1 0 0 0-.1 0-.1 0 0 0-.1 0-.1 0 0 0-.1 0-.1 0 0 0-.1 0-.1 0 0 0zM21.6 12.5zM21.6 12.4zM21.6 12.3zM21.6 12.3s-.1 0 0 0c-.1 0-.1 0 0 0-.1 0-.1 0 0 0-.1 0-.1 0 0 0-.1 0-.1 0 0 0-.1 0-.1 0 0 0zM21.5 12.3c0 .1 0 .1 0 0 0 .1 0 .1 0 0zM21.5 12.4zM21.5 12.4zM21.4 12.4zM21.5 12.5zM21.5 12.5zM21.4 12.3c.1 0 .1 0 0 0 .1 0 .1 0 0 0 .1 0 .1 0 0 0 .1 0 .1 0 0 0zM21.7 12.6s0 .1 0 0z"/><path d="M21.6 12.7c0-.1 0-.1 0 0 .1-.1.1-.1 0 0l.1-.1-.1.1c.1-.1.1-.1 0 0 0-.1 0-.1 0 0zM21.5 12.6c0 .1 0 .1 0 0 0 .1 0 .1 0 0zM21.5 12.6zM21.6 12.5zM21.5 12.5zM22.7 12.9zM21.4 13.5z"/><path fill="red" d="M22.4 12.3s.1 0 0 0c.1 0 0 0 0 0zM22.3 12.3c.1 0 .1 0 0 0 .1 0 .1 0 0 0 .1 0 .1 0 0 0 .1 0 .1 0 0 0 .1 0 .1 0 0 0 .1 0 .1 0 0 0zM21.8 12.2h.5c-.1 0-.1 0-.2-.1h-.2c0 .1 0 .1-.1.1zM21.7 12.2h.1-.1c.1 0 .1 0 0 0zM22.1 12.4s-.1 0 0 0c-.1 0-.1-.1-.2-.1v-.1h.2c-.1.1-.1.1 0 .2-.1-.1-.1-.1 0 0-.1-.1-.1-.1 0 0-.1-.1-.1-.1 0 0-.1-.1-.1-.1 0 0v-.1c-.1 0 0 0 0 .1 0-.1 0-.1 0 0 0-.1 0 0 0 0z"/><path fill="red" d="M22.2 12.4c-.1 0-.1 0 0 0-.1 0-.1 0 0 0v-.1.1zM22.3 12.5s-.1 0 0 0c-.1 0-.1 0 0 0-.1 0-.1-.1 0 0-.1-.1-.1-.1 0 0-.1-.1-.1-.1 0 0v-.1.1zM22.4 12.6h-.1c0-.1 0-.1.1 0-.1-.1-.1-.1 0 0 0-.1 0-.1 0 0 0-.1 0-.1 0 0 0-.1 0-.1 0 0zM22.6 12.5h-.2.2zM22.1 13.7c0 .1 0 .1 0 0 0 .1 0 .1 0 0 0 .1 0 .1 0 0 0 .1 0 .1 0 0 0 .1.1.1 0 0l.1.1s0-.1-.1-.1c.1 0 .1 0 0 0 .1 0 .1 0 0 0zM21.4 13.5c-.1 0-.1 0 0 0-.1 0-.1 0 0 0-.1 0-.1.1 0 0 0 .1 0 .1 0 0 .1.1.1 0 0 0 .1 0 .1 0 0 0zM21.9 13.6c0 .1 0 .1 0 0 0 .1 0 .1 0 0 0 .1-.1.1 0 0-.1.1-.1.1 0 0-.1.1-.1.1 0 0-.1.1-.1.1 0 0-.1.1-.1.1 0 0-.1.1-.1.1 0 0-.1.1-.1.1 0 0h-.1c0 .1 0 .1.1 0-.1 0-.1 0 0 0-.1 0-.1 0 0 0-.1 0 0 0 0 0zM21.5 13.6c0 .1 0 .1 0 0 0 .1 0 .1 0 0 0 .1 0 .1 0 0 0 .1 0 .1 0 0 0 .1 0 .1 0 0 0 .1 0 .1 0 0 .1.1.1.1 0 0 .1.1.1.1 0 0 .1.1.1.1 0 0 .1 0 .1 0 0 0 .1 0 .1 0 0 0 .1 0 .1 0 0 0zM21.7 12.3h.2-.1c0-.1-.1-.1-.1 0 0-.1 0-.1 0 0 0-.1-.1 0 0 0 0 0-.1 0 0 0h-.1.1zm-.1 0 .1-.1h.1c-.2 0-.2 0-.2.1 0-.1 0-.1 0 0 0-.1 0-.1 0 0 0-.1 0-.1 0 0 0-.1 0-.1 0 0 0-.1 0-.1 0 0 0-.1 0-.1 0 0 0 0-.1 0 0 0-.1 0-.1 0 0 0z"/><path fill="#0093DD" d="m24.4 15.1 1-2.3-.8-1.2-1.3.5-.6 2.4c.6.2 1.1.4 1.7.6z"/><path fill="#FFF" d="M23.1 13c.7.2 1.3.4 1.9.7l-.4.9c-.6-.3-1.2-.5-1.8-.6l.3-1z"/><path fill="red" d="m24.7 14.4.3-.6c-.6-.3-1.3-.5-1.9-.7l-.2.6c.6.2 1.2.4 1.8.7z"/><path d="M23.2 13.6s.1 0 0 0h.1l-.1-.1h-.1H23.4s.1 0 .2.1c.1 0 .1 0 .2.1.1 0 .2 0 .3.1H24.4s.1 0 .1.1v.1h-.2s-.1 0-.1-.1h-.1.1v.1h-.1.1-.1s-.1 0-.1-.1H23.7h.2-.6c0-.3 0-.3-.1-.3.1 0 .1 0 0 0 0 .1 0 .1 0 0 0 0-.1 0 0 0-.1 0-.1 0 0 0z"/><path fill="#FFF" d="M24 13.8h-.2.2c.1 0 .1 0 0 0 .1 0 0 0 0 0z"/><path d="M24.1 12.1v.2l-.2.2.2.1v.2l.2-.2.2.1v-.2l.2-.2-.2-.1V12l-.2.2-.2-.1z"/><path fill="#F7DB17" d="m24 12.5.2-.1.2.1H24zM24.4 12.4l.2-.1.2.1h-.4z"/><path fill="#F7DB17" d="m24.8 12.3-.2.1-.2-.1h.4zM24.3 12.4l-.2.1H24l.3-.1zM24.1 12.1l.2.1v.2l-.2-.3zM24.4 12.4l.2.1v.2l-.2-.3z"/><path fill="#F7DB17" d="m24.6 12.7-.2-.1v-.2l.2.3zM24.4 12.4l-.2-.1v-.2l.2.3z"/><path fill="#F7DB17" d="M24.5 12v.2l-.2.1.2-.3zM24.4 12.4v.2l-.2.1.2-.3z"/><path fill="#F7DB17" d="M24.2 12.8v-.2l.2-.1-.2.3zM24.4 12.4v-.2l.2-.1-.2.3z"/><path d="M16 12.4v.2l.2.2-.3.1v.2l-.2-.2-.2.1v-.2l-.2-.2.2-.1.1-.2.2.1h.2z"/></svg>