<svg xmlns="http://www.w3.org/2000/svg" xml:space="preserve" width="40" height="40" baseProfile="tiny" overflow="visible" version="1.2" viewBox="0 0 40 40"><path fill="#FFFFFE" fill-rule="evenodd" stroke="#CFCFCF" stroke-miterlimit="10" stroke-width=".3" d="M1 39h38V1H1v38z"/><path fill="#4E5B31" d="m19.3 32.2-.1-.1c-.1-.1-.2-.2-.3-.4-.2-.2-.4-.5-.4-.5v-.1L18 31l-.4-.2.2-.2.7.3.5.1.9.7s-.1.1-.3.2l-.2.2-.1.1c.1 0 .1 0 0 0m-3.3-1c-.4 0-.9-.1-1.3-.4 0-.1.1-.1.2-.2s.3-.2.7-.2c.4 0 .9.1 1.5.4-.3.3-.7.4-1.1.4zm-1.9-.4c-.1 0-.1 0-.2-.1 0-.1-.1-.1-.1-.2v-.3h.1c.2 0 .3.1.3.3v.2c.1 0 0 .1-.1.1zm3.3-.4c-1.1-.2-1.6-.6-1.8-.9-.1-.2-.2-.4-.2-.6h.2c.3 0 1.1.1 1.8 1.5zm-2.3-.2c-.5 0-.8-.1-1.1-.2-.1-.1-.2-.2-.2-.3v-.1c.2-.1.3-.1.5-.1h.1c.4 0 .9.1 1.5.7h-.8zm-2.2-.1c-.5 0-1.2-.2-1.6-.6.3-.1.6-.1 1-.1h.1c.5 0 .8.1 1.1.3.1 0 .1.1.1.2s0 .1-.1.1-.3.1-.6.1zm-1.6-.8c-.1 0-.1 0-.2-.1 0 0-.1-.1-.1-.2v-.2h.1c.1 0 .1 0 .2.1 0 0 .1.1.1.2v.2c0-.1-.1 0-.1 0zm3.7-.1c-.1 0-.1 0-.2-.1 0-.1-.1-.1-.1-.2v-.3h.1c.2 0 .3.1.3.3v.2c0 .1-.1.1-.1.1zm-1.8-.1c-1 0-1.5-.3-1.8-.5l-.3-.3s0-.1-.1-.2h.2c.5-.1 1.2.1 2 1zm1.1-.1c-.8-.1-1.3-.5-1.5-.7-.1-.2-.3-.3-.3-.6h.2c.5 0 1.2.2 1.6 1.3zm-4.1-.4c-.3 0-.5 0-.8-.1-.4-.1-.6-.3-.7-.4 0 0-.1-.1-.1-.2v-.1c.2-.1.4-.1.7-.1.2 0 .4 0 .5.1.4.1.8.3 1 .6-.1.2-.4.2-.6.2zM12 28c-.1 0-.1 0-.2-.1 0-.1-.1-.1-.1-.2v-.3h.1c.2 0 .3.1.3.3v.2s0 .1-.1.1zm-1.4-.2c-.3-.1-.5-.2-.8-.3-.3-.2-.8-.6-.8-1.2h.1c.1 0 .3 0 .6.2s.6.7.9 1.3zm.9-.1c-.2-.1-.4-.2-.6-.4-.5-.4-.8-.9-1.1-1.5h.2c.2 0 .4.1.6.3.4.4.7.9.9 1.6zm-2.3 0c-.3 0-.4-.2-.4-.2v-.2H9c.2 0 .4.1.5.2 0 0 .1.1 0 .2-.1-.1-.2 0-.3 0zm-.7-.9c-.2 0-.5 0-.7-.1-.3 0-.4-.3-.5-.5-.1-.1-.1-.3-.1-.4.8 0 1.2.3 1.4.5.1.1.2.3.2.4 0 .1-.1.1-.3.1zm.9-.9s-.1-.1-.2-.3c-.1-.1-.2-.2-.2-.4v-.9s.5.2.5.7c-.1.5-.1.9-.1.9zm-.7 0c-.2 0-.4-.1-.7-.3-.3-.2-.6-.4-.7-.6-.2-.1-.3-.4-.3-.7v-.5h.1c.1 0 .2.1.4.2.1.1.3.2.4.3l.5.5s.2.3.3.5c.1.1.1.2.1.4 0 .1 0 .1-.1.2.1 0 .1 0 0 0z"/><path fill="#4E5B31" d="m17.7 32.2.1-.1c.1-.1.2-.2.3-.4.2-.2.4-.5.4-.5v-.1l.5-.1.4-.2-.2-.2-.7.3-.4.1-.9.7s.1.1.3.2c.1.1.1.1.2.3-.1-.1-.1-.1 0 0m3.4-1c.4 0 .9-.1 1.3-.4 0-.1-.1-.1-.2-.2s-.3-.2-.7-.2c-.4 0-.9.1-1.5.4.2.3.6.4 1.1.4zm1.8-.4c.1 0 .1 0 .2-.1 0-.1.1-.1.1-.2v-.3h-.1c-.2 0-.3.1-.3.3v.2s0 .1.1.1zm-3.3-.4c1.1-.2 1.6-.6 1.8-.9.1-.2.2-.4.2-.6h-.2c-.3 0-1 .1-1.8 1.5zm2.3-.2c.5 0 .8-.1 1.1-.2.1-.1.2-.2.2-.3v-.1c-.2-.1-.3-.1-.5-.1h-.1c-.4 0-.9.1-1.5.7h.8zm2.3-.1c.5 0 1.2-.2 1.6-.6-.3-.1-.6-.1-1-.1h-.1c-.5 0-.8.1-1.1.3-.1 0-.1.1-.1.2s0 .1.1.1.2.1.6.1zm1.6-.8c.1 0 .1 0 .2-.1 0 0 .1-.1.1-.2v-.2H26c-.1 0-.1 0-.2.1 0 0-.1.1-.1.2v.2c0-.1 0 0 .1 0zm-3.7-.1c.1 0 .1 0 .2-.1 0-.1.1-.1.1-.2v-.3h-.1c-.2 0-.3.1-.3.3v.2c-.1.1 0 .1.1.1zm1.8-.1c1 0 1.5-.3 1.8-.5l.3-.3s0-.1.1-.2h-.2c-.6-.1-1.2.1-2 1zm-1.1-.1c.8-.1 1.3-.5 1.5-.7.1-.2.3-.3.3-.6h-.2c-.5 0-1.2.2-1.6 1.3zm4.1-.4c.3 0 .5 0 .8-.1.4-.1.6-.3.7-.4 0 0 .1-.1.1-.2v-.1c-.2-.1-.4-.1-.7-.1-.2 0-.4 0-.5.1-.4.1-.8.3-1 .6.1.2.3.2.6.2zM25 28c.1 0 .1 0 .2-.1 0-.1.1-.1.1-.2v-.3h-.1c-.2 0-.3.1-.3.3v.2l.1.1zm1.4-.2c.3-.1.5-.2.8-.3.3-.2.8-.6.8-1.2h-.1c-.1 0-.3 0-.6.2s-.6.7-.9 1.3zm-.9-.1c.2-.1.4-.2.6-.4.5-.4.8-.9 1.1-1.5H27c-.2 0-.4.1-.6.3-.4.4-.7.9-.9 1.6zm2.4 0c.3 0 .4-.2.4-.2v-.2h-.2c-.2 0-.4.1-.5.2 0 0-.1.1 0 .2.1-.1.2 0 .3 0zm.6-.9c.2 0 .5 0 .7-.1.3 0 .4-.3.5-.5.1-.1.1-.3.1-.4-.8 0-1.2.3-1.4.5-.1.1-.2.3-.2.4 0 .1.2.1.3.1zm-.8-.9s.1-.1.2-.3c.1-.2.2-.3.2-.4v-.9s-.5.2-.5.7c0 .5.1.9.1.9zm.6 0c.2 0 .4-.1.7-.3.3-.2.6-.4.7-.6s.2-.4.2-.7v-.5h-.1c-.1 0-.2.1-.4.2-.1.1-.3.2-.4.3l-.5.5s-.2.3-.3.5c-.1.1-.1.2-.1.4.2.1.2.1.2.2z"/><path fill="#D57800" d="m36 6.8-.2.1h-.2l-.2.1-.3.2H34.8v.1l-.1.1H34.4l-.2.1H33.9l-.3.2-.1.1H33.2l-.1.2H32.8l-.1.2-.1.1H32.3v.2h-.1l-.1.1-.1.1h-.1l-.1.1h-.2l-.1.1h-.2L31 9v-.1h-.2l-.2.1h-.2v.1l-.1.1-.1.1-.2.2-.3.3-.3.1-.2.1-.2.2-.5.2-.8.4h-.4l-.3.2-.3.1h-.1l-.5.1H25l-.3.1-.5.2-.2.1-.2.4h-.3v-.1h-.6l-.5.2-.5.1-.3.1h-1.9l-.3-.1h-.5l-.2-.1-.1.1h-.1l-.2-.1h-.1l-.1.1H18l-.1-.1h-.2V12l-.6.1h-.2l-.5-.2h-.1l-.1.1h-.7l-.2-.1h-.4l-.3-.2-.4-.3-.3-.1h-.1v.1l.1.2v.6l.1.1v.7l-.1.5v.1l-.1.3-.1.3-.2.7-.1.1h-.1l-.3.2-.3.1h-.4l-.2-.1h-.2l-.2-.1h-.2l-.2-.1-.1-.1h-.1l-.1-.1H10.7l-.2-.1H10.2l-.2.1H9.7l-.1.1H9v.1l-.1-.1h-.1v.2l-.1.1-.1.1-.1.1-.4.6-.1.2-.2.2-.1.1-.3.2-.4.2-.2.1H6.5l-.2-.1-.3-.2-.3-.2-.4-.4h-.1l-.1-.1H5V16.9l.3.4.1.2.1.1v.1l.1.3-.1.2v.1l-.1.1v.1l.2.3.1.1v.1l-.1.1v.1l.1.1.2.2.1.2.1.1H6.4l.1.1h.1V20.2l.1.3v.2l.1.1v.4l.1.1h.2l.1.1.1.2h.2l.3.4H8v.1l.2-.1h.2l.1.1h.1l.3.1H9l.3.2.1.1.1.1.1.1.2.1h.4l.3.1h.2l.2.1h.2l.1-.1H11.5l.2-.1.1-.1h.5l.3-.1.2.1.2-.1.4.1.1.1.1.1h.1l-.2.1.2.2.1.2.1.3.1.1V24.1l-.1.1h.4l.1-.1h.1l.1.1H14.9l.2.1h.1V24l-.2-.2V23l.1-.1.2-.2.3-.2.2-.1.2-.1.5-.2h.2l1.6.1h.1l.1-.1.2-.1h.1l.2.1h.1l.1-.1h.1l.2-.1h.2l.3-.2.2-.1h.1l.3-.1.2-.1.1-.1H21.5l.1-.1h.2l.1-.1h.1l.1-.1.1-.1.1-.1H23.1L23 20l.1-.1.2-.4v-1l.2-.4.1-.1.2-.1H25l.4.1h.2l.2.1.2.2.1.1h.1l.1-.1.1-.1.1-.1.1-.1.3-.1h.3l.1-.1h.1l.2.1h.5l.2.1h.1l.4.2h.1v.1h.1l.1-.1H29l-.1-.2.1-.1v-.3l-.1-.1-.3-.5-.4-.3-.1-.1-.2-.2-.1-.2v-.1l-.1-.2-.2-.1-.1-.1-.4-.5v-.1h-.2l.1-.1h.1v-.1l-.1-.4v-.1l.1-.6v-.1l.2-.4.1-.1.1-.2.1-.2.1-.1.2-.1H28.1l.3.1H28.7l.2-.1.1-.1v-.1l.1-.3V12l.1-.1.3-.4.3-.2.6-.4.3-.2.1-.1 1.3-.6.3-.3.2-.2.3-.2.4-.1.2-.2.1-.1.1-.3h.1l.1-.1.2-.2 1-.5h.1l.1-.1h.5l.1-.1v-.3l.1-.1v-.4z"/></svg>