<svg xmlns="http://www.w3.org/2000/svg" xml:space="preserve" width="40" height="40" baseProfile="tiny" overflow="visible" version="1.2" viewBox="0 0 40 40"><path fill="#CF142B" fill-rule="evenodd" d="M20 33h19V7H20v26z"/><path fill="#FFFFFE" fill-rule="evenodd" d="M1 33h19V7H1v26z"/><path fill="#FFF" fill-rule="evenodd" d="M5.5 9v1.9c-.3 0-.6.3-.6.6H3v2h1.9c0 .3.3.6.6.6V16h2v-1.9c.3 0 .6-.3.6-.6H10v-2H8.1c0-.3-.3-.6-.6-.6V9h-2z"/><path d="M6.6 12.9c.1 0 .1 0 0 0 .1 0 .1 0 0 0 .1 0 .1 0 0 0 .1 0 .1 0 0 0h.1-.1c.1 0 .1 0 0 0 .1 0 .1 0 0 0z"/><path stroke="#000" stroke-linejoin="round" stroke-miterlimit="3.949" stroke-width=".004" d="M7.2 13.2zm-.2-.1s0-.1 0 0c0-.1 0-.1 0 0 0-.1 0-.1 0 0-.1-.1-.1-.1 0 0l-.1-.1s.1 0 .1.1c0-.1 0-.1 0 0 0 0 0-.1 0 0z"/><path stroke="#000" stroke-linejoin="round" stroke-miterlimit="3.949" stroke-width=".004" d="M6.8 13c.1 0 .1 0 0 0 .1 0 .1 0 0 0h.1-.1c.1 0 .1 0 0 0zm.1.1c0-.1 0-.1 0 0 .1-.1.1-.1 0 0L7 13l-.1.1c.1-.1.1-.1 0 0 .1-.1.1-.1 0 0 .1-.1.1-.1 0 0 0-.1 0-.1 0 0zm.4-.5s-.1 0 0 0c-.1 0-.1 0 0 0zm0 .1zm.2.2s-.1 0 0 0c-.1 0-.1 0 0 0-.1 0-.1 0 0 0-.1 0-.1 0 0 0-.1 0-.1 0 0 0-.1 0-.1 0 0 0-.1 0-.1 0 0 0h-.1.1c-.1 0-.1 0 0 0-.1 0-.1 0 0 0-.1 0-.1 0 0 0-.1 0-.1 0 0 0-.1 0-.1 0 0 0zm-.3-.2c0 .1 0 .1 0 0l.1.1c-.1 0-.1 0-.1-.1 0 .1 0 .1 0 0-.1 0-.1 0 0 0z"/><path d="M7.3 12.8s-.1 0 0 0c-.1 0-.1 0 0 0-.1 0-.1 0 0 0-.1 0-.1 0 0 0-.1 0-.1 0 0 0-.1 0-.1 0 0 0-.1 0-.1 0 0 0-.1 0-.1 0 0 0 0 .1 0 .1 0 0 0 .1 0 .1 0 0 0 .1 0 .1 0 0 0 .1 0 .1 0 0 0 .1.1.1 0 0 .1.1.1.1 0 0 0 .1 0 .1 0 0 0 .1 0 .1 0 0 0 .1 0 .1 0 0 0 .1 0 .1 0 0 0 .1 0 .1 0 0-.1 0-.1 0 0 0 0 0 .1 0 0 0 .1 0 .1 0 0 0 .1 0 .1 0 0 0 .1 0 .1 0 0 0 .1 0 .1 0 0 0 .1 0 .1 0 0 0 .1 0 0 0 0 0zm0 0z"/><path stroke="#000" stroke-linejoin="round" stroke-miterlimit="3.949" stroke-width=".004" d="M7.3 12.7z"/><path fill="none" stroke="#000" stroke-linecap="round" stroke-linejoin="round" stroke-miterlimit="3.949" stroke-width=".007" d="M7 12.8s0 0 0 0v.2m-.2.3c0-.1-.1-.1 0 0-.1-.1-.1-.1 0 0-.1-.1-.1-.1 0 0-.1-.1-.1-.2-.1-.2h-.1m.5.1s0-.1-.2 0"/><path stroke="#000" stroke-linejoin="round" stroke-miterlimit="3.949" stroke-width=".004" d="M7 12.8c-.1 0-.1 0 0 0-.1 0-.1 0 0 0-.1 0-.1 0 0 0l-.1.1.1-.1c-.1 0-.1 0 0 0-.1 0-.1 0 0 0zm-.1-.1s-.1 0 0 0c-.1 0-.1 0 0 0-.1 0-.1 0 0 0-.1 0-.1 0 0 0-.1 0-.1 0 0 0-.1 0-.1 0 0 0zm.3.4c-.1 0-.1 0 0 0-.1 0-.1 0 0 0-.1 0-.1 0 0 0-.1 0-.1 0 0 0zM7.2 13.1c0-.1 0-.1 0 0-.1-.1-.1-.1 0 0-.1-.1-.1-.1 0 0-.1-.1-.1-.1 0 0l-.1-.1.1.1c-.1-.1-.1-.1 0 0-.1-.1 0-.1 0 0 0-.1 0 0 0 0zM7.1 12.8c-.1 0-.1 0 0 0-.1 0-.1 0 0 0-.1 0-.1 0 0 0-.1 0-.1 0 0 0-.1.1-.1.1 0 0-.1.1-.1.1 0 0-.1.1-.1.1 0 0-.1.1 0 .1 0 .1-.1 0-.1 0 0-.1-.1.1-.1.1 0 0-.1 0-.1 0 0 0-.1 0-.1 0 0 0-.1 0-.1 0 0 0zm.3.2c-.1 0-.1 0 0 0-.1 0-.1 0 0 0h-.1.1c-.1 0-.1 0 0 0 0-.1 0-.1 0 0 0-.1 0-.1 0 0 0-.1 0-.1 0 0 0-.1 0 0 0 0zm0 0c0 .1 0 .1 0 0-.1.1-.1.1 0 0-.1.1-.1.1 0 0-.1.1-.1.1 0 0-.1.1-.1 0 0 0-.1 0-.1 0 0 0zm-.2.2c.1 0 .1 0 0 0 .1 0 .1 0 0 0 .1 0 .1 0 0 0 .1 0 .1 0 0 0 .1 0 .1 0 0 0 .1 0 .1 0 0 0 .1 0 .1 0 0 0 .1 0 .1 0 0 0 .1 0 .1 0 0 0zM7.3 13.1s0 .1 0 0c0 .1 0 .1 0 0 0 .1 0 .1 0 0 0 .1 0 .1 0 0 0 .1 0 .1 0 0 0 .1 0 .1 0 0 0 .1 0 .1 0 0 0 .1 0 .1 0 0 0 .1 0 .1 0 0 0 .1 0 .1 0 0 0 .1 0 .1 0 0 0 .1 0 .1 0 0 0 .1 0 .1 0 0 0 .1 0 .1 0 0 0 .1 0 .1 0 0 0 .1 0 .1 0 0 0 .1 0 .1 0 0 0 .1 0 .1 0 0 0 .1 0 .1 0 0z"/><path fill="none" stroke="#000" stroke-linecap="round" stroke-linejoin="round" stroke-miterlimit="3.949" stroke-width=".007" d="m7.3 13.1-.1.1m-.4-.2s0 0 0 0 0 0 0 0c.1.1 0 .1 0 0 .1.1.1 0 .2.1v.1s0-.1.1-.1c0 0 0 0 0 0s0-.1-.1-.1c0 0 0 0 0 0l-.2-.2"/><path stroke="#000" stroke-linejoin="round" stroke-miterlimit="3.949" stroke-width=".004" d="M7.3 13.1c-.1 0-.1 0 0 0-.1.1-.1.1 0 0-.1.1-.1.1 0 0-.1.1-.1.1 0 0-.1.1-.1.1 0 0l-.1.1.1-.1c-.1.1-.1.1 0 0-.1 0-.1 0 0 0zm-.3-.2c-.1 0-.1 0 0 0-.1 0-.1 0 0 0-.1 0-.1 0 0 0zm-.1 0c0-.1 0-.1 0 0l-.1-.1.1.1c0-.1 0-.1 0 0zm-.3-.1c.1 0 .1 0 0 0 .1 0 .1 0 0 0h.1-.1c.1 0 .1 0 0 0zM6.7 12.9c.1 0 .1 0 0 0h.1-.1zm0 .1c.1.1.1.1 0 0 .1.1.1.1 0 0 .1.1.1.1 0 0l.1.1-.1-.1c.1.1.1.1 0 0 .1.1.1.1 0 0 .1.1.1.1 0 0 .1.1.1.1 0 0 0 .1 0 .1 0 0zM6.7 13.1c.1 0 .1 0 0 0 .1 0 .1 0 0 0 .1 0 .1 0 0 0 .1 0 .1 0 0 0 .1 0 .1 0 0 0 .1 0 .1 0 0 0 .1 0 .1 0 0 0 .1 0 .1 0 0 0 .1 0 .1 0 0 0zM6.7 13.1c0 .1 0 .1 0 0 0 .1 0 .1 0 0 0 .1 0 .1 0 0 0 .1 0 .1 0 0 .1.1.1.1 0 0 .1.1.1.1 0 0 .1.1.1.1 0 0 .1.1.1.1 0 0l.1.1-.1-.1c.1.1.1.1 0 0 .1.1.1.1 0 0 .1.1.1.1 0 0 .1.1.1.1 0 0 .1.1.1.1 0 0 0 .1 0 .1 0 0 0 .1 0 .1 0 0 0 .1 0 .1 0 0 0 .1 0 .1 0 0 0 .1 0 .1 0 0zm.1.1c.1 0 .1 0 0 0h.1c0 .1 0 .1-.1 0 0 .1 0 .1 0 0zm-.2 0c0 .1 0 .1 0 0h-.1.1c.1 0 0 0 0 0zM6.4 13.3s.1 0 0 0c.1 0 .1 0 0 0 .1 0 .1 0 0 0 .1 0 .1 0 0 0 .1 0 .1 0 0 0 .1 0 .1 0 0 0 .1 0 .1 0 0 0 .1 0 .1 0 0 0 .1 0 .1 0 0 0 .1 0 .1 0 0 0 .1 0 .1 0 0 0 .1 0 .1 0 0 0 .1 0 .1 0 0 0 .1 0 .1 0 0 0 .1 0 0 0 0 0zm.3 0c0-.1 0-.1 0 0 0-.1 0 0 0 0zm0 0s-.1 0 0 0c-.1 0-.1 0 0 0-.1 0-.1 0 0 0-.1 0-.1 0 0 0-.1 0-.1 0 0 0-.1 0-.1 0 0 0-.1 0-.1 0 0 0-.1 0-.1 0 0 0-.1 0-.1 0 0 0-.1 0-.1 0 0 0-.1 0-.1 0 0 0-.1 0-.1 0 0 0-.1 0-.1 0 0 0zm-.2-.2zm-.1 0c-.1 0-.1 0 0 0-.1 0-.1 0 0 0-.1 0-.1 0 0 0-.1 0-.1 0 0 0-.1 0-.1 0 0 0-.1 0-.1 0 0 0-.1 0-.1 0 0 0-.1 0-.1 0 0 0zm-.2.1s0 .1 0 0c0 .1 0 .1 0 0 0 .1 0 .1 0 0 0 .1 0 .1 0 0 0 .1 0 .1 0 0 0 .1 0 .1 0 0 0 .1 0 .1 0 0 0 .1 0 .1 0 0 0 .1 0 .1 0 0 0 .1 0 .1 0 0 0 .1 0 .1 0 0 0 .1 0 .1 0 0 0 .1 0 .1 0 0 0 .1 0 .1 0 0 0 .1 0 .1 0 0 0 .1 0 .1 0 0z"/><path d="M6.6 12.8h.1-.1zm.2.1h-.1.1c.1 0 0 0 0 0z"/><path stroke="#000" stroke-linejoin="round" stroke-miterlimit="3.949" stroke-width=".004" d="M7.1 12.9c0 .1 0 .1 0 0 .1.1.1.1 0 0v.1-.1c.1.1.1.1 0 0z"/><path d="M6.9 13h-.1.1c-.1 0-.1 0 0 0zm.1 0c-.1 0-.1 0 0 0-.1 0-.1 0 0 0-.1 0-.1 0 0 0-.1 0-.1 0 0 0-.1 0-.1 0 0 0-.1.1-.1.1 0 0-.1.1-.1.1 0 0h-.1c0 .1 0 .1.1 0-.1.1-.1.1 0 0-.1 0-.1 0 0 0-.1 0-.1 0 0 0-.1 0-.1 0 0 0zm0 .1c-.1 0-.1 0 0 0-.1 0-.1 0 0 0-.1 0-.1 0 0 0-.1 0-.1 0 0 0-.1 0-.1 0 0 0-.1 0 0 0 0 0z"/><path stroke="#000" stroke-linejoin="round" stroke-miterlimit="3.949" stroke-width=".004" d="M6.4 13.3c.1 0 .1 0 0 0 .1 0 .1 0 0 0 .1 0 .1 0 0 0 .1 0 .1 0 0 0 .1 0 .1 0 0 0 .1 0 .1 0 0 0 .1 0 .1 0 0 0 .1 0 .1 0 0 0 .1 0 .1 0 0 0zM6.5 13.3h.1-.1c.1 0 .1 0 0 0zm0-.1zm-.1 0c.1 0 .1 0 0 0 .1 0 .1 0 0 0 .1 0 .1 0 0 0 .1 0 .1 0 0 0 .1 0 .1 0 0 0 .1 0 .1 0 0 0zm-.1-.1zm-.2.1c.1 0 .1 0 0 0 .1 0 .1 0 0 0 .1 0 .1 0 0 0 .1 0 .1 0 0 0 .1 0 .1 0 0 0zm0 .1c.1 0 .1 0 0 0 .1 0 .1 0 0 0 0-.1 0 0 0 0zm.1.1c-.1.1-.1.1 0 0-.1.1-.1.1 0 0-.1.1-.1.1 0 0z"/><path fill="none" stroke="#000" stroke-linejoin="round" stroke-miterlimit="3.949" stroke-width=".013" d="M6.3 13.3h-.2l.6.2s-.2-.1-.5-.1v.1h-.1v-.1H6v-.1h-.3c.2.2.5.3.8.3.3 0 .6-.1.8-.3h-1c.1 0 .1 0 0 0z"/><path fill="none" stroke="#000" stroke-linejoin="round" stroke-miterlimit="3.949" stroke-width=".013" d="M7.1 12.5c-.1 0-.2.2-.2.2H7s0-.1.1-.2c0 .1 0 .1 0 0 0 0 .1 0 0 0zm.2.1c-.1 0-.1 0 0 0-.1.1 0 .1 0 .1h-.1l.1.1v.1l-.1-.1h-.1v-.1h-.5H6.9v.1H7c.1 0 0 0 0 .1H6.4v.1h.1s.1.1.1 0v.1h.8l.1-.1.1-.1v-.1l-.1.1-.1.1v-.1s0-.1-.1-.1l.1.1c.1.1.1 0 .1 0l.1-.1h.1-.1c-.1 0-.1 0-.1-.1-.1 0-.2 0-.2-.1.1.1 0 .1 0 0 0 .1 0 .1 0 0 0 .1 0 0 0 0zm-1.1.5c-.1.1-.1.1 0 0 0 .1-.1.1-.1.1h.1v-.1c0 .1 0 .1 0 0 0 .1 0 .1 0 0 0 .1 0 .1 0 0zm-.2.2s0 .1 0 0l.1.1v.1h.1v-.1l-.2-.1zM5.8 13.2l.9.3s-1-.3-.9-.3c-.1 0-.1 0 0 0z"/><path stroke="#000" stroke-linejoin="round" stroke-miterlimit="3.949" stroke-width=".004" d="M6.7 11.8c-.1 0-.1 0 0 0v.1-.1c0 .1 0 .1 0 0l.1.1c0-.1 0-.1-.1-.1zm.3 0z"/><path d="M7 11.8z"/><path stroke="#000" stroke-linejoin="round" stroke-miterlimit="3.949" stroke-width=".004" d="M6.8 12.1h.1-.1c0 .1 0 0 0 0zm.2.3h-.1c0-.1 0-.1.1 0-.1-.1-.1-.1 0 0zm0 0zm0-.1s0 .1 0 0v.1-.1c0 .1 0 .1 0 0 .1.1.1.1 0 0 .1 0 .1 0 0 0 .1 0 .1 0 0 0 .1 0 .1 0 0 0 .1 0 .1 0 0 0 .1 0 .1 0 0 0 .1.1.1.1 0 0 0 .1 0 .1 0 0 0 .1 0 .1 0 0zm.1 0zm.1-.1h.1c0 .1 0 .1-.1 0zM7.4 12.3c0 .1 0 .1 0 0 0 .1 0 .1 0 0 0 .1 0 .1 0 0 0 .1 0 .1 0 0 0 .1 0 .1 0 0 0 .1 0 .1 0 0 0 .1 0 .1 0 0 0 .1.1.1 0 0 0 .1 0 .1 0 0 0 .1 0 .1 0 0zm0 .1zm-.8-.2h.1-.1zm.2.3c.1 0 .1 0 0 0l.1.1c0-.1 0-.1-.1-.1.1 0 0 0 0 0zm.3 0h.1-.1zm.1 0c.1 0 .1 0 0 0 .1 0 .1 0 0 0 .1.1.1.1 0 0l.1.1-.1-.1c.1.1.1.1 0 0 .1 0 0 0 0 0zm.2.2zM7.4 12.6c0 .1 0 .1 0 0 0 .1 0 .1 0 0 0 .1 0 .1 0 0 0 .1 0 .1 0 0 0 .1 0 .1 0 0 0 .1 0 0 0 0zm-1.1 0c0 .1 0 .1 0 0 0 .1 0 .1 0 0 0 .1 0 .1 0 0l-.1.1.1-.1c0 .1 0 .1 0 0 0 .1 0 .1 0 0 0 .1 0 .1 0 0 0 .1 0 .1 0 0 .1 0 .1 0 0 0 .1 0 .1 0 0 0h.1-.1c.1 0 .1 0 0 0 .1 0 .1 0 0 0 .1 0 .1 0 0 0zm0 .1zm-.1.1zm0 0z"/><path stroke="#000" stroke-linejoin="round" stroke-miterlimit="3.949" stroke-width=".004" d="M6.4 12.6s0 .1 0 0c0 .1 0 .1 0 0 0 .1 0 .1 0 0 0 .1 0 .1 0 0 0 .1 0 .1 0 0 0 .1-.1.1 0 0-.1.1-.1.1 0 0-.1.1-.1.1 0 0 0 .1 0 .1 0 0 0 .1 0 .1 0 0 0 .1 0 .1 0 0 0 .1 0 .1 0 0 0 .1 0 .1 0 0 0 .1 0 .1 0 0zm-.2.3c.1 0 .1 0 0 0 .1 0 .1 0 0 0 .1 0 .1 0 0 0h.1-.1c.1.1.1.1 0 0 .1.1.1.1 0 0 .1.1 0 0 0 0z"/><path d="M6.5 12.9s.1 0 0 0c.1 0 .1 0 0 0 .1 0 .1 0 0 0 .1 0 .1 0 0 0 .1 0 .1 0 0 0 .1 0 .1 0 0 0 .1 0 .1 0 0 0 .1 0 .1 0 0 0 .1 0 .1 0 0 0 .1 0 .1 0 0 0 .1.1.1.1 0 0 0 .1 0 .1 0 0 0 .1 0 .1 0 0 0 .1 0 0 0 0z"/><path stroke="#000" stroke-linejoin="round" stroke-miterlimit="3.949" stroke-width=".004" d="M6.2 12.8c.1 0 .1 0 0 0 .1 0 .1 0 0 0 .1 0 .1 0 0 0h.1-.1c.1 0 .1 0 0 0 .1 0 .1 0 0 0 .1 0 .1 0 0 0zm0 0-.1.1c0-.1 0-.1.1-.1zm-.3-.3c0 .1 0 .1 0 0 0 .1 0 .1 0 0 0 .1 0 .1.1.1-.1 0-.1 0-.1-.1 0 .1 0 .1 0 0zM6 12.7c.1 0 .1 0 0 0h.1H6c.1 0 .1 0 0 0zm.2.5s.1 0 0 0c.1 0 .1 0 0 0 .1.1.1.1 0 0 .1.1.1.1 0 0 .1.1.1.1 0 0 .1.1.1.1 0 0 .1.1.1.1 0 0 .1.1.1.1 0 0 .1.1.1.1 0 0 .1.1.1.1 0 0 .1.1.1.1 0 0 .1.1.1 0 0 0 .1 0 .1 0 0 0 .1 0 .1 0 0 0 .1.1.1.1 0 0 .1.1.1.1 0 0 .1.1.1.1 0 0 .1 0 .1 0 0 0 .1 0 0 0 0 0zm.1.1zm-.1-1c0 .1 0 .1 0 0l.1.1c-.1 0-.1 0-.1-.1 0 .1 0 0 0 0zM6.3 12.6l-.1-.1.1.1c-.1-.1-.1 0 0 0-.1 0-.1 0 0 0-.1 0 0 0 0 0zM6 13s.1 0 0 0c.1 0 .1 0 0 0 .1 0 .1 0 0 0 .1 0 .1 0 0 0 .1 0 .1 0 0 0l.1.1L6 13c.1 0 .1 0 0 0 .1 0 .1 0 0 0 .1 0 .1 0 0 0zm-.3-.5c-.1 0-.1 0 0 0-.1 0-.1 0 0 0h-.1.1c-.1 0-.1 0 0 0-.1 0-.1 0 0 0zm0 .2c0 .1 0 .1 0 0v.1-.1c0 .1 0 0 0 0zm-.1.2c0 .1 0 .1 0 0v.1-.1zm0-.2c0 .1 0 .1 0 0 0 .1 0 .1 0 0 0 .1 0 .1 0 0 0 .1 0 .1 0 0v.1-.1c0 .1 0 .1 0 0 0 .1 0 .1 0 0 0 .1 0 .1 0 0 0 .1 0 .1 0 0 0 .1 0 0 0 0zm1.3-1s0 .1 0 0c0 .1 0 .1 0 0l.1.1-.1-.1c.1.1.1.1 0 0 0 .1 0 .1 0 0 0 .1 0 .1 0 0 0 .1 0 .1 0 0 0 .1 0 0 0 0zm-.1 0zm0 0c0 .1 0 .1 0 0 0 .1 0 .1 0 0 0 .1 0 .1 0 0 0 .1 0 .1 0 0 0 .1 0 .1 0 0 0 .1 0 .1 0 0 0 .1 0 .1 0 0 0 .1 0 .1 0 0zm-.2.1s0 .1 0 0l-.1.1.1-.1zm0 .2zm0 0zm0 .1zm.9.3s0 .1 0 0zm-.5 0c-.1 0-.1.1 0 0-.1.1-.1.1 0 0-.1.1-.1.1 0 0-.1.1-.1.1 0 0-.1 0-.1 0 0 0zm.4.3c.1 0 .1 0 0 0 .1 0 .1 0 0 0 .1 0 .1 0 0 0 .1 0 .1 0 0 0 .1 0 .1 0 0 0 .1 0 .1 0 0 0 .1 0 .1 0 0 0 .1 0 .1 0 0 0 .1 0 .1 0 0 0 .1 0 .1 0 0 0 .1 0 .1 0 0 0 .1 0 .1 0 0 0 .1 0 .1 0 0 0zm-1.2-.3c.1 0 .1 0 0 0h.2-.2c.1 0 .1 0 0 0zm.5.2H6.4 6.7zM6.3 12.5c0 .1 0 .1 0 0 0 .1 0 .1 0 0 .1.1.1.1 0 0 0 .1 0 .1 0 0 0 .1 0 .1 0 0 0 .1 0 .1 0 0zm.3.4c.1.1.1.1 0 0 .1.1.1.1 0 0 .1.1.1.1 0 0 .1.1.1.1 0 0 .1.1.1.1 0 0 0 .1 0 .1 0 0 .1.1.1.1 0 0 .1.1.1.1 0 0 .1.1.1.1 0 0 .1.1.1.1 0 0 .1.1.1.1 0 0 0 .1 0 .1 0 0 0 .1 0 0 0 0zm-.3.3c.1.1.1.1 0 0 .1.1.1.1 0 0 .1.1.1.1 0 0 .1.1.1.1 0 0 .1.1.1.1 0 0 .1.1.1.1 0 0 .1.1 0 .1 0 0 0 .1 0 .1 0 0 .1.1.1.1 0 0 .1.1.1.1 0 0 .1.1.1.1 0 0 .1.1.1.1 0 0 .1.1.1.1 0 0 .1.1.1.1 0 0zm-.3-.3c0 .1 0 .1 0 0 0 .1 0 .1 0 0 0 .1 0 .1 0 0 0 .1 0 0 0 0zm-.1-.4v.1-.1c0-.1 0 0 0 0zm-.3 0c-.1 0-.1 0 0 0-.1.1-.1.1 0 0v.1c-.1 0-.1 0 0-.1-.1.1-.1.1 0 0-.1 0-.1 0 0 0zm.1.4c0 .1 0 .1 0 0 0 .1 0 .1 0 0 0 .1 0 .1 0 0v.1-.1c0 .1 0 .1 0 0 0 .1 0 .1 0 0 0 .1 0 .1 0 0 0 .1 0 .1 0 0 0 .1 0 .1 0 0 0 .1 0 .1 0 0 0 .1 0 .1 0 0z"/><path fill-rule="evenodd" stroke="#000" stroke-linecap="round" stroke-linejoin="round" stroke-miterlimit="3.949" stroke-width=".002" d="M6.6 11.7s0 0 0 0m0 0s0 0 0 0m0 0s0 0 0 0m0 0s0 .1 0 0m-.1.1c.1 0 .1 0 0 0m0 0s.1 0 0 0m0 0s.1 0 0 0m0 0s0 0 0 0m0 0s0 0 0 0m0 0c0 .1 0 .1 0 0m0 .1s0 0 0 0m0 0s0 0 0 0m0 0h0m0 .1c0-.1 0-.1 0 0m0 0s0 0 0 0m0 0s0 0 0 0m0 .1s0 0 0 0m0 0c0-.1 0-.1 0 0M6.5 12s0 0 0 0m0 .1s0 0 0 0m0 0s0 0 0 0m0 0s0 0 0 0m0 .1c0-.1 0-.1 0 0m0 0s0 0 0 0"/><path fill="none" stroke="#000" stroke-linecap="round" stroke-linejoin="round" stroke-miterlimit="3.949" stroke-width=".013" d="M6.9 11.9s0 0 0 0h0c.1 0 .1 0 0 0 .1-.1.1-.1 0 0 .1-.1.1 0 .1 0s0 0 0 0 0 0 0 0-.1 0-.1-.1-.1 0-.1 0h-.1v-.1h0v.1l-.1.1v.1m-.1 0h0m.3-.1s0 0 0 0 0 0 0 0c0-.1.1-.1.1-.1s0 .1-.1.1m-.3.2h0c.1 0 .1.1 0 0 0 .1-.1.1-.1.1h.2s0 0 0 0l.1.1.1.1h.5l.1.1s0 0 0 0 0 0 0 0v.1h.1s.1 0 0 0l-.1-.1-.2-.2H7s0 0 0 0l.1-.1h.1l.1.1s0 0 0 0 0 0 0 0 0 0 0 0 0 0 0 0h.2v-.1s0-.1-.1-.1l-.2-.1h-.1l-.1.1c0-.1 0-.1-.1-.1 0-.1-.1-.1-.1-.2m-.6.5h0c-.1 0-.1 0-.2.1l.1.1v.1H6v-.2l-.1.1h-.2c-.1 0-.2 0-.2.1s0 .1.1.2 0 .1 0 .1v.2s0 .1 0 0l.1-.1v-.1s0 0 0 0 .1-.1 0-.1-.1-.1-.1-.1v-.1h.2c0 .1.1.1.1.2H6v.1h0s0 0 0 0l.1.1.1.1s0 0 0 0 0 0 0 0 0 0 0 0h.2l-.1-.1-.1-.1s-.1-.1-.1-.2v-.1h.1v.2h.1s0 0 0 0H6.6v.1h.1s0 0 0 0 0 0 0 0h-.4c-.1 0 0 0 0-.1 0 0 .1-.1.1-.2H6.7l-.1-.1s0-.1-.1-.1h-.2c0-.1 0-.1-.1-.1 0 0 0 0 0 0h0z"/><path fill="none" stroke="#000" stroke-linecap="round" stroke-linejoin="round" stroke-miterlimit="3.949" stroke-width=".013" d="M6.5 11.9v-.1l.1-.1s0 0 0 0 0 0 0 0h0s0 0 0 0 0 0 0 0 0 0 0 0 0 0 0 0 0 0 0 0 0 0 0 0h0s0 0 0 0 0 0 0 0h0s0 0 0 0 0 0 0 0 0 0 0 0 0 0 0 0 0 0 0 0 0 0 0 0 0 0 0 0 0 0 0 0 0 0 0 0 0 0 0 0 0 0 0 0 0 0 0 0 0 0 0 0 0 0 0 0 0 0 0 0 0 0 0 0c-.1.1-.1.1-.1.2 0 0 0 0 0 0s0 0 0 0 0 0 0 0-.1.1 0 0c0 .1 0 .1 0 0m0 .1s0 0 0 0 0 0 0 0 0 0 0 0 0 0 0 0 0 0 0 0m0 .1h0c0-.1 0-.1 0 0m0-.1s0 0 0 0h0zm0 0h0c0 .1 0 .1 0 0 0 .1 0 .1 0 0 0 .1 0 .1 0 0 0 .1 0 .1 0 0v.1s0 0 0 0 0 0 0 0 0 0 0 0h0c.1.1.1 0 0-.1 0 .1 0 .1 0 0"/><path fill="none" stroke="#000" stroke-linecap="round" stroke-linejoin="round" stroke-miterlimit="3.949" stroke-width=".011" d="M6.9 11.8s0 .1 0 0c-.1.1-.1.1-.2.1l-.1.1h-.1s0 0 0 0 0 0 0 0 0 0 0 0h.2c.1 0 .1-.1.2-.1v-.1m-.4.1s0 .1 0 0c0 .1 0 .1 0 0 0 .1 0 .1 0 0 0 .1 0 .1 0 0 0 .1 0 .1 0 0 .1.1.1.1 0 0 .1.1.1.1 0 0 .1 0 .1 0 0 0h0zm0 .1c.1 0 .1 0 0 0 .1 0 .1 0 0 0 0 0 0 0 0 0s0 0 0 0 0 0 0 0z"/><path stroke="#000" stroke-linejoin="round" stroke-miterlimit="3.949" stroke-width=".004" d="M5.6 12h.1-.1zm.4-.3c.1 0 .1 0 0 0 .1 0 .1 0 0 0zm.1 0s.1 0 0 0c.1 0 .1 0 0 0 .1 0 .1 0 0 0 .1 0 .1 0 0 0zm-.3.1c.1 0 .1 0 0 0zm-.1 0c0 .1 0 .1 0 0 0 .1 0 .1 0 0 .1.1.1.1 0 0 .1.1.1.1 0 0 .1.1.1.1 0 0h.1-.1c.1.1.1.1 0 0 .1.1.1.1 0 0 .1.1.1.1 0 0 .1.1 0 .1 0 0 0 .1 0 .1 0 0 0 .1 0 .1 0 0 0 .1 0 0 0 0zM5.8 11.7c.1 0 .1 0 0 0 .1 0 .1 0 0 0 .1 0 .1 0 0 0 .1.1.1.1 0 0 .1.1.1.1 0 0 .1.1.1.1 0 0 .1.1.1.1 0 0 .1 0 .1 0 .1.1l-.1-.1c.1.1.1.1 0 0 .1.1.1 0 0 0 .1 0 .1 0 0 0 .1 0 0 0 0 0zm-.1.2c0 .1 0 0 0 0 0 .1 0 0 0 0zm-.2.3c.1 0 .1 0 0 0h.1-.1c.1 0 .1 0 0 0 .1 0 .1 0 0 0z"/><path d="M6.5 11.7zm-.1.1c0-.1 0 0 0 0zm-.3.1c0-.1 0-.1 0 0 0-.1 0-.1 0 0 .1-.1.1-.1 0 0 .1-.1.1-.1 0 0 0-.1 0-.1 0 0 0-.1 0 0 0 0z"/><path stroke="#000" stroke-linejoin="round" stroke-miterlimit="3.949" stroke-width=".004" d="M6.3 11.7c0 .1 0 .1 0 0v.1-.1c0 .1 0 .1 0 0 0 .1 0 .1 0 0zm-.2.2c.1 0 .1 0 0 0 .1 0 .1 0 0 0 .1 0 .1 0 0 0 .1 0 .1.1 0 0 .1.1.1.1 0 0 .1.1.1.1 0 0l.1.1-.1-.1c.1.1.1.1 0 0 .1.1.1.1 0 0 .1 0 .1 0 0 0zM6.3 12s.1 0 0 0c.1 0 .1 0 0 0z"/><path d="M6.4 12z"/><path stroke="#000" stroke-linejoin="round" stroke-miterlimit="3.949" stroke-width=".004" d="M6.2 12.1c.1 0 .1 0 0 0 .1 0 .1 0 0 0 .1 0 .1 0 0 0 .1 0 .1 0 0 0zm.1 0c.1 0 .1 0 0 0 .1 0 .1 0 0 0 .1 0 .1 0 0 0 .1 0 .1 0 0 0 .1 0 .1 0 0 0zm.1.1c-.1 0-.1 0 0 0-.1 0-.1 0 0 0-.1 0-.1 0 0 0-.1 0-.1 0 0 0-.1 0-.1 0 0 0zm-.2 0c.1-.1.1 0 0 0 .1 0 .1 0 0 0z"/><path d="M5.9 12.2z"/><path stroke="#000" stroke-linejoin="round" stroke-miterlimit="3.949" stroke-width=".004" d="M5.8 12.2zm0 0zm0 0c0 .1 0 0 0 0z"/><path d="M6 12s0-.1 0 0c0-.1 0-.1 0 0 0-.1 0-.1 0 0 0-.1 0-.1 0 0 0-.1 0-.1 0 0 0-.1 0-.1 0 0 0-.1 0-.1 0 0 0-.1 0-.1 0 0 0-.1 0-.1 0 0 0-.1 0-.1 0 0z"/><path stroke="#000" stroke-linejoin="round" stroke-miterlimit="3.949" stroke-width=".004" d="M6.1 12.4s0 .1 0 0c0 .1 0 .1 0 0 0 .1 0 .1 0 0 0 .1 0 .1 0 0 0 .1 0 .1 0 0 0 .1 0 .1 0 0 0 .1 0 .1 0 0zm-.2-.1zM6 12.3c0 .1 0 .1 0 0 0 .1 0 .1 0 0 0 .1 0 .1 0 0 0 .1 0 .1 0 0 0 .1 0 .1 0 0 0 .1 0 .1 0 0 0 .1 0 0 0 0-.1 0-.1 0 0 0z"/><path d="M6.5 12c-.1 0-.1 0 0 0zm0 0c-.1 0 0 0 0 0zM6.5 12c-.1 0 0 0 0 0z"/><path stroke="#000" stroke-linejoin="round" stroke-miterlimit="3.949" stroke-width=".004" d="M6.2 12.3s.1 0 0 0c.1 0 .1 0 0 0 .1 0 .1 0 0 0 .1 0 .1 0 0 0h.1-.1c.1 0 .1 0 0 0 .1 0 .1 0 0 0 .1 0 .1 0 0 0zm.5.2s0 .1 0 0c0 .1 0 .1 0 0 0 .1 0 .1 0 0 0 .1 0 .1 0 0 .1.1.1.1 0 0 .1.1.1.1 0 0 .1.1 0 .1 0 0 0 .1 0 .1 0 0zm.1.1zm-.6-1zm0 0c.1 0 .1 0 0 0 .1 0 .1 0 0 0 .1 0 .1 0 0 0 .1 0 .1 0 0 0 .1 0 .1 0 0 0 .1 0 .1 0 0 0zm.2 0zm0 0z"/><path fill-rule="evenodd" stroke="#000" stroke-linecap="round" stroke-linejoin="round" stroke-miterlimit="3.949" stroke-width=".002" d="M6.6 11.6s0 0 0 0m0-.1c0 .1 0 .1 0 0m0 0s0 .1 0 0h0m0 0s0 0 0 0m0 0s0 0 0 0m-.1 0s0 0 0 0m0 0s0 0 0 0m0 0s0 0 0 0m0 0h0m0 0s0 0 0 0m-.1 0s0 0 0 0m0 0h0m0 0c0 .1 0 .1 0 0"/><path stroke="#000" stroke-linejoin="round" stroke-miterlimit="3.949" stroke-width=".004" d="M6.4 11.6s.1 0 0 0c.1 0 .1 0 0 0 .1.1.1.1 0 0 .1.1.1.1 0 0 .1.1.1.1 0 0 .1.1.1.1 0 0 .1.1.1.1 0 0 .1.1.1.1 0 0 .1.1.1.1 0 0 .1.1.1.1 0 0 .1.1.1.1 0 0 .1 0 .1 0 0 0 .1 0 .1 0 0 0zm.2 0c-.1 0-.1 0 0 0z"/><path d="M6.5 11.7zm0 0zm-.1 0c0 .1 0 .1 0 0 0 .1 0 .1 0 0 0 .1 0 .1 0 0 0 .1 0 .1 0 0 0 .1 0 .1 0 0 0 .1 0 .1 0 0 0 .1 0 .1 0 0z"/><path stroke="#000" stroke-linejoin="round" stroke-miterlimit="3.949" stroke-width=".004" d="M6.2 11.8c.1.1.1.1 0 0 .1.1.1.1 0 0 .1.1.1.1 0 0l.1.1-.1-.1c.1.1.1.1 0 0 .1.1.1.1 0 0 .1.1.1.1 0 0z"/><path stroke="#000" stroke-linejoin="round" stroke-miterlimit="3.949" stroke-width=".006" d="M6.8 12.5h-.1.1zm0 0h-.1.1zm0 .1c0 .1 0 .1 0 0z"/><path stroke="#000" stroke-linejoin="round" stroke-miterlimit="3.949" stroke-width=".004" d="M6.8 12.6c.1 0 .1.1 0 0 .1.1.1.1 0 0 .1.1.1.1 0 0 .1.1.1.1 0 0 .1.1 0 .1 0 0z"/><path d="M6.9 12.7s.1 0 0 0c.1 0 .1 0 0 0 .1 0 .1 0 0 0 .1 0 .1 0 0 0 .1 0 .1 0 0 0 .1 0 .1 0 0 0 .1 0 .1 0 0 0 .1 0 0 0 0 0zm-.4-.9s0 .1 0 0c-.1.1-.1.1 0 0-.1.1-.1.1 0 0-.1.1-.1.1 0 0 0 .1 0 .1 0 0 0 .1 0 .1 0 0 0 .1 0 .1 0 0 0 .1 0 .1 0 0 0 .1 0 .1 0 0-.1.1-.1.1 0 0-.1.1-.1.1 0 0zm-.1.1c.1.1.1.1 0 0 .1.1.1.1 0 0 .1.1.1.1 0 0 0 .1 0 .1 0 0z"/><path stroke="#000" stroke-linejoin="round" stroke-miterlimit="3.949" stroke-width=".004" d="M6.6 12.3c.1 0 .1 0 0 0 .1 0 .1 0 0 0 .1 0 .1 0 0 0 .1.1.1.1 0 0 .1.1.1.1 0 0 .1.1.1.1 0 0 .1 0 .1 0 0 0 .1 0 .1 0 0 0 .1 0 .1 0 0 0zm-.1.3c0 .1 0 .1 0 0 0 .1 0 .1 0 0 0 .1 0 .1 0 0 0 .1 0 .1 0 0 0 .1 0 .1 0 0 0 .1 0 .1 0 0 0 .1 0 .1 0 0 0 .1 0 .1 0 0 0 .1 0 .1 0 0 0 .1 0 .1 0 0 0 .1 0 .1 0 0zm.1-1c-.1 0-.1 0 0 0-.1 0-.1 0 0 0-.1 0-.1 0 0 0l-.1-.1c0 .1 0 .1.1.1-.1 0-.1 0 0 0-.1 0-.1 0 0 0-.1 0-.1 0 0 0-.1 0 0 0 0 0z"/><path fill="none" stroke="#000" stroke-linejoin="round" stroke-miterlimit="3.949" stroke-width=".013" d="M6.7 11.6c-.1 0-.1 0 0 0-.1 0-.1 0 0 0-.1 0-.1-.1-.2-.1 0 0-.1 0-.1.1v.1H6.1 6.4l.1-.1c.1-.1.1-.1.2 0-.1 0 0 0 0 0z"/><path fill="none" stroke="#000" stroke-linejoin="round" stroke-miterlimit="3.949" stroke-width=".011" d="M6.5 11.5s-.1 0-.1.1v.1h.1c.1-.1.1-.1 0-.2.1 0 0 0 0 0z"/><path fill="none" stroke="#000" stroke-linejoin="round" stroke-miterlimit="3.949" stroke-width=".013" d="M6.6 11.7c-.1 0-.1 0 0 0-.1 0-.1 0 0 0-.1 0-.1 0 0 0-.1.1-.1.1-.1 0h-.2l-.1.1-.1.1s-.1 0-.1.1l-.1.2s-.1 0-.1.1l.1-.1v-.1L6 12h.1v.4h.4l.1.1.1.1v.1h.2-.1s-.1 0-.1-.1v-.1l-.1-.1s0-.1-.1-.1H6.2v-.5c.3-.1.3 0 .4-.1l-.1.1.1-.1c-.1.1-.1 0 0 0-.1 0-.1 0 0 0-.1 0-.1 0 0 0z"/><path fill="none" stroke="#000" stroke-linejoin="round" stroke-miterlimit="3.949" stroke-width=".013" d="M6.1 11.7c-.1 0-.1 0 0 0h-.5v.1h-.1v.1l-.1.1.1.1h.1v-.2l.1-.1.4-.1zm0 .2s-.1 0 0 0L6 12v.1-.1c.1 0 .1 0 .1-.1 0 .1 0 .1 0 0z"/><path fill="none" stroke="#000" stroke-linejoin="round" stroke-miterlimit="3.949" stroke-width=".011" d="M6.5 12c-.1 0-.1 0 0 0-.1 0-.1 0 0 0-.1 0-.1 0 0 0-.1 0-.1 0 0 0-.1 0 0 0 0 0z"/><path fill="none" stroke="#000" stroke-linejoin="round" stroke-miterlimit="3.949" stroke-width=".013" d="M5.8 12.1s-.1.1 0 0c-.1.1 0 .1 0 0 0 .1 0 .1 0 0zm.1.1c-.1.1-.1.1 0 0 0 .1 0 0 0 0zM5.9 12.3l.2.3h.1v-.1l-.3-.2zM6.6 12.6c-.1.1-.1.1 0 0-.1.1 0 .1 0 0 0 .1 0 .1 0 0z"/><path fill="none" stroke="#000" stroke-linecap="round" stroke-linejoin="round" stroke-miterlimit="3.949" stroke-width=".011" d="M6.5 12s0 0 0 0c-.1 0 0-.1 0 0 0-.1 0-.1 0 0 0-.1 0-.1 0 0v-.1s0 0 0 0 0 0 0 0 0 0 0 0h0s0 0 0 0c-.1-.1-.1 0 0 .1-.1-.1-.1-.1 0 0-.1-.1-.1 0 0 0-.1 0-.1 0 0 0h0s0 0 0 0"/><path d="M6.5 13.8c.1 0 .1 0 0 0 .1 0 0 0 0 0 0 .1 0 .1 0 0 0 .1 0 .1 0 0 0 .1 0 .1 0 0 0 .1 0 .1 0 0 0 .1 0 .1 0 0 0 .1 0 .1 0 0-.1 0-.1 0 0 0-.1 0-.1 0 0 0z"/><path d="M6.5 13.7c-.1 0-.1 0 0 0-.1 0-.1 0 0 0-.1.1 0 .1 0 .1h-.1v.2h.2v-.2h-.1v-.1c.1 0 0 0 0 0zm0 0s0 .1 0 0c0 .1 0 0 0 0 .1 0 .1 0 .1.1l-.1-.1.1.1c-.2 0-.2 0-.1-.1-.1.1-.1.1 0 0-.1.1-.1.1 0 0-.1.1-.1.1 0 0-.1 0 0 0 0 0z"/><path fill-rule="evenodd" d="M6.5 13.6c0 .1 0 .1 0 0 0 .1 0 .1 0 0 0 .1 0 .1 0 0 0 .1 0 .1 0 0 0 .1 0 .1 0 0v.1-.1c0 .1 0 .1 0 0 0 .1 0 .1 0 0 0 .1 0 .1 0 0zm-.2.2c.1 0 .1 0 0 0 .1 0 .1 0 0 0 .1 0 .1 0 0 0 .1 0 .1 0 0 0 .1 0 .1 0 0 0 .1 0 .1 0 0 0 .1 0 .1 0 0 0 .1 0 .1 0 0 0zm.4 0c-.1 0-.1 0 0 0-.1 0-.1 0 0 0-.1 0-.1 0 0 0-.1 0-.1 0 0 0-.1 0-.1 0 0 0-.1 0-.1 0 0 0-.1 0-.1 0 0 0-.1 0-.1 0 0 0zm-.2 0zm-.1 0c.1 0 .1 0 0 0zm.2 0c-.1 0-.1 0 0 0-.1 0 0 0 0 0zm-.1.1zm0 0zm.1 0c-.1 0-.1 0 0 0-.1 0-.1 0 0 0-.1 0-.1 0 0 0-.1 0-.1 0 0 0-.1 0-.1 0 0 0-.1 0-.1 0 0 0 0 .1 0 .1 0 0 0 .1 0 .1 0 0zm-.2 0c0 .1 0 .1 0 0 0 .1 0 .1 0 0 .1 0 .1 0 0 0 .1 0 .1 0 0 0 .1 0 .1 0 0 0 .1 0 .1 0 0 0 .1 0 .1 0 0 0z"/><path fill="none" stroke="#000" stroke-linecap="round" stroke-linejoin="round" stroke-miterlimit="10" stroke-width=".017" d="M7.9 11.5h0c-.3 0-.4 0-.4-.2-.1-.1-.1-.3-.1-.4.2 0 .3.1.4.1.1.2.2.4.1.5h0c0-.2 0-.3-.1-.3-.1-.1-.3-.2-.3-.1-.1.1 0 .2 0 .3s.2.2.3.2c0-.1.1-.1.1-.1h0z"/><path fill="none" stroke="#000" stroke-linecap="round" stroke-linejoin="round" stroke-miterlimit="10" stroke-width=".017" d="M7.9 11.2c-.1 0-.1 0 0 0-.1 0-.2 0-.2.1v-.2h-.1c0 .1 0 .2-.1.2 0 0 0 0 0 0s0 0 0 0c.1 0 .3-.1.4-.1 0 0 0 0 0 0h0zM7.9 11.3l-.2.2h.1c0-.1.1-.2.1-.2s0 0 0 0zM7.5 13.9h0c0-.3 0-.4.2-.4.1-.1.3-.1.4-.1 0 .2-.1.3-.1.4-.2.1-.4.2-.5.1h0c.2 0 .3 0 .3-.1s.2-.3.1-.3c-.1-.1-.2 0-.3 0s-.2.2-.2.3c.1 0 .1.1.1.1h0z"/><path fill="none" stroke="#000" stroke-linecap="round" stroke-linejoin="round" stroke-miterlimit="10" stroke-width=".017" d="M7.8 13.9c0-.1 0-.1 0 0 0-.1 0-.2-.1-.2h.2v-.1c-.1 0-.2 0-.2-.1 0 0 0 0 0 0s0 0 0 0c0 .1.1.3.1.4 0 0 0 0 0 0h0zM7.7 13.9l-.2-.2v.1c.1 0 .2.1.2.1s0 0 0 0zM5.1 13.5h0c.3 0 .4 0 .4.2.1.1.1.3.1.4-.2 0-.3-.1-.4-.1-.1-.2-.2-.4-.1-.5h0c0 .2 0 .3.1.3.1.1.3.2.3.1.1-.1 0-.2 0-.3-.1-.1-.2-.2-.3-.2 0 .1-.1.1-.1.1h0z"/><path fill="none" stroke="#000" stroke-linecap="round" stroke-linejoin="round" stroke-miterlimit="10" stroke-width=".017" d="M5.1 13.8c.1 0 .1 0 0 0 .1 0 .2 0 .2-.1v.2h.1c0-.1 0-.2.1-.2 0 0 0 0 0 0s0 0 0 0c-.1 0-.3.1-.4.1 0 0 0 0 0 0h0zM5.1 13.7l.2-.2h-.1c0 .1-.1.2-.1.2s0 0 0 0zM5.5 11.1h0c0 .3 0 .4-.2.4-.1.1-.3.1-.4.1 0-.2.1-.3.1-.4.2-.1.4-.2.5-.1h0c-.2 0-.3 0-.3.1s-.2.2-.1.3c.1.1.2 0 .3 0s.2-.2.2-.3c-.1 0-.1-.1-.1-.1h0z"/><path fill="none" stroke="#000" stroke-linecap="round" stroke-linejoin="round" stroke-miterlimit="10" stroke-width=".017" d="M5.2 11.1c0 .1 0 .1 0 0 0 .1 0 .2.1.2h-.2v.1c.1 0 .2 0 .2.1 0 0 0 0 0 0s0 0 0 0c0-.1-.1-.3-.1-.4 0 0 0 0 0 0h0zM5.3 11.1l.2.2v-.1c-.1 0-.2-.1-.2-.1s0 0 0 0z"/><path d="M5.3 13.3c0-.1-.1-.1-.1-.2 0 .1.1.1.1.2l.1-.1s0-.1-.1-.1v.1s.1 0 .1-.1v.1c.1 0-.1.1-.1.1zm-.1-.7c-.1 0-.1.1-.1.2s.1.1.2.1.1-.1.1-.2c-.1 0-.1-.1-.2-.1zm0 .1c.1 0 .1 0 .1.1s0 .1-.1.1-.1 0-.1-.1 0-.1.1-.1zm.2-.6c0 .1-.1.1-.2.1 0 0 0-.1-.1-.1H5v.1h.3v-.1h-.1l.1-.1c0 .3.1.2.1.1zm-.2.3h-.1c0-.1 0-.1.1 0 0-.1 0-.1 0 0zm.3-.9-.1.1v.1h.1s.1 0 .1-.1c0 0 0-.1-.1-.1.1.1.2.1.2.1 0 .1-.1.1-.1.1h-.2c-.1-.1 0-.1 0-.2h.1zm.3-.3V11.5h.1v-.1l.1-.1v.1h.1c-.1 0-.1-.1-.1-.1l-.2-.1zm.1.1v.1-.1zm.5-.2v.2c.1 0 .1 0 .1-.1v.1h-.2c0-.1 0-.2.1-.2zm1.1.7c0-.1.2-.1.2-.2l-.1.3c.1 0 .1-.1.2-.1v.1c-.1 0-.2.1-.3.1v-.3c.1 0 0 .1 0 .1zm.4.4s0-.1 0 0v-.1.2h-.1c.1 0 .1 0 .1-.1-.1.1-.2.1-.2.1v-.1c0 .1.1.1.2 0zm-.4.8c0 .1 0 .1.1.1 0 0 .1.1.1.2l.1-.1s-.1 0-.1-.1h.2L8 13c-.1 0-.2.1-.2.1-.2 0-.3 0-.3-.1zm-.1-1.7-.2.1h-.1.1l.1-.1.1.1v.1l.1.1v-.1l-.1-.2zm-.1.1v.1l-.1-.1h.1zm-.5-.3s-.1.1-.1.2h.1v.1h-.2c.1-.2.2-.3.2-.3zm.8 1.8c0-.1.1-.1.2-.1 0 0 0 .1.1.1H8v-.1h-.3v.1h.1l-.1.1c0-.3-.1-.2-.1-.1zm.2-.3h.1c0 .1 0 .2-.1 0 0 .1 0 .1 0 0z"/><path fill="none" stroke="#CF142B" stroke-miterlimit="3.949" stroke-width=".119" d="M10 11.5H8.1c0-.3-.3-.6-.6-.6V9h-2v1.9c-.3 0-.6.3-.6.6H3v2h1.9c0 .3.3.6.6.6V16h2v-1.9c.3 0 .6-.3.6-.6H10v-2z"/><path fill-rule="evenodd" stroke="#000" stroke-linejoin="round" stroke-miterlimit="3.949" stroke-width=".006" d="M5.7 9.2v2-2h1.6v2-2H5.7zm-2.5 2.5v1.7h2-2v-1.7h2-2zm4.6 0h2v1.6h-2 2v-1.6h-2zm-2.1 2.1v2h1.6v-2 2H5.7v-2zm-.1-4.7v2-2h1.9V11 9.1H5.6zm1.8 2v.2-.2zm-1.8.1zm-2.5.4v1.9h2-2v-1.9H5 3.1zm2.1 0h.1-.1zm2.5 0zm.2 0h2v1.9H8h1.9v-1.9h-2zm-2.7 1.8zm2.5 0h.1-.1zm-.3.3zm-1.8 0v.1-.1zm1.8.2v2H5.6V14v1.9h1.9l-.1-2z"/><circle cx="6.5" cy="12.5" r="1.1" fill="none" stroke="#000" stroke-linejoin="round" stroke-miterlimit="3.949" stroke-width=".021"/><circle cx="7.2" cy="13.6" r=".1"/><circle cx="5.8" cy="13.6" r=".1"/><circle cx="6.5" cy="12.5" r="1.5" fill="none" stroke="#000" stroke-linejoin="round" stroke-miterlimit="3.949" stroke-width=".021"/></svg>