<svg xmlns="http://www.w3.org/2000/svg" xml:space="preserve" width="40" height="40" baseProfile="tiny" overflow="visible" version="1.2" viewBox="0 0 40 40"><path fill="#CF142B" fill-rule="evenodd" d="M20 39h19V1H20v38z"/><path fill="#FFFFFE" fill-rule="evenodd" d="M1 39h19V1H1v38z"/><path fill="#FFF" fill-rule="evenodd" d="M8.9 5v3c-.5 0-.9.4-.9.9H5v3.2h3c0 .5.4.9.9.9v3h3.2v-3c.5 0 .9-.5.9-.9h3V8.9h-3c0-.5-.5-.9-.9-.9V5H8.9z"/><path d="M10.7 11.1c.1 0 .1 0 0 0 .1 0 .1 0 0 0h.1-.1c.1 0 .1 0 0 0z"/><path stroke="#000" stroke-linejoin="round" stroke-miterlimit="3.949" stroke-width=".007" d="M11.7 11.6c0-.1 0-.1 0 0 0-.1 0 0 0 0zm-.4-.2c0-.1 0-.1 0 0-.1-.1-.1-.1 0 0v-.1.1c0-.1 0-.1 0 0zM11 11.3h.1-.1c.1 0 .1 0 0 0zm.1.1c.1 0 .1 0 0 0l.1-.1c0 .1 0 .1-.1.1.1 0 .1 0 0 0zm.6-.7zm.1.1c-.1 0-.1 0 0 0-.1 0-.1 0 0 0-.1 0-.1 0 0 0-.1 0-.1 0 0 0-.1 0-.1 0 0 0-.1 0-.1 0 0 0-.1 0-.1 0 0 0zm.2.3s-.1 0 0 0c-.1 0-.1 0 0 0-.1 0-.1 0 0 0h-.1.1c-.1 0-.1 0 0 0zm-.5-.3c.1 0 .1 0 0 0 .1.1.1.1 0 0l.1.1-.1-.1z"/><path d="M11.7 10.9c0 .1 0 .1 0 0 0 .1 0 .1 0 0 0 .1 0 .1 0 0 0 .1 0 .1 0 0 0 .1 0 .1 0 0 0 .1 0 .1 0 0 0 .1 0 .1 0 0 0 .1 0 .1 0 0 0 .1 0 .1 0 0 0 .1 0 .1 0 0 0 .1 0 .1 0 0h-.1.1c0 .1 0 .1 0 0 0 .1 0 .1 0 0l-.1.1.1-.1c0 .1 0 .1 0 0 0 .1 0 .1 0 0 0 .1 0 .1 0 0 0 .1 0 .1 0 0 0 .1 0 .1 0 0 0 .1 0 .1 0 0 0 .1 0 .1 0 0 0 .1 0 .1 0 0 0 .1 0 .1 0 0 0 .1 0 .1 0 0 .1.1.1.1 0 0 .1.1.1.1 0 0 .1.1.1.1 0 0l.1.1-.1-.1c.1.1.1.1 0 0 .1.1.1.1 0 0 .1.1.1.1 0 0 .1.1.1 0 0 0zm0 .1z"/><path stroke="#000" stroke-linejoin="round" stroke-miterlimit="3.949" stroke-width=".007" d="M11.8 10.8z"/><path fill="none" stroke="#000" stroke-linecap="round" stroke-linejoin="round" stroke-miterlimit="3.949" stroke-width=".011" d="M11.4 11c-.1 0-.1.1-.1.1s.1.1 0 .2m-.4.4s0 0 0 0h-.2l.1-.1c0-.1-.1-.1-.1-.1s-.1-.1-.2 0m.9.2s-.1-.2-.3-.1"/><path stroke="#000" stroke-linejoin="round" stroke-miterlimit="3.949" stroke-width=".007" d="M11.3 10.9c-.1 0-.1.1 0 0-.1.1-.1.1 0 0-.1.1-.1.1 0 0-.1.1-.1.1 0 0l-.1.1.1-.1c-.1.1-.1.1 0 0-.1 0 0 0 0 0zm-.2-.1c0 .1-.1.1 0 0-.1.1-.1.1 0 0-.1.1-.1.1 0 0-.1.1-.1.1 0 0-.1.1-.1.1 0 0-.1.1-.1.1 0 0 0 .1 0 .1 0 0zm.5.6h-.1.1c-.1.1-.1.1 0 0zM11.6 11.4c-.1 0-.1 0 0 0-.1-.1-.1-.1 0 0l-.1-.1.1.1c-.1-.1-.1-.1 0 0zM11.4 11c-.1 0-.1 0 0 0-.1 0-.1 0 0 0-.1 0-.1 0 0 0-.1 0-.1 0 0 0l-.1.1.1-.1c-.1 0-.1 0 0 0-.1 0-.1 0 0 0-.1 0-.1 0 0 0zm.6.2c-.1 0-.1 0 0 0-.1 0-.1 0 0 0-.1 0-.1 0 0 0-.1 0-.1 0 0 0-.1 0-.1 0 0 0-.1 0-.1 0 0 0-.1 0-.1 0 0 0-.1 0-.1 0 0 0-.1 0-.1 0 0 0-.1 0-.1 0 0 0-.1.1-.1.1 0 0-.1.1-.1.1 0 0l-.1.1.1-.1c-.1.1-.1.1 0 0-.1.1-.1 0 0 0-.1 0-.1 0 0 0-.1 0-.1 0 0 0-.1 0-.1 0 0 0-.1 0-.1 0 0 0-.1 0-.1 0 0 0-.1 0-.1 0 0 0-.1 0-.1 0 0 0-.1 0-.1 0 0 0zm-.1.1s0 .1 0 0c0 .1 0 .1 0 0 0 .1 0 .1 0 0-.1.1-.1.1 0 0-.1.1-.1.1 0 0-.1.1-.1.1 0 0-.1.1-.1.1 0 0-.1.1-.1.1 0 0 0 .1 0 .1 0 0 0 .1 0 .1 0 0 0 .1 0 .1 0 0 0 .1 0 0 0 0 0 .1 0 0 0 0zm-.3.4c.1-.1.1-.1 0 0 .1-.1.1-.1 0 0 .1-.1.1-.1 0 0 .1-.1.1-.1 0 0l.1-.1-.1.1c.1-.1.1-.1 0 0 .1-.1.1-.1 0 0 .1-.1.1-.1 0 0 .1-.1.1-.1 0 0 .1 0 .1 0 0 0zM11.7 11.5c0 .1 0 .1 0 0 .1.1 0 .1 0 0 .1.1.1.1 0 0 .1.1.1.1 0 0l.1.1-.1-.1c.1.1.1.1 0 0 .1.1.1.1 0 0 .1.1.1.1 0 0 .1.1.1 0 0 0 .1 0 .1 0 0 0 .1 0 .1.1 0 0 .1.1.1.1 0 0 .1.1.1.1 0 0 .1.1.1.1 0 0z"/><path fill="none" stroke="#000" stroke-linecap="round" stroke-linejoin="round" stroke-miterlimit="3.949" stroke-width=".011" d="M11.8 11.5c-.1 0-.2.1-.2.1m-.7-.3s0 0 0 0 .1 0 0 0c.2.1.1.1.1.1s.1-.1.1 0v.1l.1-.1h.1s0-.1-.1-.2c0 0 0 0 0 0 0-.1-.1-.2-.3-.3"/><path stroke="#000" stroke-linejoin="round" stroke-miterlimit="3.949" stroke-width=".007" d="M11.7 11.5c-.1 0-.1 0 0 0-.1 0-.1 0 0 0-.1.1-.1.1 0 0l-.1.1.1-.1c-.1 0 0 0 0 0zm-.4-.3s-.1 0 0 0c-.1-.1-.1-.1 0 0-.1-.1-.1-.1 0 0-.1-.1-.1-.1 0 0-.1-.1-.1-.1 0 0 0-.1 0-.1 0 0 0-.1 0 0 0 0zm-.2-.1c0-.1 0-.1 0 0V11v.1c0-.1 0-.1 0 0zm-.5-.1c.1 0 .1 0 0 0 .1 0 .1 0 0 0h.1-.1c.1 0 .1 0 0 0 .1 0 .1 0 0 0 .1 0 .1 0 0 0 .1 0 .1 0 0 0 .1 0 .1 0 0 0zM10.8 11.1h.1-.1c.1 0 .1 0 0 0zm.1.3.1.1-.1-.1s0-.1 0 0z"/><path stroke="#000" stroke-linejoin="round" stroke-miterlimit="3.949" stroke-width=".007" d="M10.9 11.4c0 .1 0 .1 0 0 0 .1 0 .1 0 0 0 .1 0 .1 0 0 0 .1 0 .1 0 0l.1.1c-.1 0-.1 0-.1-.1 0 .1 0 .1 0 0 0 .1 0 .1 0 0-.1 0-.1 0 0 0-.1 0-.1 0 0 0zM10.8 11.5s.1 0 0 0c.1 0 .1 0 0 0 .1 0 .1 0 0 0 .1 0 .1 0 0 0 .1 0 .1 0 0 0 .1 0 .1 0 0 0 .1 0 .1 0 0 0 .1 0 .1 0 0 0 .1.1.1.1 0 0 .1.1.1.1 0 0 .1.1.1.1 0 0l.1.1-.1-.1c.1.1.1.1 0 0 .1.1.1.1 0 0 .1 0 .1 0 0 0 .1 0 .1 0 0 0 .1 0 .1 0 0 0 .1 0 .1 0 0 0 .1 0 .1 0 0 0 .1 0 .1 0 0 0zm.1.1c0 .1.1.1 0 0 .1.1.1.1 0 0 .1.1.1.1 0 0 .1.1.1.1 0 0h.1-.1c.1.1.1.1 0 0 .1.1.1.1 0 0 0 .1 0 .1 0 0 0 .1 0 0 0 0zm-.2.1h-.1.1zM10.4 11.7c.1 0 .1 0 0 0 .1 0 .1 0 0 0 .1 0 .1 0 0 0 .1 0 .1 0 0 0 .1 0 .1 0 0 0 .1 0 .1 0 0 0zm.4 0s-.1 0 0 0c-.1 0-.1 0 0 0-.1 0-.1 0 0 0-.1 0-.1 0 0 0-.1 0-.1 0 0 0-.1 0-.1 0 0 0zm0 .1c-.1 0-.1 0 0 0-.1 0-.1 0 0 0-.1 0-.1 0 0 0h-.1.1c-.1 0-.1 0 0 0-.1 0-.1 0 0 0h-.1.1c-.1 0-.1 0 0 0-.1 0-.1 0 0 0zm-.3-.4c-.1 0-.1 0 0 0-.1 0 0 0 0 0zm-.2 0s-.1.1 0 0c0 0 0 .1 0 0 0 .1 0 .1 0 0v.1-.1c0 .1 0 .1 0 0zm-.2.3s-.1 0 0 0c-.1 0-.1 0 0 0-.1 0-.1 0 0 0-.1 0-.1 0 0 0-.1 0-.1 0 0 0-.1 0-.1 0 0 0-.1 0-.1 0 0 0-.1 0-.1 0 0 0-.1 0-.1 0 0 0-.1 0 0 0 0 0-.1 0-.1 0 0 0-.1 0-.1 0 0 0-.1 0-.1 0 0 0-.1 0-.1 0 0 0z"/><path d="M10.6 10.9s.1 0 0 0h.1-.1zm.4.3h-.1.1c.1 0 0 0 0 0z"/><path stroke="#000" stroke-linejoin="round" stroke-miterlimit="3.949" stroke-width=".007" d="M11.5 11.1s0 .1 0 0v.1-.1c0 .1 0 .1 0 0-.1 0-.1 0 0 0-.1 0-.1 0 0 0z"/><path d="M11.2 11.2c-.1 0-.1 0 0 0h-.1.1c-.1 0-.1 0 0 0-.1 0 0 0 0 0zm0 .1c-.1 0-.1 0 0 0h-.1.1c-.1 0-.1 0 0 0zm0 .1c0 .1 0 .1 0 0 0 .1 0 .1 0 0 0 .1 0 .1 0 0 0 .1 0 .1 0 0 0 .1 0 .1 0 0 .1 0 0 0 0 0z"/><path stroke="#000" stroke-linejoin="round" stroke-miterlimit="3.949" stroke-width=".007" d="M10.4 11.8c.1 0 .1 0 0 0 .1 0 .1 0 0 0 .1 0 .1 0 0 0 .1 0 .1 0 0 0 .1 0 .1 0 0 0zM10.5 11.8h.1-.1zm0-.2zm-.2-.1c0 .1 0 .1 0 0 0 .1 0 .1 0 0h.1-.1c.1.1.1.1 0 0 0 .1 0 .1 0 0 0 .1 0 .1 0 0zm-.2 0s.1 0 0 0c.1 0 .1 0 0 0h.1-.1c.1 0 .1 0 0 0 .1 0 .1 0 0 0zm-.2.1c.1 0 .1 0 0 0 .1 0 .1 0 0 0 .1.1.1.1 0 0 .1.1.1.1 0 0 .1.1.1.1 0 0zm0 .1c.1 0 .1 0 0 0 .1 0 .1 0 0 0zm.1.2c0 .1 0 .1 0 0 0 .1 0 .1 0 0 0 .1 0 .1 0 0 0 .1 0 .1 0 0-.1.1-.1.1 0 0-.1.1-.1.1 0 0-.1.1-.1.1 0 0 0 .1 0 .1 0 0 0 .1 0 .1 0 0 0 .1 0 .1 0 0 0 .1 0 .1 0 0 0 .1 0 .1 0 0 0 .1 0 .1 0 0 0 .1 0 0 0 0z"/><path fill="none" stroke="#000" stroke-linejoin="round" stroke-miterlimit="3.949" stroke-width=".02" d="M10.3 11.8h-.5l.9.3s-.4-.1-.7-.2v.2H9.7s0-.1.1-.1h.1-.2c-.1 0-.1-.1-.1-.1h-.5c.3.3.8.5 1.2.5.4 0 .9-.2 1.2-.5h-.8.1H10.2c-.1 0-.1 0-.1-.1h.2z"/><path fill="none" stroke="#000" stroke-linejoin="round" stroke-miterlimit="3.949" stroke-width=".02" d="M11.4 10.6c-.1 0-.2.2-.3.3h.1v-.1l.2-.2c.1 0 .1 0 0 0zm.3.1c-.1 0-.1.1-.1.1l.1.1h-.2v.1s.1 0 .1.1v.1c0-.1-.1-.1-.1-.1h-.1V11H11.1v.1h-.5.1v.1h.2v.1h.1s.1.1 0 .1h.1v.1h-.4c-.1 0-.2 0-.3.1h-.2l.1.1h.1s.1.1.2.1c0 0-.1.1 0 .1 0 0 0 .1.1.1h.3s.1.1.2 0h.1-.2.6s.1 0 .1-.1c0 0 0 .1.1 0 0 0 0 .1.1.1l.1-.1v-.1l.1-.1s0-.1.1-.1h.1v-.1h-.2l-.1.1s-.1.1-.2.1v-.2c0-.1-.1-.1-.1-.2l.1.1h.2c.1 0 .1-.1.1-.1h.2s-.4-.2-.4-.3l-.1-.1v-.1c-.1-.1-.1-.1-.2-.1.1 0 0 0 0 0zm-1.7.8v.1c-.1 0-.2 0-.2.1h.2s.1 0 .1-.1c-.1.1-.1 0-.1-.1 0 .1 0 0 0 0zm-.3.3c0 .1 0 .1.1.1h.2-.1l-.1.1H10.1s.1-.1 0-.2h-.4z"/><path fill="none" stroke="#000" stroke-linejoin="round" stroke-miterlimit="3.949" stroke-width=".02" d="m9.3 11.6 1.5.5s-1.5-.4-1.5-.5z"/><path stroke="#000" stroke-linejoin="round" stroke-miterlimit="3.949" stroke-width=".007" d="M10.7 9.3c.1 0 .1 0 0 0 .1 0 .1 0 0 0 .1.1.1.1 0 0 .1.1.1.1 0 0 .1.1.1.1 0 0 .1.1.1.1 0 0v.1c.1 0 .1 0 0-.1.1.1.1.1 0 0l.1.1-.1-.1c.1.1.1.1 0 0 .1.1.1.1 0 0 .1 0 .1 0 0 0 .1 0 .1 0 0 0zm.6.1c.1 0 .1 0 0 0z"/><path d="M11.3 9.4c.1 0 .1 0 0 0 .1 0 .1 0 0 0z"/><path stroke="#000" stroke-linejoin="round" stroke-miterlimit="3.949" stroke-width=".007" d="M11 9.9h.1-.1c0 .1 0 0 0 0zm.3.4s-.1 0 0 0c-.1 0-.1 0 0 0-.1 0-.1 0 0 0l-.1-.1c0 .1 0 .1.1.1-.1 0-.1 0 0 0-.1 0-.1 0 0 0zm.1.1c-.1 0-.1 0 0 0h-.1.1zm-.1-.2v.1c.1 0 .1 0 0-.1l.1.1-.1-.1.1.1-.1-.1zm.1 0zm.2-.1h.1-.1zM11.9 10.2c0 .1 0 .1 0 0 .1.1.1.1 0 0 .1.1.1.1 0 0 .1.1.1.1 0 0 .1.1.1.1 0 0l.1.1-.1-.1.1.1-.1-.1c.1.1.1.1 0 0 .1.1.1.1 0 0 .1 0 .1 0 0 0zm.1.2zm-1.4-.4.1.1h.2-.1c-.1 0-.1 0-.2-.1.1.1 0 .1 0 0zm.4.4c0 .1 0 .1 0 0 0 .1 0 .1 0 0 0 .1 0 .1 0 0 0 .1 0 .1 0 0l.1.1h.1H10.9c.1 0 .1 0 .1-.1 0 .1 0 .1 0 0-.1 0 0 0 0 0zm.4.1s.1 0 0 0h.2-.2c.1 0 0 0 0 0zm.2 0c.1 0 .1 0 0 0 .1 0 .1 0 0 0 .1 0 .1.1 0 0 .1.1.1.1 0 0l.1.1-.1-.1c.1.1.1 0 0 0 .1 0 .1 0 0 0zm.3.3c.1 0 .1 0 0 0 .1 0 0 0 0 0zM11.9 10.7c0 .1 0 .1 0 0 0 .1 0 .1 0 0 0 .1 0 .1 0 0 0 .1 0 .1 0 0zm-1.6 0s-.1 0 0 0c-.1.1-.1.1 0 0l-.1.1v.1-.2c0 .1 0 .1.1 0h.1-.1zm-.1.1zm-.2.2zm0 0z"/><path stroke="#000" stroke-linejoin="round" stroke-miterlimit="3.949" stroke-width=".007" d="M10.3 10.7s0 .1 0 0c0 .1 0 .1 0 0 0 .1 0 .1 0 0 0 .1 0 .1 0 0 0 .1 0 .1 0 0l-.1.1.1-.1c0 .1 0 .1 0 0 0 .1 0 .1 0 0 0 .1 0 .1 0 0 0 .1 0 .1 0 0 0 .1 0 .1 0 0 0 .1 0 0 0 0zm-.2.4c0 .1 0 .1 0 0 0 .1 0 .1 0 0 0 .1 0 .1 0 0 0 .1 0 .1 0 0 0 .1 0 .1 0 0 .1.1.1.1 0 0l.1.1c-.1 0-.1 0-.1-.1 0 .1 0 .1 0 0 0 .1 0 .1 0 0 0 .1 0 .1 0 0 0 .1 0 .1 0 0z"/><path d="M10.5 11.2c.1 0 .1 0 0 0 .1 0 .1 0 0 0 .1 0 .1 0 0 0 .1 0 .1 0 0 0 .1 0 .1 0 0 0 .1 0 .1 0 0 0 .1 0 .1-.1 0 0h.1-.1c.1 0 .1 0 0 0 .1 0 .1 0 0 0z"/><path stroke="#000" stroke-linejoin="round" stroke-miterlimit="3.949" stroke-width=".007" d="M10.1 10.9c0 .1 0 .1 0 0 0 .1 0 .1 0 0 0 .1 0 .1 0 0 0 .1 0 .1 0 0 0 .1 0 .1 0 0h.1c0 .1 0 .1-.1 0 0 .1 0 .1 0 0 0 .1 0 .1 0 0 0 .1 0 .1 0 0 0 .1 0 0 0 0zm-.1 0s0 .1 0 0l-.1.1.1-.1zm-.4-.4c0 .1 0 .1 0 0v.1H9.9 9.6v-.1c0 .1 0 .1 0 0-.1 0 0 0 0 0zM9.7 10.8c.1 0 .1 0 0 0l.1.1h.2-.2l-.1-.1c.1 0 .1 0 0 0zm.4.8c0 .1 0 .1 0 0 0 .1 0 .1 0 0v.1-.1c0 .1 0 .1 0 0v.1s.1 0 0-.1c.1.1.1.1 0 0 .1.1.1.1 0 0 .1.1.1.1 0 0 0 .1 0 .1 0 0 0 .1 0 .1 0 0 0 .1 0 .1 0 0 0 .1 0 .1 0 0 0 .1 0 0 0 0zm0 .1zm-.1-1.5c.1 0 .1 0 0 0 .1 0 .1.1 0 0l.1.1-.1-.1c.1.1.1.1 0 0 .1 0 0 0 0 0zM10.2 10.7s0-.1 0 0c0-.1 0-.1 0 0 0-.1 0-.1 0 0l-.1-.1c.1 0 .1 0 .1.1 0-.1 0-.1 0 0 .1 0 0 0 0 0zm-.5.5s0 .1 0 0c.1.1.1.1 0 0 .1 0 .1.1.1.1l-.1-.1c.1.1.1.1 0 0 .1.1.1.1 0 0 .1.1.1.1 0 0 0 .1 0 .1 0 0 0 .1 0 0 0 0zm-.4-.7c-.1 0-.1 0 0 0h-.1.1zm-.1.3.1.1-.1-.1zm-.1.3c0 .1 0 .1 0 0v.1-.1zm0-.2v.1-.1zm2-1.6.1.1-.1-.1c0 .1 0 .1 0 0zm-.1-.1c-.1 0-.1 0 0 0-.1 0-.1 0 0 0-.1 0-.1 0 0 0-.1 0-.1 0 0 0-.1 0-.1 0 0 0-.1 0-.1 0 0 0-.1 0-.1 0 0 0-.1 0-.1 0 0 0-.1 0-.1 0 0 0 0 .1 0 .1 0 0 0 .1 0 .1 0 0 0 .1 0 .1 0 0 0 .1 0 .1 0 0 0 .1 0 .1 0 0 0 .1 0 .1 0 0 0 .1 0 0 0 0 0 .1 0 .1 0 0 0 .1 0 .1 0 0 0 .1 0 .1 0 0 0 .1-.1.1 0 0-.1.1-.1 0 0 0-.1 0-.1 0 0 0-.1 0-.1 0 0 0-.1 0-.1 0 0 0-.1 0-.1 0 0 0-.1 0-.1 0 0 0-.1 0-.1 0 0 0zm-.1.1c.1 0 .1 0 0 0 .1 0 .1 0 .1.1l-.1-.1zm-.2 0s0 .1 0 0c0 .1 0 .1 0 0l-.1.1v-.1h.1c0 .1 0 .1 0 0 0 .1 0 .1 0 0zm-.1.4zm0 0c0 .1 0 .1 0 0 0 .1 0 .1 0 0zm0 .1c0 .1 0 .1 0 0 0 .1 0 .1 0 0 0 .1 0 .1 0 0zm1.5.5c0 .1 0 .1 0 0 0 .1 0 .1 0 0 0 .1 0 .1 0 0v.1-.1c0 .1 0 .1 0 0 0 .1 0 .1 0 0zm-.9.1s-.1 0 0 0c-.1 0-.1 0 0 0-.1 0 0 0 0 0zm.8.3c0 .1 0 .1 0 0 0 .1 0 .1 0 0 0 .1 0 .1 0 0l.1.1-.1-.1c0 .1 0 .1 0 0 0 .1 0 0 0 0zm-1.9-.4s.1 0 0 0h.4-.4zm.7.3s-.1 0 0 0h-.5.5z"/><path stroke="#000" stroke-linejoin="round" stroke-miterlimit="3.949" stroke-width=".007" d="M10.1 10.6c.1 0 .1 0 0 0 .1 0 .1 0 0 0 .1 0 .1.1.1.1 0-.1 0-.1-.1-.1.1 0 .1 0 0 0 .1 0 .1 0 0 0zm.6.6c.1.1.1.1 0 0l.1.1-.1-.1c.1.1.1.1 0 0zm-.5.5c.1 0 .1 0 0 0 .1 0 .1 0 0 0 .1 0 .1 0 0 0 .1 0 .1 0 0 0 .1 0 .1 0 0 0 .1 0 .1 0 0 0 .1 0 .1 0 0 0 .1 0 .1 0 0 0 .1 0 .1 0 0 0 .1 0 .1 0 0 0 .1 0 .1 0 0 0 .1 0 .1 0 0 0 .1 0 .1 0 0 0zm-.4-.6c-.1 0-.1 0 0 0-.1 0-.1 0 0 0-.1.1-.1.1 0 0v.1c-.1 0-.1 0 0-.1-.1.1-.1.1 0 0-.1 0-.1 0 0 0-.1 0-.1 0 0 0zm-.3-.7s0 .1 0 0c0 .1 0 .1 0 0v.1-.1c0 .1 0 .1 0 0 0 .1 0 .1 0 0zm-.5.1c0 .1 0 .1 0 0v.2-.2zm.2.6c0 .1 0 .1 0 0v.1-.1c0 .1 0 .1 0 0z"/><path fill-rule="evenodd" stroke="#000" stroke-linecap="round" stroke-linejoin="round" stroke-miterlimit="3.949" stroke-width=".004" d="M10.7 9.2s0 0 0 0m0 0c0 .1 0 .1 0 0m-.1.1s.1 0 0 0m0 0s0 0 0 0m0 0s0 .1 0 0m-.1 0c.1.1.1.1 0 0m0 .1c.1 0 .1 0 0 0m0 0s.1 0 0 0m0 0h.1m-.1.1h.1m-.1 0s.1 0 0 0m-.1.1h.1m-.1 0h.1m-.1 0h.1m0 .1s0 0 0 0m0 .1s0-.1 0 0m0 0s0 0 0 0m0 0s.1 0 0 0M10.5 9.8s.1 0 0 0m0 0s0 0 0 0m0 .1s.1 0 0 0m0 0s.1 0 0 0m0 .1c0-.1.1-.1 0 0m0 0s.1 0 0 0"/><path fill="none" stroke="#000" stroke-linecap="round" stroke-linejoin="round" stroke-miterlimit="3.949" stroke-width=".02" d="M11.2 9.5s0 0 0 0h.1s0 0 0 0h-.1c.1-.1.2-.1.2-.1v-.1h-.1l-.2-.1h-.2v-.1h0s0 .1-.1.1-.2.2-.2.2v.2m-.1.1h0v.1m.5-.2s-.1 0 0 0v-.1h.1s0 0 0 0m-.5.4h0v.2h-.1c.1 0 .2 0 .2.1h.2l.1.2s.1.2.2.2h.1c.1 0 .2-.1.3-.1h.2s.1.1.2.1c0 0 0 .1.1.1h.1v.1H12.5s-.1-.2-.2-.2l-.3-.3s-.1-.1-.2-.1h-.2s0 0 0 0 .1-.1.1-.2l.1-.1.2.1s0 0 0 0h.1s0 0 0 0v.1h.2V10l-.1-.1-.5.1h-.2c-.1 0-.2.1-.2.1 0-.1-.1-.1-.1-.1 0-.1-.1-.2-.2-.3m-1 .5h0c-.1 0-.2.1-.3.1l.2.2v.1h-.1l-.2-.2c-.1 0-.1.1-.1.2h-.3c-.1 0-.3 0-.3.2 0 .1.1.2.1.3V11.4l.1.1v.1l.1-.1v-.2c.1-.3.2-.3.1-.4l-.2-.2s0-.1.1-.1H9.5l.2.2.1.1v.1l-.1.2v.1s.1.1.2.1c0 0 .1.2.2.2 0 0 0 .1.1.1 0 0 .1 0 0 0v.1H10.5l-.1-.1-.2-.1-.2-.2c-.1-.1-.1-.1 0-.2V11v.2h.5s.1 0 .1.1h.2v-.1l-.1-.1-.1-.1H10.3v-.1s.1-.2.2-.3h.4s-.1-.1-.2-.1l-.1-.2h-.4c.1-.1 0-.1-.2-.1.1 0 0 0 0 0h0zM10.5 9.6v-.2s.1-.2.2-.2h-.1s0 0 0 0h0s0 0 0 0 0 0 0 0 0 0 0 0 0 0 0 0 0 0 0 0 0 0 0 0h0s0 0 0 0 0 0 0 0h0s0 0 0 0 0 0 0 0 0 0 0 0 0 0 0 0 0 0 0 0 0 0 0 0 0 0 0 0 0 0 0 0 0 0 0 0 0 0 0 0 0 0 0 0 0 0 0 0 0 0 0 0 0 0 0 0-.1 0 0 0c0 0 0 0 0 0s0 0 0 0c-.2.3-.2.3-.1.4l-.1-.1s0 0 0 0 0 0 0 0 0 0 0 0m.1.2s0 0 0 0 0 0 0 0 0 0 0 0 0 .1 0 0c0 .1 0 .1 0 0m.1.1h0v-.1m-.2.1s0 0 0 0h0zm.1 0h0c-.1 0-.1 0 0 0-.1 0 0 0 0 0 0 .1 0 .1 0 0v.1s0 0 0 0 0 0 0 0 0 0 0 0 0 0 0 0h0c.1 0 .1-.1 0-.1v-.1"/><path fill="none" stroke="#000" stroke-linecap="round" stroke-linejoin="round" stroke-miterlimit="3.949" stroke-width=".017" d="m11.2 9.4-.1.1s-.1.1-.2.1l-.2.1s-.1.1-.2 0h-.1s0 0 0 0 0 0 0 0c0 .1.1.1.1.1s.1 0 .2-.1c.1 0 .2-.1.3-.2s.2 0 .2-.1m-.6.2h-.1s0 0 0 0c0 .1 0 .1.1 0-.1.1-.1.1 0 0-.1.1 0 .1 0 0 0 .1 0 .1 0 0 .1.1 0 0 0 0s0 0 0 0h0zm0 .1s0 0 0 0 0 0 0 0c-.1 0-.1 0 0 0-.1 0-.1 0 0 0-.1 0-.1 0 0 0z"/><path stroke="#000" stroke-linejoin="round" stroke-miterlimit="3.949" stroke-width=".007" d="M9.1 9.7s.1 0 0 0c.1 0 .1 0 0 0h.2-.2c.1 0 .1 0 0 0zm.7-.5c.1 0 0 0 0 0 0 .1 0 .1 0 0-.1 0-.1 0 0 0-.1 0-.1 0 0 0zm.1.1h.1-.1c-.1 0 0 0 0 0zm-.5 0s.1 0 0 0c.1 0 .1.1 0 0 .1.1.1 0 0 0 0 .1 0 .1 0 0zm-.2.2c.1 0 .1 0 0 0 .1 0 .1 0 0 0h.1-.2.1zM9.4 9.3c.1 0 .1 0 0 0 .1 0 .1 0 0 0 .1 0 .1 0 0 0 .1 0 .1 0 0 0 .1 0 .1 0 0 0H9.7 9.4c.1 0 .1 0 0 0 .1 0 .1 0 0 0 .1 0 .1 0 0 0 .1 0 .1 0 0 0 .1 0 .1 0 0 0zm-.2.3zm-.3.4H9l.1-.1-.1.1h-.1z"/><path d="M10.6 9.3c-.1 0-.1 0 0 0-.1 0-.1 0 0 0-.1 0 0 0 0 0zm-.2 0s0 .1 0 0c0 .1 0 .1 0 0 0 .1-.1.1 0 0 0 .1 0 .1 0 0 0 .1 0 .1 0 0-.1.1-.1.1 0 0l-.1.1.1-.1c-.1.1 0 .1 0 0 0 .1 0 .1 0 0zm-.5.2.1-.1-.1.1z"/><path stroke="#000" stroke-linejoin="round" stroke-miterlimit="3.949" stroke-width=".007" d="M10.2 9.3v.1-.1zm-.3.2c.1 0 .1.1 0 0 .1.1.1.1 0 0l.1.1-.1-.1c.1.1.1.1 0 0 0 .1 0 0 0 0zM10.2 9.7h.1-.1z"/><path d="M10.4 9.7c-.1 0-.1 0 0 0-.1 0-.1 0 0 0-.1 0-.1 0 0 0-.1 0-.1 0 0 0-.1 0-.1 0 0 0-.1 0-.1 0 0 0-.1 0-.1 0 0 0 0-.1 0-.1 0 0 0-.1 0 0 0 0z"/><path stroke="#000" stroke-linejoin="round" stroke-miterlimit="3.949" stroke-width=".007" d="M10 9.8h.1-.1c.1 0 .1 0 0 0zm.2 0s.1 0 0 0c.1 0 .1 0 0 0 .1.1.1.1 0 0 .1.1.1.1 0 0 .1.1.1.1 0 0 .1.1.1.1 0 0zm.2.2c-.1 0-.1 0 0 0-.1 0-.1 0 0 0-.1 0-.1 0 0 0h-.1.1c-.1 0-.1 0 0 0-.1 0-.1 0 0 0zm-.3 0c0-.1 0 0 0 0z"/><path d="M9.5 10z"/><path stroke="#000" stroke-linejoin="round" stroke-miterlimit="3.949" stroke-width=".007" d="M9.4 10.1c0-.1 0-.1 0 0zm0 0c0-.1 0 0 0 0zm0 0c.1 0 .1 0 0 0z"/><path d="M9.7 9.6c.1 0 .1 0 0 0 .1 0 .1 0 0 0 .1 0 .1 0 0 0 .1 0 .1 0 0 0 .1 0 0 0 0 0s.1 0 0 0z"/><path stroke="#000" stroke-linejoin="round" stroke-miterlimit="3.949" stroke-width=".007" d="M9.8 10.4c.1.1.1.1 0 0 .1.1.1.1 0 0 .1.1.1.1 0 0 .1.1.1.1 0 0 .1.1.1.1 0 0 .1.1 0 .1 0 0zm-.3-.3c.1.1.1.1 0 0 .1.1.1.1 0 0zM9.6 10.2c.1.1.1.1 0 0 .1.1.1.1 0 0l.1.1-.1-.1c.1.1.1.1 0 0 .1.1 0 0 0 0z"/><path d="M10.5 9.7c-.1 0-.1 0 0 0-.1 0-.1 0 0 0-.1 0-.1 0 0 0zm0 0c-.1 0-.1 0 0 0-.1 0-.1 0 0 0-.1 0 0 0 0 0zM10.5 9.8c-.1 0-.1 0 0 0-.1 0-.1 0 0 0-.1 0-.1 0 0 0-.1 0-.1 0 0 0-.1 0-.1 0 0 0 0 0-.1 0 0 0z"/><path stroke="#000" stroke-linejoin="round" stroke-miterlimit="3.949" stroke-width=".007" d="M10.1 10.1h.1-.1c0 .1 0 .1 0 0 0 .1 0 .1 0 0zm.7.4c0 .1 0 .1 0 0 0 .1 0 .1 0 0l.1.1-.1-.1c0 .1 0 .1 0 0zm.1.1s0 .1 0 0c0 .1 0 .1 0 0 0 .1 0 .1 0 0 0 0 0 .1 0 0zM10 9.1zm.1 0c.1 0 .1 0 0 0 .1 0 .1 0 0 0zm.2-.1s0 .1 0 0c0 .1 0 .1 0 0 0 .1 0 .1 0 0 0 .1 0 .1 0 0 0 .1 0 .1 0 0 0 .1 0 .1 0 0 0 .1 0 .1 0 0v.1V9c0 .1 0 .1 0 0 0 .1 0 .1 0 0 0 .1 0 0 0 0zm0 .1z"/><path fill-rule="evenodd" stroke="#000" stroke-linecap="round" stroke-linejoin="round" stroke-miterlimit="3.949" stroke-width=".004" d="M10.7 9s0 .1 0 0m0 0s-.1 0 0 0m0 0c-.1 0-.1 0 0 0h0m-.1-.1c0 .1 0 .1 0 0m0 0c0 .1 0 .1 0 0m0 0s0 .1 0 0m-.1 0s0 .1 0 0m0 0c0 .1 0 .1 0 0m0 0h0m-.1 0c0 .1 0 .1 0 0m0 0c0 .1 0 .1 0 0m0 .1h0m0 0s0 0 0 0"/><path stroke="#000" stroke-linejoin="round" stroke-miterlimit="3.949" stroke-width=".007" d="M10.4 9.1c-.1.1-.1.1 0 0-.1.1-.1.1 0 0-.1.1-.1.1 0 0-.1.1-.1.1 0 0-.1.1-.1.1 0 0-.1.1-.1.1 0 0 0 .1 0 .1 0 0 0 .1 0 .1 0 0 0 .1 0 .1 0 0 0 .1 0 .1 0 0 0 .1 0 .1 0 0 0 .1 0 .1 0 0 0 .1 0 .1 0 0 0 .1 0 .1 0 0 0 .1 0 .1 0 0 0 .1 0 .1 0 0 .1.1.1.1 0 0 .1.1.1.1 0 0 .1.1.1.1 0 0 .1.1.1.1 0 0 .1.1 0 .1 0 0 0 .1 0 0 0 0zm.3.1c-.1 0-.1-.1 0 0-.1-.1-.1-.1 0 0-.1-.1-.1-.1 0 0-.1-.1-.1-.1 0 0-.1-.1-.1-.1 0 0-.1-.1-.1-.1 0 0z"/><path d="M10.5 9.3c-.1 0-.1 0 0 0-.1 0-.1 0 0 0-.1 0-.1 0 0 0zm0 0s.1 0 0 0zm-.2-.1s.1 0 0 0c.1 0 .1 0 0 0 .1.1 0 .1 0 0 0 .1 0 .1 0 0v.1-.1c0 .1 0 .1 0 0z"/><path stroke="#000" stroke-linejoin="round" stroke-miterlimit="3.949" stroke-width=".007" d="M10.1 9.4c0 .1.1.1.1.1-.1 0-.1 0-.1-.1z"/><path stroke="#000" stroke-linejoin="round" stroke-miterlimit="3.949" stroke-width=".01" d="m10.9 10.4-.2.1.2-.1c0 .1 0 .1 0 0zm0 .1-.2.1.2-.1zm.1.1h-.1.1v.1-.1z"/><path stroke="#000" stroke-linejoin="round" stroke-miterlimit="3.949" stroke-width=".007" d="M11 10.6c0 .1 0 .1 0 0 0 .1 0 .1 0 0v.1-.1c0 .1 0 .1 0 0z"/><path d="M11.2 10.8c.1 0 .1 0 0 0h.1-.1c.1 0 .1 0 0 0zm-.8-1.3c0 .1 0 .1 0 0v.1-.1c0 .1 0 .1 0 0zm0 .1z"/><path stroke="#000" stroke-linejoin="round" stroke-miterlimit="3.949" stroke-width=".007" d="M10.7 10.2s.1 0 0 0c.1 0 .1 0 0 0l.1.1-.1-.1c.1 0 .1 0 0 0zm-.2.5c.1.1.1.1 0 0 .1.1.1.1 0 0 .1.1.1.1 0 0 .1.1 0 .1 0 0 0 .1 0 .1 0 0 0 .1 0 .1 0 0 .1.1.1.1 0 0 0 .1 0 .1 0 0zm.1-1.6s0-.1 0 0l-.1-.1.1.1c0-.1 0-.1 0 0 0-.1 0-.1 0 0z"/><path fill="none" stroke="#000" stroke-linejoin="round" stroke-miterlimit="3.949" stroke-width=".02" d="M10.8 9.1c-.1 0-.1 0 0 0-.1.1-.1 0-.2 0 0 0 0-.1-.1-.1s-.1 0-.2.1v.1s-.1 0-.1-.1H9.9h.5s.1-.1.2-.1c0-.1.1-.1.2.1-.1-.1 0-.1 0 0z"/><path fill="none" stroke="#000" stroke-linejoin="round" stroke-miterlimit="3.949" stroke-width=".017" d="M10.5 9c-.1 0-.1 0-.2.1v.1h.2v.1h.2v-.1c0-.1-.1-.1-.2-.2.1 0 .1 0 0 0z"/><path fill="none" stroke="#000" stroke-linejoin="round" stroke-miterlimit="3.949" stroke-width=".02" d="M10.6 9.2c-.1 0-.1 0 0 0l-.1.1v-.2h-.1v.1h-.1l-.1-.1h-.1s-.1.1-.2.1-.1.1-.1.1c-.1 0-.1.1-.1.1s-.2.5-.3.6h-.1.3v-.1l.2-.2.1-.1s.1 0 .1-.1c0 .1 0 .2.1.3v.4l.1.1H10.8l.1.2s.1.1.2.1 0 .1 0 .1H11.4h-.1l-.1-.1s0-.1-.1-.1c0 0-.1-.2-.2-.2 0-.1-.1-.1-.1-.2h-.2s-.1 0-.2-.1c-.1 0-.1 0-.1-.1v-.5s0-.1.1-.1c.2 0 .2 0 .2-.1 0 .1 0 .1 0 0 0 .1 0 0 0 0z"/><path fill="none" stroke="#000" stroke-linejoin="round" stroke-miterlimit="3.949" stroke-width=".02" d="M9.8 9.2s-.1 0 0 0c-.1.1-.2.1-.3.1h-.1v.1h-.1c-.1 0-.1 0-.1.1v.1s-.1 0-.2.1v.2s-.1.1-.2.1 0 0 0 .1l.2.1s.1 0 .1-.1h.2l-.1-.1.1.1v-.2l.1-.1.6-.6h-.2zm.1.3-.1.1-.2.3.1-.1c.1 0 .1-.1.2-.1v-.2c0 .1 0 .1 0 0z"/><path fill="none" stroke="#000" stroke-linejoin="round" stroke-miterlimit="3.949" stroke-width=".017" d="M10.5 9.7s0 .1 0 0c0 .1 0 .1 0 0 0 .1-.1.1 0 0-.1.1-.1.1 0 0-.1.1-.1 0 0 0-.1 0-.1 0 0 0-.1 0-.1 0 0 0-.1 0 0 0 0 0z"/><path fill="none" stroke="#000" stroke-linejoin="round" stroke-miterlimit="3.949" stroke-width=".02" d="M9.3 9.9s0 .1 0 0c0 .1 0 .1 0 0 .1.1.1.1 0 0 .1 0 .1 0 0 0zm.3.1-.1.1.1-.1zM9.5 10.1l.4.4h.1v-.1l-.5-.3zM10.6 10.7h-.1c0 .1.1.1.1 0 0 .1 0 .1 0 0z"/><path fill="none" stroke="#000" stroke-linecap="round" stroke-linejoin="round" stroke-miterlimit="3.949" stroke-width=".017" d="M10.4 9.7s0 0 0 0c0-.1 0-.1 0 0v-.1s0 0 0 0v-.1s0 0 0 0 0 0 0 0l-.1-.1h0s0 0 0 0v.1s0 0 0 0c.1.1.1.1.1.2 0 0 0 0 0 0h0s0 0 0 0"/><path d="M10.5 12.5c.1 0 .1 0 0 0 .1.1.1.1 0 0l.1.1c-.2 0-.2 0-.1-.1-.1.1-.1.1 0 0-.1 0-.1 0 0 0-.1 0-.1 0 0 0z"/><path d="m10.4 12.4-.1.1.1.1h-.1v.1s0 .1.1.1h.1v.1h.2v-.1h.1s.1 0 .1-.1v-.1h-.1l.1-.1v-.1h-.5c.1 0 .1 0 0 0 .1 0 0 0 0 0zm0 0c.1 0 .1 0 0 0 .1.1.1.1 0 0 .1.1.1.1 0 0h.2v.2h.1v.1s0 .1 0 0h-.1v.1h-.2v-.1h-.1v-.1h.1v-.2c-.1.1 0 .1 0 0z"/><path fill-rule="evenodd" d="M10.5 12.3v.1-.1zm-.3.2.1.1-.1-.1zm.6 0c-.1 0-.1 0 0 0h-.1.1zm-.3 0zm-.1 0c0 .1 0 .1 0 0 0 .1 0 .1 0 0zm.2 0c0 .1 0 .1 0 0 0 .1 0 .1 0 0zm-.2.1c0 .1 0 .1 0 0 .1.1.1.1 0 0 .1.1 0 0 0 0zm.2 0c-.1.1-.1.1 0 0-.1.1-.1.1 0 0 0 .1 0 .1 0 0zm0 .1.1.1-.1-.1zm-.2 0-.1.1.1-.1z"/><path fill="none" stroke="#000" stroke-linecap="round" stroke-linejoin="round" stroke-miterlimit="10" stroke-width=".027" d="m12.8 9-.1.1c-.3-.1-.4-.2-.5-.4-.1-.2-.1-.4-.1-.6.3 0 .5.1.7.2s.3.4.3.5H13c0-.1-.1-.3-.2-.4-.1-.1-.4-.3-.5-.2-.1.1-.1.3 0 .4-.1.2.2.4.3.4l.1-.1.1.1z"/><path fill="none" stroke="#000" stroke-linecap="round" stroke-linejoin="round" stroke-miterlimit="10" stroke-width=".027" d="M12.6 8.4s0 0 0 0c-.1 0-.3.1-.4.1 0-.1 0-.2.1-.3h-.1c0 .1 0 .3-.1.4 0 0 0 0 0 0s0 0 0 0c.2 0 .4-.1.5-.2 0 .1 0 0 0 0h0zM12.7 8.5l-.3.3s.1 0 .1.1c0-.1.2-.2.2-.4 0 .1 0 .1 0 0zM12 12.8l-.1-.1c.1-.3.2-.4.4-.5.2-.1.4-.1.6-.1 0 .3-.1.5-.2.7-.1.2-.4.3-.5.3V13c.1 0 .3-.1.4-.2.1-.1.3-.4.2-.5-.1-.1-.3-.1-.4 0-.1.1-.3.3-.3.4l.1.1H12z"/><path fill="none" stroke="#000" stroke-linecap="round" stroke-linejoin="round" stroke-miterlimit="10" stroke-width=".027" d="M12.6 12.6s0 0 0 0c0-.1-.1-.3-.1-.4.1 0 .2 0 .3.1v-.1c-.1 0-.3 0-.4-.1 0 0 0 0 0 0s0 0 0 0c0 .2.1.4.2.5-.1 0 0 0 0 0h0zM12.5 12.7l-.3-.3s0 .1-.1.1c.1 0 .2.2.4.2-.1 0-.1 0 0 0zM8.2 12l.1-.1c.3.1.4.2.5.4.1.2.1.4.1.6-.3 0-.5-.1-.7-.2-.2-.1-.3-.4-.3-.5H8c0 .1.1.3.2.4.1.1.4.3.5.2s.1-.3 0-.4c.1-.2-.2-.4-.3-.4l-.1.1-.1-.1z"/><path fill="none" stroke="#000" stroke-linecap="round" stroke-linejoin="round" stroke-miterlimit="10" stroke-width=".027" d="M8.4 12.6s0 0 0 0c.1 0 .3-.1.4-.1 0 .1 0 .2-.1.3h.1c0-.1 0-.3.1-.4 0 0 0 0 0 0s0 0 0 0c-.2 0-.4.1-.5.2 0-.1 0 0 0 0h0zM8.3 12.5l.3-.3s-.1 0-.1-.1c0 .1-.2.2-.2.4 0-.1 0-.1 0 0zM9 8.2l.1.1c-.1.4-.2.5-.4.6-.2.1-.4.2-.6.2 0-.3.1-.5.2-.7s.4-.3.5-.3v.1c-.1 0-.3.1-.4.2-.1.1-.2.4-.1.5.1.1.3.1.4 0 .1-.1.3-.4.3-.5l-.1-.1.1-.1z"/><path fill="none" stroke="#000" stroke-linecap="round" stroke-linejoin="round" stroke-miterlimit="10" stroke-width=".027" d="M8.4 8.4s0 0 0 0c0 .1.1.3.1.4-.1 0-.2 0-.3-.1v.1c.1 0 .3 0 .4.1 0 0 0 0 0 0s0 0 0 0c0-.2-.1-.4-.2-.5.1 0 0 0 0 0h0zM8.5 8.3l.3.3s0-.1.1-.1c-.1 0-.2-.2-.4-.2.1 0 .1 0 0 0z"/><path d="M8.6 11.8c-.1-.1-.1-.2-.2-.2h.1c0 .1.1.2.1.2l.1-.1c0-.1-.1-.1-.1-.1h.1s0 .1.1.1c0 0 .1-.1.2-.1v-.1c-.1 0-.3.2-.4.3zm-.2-1.1c-.1 0-.2.1-.2.3s.1.2.3.2.2-.1.2-.3-.1-.2-.3-.2zm0 .1c.1 0 .2 0 .2.1s-.1.2-.2.2-.2-.1-.2-.1c.1-.1.1-.2.2-.2zm.3-.9c-.1.1-.2.1-.2.2 0-.1-.1-.1-.1-.1-.1 0-.1 0-.1.1v.2h.4v-.1h-.2l.1-.1s.1-.1.1-.2zm-.2.4h-.2c0-.1 0-.1.1-.1 0-.1.1-.1.1.1zm.4-1.4c0 .1-.1.1-.1.2 0 0 0 .1.1.1s.1.1.2 0l.1-.1-.1-.1c0 .1.1.1.1.1 0 .1-.1.2-.2.2h-.3V9c.1 0 .2-.1.2-.1zm.6-.4V9l.1-.1v-.1l.2-.1.1.1.1-.1c-.1 0-.2-.1-.2-.1l-.3-.1zm0 .1.2.1h-.2v-.1zm.8-.4v.4c.1 0 .2 0 .2-.1v.1h-.3v-.4h.1zM12 9.4c0-.1.2-.2.3-.3l-.1.4c.1 0 .2-.1.3-.2l.1.1c-.1 0-.3.1-.4.2l.1-.4c-.1.1-.3.2-.3.2zm.7.7V10h.1c0 .1.1.3.1.4h-.1c-.1-.1-.1-.2-.1-.3-.1.1-.3.1-.3.2v-.1c0-.1.2-.1.3-.1zm-.6 1.3-.1.1c.1 0 .1 0 .2.1 0 .1.1.2.1.3l.1-.1s-.1 0-.1-.2h.2l.1-.1c-.1.1-.3.1-.3.1l-.2-.2zm-.2-2.7-.3.2s-.1.1-.2.1l.1.1.1-.1h.1s0 .1-.1.1l.1.1V9l.2-.3zm-.1 0v.2l-.1-.1.1-.1zm-.8-.4c0 .1-.1.2-.1.4h.2v.1l-.3-.1c0-.1.1-.3.1-.4h.1zm1.3 2.8c.1-.1.2-.1.2-.2 0 .1.1.1.1.1.1 0 .1 0 .1-.1v-.2h-.4v.1h.2l-.1.1s-.1.1-.1.2zm.2-.4h.2c0 .1 0 .1-.1.1 0 .1-.1.1-.1-.1z"/><path fill="none" stroke="#CF142B" stroke-miterlimit="3.949" stroke-width=".186" d="M16 8.9h-3c0-.5-.5-.9-.9-.9V5H8.9v3c-.5 0-.9.4-.9.9H5v3.2h3c0 .5.4.9.9.9v3h3.2v-3c.5 0 .9-.5.9-.9h3V8.9z"/><path fill-rule="evenodd" stroke="#000" stroke-linejoin="round" stroke-miterlimit="3.949" stroke-width=".01" d="M9.2 5.3v3.2-3.2h2.6v3.2-3.2H9.2zM5.3 9.2v2.6h3.2-3.2V9.2h3.2-3.2zm7.2 0h3.2v2.6h-3.2 3.2V9.2h-3.2zm-3.3 3.3v3.2h2.6v-3.2 3.2H9.2v-3.2zM9 5.1v3.2-3.2h2.9v3-3H9zm3 3.2v.3V8.3zm-3 .2v.1-.1zM5.1 9v3h3.2-3.2V9h3-3zm3.3 0h.2-.2zm3.9 0h.1-.1zm.4 0h3.1v3h-3 3V9h-3.1zm-4.2 3h.1-.1zm3.9 0h.4-.4zm-.4.3v.1-.1zm-3 0V12.6v-.3zm3 .4v3.2H9v-3 3h3v-3.2z"/><circle cx="10.5" cy="10.5" r="1.8" fill="none" stroke="#000" stroke-linejoin="round" stroke-miterlimit="3.949" stroke-width=".033"/><circle cx="11.6" cy="12.3" r=".1"/><circle cx="9.4" cy="12.3" r=".1"/><circle cx="10.5" cy="10.5" r="2.4" fill="none" stroke="#000" stroke-linejoin="round" stroke-miterlimit="3.949" stroke-width=".033"/></svg>