<svg xmlns="http://www.w3.org/2000/svg" xml:space="preserve" width="40" height="40" baseProfile="tiny" overflow="visible" version="1.2" viewBox="0 0 40 40"><path fill="red" d="M1 26.9h38v12H1z"/><path fill="#00F" d="M1 12.9h38v14H1z"/><path fill="#FFFFFE" d="M1 .9h38v12H1z"/><path fill="#00F" d="M8.4 7c3.3-1.4 7-1.4 10.2 0 .5 7.6-1.2 11.8-5.1 12.8-3.9-1-5.6-5.3-5.1-12.8z"/><path fill="#FF0" d="m13.5 8.3.2.4h.4l-.3.3.2.3h-.4l-.2.4-.2-.4h-.4l.4-.3-.2-.4h.4M12.1 6.4l.2.4h.4l-.3.2.2.3h-.4l-.2.4-.2-.4h-.4l.4-.3-.2-.3h.4M15 6.4l.2.4h.4l-.3.2.2.3h-.4l-.1.4-.2-.4h-.4l.2-.3-.2-.3h.4"/><path fill="#FFF" d="m13.5 10.3 1.2 2.5.8-1.1 2.1 2.8c0 .1 0 .3-.1.4-.6 2-2.1 3.6-4.1 4.3-2-.7-3.5-2.3-4.1-4.3 0-.1-.1-.2-.1-.4l2.1-2.8.8 1.1 1.4-2.5z"/><path fill="#00F" d="M9.4 14.8c.2.7 1 1.2 1.7.9.1 0 .2-.1.3-.1.4-.2.9-.2 1.4 0 .4.2.9.2 1.4 0 .4-.2.9-.2 1.4 0 .7.4 1.5.2 1.9-.5.1-.1.1-.2.1-.3h.1v1c-.2 0-.5.1-.7.2-.4.2-.9.2-1.4 0-.4-.2-.9-.2-1.4 0-.4.2-.9.2-1.4 0-.4-.2-.9-.2-1.4 0-.4.2-.9.2-1.4 0-.2-.1-.4-.2-.7-.2l.1-1"/><path fill="#00F" d="M9.4 15.6c.2.7 1 1.2 1.7.9.1 0 .2-.1.3-.1.4-.2.9-.2 1.4 0 .4.2.9.2 1.4 0 .4-.2.9-.2 1.4 0 .7.4 1.5.2 1.9-.5.1-.1.1-.2.1-.3h.1v1c-.2 0-.5.1-.7.2-.4.2-.9.2-1.4 0-.4-.2-.9-.2-1.4 0-.4.2-.9.2-1.4 0-.4-.2-.9-.2-1.4 0-.4.2-.9.2-1.4 0-.2-.1-.4-.2-.7-.2l.1-1"/><path fill="red" d="M8 7.2c.1-.1.3-.2.4-.2l.4 6.5c.2 2.8 2 5.2 4.7 6 2.7-.9 4.5-3.2 4.7-6l.4-6.5c.2 0 .3.1.4.2l-.4 6.4c-.2 3-2.2 5.6-5.1 6.4-2.9-.9-4.9-3.4-5.1-6.4L8 7.2z"/></svg>