<svg xmlns="http://www.w3.org/2000/svg" xml:space="preserve" width="40" height="40" baseProfile="tiny" overflow="visible" version="1.2" viewBox="0 0 40 40"><path fill="red" d="M1 24.2h38v8.3H1z"/><path fill="#00F" d="M1 15.8h38v8.3H1z"/><path fill="#FFFFFE" d="M1 7.5h38v8.3H1z"/><path fill="#00F" d="M7.2 12.6c1.8-.8 3.8-.8 5.6 0 .3 4.1-.6 6.5-2.8 7-2.2-.6-3.1-2.9-2.8-7z"/><path fill="#FF0" d="m10 13.3.1.2h.2l-.1.2.1.2h-.2l-.1.1-.1-.2h-.2l.1-.2-.1-.2h.2M9.2 12.3l.1.2h.2l-.1.2.1.2h-.2l-.1.1-.1-.2h-.2l.1-.2-.1-.2h.2M10.8 12.3l.1.2h.2l-.1.1.1.2h-.2l-.1.2-.1-.2h-.2l.1-.2-.1-.2h.2"/><path fill="#FFF" d="m10 14.4.7 1.4.4-.6 1.1 1.5v.2c-.3 1.1-1.1 2-2.2 2.3-1.1-.4-1.9-1.2-2.2-2.3v-.2l1.1-1.5.4.6.7-1.4z"/><path fill="#00F" d="M7.8 16.9c.1.4.5.6.9.5.1 0 .1 0 .2-.1.2-.1.5-.1.8 0s.5.1.8 0 .5-.1.8 0c.4.2.8.1 1-.3 0-.1.1-.1.1-.2v.5c-.1 0-.3 0-.4.1-.2.1-.5.1-.8 0-.2-.1-.5-.1-.8 0-.2.1-.5.1-.8 0-.2-.1-.5-.1-.8 0-.2.1-.5.1-.8 0-.1-.1-.2-.1-.4-.1l.2-.4"/><path fill="#00F" d="M7.8 17.3c.1.4.5.6.9.5.1 0 .1 0 .2-.1.2-.1.5-.1.8 0 .2.1.5.1.8 0 .2-.1.5-.1.8 0 .4.2.8.1 1-.3 0-.1.1-.1.1-.2v.5c-.1 0-.3 0-.4.1-.2.1-.5.1-.8 0s-.5-.1-.8 0-.5.1-.8 0-.5-.1-.8 0-.5.1-.8 0c-.1-.1-.2-.1-.4-.1l.2-.4"/><path fill="red" d="M7 12.7c.1 0 .1-.1.2-.1l.2 3.6c.1 1.5 1.1 2.8 2.6 3.3 1.5-.5 2.5-1.8 2.6-3.3l.2-3.6c.1 0 .1.1.2.1l-.2 3.5c-.1 1.6-1.2 3-2.8 3.5-1.6-.5-2.7-1.9-2.8-3.5L7 12.7z"/></svg>